<?xml version="1.0" encoding="UTF-8"?>
<svg width="118px" height="38px" viewBox="0 0 118 38" version="1.1" xmlns="http://www.w3.org/2000/svg" xmlns:xlink="http://www.w3.org/1999/xlink">
    <!-- Generator: Sketch 43.1 (39012) - http://www.bohemiancoding.com/sketch -->
    <title>Google Play_bt</title>
    <desc>Created with Sketch.</desc>
    <defs>
        <linearGradient x1="60.0979097%" y1="91.9858265%" x2="33.4967036%" y2="-59.2430671%" id="linearGradient-1">
            <stop stop-color="#D6FFA1" offset="0%"></stop>
            <stop stop-color="#93E2A7" offset="32.64%"></stop>
            <stop stop-color="#00A3B5" offset="100%"></stop>
        </linearGradient>
        <linearGradient x1="-32.0120014%" y1="-128.796925%" x2="80.4537326%" y2="114.272484%" id="linearGradient-2">
            <stop stop-color="#FF177B" offset="0%"></stop>
            <stop stop-color="#FFA976" offset="67.21%"></stop>
            <stop stop-color="#FFEC73" offset="100%"></stop>
        </linearGradient>
        <linearGradient x1="50.8959453%" y1="74.7155744%" x2="-0.0203631119%" y2="-29.4416057%" id="linearGradient-3">
            <stop stop-color="#63FFD4" offset="0%"></stop>
            <stop stop-color="#32A0BA" offset="48.54%"></stop>
            <stop stop-color="#1262A9" offset="83.49%"></stop>
            <stop stop-color="#064AA2" offset="100%"></stop>
        </linearGradient>
        <linearGradient x1="119.293997%" y1="35.6765199%" x2="-22.9945868%" y2="61.1790827%" id="linearGradient-4">
            <stop stop-color="#FF4521" offset="0%"></stop>
            <stop stop-color="#D43E65" offset="34.11%"></stop>
            <stop stop-color="#9F36B9" offset="79.35%"></stop>
            <stop stop-color="#8A33DB" offset="100%"></stop>
        </linearGradient>
    </defs>
    <g id="Welcome" stroke="none" stroke-width="1" fill="none" fill-rule="evenodd">
        <g id="HomePage" transform="translate(-196.000000, -1499.000000)">
            <g id="largest-travel-marketplace-copy-2" transform="translate(8.000000, 1413.000000)">
                <g id="Google-Play_bt" transform="translate(188.000000, 86.000000)">
                    <rect id="container" fill="#000000" x="0" y="0" width="118" height="37.8205128" rx="2"></rect>
                    <g id="Google-Play" transform="translate(29.763864, 14.964657)" fill="#FFFFFF">
                        <g id="google" transform="translate(-0.000000, 0.000000)">
                            <path d="M51.8341844,11.623 L50.9710745,12.431991 C50.7721422,12.540955 50.5737445,12.6674595 50.3758817,12.7572883 C49.7764107,13.0278378 49.1667792,13.0958739 48.6250629,13.0958739 C48.0485868,13.0958739 47.1448348,13.0591982 46.2234357,12.3963784 C44.9426748,11.4991532 44.3827764,9.95824324 44.3827764,8.61506306 C44.3827764,5.83409009 46.6603382,4.47018018 48.5175752,4.47018018 C49.167314,4.47018018 49.8341653,4.63176577 50.3764165,4.97247748 C51.2780293,5.5646036 51.5111866,6.33479279 51.6405996,6.74779279 L47.3977784,8.45135135 L46.0084603,8.55872072 C46.4581973,10.8384595 48.0100837,12.1646306 49.7250733,12.1646306 C50.581766,12.1646306 51.217601,11.8871712 51.801029,11.6001441 C51.8004942,11.6006757 51.9176076,11.5400811 51.8341844,11.623 L51.8341844,11.623 Z M49.2748017,7.08744144 C49.6197247,6.96306306 49.7983361,6.85516216 49.7983361,6.60587387 C49.7983361,5.88936937 48.9828203,5.06230631 48.009549,5.06230631 C47.2881517,5.06230631 45.9351976,5.62041441 45.9351976,7.55784685 C45.9351976,7.86028829 45.9710268,8.1823964 45.9897436,8.5045045 L49.2748017,7.08744144 L49.2748017,7.08744144 Z" id="Shape"></path>
                            <path d="M42.9640463,11.4837387 C42.9640463,12.1811081 43.0891812,12.2895405 43.6822349,12.3437568 C43.9913288,12.3799009 44.2993531,12.3963784 44.6047036,12.431991 L43.9373176,12.8269189 L40.7570733,12.8269189 C41.1741896,12.289009 41.2458481,12.2358559 41.2458481,11.8770721 L41.2458481,11.4768288 L41.2388961,0.812711712 L39.8346047,0.812711712 L41.1859544,0.165306306 L43.7667277,0.165306306 C43.2073641,0.486882883 43.0405176,0.68354955 42.9683244,1.31075676 L42.9640463,11.4837387 L42.9640463,11.4837387 Z" id="Shape"></path>
                            <path d="M38.0319137,5.3503964 C38.4458213,5.68898198 39.3110702,6.40708108 39.3110702,7.77045946 C39.3110702,9.09875676 38.5575871,9.7249009 37.7976868,10.3175586 C37.5645295,10.5509009 37.2923344,10.8039099 37.2923344,11.1951171 C37.2923344,11.5916396 37.5650643,11.8069099 37.7613228,11.9674324 L38.4132007,12.4676036 C39.2057216,13.1325495 39.9281884,13.7422162 39.9281884,14.9806847 C39.9281884,16.6682973 38.285392,18.3691982 35.1810843,18.3691982 C32.5660861,18.3691982 31.3019029,17.1317928 31.3019029,15.8045586 C31.3019029,15.1582162 31.6249007,14.2434505 32.6928253,13.6173063 C33.8115525,12.9374775 35.3276098,12.8465856 36.1388475,12.7934324 C35.8853691,12.4681351 35.5960615,12.1274234 35.5960615,11.5714414 C35.5960615,11.2674054 35.688041,11.0861532 35.7768119,10.8724775 C35.5794838,10.8910811 35.3805515,10.9102162 35.1998011,10.9102162 C33.2858791,10.9102162 32.2035158,9.49102703 32.2035158,8.09203604 C32.2035158,7.2670991 32.582129,6.35233333 33.3596766,5.68845045 C34.3885634,4.8465045 35.6153131,4.7013964 36.5901887,4.7013964 L40.3089407,4.7013964 L39.15278,5.3503964 L38.0319137,5.3503964 L38.0319137,5.3503964 Z M36.7527571,13.3132703 C36.6051621,13.2941351 36.5163912,13.2941351 36.3377798,13.2941351 C36.1741419,13.2941351 35.1992663,13.3292162 34.4441789,13.5811622 C34.0447098,13.7262703 32.8901534,14.1552162 32.8901534,15.4298288 C32.8901534,16.7012523 34.1366893,17.6176126 36.0655847,17.6176126 C37.7976868,17.6176126 38.7180165,16.7921441 38.7180165,15.6807117 C38.7174817,14.7659459 38.1222888,14.2833153 36.7527571,13.3132703 L36.7527571,13.3132703 Z M37.2720134,9.90509009 C37.6891296,9.49155856 37.7254936,8.91963063 37.7254936,8.59433333 C37.7254936,7.30430631 36.9516894,5.29511712 35.4516751,5.29511712 C34.9837562,5.29511712 34.4767995,5.52899099 34.1890962,5.88936937 C33.8842805,6.26303604 33.7928358,6.74779279 33.7928358,7.21394595 C33.7928358,8.41520721 34.4971206,10.4073874 36.0479375,10.4073874 C36.4998135,10.4073874 36.9864491,10.1889279 37.2720134,9.90509009 L37.2720134,9.90509009 Z" id="Shape"></path>
                            <path d="M26.8435716,13.0591982 C23.9750951,13.0591982 22.440321,10.8384595 22.440321,8.82873874 C22.440321,6.4799009 24.3697512,4.47018018 27.1141624,4.47018018 C29.7671289,4.47018018 31.4286421,6.53464865 31.4286421,8.70223423 C31.4286421,10.8187928 29.7863804,13.0591982 26.8435716,13.0591982 L26.8435716,13.0591982 Z M29.1002776,11.6081171 C29.5366454,11.0340631 29.6425288,10.3175586 29.6425288,9.61912613 C29.6425288,8.03941441 28.8853023,5.02669369 26.6473131,5.02669369 C26.0521202,5.02669369 25.4526493,5.25790991 25.0205596,5.63582883 C24.31574,6.26356757 24.1900704,7.05182883 24.1900704,7.82573874 C24.1900704,9.59786486 25.0708274,12.5207568 27.2580141,12.5207568 C27.9644379,12.5207568 28.6847657,12.1811081 29.1002776,11.6081171 L29.1002776,11.6081171 Z" id="Shape"></path>
                            <path d="M17.2397367,13.0591982 C14.3707253,13.0591982 12.8380904,10.8384595 12.8380904,8.82873874 C12.8380904,6.4799009 14.7680553,4.47018018 17.511397,4.47018018 C20.1627592,4.47018018 21.8226681,6.53464865 21.8226681,8.70223423 C21.8232029,10.8187928 20.1830803,13.0591982 17.2397367,13.0591982 L17.2397367,13.0591982 Z M19.4969775,11.6081171 C19.9301367,11.0340631 20.0381591,10.3175586 20.0381591,9.61912613 C20.0381591,8.03941441 19.2787936,5.02669369 17.0429434,5.02669369 C16.4456114,5.02669369 15.8525577,5.25790991 15.4193984,5.63582883 C14.7135094,6.26356757 14.5883745,7.05182883 14.5883745,7.82573874 C14.5883745,9.59786486 15.4728749,12.5207568 17.6563182,12.5207568 C18.3611377,12.5207568 19.0803959,12.1811081 19.4969775,11.6081171 L19.4969775,11.6081171 Z" id="Shape"></path>
                            <path d="M11.6915554,12.4367748 L9.27228098,12.9869099 C8.29205772,13.1405225 7.41183542,13.2760631 6.47974097,13.2760631 C1.81285152,13.2760631 0.0352944544,9.8615045 0.0352944544,7.19002703 C0.0352944544,3.92642342 2.55456983,0.901477477 6.86851473,0.901477477 C7.78135766,0.901477477 8.65997567,1.03489189 9.4599833,1.25122523 C10.7279098,1.60575676 11.3204289,2.04161261 11.6915554,2.29781081 L10.2861944,3.62451351 L9.69367537,3.75633333 L10.1161393,3.0866036 C9.54394132,2.53115315 8.49205963,1.50582883 6.4957839,1.50582883 C3.82677448,1.50582883 1.81285152,3.52245946 1.81285152,6.46661261 C1.81285152,9.62869369 4.1123387,12.6031441 7.79900489,12.6031441 C8.88243769,12.6031441 9.44019702,12.3868108 9.94661896,12.1848288 L9.94661896,9.47401802 L7.3925839,9.61062162 L8.74660751,8.88773874 L12.3311337,8.88773874 L11.8931616,9.30711712 C11.7744439,9.40704505 11.7589357,9.44106306 11.7257803,9.57500901 C11.7081331,9.72809009 11.6920902,10.214973 11.6920902,10.3861261 L11.6920902,12.4367748 L11.6915554,12.4367748 Z" id="Shape"></path>
                        </g>
                        <g id="play" transform="translate(55.637448, 1.081774)">
                            <path d="M1.39839046,10.6177665 L1.39839046,15.1868115 L0.485547525,15.1868115 L0.485547525,3.56115385 L1.39839046,3.56115385 L1.39839046,4.88466736 C1.99251377,4.02943313 3.07915516,3.35066736 4.34173405,3.35066736 C6.60485725,3.35066736 8.13000549,5.05741511 8.13000549,7.75918988 C8.13000549,10.4428926 6.60485725,12.1852529 4.34173405,12.1852529 C3.15027883,12.1857845 2.08288897,11.5750547 1.39839046,10.6177665 L1.39839046,10.6177665 Z M7.14924747,7.75972141 C7.14924747,5.72342412 6.08132284,4.17028898 4.18772188,4.17028898 C3.01177484,4.17028898 1.88716518,5.089307 1.39839046,5.88979349 L1.39839046,9.61104574 C1.88716518,10.4136584 3.01177484,11.3656313 4.18772188,11.3656313 C6.08132284,11.3656313 7.14924747,9.7992079 7.14924747,7.75972141 L7.14924747,7.75972141 Z" id="Shape"></path>
                            <polygon id="Shape" points="9.37654144 11.9763611 9.37654144 0.351234927 10.2888496 0.351234927 10.2888496 11.9763611 9.37654144 11.9763611"></polygon>
                            <path d="M20.5317281,14.4346944 C20.7263823,14.5208025 21.0595406,14.5744872 21.2713073,14.5744872 C21.8296014,14.5744872 22.2183752,14.3475232 22.5675764,13.5454421 L23.2333581,12.0465232 L19.6370671,3.56115385 L20.6552587,3.56115385 L23.7397801,10.9143611 L26.7943547,3.56115385 L27.8269849,3.56115385 L23.4413815,13.8266223 C22.986297,14.8843701 22.2702473,15.3930457 21.2868155,15.3930457 C20.9916255,15.3930457 20.6028518,15.3404241 20.3745073,15.271325 L20.5317281,14.4346944 L20.5317281,14.4346944 Z" id="Shape"></path>
                            <path d="M17.8653925,11.9513791 C17.8044293,11.6595683 17.7584396,11.4028385 17.7247494,11.1875683 C17.6964069,10.9733611 17.6808987,10.7543701 17.6808987,10.5316584 C17.3675268,10.9882439 16.924207,11.368289 16.3578915,11.6680728 C15.7910411,11.9689196 15.2530681,12.1172169 14.5140236,12.1172169 C13.6247103,12.1172169 12.9348642,11.8998205 12.4418113,11.4586493 C11.9508976,11.0180097 11.7038364,10.4210998 11.7038364,9.66579349 C11.7038364,8.91155024 12.0615938,8.29922592 12.7749696,7.83094664 C13.4883454,7.36054123 14.4108141,7.12719889 15.5514667,7.12719889 L17.680364,7.12719889 L17.680364,6.08114484 C17.680364,5.47891961 17.4734101,5.00585655 17.0616415,4.66195565 C16.6477338,4.31858628 16.0669796,4.14424394 15.3134965,4.14424394 C14.6252546,4.14424394 14.0669605,4.30317186 13.6418228,4.61252322 C13.2204284,4.92825295 13.0086617,5.31946015 13.0086617,5.79092862 L12.0744281,5.79092862 L12.0551766,5.74574844 C12.0209517,5.11056826 12.3140026,4.55246015 12.9359337,4.07142412 C13.5546562,3.59038808 14.3664286,3.34854123 15.3648339,3.34854123 C16.3594958,3.34854123 17.164851,3.58666736 17.7723435,4.06185655 C18.3787664,4.53226195 18.6830473,5.21209078 18.6830473,6.1008115 L18.6830473,10.2526043 C18.6830473,10.5507935 18.6969512,10.8388836 18.7349195,11.1195322 C18.7734225,11.4007124 18.8349205,11.6813611 18.9167394,11.9524421 L17.8653925,11.9524421 L17.8653925,11.9513791 Z M14.6263242,11.2901538 C15.4017326,11.2901538 15.9589572,11.1179376 16.5290161,10.7772259 C17.0947969,10.4381088 17.4792925,9.9964061 17.6814335,9.46168538 L17.6814335,7.84582952 L15.5423757,7.84582952 C14.7252556,7.84582952 14.0487785,8.02548718 13.5166879,8.38852322 C12.9835277,8.74996466 12.7129369,9.18741511 12.7129369,9.69609078 C12.7129369,10.1755322 12.8840615,10.5598295 13.2247065,10.8505773 C13.5653515,11.1445142 14.0316661,11.2901538 14.6263242,11.2901538 L14.6263242,11.2901538 Z" id="Shape"></path>
                        </g>
                    </g>
                    <g id="color" transform="translate(7.838521, 13.901594)">
                        <polygon id="Shape" points="10.0407375 9.43043243 12.9691077 6.51976577 12.9680382 6.51976577 10.0407375 9.43043243 0.694659034 0.141918919 0.69412427 0.141918919 10.0407375 9.43202703 0.679150865 18.737018 10.0407375 9.43202703 12.981942 12.3554505 12.9835463 12.3554505"></polygon>
                        <path d="M12.9680382,6.51976577 L1.55830364,0.283837838 C1.2353059,0.107900901 0.93637257,0.066972973 0.694659034,0.141387387 L10.0412723,9.43043243 L12.9680382,6.51976577 L12.9680382,6.51976577 Z" id="Shape" fill="url(#linearGradient-1)"></path>
                        <path d="M12.9835463,12.3554505 L16.8782359,10.2266667 C17.668083,9.79346847 17.668083,9.08812613 16.8782359,8.65652252 L12.9691077,6.51976577 L10.0407375,9.43043243 L12.9835463,12.3554505 L12.9835463,12.3554505 Z" id="Shape" fill="url(#linearGradient-2)"></path>
                        <path d="M0.69412427,0.141918919 C0.347062135,0.24981982 0.122461061,0.599036036 0.122461061,1.12737838 L0.124600119,17.7558108 C0.124600119,18.2777748 0.342249255,18.6222072 0.679685629,18.737018 L10.0412723,9.43202703 L0.69412427,0.141918919 L0.69412427,0.141918919 Z" id="Shape" fill="url(#linearGradient-3)"></path>
                        <path d="M0.679150865,18.737018 C0.92193393,18.8188739 1.22674967,18.7806036 1.55776887,18.5998829 L12.981942,12.3554505 L10.0407375,9.43202703 L0.679150865,18.737018 L0.679150865,18.737018 Z" id="Shape" fill="url(#linearGradient-4)"></path>
                    </g>
                    <g id="get-it-on" transform="translate(29.763864, 3.802495)" fill="#FFFFFF">
                        <path d="M0.012834347,3.05896396 C0.012834347,1.27248649 1.3481412,0.123846847 3.00911962,0.123846847 C4.12196446,0.123846847 4.84924413,0.651126126 5.30325915,1.298 L4.48988241,1.76627928 C4.18185808,1.34052252 3.64228074,1.00884685 3.00911962,1.00884685 C1.87969708,1.00884685 1.04011688,1.85982883 1.04011688,3.05896396 C1.04011688,4.24162162 1.87916231,5.10908108 3.00911962,5.10908108 C3.59147812,5.10908108 4.104852,4.84544144 4.36153894,4.59881081 L4.36153894,3.72231532 L2.6497579,3.72231532 L2.6497579,2.84635135 L5.35459654,2.84635135 L5.35459654,4.9645045 C4.7984415,5.58586486 3.99362099,6.00258559 3.00911962,6.00258559 C1.3481412,6.00258559 0.012834347,4.83746847 0.012834347,3.05896396 L0.012834347,3.05896396 Z" id="Shape"></path>
                        <polygon id="Shape" points="6.59311103 5.89202703 6.59311103 0.216864865 10.5043783 0.216864865 10.5043783 1.09336036 7.5941901 1.09336036 7.5941901 2.55666667 10.4450194 2.55666667 10.4450194 3.43316216 7.5941901 3.43316216 7.5941901 5.01606306 10.5043783 5.01606306 10.5043783 5.89202703 6.59311103 5.89202703"></polygon>
                        <polygon id="Shape" points="13.2760625 5.89202703 13.2760625 1.09389189 11.547169 1.09389189 11.547169 0.217396396 16.0065698 0.217396396 16.0065698 1.09389189 14.2782111 1.09389189 14.2782111 5.89202703"></polygon>
                        <polygon id="Shape" points="19.4873517 5.89202703 19.4873517 0.216864865 20.4884308 0.216864865 20.4884308 5.89202703"></polygon>
                        <polygon id="Shape" points="23.2777622 5.89202703 23.2777622 1.09389189 21.5488687 1.09389189 21.5488687 0.217396396 26.0082695 0.217396396 26.0082695 1.09389189 24.279376 1.09389189 24.279376 5.89202703"></polygon>
                        <path d="M29.2409207,3.05896396 C29.2409207,1.3655045 30.4478841,0.123846847 32.1601999,0.123846847 C33.8628899,0.123846847 35.0789443,1.36603604 35.0789443,3.05896396 C35.0789443,4.75189189 33.8628899,5.99408108 32.1601999,5.99408108 C30.4473493,5.99408108 29.2409207,4.75189189 29.2409207,3.05896396 L29.2409207,3.05896396 Z M34.0516618,3.05896396 C34.0516618,1.88481081 33.3067349,1.00884685 32.1601999,1.00884685 C31.0045739,1.00884685 30.2682032,1.88481081 30.2682032,3.05896396 C30.2682032,4.22408108 31.0045739,5.10908108 32.1601999,5.10908108 C33.3067349,5.10908108 34.0516618,4.22408108 34.0516618,3.05896396 L34.0516618,3.05896396 Z" id="Shape"></path>
                        <polygon id="Shape" points="40.2287261 5.89202703 37.250088 1.83378378 37.250088 5.89202703 36.2490089 5.89202703 36.2490089 0.216864865 37.2762915 0.216864865 40.1950359 4.14807207 40.1950359 0.216864865 41.1966497 0.216864865 41.1966497 5.89202703"></polygon>
                    </g>
                </g>
            </g>
        </g>
    </g>
</svg>