<?xml version="1.0" encoding="UTF-8"?>
<svg width="24px" height="24px" viewBox="0 0 24 24" version="1.1" xmlns="http://www.w3.org/2000/svg" xmlns:xlink="http://www.w3.org/1999/xlink">
    <!-- Generator: Sketch 53.2 (72643) - https://sketchapp.com -->
    <title>icon/family copy</title>
    <desc>Created with Sketch.</desc>
    <defs>
        <polygon id="path-1" points="0.9037 0.0001 6.763 0.0001 6.763 5.9291 0.9037 5.9291"></polygon>
    </defs>
    <g id="icon/family-copy" stroke="none" stroke-width="1" fill="none" fill-rule="evenodd">
        <g id="Group-14" transform="translate(1.000000, 0.000000)">
            <path d="M20.2644,2.9644 C20.2644,4.3254 19.1764,5.4294 17.8334,5.4294 C16.4914,5.4294 15.4034,4.3254 15.4034,2.9644 C15.4034,1.6024 16.4914,0.4994 17.8334,0.4994 C19.1764,0.4994 20.2644,1.6024 20.2644,2.9644" id="Fill-1" fill="#009688"></path>
            <g id="Group-5" transform="translate(14.000000, 0.000000)">
                <mask id="mask-2" fill="white">
                    <use xlink:href="#path-1"></use>
                </mask>
                <g id="Clip-4"></g>
                <path d="M3.8347,0.9991 C2.7697,0.9991 1.9027,1.8801 1.9027,2.9641 C1.9027,4.0481 2.7697,4.9301 3.8347,4.9301 C4.8987,4.9301 5.7647,4.0481 5.7647,2.9641 C5.7647,1.8801 4.8987,0.9991 3.8347,0.9991 M3.8347,5.9291 C2.2187,5.9291 0.9037,4.5991 0.9037,2.9641 C0.9037,1.3301 2.2187,0.0001 3.8347,0.0001 C5.4487,0.0001 6.7637,1.3301 6.7637,2.9641 C6.7637,4.5991 5.4487,5.9291 3.8347,5.9291" id="Fill-3" fill="#000000" mask="url(#mask-2)"></path>
            </g>
            <path d="M11.8737,21.8321 C11.7987,21.8321 11.7227,21.8151 11.6507,21.7801 C11.4037,21.6571 11.3037,21.3571 11.4267,21.1101 L13.4337,17.0701 C13.6607,16.6141 13.6007,16.0631 13.2797,15.6661 L10.7717,12.5591 C10.6147,12.3651 10.6257,12.0861 10.7957,11.9041 L12.8747,9.6781 C12.9817,9.5611 13.1407,9.5021 13.2987,9.5221 C13.4567,9.5411 13.5967,9.6351 13.6747,9.7741 L14.5497,11.3321 L17.5897,12.8491 C18.0587,13.0811 18.6257,12.8921 18.8607,12.4281 C19.0907,11.9731 18.9237,11.4201 18.4777,11.1711 L16.0837,9.8301 C15.9857,9.7751 15.9097,9.6901 15.8667,9.5861 L14.7247,6.8411 C14.5427,6.4051 14.1767,6.0821 13.7217,5.9571 C13.2637,5.8291 12.7847,5.9191 12.4047,6.2021 L7.0667,10.1601 C6.8387,10.3291 6.6907,10.5781 6.6517,10.8601 C6.6127,11.1431 6.6877,11.4221 6.8627,11.6471 L10.6357,16.5131 C10.7577,16.6711 10.7737,16.8871 10.6777,17.0611 L9.0427,20.0071 C8.9087,20.2481 8.6027,20.3351 8.3637,20.2011 C8.1217,20.0671 8.0347,19.7631 8.1687,19.5221 L9.6437,16.8651 L6.0717,12.2591 C5.7317,11.8201 5.5867,11.2751 5.6617,10.7241 C5.7377,10.1741 6.0247,9.6881 6.4727,9.3561 L11.8107,5.3991 C12.4377,4.9341 13.2307,4.7851 13.9857,4.9941 C14.7407,5.2011 15.3457,5.7351 15.6467,6.4571 L16.7237,9.0431 L18.9657,10.2991 C19.8797,10.8111 20.2247,11.9441 19.7527,12.8791 C19.2697,13.8321 18.0967,14.2181 17.1447,13.7421 L13.9677,12.1581 C13.8777,12.1141 13.8037,12.0431 13.7547,11.9561 L13.1377,10.8591 L11.8217,12.2691 L14.0567,15.0391 C14.6217,15.7381 14.7277,16.7091 14.3287,17.5151 L12.3197,21.5551 C12.2327,21.7301 12.0567,21.8321 11.8737,21.8321" id="Fill-6" fill="#000000"></path>
            <path d="M16.1198,24 C16.0458,24 15.9728,23.983 15.9058,23.951 L0.2848,16.498 C0.0348,16.379 -0.0692,16.081 0.0488,15.832 C0.1678,15.583 0.4668,15.478 0.7148,15.596 L16.1888,22.98 L18.1388,22.624 C18.4028,22.573 18.6698,22.753 18.7208,23.025 C18.7698,23.296 18.5898,23.556 18.3178,23.606 L16.2098,23.992 C16.1808,23.997 16.1498,24 16.1198,24" id="Fill-8" fill="#000000"></path>
            <path d="M17.3669,13.795 C17.2919,13.795 17.2169,13.778 17.1449,13.743 L1.9859,6.234 C1.7389,6.112 1.6379,5.812 1.7609,5.565 C1.8849,5.316 2.1849,5.217 2.4289,5.338 L17.5889,12.848 C17.8369,12.97 17.9369,13.27 17.8149,13.518 C17.7269,13.693 17.5509,13.795 17.3669,13.795" id="Fill-10" fill="#000000"></path>
            <path d="M3.4929,8.6685 C3.4179,8.6685 3.3429,8.6515 3.2709,8.6165 C3.0229,8.4945 2.9239,8.1945 3.0449,7.9475 L4.4329,5.1435 C4.5559,4.8955 4.8579,4.7955 5.1019,4.9175 C5.3499,5.0395 5.4509,5.3395 5.3289,5.5865 L3.9409,8.3905 C3.8539,8.5665 3.6769,8.6685 3.4929,8.6685" id="Fill-12" fill="#000000"></path>
        </g>
    </g>
</svg>