<?xml version="1.0" encoding="UTF-8"?>
<svg width="24px" height="24px" viewBox="0 0 24 24" version="1.1" xmlns="http://www.w3.org/2000/svg" xmlns:xlink="http://www.w3.org/1999/xlink">
    <!-- Generator: Sketch 52.2 (67145) - http://www.bohemiancoding.com/sketch -->
    <title>Icon/Air Conditioning/2</title>
    <desc>Created with Sketch.</desc>
    <defs>
        <polygon id="path-1" points="0.4927 0.4201 1.4927 0.4201 1.4927 9 0.4927 9"></polygon>
        <polygon id="path-3" points="0.4927 0.148 1.4927 0.148 1.4927 8.5489 0.4927 8.5489"></polygon>
        <polygon id="path-5" points="0 0.357104424 8.26027468 0.357104424 8.26027468 5.4786 0 5.4786"></polygon>
        <polygon id="path-7" points="0.749946841 0.688146841 9 0.688146841 9 5.8033 0.749946841 5.8033"></polygon>
    </defs>
    <g id="Icon/Air-Conditioning/2" stroke="none" stroke-width="1" fill="none" fill-rule="evenodd">
        <g id="Group-45" transform="translate(2.000000, 0.000000)">
            <path d="M13.0879,20.7573 C12.9609,20.7573 12.8339,20.7083 12.7369,20.6113 L9.9929,17.8683 L7.2489,20.6113 C7.0549,20.8053 6.7409,20.8053 6.5469,20.6113 C6.3529,20.4173 6.3529,20.1033 6.5469,19.9093 L9.6419,16.8143 C9.8359,16.6203 10.1499,16.6203 10.3439,16.8143 L13.4389,19.9093 C13.6329,20.1033 13.6329,20.4173 13.4389,20.6113 C13.3419,20.7083 13.2149,20.7573 13.0879,20.7573" id="Fill-1" fill="#2B2B2B"></path>
            <path d="M11.7231,22.3139 C11.5961,22.3139 11.4691,22.2659 11.3721,22.1679 L9.9931,20.7889 L8.6131,22.1679 C8.4191,22.3629 8.1051,22.3629 7.9111,22.1679 C7.7171,21.9749 7.7171,21.6599 7.9111,21.4659 L9.6411,19.7349 C9.8351,19.5419 10.1501,19.5419 10.3441,19.7349 L12.0751,21.4659 C12.2681,21.6599 12.2681,21.9749 12.0751,22.1679 C11.9771,22.2659 11.8501,22.3139 11.7231,22.3139" id="Fill-3" fill="#2B2B2B"></path>
            <path d="M9.9927,8.2724 C9.8607,8.2724 9.7347,8.2204 9.6417,8.1264 L6.5467,5.0314 C6.3527,4.8374 6.3527,4.5234 6.5467,4.3294 C6.7407,4.1354 7.0547,4.1354 7.2487,4.3294 L9.9927,7.0734 L12.7367,4.3294 C12.9307,4.1354 13.2447,4.1354 13.4387,4.3294 C13.6337,4.5234 13.6337,4.8374 13.4387,5.0314 L10.3437,8.1264 C10.2507,8.2204 10.1247,8.2724 9.9927,8.2724" id="Fill-5" fill="#2B2B2B"></path>
            <path d="M9.9927,5.3515 C9.8657,5.3515 9.7387,5.3025 9.6417,5.2055 L7.9107,3.4755 C7.7167,3.2815 7.7167,2.9665 7.9107,2.7725 C8.1047,2.5785 8.4197,2.5785 8.6137,2.7725 L9.9927,4.1515 L11.3717,2.7725 C11.5657,2.5785 11.8807,2.5785 12.0747,2.7725 C12.2687,2.9665 12.2687,3.2815 12.0747,3.4755 L10.3437,5.2055 C10.2467,5.3025 10.1197,5.3515 9.9927,5.3515" id="Fill-7" fill="#2B2B2B"></path>
            <g id="Group-11" transform="translate(9.000000, 14.852400)">
                <mask id="mask-2" fill="white">
                    <use xlink:href="#path-1"></use>
                </mask>
                <g id="Clip-10"></g>
                <path d="M0.9927,9.0001 C0.7187,9.0001 0.4957,8.7781 0.4957,8.5031 L0.4957,0.9171 C0.4957,0.6431 0.7187,0.4201 0.9927,0.4201 C1.2667,0.4201 1.4897,0.6431 1.4897,0.9171 L1.4897,8.5031 C1.4897,8.7781 1.2667,9.0001 0.9927,9.0001" id="Fill-9" fill="#2B2B2B" mask="url(#mask-2)"></path>
            </g>
            <g id="Group-14" transform="translate(9.000000, 0.852400)">
                <mask id="mask-4" fill="white">
                    <use xlink:href="#path-3"></use>
                </mask>
                <g id="Clip-13"></g>
                <path d="M0.9927,8.5489 C0.7187,8.5489 0.4957,8.3269 0.4957,8.0519 L0.4957,0.6449 C0.4957,0.3699 0.7187,0.1479 0.9927,0.1479 C1.2667,0.1479 1.4897,0.3699 1.4897,0.6449 L1.4897,8.0519 C1.4897,8.3269 1.2667,8.5489 0.9927,8.5489" id="Fill-12" fill="#2B2B2B" mask="url(#mask-4)"></path>
            </g>
            <path d="M4.7173,19.4931 C4.6733,19.4931 4.6293,19.4881 4.5853,19.4751 C4.3203,19.4031 4.1653,19.1291 4.2383,18.8651 L5.2683,15.1231 L1.5273,14.0931 C1.2633,14.0201 1.1083,13.7471 1.1803,13.4821 C1.2533,13.2181 1.5273,13.0631 1.7913,13.1361 L6.0113,14.2981 C6.2753,14.3701 6.4303,14.6441 6.3583,14.9091 L5.1963,19.1281 C5.1343,19.3481 4.9353,19.4931 4.7173,19.4931" id="Fill-15" fill="#2B2B2B"></path>
            <path d="M2.6899,19.0756 C2.6459,19.0756 2.6019,19.0696 2.5569,19.0576 C2.2929,18.9846 2.1379,18.7116 2.2109,18.4466 L2.7289,16.5656 L0.8479,16.0486 C0.5839,15.9756 0.4279,15.7016 0.5009,15.4376 C0.5729,15.1736 0.8469,15.0186 1.1119,15.0906 L3.4709,15.7406 C3.5989,15.7756 3.7059,15.8596 3.7709,15.9736 C3.8369,16.0886 3.8529,16.2236 3.8179,16.3506 L3.1679,18.7106 C3.1069,18.9306 2.9079,19.0756 2.6899,19.0756" id="Fill-17" fill="#2B2B2B"></path>
            <path d="M18.2642,11.7973 C18.2202,11.7973 18.1762,11.7913 18.1312,11.7793 L13.9112,10.6173 C13.6472,10.5443 13.4922,10.2713 13.5652,10.0063 L14.7272,5.7863 C14.8002,5.5213 15.0732,5.3663 15.3382,5.4393 C15.6022,5.5123 15.7582,5.7863 15.6852,6.0503 L14.6542,9.7913 L18.3952,10.8213 C18.6602,10.8943 18.8152,11.1683 18.7422,11.4323 C18.6812,11.6523 18.4822,11.7973 18.2642,11.7973" id="Fill-19" fill="#2B2B2B"></path>
            <path d="M18.9438,9.8422 C18.8998,9.8422 18.8558,9.8362 18.8108,9.8242 L16.4518,9.1752 C16.3238,9.1392 16.2168,9.0562 16.1518,8.9412 C16.0858,8.8272 16.0698,8.6912 16.1048,8.5642 L16.7548,6.2042 C16.8278,5.9402 17.1008,5.7852 17.3658,5.8572 C17.6298,5.9302 17.7848,6.2032 17.7128,6.4682 L17.1938,8.3492 L19.0748,8.8662 C19.3398,8.9392 19.4948,9.2132 19.4218,9.4772 C19.3608,9.6972 19.1618,9.8422 18.9438,9.8422" id="Fill-21" fill="#2B2B2B"></path>
            <g id="Group-25" transform="translate(0.000000, 12.852400)">
                <mask id="mask-6" fill="white">
                    <use xlink:href="#path-5"></use>
                </mask>
                <g id="Clip-24"></g>
                <path d="M0.4976,5.4786 C0.3246,5.4786 0.1566,5.3886 0.0646,5.2276 C-0.0704,4.9886 0.0126,4.6856 0.2516,4.5496 L7.5186,0.4216 C7.7586,0.2866 8.0606,0.3706 8.1956,0.6076 C8.3306,0.8466 8.2476,1.1496 8.0086,1.2856 L0.7426,5.4136 C0.6646,5.4576 0.5806,5.4786 0.4976,5.4786" id="Fill-23" fill="#2B2B2B" mask="url(#mask-6)"></path>
            </g>
            <g id="Group-28" transform="translate(11.000000, 5.852400)">
                <mask id="mask-8" fill="white">
                    <use xlink:href="#path-7"></use>
                </mask>
                <g id="Clip-27"></g>
                <path d="M1.2471,5.8033 C1.0751,5.8033 0.9061,5.7133 0.8151,5.5523 C0.6791,5.3133 0.7631,5.0103 1.0011,4.8743 L8.2581,0.7533 C8.4981,0.6173 8.8001,0.7013 8.9351,0.9393 C9.0711,1.1783 8.9871,1.4813 8.7481,1.6163 L1.4921,5.7383 C1.4141,5.7823 1.3301,5.8033 1.2471,5.8033" id="Fill-26" fill="#2B2B2B" mask="url(#mask-8)"></path>
            </g>
            <path d="M1.6963,11.6415 C1.4753,11.6415 1.2743,11.4935 1.2163,11.2695 C1.1473,11.0045 1.3063,10.7325 1.5723,10.6635 L5.3273,9.6885 L4.3523,5.9335 C4.2833,5.6675 4.4433,5.3965 4.7083,5.3275 C4.9733,5.2575 5.2443,5.4185 5.3143,5.6835 L6.4143,9.9205 C6.4473,10.0475 6.4283,10.1835 6.3623,10.2965 C6.2953,10.4105 6.1853,10.4935 6.0583,10.5255 L1.8213,11.6255 C1.7793,11.6365 1.7373,11.6415 1.6963,11.6415" id="Fill-29" fill="#2B2B2B"></path>
            <path d="M1.0454,9.6762 C0.8244,9.6762 0.6234,9.5282 0.5654,9.3042 C0.4964,9.0392 0.6554,8.7672 0.9214,8.6982 L2.8094,8.2092 L2.3194,6.3212 C2.2504,6.0552 2.4094,5.7842 2.6754,5.7152 C2.9414,5.6432 3.2124,5.8062 3.2804,6.0712 L3.8964,8.4402 C3.9284,8.5682 3.9104,8.7032 3.8434,8.8172 C3.7764,8.9302 3.6674,9.0122 3.5394,9.0462 L1.1704,9.6602 C1.1284,9.6712 1.0874,9.6762 1.0454,9.6762" id="Fill-31" fill="#2B2B2B"></path>
            <path d="M15.1274,19.5366 C14.9064,19.5366 14.7054,19.3886 14.6474,19.1646 L13.5474,14.9276 C13.4784,14.6616 13.6374,14.3906 13.9034,14.3226 L18.1404,13.2226 C18.4044,13.1506 18.6764,13.3126 18.7454,13.5786 C18.8144,13.8436 18.6554,14.1156 18.3894,14.1836 L14.6334,15.1596 L15.6084,18.9146 C15.6774,19.1806 15.5184,19.4516 15.2524,19.5206 C15.2104,19.5316 15.1694,19.5366 15.1274,19.5366" id="Fill-33" fill="#2B2B2B"></path>
            <path d="M17.1606,19.1489 C16.9396,19.1489 16.7386,19.0009 16.6806,18.7769 L16.0656,16.4079 C15.9966,16.1429 16.1566,15.8709 16.4216,15.8019 L18.7906,15.1879 C19.0556,15.1169 19.3276,15.2779 19.3966,15.5439 C19.4656,15.8089 19.3066,16.0809 19.0396,16.1489 L17.1516,16.6389 L17.6416,18.5269 C17.7106,18.7929 17.5516,19.0639 17.2856,19.1329 C17.2436,19.1439 17.2026,19.1489 17.1606,19.1489" id="Fill-35" fill="#2B2B2B"></path>
            <path d="M7.7646,11.6186 C7.6796,11.6186 7.5926,11.5966 7.5136,11.5506 L0.3456,7.3366 C0.1086,7.1976 0.0296,6.8926 0.1686,6.6566 C0.3076,6.4206 0.6126,6.3406 0.8486,6.4796 L8.0166,10.6936 C8.2526,10.8326 8.3316,11.1366 8.1936,11.3736 C8.1006,11.5306 7.9346,11.6186 7.7646,11.6186" id="Fill-37" fill="#2B2B2B"></path>
            <path d="M19.4409,18.4819 C19.3559,18.4819 19.2689,18.4599 19.1899,18.4139 L11.9109,14.1349 C11.6739,13.9959 11.5949,13.6909 11.7339,13.4549 C11.8729,13.2189 12.1769,13.1389 12.4139,13.2779 L19.6929,17.5569 C19.9299,17.6959 20.0089,17.9999 19.8699,18.2369 C19.7769,18.3939 19.6109,18.4819 19.4409,18.4819" id="Fill-39" fill="#2B2B2B"></path>
            <polygon id="Fill-41" fill="#009688" points="9.9927 15.8779 6.5067 12.3909 9.9927 8.9049 13.4797 12.3909"></polygon>
            <path d="M7.209,12.3911 L9.993,15.1751 L12.777,12.3911 L9.993,9.6071 L7.209,12.3911 Z M9.993,16.3741 C9.866,16.3741 9.738,16.3261 9.642,16.2291 L6.155,12.7431 C5.961,12.5481 5.961,12.2341 6.155,12.0401 L9.642,8.5531 C9.828,8.3671 10.158,8.3671 10.344,8.5531 L13.831,12.0401 C13.924,12.1331 13.976,12.2591 13.976,12.3911 C13.976,12.5231 13.924,12.6491 13.831,12.7431 L10.344,16.2291 C10.247,16.3261 10.12,16.3741 9.993,16.3741 Z" id="Fill-43" fill="#2B2B2B"></path>
        </g>
    </g>
</svg>