<svg xmlns="http://www.w3.org/2000/svg" viewBox="0 0 25.03 25.25"><defs/><title>All_Trips</title><g id="Layer_2"><g id="All_Trips"><path class="cls-alltripsalltrips1" d="M13.66,13c0,4.12-5.25,9.54-5.25,9.54S3.15,17.1,3.15,13a5.25,5.25,0,1,1,10.51,0Z" style="fill: none; stroke: #000; stroke-linecap: round; stroke-linejoin: round;"/><circle class="cls-alltripsalltrips2" cx="8.4" cy="11.99" r="1.58" style="stroke: #000; stroke-linecap: round; stroke-linejoin: round; fill: #009688;"/><path class="cls-alltripsalltrips1" d="M24.53,3.34c0,2.22-2.84,5.16-2.84,5.16s-2.84-2.93-2.84-5.16a2.84,2.84,0,1,1,5.68,0Z" style="fill: none; stroke: #000; stroke-linecap: round; stroke-linejoin: round;"/><circle class="cls-alltripsalltrips2" cx="21.7" cy="2.8" r="0.85" style="stroke: #000; stroke-linecap: round; stroke-linejoin: round; fill: #009688;"/><path class="cls-alltripsalltrips1" d="M.5,14.22v9.53a1,1,0,0,0,1,1h22a1,1,0,0,0,1-1V9.33" style="fill: none; stroke: #000; stroke-linecap: round; stroke-linejoin: round;"/></g></g></svg>
