<?xml version="1.0" encoding="UTF-8"?>
<svg width="18px" height="16px" viewBox="0 0 18 16" version="1.1" xmlns="http://www.w3.org/2000/svg" xmlns:xlink="http://www.w3.org/1999/xlink">
    <!-- Generator: Sketch 44 (41411) - http://www.bohemiancoding.com/sketch -->
    <title>Fill 1</title>
    <desc>Created with Sketch.</desc>
    <defs />
    <g id="Welcome" stroke="none" stroke-width="1" fill="none" fill-rule="evenodd">
        <g id="Agent_chat_type" transform="translate(-17.000000, -331.000000)" fill="#2B2B2B">
            <g id="text+palet" transform="translate(-1.000000, 307.000000)">
                <path d="M21.1147104,39.6405363 C20.3087535,39.6405363 19.5514592,39.3264903 18.981857,38.7570496 C17.8060477,37.5809548 17.8060477,35.667029 18.981857,34.491107 L28.3059596,25.1656353 C29.0572036,24.4136279 30.0569462,24 31.1200019,24 C32.1830144,24 33.1829299,24.4136279 33.934001,25.1656353 C34.6858932,25.9175996 35.1,26.9169193 35.1,27.9799041 C35.1,29.0430617 34.6864118,30.0423814 33.9346492,30.793827 L26.5945168,38.1338849 C26.3741957,38.3541839 26.0173084,38.3541839 25.7970305,38.1338849 C25.5767094,37.9135427 25.5767094,37.5566212 25.7970305,37.3363222 L33.1369901,29.9960914 C33.675692,29.4573811 33.9719889,28.7413338 33.9719889,27.9799041 C33.9719889,27.2186472 33.6752166,26.5021245 33.1365147,25.9633709 C32.5978128,25.4246174 31.8817044,25.1281625 31.1200019,25.1281625 C30.3582994,25.1281625 29.6423207,25.4246174 29.1034459,25.9633709 L19.7795161,35.2887129 C19.0436575,36.0253336 19.0436575,37.2228663 19.7795161,37.959314 C20.4932908,38.6721198 21.7359571,38.6721198 22.4496885,37.959314 L28.7106451,31.6972819 C28.880964,31.5269036 28.9785483,31.2912178 28.9785483,31.0509938 C28.9785483,30.8073553 28.8831681,30.5777205 28.7102994,30.4048353 C28.3544061,30.0489511 27.7743453,30.047957 27.4186681,30.4048353 L23.1427189,34.6817562 C22.9223978,34.9020551 22.5653376,34.9020551 22.3450597,34.6817562 C22.1247386,34.461414 22.1247386,34.1043195 22.3450597,33.8841502 L26.6210089,29.6072726 C27.4162912,28.8119142 28.7112934,28.8119142 29.5077857,29.6072726 C29.8938446,29.9934117 30.1063866,30.5063189 30.1063866,31.0509938 C30.1063866,31.5885371 29.8884425,32.1146268 29.5083043,32.4948447 L23.2473476,38.7570496 C22.6777887,39.3264903 21.9204511,39.6405363 21.1147104,39.6405363 L21.1147104,39.6405363 Z" id="Fill-1"/>
            </g>
        </g>
    </g>
</svg>
