<svg xmlns="http://www.w3.org/2000/svg" viewBox="0 0 24 24"><defs><style>.cls-1,.cls-4{fill:none;}.cls-2{fill:#009688;}.cls-2,.cls-4{stroke:#000;stroke-linecap:round;stroke-linejoin:round;stroke-width:0.72px;}.cls-3{fill:#fff;}</style></defs><title>iconAsset 31</title><g id="Layer_2" data-name="Layer 2"><g id="Layer_1-2" data-name="Layer 1"><rect class="cls-1" width="24" height="24"/><rect class="cls-2" x="11.16" y="13.6" width="1.67" height="8.4" rx="0.84" ry="0.84"/><path class="cls-3" d="M21,10.28a4.71,4.71,0,0,0-1.73-.53,4.54,4.54,0,0,0,1-3,4.54,4.54,0,0,0-3,1A4.53,4.53,0,0,0,16.76,6a4.56,4.56,0,0,0-2.12,2l0,0a3.78,3.78,0,0,0,.22-.33A4.57,4.57,0,0,0,15,4a4.47,4.47,0,0,0-1.6.84A4.6,4.6,0,0,0,12,2a4.6,4.6,0,0,0-1.41,2.84A4.47,4.47,0,0,0,9,4a4.57,4.57,0,0,0,.19,3.65A3.78,3.78,0,0,0,9.4,8l0,0A4.56,4.56,0,0,0,7.24,6a4.53,4.53,0,0,0-.53,1.73,4.54,4.54,0,0,0-3-1,4.54,4.54,0,0,0,1,3A4.71,4.71,0,0,0,3,10.28a4.56,4.56,0,0,0,2.72,2.45,4.2,4.2,0,0,0,.84.18L4.61,16.27a10.43,10.43,0,0,0,3.69.85,11,11,0,0,0,3.7-.8,11,11,0,0,0,3.7.8,10.43,10.43,0,0,0,3.69-.85l-1.94-3.36a4.2,4.2,0,0,0,.84-.18A4.56,4.56,0,0,0,21,10.28Z"/><path class="cls-4" d="M21,10.28a4.71,4.71,0,0,0-1.73-.53,4.54,4.54,0,0,0,1-3,4.54,4.54,0,0,0-3,1A4.53,4.53,0,0,0,16.76,6a4.56,4.56,0,0,0-2.12,2l0,0a3.78,3.78,0,0,0,.22-.33A4.57,4.57,0,0,0,15,4a4.47,4.47,0,0,0-1.6.84A4.6,4.6,0,0,0,12,2a4.6,4.6,0,0,0-1.41,2.84A4.47,4.47,0,0,0,9,4a4.57,4.57,0,0,0,.19,3.65A3.78,3.78,0,0,0,9.4,8l0,0A4.56,4.56,0,0,0,7.24,6a4.53,4.53,0,0,0-.53,1.73,4.54,4.54,0,0,0-3-1,4.54,4.54,0,0,0,1,3A4.71,4.71,0,0,0,3,10.28a4.56,4.56,0,0,0,2.72,2.45,4.2,4.2,0,0,0,.84.18L4.61,16.27a10.43,10.43,0,0,0,3.69.85,11,11,0,0,0,3.7-.8,11,11,0,0,0,3.7.8,10.43,10.43,0,0,0,3.69-.85l-1.94-3.36a4.2,4.2,0,0,0,.84-.18A4.56,4.56,0,0,0,21,10.28Z"/></g></g></svg>