<?xml version="1.0" encoding="UTF-8"?>
<svg width="24px" height="24px" viewBox="0 0 24 24" version="1.1" xmlns="http://www.w3.org/2000/svg" xmlns:xlink="http://www.w3.org/1999/xlink">
    <!-- Generator: Sketch 52.2 (67145) - http://www.bohemiancoding.com/sketch -->
    <title>Icon/Bar</title>
    <desc>Created with Sketch.</desc>
    <defs>
        <polygon id="path-1" points="0.000379583013 0 9.8134 0 9.8134 14.2659 0.000379583013 14.2659"></polygon>
    </defs>
    <g id="Icon/Bar" stroke="none" stroke-width="1" fill="none" fill-rule="evenodd">
        <g id="Group-12" transform="translate(7.000000, 1.000000)">
            <path d="M0.6689,9.376 C0.6689,11.787 2.6229,13.741 5.0339,13.741 C7.4439,13.741 9.3979,11.787 9.3979,9.376 L9.3989,7.283 C8.3089,7.283 8.3089,5.537 7.2189,5.537 C6.1279,5.537 6.1279,7.283 5.0379,7.283 C3.9449,7.283 3.9449,5.537 2.8539,5.537 C1.7609,5.537 1.7609,7.283 0.6689,7.283 L0.6689,9.376 Z" id="Fill-1" fill="#009688"></path>
            <g id="Group-5">
                <mask id="mask-2" fill="white">
                    <use xlink:href="#path-1"></use>
                </mask>
                <g id="Clip-4"></g>
                <path d="M1.3964,1.0479 C1.3034,1.0479 1.2154,1.0839 1.1494,1.1509 C1.0844,1.2169 1.0474,1.3049 1.0474,1.3989 L1.0844,9.3739 L1.0844,9.3759 C1.0844,11.4949 2.8064,13.2179 4.9244,13.2179 C7.0424,13.2179 8.7654,11.4949 8.7654,9.3759 L8.7294,1.3949 C8.7284,1.2029 8.5724,1.0479 8.3804,1.0479 L1.3964,1.0479 Z M4.9244,14.2659 C2.2294,14.2659 0.0364,12.0719 0.0364,9.3759 L0.0004,1.4019 C-0.0016,1.0279 0.1434,0.6759 0.4074,0.4109 C0.6704,0.1469 1.0224,-0.0001 1.3964,-0.0001 L8.3804,-0.0001 C9.1474,-0.0001 9.7744,0.6239 9.7774,1.3909 L9.8134,9.3739 C9.8134,12.0719 7.6214,14.2659 4.9244,14.2659 Z" id="Fill-3" fill="#000000" mask="url(#mask-2)"></path>
            </g>
            <path d="M4.9248,22 C4.6358,22 4.4018,21.766 4.4018,21.477 L4.4018,13.742 C4.4018,13.452 4.6358,13.218 4.9248,13.218 C5.2148,13.218 5.4488,13.452 5.4488,13.742 L5.4488,21.477 C5.4488,21.766 5.2148,22 4.9248,22" id="Fill-6" fill="#000000"></path>
            <path d="M9.3994,22 L0.6504,22 C0.3614,22 0.1274,21.766 0.1274,21.477 C0.1274,21.187 0.3614,20.952 0.6504,20.952 L9.3994,20.952 C9.6884,20.952 9.9224,21.187 9.9224,21.477 C9.9224,21.766 9.6884,22 9.3994,22" id="Fill-8" fill="#000000"></path>
            <path d="M0.6084,8.167 C0.3294,8.167 0.0974,7.947 0.0854,7.666 C0.0724,7.377 0.2964,7.133 0.5864,7.119 C0.7974,7.111 0.9604,6.801 1.1804,6.328 C1.4494,5.755 1.8164,4.97 2.6784,4.933 C3.4964,4.92 3.9734,5.646 4.2914,6.194 C4.5474,6.64 4.7324,6.934 4.9414,6.934 C4.9444,6.934 4.9474,6.934 4.9514,6.933 C5.1624,6.924 5.3234,6.613 5.5444,6.142 C5.8114,5.568 6.1784,4.784 7.0404,4.746 C7.8704,4.736 8.3344,5.46 8.6514,6.009 C8.9074,6.453 9.0904,6.747 9.2984,6.747 C9.3094,6.748 9.3204,6.746 9.3304,6.746 C9.6094,6.746 9.8414,6.966 9.8544,7.247 C9.8664,7.536 9.6424,7.78 9.3524,7.794 C8.5044,7.792 8.0594,7.08 7.7424,6.532 C7.4874,6.086 7.3014,5.793 7.0934,5.793 C7.0904,5.793 7.0874,5.793 7.0854,5.794 C6.8744,5.802 6.7134,6.113 6.4924,6.584 C6.2254,7.157 5.8584,7.943 4.9964,7.98 C4.9744,7.98 4.9544,7.98 4.9344,7.98 C4.1114,7.98 3.6924,7.253 3.3834,6.719 C3.1274,6.272 2.9414,5.979 2.7324,5.979 C2.7294,5.979 2.7264,5.979 2.7234,5.979 C2.5114,5.988 2.3494,6.299 2.1294,6.771 C1.8614,7.345 1.4944,8.129 0.6304,8.167 L0.6084,8.167 Z" id="Fill-10" fill="#000000"></path>
        </g>
    </g>
</svg>