<?xml version="1.0" encoding="UTF-8"?>
<svg width="24px" height="24px" viewBox="0 0 24 24" version="1.1" xmlns="http://www.w3.org/2000/svg" xmlns:xlink="http://www.w3.org/1999/xlink">
    <!-- Generator: Sketch 52.2 (67145) - http://www.bohemiancoding.com/sketch -->
    <title>Icon/Beach/2</title>
    <desc>Created with Sketch.</desc>
    <defs>
        <polygon id="path-1" points="0.0005 0.0216 22 0.0216 22 1 0.0005 1"></polygon>
        <polygon id="path-3" points="0.521062502 0.782136064 2.99714457 0.782136064 2.99714457 15 0.521062502 15"></polygon>
        <polygon id="path-5" points="0.438693851 0.914593318 3.26431658 0.914593318 3.26431658 7 0.438693851 7"></polygon>
        <polygon id="path-7" points="0.322709971 0.957601368 2.34937862 0.957601368 2.34937862 5 0.322709971 5"></polygon>
    </defs>
    <g id="Icon/Beach/2" stroke="none" stroke-width="1" fill="none" fill-rule="evenodd">
        <g id="Group-19" transform="translate(1.000000, 2.000000)">
            <path d="M19.9023,5.7867 L4.5463,3.5687 C5.8463,1.3507 9.1703,0.0657 12.8083,0.5927 C16.4593,1.1187 19.2823,3.2927 19.9023,5.7867" id="Fill-1" fill="#009688"></path>
            <path d="M5.3877,3.2076 L19.1967,5.2016 C18.2917,3.1536 15.7597,1.5006 12.7417,1.0656 C9.7277,0.6316 6.8357,1.4986 5.3877,3.2076 M19.9027,6.2656 C19.8797,6.2656 19.8567,6.2636 19.8337,6.2606 L4.4787,4.0426 C4.3207,4.0196 4.1847,3.9206 4.1157,3.7756 C4.0467,3.6326 4.0527,3.4646 4.1337,3.3266 C5.5567,0.8996 9.1507,-0.4164 12.8777,0.1186 C16.6087,0.6576 19.6887,2.9396 20.3667,5.6716 C20.4047,5.8256 20.3637,5.9886 20.2567,6.1066 C20.1647,6.2086 20.0357,6.2656 19.9027,6.2656" id="Fill-3" fill="#000000"></path>
            <g id="Group-7" transform="translate(0.000000, 17.438900)">
                <mask id="mask-2" fill="white">
                    <use xlink:href="#path-1"></use>
                </mask>
                <g id="Clip-6"></g>
                <path d="M21.5215,1.0001 L0.4785,1.0001 C0.2135,1.0001 0.0005,0.7861 0.0005,0.5211 C0.0005,0.2571 0.2135,0.0431 0.4785,0.0431 L21.5215,0.0431 C21.7865,0.0431 22.0005,0.2571 22.0005,0.5211 C22.0005,0.7861 21.7865,1.0001 21.5215,1.0001" id="Fill-5" fill="#000000" mask="url(#mask-2)"></path>
            </g>
            <g id="Group-10" transform="translate(10.000000, 3.438900)">
                <mask id="mask-4" fill="white">
                    <use xlink:href="#path-3"></use>
                </mask>
                <g id="Clip-9"></g>
                <path d="M1.001,15.0001 C0.982,15.0001 0.965,14.9991 0.946,14.9971 C0.684,14.9671 0.495,14.7291 0.524,14.4681 L2.043,1.2061 C2.074,0.9431 2.31,0.7561 2.573,0.7851 C2.836,0.8151 3.024,1.0521 2.994,1.3141 L1.476,14.5761 C1.447,14.8191 1.24,15.0001 1.001,15.0001" id="Fill-8" fill="#000000" mask="url(#mask-4)"></path>
            </g>
            <path d="M20.1631,15.3326 L7.9801,15.3326 C7.8901,15.3326 7.8011,15.3076 7.7241,15.2596 L1.3361,11.2126 C1.1121,11.0706 1.0461,10.7756 1.1871,10.5526 C1.3301,10.3286 1.6261,10.2656 1.8481,10.4036 L8.1191,14.3766 L20.1631,14.3766 C20.4281,14.3766 20.6421,14.5906 20.6421,14.8546 C20.6421,15.1186 20.4281,15.3326 20.1631,15.3326" id="Fill-11" fill="#000000"></path>
            <g id="Group-15" transform="translate(2.000000, 11.438900)">
                <mask id="mask-6" fill="white">
                    <use xlink:href="#path-5"></use>
                </mask>
                <g id="Clip-14"></g>
                <path d="M0.917,7.0001 C0.863,7.0001 0.808,6.9901 0.754,6.9711 C0.505,6.8801 0.377,6.6051 0.468,6.3581 L2.337,1.2291 C2.428,0.9801 2.7,0.8541 2.95,0.9431 C3.198,1.0341 3.326,1.3091 3.235,1.5561 L1.366,6.6861 C1.296,6.8791 1.112,7.0001 0.917,7.0001" id="Fill-13" fill="#000000" mask="url(#mask-6)"></path>
            </g>
            <g id="Group-18" transform="translate(16.000000, 13.438900)">
                <mask id="mask-8" fill="white">
                    <use xlink:href="#path-7"></use>
                </mask>
                <g id="Clip-17"></g>
                <path d="M1.8711,5.0001 C1.6731,5.0001 1.4881,4.8761 1.4191,4.6791 L0.3491,1.5921 C0.2631,1.3431 0.3941,1.0701 0.6431,0.9831 C0.8941,0.8991 1.1651,1.0291 1.2531,1.2781 L2.3231,4.3641 C2.4091,4.6141 2.2771,4.8871 2.0281,4.9741 C1.9751,4.9911 1.9241,5.0001 1.8711,5.0001" id="Fill-16" fill="#000000" mask="url(#mask-8)"></path>
            </g>
        </g>
    </g>
</svg>