<svg xmlns="http://www.w3.org/2000/svg" viewBox="0 0 23.97 21.19"><defs/><title>Beach_icon</title><g id="Layer_2"><g id="Beach"><path class="cls-beach21" d="M19.84,4a6,6,0,0,0-4.53-2.73L17,4.77Z" style="fill: #b2b2b2;"/><path class="cls-beach21" d="M.61,8.9A6,6,0,0,1,3.45,4.44V8.35Z" style="fill: #b2b2b2;"/><path class="cls-beach21" d="M8.62,1s4.21.86,4.61,4.88L7.16,7.51A6.44,6.44,0,0,1,8.62,1Z" style="fill: #b2b2b2;"/><path class="cls-beach22" d="M23.47,20.69h-20S12.75,9.14,23.47,20.69Z" style="fill: none; stroke: #b2b2b2; stroke-linecap: round; stroke-linejoin: round;"/><line class="cls-beach23" x1="10.2" y1="6.67" x2="12.68" y2="15.59" style="fill: none; stroke: #b2b2b2; stroke-miterlimit: 10;"/><path class="cls-beach22" d="M.57,9.34C0,7.25,3.3,2.43,8.62,1s10.64,1,11.22,3Z" style="fill: none; stroke: #b2b2b2; stroke-linecap: round; stroke-linejoin: round;"/><path class="cls-beach22" d="M8.62,1S5.47,3.83,7.16,7.51" style="fill: none; stroke: #b2b2b2; stroke-linecap: round; stroke-linejoin: round;"/><path class="cls-beach22" d="M5.13,2.58s-2.86,2.78-1.77,6" style="fill: none; stroke: #b2b2b2; stroke-linecap: round; stroke-linejoin: round;"/><path class="cls-beach22" d="M8.6,1a5.31,5.31,0,0,1,4.63,4.87" style="fill: none; stroke: #b2b2b2; stroke-linecap: round; stroke-linejoin: round;"/><path class="cls-beach22" d="M12.45.55s3.87.92,4.59,4.22" style="fill: none; stroke: #b2b2b2; stroke-linecap: round; stroke-linejoin: round;"/></g></g></svg>
