<svg xmlns="http://www.w3.org/2000/svg" viewBox="0 0 20.98 19.2"><defs/><title>Bon_fire_icon</title><g id="Layer_2"><g id="Bon_fire"><path d="M10.06,15.24c.54,0,0,.44,0,1h1a1,1,0,0,1-1,1L2,18.2a1,1,0,1,1,0-2l8.08-1m0-1H9.94l-8,1a2,2,0,0,0,.07,4H2.1l8-1a2,2,0,0,0,1.91-2,1,1,0,0,0-.75-1,1.07,1.07,0,0,0-.17-.49,1.19,1.19,0,0,0-1.06-.52Z"/><path d="M2,16.24a1,1,0,1,1-1,1,1,1,0,0,1,1-1m0-1a2,2,0,1,0,2,2,2,2,0,0,0-2-2Z"/><path d="M10.92,15.24l8.08,1a1,1,0,1,1,0,2l-8.08-1c-.54,0,0-.44,0-1h-1a1,1,0,0,1,1-1m0-1a2,2,0,0,0-2,2,1,1,0,0,0,.75,1,1.07,1.07,0,0,0,.17.49,1.18,1.18,0,0,0,1,.52l8,1H19a2,2,0,0,0,.07-4l-8-1Z"/><path d="M19,16.24a1,1,0,1,1-1,1,1,1,0,0,1,1-1m0-1a2,2,0,1,0,2,2,2,2,0,0,0-2-2Z"/><circle class="cls-bonfire1" cx="10.48" cy="16.22" r="1.48" style="fill: #fff;"/><path d="M10.48,15.24a1,1,0,1,1-1,1,1,1,0,0,1,1-1m0-1a2,2,0,1,0,2,2,2,2,0,0,0-2-2Z"/><path class="cls-bonfire2" d="M10.48,3.2s-.37,3.5,1.67,5.46c2.2,2.12,1.75,5.67-1.67,6,0,0-4.75,0-3.69-5.75A11.3,11.3,0,0,1,10.48,3.2Z" style="fill: #009688; stroke: #000; stroke-linecap: round; stroke-linejoin: round;"/><path class="cls-bonfire2" d="M13.39.5s-.73.89-.14,1.45.14,1.66.14,1.66S15.69,2.27,13.39.5Z" style="fill: #009688; stroke: #000; stroke-linecap: round; stroke-linejoin: round;"/></g></g></svg>
