<?xml version="1.0" encoding="UTF-8"?>
<svg width="24px" height="24px" viewBox="0 0 24 24" version="1.1" xmlns="http://www.w3.org/2000/svg" xmlns:xlink="http://www.w3.org/1999/xlink">
    <!-- Generator: Sketch 52.2 (67145) - http://www.bohemiancoding.com/sketch -->
    <title>Icon/Breakfast</title>
    <desc>Created with Sketch.</desc>
    <defs>
        <polygon id="path-1" points="0 0.9525 20.1554 0.9525 20.1554 2 0 2"></polygon>
        <polygon id="path-3" points="0.3242 0.602 2.7962 0.602 2.7962 6.3969 0.3242 6.3969"></polygon>
        <polygon id="path-5" points="0.3603 0.602 2.8313 0.602 2.8313 6.3969 0.3603 6.3969"></polygon>
        <polygon id="path-7" points="0.618224515 0.401503929 6 0.401503929 6 7.8572 0.618224515 7.8572"></polygon>
    </defs>
    <g id="Icon/Breakfast" stroke="none" stroke-width="1" fill="none" fill-rule="evenodd">
        <g id="Group-21" transform="translate(2.000000, 1.000000)">
            <g id="Group-3" transform="translate(0.000000, 20.398500)">
                <mask id="mask-2" fill="white">
                    <use xlink:href="#path-1"></use>
                </mask>
                <g id="Clip-2"></g>
                <path d="M19.6314,2.0005 L0.5244,2.0005 C0.2344,2.0005 -0.0006,1.7665 -0.0006,1.4765 C-0.0006,1.1875 0.2344,0.9525 0.5244,0.9525 L19.6314,0.9525 C19.9214,0.9525 20.1554,1.1875 20.1554,1.4765 C20.1554,1.7665 19.9214,2.0005 19.6314,2.0005" id="Fill-1" fill="#000000" mask="url(#mask-2)"></path>
            </g>
            <path d="M4.0025,8.481 C3.5935,8.481 3.2605,8.819 3.2605,9.233 L3.2605,13.85 C3.2605,16.37 5.3095,18.419 7.8295,18.419 L12.3265,18.419 C14.2725,18.419 16.0075,17.183 16.6425,15.343 C16.8105,14.87 16.8955,14.369 16.8955,13.85 L16.8955,9.233 C16.8955,8.819 16.5575,8.481 16.1435,8.481 L4.0025,8.481 Z M12.3265,19.466 L7.8295,19.466 C4.7325,19.466 2.2125,16.947 2.2125,13.85 L2.2125,9.233 C2.2125,8.241 3.0165,7.434 4.0025,7.434 L16.1435,7.434 C17.1355,7.434 17.9425,8.241 17.9425,9.233 L17.9425,13.85 C17.9425,14.489 17.8385,15.107 17.6305,15.69 C16.8515,17.948 14.7185,19.466 12.3265,19.466 Z" id="Fill-4" fill="#000000"></path>
            <g id="Group-8" transform="translate(6.000000, 0.398500)">
                <mask id="mask-4" fill="white">
                    <use xlink:href="#path-3"></use>
                </mask>
                <g id="Clip-7"></g>
                <path d="M0.8472,6.3969 C0.5572,6.3969 0.3242,6.1629 0.3242,5.8739 C0.3242,5.1689 0.9142,4.8409 1.3052,4.6229 C1.4932,4.5199 1.7482,4.3769 1.7482,4.2899 C1.7482,4.2019 1.4932,4.0589 1.3052,3.9559 C0.9142,3.7379 0.3242,3.4099 0.3242,2.7059 C0.3242,2.0019 0.9142,1.6729 1.3062,1.4569 C1.4932,1.3529 1.7482,1.2109 1.7482,1.1259 C1.7482,0.8349 1.9832,0.6009 2.2722,0.6009 C2.5622,0.6009 2.7962,0.8349 2.7962,1.1259 C2.7962,1.8289 2.2042,2.1569 1.8142,2.3739 C1.6262,2.4769 1.3702,2.6189 1.3702,2.7059 C1.3702,2.7929 1.6262,2.9359 1.8142,3.0399 C2.2042,3.2569 2.7962,3.5849 2.7962,4.2899 C2.7962,4.9939 2.2042,5.3219 1.8142,5.5399 C1.6262,5.6429 1.3702,5.7859 1.3702,5.8739 C1.3702,6.1629 1.1362,6.3969 0.8472,6.3969" id="Fill-6" fill="#000000" mask="url(#mask-4)"></path>
            </g>
            <g id="Group-11" transform="translate(11.000000, 0.398500)">
                <mask id="mask-6" fill="white">
                    <use xlink:href="#path-5"></use>
                </mask>
                <g id="Clip-10"></g>
                <path d="M0.8833,6.3969 C0.5943,6.3969 0.3603,6.1629 0.3603,5.8739 C0.3603,5.1689 0.9493,4.8409 1.3403,4.6249 C1.5283,4.5199 1.7833,4.3769 1.7833,4.2899 C1.7833,4.2019 1.5283,4.0589 1.3403,3.9549 C0.9493,3.7379 0.3603,3.4099 0.3603,2.7059 C0.3603,2.0019 0.9503,1.6729 1.3413,1.4569 C1.5283,1.3529 1.7833,1.2109 1.7833,1.1259 C1.7833,0.8349 2.0183,0.6009 2.3073,0.6009 C2.5973,0.6009 2.8313,0.8349 2.8313,1.1259 C2.8313,1.8289 2.2403,2.1569 1.8503,2.3739 C1.6623,2.4769 1.4063,2.6189 1.4063,2.7059 C1.4063,2.7929 1.6623,2.9359 1.8503,3.0409 C2.2403,3.2569 2.8313,3.5849 2.8313,4.2899 C2.8313,4.9939 2.2403,5.3219 1.8503,5.5389 C1.6623,5.6429 1.4063,5.7859 1.4063,5.8739 C1.4063,6.1629 1.1733,6.3969 0.8833,6.3969" id="Fill-9" fill="#000000" mask="url(#mask-6)"></path>
            </g>
            <g id="Group-14" transform="translate(16.000000, 8.398500)">
                <mask id="mask-8" fill="white">
                    <use xlink:href="#path-7"></use>
                </mask>
                <g id="Clip-13"></g>
                <path d="M1.7935,6.7612 C2.4055,6.8772 3.0485,6.7762 3.6055,6.4582 C4.2295,6.0972 4.6745,5.5152 4.8605,4.8192 C5.0445,4.1262 4.9495,3.4082 4.5925,2.7942 C4.0495,1.8502 3.0035,1.3402 1.9465,1.4692 L1.9465,5.4512 C1.9465,5.9002 1.8965,6.3372 1.7935,6.7612 Z M2.2935,7.8572 C1.8415,7.8572 1.3875,7.7732 0.9525,7.6042 C0.6895,7.5012 0.5535,7.2082 0.6485,6.9412 C0.8145,6.4712 0.8985,5.9702 0.8985,5.4512 L0.8985,1.0402 C0.8985,0.8052 1.0575,0.5982 1.2835,0.5342 C2.9195,0.0862 4.6515,0.7992 5.4995,2.2712 C5.9955,3.1252 6.1295,4.1252 5.8725,5.0872 C5.6145,6.0552 4.9955,6.8652 4.1295,7.3652 C4.1295,7.3652 4.1275,7.3652 4.1275,7.3652 C3.5605,7.6922 2.9305,7.8572 2.2935,7.8572 Z" id="Fill-12" fill="#000000" mask="url(#mask-8)"></path>
            </g>
            <polygon id="Fill-15" fill="#009587" points="9.4585 15.732 5.5595 15.732 5.5595 11.655 7.5085 10.483 9.4585 11.655"></polygon>
            <path d="M6.0825,15.2076 L8.9345,15.2076 L8.9345,11.9516 L7.5095,11.0946 L6.0825,11.9516 L6.0825,15.2076 Z M9.4575,16.2556 L5.5595,16.2556 C5.2705,16.2556 5.0355,16.0206 5.0355,15.7316 L5.0355,11.6546 C5.0355,11.4706 5.1315,11.3006 5.2885,11.2056 L7.2385,10.0346 C7.4045,9.9346 7.6135,9.9346 7.7785,10.0346 L9.7285,11.2056 C9.8855,11.3006 9.9815,11.4706 9.9815,11.6546 L9.9815,15.7316 C9.9815,16.0206 9.7475,16.2556 9.4575,16.2556 Z" id="Fill-17" fill="#000000"></path>
            <path d="M7.5093,11.0074 C7.2193,11.0074 6.9853,10.7734 6.9853,10.4834 L6.9853,7.9574 C6.9853,7.6684 7.2193,7.4344 7.5093,7.4344 C7.7983,7.4344 8.0323,7.6684 8.0323,7.9574 L8.0323,10.4834 C8.0323,10.7734 7.7983,11.0074 7.5093,11.0074" id="Fill-19" fill="#000000"></path>
        </g>
    </g>
</svg>