<?xml version="1.0" encoding="UTF-8"?>
<svg width="22px" height="17px" viewBox="0 0 22 17" version="1.1" xmlns="http://www.w3.org/2000/svg" xmlns:xlink="http://www.w3.org/1999/xlink">
    <!-- Generator: Sketch 54.1 (76490) - https://sketchapp.com -->
    <title>Briefcase_white@1.5x</title>
    <desc>Created with Sketch.</desc>
    <g id="Page-1" stroke="none" stroke-width="1" fill="none" fill-rule="evenodd">
        <g id="Briefcase_white" transform="translate(1.000000, -2.000000)">
            <rect id="Rectangle-9" x="0" y="0" width="20" height="20"></rect>
            <g id="Tour_package_icon" transform="translate(0.000000, 2.222222)">
                <path d="M18.9656552,16.2024828 L1.03462069,16.2024828 C0.653241379,16.2024828 0.344965517,15.8935172 0.344965517,15.5128276 L0.344965517,4.47834483 C0.344965517,4.09765517 0.653241379,3.78868966 1.03462069,3.78868966 L18.9656552,3.78868966 C19.3463448,3.78868966 19.6553103,4.09765517 19.6553103,4.47834483 L19.6553103,15.5128276 C19.6553103,15.8935172 19.3463448,16.2024828 18.9656552,16.2024828 Z" id="Stroke-1" stroke="#FFFFFF" stroke-linecap="round" stroke-linejoin="round"></path>
                <path d="M16.8966897,3.92372414 L16.8966897,16.2023448" id="Stroke-3" stroke="#FFFFFF" stroke-linecap="round" stroke-linejoin="round"></path>
                <path d="M3.10358621,3.92372414 L3.10358621,16.2023448" id="Stroke-5" stroke="#FFFFFF" stroke-linecap="round" stroke-linejoin="round"></path>
                <path d="M14.8277241,2.41372414 L5.17255172,2.41372414 L5.17255172,1.03441379 C5.17255172,0.653724138 5.48082759,0.344758621 5.8622069,0.344758621 L14.138069,0.344758621 C14.5187586,0.344758621 14.8277241,0.653724138 14.8277241,1.03441379 L14.8277241,2.41372414 Z" id="Stroke-7" stroke="#FFFFFF" stroke-linecap="round" stroke-linejoin="round"></path>
                <path d="M14.8166207,2.38917241 L14.8166207,3.78848276" id="Stroke-9" stroke="#FFFFFF" stroke-linecap="round" stroke-linejoin="round"></path>
                <path d="M5.17255172,2.38917241 L5.17255172,3.78848276" id="Stroke-11" stroke="#FFFFFF" stroke-linecap="round" stroke-linejoin="round"></path>
                <path d="M12.7048966,4.74434483 C12.5283448,4.74434483 12.3517931,4.81193103 12.2173103,4.94641379 L10.2669655,6.89675862 C9.99731034,7.16572414 9.99731034,7.60296552 10.2669655,7.87193103 L12.2173103,9.82227586 C12.3462759,9.95193103 12.5221379,10.0243448 12.7048966,10.0243448 C12.8876552,10.0243448 13.0635172,9.95193103 13.1924828,9.82227586 L15.1428276,7.87193103 C15.4124828,7.60296552 15.4124828,7.16572414 15.1428276,6.89675862 L13.1924828,4.94641379 C13.058,4.81193103 12.8814483,4.74434483 12.7048966,4.74434483 M12.7048966,5.434 L14.6552414,7.38434483 L12.7048966,9.33468966 L10.7545517,7.38434483 L12.7048966,5.434" id="Fill-15" fill="#FFFFFF" fill-rule="nonzero"></path>
                <path d="M6.0817931,11.5671724 C5.20041379,11.5671724 4.48248276,12.2844138 4.48248276,13.1664828 C4.48248276,14.0478621 5.20041379,14.7651034 6.0817931,14.7651034 C6.96317241,14.7651034 7.68041379,14.0478621 7.68041379,13.1664828 C7.68041379,12.2844138 6.96317241,11.5671724 6.0817931,11.5671724 M6.0817931,12.2568276 C6.58386207,12.2568276 6.99075862,12.6637241 6.99075862,13.1664828 C6.99075862,13.6685517 6.58386207,14.0754483 6.0817931,14.0754483 C5.57903448,14.0754483 5.17213793,13.6685517 5.17213793,13.1664828 C5.17213793,12.6637241 5.57903448,12.2568276 6.0817931,12.2568276" id="Fill-19" fill="#FFFFFF" fill-rule="nonzero"></path>
            </g>
        </g>
    </g>
</svg>