<?xml version="1.0" encoding="UTF-8"?>
<svg width="51px" height="41px" viewBox="0 0 51 41" version="1.1" xmlns="http://www.w3.org/2000/svg" xmlns:xlink="http://www.w3.org/1999/xlink">
    <!-- Generator: Sketch 54.1 (76490) - https://sketchapp.com -->
    <title>Group 31</title>
    <desc>Created with Sketch.</desc>
    <g id="Page-3" stroke="none" stroke-width="1" fill="none" fill-rule="evenodd">
        <g id="6-copy" transform="translate(-79.000000, -265.000000)">
            <g id="Group-10" transform="translate(32.000000, 226.000000)">
                <g id="Group-8">
                    <g id="budget-2" transform="translate(32.000000, 29.000000)">
                        <g id="Group-31" transform="translate(15.000000, 10.000000)">
                            <path d="M50.0416842,8.80936842 L50.0416842,37.3462105 C50.0416842,38.5356842 49.0732632,39.5041053 47.8837895,39.5041053 L2.68484211,39.5041053 C1.49536842,39.5041053 0.526947368,38.5356842 0.526947368,37.3462105 L0.526947368,8.80936842 C0.526947368,7.61989474 1.49536842,6.65147368 2.68484211,6.65147368 L47.8837895,6.65147368 C49.0732632,6.65147368 50.0416842,7.61989474 50.0416842,8.80936842" id="Fill-1" fill="#FFFFFF"></path>
                            <path d="M50.0416842,8.80936842 L50.0416842,37.3462105 C50.0416842,38.5356842 49.0732632,39.5041053 47.8837895,39.5041053 L2.68484211,39.5041053 C1.49536842,39.5041053 0.526947368,38.5356842 0.526947368,37.3462105 L0.526947368,8.80936842 C0.526947368,7.61989474 1.49536842,6.65147368 2.68484211,6.65147368 L47.8837895,6.65147368 C49.0732632,6.65147368 50.0416842,7.61989474 50.0416842,8.80936842 Z" id="Stroke-3" stroke="#000000" stroke-linecap="round" stroke-linejoin="round"></path>
                            <path d="M10.0210526,14.0201053 L10.0210526,39.5043158 L5.81052632,39.5043158 L5.81052632,14.0201053 C5.81052632,12.8622105 6.75789474,11.9148421 7.91578947,11.9148421 C8.49473684,11.9148421 9.02105263,12.1464211 9.4,12.5358947 C9.78947368,12.9148421 10.0210526,13.4411579 10.0210526,14.0201053" id="Fill-5" fill="#FFFFFF"></path>
                            <path d="M10.0210526,14.0201053 L10.0210526,39.5043158 L5.81052632,39.5043158 L5.81052632,14.0201053 C5.81052632,12.8622105 6.75789474,11.9148421 7.91578947,11.9148421 C8.49473684,11.9148421 9.02105263,12.1464211 9.4,12.5358947 C9.78947368,12.9148421 10.0210526,13.4411579 10.0210526,14.0201053 Z" id="Stroke-7" stroke="#000000" stroke-linecap="round" stroke-linejoin="round"></path>
                            <path d="M10.0210526,5.59905263 L10.0210526,6.65168421 L5.81052632,6.65168421 L5.81052632,5.59905263 C5.81052632,4.44115789 6.75789474,3.49378947 7.91578947,3.49378947 C8.49473684,3.49378947 9.02105263,3.72536842 9.4,4.11484211 C9.78947368,4.49378947 10.0210526,5.02010526 10.0210526,5.59905263" id="Fill-9" fill="#FFFFFF"></path>
                            <path d="M10.0210526,5.59905263 L10.0210526,6.65168421 L5.81052632,6.65168421 L5.81052632,5.59905263 C5.81052632,4.44115789 6.75789474,3.49378947 7.91578947,3.49378947 C8.49473684,3.49378947 9.02105263,3.72536842 9.4,4.11484211 C9.78947368,4.49378947 10.0210526,5.02010526 10.0210526,5.59905263 Z" id="Stroke-11" stroke="#000000" stroke-linecap="round" stroke-linejoin="round"></path>
                            <path d="M44.7578947,14.0201053 L44.7578947,39.5043158 L40.5473684,39.5043158 L40.5473684,14.0201053 C40.5473684,12.8622105 41.4947368,11.9148421 42.6526316,11.9148421 C43.2315789,11.9148421 43.7578947,12.1464211 44.1368421,12.5358947 C44.5263158,12.9148421 44.7578947,13.4411579 44.7578947,14.0201053" id="Fill-13" fill="#FFFFFF"></path>
                            <path d="M44.7578947,14.0201053 L44.7578947,39.5043158 L40.5473684,39.5043158 L40.5473684,14.0201053 C40.5473684,12.8622105 41.4947368,11.9148421 42.6526316,11.9148421 C43.2315789,11.9148421 43.7578947,12.1464211 44.1368421,12.5358947 C44.5263158,12.9148421 44.7578947,13.4411579 44.7578947,14.0201053 Z" id="Stroke-15" stroke="#000000" stroke-linecap="round" stroke-linejoin="round"></path>
                            <path d="M44.7578947,5.59905263 L44.7578947,6.65168421 L40.5473684,6.65168421 L40.5473684,5.59905263 C40.5473684,4.44115789 41.4947368,3.49378947 42.6526316,3.49378947 C43.2315789,3.49378947 43.7578947,3.72536842 44.1368421,4.11484211 C44.5263158,4.49378947 44.7578947,5.02010526 44.7578947,5.59905263" id="Fill-17" fill="#FFFFFF"></path>
                            <path d="M44.7578947,5.59905263 L44.7578947,6.65168421 L40.5473684,6.65168421 L40.5473684,5.59905263 C40.5473684,4.44115789 41.4947368,3.49378947 42.6526316,3.49378947 C43.2315789,3.49378947 43.7578947,3.72536842 44.1368421,4.11484211 C44.5263158,4.49378947 44.7578947,5.02010526 44.7578947,5.59905263 Z" id="Stroke-19" stroke="#000000" stroke-linecap="round" stroke-linejoin="round"></path>
                            <path d="M18.8790526,4.64410526 C18.8790526,3.50936842 19.3369474,2.48410526 20.0864211,1.73357895 C20.8369474,0.984105263 21.8622105,0.526210526 22.9969474,0.526210526 L27.5716842,0.526210526 C29.8411579,0.526210526 31.6895789,2.37463158 31.6895789,4.64410526" id="Stroke-21" stroke="#000000" stroke-linecap="round" stroke-linejoin="round"></path>
                            <path d="M25.6388421,19.5212632 L19.3083158,21.5254737 C17.9167368,21.9665263 16.4304211,21.1949474 15.9893684,19.8033684 L14.8956842,16.3486316 C14.4546316,14.956 15.2262105,13.4707368 16.6188421,13.0296842 L22.9483158,11.0254737 C24.3409474,10.5844211 25.8262105,11.356 26.2672632,12.7475789 L27.3609474,16.2023158 C27.802,17.5949474 27.0304211,19.0802105 25.6388421,19.5212632" id="Fill-23" fill="#009688"></path>
                            <path d="M25.6388421,19.5212632 L19.3083158,21.5254737 C17.9167368,21.9665263 16.4304211,21.1949474 15.9893684,19.8033684 L14.8956842,16.3486316 C14.4546316,14.956 15.2262105,13.4707368 16.6188421,13.0296842 L22.9483158,11.0254737 C24.3409474,10.5844211 25.8262105,11.356 26.2672632,12.7475789 L27.3609474,16.2023158 C27.802,17.5949474 27.0304211,19.0802105 25.6388421,19.5212632 Z" id="Stroke-25" stroke="#000000" stroke-linecap="round" stroke-linejoin="round"></path>
                            <path d="M32.1901053,35.2002105 L23.6943158,33.7496842 C22.0153684,33.4644211 20.8869474,31.8707368 21.1722105,30.1907368 L21.7669474,26.7138947 C22.0522105,25.036 23.6458947,23.9065263 25.3258947,24.1938947 L33.8206316,25.6433684 C35.4995789,25.9296842 36.628,27.5233684 36.3416842,29.2023158 L35.748,32.6781053 C35.4616842,34.3570526 33.8690526,35.4854737 32.1901053,35.2002105" id="Fill-27" fill="#009688"></path>
                            <path d="M32.1901053,35.2002105 L23.6943158,33.7496842 C22.0153684,33.4644211 20.8869474,31.8707368 21.1722105,30.1907368 L21.7669474,26.7138947 C22.0522105,25.036 23.6458947,23.9065263 25.3258947,24.1938947 L33.8206316,25.6433684 C35.4995789,25.9296842 36.628,27.5233684 36.3416842,29.2023158 L35.748,32.6781053 C35.4616842,34.3570526 33.8690526,35.4854737 32.1901053,35.2002105 Z" id="Stroke-29" stroke="#000000" stroke-linecap="round" stroke-linejoin="round"></path>
                        </g>
                    </g>
                </g>
            </g>
        </g>
    </g>
</svg>