<svg xmlns="http://www.w3.org/2000/svg" viewBox="0 0 25 20.98"><defs/><title>
    Budget_icon</title><g id="Layer_2"><g id="Budget"><path class="cls-budget1" d="M.5,5.48h24a0,0,0,0,1,0,0v15a0,0,0,0,1,0,0H2.5a2,2,0,0,1-2-2v-13A0,0,0,0,1,.5,5.48Z" style="fill: none; stroke: #000; stroke-linecap: round; stroke-linejoin: round;"/><path class="cls-budget2" d="M2.5.5h20a0,0,0,0,1,0,0v5a0,0,0,0,1,0,0H.5a0,0,0,0,1,0,0v-3A2,2,0,0,1,2.5.5Z" style="stroke: #000; stroke-linecap: round; stroke-linejoin: round; fill: #009688;"/><line class="cls-budget1" x1="22.5" y1="2.99" x2="10.5" y2="2.99" style="fill: none; stroke: #000; stroke-linecap: round; stroke-linejoin: round;"/><circle class="cls-budget2" cx="21.06" cy="11.78" r="1.5" style="stroke: #000; stroke-linecap: round; stroke-linejoin: round; fill: #009688;"/></g></g></svg>
