<?xml version="1.0" encoding="UTF-8"?>
<svg width="47px" height="52px" viewBox="0 0 47 52" version="1.1" xmlns="http://www.w3.org/2000/svg" xmlns:xlink="http://www.w3.org/1999/xlink">
    <!-- Generator: Sketch 54.1 (76490) - https://sketchapp.com -->
    <title>Group 27</title>
    <desc>Created with Sketch.</desc>
    <g id="Page-3" stroke="none" stroke-width="1" fill="none" fill-rule="evenodd">
        <g id="6-copy" transform="translate(-233.000000, -107.000000)">
            <g id="Group-6" transform="translate(184.000000, 74.000000)">
                <g id="budget-1" transform="translate(32.000000, 29.000000)">
                    <g id="Group-27" transform="translate(17.000000, 4.000000)">
                        <path d="M41.0095833,32.07685 L5.79908333,32.07685 C2.89575,32.07685 0.541666667,34.42985 0.541666667,37.3342667 L0.541666667,41.0100167 C0.541666667,43.91335 2.89575,46.2674333 5.79908333,46.2674333 L41.0095833,46.2674333 C43.914,46.2674333 46.267,43.91335 46.267,41.0100167 L46.267,37.3342667 C46.267,34.42985 43.914,32.07685 41.0095833,32.07685" id="Fill-1" fill="#009688"></path>
                        <path d="M41.0095833,32.07685 L5.79908333,32.07685 C2.89575,32.07685 0.541666667,34.42985 0.541666667,37.3342667 L0.541666667,41.0100167 C0.541666667,43.91335 2.89575,46.2674333 5.79908333,46.2674333 L41.0095833,46.2674333 C43.914,46.2674333 46.267,43.91335 46.267,41.0100167 L46.267,37.3342667 C46.267,34.42985 43.914,32.07685 41.0095833,32.07685 Z" id="Stroke-3" stroke="#000000" stroke-linecap="round" stroke-linejoin="round"></path>
                        <path d="M36.0182333,13.1555667 L10.79065,13.1555667 C9.04865,13.1555667 7.63706667,11.7439833 7.63706667,10.0019833 L7.63706667,3.69481667 C7.63706667,1.9539 9.04865,0.541233333 10.79065,0.541233333 L36.0182333,0.541233333 C37.75915,0.541233333 39.1718167,1.9539 39.1718167,3.69481667 L39.1718167,10.0019833 C39.1718167,11.7439833 37.75915,13.1555667 36.0182333,13.1555667" id="Fill-5" fill="#FFFFFF"></path>
                        <path d="M36.0182333,13.1555667 L10.79065,13.1555667 C9.04865,13.1555667 7.63706667,11.7439833 7.63706667,10.0019833 L7.63706667,3.69481667 C7.63706667,1.9539 9.04865,0.541233333 10.79065,0.541233333 L36.0182333,0.541233333 C37.75915,0.541233333 39.1718167,1.9539 39.1718167,3.69481667 L39.1718167,10.0019833 C39.1718167,11.7439833 37.75915,13.1555667 36.0182333,13.1555667 Z" id="Stroke-7" stroke="#000000" stroke-linecap="round" stroke-linejoin="round"></path>
                        <path d="M38.189125,50.99705 L8.620625,50.99705 C6.39329167,50.99705 4.642625,49.0936333 4.82679167,46.8749667 L6.92954167,21.6463 C7.32929167,16.8471333 11.340875,13.1551333 16.157375,13.1551333 L30.6512917,13.1551333 C35.4667083,13.1551333 39.479375,16.8471333 39.8802083,21.6463 L41.981875,46.8749667 C42.167125,49.0936333 40.415375,50.99705 38.189125,50.99705" id="Fill-9" fill="#FFFFFF"></path>
                        <path d="M38.189125,50.99705 L8.620625,50.99705 C6.39329167,50.99705 4.642625,49.0936333 4.82679167,46.8749667 L6.92954167,21.6463 C7.32929167,16.8471333 11.340875,13.1551333 16.157375,13.1551333 L30.6512917,13.1551333 C35.4667083,13.1551333 39.479375,16.8471333 39.8802083,21.6463 L41.981875,46.8749667 C42.167125,49.0936333 40.415375,50.99705 38.189125,50.99705 Z" id="Stroke-11" stroke="#000000" stroke-linecap="round" stroke-linejoin="round"></path>
                        <path d="M35.23,43.9014333 L35.23,46.2674333 L11.5786667,46.2674333 L11.5786667,43.9014333 C11.5786667,37.37435 16.87725,32.07685 23.4043333,32.07685 C26.6684167,32.07685 29.6161667,33.4006833 31.7611667,35.5446 C33.9050833,37.6896 35.23,40.63735 35.23,43.9014333" id="Fill-13" fill="#009688"></path>
                        <path d="M13.1555667,22.6156667 L16.30915,22.6156667" id="Stroke-15" stroke="#000000" stroke-linecap="round" stroke-linejoin="round"></path>
                        <path d="M19.4624083,22.6156667 L33.6529917,22.6156667" id="Stroke-17" stroke="#000000" stroke-linecap="round" stroke-linejoin="round"></path>
                        <path d="M16.3092583,0.541666667 L16.3092583,3.69525" id="Stroke-19" stroke="#000000" stroke-linecap="round" stroke-linejoin="round"></path>
                        <path d="M16.3092583,6.84861667 L16.3092583,17.8856167" id="Stroke-21" stroke="#000000" stroke-linecap="round" stroke-linejoin="round"></path>
                        <path d="M30.49995,0.541666667 L30.49995,3.69525" id="Stroke-23" stroke="#000000" stroke-linecap="round" stroke-linejoin="round"></path>
                        <path d="M30.49995,6.84861667 L30.49995,17.8856167" id="Stroke-25" stroke="#000000" stroke-linecap="round" stroke-linejoin="round"></path>
                    </g>
                </g>
            </g>
        </g>
    </g>
</svg>