<?xml version="1.0" encoding="UTF-8"?>
<svg width="66px" height="60px" viewBox="0 0 66 60" version="1.1" xmlns="http://www.w3.org/2000/svg" xmlns:xlink="http://www.w3.org/1999/xlink">
    <!-- Generator: Sketch 54.1 (76490) - https://sketchapp.com -->
    <title>Group 45</title>
    <desc>Created with Sketch.</desc>
    <g id="Page-3" stroke="none" stroke-width="1" fill="none" fill-rule="evenodd">
        <g id="6-copy" transform="translate(-223.000000, -256.000000)">
            <g id="Group-10" transform="translate(32.000000, 226.000000)">
                <g id="Group-7" transform="translate(152.000000, 0.000000)">
                    <g id="budget-3" transform="translate(32.000000, 30.000000)">
                        <g id="Group-45" transform="translate(8.000000, 1.000000)">
                            <path d="M53,3.74081496 L53,44.2698731 C53,46.3326653 51.3967907,48 49.4259664,48 L42.5740336,48 C40.5929978,48 39,46.3326653 39,44.2698731 L39,3.74081496 C39,3.65531062 39,3.56980628 39.0102115,3.48430194 C39.1327498,1.52839011 40.67469,0 42.5740336,0 L49.4259664,0 C51.3150985,0 52.8672502,1.52839011 52.9887673,3.48430194 C53,3.56980628 53,3.65531062 53,3.74081496 Z" id="Stroke-1" stroke="#000000" stroke-linecap="round" stroke-linejoin="round"></path>
                            <path d="M29.151976,32 L61.848024,32 C63.0359147,32 64,32.9323248 64,34.0810822 L64,55.9189178 C64,57.0687157 63.0359147,58 61.848024,58 L29.151976,58 C27.9640853,58 27,57.0687157 27,55.9189178 L27,34.0810822 C27,32.9323248 27.9640853,32 29.151976,32" id="Fill-3" fill="#009688"></path>
                            <path d="M29.151976,32 L61.848024,32 C63.0359147,32 64,32.9323248 64,34.0810822 L64,55.9189178 C64,57.0687157 63.0359147,58 61.848024,58 L29.151976,58 C27.9640853,58 27,57.0687157 27,55.9189178 L27,34.0810822 C27,32.9323248 27.9640853,32 29.151976,32 Z" id="Stroke-5" stroke="#000000" stroke-linecap="round" stroke-linejoin="round"></path>
                            <path d="M50.6278865,43.6390977 L48.3616801,41.3716434 C47.87944,40.8893663 47.87944,40.1095596 48.3616801,39.6283566 L50.6278865,37.3609023 C51.1090526,36.8796992 51.8909474,36.8796992 52.3710395,37.3609023 L54.6383199,39.6283566 C55.12056,40.1095596 55.12056,40.8893663 54.6383199,41.3716434 L52.3710395,43.6390977 C51.8909474,44.1203008 51.1090526,44.1203008 50.6278865,43.6390977" id="Fill-7" fill="#FFFFFF"></path>
                            <path d="M49.0249311,49.8511909 L49.4211254,47.4787924 C49.5822517,46.5110887 50.4805863,45.8606834 51.426376,46.0255431 L57.5546955,47.0960018 C58.5004851,47.2608615 59.1361617,48.1800106 58.9750353,49.1477143 L58.5788411,51.5201128 C58.4177147,52.4878165 57.5193801,53.1393509 56.5735905,52.9744912 L50.4463746,51.9029034 C49.5005849,51.7391729 48.8638047,50.8188946 49.0249311,49.8511909" id="Fill-9" fill="#FFFFFF"></path>
                            <path d="M50,26.2332586 L50,55.7667414 C50,56.9977571 49.0221088,58 47.8210034,58 L2.1789966,58 C0.977891156,58 0,56.9977571 0,55.7667414 L0,26.2332586 C0,25.0022429 0.977891156,24 2.1789966,24 L47.8210034,24 C49.0221088,24 50,25.0022429 50,26.2332586" id="Fill-11" fill="#FFFFFF"></path>
                            <path d="M50,26.2332586 L50,55.7667414 C50,56.9977571 49.0221088,58 47.8210034,58 L2.1789966,58 C0.977891156,58 0,56.9977571 0,55.7667414 L0,26.2332586 C0,25.0022429 0.977891156,24 2.1789966,24 L47.8210034,24 C49.0221088,24 50,25.0022429 50,26.2332586 Z" id="Stroke-13" stroke="#000000" stroke-linecap="round" stroke-linejoin="round"></path>
                            <path d="M9,32.1365891 L9,58 L5,58 L5,32.1365891 C5,30.9614651 5.9,30 7,30 C7.55,30 8.05,30.2350248 8.41,30.6302938 C8.78,31.0148798 9,31.5490271 9,32.1365891" id="Fill-15" fill="#FFFFFF"></path>
                            <path d="M9,32.1365891 L9,58 L5,58 L5,32.1365891 C5,30.9614651 5.9,30 7,30 C7.55,30 8.05,30.2350248 8.41,30.6302938 C8.78,31.0148798 9,31.5490271 9,32.1365891 Z" id="Stroke-17" stroke="#000000" stroke-linecap="round" stroke-linejoin="round"></path>
                            <path d="M9,23 L9,24 L5,24 L5,23 C5,21.9 5.9,21 7,21 C7.55,21 8.05,21.22 8.41,21.59 C8.78,21.95 9,22.45 9,23" id="Fill-19" fill="#FFFFFF"></path>
                            <path d="M9,23 L9,24 L5,24 L5,23 C5,21.9 5.9,21 7,21 C7.55,21 8.05,21.22 8.41,21.59 C8.78,21.95 9,22.45 9,23 Z" id="Stroke-21" stroke="#000000" stroke-linecap="round" stroke-linejoin="round"></path>
                            <path d="M45,32.1365891 L45,58 L41,58 L41,32.1365891 C41,30.9614651 41.9,30 43,30 C43.55,30 44.05,30.2350248 44.41,30.6302938 C44.78,31.0148798 45,31.5490271 45,32.1365891" id="Fill-23" fill="#FFFFFF"></path>
                            <path d="M45,32.1365891 L45,58 L41,58 L41,32.1365891 C41,30.9614651 41.9,30 43,30 C43.55,30 44.05,30.2350248 44.41,30.6302938 C44.78,31.0148798 45,31.5490271 45,32.1365891 Z" id="Stroke-25" stroke="#000000" stroke-linecap="round" stroke-linejoin="round"></path>
                            <path d="M45,23 L45,24 L41,24 L41,23 C41,21.9 41.9,21 43,21 C43.55,21 44.05,21.22 44.41,21.59 C44.78,21.95 45,22.45 45,23" id="Fill-27" fill="#FFFFFF"></path>
                            <path d="M45,23 L45,24 L41,24 L41,23 C41,21.9 41.9,21 43,21 C43.55,21 44.05,21.22 44.41,21.59 C44.78,21.95 45,22.45 45,23 Z" id="Stroke-29" stroke="#000000" stroke-linecap="round" stroke-linejoin="round"></path>
                            <path d="M18,22 C18,20.8977505 18.4646672,19.9018405 19.225226,19.1728016 C19.9868529,18.4447853 21.0272802,18 22.1788003,18 L26.8222679,18 C29.1242399,18 31,19.795501 31,22" id="Stroke-31" stroke="#000000" stroke-linecap="round" stroke-linejoin="round"></path>
                            <path d="M25.1116092,37.8218052 L18.6385242,39.872954 C17.215608,40.324336 15.6958215,39.5346868 15.245913,38.1105174 L14.1265235,34.5748712 C13.676615,33.1496245 14.464493,31.6295768 15.8884856,31.1781948 L22.3604943,29.127046 C23.7844869,28.675664 25.3042734,29.4653132 25.7541819,30.8894826 L26.8735714,34.4251288 C27.3234798,35.8503755 26.5345255,37.3704232 25.1116092,37.8218052" id="Fill-33" fill="#009688"></path>
                            <path d="M25.1116092,37.8218052 L18.6385242,39.872954 C17.215608,40.324336 15.6958215,39.5346868 15.245913,38.1105174 L14.1265235,34.5748712 C13.676615,33.1496245 14.464493,31.6295768 15.8884856,31.1781948 L22.3604943,29.127046 C23.7844869,28.675664 25.3042734,29.4653132 25.7541819,30.8894826 L26.8735714,34.4251288 C27.3234798,35.8503755 26.5345255,37.3704232 25.1116092,37.8218052 Z" id="Stroke-35" stroke="#000000" stroke-linecap="round" stroke-linejoin="round"></path>
                            <path d="M30.8745507,52.956276 L22.5221517,51.5181803 C20.8715414,51.2353618 19.7621656,49.6553351 20.043649,47.9897323 L20.6273131,44.5426859 C20.9087965,42.8791704 22.4755828,41.759376 24.1261932,42.0442817 L32.4775573,43.4813338 C34.1292025,43.7651959 35.2385783,45.3452226 34.95606,47.0097818 L34.3734308,50.4557845 C34.0909125,52.1203437 32.5251611,53.2390945 30.8745507,52.956276" id="Fill-37" fill="#009688"></path>
                            <path d="M30.8745507,52.956276 L22.5221517,51.5181803 C20.8715414,51.2353618 19.7621656,49.6553351 20.043649,47.9897323 L20.6273131,44.5426859 C20.9087965,42.8791704 22.4755828,41.759376 24.1261932,42.0442817 L32.4775573,43.4813338 C34.1292025,43.7651959 35.2385783,45.3452226 34.95606,47.0097818 L34.3734308,50.4557845 C34.0909125,52.1203437 32.5251611,53.2390945 30.8745507,52.956276 Z" id="Stroke-39" stroke="#000000" stroke-linecap="round" stroke-linejoin="round"></path>
                            <path d="M53,3 L39,3 C39.1227263,1.31595092 40.6660092,0 42.5692892,0 L49.4317335,0 C51.3227409,0 52.8782964,1.31595092 53,3" id="Fill-41" fill="#009688"></path>
                            <path d="M53,3 L39,3 C39.1227263,1.31595092 40.6660092,0 42.5692892,0 L49.4317335,0 C51.3227409,0 52.8782964,1.31595092 53,3 Z" id="Stroke-43" stroke="#000000" stroke-linecap="round" stroke-linejoin="round"></path>
                        </g>
                    </g>
                </g>
            </g>
        </g>
    </g>
</svg>