<?xml version="1.0" encoding="UTF-8"?>
<svg width="24px" height="24px" viewBox="0 0 24 24" version="1.1" xmlns="http://www.w3.org/2000/svg" xmlns:xlink="http://www.w3.org/1999/xlink">
    <!-- Generator: Sketch 50.2 (55047) - http://www.bohemiancoding.com/sketch -->
    <title>budget icon</title>
    <desc>Created with Sketch.</desc>
    <defs/>
    <g id="Symbols" stroke="none" stroke-width="1" fill="none" fill-rule="evenodd">
        <g id="incomplete-Preference" transform="translate(-22.000000, -181.000000)">
            <g id="Group-10" transform="translate(22.000000, 24.000000)">
                <g id="budget-icon" transform="translate(0.000000, 157.000000)">
                    <rect id="Rectangle-path" fill="none" fill-rule="nonzero" x="0" y="0" width="24" height="24"/>
                    <text id="₹" font-family="PingFangSC-Semibold, PingFang SC" font-size="10" font-weight="500" fill="#009688">
                        <tspan x="9" y="19">₹</tspan>
                    </text>
                    <path d="M19.46,15.61 C19.46,19.73 16.12,22 12,22 C7.88,22 4.54,19.73 4.54,15.61 C4.54,11.49 8.5,7.08 12,7.08 C15.5,7.08 19.46,11.49 19.46,15.61 Z" id="Shape" stroke="#000000" stroke-linecap="round" stroke-linejoin="round" fill-rule="nonzero"/>
                    <rect id="Rectangle-path" stroke="#000000" fill="#009688" fill-rule="nonzero" stroke-linecap="round" stroke-linejoin="round" x="9.5" y="5.74" width="5.01" height="2.09"/>
                    <polygon id="Shape" stroke="#000000" stroke-linejoin="round" fill-rule="nonzero" points="16.06 2 16.06 4.49 14.5 5.74 9.5 5.74 7.92 4.49 7.92 2 9.67 2 10.53 2.83 11.38 2 12.59 2 13.45 2.83 14.31 2"/>
                </g>
            </g>
        </g>
    </g>
</svg>