<?xml version="1.0" encoding="UTF-8"?>
<svg width="32px" height="51px" viewBox="0 0 32 51" version="1.1" xmlns="http://www.w3.org/2000/svg" xmlns:xlink="http://www.w3.org/1999/xlink">
    <!-- Generator: Sketch 54.1 (76490) - https://sketchapp.com -->
    <title>Group 27 Copy</title>
    <desc>Created with Sketch.</desc>
    <g id="Page-3" stroke="none" stroke-width="1" fill="none" fill-rule="evenodd">
        <g id="6-copy" transform="translate(-88.000000, -109.000000)" stroke="#000000">
            <g id="budget-1-copy" transform="translate(64.000000, 104.000000)">
                <g id="Group-16" transform="translate(24.000000, 5.000000)">
                    <g id="Group-13" transform="translate(2.032258, 0.000000)">
                        <g id="Group-12">
                            <path d="M4.91612823,0.5 C4.17418891,0.5 3.54371744,1.04241837 3.43294162,1.77604135 L0.63462238,20.308166 C0.623429203,20.3822938 0.617808991,20.4571565 0.617808991,20.5321246 C0.617808991,21.3605518 1.28938187,22.0321246 2.11780899,22.0321246 L6.05526073,22.0321246 C6.79720005,22.0321246 7.42767152,21.4897063 7.53844734,20.7560833 L10.3367666,2.22395865 C10.3479598,2.14983081 10.35358,2.07496815 10.35358,2 C10.35358,1.17157288 9.68200709,0.5 8.85357997,0.5 L4.91612823,0.5 Z" id="Rectangle" fill="#009688"></path>
                            <path d="M5.47263039,0.5 C5.40789444,0.5 5.34322639,0.504190739 5.27903188,0.512545928 C4.45753368,0.619467433 3.87825482,1.37210031 3.98517632,2.19359851 L6.12549111,18.638043 C6.22275341,19.3853276 6.85935755,19.9444444 7.61294518,19.9444444 L11.5620029,19.9444444 C11.6267388,19.9444444 11.6914069,19.9402537 11.7556014,19.9318985 C12.5770996,19.824977 13.1563785,19.0723441 13.049457,18.2508459 L10.9091422,1.80640149 C10.8118799,1.05911683 10.1752757,0.5 9.4216881,0.5 L5.47263039,0.5 Z" id="Rectangle" fill="#FFFFFF"></path>
                        </g>
                        <g id="Group-12" transform="translate(20.709677, 11.500000) scale(-1, 1) translate(-20.709677, -11.500000) translate(13.483871, 0.000000)">
                            <path d="M4.91612823,0.5 C4.17418891,0.5 3.54371744,1.04241837 3.43294162,1.77604135 L0.63462238,20.308166 C0.623429203,20.3822938 0.617808991,20.4571565 0.617808991,20.5321246 C0.617808991,21.3605518 1.28938187,22.0321246 2.11780899,22.0321246 L6.05526073,22.0321246 C6.79720005,22.0321246 7.42767152,21.4897063 7.53844734,20.7560833 L10.3367666,2.22395865 C10.3479598,2.14983081 10.35358,2.07496815 10.35358,2 C10.35358,1.17157288 9.68200709,0.5 8.85357997,0.5 L4.91612823,0.5 Z" id="Rectangle" fill="#009688"></path>
                            <path d="M5.47263039,0.5 C5.40789444,0.5 5.34322639,0.504190739 5.27903188,0.512545928 C4.45753368,0.619467433 3.87825482,1.37210031 3.98517632,2.19359851 L6.12549111,18.638043 C6.22275341,19.3853276 6.85935755,19.9444444 7.61294518,19.9444444 L11.5620029,19.9444444 C11.6267388,19.9444444 11.6914069,19.9402537 11.7556014,19.9318985 C12.5770996,19.824977 13.1563785,19.0723441 13.049457,18.2508459 L10.9091422,1.80640149 C10.8118799,1.05911683 10.1752757,0.5 9.4216881,0.5 L5.47263039,0.5 Z" id="Rectangle" fill="#FFFFFF"></path>
                        </g>
                    </g>
                    <path d="M15.9999769,9.5 C7.9994304,9.5 1.44432652,15.8524483 1.19316262,23.8490514 L0.599049047,42.7645499 C0.596584737,42.8430091 0.595352354,42.9215021 0.595352354,43 C0.595352354,47.1421356 3.95321673,50.5 8.09535235,50.5 L23.9046014,50.5 C23.9830993,50.5 24.0615923,50.4987676 24.1400515,50.4963033 C28.2801455,50.3662678 31.5309402,46.9046439 31.4009047,42.7645499 L30.8067911,23.8490514 C30.5556272,15.8524483 24.0005234,9.5 15.9999769,9.5 Z" id="Rectangle" fill="#FFFFFF"></path>
                    <path d="M31.0926824,45.5 L0.907043169,45.5 C1.94914597,48.4538971 4.76101281,50.5 7.98064997,50.5 L24.0190927,50.5 C24.0933662,50.5 24.1676357,50.4988967 24.2418765,50.4966904 C27.3786212,50.4034738 30.0766721,48.3779595 31.0926824,45.5 Z" id="Combined-Shape" fill="#009688"></path>
                    <rect id="Rectangle" fill="#FFFFFF" x="5.66129032" y="31.5" width="20.6774194" height="17" rx="4"></rect>
                    <path d="M6.19354839,36.5 L25.8064516,36.5" id="Line" stroke-linecap="square"></path>
                </g>
            </g>
        </g>
    </g>
</svg>