<?xml version="1.0" encoding="UTF-8"?>
<svg width="24px" height="24px" viewBox="0 0 24 24" version="1.1" xmlns="http://www.w3.org/2000/svg" xmlns:xlink="http://www.w3.org/1999/xlink">
    <!-- Generator: Sketch 52.2 (67145) - http://www.bohemiancoding.com/sketch -->
    <title>Icon/Bulb</title>
    <desc>Created with Sketch.</desc>
    <g id="Icon/Bulb" stroke="none" stroke-width="1" fill="none" fill-rule="evenodd">
        <g id="Group" transform="translate(5.000000, 1.000000)">
            <path d="M6.90714917,0.164088398 C3.18781215,0.164088398 0.149138122,3.20276243 0.149138122,6.92209945 C0.149138122,8.86685083 0.999966851,10.738674 2.43422099,12.0027624 C3.50383425,13.0723757 3.40659669,15.3574586 3.38228729,15.381768 C3.38228729,15.5033149 3.40659669,15.6005525 3.50383425,15.6977901 C3.57676243,15.7707182 3.69830939,15.819337 3.79554696,15.819337 L9.99444199,15.819337 C10.115989,15.819337 10.2132265,15.7707182 10.2861547,15.6977901 C10.3590829,15.6248619 10.4077017,15.5033149 10.4077017,15.381768 C10.4077017,15.3574586 10.2861547,13.0723757 11.355768,12.0027624 C11.3800773,11.978453 11.4043867,11.9541436 11.4286961,11.9298343 C12.8386409,10.6414365 13.6651602,8.81823204 13.6651602,6.92209945 C13.6651602,3.20276243 10.6264862,0.164088398 6.90714917,0.164088398 Z M10.7966519,11.3707182 C10.7723425,11.3950276 10.7237238,11.4436464 10.7237238,11.4679558 C9.77565746,12.4889503 9.60549171,14.1662983 9.58118232,14.9685083 L4.20880663,14.9685083 C4.18449724,14.1662983 4.01433149,12.4160221 2.99333702,11.3707182 C1.70493923,10.2524862 0.951348066,8.62375691 0.951348066,6.89779006 C0.951348066,3.6160221 3.60107182,0.966298343 6.88283978,0.966298343 C10.1646077,0.966298343 12.8143315,3.6160221 12.8143315,6.89779006 C12.8143315,8.62375691 12.0850497,10.2524862 10.7966519,11.3707182 Z" id="Shape" fill="#000000" fill-rule="nonzero"></path>
            <path d="M6.88283978,1.89005525 C6.66405525,1.89005525 6.46958011,2.08453039 6.46958011,2.30331492 C6.46958011,2.52209945 6.66405525,2.71657459 6.88283978,2.71657459 C9.3380884,2.71657459 11.3071492,4.70994475 11.3071492,7.14088398 C11.3071492,7.35966851 11.5016243,7.55414365 11.7204088,7.55414365 C11.9391934,7.55414365 12.1336685,7.35966851 12.1336685,7.14088398 C12.1579779,4.2480663 9.79996685,1.89005525 6.88283978,1.89005525 Z" id="Path" fill="#009688"></path>
            <path d="M9.58118232,16.2812155 L4.18449724,16.2812155 C3.62538122,16.2812155 3.16350276,16.7430939 3.16350276,17.3022099 C3.16350276,17.861326 3.62538122,18.3232044 4.18449724,18.3232044 L9.55687293,18.3232044 C10.1402983,18.298895 10.6021768,17.861326 10.6021768,17.3022099 C10.6021768,16.7430939 10.1402983,16.2812155 9.58118232,16.2812155 Z M9.58118232,17.4723757 L4.18449724,17.4723757 C4.08725967,17.4723757 3.9900221,17.3994475 3.9900221,17.2779006 C3.9900221,17.1563536 4.06295028,17.0834254 4.18449724,17.0834254 L9.55687293,17.0834254 C9.6541105,17.0834254 9.75134807,17.1563536 9.75134807,17.2779006 C9.75134807,17.3994475 9.67841989,17.4723757 9.58118232,17.4723757 Z" id="Shape" fill="#000000" fill-rule="nonzero"></path>
            <path d="M8.77897238,18.7364641 L4.98670718,18.7364641 C4.42759116,18.7364641 3.96571271,19.1983425 3.96571271,19.7574586 C3.96571271,20.3165746 4.42759116,20.778453 4.98670718,20.778453 L8.77897238,20.778453 C9.3380884,20.778453 9.79996685,20.3165746 9.79996685,19.7574586 C9.79996685,19.1740331 9.3380884,18.7364641 8.77897238,18.7364641 Z M8.77897238,19.9276243 L4.98670718,19.9276243 C4.88946961,19.9276243 4.79223204,19.8546961 4.79223204,19.7331492 C4.79223204,19.6116022 4.86516022,19.538674 4.98670718,19.538674 L8.77897238,19.538674 C8.87620994,19.538674 8.97344751,19.6116022 8.97344751,19.7331492 C8.97344751,19.8546961 8.87620994,19.9276243 8.77897238,19.9276243 Z" id="Shape" fill="#000000" fill-rule="nonzero"></path>
        </g>
    </g>
</svg>