<svg xmlns="http://www.w3.org/2000/svg" viewBox="0 0 25 23"><defs/><title>Bus</title><g id="Layer_2"><g id="Bus"><line class="cls-busfront1" x1="12" y1="10.99" x2="13.5" y2="7.49" style="fill: none; stroke: #009688; stroke-linecap: round; stroke-linejoin: round;"/><path class="cls-busfront2" d="M4.26.5H20.87A1.63,1.63,0,0,1,22.5,2.13V18a1.63,1.63,0,0,1-1.63,1.63H4.13A1.63,1.63,0,0,1,2.5,18V2.26A1.76,1.76,0,0,1,4.26.5Z" style="fill: none; stroke: #000; stroke-miterlimit: 10;"/><ellipse class="cls-busfront2" cx="6.2" cy="15.89" rx="1.38" ry="1.45" style="fill: none; stroke: #000; stroke-miterlimit: 10;"/><path class="cls-busfront2" d="M7.35,19.28v2.25a1.07,1.07,0,0,1-1.15,1h0a1.07,1.07,0,0,1-1.15-1V19.28" style="fill: none; stroke: #000; stroke-miterlimit: 10;"/><ellipse class="cls-busfront2" cx="18.8" cy="15.89" rx="1.38" ry="1.45" style="fill: none; stroke: #000; stroke-miterlimit: 10;"/><path class="cls-busfront2" d="M19.94,19.28v2.25a1.07,1.07,0,0,1-1.15,1h0a1.07,1.07,0,0,1-1.15-1V19.28" style="fill: none; stroke: #000; stroke-miterlimit: 10;"/><rect class="cls-busfront2" x="4.71" y="3.69" width="15.58" height="7.5" rx="0.92" ry="0.92" style="fill: none; stroke: #000; stroke-miterlimit: 10;"/><path class="cls-busfront2" d="M23,5h1c.28,0,.5.45.5,1V8c0,.55-.22,1-.5,1H23" style="fill: none; stroke: #000; stroke-miterlimit: 10;"/><path class="cls-busfront2" d="M2,5H1C.72,5,.5,5.48.5,6V8c0,.55.22,1,.5,1H2" style="fill: none; stroke: #000; stroke-miterlimit: 10;"/><rect class="cls-busfront3" x="9.5" y="14.49" width="6" height="2.92" rx="1" ry="1" style="fill: #009688;"/></g></g></svg>
