<?xml version="1.0" encoding="UTF-8"?>
<svg width="24px" height="24px" viewBox="0 0 24 24" version="1.1" xmlns="http://www.w3.org/2000/svg" xmlns:xlink="http://www.w3.org/1999/xlink">
    <!-- Generator: Sketch 52.2 (67145) - http://www.bohemiancoding.com/sketch -->
    <title>Icon/Business Centre</title>
    <desc>Created with Sketch.</desc>
    <defs>
        <polygon id="path-1" points="0.0005 0.4821 22 0.4821 22 15 0.0005 15"></polygon>
    </defs>
    <g id="Icon/Business-Centre" stroke="none" stroke-width="1" fill="none" fill-rule="evenodd">
        <g id="Group-12" transform="translate(1.000000, 2.000000)">
            <g id="Group-3" transform="translate(0.000000, 4.301100)">
                <mask id="mask-2" fill="white">
                    <use xlink:href="#path-1"></use>
                </mask>
                <g id="Clip-2"></g>
                <path d="M1.2715,1.5301 C1.1475,1.5301 1.0475,1.6321 1.0475,1.7561 L1.0475,13.7281 C1.0475,13.8521 1.1475,13.9521 1.2715,13.9521 L20.7275,13.9521 C20.8515,13.9521 20.9525,13.8521 20.9525,13.7281 L20.9525,1.7561 C20.9525,1.6321 20.8515,1.5301 20.7275,1.5301 L1.2715,1.5301 Z M20.7275,15.0001 L1.2715,15.0001 C0.5715,15.0001 0.0005,14.4291 0.0005,13.7281 L0.0005,1.7561 C0.0005,1.0531 0.5715,0.4821 1.2715,0.4821 L20.7275,0.4821 C21.4285,0.4821 22.0005,1.0531 22.0005,1.7561 L22.0005,13.7281 C22.0005,14.4291 21.4285,15.0001 20.7275,15.0001 Z" id="Fill-1" fill="#000000" mask="url(#mask-2)"></path>
            </g>
            <path d="M15.0264,2.7687 L6.9734,2.7687 L6.9734,1.1797 C6.9734,0.8177 7.2664,0.5237 7.6294,0.5237 L14.3704,0.5237 C14.7324,0.5237 15.0264,0.8177 15.0264,1.1797 L15.0264,2.7687 Z" id="Fill-4" fill="#009688"></path>
            <path d="M7.4971,2.2443 L14.5021,2.2443 L14.5021,1.1803 C14.5021,1.1063 14.4421,1.0483 14.3701,1.0483 L7.6291,1.0483 C7.5571,1.0483 7.4971,1.1063 7.4971,1.1803 L7.4971,2.2443 Z M15.0251,3.2923 L6.9741,3.2923 C6.6841,3.2923 6.4491,3.0573 6.4491,2.7683 L6.4491,1.1803 C6.4491,0.5283 6.9781,0.0003 7.6291,0.0003 L14.3701,0.0003 C15.0201,0.0003 15.5501,0.5283 15.5501,1.1803 L15.5501,2.7683 C15.5501,3.0573 15.3151,3.2923 15.0251,3.2923 Z" id="Fill-6" fill="#000000"></path>
            <path d="M15.0176,5.8312 C14.7286,5.8312 14.4946,5.5972 14.4946,5.3082 L14.4946,2.7412 C14.4946,2.4522 14.7286,2.2182 15.0176,2.2182 C15.3066,2.2182 15.5406,2.4522 15.5406,2.7412 L15.5406,5.3082 C15.5406,5.5972 15.3066,5.8312 15.0176,5.8312" id="Fill-8" fill="#000000"></path>
            <path d="M6.9736,5.8312 C6.6836,5.8312 6.4496,5.5972 6.4496,5.3082 L6.4496,2.7412 C6.4496,2.4522 6.6836,2.2182 6.9736,2.2182 C7.2626,2.2182 7.4966,2.4522 7.4966,2.7412 L7.4966,5.3082 C7.4966,5.5972 7.2626,5.8312 6.9736,5.8312" id="Fill-10" fill="#000000"></path>
        </g>
    </g>
</svg>