<svg xmlns="http://www.w3.org/2000/svg" viewBox="0 0 26.08 23"><defs/><title>Cab_icon</title><g id="Layer_2"><g id="Cab"><line class="cls-cabicon21" x1="18.29" y1="7.48" x2="20.04" y2="4.49" style="fill: none; stroke: #b2b2b2; stroke-linecap: round; stroke-linejoin: round;"/><line class="cls-cabicon21" x1="7.29" y1="7.48" x2="9.04" y2="4.49" style="fill: none; stroke: #b2b2b2; stroke-linecap: round; stroke-linejoin: round;"/><path class="cls-cabicon22" d="M3,7.48l.55-5.17A2.16,2.16,0,0,1,5.71.5H20.37a2.16,2.16,0,0,1,2.12,1.81L23,7.48" style="fill: none; stroke: #b2b2b2; stroke-miterlimit: 10;"/><path class="cls-cabicon23" d="M24.58,18.69H1.5a1,1,0,0,1-1-1V11.51a4,4,0,0,1,1.37-3L3,7.48H23l1.21,1.08a4,4,0,0,1,1.33,3v6.15A1,1,0,0,1,24.58,18.69Z" style="fill: none; stroke-linecap: round; stroke-linejoin: round; stroke: #b2b2b2;"/><ellipse class="cls-cabicon22" cx="3.82" cy="14.19" rx="1.83" ry="1.92" style="fill: none; stroke: #b2b2b2; stroke-miterlimit: 10;"/><ellipse class="cls-cabicon22" cx="22.26" cy="14.19" rx="1.83" ry="1.92" style="fill: none; stroke: #b2b2b2; stroke-miterlimit: 10;"/><path class="cls-cabicon22" d="M6.08,18.68v2.2A1.57,1.57,0,0,1,4.56,22.5h0A1.57,1.57,0,0,1,3,20.88v-2.2" style="fill: none; stroke: #b2b2b2; stroke-miterlimit: 10;"/><path class="cls-cabicon22" d="M22.73,18.68v2.2a1.57,1.57,0,0,1-1.52,1.62h0a1.57,1.57,0,0,1-1.52-1.62v-2.2" style="fill: none; stroke: #b2b2b2; stroke-miterlimit: 10;"/><line class="cls-cabicon23" x1="25.03" y1="10.49" x2="1.03" y2="10.49" style="fill: none; stroke-linecap: round; stroke-linejoin: round; stroke: #b2b2b2;"/><rect class="cls-cabicon24" x="8.04" y="12.57" width="10" height="3.85" rx="1" ry="1" style="fill: #b2b2b2;"/></g></g></svg>
