<?xml version="1.0" encoding="UTF-8"?>
<svg width="48px" height="43px" viewBox="0 0 48 43" version="1.1" xmlns="http://www.w3.org/2000/svg" xmlns:xlink="http://www.w3.org/1999/xlink">
    <!-- Generator: Sketch 54.1 (76490) - https://sketchapp.com -->
    <title>Group 20</title>
    <desc>Created with Sketch.</desc>
    <g id="Page-3" stroke="none" stroke-width="1" fill="none" fill-rule="evenodd">
        <g id="4-copy" transform="translate(-81.000000, -265.000000)">
            <g id="Group-2" transform="translate(32.000000, 74.000000)">
                <g id="Group-6" transform="translate(37.000000, 176.000000)">
                    <g id="icon/Cab" transform="translate(12.000000, 12.000000)">
                        <g id="Group-20" transform="translate(0.000000, 3.000000)">
                            <path d="M33.7668923,13.8114462 L36.9976615,8.29329231" id="Stroke-1" stroke="#009688" stroke-linecap="round" stroke-linejoin="round"></path>
                            <path d="M13.4592,13.8114462 L16.6899692,8.29329231" id="Stroke-2" stroke="#009688" stroke-linecap="round" stroke-linejoin="round"></path>
                            <g id="Group-19">
                                <path d="M5.61304615,13.8114462 L6.62104615,4.27052308 C6.94043077,2.33944615 8.60012308,0.923446154 10.5422769,0.923446154 L37.6050462,0.923446154 C39.5490462,0.923446154 41.2087385,2.33944615 41.5281231,4.27052308 L42.5361231,13.8114462" id="Stroke-3" stroke="#000000" fill="#FFFFFF"></path>
                                <path d="M11.2316308,34.4861538 L11.2316308,38.5532308 C11.2316308,40.2018462 9.97255385,41.5384615 8.42178462,41.5384615 C6.87101538,41.5384615 5.61378462,40.2018462 5.61378462,38.5532308 L5.61378462,34.4861538" id="Stroke-11" stroke="#000000" fill="#FFFFFF"></path>
                                <path d="M41.9682462,34.4861538 L41.9682462,38.5532308 C41.9682462,40.2018462 40.7091692,41.5384615 39.1584,41.5384615 C37.6076308,41.5384615 36.3504,40.2018462 36.3504,38.5532308 L36.3504,34.4861538" id="Stroke-13" stroke="#000000" fill="#FFFFFF"></path>
                                <path d="M45.3792,34.5077538 L2.76812308,34.5077538 C1.74904615,34.5077538 0.921969231,33.6806769 0.921969231,32.6616 L0.921969231,21.2560615 C0.921969231,19.1200615 1.84873846,17.0874462 3.46043077,15.6843692 L5.61304615,13.8123692 L42.5361231,13.8123692 L44.7644308,15.8043692 C46.3299692,17.2056 47.2253538,19.2068308 47.2253538,21.3096 L47.2253538,32.6616 C47.2253538,33.6806769 46.3982769,34.5077538 45.3792,34.5077538 Z" id="Stroke-5" stroke="#000000" fill="#FFFFFF" stroke-linecap="round" stroke-linejoin="round"></path>
                                <path d="M10.4276308,26.2000615 C10.4276308,28.1569846 8.91932308,29.7428308 7.05655385,29.7428308 C5.19563077,29.7428308 3.68547692,28.1569846 3.68547692,26.2000615 C3.68547692,24.2431385 5.19563077,22.6572923 7.05655385,22.6572923 C8.91932308,22.6572923 10.4276308,24.2431385 10.4276308,26.2000615 Z" id="Stroke-7" stroke="#000000"></path>
                                <path d="M44.4705231,26.2000615 C44.4705231,28.1569846 42.9622154,29.7428308 41.0994462,29.7428308 C39.2385231,29.7428308 37.7283692,28.1569846 37.7283692,26.2000615 C37.7283692,24.2431385 39.2385231,22.6572923 41.0994462,22.6572923 C42.9622154,22.6572923 44.4705231,24.2431385 44.4705231,26.2000615 Z" id="Stroke-9" stroke="#000000"></path>
                                <path d="M46.2149538,19.3707692 L1.90726154,19.3707692" id="Stroke-15" stroke="#000000" stroke-linecap="round" stroke-linejoin="round"></path>
                                <path d="M31.4592,30.3060923 L16.6899692,30.3060923 C15.6708923,30.3060923 14.8438154,29.4790154 14.8438154,28.4599385 L14.8438154,25.0519385 C14.8438154,24.0328615 15.6708923,23.2057846 16.6899692,23.2057846 L31.4592,23.2057846 C32.4782769,23.2057846 33.3053538,24.0328615 33.3053538,25.0519385 L33.3053538,28.4599385 C33.3053538,29.4790154 32.4782769,30.3060923 31.4592,30.3060923" id="Fill-17" fill="#009688"></path>
                            </g>
                        </g>
                    </g>
                </g>
            </g>
        </g>
    </g>
</svg>