<svg xmlns="http://www.w3.org/2000/svg" viewBox="0 0 29 18.13"><defs/><title>Cab_Transfer_icon</title><g id="Layer_2"><g id="Cab_Transfer"><rect class="cls-cabtransfer1" x="0.5" y="9.94" width="28" height="1" style="fill: #009688;"/><path class="cls-cabtransfer2" d="M4.5,15.09h-3a1,1,0,0,1-1-1V9.94a2,2,0,0,1,2-2h24a2,2,0,0,1,2,2v4.15a1,1,0,0,1-1,1H24.4" style="fill: none; stroke: #000; stroke-miterlimit: 10;"/><line class="cls-cabtransfer2" x1="18.64" y1="15.09" x2="10.27" y2="15.09" style="fill: none; stroke: #000; stroke-miterlimit: 10;"/><path class="cls-cabtransfer2" d="M24.5,7.94H4.5L7.26,2.77a1.06,1.06,0,0,1,.94-.45H20.8a1.06,1.06,0,0,1,.94.45Z" style="fill: none; stroke: #000; stroke-miterlimit: 10;"/><line class="cls-cabtransfer2" x1="11.35" y1="2.32" x2="11.35" y2="7.94" style="fill: none; stroke: #000; stroke-miterlimit: 10;"/><line class="cls-cabtransfer2" x1="17.73" y1="2.32" x2="17.73" y2="7.94" style="fill: none; stroke: #000; stroke-miterlimit: 10;"/><line class="cls-cabtransfer3" x1="8.66" y1="0.5" x2="8.66" y2="2.32" style="fill: none; stroke: #000; stroke-linecap: round; stroke-linejoin: round;"/><circle class="cls-cabtransfer2" cx="7.54" cy="14.75" r="2.88" style="fill: none; stroke: #000; stroke-miterlimit: 10;"/><circle cx="7.54" cy="14.75" r="0.5"/><circle class="cls-cabtransfer2" cx="21.54" cy="14.75" r="2.88" style="fill: none; stroke: #000; stroke-miterlimit: 10;"/><circle cx="21.54" cy="14.75" r="0.5"/></g></g></svg>
