<svg xmlns="http://www.w3.org/2000/svg" viewBox="0 0 25 19.88"><defs/><title>Cake</title><g id="Layer_2" data-name="Layer 2"><g id="Cake"><path class="cls-cake1" d="M3.67,3.33H21.5a1,1,0,0,1,1,1V7.19a0,0,0,0,1,0,0H2.67a0,0,0,0,1,0,0V4.33A1,1,0,0,1,3.67,3.33Z" style="fill: #009688;"/><path class="cls-cake1" d="M1.67,11.13H23.5a1,1,0,0,1,1,1V15a0,0,0,0,1,0,0H.67a0,0,0,0,1,0,0V12.13A1,1,0,0,1,1.67,11.13Z" style="fill: #009688;"/><line class="cls-cake2" x1="7.05" y1="3.25" x2="7.05" y2="0.5" style="fill: none; stroke: #000; stroke-linecap: round; stroke-linejoin: round;"/><line class="cls-cake2" x1="18.61" y1="3.25" x2="18.61" y2="0.5" style="fill: none; stroke: #000; stroke-linecap: round; stroke-linejoin: round;"/><path class="cls-cake2" d="M1.5,11.13h22a1,1,0,0,1,1,1v7.26a0,0,0,0,1,0,0H.5a0,0,0,0,1,0,0V12.13A1,1,0,0,1,1.5,11.13Z" style="fill: none; stroke: #000; stroke-linecap: round; stroke-linejoin: round;"/><path class="cls-cake2" d="M3.5,3.25h18a1,1,0,0,1,1,1v6.88a0,0,0,0,1,0,0H2.5a0,0,0,0,1,0,0V4.25A1,1,0,0,1,3.5,3.25Z" style="fill: none; stroke: #000; stroke-linecap: round; stroke-linejoin: round;"/><line class="cls-cake2" x1="24.5" y1="15.25" x2="0.5" y2="15.25" style="fill: none; stroke: #000; stroke-linecap: round; stroke-linejoin: round;"/><line class="cls-cake2" x1="22.5" y1="7.19" x2="2.5" y2="7.19" style="fill: none; stroke: #000; stroke-linecap: round; stroke-linejoin: round;"/></g></g></svg>
