<?xml version="1.0" encoding="UTF-8" standalone="no"?>
<svg width="22px" height="22px" viewBox="0 0 22 22" version="1.1" xmlns="http://www.w3.org/2000/svg" xmlns:xlink="http://www.w3.org/1999/xlink">
    <!-- Generator: Sketch 46 (44423) - http://www.bohemiancoding.com/sketch -->
    <desc>Created with Sketch.</desc>
    <defs/>
    <g id="Page-1" stroke="none" stroke-width="1" fill="none" fill-rule="evenodd">
        <g id="QuoteDetail_Basic" transform="translate(-1128.000000, -618.000000)">
            <g id="Chat" transform="translate(808.000000, 601.000000)">
                <g id="header">
                    <g id="CallUs" transform="translate(319.000000, 16.000000)">
                        <rect id="Rectangle-10" x="0" y="0" width="24" height="24"/>
                        <g id="PhoneIcon" transform="translate(2.000000, 2.000000)">
                            <path d="M2.33215385,2.36323077 C2.33215385,2.36323077 4.41369231,0.502461538 5.596,1.68553846 L8.18292308,4.29476923 C8.18292308,4.29476923 8.966,5.88707692 7.92753846,6.93015385 L6.88984615,7.97246154 L2.33215385,2.36323077 Z" id="Fill-1" fill="#3E3E3E"/>
                            <path d="M12.1931538,13.3353077 C12.1931538,13.3353077 14.1554615,10.7076154 15.3377692,11.8906923 L19.0616154,15.2468462 C19.0616154,15.2468462 19.6285385,16.1806923 18.5900769,17.223 L17.5516154,18.2660769 L12.1931538,13.3353077 Z" id="Fill-3" fill="#3E3E3E"/>
                            <path d="M6.65453846,8.64553846 C6.613,8.39861538 6.70992308,8.14630769 6.88992308,7.97246154 C7.12607692,7.744 7.35223077,7.51246154 7.57453846,7.28707692 C7.69223077,7.17015385 7.80992308,7.04784615 7.92761538,6.93015385 C8.81146154,6.04630769 8.81146154,4.90092308 7.92761538,4.01707692 L6.77915385,2.86784615 C6.64838462,2.73707692 6.51376923,2.60323077 6.38684615,2.46784615 C6.13453846,2.20707692 5.86915385,1.93784615 5.59607692,1.68553846 L5.54376923,1.63092308 C5.00223077,1.06630769 4.12376923,0.998615385 3.50146154,1.47246154 L1.31530769,3.13707692 C0.776076923,3.67630769 0.469153846,4.33323077 0.402230769,5.09476923 C0.300692308,6.32323077 0.663,7.46861538 0.940692308,8.21784615 C1.62223077,10.0570769 2.64146154,11.7616923 4.16069231,13.5886154 C6.00453846,15.7901538 8.22223077,17.5278462 10.7568462,18.7532308 C11.7245385,19.2116923 13.0168462,19.7547692 14.4599231,19.8478462 C14.5483846,19.8516923 14.6414615,19.8555385 14.7253077,19.8555385 C15.6976154,19.8555385 16.5145385,19.5063077 17.1537692,18.8116923 L18.7622308,16.9186154 C19.2714615,16.3193846 19.2468462,15.4332308 18.7053077,14.8632308 L18.4422308,14.5863077 L16.1314615,12.2670769 C15.723,11.8416923 15.2306923,11.614 14.7083846,11.614 C14.1906923,11.614 13.6945385,11.8370769 13.2691538,12.2624615 L12.193,13.3355385 C12.0222308,13.5063077 11.7837692,13.5847692 11.5437692,13.5532308 C10.433,13.404 7.31684615,12.6316923 6.65453846,8.64553846 Z" id="Stroke-5" fill="#FFFFFF" stroke="#FFFFFF" stroke-linecap="round" stroke-linejoin="round"/>
                            <path d="M16.2154615,9.53084615 C16.2154615,9.53084615 15.6946923,4.47469231 10.6885385,4.00007692" id="Stroke-7" stroke="#FFFFFF" stroke-linecap="round"/>
                            <path d="M19.8268462,9.35846154 C19.8268462,9.35846154 19.5399231,1.92307692 10.8491538,0.384615385" id="Stroke-9" stroke="#FFFFFF" stroke-linecap="round"/>
                            <path d="M6.88969231,7.97246154 L2.332,2.36323077" id="Stroke-11" stroke="#FFFFFF" stroke-linecap="round" stroke-linejoin="round"/>
                            <path d="M12.1931538,13.3353077 L17.6185385,18.2660769" id="Stroke-13" stroke="#FFFFFF" stroke-linecap="round" stroke-linejoin="round"/>
                        </g>
                    </g>
                </g>
            </g>
        </g>
    </g>
</svg>
