<?xml version="1.0" encoding="UTF-8"?>
<svg width="22px" height="21px" viewBox="0 0 22 21" version="1.1" xmlns="http://www.w3.org/2000/svg" xmlns:xlink="http://www.w3.org/1999/xlink">
    <!-- Generator: Sketch 43.1 (39012) - http://www.bohemiancoding.com/sketch -->
    <title>icons/CallBack_icon</title>
    <desc>Created with Sketch.</desc>
    <defs/>
    <g id="Welcome" stroke="none" stroke-width="1" fill="none" fill-rule="evenodd">
        <g id="fab_menu" transform="translate(-317.000000, -521.000000)">
            <g id="Fab_menu">
                <g id="Design_pack-Copy-3" transform="translate(151.000000, 508.000000)">
                    <g id="Icon" transform="translate(153.000000, 0.000000)">
                        <g id="icons/CallBack_icon" transform="translate(12.000000, 12.000000)">
                            <rect id="Rectangle-10" x="0" y="0" width="24" height="24"/>
                            <g id="Page-1" transform="translate(2.000000, 2.000000)">
                                <path d="M3.10351724,11.3791724 L3.10351724,7.24124138 C3.10351724,3.43296552 6.19110345,0.344689655 10.000069,0.344689655 C13.8090345,0.344689655 16.8966207,3.43296552 16.8966207,7.24124138 L16.8966207,14.1377931 C16.8966207,16.4233103 15.0435172,18.2757241 12.7586897,18.2757241 L12.4766207,18.2757241" id="Stroke-1" stroke="#000000"/>
                                <path d="M3.10351724,13.9172414 L1.7242069,13.9172414 C0.962827586,13.9172414 0.344896552,13.2993103 0.344896552,12.537931 L0.344896552,11.1586207 C0.344896552,10.3965517 0.962827586,9.77931034 1.7242069,9.77931034 L3.10351724,9.77931034 L3.10351724,13.9172414 Z" id="Fill-3" fill="#009688"/>
                                <path d="M3.10351724,13.9172414 L1.7242069,13.9172414 C0.962827586,13.9172414 0.344896552,13.2993103 0.344896552,12.537931 L0.344896552,11.1586207 C0.344896552,10.3965517 0.962827586,9.77931034 1.7242069,9.77931034 L3.10351724,9.77931034 L3.10351724,13.9172414 Z" id="Stroke-5" stroke="#000000" stroke-linecap="round" stroke-linejoin="round"/>
                                <path d="M16.8966207,13.9172414 L18.275931,13.9172414 C19.0373103,13.9172414 19.6552414,13.2993103 19.6552414,12.537931 L19.6552414,11.1586207 C19.6552414,10.3965517 19.0373103,9.77931034 18.275931,9.77931034 L16.8966207,9.77931034 L16.8966207,13.9172414 Z" id="Fill-7" fill="#009688"/>
                                <path d="M16.8966207,13.9172414 L18.275931,13.9172414 C19.0373103,13.9172414 19.6552414,13.2993103 19.6552414,12.537931 L19.6552414,11.1586207 C19.6552414,10.3965517 19.0373103,9.77931034 18.275931,9.77931034 L16.8966207,9.77931034 L16.8966207,13.9172414 Z" id="Stroke-9" stroke="#000000" stroke-linecap="round" stroke-linejoin="round"/>
                                <path d="M11.7868276,18.9653793 L9.0282069,18.9653793 C8.64751724,18.9653793 8.33855172,18.6564138 8.33855172,18.2757241 C8.33855172,17.8950345 8.64751724,17.586069 9.0282069,17.586069 L11.7868276,17.586069 C12.1675172,17.586069 12.4764828,17.8950345 12.4764828,18.2757241 C12.4764828,18.6564138 12.1675172,18.9653793 11.7868276,18.9653793 Z" id="Stroke-11" stroke="#000000"/>
                            </g>
                        </g>
                    </g>
                </g>
            </g>
        </g>
    </g>
</svg>
