<svg xmlns="http://www.w3.org/2000/svg" viewBox="0 0 25.11 20"><defs/><title>Camera_icon</title><g id="Layer_2"><g id="Camera"><path class="cls-camera1" d="M22.5,3.48H18.72a.87.87,0,0,1-.84-.61A3.27,3.27,0,0,0,14.76.5H10.24A3.27,3.27,0,0,0,7.12,2.88a.87.87,0,0,1-.84.61H2.61A2.13,2.13,0,0,0,.5,5.63V17.35A2.13,2.13,0,0,0,2.61,19.5H22.5a2.13,2.13,0,0,0,2.11-2.15V5.63A2.13,2.13,0,0,0,22.5,3.48Z" style="fill: none; stroke-miterlimit: 10; stroke: #000;"/><path class="cls-camera2" d="M12.5,4.73a5.93,5.93,0,0,0-5.87,6,5.87,5.87,0,1,0,11.75,0A5.93,5.93,0,0,0,12.5,4.73Zm0,9.45a3.46,3.46,0,1,1,3.4-3.46A3.43,3.43,0,0,1,12.5,14.18Z" style="stroke: #000; fill: #009688; stroke-linecap: round; stroke-linejoin: round;"/></g></g></svg>
