<?xml version="1.0" encoding="UTF-8"?>
<svg width="18px" height="14px" viewBox="0 0 18 14" version="1.1" xmlns="http://www.w3.org/2000/svg" xmlns:xlink="http://www.w3.org/1999/xlink">
    <!-- Generator: Sketch 55.2 (78181) - https://sketchapp.com -->
    <title>mdpi/Group 15</title>
    <desc>Created with Sketch.</desc>
    <defs>
        <polygon id="path-1" points="0.000142565908 0.675952381 12.277705 0.675952381 12.277705 12.952381 0.000142565908 12.952381"></polygon>
    </defs>
    <g id="RLP-Mweb" stroke="none" stroke-width="1" fill="none" fill-rule="evenodd">
        <g id="Quotes-Received" transform="translate(-81.000000, -281.000000)">
            <g id="Group-22" transform="translate(24.000000, 280.000000)">
                <g id="Message" transform="translate(57.000000, 0.000000)">
                    <g id="Group-15" transform="translate(0.000000, 1.000000)">
                        <path d="M15.8873905,11.231981 C16.4322,10.4985524 16.7082476,9.55302857 16.5512,8.53788571 C16.314819,7.00788571 15.0754381,5.77821905 13.5422,5.55964762 C12.9018667,5.46817143 12.2898667,5.55155238 11.7410095,5.76121905 C11.8470571,6.26555238 11.8956286,6.79174286 11.8600095,7.33574286 C11.7620571,8.82040952 11.078819,10.1286 10.0531524,11.0806 C10.721819,12.0520286 11.8632476,12.6818381 13.1180095,12.6818381 L16.5949448,12.6818381 C15.3352952,11.8941714 15.8873905,11.231981 15.8873905,11.231981" id="Fill-1" stroke="#B2B2B2" stroke-width="0.85" stroke-linejoin="round"></path>
                        <g id="Group-8" transform="translate(0.000000, 0.133895)">
                            <mask id="mask-2" fill="white">
                                <use xlink:href="#path-1"></use>
                            </mask>
                            <g id="Clip-7"></g>
                            <path d="M1.7460619,12.1428571 L5.97501429,12.1428571 C8.86501429,12.1428571 11.2725381,9.96038095 11.4563,7.17480952 C11.5623476,5.55819048 10.944681,4.00147619 9.76034762,2.9037619 C8.57682381,1.80604762 6.9683,1.309 5.35249048,1.54052381 C3.06882381,1.86595238 1.22715714,3.689 0.874204762,5.97266667 C0.653204762,7.40390476 1.0045381,8.82866667 1.86344286,9.98385714 C1.9023,10.045381 2.3410619,10.7771905 2.06501429,11.5834762 C1.99458571,11.7866667 1.8885381,11.9728571 1.7460619,12.1428571 M5.97501429,12.952381 L0.404680952,12.952381 C0.209585714,12.952381 0.0420142857,12.8123333 0.0072047619,12.6204762 C-0.0284142857,12.4278095 0.079252381,12.2375714 0.262204762,12.1687619 C0.827252381,11.9558571 1.1745381,11.6725238 1.29677619,11.3268571 C1.45220476,10.8840476 1.19396667,10.4388095 1.1915381,10.4347619 C0.224966667,9.13628571 -0.179795238,7.49619048 0.0743952381,5.84961905 C0.481585714,3.2162381 2.60415714,1.11390476 5.2375381,0.739095238 C7.09782381,0.474380952 8.94677619,1.04590476 10.3108238,2.31038095 C11.6740619,3.57404762 12.3864429,5.36633333 12.2642048,7.2282381 C12.0521095,10.438 9.29001429,12.952381 5.97501429,12.952381" id="Fill-6" fill="#B2B2B2" mask="url(#mask-2)"></path>
                        </g>
                        <path d="M8.42382381,7.29389048 C8.42382381,7.57317619 8.65049048,7.79984286 8.92977619,7.79984286 C9.2090619,7.79984286 9.43572857,7.57317619 9.43572857,7.29389048 C9.43572857,7.01460476 9.2090619,6.7879381 8.92977619,6.7879381 C8.65049048,6.7879381 8.42382381,7.01460476 8.42382381,7.29389048" id="Fill-9" fill="#B2B2B2"></path>
                        <path d="M5.29679524,7.29389048 C5.29679524,7.57317619 5.5234619,7.79984286 5.80274762,7.79984286 C6.08203333,7.79984286 6.3087,7.57317619 6.3087,7.29389048 C6.3087,7.01460476 6.08203333,6.7879381 5.80274762,6.7879381 C5.5234619,6.7879381 5.29679524,7.01460476 5.29679524,7.29389048" id="Fill-11" fill="#B2B2B2"></path>
                        <path d="M2.1693619,7.29389048 C2.1693619,7.57317619 2.39602857,7.79984286 2.67531429,7.79984286 C2.9546,7.79984286 3.18126667,7.57317619 3.18126667,7.29389048 C3.18126667,7.01460476 2.9546,6.7879381 2.67531429,6.7879381 C2.39602857,6.7879381 2.1693619,7.01460476 2.1693619,7.29389048" id="Fill-13" fill="#B2B2B2"></path>
                    </g>
                </g>
            </g>
        </g>
    </g>
</svg>