<?xml version="1.0" encoding="UTF-8"?>
<svg width="22px" height="16px" viewBox="0 0 22 16" version="1.1" xmlns="http://www.w3.org/2000/svg" xmlns:xlink="http://www.w3.org/1999/xlink">
    <!-- Generator: Sketch 43.1 (39012) - http://www.bohemiancoding.com/sketch -->
    <title>icons/Chat_icon</title>
    <desc>Created with Sketch.</desc>
    <defs/>
    <g id="Welcome" stroke="none" stroke-width="1" fill="none" fill-rule="evenodd">
        <g id="fab_menu" transform="translate(-317.000000, -392.000000)">
            <g id="Fab_menu">
                <g id="Design_pack-Copy" transform="translate(209.000000, 376.000000)">
                    <g id="Icon" transform="translate(95.000000, 0.000000)">
                        <g id="icons/Chat_icon" transform="translate(12.000000, 12.000000)">
                            <rect id="Rectangle-10" x="0" y="0" width="24" height="24"/>
                            <g id="Page-1" transform="translate(2.000000, 5.000000)">
                                <path d="M18.97,12.3967586 C19.6258621,11.5146897 19.9575862,10.3774483 19.7693103,9.15606897 C19.4851724,7.31468966 17.9934483,5.83606897 16.1486207,5.57331034 C15.3782759,5.46296552 14.6424138,5.56365517 13.9824138,5.81606897 C14.11,6.42227586 14.167931,7.05468966 14.1251724,7.70917241 C14.007931,9.49606897 13.1858621,11.0698621 11.9513793,12.2146897 C12.7562069,13.3836552 14.1286207,14.1402069 15.6382759,14.1402069 L19.8210345,14.1402069 C18.3058621,13.194 18.97,12.3967586 18.97,12.3967586" id="Fill-1" fill="#009688"/>
                                <path d="M18.97,12.3967586 C19.6258621,11.5146897 19.9575862,10.3774483 19.7693103,9.15606897 C19.4851724,7.31468966 17.9934483,5.83606897 16.1486207,5.57331034 C15.3782759,5.46296552 14.6424138,5.56365517 13.9824138,5.81606897 C14.11,6.42227586 14.167931,7.05468966 14.1251724,7.70917241 C14.007931,9.49606897 13.1858621,11.0698621 11.9513793,12.2146897 C12.7562069,13.3836552 14.1286207,14.1402069 15.6382759,14.1402069 L19.8210345,14.1402069 C18.3058621,13.194 18.97,12.3967586 18.97,12.3967586 Z" id="Stroke-3" stroke="#000000" stroke-linecap="round" stroke-linejoin="round"/>
                                <path d="M0.344896552,14.1404138 L7.04558621,14.1404138 C10.7090345,14.1404138 13.8842069,11.3652414 14.1248966,7.70937931 C14.4117931,3.35006897 10.6469655,-0.212689655 6.22765517,0.417655172 C3.27317241,0.838344828 0.884206897,3.20731034 0.429034483,6.15696552 C0.126965517,8.11282759 0.658689655,9.9342069 1.70834483,11.3473103 C1.70834483,11.3473103 2.84213793,13.1997241 0.344896552,14.1404138 Z" id="Stroke-5" stroke="#000000" stroke-linecap="round" stroke-linejoin="round"/>
                                <path d="M9.992,7.65944828 C9.992,7.99531034 10.2644138,8.26772414 10.6002759,8.26772414 C10.9368276,8.26772414 11.2092414,7.99531034 11.2092414,7.65944828 C11.2092414,7.32358621 10.9368276,7.05117241 10.6002759,7.05117241 C10.2644138,7.05117241 9.992,7.32358621 9.992,7.65944828" id="Fill-7" fill="#009688"/>
                                <path d="M6.22986207,7.65944828 C6.22986207,7.99531034 6.50227586,8.26772414 6.83813793,8.26772414 C7.17468966,8.26772414 7.44710345,7.99531034 7.44710345,7.65944828 C7.44710345,7.32358621 7.17468966,7.05117241 6.83813793,7.05117241 C6.50227586,7.05117241 6.22986207,7.32358621 6.22986207,7.65944828" id="Fill-9" fill="#009688"/>
                                <path d="M2.46806897,7.65944828 C2.46806897,7.99531034 2.74048276,8.26772414 3.07634483,8.26772414 C3.41289655,8.26772414 3.68531034,7.99531034 3.68531034,7.65944828 C3.68531034,7.32358621 3.41289655,7.05117241 3.07634483,7.05117241 C2.74048276,7.05117241 2.46806897,7.32358621 2.46806897,7.65944828" id="Fill-11" fill="#009688"/>
                            </g>
                        </g>
                    </g>
                </g>
            </g>
        </g>
    </g>
</svg>
