<?xml version="1.0" encoding="UTF-8"?>
<svg width="24px" height="24px" viewBox="0 0 24 24" version="1.1" xmlns="http://www.w3.org/2000/svg" xmlns:xlink="http://www.w3.org/1999/xlink">
    <!-- Generator: Sketch 52.2 (67145) - http://www.bohemiancoding.com/sketch -->
    <title>Icon/Child Friendly</title>
    <desc>Created with Sketch.</desc>
    <defs>
        <polygon id="path-1" points="0.834184632 0.823 6.35273493 0.823 6.35273493 8.1465 0.834184632 8.1465"></polygon>
        <polygon id="path-3" points="0.392 0.8263 17.608 0.8263 17.608 19 0.392 19"></polygon>
        <polygon id="path-5" points="0 0.9561 3.4356 0.9561 3.4356 5.7391 0 5.7391"></polygon>
    </defs>
    <g id="Icon/Child-Friendly" stroke="none" stroke-width="1" fill="none" fill-rule="evenodd">
        <g id="Group-22" transform="translate(1.000000, 2.000000)">
            <path d="M11,16.114 C9.971,16.114 9.047,15.599 8.647,14.804 C8.529,14.568 8.625,14.28 8.86,14.161 C9.094,14.044 9.383,14.137 9.503,14.375 C9.737,14.843 10.34,15.157 11,15.157 C11.661,15.157 12.262,14.843 12.496,14.375 C12.615,14.139 12.905,14.045 13.138,14.161 C13.374,14.28 13.47,14.567 13.353,14.803 C12.953,15.599 12.03,16.114 11,16.114" id="Fill-5" fill="#009587"></path>
            <path d="M7.6523,12.0036 C7.6523,12.5316 7.2233,12.9606 6.6953,12.9606 C6.1673,12.9606 5.7393,12.5316 5.7393,12.0036 C5.7393,11.4756 6.1673,11.0476 6.6953,11.0476 C7.2233,11.0476 7.6523,11.4756 7.6523,12.0036" id="Fill-7" fill="#009587"></path>
            <path d="M16.2607,12.0036 C16.2607,12.5316 15.8317,12.9606 15.3037,12.9606 C14.7757,12.9606 14.3477,12.5316 14.3477,12.0036 C14.3477,11.4756 14.7757,11.0476 15.3037,11.0476 C15.8317,11.0476 16.2607,11.4756 16.2607,12.0036" id="Fill-9" fill="#009587"></path>
            <g id="Group-13" transform="translate(8.000000, 0.177400)">
                <mask id="mask-2" fill="white">
                    <use xlink:href="#path-1"></use>
                </mask>
                <g id="Clip-12"></g>
                <path d="M3.2148,8.1465 C2.1538,8.1465 1.3148,7.5635 0.9478,6.5655 C0.6298,5.6925 0.9958,4.8075 1.8398,4.4105 C2.0768,4.2975 2.3638,4.4005 2.4758,4.6385 C2.5888,4.8775 2.4858,5.1635 2.2468,5.2755 C1.8458,5.4635 1.6958,5.8235 1.8478,6.2365 C2.1688,7.1125 2.9148,7.2125 3.3148,7.1875 C4.1188,7.1475 5.0878,6.5705 5.3168,5.6755 C5.7388,4.0245 4.3318,2.4715 2.8458,1.7285 C2.6098,1.6095 2.5148,1.3235 2.6318,1.0865 C2.7508,0.8515 3.0398,0.7545 3.2738,0.8735 C5.1528,1.8135 6.7998,3.7365 6.2428,5.9135 C5.9358,7.1175 4.6968,8.0755 3.3628,8.1425 C3.3128,8.1455 3.2638,8.1465 3.2148,8.1465" id="Fill-11" fill="#000000" mask="url(#mask-2)"></path>
            </g>
            <g id="Group-16" transform="translate(2.000000, 0.177400)">
                <mask id="mask-4" fill="white">
                    <use xlink:href="#path-3"></use>
                </mask>
                <g id="Clip-15"></g>
                <path d="M9,1.7823 C4.949,1.7823 1.592,4.9463 1.356,8.9843 C1.348,9.1363 1.348,9.2813 1.348,9.4343 L1.348,12.5053 C1.348,12.7143 1.355,12.9233 1.383,13.1223 C1.704,15.9313 4.069,18.0433 6.886,18.0433 L11.114,18.0433 C13.931,18.0433 16.295,15.9313 16.616,13.1303 C16.643,12.9243 16.652,12.7153 16.652,12.5053 L16.652,9.4343 C16.652,9.2823 16.652,9.1383 16.643,8.9863 C16.407,4.9463 13.05,1.7823 9,1.7823 M11.114,19.0003 L6.886,19.0003 C3.583,19.0003 0.809,16.5223 0.433,13.2383 C0.402,13.0073 0.392,12.7573 0.392,12.5053 L0.392,9.4343 C0.392,9.2623 0.392,9.1013 0.401,8.9293 C0.666,4.3853 4.443,0.8263 9,0.8263 C13.557,0.8263 17.333,4.3853 17.598,8.9283 C17.608,9.0993 17.608,9.2613 17.608,9.4343 L17.608,12.5053 C17.608,12.7563 17.598,13.0063 17.566,13.2453 C17.19,16.5223 14.416,19.0003 11.114,19.0003" id="Fill-14" fill="#000000" mask="url(#mask-4)"></path>
            </g>
            <g id="Group-19" transform="translate(0.000000, 8.177400)">
                <mask id="mask-6" fill="white">
                    <use xlink:href="#path-5"></use>
                </mask>
                <g id="Clip-18"></g>
                <path d="M2.3916,1.9131 C1.6006,1.9131 0.9556,2.5571 0.9556,3.3481 C0.9556,4.1391 1.6006,4.7821 2.3916,4.7821 L2.3956,4.7821 C2.3936,4.6901 2.3916,4.5981 2.3916,4.5051 L2.3916,1.9131 Z M2.3916,5.7391 C1.0726,5.7391 -0.0004,4.6671 -0.0004,3.3481 C-0.0004,2.0291 1.0726,0.9561 2.3916,0.9561 C2.6136,0.9561 2.8226,0.9861 3.0116,1.0451 L3.3476,1.1491 L3.3476,4.5051 C3.3476,4.7141 3.3556,4.9231 3.3826,5.1221 L3.4356,5.5261 L3.0446,5.6421 C2.8296,5.7061 2.6106,5.7391 2.3916,5.7391 Z" id="Fill-17" fill="#000000" mask="url(#mask-6)"></path>
            </g>
            <path d="M19.6035,12.9597 L19.6085,12.9597 C20.3995,12.9597 21.0435,12.3157 21.0435,11.5247 C21.0435,10.7337 20.3995,10.0907 19.6085,10.0907 L19.6085,12.6827 C19.6085,12.7747 19.6065,12.8677 19.6035,12.9597 M19.6085,13.9167 C19.3895,13.9167 19.1695,13.8837 18.9555,13.8197 L18.5665,13.7037 L18.6175,13.3007 C18.6425,13.1017 18.6525,12.8927 18.6525,12.6827 L18.6525,9.3277 L18.9875,9.2227 C19.1755,9.1637 19.3855,9.1337 19.6085,9.1337 C20.9275,9.1337 21.9995,10.2067 21.9995,11.5247 C21.9995,12.8447 20.9275,13.9167 19.6085,13.9167" id="Fill-20" fill="#000000"></path>
        </g>
    </g>
</svg>