<?xml version="1.0" encoding="utf-8"?>
<!-- Generator: Adobe Illustrator 22.1.0, SVG Export Plug-In . SVG Version: 6.00 Build 0)  -->
<svg version="1.1" id="Layer_1" xmlns="http://www.w3.org/2000/svg" xmlns:xlink="http://www.w3.org/1999/xlink" x="0px" y="0px"
	 viewBox="0 0 24 24" style="enable-background:new 0 0 24 24;" xml:space="preserve">
<style type="text/css">
	.st0{fill:none;stroke:#FFFFFF;stroke-linecap:round;stroke-linejoin:round;}
	.st1{fill:#FFFFFF;}
	.st2{fill:none;}
</style>
<title>Group 15</title>
<desc>Created with Sketch.</desc>
<g>
	<g id="Group-15" transform="translate(24.000000, 8.000000)">
		<g id="Page-1" transform="translate(1.000000, 2.000000)">
			<path id="Stroke-1" class="st0" d="M-13-7.1V11"/>
			<path id="Stroke-3" class="st0" d="M-20.7,11.1h15.4"/>
			<path id="Stroke-6" class="st0" d="M-3.9-6.9L-23.6-4"/>
			<path id="Fill-8" class="st1" d="M-9.1,1c0,1.9,1.5,3.4,3.4,3.4S-2.4,2.8-2.4,1H-9.1z"/>
			<path id="Stroke-10" class="st0" d="M-9.1,1c0,1.9,1.5,3.4,3.4,3.4S-2.4,2.8-2.4,1H-9.1z"/>
			<polyline id="Stroke-12" class="st0" points="-2.4,1 -5.6,-6.6 -9.1,1 			"/>
			<path id="Fill-14" class="st1" d="M-23.6,3.1c0,1.9,1.5,3.4,3.4,3.4s3.4-1.5,3.4-3.4H-23.6z"/>
			<path id="Stroke-16" class="st0" d="M-23.6,3.1c0,1.9,1.5,3.4,3.4,3.4s3.4-1.5,3.4-3.4H-23.6z"/>
			<polyline id="Stroke-18" class="st0" points="-16.9,3.1 -20.1,-4.4 -23.6,3.1 			"/>
		</g>
	</g>
	<rect class="st2" width="24" height="24"/>
</g>
</svg>
