<svg xmlns="http://www.w3.org/2000/svg" viewBox="0 0 20.92 27.29"><defs/><title>Confusion</title><g id="Layer_2"><g id="Confuse"><ellipse class="cls-confusion1" cx="5.59" cy="5.95" rx="3.03" ry="3.07" style="fill: #009688; stroke: #000; stroke-linecap: round; stroke-linejoin: round;"/><path class="cls-confusion2" d="M5.5,11.79h0a5,5,0,0,1,5,5v10a0,0,0,0,1,0,0H.5a0,0,0,0,1,0,0v-10a5,5,0,0,1,5-5Z" style="stroke: #000; stroke-linecap: round; stroke-linejoin: round; fill: none;"/><path class="cls-confusion3" d="M16.06,15.41a1.71,1.71,0,0,1-1.24-.51,1.58,1.58,0,0,1-.52-1.24,1.6,1.6,0,0,1,.55-1.26,1.66,1.66,0,0,1,1.21-.47,1.8,1.8,0,0,1,1.26.48,1.72,1.72,0,0,1,.52,1.25,1.76,1.76,0,0,1-.51,1.25A1.84,1.84,0,0,1,16.06,15.41Zm-.93-5.27a.5.5,0,0,1-.5-.5V9.41A3.93,3.93,0,0,1,15,7.58a9.08,9.08,0,0,1,2-2.22l.15-.18a1.31,1.31,0,0,0,.32-.84,1.3,1.3,0,0,0-.32-.93,1.29,1.29,0,0,0-.95-.3,1.25,1.25,0,0,0-1.14.45,2.24,2.24,0,0,0-.31,1.32.5.5,0,0,1-.5.5H12.43a.5.5,0,0,1-.5-.5,4.24,4.24,0,0,1,1.22-3.21A4.41,4.41,0,0,1,16.35.5a4.22,4.22,0,0,1,2.92,1,3.46,3.46,0,0,1,1.15,2.73,3.76,3.76,0,0,1-.71,2.31c-.27.3-1,1-1.48,1.37a1.85,1.85,0,0,0-.73,1.5v.23a.5.5,0,0,1-.5.5Z" style="fill: #009688;"/><path d="M16.35,1a3.72,3.72,0,0,1,2.58.87,3,3,0,0,1,1,2.36,3.27,3.27,0,0,1-.61,2c-.15.16-.62.6-1.41,1.29a2.31,2.31,0,0,0-.65.8A2.37,2.37,0,0,0,17,9.41v.23H15.13V9.41a3.47,3.47,0,0,1,.33-1.6,8.9,8.9,0,0,1,1.91-2.08l.2-.23A1.81,1.81,0,0,0,18,4.34a1.79,1.79,0,0,0-.46-1.28,1.77,1.77,0,0,0-1.31-.46,1.78,1.78,0,0,0-1.54.65,2.69,2.69,0,0,0-.41,1.62H12.43A3.74,3.74,0,0,1,13.49,2a3.91,3.91,0,0,1,2.86-1m-.29,11.44a1.3,1.3,0,0,1,.92.34,1.21,1.21,0,0,1,.36.88,1.25,1.25,0,0,1-.36.9,1.33,1.33,0,0,1-.92.34,1.21,1.21,0,0,1-.88-.36,1.22,1.22,0,0,1,0-1.77,1.2,1.2,0,0,1,.88-.34M16.35,0a4.9,4.9,0,0,0-3.56,1.32,4.71,4.71,0,0,0-1.36,3.56,1,1,0,0,0,1,1h1.86a1,1,0,0,0,1-1,1.86,1.86,0,0,1,.21-1c.06-.07.18-.25.73-.25a.85.85,0,0,1,.6.17.78.78,0,0,1,.17.57.83.83,0,0,1-.22.53L16.65,5a9.06,9.06,0,0,0-2.1,2.35,4.38,4.38,0,0,0-.43,2v.23a1,1,0,0,0,1,1H17a1,1,0,0,0,1-1V9.41a1.38,1.38,0,0,1,.14-.63,1.32,1.32,0,0,1,.37-.46l0,0c.54-.48,1.25-1.1,1.49-1.38l.06-.07a4.25,4.25,0,0,0,.81-2.61A3.94,3.94,0,0,0,19.6,1.11,4.69,4.69,0,0,0,16.35,0Zm-.29,11.44a2.2,2.2,0,0,0-1.57.61,2.23,2.23,0,0,0,0,3.23,2.2,2.2,0,0,0,1.57.63,2.33,2.33,0,0,0,1.57-.59l.05,0a2.25,2.25,0,0,0,.65-1.61,2.2,2.2,0,0,0-.65-1.59,2.31,2.31,0,0,0-1.62-.64Z"/></g></g></svg>
