<?xml version="1.0" encoding="UTF-8"?>
<svg width="20px" height="15px" viewBox="0 0 20 15" version="1.1"
     xmlns="http://www.w3.org/2000/svg" xmlns:xlink="http://www.w3.org/1999/xlink">
    <!-- Generator: Sketch 43.1 (39012) - http://www.bohemiancoding.com/sketch -->
    <title>Contact_icon</title>
    <desc>Created with Sketch.</desc>
    <defs/>
    <g id="Welcome" stroke="none" stroke-width="1" fill="none" fill-rule="evenodd">
        <g id="Side_Menu" transform="translate(-15.000000, -574.000000)">
            <g id="Group-14" transform="translate(0.000000, 24.000000)">
                <g id="Login" transform="translate(0.000000, 339.000000)">
                    <g id="Contact" transform="translate(16.000000, 210.000000)">
                        <g id="Contact_icon">
                            <rect id="Rectangle-9" x="0" y="0" width="18" height="18"/>
                            <g id="Page-1" transform="translate(0.000000, 2.000000)">
                                <g id="Group-4">
                                    <path d="M17.4732207,0.463344828 L10.2707379,7.19162069 C9.55570345,7.86010345 8.44466897,7.86010345 7.72901379,7.19162069 L0.527151724,0.463344828" id="Fill-1" fill="#009688"/>
                                    <path d="M17.4732207,0.463344828 L10.2707379,7.19162069 C9.55570345,7.86010345 8.44466897,7.86010345 7.72901379,7.19162069 L0.527151724,0.463344828" id="Stroke-3" stroke="#000000" stroke-linecap="round" stroke-linejoin="round"/>
                                </g>
                                <path d="M17.0689034,12.7240759 L0.930972414,12.7240759 C0.588351724,12.7240759 0.310282759,12.4460069 0.310282759,12.1033862 L0.310282759,0.930972414 C0.310282759,0.588351724 0.588351724,0.310282759 0.930972414,0.310282759 L17.0689034,0.310282759 C17.4115241,0.310282759 17.6895931,0.588351724 17.6895931,0.930972414 L17.6895931,12.1033862 C17.6895931,12.4460069 17.4115241,12.7240759 17.0689034,12.7240759 Z" id="Stroke-5" stroke="#000000" stroke-linecap="round" stroke-linejoin="round"/>
                            </g>
                        </g>
                    </g>
                </g>
            </g>
        </g>
    </g>
</svg>
