<?xml version="1.0" encoding="UTF-8"?>
<svg width="172px" height="96px" viewBox="0 0 172 96" version="1.1" xmlns="http://www.w3.org/2000/svg" xmlns:xlink="http://www.w3.org/1999/xlink">
    <!-- Generator: Sketch 54.1 (76490) - https://sketchapp.com -->
    <title>contact</title>
    <desc>Created with Sketch.</desc>
    <g id="contact" stroke="none" stroke-width="1" fill="none" fill-rule="evenodd">
        <g id="Group-4" transform="translate(50.000000, 0.000000)">
            <circle id="Oval" fill="#FFF192" cx="35.5" cy="35.5" r="35.5"></circle>
            <g id="Group-67" transform="translate(2.000000, 7.000000)">
                <g>
                    <path d="M44.4444444,86.3795679 C44.4444444,86.3795679 64.7190185,81.4272045 84.7601278,86.3795679 C104.802005,91.3319312 133.105771,84.3715815 113.240529,81.4851495 C93.3745179,78.5979448 67.8830809,82.1781713 72.8058089,65.7967423 C77.7277689,49.4153133 71.279072,43.61 71.279072,43.61" id="Stroke-1" stroke="#000000" stroke-linecap="round" stroke-linejoin="round"></path>
                    <path d="M22.2222222,0 L23.1111111,5.34" id="Stroke-3" stroke="#000000" stroke-linecap="round" stroke-linejoin="round"></path>
                    <path d="M15.1111111,10.68 L10.6666667,8.01" id="Stroke-5" stroke="#000000" stroke-linecap="round" stroke-linejoin="round"></path>
                    <path d="M33.7777778,7.12 L36.4444444,2.67" id="Stroke-7" stroke="#000000" stroke-linecap="round" stroke-linejoin="round"></path>
                    <path d="M60.6964644,75.6714304 C60.6964644,75.6714304 54.0914162,64.5815551 53.0857821,64.0533917 C52.4899361,63.7406941 51.7495495,63.4777792 51.0837398,63.2755369 C49.9681624,62.937948 49.1155261,62.0255243 48.8149122,60.8883007 L48.285186,58.8814354 L48.2728847,58.8806576 C48.1967701,60.1586729 47.8085093,61.3767935 47.1596138,62.4969043 C44.9830463,66.2547207 39.8918312,68.8854255 33.9602811,68.8745355 C26.0551356,68.8605341 19.655366,64.1630692 19.6653608,58.3804969 C19.6661296,58.2031461 19.6722803,58.026573 19.6845816,57.8507779 L19.6668985,57.85 L19.096424,59.9836556 C18.7988855,61.0952101 17.9685454,61.9780752 16.8891032,62.3421112 C15.6912607,62.74504 14.1766588,63.2988726 13.3978305,63.7609183 C11.9893276,64.5971122 7.77996448,75.5819771 7.77996448,75.5819771 C7.77996448,75.5819771 6.65900531,86.3482648 7.31943325,87.241242 C7.97986118,88.135775 9.30225472,88.9198526 12.1700035,88.9237419 C15.0377523,88.9291869 34.2155338,88.9626346 34.2155338,88.9626346 C34.2155338,88.9626346 53.3948531,88.9945267 56.2626019,88.9999716 C59.1311195,89.0054166 60.4550507,88.2260062 61.1185539,87.3338067 C61.7820572,86.4423852 60.6964644,75.6714304 60.6964644,75.6714304" id="Fill-9" fill="#FFFFFF"></path>
                    <path d="M60.6964644,75.6714304 C60.6964644,75.6714304 54.0914162,64.5815551 53.0857821,64.0533917 C52.4899361,63.7406941 51.7495495,63.4777792 51.0837398,63.2755369 C49.9681624,62.937948 49.1155261,62.0255243 48.8149122,60.8883007 L48.285186,58.8814354 L48.2728847,58.8806576 C48.1967701,60.1586729 47.8085093,61.3767935 47.1596138,62.4969043 C44.9830463,66.2547207 39.8918312,68.8854255 33.9602811,68.8745355 C26.0551356,68.8605341 19.655366,64.1630692 19.6653608,58.3804969 C19.6661296,58.2031461 19.6722803,58.026573 19.6845816,57.8507779 L19.6668985,57.85 L19.096424,59.9836556 C18.7988855,61.0952101 17.9685454,61.9780752 16.8891032,62.3421112 C15.6912607,62.74504 14.1766588,63.2988726 13.3978305,63.7609183 C11.9893276,64.5971122 7.77996448,75.5819771 7.77996448,75.5819771 C7.77996448,75.5819771 6.65900531,86.3482648 7.31943325,87.241242 C7.97986118,88.135775 9.30225472,88.9198526 12.1700035,88.9237419 C15.0377523,88.9291869 34.2155338,88.9626346 34.2155338,88.9626346 C34.2155338,88.9626346 53.3948531,88.9945267 56.2626019,88.9999716 C59.1311195,89.0054166 60.4550507,88.2260062 61.1185539,87.3338067 C61.7820572,86.4423852 60.6964644,75.6714304 60.6964644,75.6714304 Z" id="Stroke-11" stroke="#000000" stroke-linecap="round" stroke-linejoin="round"></path>
                    <path d="M48.0910932,37.7197198 C50.7833374,36.6621212 52.4444444,38.4116216 52.4444444,38.4116216 C51.242468,48.5113334 44.1999233,50.4938372 44.1999233,50.4938372 L44.1953472,50.5033153 C43.0101496,49.7269004 41.6579261,49.0902877 40.1836746,48.6242808 C38.4058782,48.062703 36.4503784,47.7499255 34.3980189,47.7459763 C30.4565124,47.7396576 26.8711753,48.8738709 24.2048621,50.73 L24.202574,50.73 C24.0515643,50.6857688 17.1554532,48.6148027 16,38.6201399 C16,38.6201399 17.6664458,36.8753786 20.3525886,37.9432452 C23.0402567,39.0087423 21.0939091,44.8117127 27.8840082,45.5802291 C27.8840082,45.5802291 36.8286654,45.0857879 40.5360306,45.3298491 C46.2522828,45.705814 45.401137,38.7765287 48.0910932,37.7197198" id="Fill-13" fill="#009584"></path>
                    <path d="M48.0910932,37.7197198 C50.7833374,36.6621212 52.4444444,38.4116216 52.4444444,38.4116216 C51.242468,48.5113334 44.1999233,50.4938372 44.1999233,50.4938372 L44.1953472,50.5033153 C43.0101496,49.7269004 41.6579261,49.0902877 40.1836746,48.6242808 C38.4058782,48.062703 36.4503784,47.7499255 34.3980189,47.7459763 C30.4565124,47.7396576 26.8711753,48.8738709 24.2048621,50.73 L24.202574,50.73 C24.0515643,50.6857688 17.1554532,48.6148027 16,38.6201399 C16,38.6201399 17.6664458,36.8753786 20.3525886,37.9432452 C23.0402567,39.0087423 21.0939091,44.8117127 27.8840082,45.5802291 C27.8840082,45.5802291 36.8286654,45.0857879 40.5360306,45.3298491 C46.2522828,45.705814 45.401137,38.7765287 48.0910932,37.7197198 Z" id="Stroke-15" stroke="#000000" stroke-linecap="round" stroke-linejoin="round"></path>
                    <g id="Group-20" transform="translate(8.000000, 73.870000)">
                        <path d="M52.9414857,1.214939 L0.501866667,1.214939" id="Fill-17" fill="#FFFFFF"></path>
                        <path d="M52.9414857,1.214939 L0.501866667,1.214939" id="Stroke-19" stroke="#000000" stroke-linecap="round" stroke-linejoin="round"></path>
                    </g>
                    <path d="M44.4444444,57.4053763 C44.4444444,61.5831921 40.066975,64.97 34.6666667,64.97 C29.2663584,64.97 24.8888889,61.5831921 24.8888889,57.4053763 C24.8888889,53.2275606 29.2663584,49.84 34.6666667,49.84 C40.066975,49.84 44.4444444,53.2275606 44.4444444,57.4053763" id="Fill-21" fill="#009584"></path>
                    <path d="M44.4444444,57.4053763 C44.4444444,61.5831921 40.066975,64.97 34.6666667,64.97 C29.2663584,64.97 24.8888889,61.5831921 24.8888889,57.4053763 C24.8888889,53.2275606 29.2663584,49.84 34.6666667,49.84 C40.066975,49.84 44.4444444,53.2275606 44.4444444,57.4053763 Z" id="Stroke-23" stroke="#000000" stroke-linecap="round" stroke-linejoin="round"></path>
                    <g id="Group-28" transform="translate(16.888889, 56.070000)">
                        <path d="M28.1963071,10.160681 C25.3804687,12.3766596 21.3263677,13.7632796 16.8231758,13.7548246 C8.3296,13.7402205 1.45121616,8.77482959 1.46119596,2.66570777 C1.46273131,1.78792505 1.60782222,0.931664136 1.87650909,0.112297773 C1.10652929,1.38054777 0.639781818,2.76947368 0.538448485,4.2283455 C0.523862626,4.42665368 0.516953535,4.6257305 0.516185859,4.82480732 C0.50390303,11.3382319 7.78915556,16.6302932 16.7870949,16.645666 C23.5395798,16.6579641 29.3347717,13.694871 31.8120646,9.46122186 C32.5505697,8.19988959 32.9935192,6.82710505 33.079499,5.38821777 C33.0902465,5.21911777 33.0948525,5.05001777 33.0948525,4.87861186 C33.0979232,3.29214641 32.6672566,1.77870141 31.8842263,0.395155955 C32.1060848,1.14457641 32.222004,1.92089914 32.219701,2.71874368 C32.217398,4.28368732 31.763701,5.77176732 30.9453576,7.11918686" id="Fill-25" fill="#009584"></path>
                        <path d="M28.1963071,10.160681 C25.3804687,12.3766596 21.3263677,13.7632796 16.8231758,13.7548246 C8.3296,13.7402205 1.45121616,8.77482959 1.46119596,2.66570777 C1.46273131,1.78792505 1.60782222,0.931664136 1.87650909,0.112297773 C1.10652929,1.38054777 0.639781818,2.76947368 0.538448485,4.2283455 C0.523862626,4.42665368 0.516953535,4.6257305 0.516185859,4.82480732 C0.50390303,11.3382319 7.78915556,16.6302932 16.7870949,16.645666 C23.5395798,16.6579641 29.3347717,13.694871 31.8120646,9.46122186 C32.5505697,8.19988959 32.9935192,6.82710505 33.079499,5.38821777 C33.0902465,5.21911777 33.0948525,5.05001777 33.0948525,4.87861186 C33.0979232,3.29214641 32.6672566,1.77870141 31.8842263,0.395155955 C32.1060848,1.14457641 32.222004,1.92089914 32.219701,2.71874368 C32.217398,4.28368732 31.763701,5.77176732 30.9453576,7.11918686" id="Stroke-27" stroke="#000000" stroke-linecap="round" stroke-linejoin="round"></path>
                    </g>
                    <path d="M33.8137936,61.8553409 C30.3964586,61.8553409 27.6258924,59.7268847 27.6258924,57.1017628 C27.6258924,54.4774157 30.3964586,52.3489595 33.8137936,52.3489595 C37.2311286,52.3489595 40.0016949,54.4774157 40.0016949,57.1017628 C40.0016949,59.7268847 37.2311286,61.8553409 33.8137936,61.8553409 M33.7781569,47.17 C25.4323379,47.17 18.6666667,52.1506031 18.6666667,58.295 C18.6666667,64.438622 25.4323379,69.42 33.7781569,69.42 C42.1232177,69.42 48.8888889,64.438622 48.8888889,58.295 C48.8888889,52.1506031 42.1232177,47.17 33.7781569,47.17" id="Fill-29" fill="#FFFFFF"></path>
                    <path d="M33.8137936,61.8553409 C30.3964586,61.8553409 27.6258924,59.7268847 27.6258924,57.1017628 C27.6258924,54.4774157 30.3964586,52.3489595 33.8137936,52.3489595 C37.2311286,52.3489595 40.0016949,54.4774157 40.0016949,57.1017628 C40.0016949,59.7268847 37.2311286,61.8553409 33.8137936,61.8553409 Z M33.7781569,47.17 C25.4323379,47.17 18.6666667,52.1506031 18.6666667,58.295 C18.6666667,64.438622 25.4323379,69.42 33.7781569,69.42 C42.1232177,69.42 48.8888889,64.438622 48.8888889,58.295 C48.8888889,52.1506031 42.1232177,47.17 33.7781569,47.17 Z" id="Stroke-31" stroke="#000000" stroke-linecap="round" stroke-linejoin="round"></path>
                    <path d="M34.2222222,51.62 C33.8691444,51.62 33.5293402,51.4801141 33.2817875,51.2328564 C33.0289254,50.9787935 32.8888889,50.6385306 32.8888889,50.2846572 C32.8888889,50.1977011 32.8961894,50.110745 32.9154361,50.0245451 C32.9360102,49.9368329 32.9559206,49.8566821 32.9891046,49.7765312 C33.0222886,49.6903313 33.0694099,49.6169858 33.1158675,49.5428841 C33.1623251,49.4695385 33.2154195,49.4022421 33.2817875,49.342507 C33.5897351,49.028709 34.0490017,48.8888232 34.4830485,48.9750231 C34.5693269,48.9886336 34.6556053,49.0150985 34.7359106,49.0483686 C34.8162159,49.0823949 34.888557,49.1285195 34.9622255,49.1754001 C35.035894,49.2230369 35.102262,49.2759667 35.1626569,49.342507 C35.2296886,49.4022421 35.2821194,49.4695385 35.328577,49.5428841 C35.382335,49.6169858 35.4228195,49.6903313 35.4560035,49.7765312 C35.4891875,49.8566821 35.5157347,49.9368329 35.5290084,50.0245451 C35.5489188,50.110745 35.5555556,50.1977011 35.5555556,50.2846572 C35.5555556,50.6385306 35.4155191,50.9787935 35.1626569,51.2328564 C35.102262,51.2925915 35.035894,51.3462774 34.9622255,51.3992072 C34.888557,51.446844 34.8162159,51.4861633 34.7359106,51.5194334 C34.6556053,51.5534597 34.5693269,51.5799246 34.4830485,51.5935351 C34.3961064,51.6139509 34.3085006,51.62 34.2222222,51.62" id="Fill-33" fill="#009584"></path>
                    <path d="M27.5091082,51.66746 C27.2203533,50.958478 27.6340801,50.1746632 28.4452332,49.9231636 C29.2548337,49.6639493 30.1521475,50.0311696 30.4401262,50.7401516 C30.7366434,51.4491337 30.3159306,52.2267766 29.5047775,52.4852195 L29.5125398,52.4852195 C29.3332323,52.539994 29.1539247,52.5669954 28.9746172,52.5669954 C28.3350095,52.5669954 27.7427513,52.2190619 27.5091082,51.66746 M23.0799798,54.8767803 C22.4566728,54.3660663 22.4170854,53.5004756 23.0101198,52.9481022 C23.5946157,52.4034436 24.5850762,52.3694988 25.2161455,52.887156 C25.8402288,53.3978699 25.8798162,54.2634606 25.2867818,54.8088908 C24.9825024,55.1020499 24.5617895,55.244772 24.1480627,55.244772 C23.7669372,55.244772 23.3850355,55.1228796 23.0799798,54.8767803 M20.4447028,58.4540923 C20.4291783,57.697279 21.1153594,57.0777876 21.9730858,57.0639011 C22.8385745,57.0507861 23.5480423,57.6502193 23.5635667,58.4000893 C23.5798674,59.1561311 22.8936863,59.7763939 22.0351837,59.7895089 L22.0041348,59.7895089 C21.1541706,59.7895089 20.4602272,59.1970191 20.4447028,58.4540923 M23.2049517,63.8651914 L23.212714,63.8651914 C22.6049314,63.3267045 22.6126936,62.468057 23.2282384,61.9365133 C23.8445595,61.4111414 24.8264816,61.4180847 25.4350404,61.9565716 C26.0350608,62.4950585 26.0272985,63.3537059 25.4109775,63.8783064 C25.1074743,64.1436925 24.7178103,64.2732996 24.3203842,64.2732996 C23.9144195,64.2732996 23.5169934,64.1375207 23.2049517,63.8651914 M28.7013867,66.795239 C27.8902337,66.5499112 27.4539964,65.7730397 27.7349891,65.0640576 C28.0152056,64.3489038 28.9047572,63.9731973 29.7159102,64.2192966 C30.5340492,64.4576812 30.9625243,65.2345528 30.6815316,65.9497066 C30.4641892,66.5159664 29.8556303,66.8693003 29.2082604,66.8693003 C29.0452535,66.8693003 28.8737082,66.8422988 28.7013867,66.795239 M33.3253471,66.2906968 C33.3175849,65.5408268 34.003766,64.9213354 34.8684784,64.9143922 C35.726981,64.9005057 36.4364489,65.4999389 36.4442111,66.2567521 C36.4589593,67.0058507 35.7727782,67.6261135 34.9072896,67.6330568 C34.8995273,67.64 34.8925413,67.64 34.8847791,67.64 C34.0348149,67.64 33.3408716,67.0397954 33.3253471,66.2906968" id="Fill-35" fill="#009584"></path>
                    <path d="M40.4444444,65.86 C40.0847298,65.86 39.7515624,65.7196625 39.4980366,65.466904 C39.4383054,65.4065437 39.3845473,65.3401475 39.3314529,65.2669607 C39.2843316,65.1937739 39.2445108,65.1137966 39.2113268,65.0330648 C39.1781428,64.9530875 39.1515956,64.8738647 39.1376583,64.7870968 C39.1177479,64.700329 39.1111111,64.6135612 39.1111111,64.5267933 C39.1111111,64.44078 39.1177479,64.3472216 39.1376583,64.2612083 C39.1515956,64.1804765 39.1781428,64.0944631 39.2113268,64.0144858 C39.2445108,63.9345085 39.2843316,63.8537767 39.3314529,63.7866259 C39.3845473,63.7141937 39.4383054,63.6410069 39.4980366,63.5806466 C39.5577678,63.5210409 39.6314363,63.4674712 39.7051048,63.4139015 C39.7781096,63.3671223 39.8511144,63.3278882 39.9314197,63.29469 C40.011725,63.2614919 40.0986671,63.2350843 40.1849455,63.2147127 C40.617665,63.1279449 41.0782589,63.2743185 41.3848792,63.5806466 C41.4446104,63.6410069 41.5043416,63.7141937 41.5507992,63.7866259 C41.5979205,63.8537767 41.6377413,63.9345085 41.6709253,64.0144858 C41.704773,64.0944631 41.7313202,64.1804765 41.7512306,64.2612083 C41.7645042,64.3472216 41.7777778,64.44078 41.7777778,64.5267933 C41.7777778,64.6135612 41.7645042,64.700329 41.7512306,64.7870968 C41.7313202,64.8738647 41.7114098,64.9530875 41.6782258,65.0330648 C41.6443781,65.1137966 41.5979205,65.1937739 41.5507992,65.2669607 C41.5043416,65.3401475 41.4446104,65.4065437 41.3848792,65.466904 C41.1313534,65.7196625 40.7981859,65.86 40.4444444,65.86" id="Fill-37" fill="#009584"></path>
                    <path d="M48,61.7443511 C43.6148404,61.546687 42.5437888,58.74 42.5437888,58.74 C39.803064,61.9470284 45.2979214,64.97 45.2979214,64.97 C45.2979214,64.97 47.0795897,63.3664858 48,61.7443511" id="Fill-39" fill="#009584"></path>
                    <path d="M48,61.7443511 C43.6148404,61.546687 42.5437888,58.74 42.5437888,58.74 C39.803064,61.9470284 45.2979214,64.97 45.2979214,64.97 C45.2979214,64.97 47.0795897,63.3664858 48,61.7443511 Z" id="Stroke-41" stroke="#000000" stroke-linecap="round" stroke-linejoin="round"></path>
                    <path d="M35.5555556,56.96 C35.5555556,57.9428624 34.5606757,58.74 33.3333333,58.74 C32.105991,58.74 31.1111111,57.9428624 31.1111111,56.96 C31.1111111,55.9771376 32.105991,55.18 33.3333333,55.18 C34.5606757,55.18 35.5555556,55.9771376 35.5555556,56.96" id="Fill-43" fill="#FFFFFF"></path>
                    <path d="M35.5555556,56.96 C35.5555556,57.9428624 34.5606757,58.74 33.3333333,58.74 C32.105991,58.74 31.1111111,57.9428624 31.1111111,56.96 C31.1111111,55.9771376 32.105991,55.18 33.3333333,55.18 C34.5606757,55.18 35.5555556,55.9771376 35.5555556,56.96 Z" id="Stroke-45" stroke="#000000" stroke-linecap="round" stroke-linejoin="round"></path>
                    <path d="M70.5054259,44.4619721 C71.1240074,44.7257059 71.1110904,43.5312368 71.1110904,43.5312368 L69.1111059,41.83 C68.8785997,42.2194675 68.6518343,42.7193352 68.4444444,43.2483362 C68.4444444,43.2483362 69.8854092,44.1982382 70.5054259,44.4619721" id="Fill-47" fill="#009584"></path>
                    <path d="M70.5054259,44.4619721 C71.1240074,44.7257059 71.1110904,43.5312368 71.1110904,43.5312368 L69.1111059,41.83 C68.8785997,42.2194675 68.6518343,42.7193352 68.4444444,43.2483362 C68.4444444,43.2483362 69.8854092,44.1982382 70.5054259,44.4619721 Z" id="Stroke-49" stroke="#000000" stroke-linecap="round" stroke-linejoin="round"></path>
                    <path d="M68.7414633,38.9943683 C68.7414633,38.9943683 65.1222011,27.7180145 52.1318937,18.7933316 C39.1400614,9.86864872 27.8560756,13.0131642 25.8501184,12.935645 C23.841874,12.8588934 21.1901373,17.0149957 21.1901373,17.0149957 C20.7738497,17.1723366 20.6716839,17.7341587 20.6884574,18.0066271 C20.6907447,18.0473055 20.6785458,18.094124 20.6556728,18.1440126 C20.5237722,18.4295288 20.048015,18.8155896 20.048015,18.8155896 C19.1979039,20.1556736 19.7064457,21.9931083 19.7064457,21.9931083 C25.4544165,24.7738209 30.8699672,25.3202927 32.1897361,25.3602036 C33.509505,25.4001144 34.1568093,22.742972 34.1568093,22.742972 L33.8190522,21.634678 C34.1941685,21.2025662 34.0592181,20.4964509 34.0592181,20.4964509 C37.5847012,15.782364 54.3017736,29.6659716 57.1563171,32.0068972 C57.1586044,32.0091998 57.1616541,32.0122699 57.1639414,32.0138049 C60.0009489,34.3424502 58.4852351,36.3188054 58.4852351,36.3188054 C58.0514116,36.1614645 57.4323173,37.1377456 57.4323173,37.1377456 L56.5654327,37.064064 C56.5654327,37.064064 56.544847,37.0755768 56.5105376,37.0986023 C56.2025153,37.3019942 54.6898513,38.3473518 54.7904922,39.3197953 C54.9025696,40.4019937 59.8408383,47.0179867 62.1632045,48.9981795 C64.4848084,50.9776048 65.5727981,48.8454437 65.5727981,48.8454437 C66.2307764,49.0680235 66.3939368,47.4316781 66.3939368,47.4316781 C67.1174842,47.3725794 67.1289207,46.6925597 67.1289207,46.6925597 C67.1289207,46.6925597 67.1548434,46.5943175 67.203639,46.4246964 C67.3614623,45.8713169 67.7548769,44.5557935 68.2451204,43.3807256 C68.4647006,42.8519067 68.7063914,42.3514858 68.9526568,41.9615874 C69.9186575,40.4403695 68.7414633,38.9943683 68.7414633,38.9943683" id="Fill-51" fill="#009584"></path>
                    <path d="M68.7414633,38.9943683 C68.7414633,38.9943683 65.1222011,27.7180145 52.1318937,18.7933316 C39.1400614,9.86864872 27.8560756,13.0131642 25.8501184,12.935645 C23.841874,12.8588934 21.1901373,17.0149957 21.1901373,17.0149957 C20.7738497,17.1723366 20.6716839,17.7341587 20.6884574,18.0066271 C20.6907447,18.0473055 20.6785458,18.094124 20.6556728,18.1440126 C20.5237722,18.4295288 20.048015,18.8155896 20.048015,18.8155896 C19.1979039,20.1556736 19.7064457,21.9931083 19.7064457,21.9931083 C25.4544165,24.7738209 30.8699672,25.3202927 32.1897361,25.3602036 C33.509505,25.4001144 34.1568093,22.742972 34.1568093,22.742972 L33.8190522,21.634678 C34.1941685,21.2025662 34.0592181,20.4964509 34.0592181,20.4964509 C37.5847012,15.782364 54.3017736,29.6659716 57.1563171,32.0068972 C57.1586044,32.0091998 57.1616541,32.0122699 57.1639414,32.0138049 C60.0009489,34.3424502 58.4852351,36.3188054 58.4852351,36.3188054 C58.0514116,36.1614645 57.4323173,37.1377456 57.4323173,37.1377456 L56.5654327,37.064064 C56.5654327,37.064064 56.544847,37.0755768 56.5105376,37.0986023 C56.2025153,37.3019942 54.6898513,38.3473518 54.7904922,39.3197953 C54.9025696,40.4019937 59.8408383,47.0179867 62.1632045,48.9981795 C64.4848084,50.9776048 65.5727981,48.8454437 65.5727981,48.8454437 C66.2307764,49.0680235 66.3939368,47.4316781 66.3939368,47.4316781 C67.1174842,47.3725794 67.1289207,46.6925597 67.1289207,46.6925597 C67.1289207,46.6925597 67.1548434,46.5943175 67.203639,46.4246964 C67.3614623,45.8713169 67.7548769,44.5557935 68.2451204,43.3807256 C68.4647006,42.8519067 68.7063914,42.3514858 68.9526568,41.9615874 C69.9186575,40.4403695 68.7414633,38.9943683 68.7414633,38.9943683 Z" id="Stroke-53" stroke="#000000" stroke-linecap="round" stroke-linejoin="round"></path>
                    <path d="M56.8888889,37.38 C56.8888889,37.38 58.5432754,41.6234938 65.7777778,48.95" id="Stroke-55" stroke="#000000" stroke-linecap="round" stroke-linejoin="round"></path>
                    <path d="M33.7777778,21.354215 C33.7777778,21.354215 26.3994594,21.6613404 20.4444444,17.8" id="Stroke-57" stroke="#000000" stroke-linecap="round" stroke-linejoin="round"></path>
                    <path d="M21.2951674,18.69 C21.2951674,18.69 20.165857,18.9938381 20.5095275,21.5784248 C20.5095275,21.5784248 26.3489256,24.6992426 32.374416,24.9198589 C32.374416,24.9198589 32.8989263,24.9598995 33.4376936,23.6911595 C33.4376936,23.6911595 33.9599528,22.8408839 33.7100788,22.1342837 C33.7100788,22.1342837 25.781644,22.0015998 21.2951674,18.69" id="Fill-59" fill="#FFFFFF"></path>
                    <path d="M56.9248338,37.4479635 C56.9248338,37.4479635 56.5915941,37.1184711 55.8562202,37.9104621 C55.8562202,37.9104621 55.1440607,38.489341 55.1111111,39.0410141 C55.1111111,39.0410141 58.7123467,45.243936 62.3465319,48.2917411 C62.3465319,48.2917411 63.7214266,49.8666545 64.8888889,48.1443763 C64.8888889,48.1443763 59.241786,42.0517891 56.9248338,37.4479635" id="Fill-61" fill="#FFFFFF"></path>
                    <g id="Group-66" transform="translate(0.000000, 88.110000)">
                        <path d="M69.1554286,0.4998 L0.380571429,0.4998" id="Fill-63" fill="#009584"></path>
                        <path d="M69.1554286,0.4998 L0.380571429,0.4998" id="Stroke-65" stroke="#000000" stroke-linecap="round" stroke-linejoin="round"></path>
                    </g>
                </g>
            </g>
        </g>
    </g>
</svg>