<svg xmlns="http://www.w3.org/2000/svg" viewBox="0 0 29 20.74"><defs/><title>Cruise_icon</title><g id="Layer_2"><g id="Cruise"><path class="cls-cruise1" d="M2.33,19V12.8a1,1,0,0,1,1-1H28.5S28,16,26.06,18.46" style="fill: none; stroke: #000; stroke-linecap: round; stroke-linejoin: round;"/><path class="cls-cruise1" d="M28.5,20.24c-1.75,0-1.75-2-3.5-2s-1.75,2-3.5,2-1.75-2-3.49-2-1.75,2-3.5,2-1.75-2-3.5-2-1.75,2-3.5,2-1.75-2-3.51-2-1.75,2-3.51,2" style="fill: none; stroke: #000; stroke-linecap: round; stroke-linejoin: round;"/><rect class="cls-cruise1" x="4.5" y="6.96" width="20" height="4.84" style="fill: none; stroke: #000; stroke-linecap: round; stroke-linejoin: round;"/><path class="cls-cruise1" d="M7.5.5h3a1,1,0,0,1,1,1V7a0,0,0,0,1,0,0h-5a0,0,0,0,1,0,0V1.5A1,1,0,0,1,7.5.5Z" style="fill: none; stroke: #000; stroke-linecap: round; stroke-linejoin: round;"/><path class="cls-cruise1" d="M15.08.5h3a1,1,0,0,1,1,1V7a0,0,0,0,1,0,0h-5a0,0,0,0,1,0,0V1.5A1,1,0,0,1,15.08.5Z" style="fill: none; stroke: #000; stroke-linecap: round; stroke-linejoin: round;"/><line class="cls-cruise1" x1="21.58" y1="9.38" x2="7.42" y2="9.38" style="fill: none; stroke: #000; stroke-linecap: round; stroke-linejoin: round;"/><circle class="cls-cruise2" cx="7.5" cy="14.49" r="1" style="fill: #009688;"/><circle class="cls-cruise2" cx="12.5" cy="14.49" r="1" style="fill: #009688;"/><circle class="cls-cruise2" cx="17.5" cy="14.49" r="1" style="fill: #009688;"/><circle class="cls-cruise2" cx="22.5" cy="14.49" r="1" style="fill: #009688;"/></g></g></svg>
