<?xml version="1.0" encoding="utf-8"?>
<!-- Generator: Adobe Illustrator 22.1.0, SVG Export Plug-In . SVG Version: 6.00 Build 0)  -->
<svg version="1.1" id="Layer_1" xmlns="http://www.w3.org/2000/svg" xmlns:xlink="http://www.w3.org/1999/xlink" x="0px" y="0px"
	 viewBox="0 0 83.3 62.1" style="enable-background:new 0 0 83.3 62.1;" xml:space="preserve">
<style type="text/css">
	.st0{fill:none;stroke:#000000;stroke-linecap:round;stroke-linejoin:round;stroke-miterlimit:10;}
	.st1{fill:none;stroke:#000000;stroke-linecap:round;stroke-linejoin:round;stroke-miterlimit:10;stroke-dasharray:6;}
	.st2{fill:#FFFFFF;}
	.st3{fill:#009486;stroke:#000000;stroke-linecap:round;stroke-linejoin:round;stroke-miterlimit:10;}
	.st4{fill:none;}
	.st5{fill:#FFFFFF;stroke:#000000;stroke-linecap:round;stroke-linejoin:round;stroke-miterlimit:10;}
</style>
<defs />
<title>Customised_Packages</title>
<g>
	<g>
		<line class="st0" x1="82.4" y1="35.8" x2="79.2" y2="37.1"/>
		<line class="st0" x1="74.7" y1="32.7" x2="76.1" y2="29.5"/>
		<line class="st0" x1="79.2" y1="44" x2="82.4" y2="45.4"/>
	</g>
	<path class="st1" d="M45,48.8H4.9c-2.2,0-4-1.8-4-4V4.8c0-2.2,1.8-4,4-4H45c2.2,0,4,1.8,4,4v40.1C49,47.1,47.2,48.8,45,48.8z"/>
	<g>
		<path class="st2" d="M23.9,61.3c-2.5,0-4.5-2-4.5-4.5V16.7c0-2.5,2-4.5,4.5-4.5H64c2.5,0,4.5,2,4.5,4.5v40.1c0,2.5-2,4.5-4.5,4.5
			H23.9z"/>
		<path d="M64,12.7c2.2,0,4,1.8,4,4v40.1c0,2.2-1.8,4-4,4H23.9c-2.2,0-4-1.8-4-4V16.7c0-2.2,1.8-4,4-4H64 M64,11.7H23.9
			c-2.7,0-5,2.2-5,5v40.1c0,2.7,2.2,5,5,5H64c2.7,0,5-2.2,5-5V16.7C69,13.9,66.8,11.7,64,11.7L64,11.7z"/>
	</g>
	<path class="st3" d="M68,43.3v13.6c0,2.2-1.8,4-4,4H35.6l7.2-9.1l13.6-17.1c0.7-0.9,2.1-1,3-0.2L68,43.3z"/>
	<path class="st3" d="M51.7,60.8H23.9c-2.2,0-4-1.8-4-4v-0.7L32.6,44c0.8-0.8,2-0.7,2.8,0l7.4,7.6L51.7,60.8z"/>
	<path class="st4" d="M64,60.8H23.9c-2.2,0-4-1.8-4-4V16.7c0-2.2,1.8-4,4-4H64c2.2,0,4,1.8,4,4v40.1C68,59,66.2,60.8,64,60.8z"/>
	<circle class="st3" cx="34.4" cy="27" r="7.2"/>
	<polygon class="st5" points="76.3,40.3 58.6,35.6 63.4,53.3 68.1,48.5 77.7,58.1 81.1,54.7 71.5,45.1 	"/>
</g>
</svg>
