<?xml version="1.0" encoding="UTF-8"?>
<svg width="70px" height="54px" viewBox="0 0 70 54" version="1.1" xmlns="http://www.w3.org/2000/svg" xmlns:xlink="http://www.w3.org/1999/xlink">
    <!-- Generator: Sketch 54.1 (76490) - https://sketchapp.com -->
    <title>date not decided</title>
    <desc>Created with Sketch.</desc>
    <g id="date-not-decided" stroke="none" stroke-width="1" fill="none" fill-rule="evenodd">
        <g id="Group-2" transform="translate(11.000000, 0.000000)">
            <g id="Icon/Calendar">
                <g id="Calendar">
                    <rect id="Rectangle-3" x="0" y="0" width="48" height="48"></rect>
                    <g id="Page-1" transform="translate(0.000000, 1.000000)">
                        <path d="M45.12,45.1716114 L2.88,45.1716114 C1.82016,45.1716114 0.96,44.3524114 0.96,43.34304 L0.96,6.77161143 C0.96,5.76224 1.82016,4.94304 2.88,4.94304 L45.12,4.94304 C46.17984,4.94304 47.04,5.76224 47.04,6.77161143 L47.04,43.34304 C47.04,44.3524114 46.17984,45.1716114 45.12,45.1716114 Z" id="Stroke-1" stroke="#000000"></path>
                        <path d="M47.04,14.0858971 L0.96,14.0858971 L0.96,6.77161143 C0.96,5.76224 1.82016,4.94304 2.88,4.94304 L45.12,4.94304 C46.17984,4.94304 47.04,5.76224 47.04,6.77161143 L47.04,14.0858971 Z" id="Fill-3" fill="#009688"></path>
                        <path d="M47.04,14.0858971 L0.96,14.0858971 L0.96,6.77161143 C0.96,5.76224 1.82016,4.94304 2.88,4.94304 L45.12,4.94304 C46.17984,4.94304 47.04,5.76224 47.04,6.77161143 L47.04,14.0858971 Z" id="Stroke-5" stroke="#000000" stroke-linecap="round" stroke-linejoin="round"></path>
                        <path d="M30.179904,19.5716114 L30.179904,41.5144686" id="Stroke-7" stroke="#000000" stroke-linecap="round" stroke-linejoin="round"></path>
                        <path d="M18.659904,41.5144686 L18.659904,19.5716114" id="Stroke-9" stroke="#000000" stroke-linecap="round" stroke-linejoin="round"></path>
                        <path d="M39.96,36.0287543 L8.88096,36.0287543" id="Stroke-11" stroke="#000000" stroke-linecap="round" stroke-linejoin="round"></path>
                        <path d="M8.88,25.0573257 L39.95904,25.0573257" id="Stroke-13" stroke="#000000" stroke-linecap="round" stroke-linejoin="round"></path>
                        <path d="M39,0.0772879464 L39,4.35789714" id="Stroke-15" stroke="#000000" stroke-linecap="round" stroke-linejoin="round"></path>
                        <path d="M8.88,0.152064732 L8.88,4.94304" id="Stroke-17" stroke="#000000" stroke-linecap="round" stroke-linejoin="round"></path>
                    </g>
                </g>
            </g>
            <g id="question" transform="translate(35.000000, 30.000000)">
                <g id="Group">
                    <circle id="Oval" stroke="#000000" fill="#FFFFFF" cx="12" cy="12" r="11.5"></circle>
                    <path d="M7.7815,5.535 C8.03083458,5.3149989 8.30399852,5.10600099 8.601,4.908 C8.89800149,4.70999901 9.21883161,4.5376674 9.5635,4.391 C9.90816839,4.2443326 10.2821647,4.12883376 10.6855,4.0445 C11.0888354,3.96016625 11.5251643,3.918 11.9945,3.918 C12.6325032,3.918 13.213664,4.00599912 13.738,4.182 C14.262336,4.35800088 14.7114981,4.60916504 15.0855,4.9355 C15.4595019,5.26183497 15.7491656,5.65599769 15.9545,6.118 C16.1598344,6.58000231 16.2625,7.09699714 16.2625,7.669 C16.2625,8.22633612 16.1818341,8.70849797 16.0205,9.1155 C15.8591659,9.52250204 15.6556679,9.87633183 15.41,10.177 C15.1643321,10.4776682 14.8985014,10.7379989 14.6125,10.958 C14.3264986,11.1780011 14.055168,11.3851657 13.7985,11.5795 C13.5418321,11.7738343 13.3200009,11.9644991 13.133,12.1515 C12.9459991,12.3385009 12.8341669,12.5493322 12.7975,12.784 L12.5445,14.39 L10.6855,14.39 L10.4985,12.597 C10.4911666,12.5603332 10.4875,12.5291668 10.4875,12.5035 L10.4875,12.41 C10.4875,12.0873317 10.5681659,11.8068345 10.7295,11.5685 C10.8908341,11.3301655 11.0924988,11.106501 11.3345,10.8975 C11.5765012,10.688499 11.8368319,10.485001 12.1155,10.287 C12.3941681,10.088999 12.6544988,9.87450116 12.8965,9.6435 C13.1385012,9.41249885 13.3401659,9.1503348 13.5015,8.857 C13.6628341,8.5636652 13.7435,8.21900198 13.7435,7.823 C13.7435,7.55899868 13.6940005,7.32250105 13.595,7.1135 C13.4959995,6.90449896 13.3585009,6.72483409 13.1825,6.5745 C13.0064991,6.42416592 12.7956679,6.30866707 12.55,6.228 C12.3043321,6.14733293 12.0385014,6.107 11.7525,6.107 C11.3344979,6.107 10.9806681,6.15283288 10.691,6.2445 C10.4013319,6.33616713 10.1556677,6.43883277 9.954,6.5525 C9.75233233,6.66616724 9.58183403,6.76883288 9.4425,6.8605 C9.30316597,6.95216713 9.17850055,6.998 9.0685,6.998 C8.80449868,6.998 8.61383392,6.8880011 8.4965,6.668 L7.7815,5.535 Z M9.8605,18.504 C9.8605,18.2766655 9.90266625,18.0603344 9.987,17.855 C10.0713338,17.6496656 10.1886659,17.4736674 10.339,17.327 C10.4893341,17.1803326 10.6671656,17.0630004 10.8725,16.975 C11.0778344,16.8869996 11.2978322,16.843 11.5325,16.843 C11.7598345,16.843 11.9761656,16.8869996 12.1815,16.975 C12.3868344,17.0630004 12.5628326,17.1803326 12.7095,17.327 C12.8561674,17.4736674 12.9734996,17.6496656 13.0615,17.855 C13.1495004,18.0603344 13.1935,18.2766655 13.1935,18.504 C13.1935,18.7386678 13.1495004,18.9568323 13.0615,19.1585 C12.9734996,19.3601677 12.8561674,19.5343326 12.7095,19.681 C12.5628326,19.8276674 12.3868344,19.9431662 12.1815,20.0275 C11.9761656,20.1118338 11.7598345,20.154 11.5325,20.154 C11.2978322,20.154 11.0778344,20.1118338 10.8725,20.0275 C10.6671656,19.9431662 10.4893341,19.8276674 10.339,19.681 C10.1886659,19.5343326 10.0713338,19.3601677 9.987,19.1585 C9.90266625,18.9568323 9.8605,18.7386678 9.8605,18.504 Z" id="?" fill="#FE5246" fill-rule="nonzero"></path>
                </g>
            </g>
        </g>
    </g>
</svg>