<?xml version="1.0" encoding="UTF-8"?>
<svg width="70px" height="54px" viewBox="0 0 70 54" version="1.1" xmlns="http://www.w3.org/2000/svg" xmlns:xlink="http://www.w3.org/1999/xlink">
    <!-- Generator: Sketch 54.1 (76490) - https://sketchapp.com -->
    <title>date decided</title>
    <desc>Created with Sketch.</desc>
    <g id="date-decided" stroke="none" stroke-width="1" fill="none" fill-rule="evenodd">
        <g id="Group" transform="translate(11.000000, 0.000000)">
            <g id="Icon/Calendar">
                <g id="Calendar">
                    <rect id="Rectangle-3" x="0" y="0" width="48" height="48"></rect>
                    <g id="Page-1" transform="translate(0.000000, 1.000000)">
                        <path d="M45.12,45.1716114 L2.88,45.1716114 C1.82016,45.1716114 0.96,44.3524114 0.96,43.34304 L0.96,6.77161143 C0.96,5.76224 1.82016,4.94304 2.88,4.94304 L45.12,4.94304 C46.17984,4.94304 47.04,5.76224 47.04,6.77161143 L47.04,43.34304 C47.04,44.3524114 46.17984,45.1716114 45.12,45.1716114 Z" id="Stroke-1" stroke="#000000"></path>
                        <path d="M47.04,14.0858971 L0.96,14.0858971 L0.96,6.77161143 C0.96,5.76224 1.82016,4.94304 2.88,4.94304 L45.12,4.94304 C46.17984,4.94304 47.04,5.76224 47.04,6.77161143 L47.04,14.0858971 Z" id="Fill-3" fill="#009688"></path>
                        <path d="M47.04,14.0858971 L0.96,14.0858971 L0.96,6.77161143 C0.96,5.76224 1.82016,4.94304 2.88,4.94304 L45.12,4.94304 C46.17984,4.94304 47.04,5.76224 47.04,6.77161143 L47.04,14.0858971 Z" id="Stroke-5" stroke="#000000" stroke-linecap="round" stroke-linejoin="round"></path>
                        <path d="M30.179904,19.5716114 L30.179904,41.5144686" id="Stroke-7" stroke="#000000" stroke-linecap="round" stroke-linejoin="round"></path>
                        <path d="M18.659904,41.5144686 L18.659904,19.5716114" id="Stroke-9" stroke="#000000" stroke-linecap="round" stroke-linejoin="round"></path>
                        <path d="M39.96,36.0287543 L8.88096,36.0287543" id="Stroke-11" stroke="#000000" stroke-linecap="round" stroke-linejoin="round"></path>
                        <path d="M8.88,25.0573257 L39.95904,25.0573257" id="Stroke-13" stroke="#000000" stroke-linecap="round" stroke-linejoin="round"></path>
                        <path d="M39,0.0772879464 L39,4.35789714" id="Stroke-15" stroke="#000000" stroke-linecap="round" stroke-linejoin="round"></path>
                        <path d="M8.88,0.152064732 L8.88,4.94304" id="Stroke-17" stroke="#000000" stroke-linecap="round" stroke-linejoin="round"></path>
                    </g>
                </g>
            </g>
            <g id="tick" transform="translate(35.000000, 30.000000)">
                <g id="Group">
                    <circle id="Oval" stroke="#000000" fill="#FFFFFF" cx="12" cy="12" r="11.5"></circle>
                    <g id="tick/black" transform="translate(7.000000, 8.000000)" stroke="#FE5246" stroke-linecap="round" stroke-linejoin="round" stroke-width="2">
                        <polyline id="Shape" points="11 0 3.11469534 8 0 4.84"></polyline>
                    </g>
                </g>
            </g>
        </g>
    </g>
</svg>