<?xml version="1.0" encoding="UTF-8"?>
<svg width="16px" height="16px" viewBox="0 0 16 16" version="1.1" xmlns="http://www.w3.org/2000/svg" xmlns:xlink="http://www.w3.org/1999/xlink">
    <!-- Generator: Sketch 52.2 (67145) - http://www.bohemiancoding.com/sketch -->
    <title>icon/diamond</title>
    <desc>Created with Sketch.</desc>
    <g id="icon/diamond" stroke="none" stroke-width="1" fill="none" fill-rule="evenodd">
        <g id="diamond" fill="#E4A500" fill-rule="nonzero">
            <path d="M13.4188596,0.204260652 C13.3460213,0.085056401 13.216322,0.0123746967 13.0767544,0.0123746967 L2.90789474,0.0123746967 C2.76817043,0.0123746967 2.63862781,0.085056401 2.56578947,0.204260652 L0.0588972431,4.30498121 C-0.0249060251,4.44204263 -0.0187969925,4.61591479 0.0744047719,4.74686717 L7.63251882,15.3577694 L7.63518171,15.3654449 L7.63753135,15.3646617 L7.68781329,15.435307 C7.76300126,15.5408834 7.88471178,15.6036968 8.01441103,15.6036968 L8.01488096,15.6036968 C8.14473684,15.6035401 8.26660403,15.5404135 8.34163533,15.4343672 L8.39160401,15.3638785 L8.39379697,15.364505 L8.39645991,15.3568296 L15.9108709,4.7459273 C16.0034461,4.61513159 16.0093985,4.44172932 15.9257519,4.30498121 L13.4188596,0.204260652 Z M8.89379697,0.814379709 L12.5161341,0.814379709 L11.5211466,3.72728698 L8.89379697,0.814379709 Z M10.7861842,4.10980575 L5.23214284,4.10980575 L7.99389097,1.01409772 L10.7861842,4.10980575 Z M4.48229951,3.74577067 L3.47290101,0.814536341 L7.09758773,0.814536341 L4.48229951,3.74577067 Z M3.75955513,4.10980575 L1.11810775,4.10980575 L2.80764411,1.34617792 L3.75955513,4.10980575 Z M11.116698,4.91181077 L8.01300126,13.9987469 L4.88392858,4.91212407 L11.116698,4.91181077 Z M13.1802945,1.35134713 L14.8665414,4.10980575 L12.2379386,4.10980575 L13.1802945,1.35134713 Z M1.17669173,4.91181077 L4.03555765,4.91181077 L6.71099625,12.6817043 L1.17669173,4.91181077 Z M11.9639724,4.91181077 L14.8106203,4.91181077 L9.31203008,12.6763785 L11.9639724,4.91181077 Z" id="Shape"></path>
        </g>
    </g>
</svg>