<svg xmlns="http://www.w3.org/2000/svg" viewBox="0 0 29 23.54"><defs/><title>Disney_land_icon</title><g id="Layer_2"><g id="Disney_land"><path class="cls-desney1" d="M23.56.5a4.89,4.89,0,0,0-4.94,4.83,4.73,4.73,0,0,0,.12,1,9.22,9.22,0,0,0-8.47,0,4.73,4.73,0,0,0,.12-1A4.89,4.89,0,0,0,5.44.5,4.89,4.89,0,0,0,.5,5.33a4.89,4.89,0,0,0,4.94,4.83A5,5,0,0,0,6.5,10a8.65,8.65,0,0,0-1.05,4.14A9,9,0,0,0,14.5,23a9,9,0,0,0,9.06-8.85A8.65,8.65,0,0,0,22.5,10a5,5,0,0,0,1.05.12A4.89,4.89,0,0,0,28.5,5.33,4.89,4.89,0,0,0,23.56.5Z" style="fill: none; stroke: #000; stroke-linecap: round; stroke-linejoin: round;"/><ellipse class="cls-desney2" cx="14.55" cy="17.2" rx="1.95" ry="1.23" style="fill: #009688;"/></g></g></svg>
