<svg xmlns="http://www.w3.org/2000/svg" viewBox="0 0 27.14 24.66"><defs/><title>DJ_icon</title><g id="Layer_2"><g id="DJ"><path d="M14.95,8.83"/><path d="M11.44,12.21"/><path class="cls-dj1" d="M17.18,21A11,11,0,1,1,21.79,7.53" style="fill: none; stroke: #000; stroke-linecap: round; stroke-linejoin: round;"/><path class="cls-dj1" d="M3.48,11.52a7.94,7.94,0,0,1,7.94-7.94" style="fill: none; stroke: #000; stroke-linecap: round; stroke-linejoin: round;"/><path class="cls-dj1" d="M22.75,8.15l0,0h0l-.05,0h0l-.06,0h0L22.5,8h0l-.07,0h0l-.07,0h0l-.08,0h0l-.07,0h0l-.08,0h-.19A1.26,1.26,0,0,0,20.61,9h0a1.26,1.26,0,0,0-1.76,1.16v2.36a1.26,1.26,0,0,0-1.76,1.16h0v5.65s0,.09,0,.13v.4h0l0,.12h0q0,.2.07.39l.23.73a4.77,4.77,0,0,0,9.2-1.79v-8a1.26,1.26,0,0,0-1.26-1.26h0a1.25,1.25,0,0,0-.5.1v-.6a1.26,1.26,0,0,0-1.26-1.26h0s-.63-.06-.84.29m3.13,10.72" style="fill: none; stroke: #000; stroke-linecap: round; stroke-linejoin: round;"/><line class="cls-dj1" x1="18.85" y1="12.58" x2="18.85" y2="16.94" style="fill: none; stroke: #000; stroke-linecap: round; stroke-linejoin: round;"/><line class="cls-dj1" x1="20.6" y1="9" x2="20.6" y2="15.28" style="fill: none; stroke: #000; stroke-linecap: round; stroke-linejoin: round;"/><line class="cls-dj1" x1="24.89" y1="10.12" x2="24.89" y2="15.16" style="fill: none; stroke: #000; stroke-linecap: round; stroke-linejoin: round;"/><line class="cls-dj1" x1="22.75" y1="8.15" x2="22.73" y2="14" style="fill: none; stroke: #000; stroke-linecap: round; stroke-linejoin: round;"/><circle class="cls-dj2" cx="11.52" cy="11.52" r="3.99" style="stroke: #000; stroke-linecap: round; stroke-linejoin: round; fill: #009688;"/></g></g></svg>
