<?xml version="1.0" encoding="UTF-8"?>
<svg width="24px" height="24px" viewBox="0 0 24 24" version="1.1" xmlns="http://www.w3.org/2000/svg" xmlns:xlink="http://www.w3.org/1999/xlink">
    <!-- Generator: Sketch 53 (72520) - https://sketchapp.com -->
    <title>Icon/Download Voucher</title>
    <desc>Created with Sketch.</desc>
    <defs>
        <polygon id="path-1" points="0 0.0002 17.938 0.0002 17.938 22 0 22"></polygon>
    </defs>
    <g id="Icon/Download-Voucher" stroke="none" stroke-width="1" fill="none" fill-rule="evenodd">
        <g id="Group-19" transform="translate(3.000000, 1.000000)">
            <g id="Group-3">
                <mask id="mask-2" fill="white">
                    <use xlink:href="#path-1"></use>
                </mask>
                <g id="Clip-2"></g>
                <path d="M15.957,22.0002 L1.982,22.0002 C0.889,22.0002 0,21.1112 0,20.0182 L0,1.9812 C0,0.8892 0.889,0.0002 1.982,0.0002 L11.902,0.0002 C12.167,0.0002 12.381,0.2142 12.381,0.4782 C12.381,0.7422 12.167,0.9572 11.902,0.9572 L1.982,0.9572 C1.416,0.9572 0.957,1.4162 0.957,1.9812 L0.957,20.0182 C0.957,20.5832 1.416,21.0432 1.982,21.0432 L15.957,21.0432 C16.522,21.0432 16.981,20.5832 16.981,20.0182 L16.981,8.5682 C16.981,8.3042 17.195,8.0902 17.46,8.0902 C17.724,8.0902 17.938,8.3042 17.938,8.5682 L17.938,20.0182 C17.938,21.1112 17.049,22.0002 15.957,22.0002" id="Fill-1" fill="#000000" mask="url(#mask-2)"></path>
            </g>
            <path d="M7.7588,4.7141 L2.6498,4.7141 C2.3858,4.7141 2.1718,4.5001 2.1718,4.2351 C2.1718,3.9711 2.3858,3.7571 2.6498,3.7571 L7.7588,3.7571 C8.0228,3.7571 8.2368,3.9711 8.2368,4.2351 C8.2368,4.5001 8.0228,4.7141 7.7588,4.7141" id="Fill-4" fill="#009688"></path>
            <path d="M6.957,8.4909 L2.65,8.4909 C2.386,8.4909 2.172,8.2769 2.172,8.0129 C2.172,7.7479 2.386,7.5339 2.65,7.5339 L6.957,7.5339 C7.221,7.5339 7.435,7.7479 7.435,8.0129 C7.435,8.2769 7.221,8.4909 6.957,8.4909" id="Fill-6" fill="#009688"></path>
            <path d="M14.3706,12.2678 L2.6496,12.2678 C2.3856,12.2678 2.1716,12.0538 2.1716,11.7888 C2.1716,11.5248 2.3856,11.3108 2.6496,11.3108 L14.3706,11.3108 C14.6356,11.3108 14.8496,11.5248 14.8496,11.7888 C14.8496,12.0538 14.6356,12.2678 14.3706,12.2678" id="Fill-8" fill="#009688"></path>
            <path d="M10.8677,16.0446 L2.6497,16.0446 C2.3857,16.0446 2.1717,15.8306 2.1717,15.5656 C2.1717,15.3016 2.3857,15.0876 2.6497,15.0876 L10.8677,15.0876 C11.1317,15.0876 11.3457,15.3016 11.3457,15.5656 C11.3457,15.8306 11.1317,16.0446 10.8677,16.0446" id="Fill-10" fill="#009688"></path>
        </g>
        <g id="Group-39" transform="translate(16.000000, 1.000000)" stroke="#000000" stroke-linecap="round" stroke-linejoin="round">
            <path d="M1,2.49999508 L5,2.50000492" id="Stroke-1" transform="translate(3.000000, 2.500000) scale(-1, 1) rotate(-270.000000) translate(-3.000000, -2.500000) "></path>
            <polyline id="Path-2" transform="translate(3.000000, 4.500000) scale(1, -1) rotate(-270.000000) translate(-3.000000, -4.500000) " points="4 2 2 4.46902396 3.95355828 7"></polyline>
        </g>
    </g>
</svg>