<svg xmlns="http://www.w3.org/2000/svg" viewBox="0 0 11.17 25"><defs/><title>Drinks_icon</title><g id="Layer_2"><g id="Drinks"><path class="cls-drinkicon1" d="M.67,10.64a5,5,0,0,0,5,5h0a5,5,0,0,0,5-5V8.24c-1.25,0-1.25-2-2.5-2s-1.25,2-2.5,2-1.25-2-2.5-2-1.25,2-2.5,2Z" style="fill: #009688;"/><path class="cls-drinkicon2" d="M.54,10.64.5,1.5a1,1,0,0,1,1-1h8a1,1,0,0,1,1,1l0,9.15a5,5,0,0,1-5,5h0A5,5,0,0,1,.54,10.64Z" style="fill: none; stroke: #000; stroke-linecap: round; stroke-linejoin: round;"/><line class="cls-drinkicon2" x1="5.54" y1="15.64" x2="5.54" y2="24.5" style="fill: none; stroke: #000; stroke-linecap: round; stroke-linejoin: round;"/><line class="cls-drinkicon2" x1="0.65" y1="24.5" x2="10.67" y2="24.5" style="fill: none; stroke: #000; stroke-linecap: round; stroke-linejoin: round;"/><path class="cls-drinkicon2" d="M10.58,8C9.33,8.08,9.25,6.08,8,6.14S6.84,8.19,5.59,8.24,4.25,6.3,3,6.35,1.84,8.4.59,8.46" style="fill: none; stroke: #000; stroke-linecap: round; stroke-linejoin: round;"/></g></g></svg>
