<?xml version="1.0" encoding="UTF-8"?>
<svg width="21px" height="22px" viewBox="0 0 21 22" version="1.1" xmlns="http://www.w3.org/2000/svg" xmlns:xlink="http://www.w3.org/1999/xlink">
    <!-- Generator: Sketch 63.1 (92452) - https://sketch.com -->
    <title>Icons/Actionable/Edit/Dual Tone</title>
    <desc>Created with Sketch.</desc>
    <g id="Page-1" stroke="none" stroke-width="1" fill="none" fill-rule="evenodd">
        <g id="Icons/Actionable/Edit/Dual-Tone" transform="translate(-2.000000, -1.000000)">
            <g id="Group-18">
                <g>
                    <g id="Group-12" transform="translate(2.000000, 1.000150)">
                        <path d="M17.9033,7.36745 L12.7983,2.26245 L13.9963,1.06345 C14.7443,0.31545 15.9563,0.31545 16.7043,1.06345 L19.1023,3.46045 C19.8493,4.20845 19.8493,5.42045 19.1023,6.16845 L17.9033,7.36745 Z" id="Fill-1" fill="#009688"></path>
                        <path d="M15.3501,0.93625 C14.9961,0.93625 14.6631,1.07325 14.4121,1.32425 L2.6061,13.13025 C2.5471,13.18925 2.5071,13.26425 2.4911,13.34625 L1.5331,18.13325 C1.5051,18.27425 1.5471,18.41425 1.6491,18.51625 C1.7511,18.61825 1.8881,18.66125 2.0321,18.63225 L6.8181,17.67525 C6.9001,17.65825 6.9751,17.61825 7.0351,17.55925 L18.8411,5.75225 C19.3581,5.23525 19.3581,4.39425 18.8411,3.87625 L16.2881,1.32425 C16.0371,1.07325 15.7041,0.93625 15.3501,0.93625 L15.3501,0.93625 Z M1.9471,19.59825 C1.5851,19.59825 1.2341,19.45525 0.9731,19.19325 C0.6441,18.86625 0.5031,18.40025 0.5941,17.94525 L1.5521,13.15925 C1.6041,12.89225 1.7351,12.64725 1.9301,12.45325 L13.7351,0.64725 C14.5991,-0.21575 16.1031,-0.21575 16.9651,0.64725 L19.5181,3.20025 C20.4091,4.09025 20.4091,5.53925 19.5181,6.42925 L7.7111,18.23625 C7.5181,18.42925 7.2741,18.56025 7.0071,18.61325 L7.0061,18.61325 L2.2201,19.57025 C2.1291,19.58925 2.0371,19.59825 1.9471,19.59825 L1.9471,19.59825 Z" id="Fill-3" fill="#000000"></path>
                        <path d="M17.9033,7.84595 C17.7803,7.84595 17.6583,7.79895 17.5653,7.70595 L12.4593,2.59995 C12.2723,2.41295 12.2723,2.11095 12.4593,1.92395 C12.6463,1.73695 12.9493,1.73695 13.1363,1.92395 L18.2413,7.02895 C18.4283,7.21595 18.4283,7.51895 18.2413,7.70595 C18.1483,7.79895 18.0263,7.84595 17.9033,7.84595" id="Fill-5" fill="#000000"></path>
                        <path d="M5.8564,15.56665 C5.7334,15.56665 5.6114,15.51965 5.5184,15.42565 C5.3314,15.23865 5.3314,14.93665 5.5184,14.74965 L13.5484,6.71865 C13.7354,6.53165 14.0384,6.53165 14.2254,6.71865 C14.4124,6.90565 14.4124,7.20865 14.2254,7.39565 L6.1944,15.42565 C6.1014,15.51965 5.9794,15.56665 5.8564,15.56665" id="Fill-7" fill="#000000"></path>
                        <g id="Group-11" transform="translate(0.000000, 20.999850)" fill="#000000">
                            <path d="M20.0332,0.9999 L0.4792,0.9999 C0.2142,0.9999 0.0002,0.7859 0.0002,0.5209 C0.0002,0.2569 0.2142,0.0419 0.4792,0.0419 L20.0332,0.0419 C20.2982,0.0419 20.5122,0.2569 20.5122,0.5209 C20.5122,0.7859 20.2982,0.9999 20.0332,0.9999" id="Fill-9"></path>
                        </g>
                    </g>
                    <rect id="Rectangle" x="0" y="0" width="24" height="24"></rect>
                </g>
            </g>
        </g>
    </g>
</svg>