<svg xmlns="http://www.w3.org/2000/svg" viewBox="0 0 27.78 21"><defs/><title>Evening Snacks_icon</title><g id="Layer_2"><g id="Evening_Snacks"><line class="cls-evesnacks1" x1="11.24" y1="11.78" x2="2.51" y2="11.78" style="fill: none; stroke: #009688; stroke-linecap: round; stroke-linejoin: round;"/><path class="cls-evesnacks2" d="M14.55,13.42a3.53,3.53,0,0,1,3.74-3.26h4.58a3.53,3.53,0,0,1,3.74,3.26" style="fill: none; stroke-linecap: round; stroke: #000; stroke-miterlimit: 10;"/><path class="cls-evesnacks2" d="M14.55,17.17a3.53,3.53,0,0,0,3.74,3.26h4.58a3.53,3.53,0,0,0,3.74-3.26" style="fill: none; stroke-linecap: round; stroke: #000; stroke-miterlimit: 10;"/><path class="cls-evesnacks1" d="M13.88,15.39a2.05,2.05,0,0,1,2.62,0l.06,0a2.05,2.05,0,0,0,2.62,0l.06,0a2.05,2.05,0,0,1,2.62,0l.06,0a2.05,2.05,0,0,0,2.62,0l.06,0a2.05,2.05,0,0,1,2.62,0l.06,0" style="fill: none; stroke: #009688; stroke-linecap: round; stroke-linejoin: round;"/><ellipse cx="18.93" cy="13.07" rx="0.59" ry="0.58"/><ellipse cx="22.23" cy="13.07" rx="0.59" ry="0.58"/><ellipse cx="18.93" cy="17.75" rx="0.59" ry="0.58"/><ellipse cx="22.23" cy="18.55" rx="0.59" ry="0.58"/><polygon class="cls-evesnacks3" points="10.21 20.5 3.55 20.5 1.88 6.46 11.88 6.46 10.21 20.5" style="fill: none; stroke-linejoin: round; stroke: #000;"/><path class="cls-evesnacks4" d="M6.88,6.09V1.76A1.27,1.27,0,0,1,8.15.5H9.86" style="fill: none; stroke-linecap: round; stroke-linejoin: round; stroke: #000;"/><line class="cls-evesnacks4" x1="13.26" y1="6.46" x2="0.5" y2="6.46" style="fill: none; stroke-linecap: round; stroke-linejoin: round; stroke: #000;"/></g></g></svg>
