<?xml version="1.0" encoding="UTF-8"?>
<svg width="24px" height="21px" viewBox="0 0 24 21" version="1.1" xmlns="http://www.w3.org/2000/svg" xmlns:xlink="http://www.w3.org/1999/xlink">
    <!-- Generator: Sketch 54.1 (76490) - https://sketchapp.com -->
    <title>Family_white@1.5x</title>
    <desc>Created with Sketch.</desc>
    <g id="Page-1" stroke="none" stroke-width="1" fill="none" fill-rule="evenodd">
        <g id="Family_white" fill="#FFFFFF">
            <path d="M3.11113439,4.24478176 C3.32383338,4.53610723 3.61156692,4.76749232 3.94501635,4.9090636 C3.60440851,5.60253975 2.89623547,6.0801 2.0807,6.0801 C0.9337,6.0801 -0.0003,5.1371 -0.0003,3.9771 C-0.0003,2.8181 0.9337,1.8751 2.0807,1.8751 C2.39526201,1.8751 2.69385129,1.94614851 2.96153639,2.07321069 C2.8073059,2.36066745 2.7196,2.69015793 2.7196,3.0401 C2.7196,3.06368532 2.7199984,3.08717773 2.72078872,3.11057064 C2.54259861,2.97285464 2.32079844,2.8911 2.0807,2.8911 C1.4937,2.8911 1.0167,3.3781 1.0167,3.9771 C1.0167,4.5771 1.4937,5.0641 2.0807,5.0641 C2.57649552,5.0641 2.99426556,4.71549073 3.11113439,4.24478176 Z" id="Combined-Shape"></path>
            <path d="M12.0602,8.017 C11.0192,8.017 10.1722,8.879 10.1722,9.939 C10.1722,10.999 11.0192,11.862 12.0602,11.862 C13.1012,11.862 13.9482,10.999 13.9482,9.939 C13.9482,8.879 13.1012,8.017 12.0602,8.017 M12.0602,12.98 C10.4032,12.98 9.0542,11.616 9.0542,9.939 C9.0542,8.263 10.4032,6.899 12.0602,6.899 C13.7172,6.899 15.0652,8.263 15.0652,9.939 C15.0652,11.616 13.7172,12.98 12.0602,12.98" id="Fill-8"></path>
            <path d="M9.1657,19.7289 L14.8327,19.7289 L14.8327,17.8149 C14.8327,16.2529 13.5627,14.9819 12.0007,14.9819 C10.4367,14.9819 9.1657,16.2529 9.1657,17.8149 L9.1657,19.7289 Z M15.3417,20.7459 L8.6577,20.7459 C8.3767,20.7459 8.1487,20.5179 8.1487,20.2369 L8.1487,17.8149 C8.1487,15.6929 9.8777,13.9659 12.0007,13.9659 C14.1227,13.9659 15.8497,15.6929 15.8497,17.8149 L15.8497,20.2369 C15.8497,20.5179 15.6217,20.7459 15.3417,20.7459 L15.3417,20.7459 Z" id="Fill-10"></path>
            <path d="M4.7086,1.0161 C3.6116,1.0161 2.7196,1.9241 2.7196,3.0401 C2.7196,4.1561 3.6116,5.0641 4.7086,5.0641 C5.8046,5.0641 6.6966,4.1561 6.6966,3.0401 C6.6966,1.9241 5.8046,1.0161 4.7086,1.0161 M4.7086,6.0801 C3.0516,6.0801 1.7026,4.7161 1.7026,3.0401 C1.7026,1.3641 3.0516,0.0001 4.7086,0.0001 C6.3646,0.0001 7.7126,1.3641 7.7126,3.0401 C7.7126,4.7161 6.3646,6.0801 4.7086,6.0801" id="Fill-15"></path>
            <path d="M6.9489,20.7455 L0.5089,20.7455 C0.2269,20.7455 -0.0001,20.5175 -0.0001,20.2375 L-0.0001,11.9865 C-0.0001,9.4315 2.0799,7.3525 4.6349,7.3525 C6.0159,7.3525 7.3169,7.9635 8.1999,9.0275 C8.3799,9.2435 8.3499,9.5645 8.1339,9.7435 C7.9189,9.9225 7.5969,9.8945 7.4179,9.6775 C6.7279,8.8455 5.7139,8.3695 4.6349,8.3695 C2.6389,8.3695 1.0159,9.9915 1.0159,11.9865 L1.0159,19.7285 L6.9489,19.7285 C7.2289,19.7285 7.4569,19.9565 7.4569,20.2375 C7.4569,20.5175 7.2289,20.7455 6.9489,20.7455" id="Fill-17"></path>
            <path d="M19.4411,1.0161 C18.3441,1.0161 17.4531,1.9241 17.4531,3.0401 C17.4531,4.1561 18.3441,5.0641 19.4411,5.0641 C20.5371,5.0641 21.4281,4.1561 21.4281,3.0401 C21.4281,1.9241 20.5371,1.0161 19.4411,1.0161 M19.4411,6.0801 C17.7841,6.0801 16.4361,4.7161 16.4361,3.0401 C16.4361,1.3641 17.7841,0.0001 19.4411,0.0001 C21.0981,0.0001 22.4451,1.3641 22.4451,3.0401 C22.4451,4.7161 21.0981,6.0801 19.4411,6.0801" id="Fill-22"></path>
            <path d="M23.4918,20.7455 L16.9978,20.7455 C16.7168,20.7455 16.4898,20.5175 16.4898,20.2375 C16.4898,19.9565 16.7168,19.7285 16.9978,19.7285 L22.9838,19.7285 L22.9838,11.9865 C22.9838,9.9915 21.3608,8.3695 19.3668,8.3695 C18.3488,8.3695 17.3728,8.8015 16.6878,9.5545 C16.4988,9.7625 16.1798,9.7775 15.9698,9.5885 C15.7628,9.3995 15.7478,9.0785 15.9358,8.8705 C16.8128,7.9065 18.0638,7.3525 19.3668,7.3525 C21.9218,7.3525 23.9998,9.4315 23.9998,11.9865 L23.9998,20.2375 C23.9998,20.5175 23.7728,20.7455 23.4918,20.7455" id="Fill-24"></path>
        </g>
    </g>
</svg>