<?xml version="1.0" encoding="UTF-8"?>
<svg width="24px" height="24px" viewBox="0 0 24 24" version="1.1" xmlns="http://www.w3.org/2000/svg" xmlns:xlink="http://www.w3.org/1999/xlink">
    <!-- Generator: Sketch 53.2 (72643) - https://sketchapp.com -->
    <title>icon/family</title>
    <desc>Created with Sketch.</desc>
    <defs>
        <polygon id="path-1" points="0 0.1296 4.1607 0.1296 4.1607 4.3346 0 4.3346"></polygon>
        <polygon id="path-3" points="0.1487 0.2204 7.8497 0.2204 7.8497 7 0.1487 7"></polygon>
        <polygon id="path-5" points="0 0.607 8.3175765 0.607 8.3175765 14 0 14"></polygon>
    </defs>
    <g id="icon/family" stroke="none" stroke-width="1" fill="none" fill-rule="evenodd">
        <g id="Group-26" transform="translate(0.000000, 3.000000)">
            <path d="M3.652,3.9775 C3.652,4.8585 2.949,5.5715 2.081,5.5715 C1.212,5.5715 0.507,4.8585 0.507,3.9775 C0.507,3.0965 1.212,2.3835 2.081,2.3835 C2.949,2.3835 3.652,3.0965 3.652,3.9775" id="Fill-1" fill="#009688"></path>
            <g id="Group-5" transform="translate(0.000000, 1.745500)">
                <mask id="mask-2" fill="white">
                    <use xlink:href="#path-1"></use>
                </mask>
                <g id="Clip-4"></g>
                <path d="M2.0807,1.1456 C1.4937,1.1456 1.0167,1.6326 1.0167,2.2316 C1.0167,2.8316 1.4937,3.3186 2.0807,3.3186 C2.6667,3.3186 3.1437,2.8316 3.1437,2.2316 C3.1437,1.6326 2.6667,1.1456 2.0807,1.1456 M2.0807,4.3346 C0.9337,4.3346 -0.0003,3.3916 -0.0003,2.2316 C-0.0003,1.0726 0.9337,0.1296 2.0807,0.1296 C3.2267,0.1296 4.1607,1.0726 4.1607,2.2316 C4.1607,3.3916 3.2267,4.3346 2.0807,4.3346" id="Fill-3" fill="#000000" mask="url(#mask-2)"></path>
            </g>
            <path d="M14.5065,9.9399 C14.5065,11.3109 13.4115,12.4209 12.0605,12.4209 C10.7085,12.4209 9.6125,11.3109 9.6125,9.9399 C9.6125,8.5689 10.7085,7.4589 12.0605,7.4589 C13.4115,7.4589 14.5065,8.5689 14.5065,9.9399" id="Fill-6" fill="#009688"></path>
            <path d="M12.0602,8.017 C11.0192,8.017 10.1722,8.879 10.1722,9.939 C10.1722,10.999 11.0192,11.862 12.0602,11.862 C13.1012,11.862 13.9482,10.999 13.9482,9.939 C13.9482,8.879 13.1012,8.017 12.0602,8.017 M12.0602,12.98 C10.4032,12.98 9.0542,11.616 9.0542,9.939 C9.0542,8.263 10.4032,6.899 12.0602,6.899 C13.7172,6.899 15.0652,8.263 15.0652,9.939 C15.0652,11.616 13.7172,12.98 12.0602,12.98" id="Fill-8" fill="#000000"></path>
            <g id="Group-12" transform="translate(8.000000, 13.745500)">
                <mask id="mask-4" fill="white">
                    <use xlink:href="#path-3"></use>
                </mask>
                <g id="Clip-11"></g>
                <path d="M1.1657,5.9834 L6.8327,5.9834 L6.8327,4.0694 C6.8327,2.5074 5.5627,1.2364 4.0007,1.2364 C2.4367,1.2364 1.1657,2.5074 1.1657,4.0694 L1.1657,5.9834 Z M7.3417,7.0004 L0.6577,7.0004 C0.3767,7.0004 0.1487,6.7724 0.1487,6.4914 L0.1487,4.0694 C0.1487,1.9474 1.8777,0.2204 4.0007,0.2204 C6.1227,0.2204 7.8497,1.9474 7.8497,4.0694 L7.8497,6.4914 C7.8497,6.7724 7.6217,7.0004 7.3417,7.0004 L7.3417,7.0004 Z" id="Fill-10" fill="#000000" mask="url(#mask-4)"></path>
            </g>
            <path d="M7.2047,3.04 C7.2047,4.438 6.0867,5.572 4.7087,5.572 C3.3287,5.572 2.2117,4.438 2.2117,3.04 C2.2117,1.642 3.3287,0.508 4.7087,0.508 C6.0867,0.508 7.2047,1.642 7.2047,3.04" id="Fill-13" fill="#009688"></path>
            <path d="M4.7086,1.0161 C3.6116,1.0161 2.7196,1.9241 2.7196,3.0401 C2.7196,4.1561 3.6116,5.0641 4.7086,5.0641 C5.8046,5.0641 6.6966,4.1561 6.6966,3.0401 C6.6966,1.9241 5.8046,1.0161 4.7086,1.0161 M4.7086,6.0801 C3.0516,6.0801 1.7026,4.7161 1.7026,3.0401 C1.7026,1.3641 3.0516,0.0001 4.7086,0.0001 C6.3646,0.0001 7.7126,1.3641 7.7126,3.0401 C7.7126,4.7161 6.3646,6.0801 4.7086,6.0801" id="Fill-15" fill="#000000"></path>
            <g id="Group-19" transform="translate(0.000000, 6.745500)">
                <mask id="mask-6" fill="white">
                    <use xlink:href="#path-5"></use>
                </mask>
                <g id="Clip-18"></g>
                <path d="M6.9489,14 L0.5089,14 C0.2269,14 -0.0001,13.772 -0.0001,13.492 L-0.0001,5.241 C-0.0001,2.686 2.0799,0.607 4.6349,0.607 C6.0159,0.607 7.3169,1.218 8.1999,2.282 C8.3799,2.498 8.3499,2.819 8.1339,2.998 C7.9189,3.177 7.5969,3.149 7.4179,2.932 C6.7279,2.1 5.7139,1.624 4.6349,1.624 C2.6389,1.624 1.0159,3.246 1.0159,5.241 L1.0159,12.983 L6.9489,12.983 C7.2289,12.983 7.4569,13.211 7.4569,13.492 C7.4569,13.772 7.2289,14 6.9489,14" id="Fill-17" fill="#000000" mask="url(#mask-6)"></path>
            </g>
            <path d="M21.9371,3.04 C21.9371,4.438 20.8191,5.572 19.4411,5.572 C18.0611,5.572 16.9441,4.438 16.9441,3.04 C16.9441,1.642 18.0611,0.508 19.4411,0.508 C20.8191,0.508 21.9371,1.642 21.9371,3.04" id="Fill-20" fill="#009688"></path>
            <path d="M19.4411,1.0161 C18.3441,1.0161 17.4531,1.9241 17.4531,3.0401 C17.4531,4.1561 18.3441,5.0641 19.4411,5.0641 C20.5371,5.0641 21.4281,4.1561 21.4281,3.0401 C21.4281,1.9241 20.5371,1.0161 19.4411,1.0161 M19.4411,6.0801 C17.7841,6.0801 16.4361,4.7161 16.4361,3.0401 C16.4361,1.3641 17.7841,0.0001 19.4411,0.0001 C21.0981,0.0001 22.4451,1.3641 22.4451,3.0401 C22.4451,4.7161 21.0981,6.0801 19.4411,6.0801" id="Fill-22" fill="#000000"></path>
            <path d="M23.4918,20.7455 L16.9978,20.7455 C16.7168,20.7455 16.4898,20.5175 16.4898,20.2375 C16.4898,19.9565 16.7168,19.7285 16.9978,19.7285 L22.9838,19.7285 L22.9838,11.9865 C22.9838,9.9915 21.3608,8.3695 19.3668,8.3695 C18.3488,8.3695 17.3728,8.8015 16.6878,9.5545 C16.4988,9.7625 16.1798,9.7775 15.9698,9.5885 C15.7628,9.3995 15.7478,9.0785 15.9358,8.8705 C16.8128,7.9065 18.0638,7.3525 19.3668,7.3525 C21.9218,7.3525 23.9998,9.4315 23.9998,11.9865 L23.9998,20.2375 C23.9998,20.5175 23.7728,20.7455 23.4918,20.7455" id="Fill-24" fill="#000000"></path>
        </g>
    </g>
</svg>