<?xml version="1.0" encoding="UTF-8"?>
<svg width="17px" height="19px" viewBox="0 0 17 19" version="1.1" xmlns="http://www.w3.org/2000/svg" xmlns:xlink="http://www.w3.org/1999/xlink">
    <!-- Generator: Sketch 43.1 (39012) - http://www.bohemiancoding.com/sketch -->
    <title>FAQ_icon</title>
    <desc>Created with Sketch.</desc>
    <defs/>
    <g id="Welcome" stroke="none" stroke-width="1" fill="none" fill-rule="evenodd">
        <g id="Side_Menu" transform="translate(-16.000000, -530.000000)">
            <g id="Group-14" transform="translate(0.000000, 24.000000)">
                <g id="Login" transform="translate(0.000000, 339.000000)">
                    <g id="Faq" transform="translate(16.000000, 168.000000)">
                        <g id="FAQ_icon">
                            <rect id="Rectangle-9" x="0" y="0" width="18" height="18"/>
                            <g id="Page-1" transform="translate(1.000000, 0.000000)">
                                <path d="M13.525992,0.359928 L2.007432,0.359928 C1.099512,0.359928 0.360072,1.099368 0.360072,2.008008 L0.360072,13.525848 C0.360072,14.430168 1.099512,15.168168 2.007432,15.168168 L5.297832,15.168168 L7.764552,17.639928 L10.235592,15.168168 L13.525992,15.168168 C14.429592,15.168168 15.168312,14.430168 15.168312,13.525848 L15.168312,2.008008 C15.168312,1.099368 14.429592,0.359928 13.525992,0.359928 Z" id="Stroke-1" stroke="#000000" stroke-linecap="round" stroke-linejoin="round"/>
                                <path d="M7.08012,9.721368 C6.8814,9.721368 6.72012,9.560088 6.72012,9.361368 L6.72012,9.196488 C6.72012,8.667288 6.81012,8.236008 6.99588,7.876728 C7.1658,7.523928 7.63092,7.012728 8.45388,6.277608 L8.56188,6.147288 C8.7138,5.962248 8.793,5.757048 8.793,5.545368 C8.793,5.261688 8.71524,5.036328 8.56188,4.875048 C8.41788,4.730328 8.19252,4.656888 7.88076,4.656888 C7.36452,4.656888 7.16724,4.842648 7.06356,4.982328 C6.91524,5.183208 6.83964,5.503608 6.83964,5.934168 C6.83964,6.132888 6.67836,6.294168 6.47964,6.294168 L5.13684,6.294168 C4.93812,6.294168 4.77684,6.132888 4.77684,5.934168 C4.77684,4.956408 5.07204,4.179528 5.6538,3.624408 C6.22476,3.067128 7.00236,2.782728 7.96356,2.782728 C8.82972,2.782728 9.53748,3.023928 10.06524,3.499128 C10.61172,3.977928 10.89108,4.639608 10.89108,5.462568 C10.89108,6.118488 10.72044,6.677928 10.38276,7.127208 C10.18908,7.346088 9.63468,7.837128 9.32004,8.112888 C9.14796,8.246808 9.02412,8.399448 8.9334,8.580168 C8.8398,8.766648 8.79444,8.968248 8.79444,9.196488 L8.79444,9.361368 C8.79444,9.560088 8.63388,9.721368 8.43444,9.721368 L7.08012,9.721368 Z M7.75188,13.516488 C7.40772,13.516488 7.09956,13.390488 6.86124,13.152168 C6.61716,12.939768 6.48468,12.634488 6.48468,12.261528 C6.48468,11.888568 6.61716,11.583288 6.87852,11.355048 C7.09524,11.136888 7.39476,11.018088 7.75188,11.018088 C8.10252,11.018088 8.41572,11.137608 8.65692,11.362968 C8.90388,11.609928 9.02988,11.917368 9.02988,12.261528 C9.02988,12.607848 8.901,12.928968 8.66628,13.163688 C8.38908,13.407048 8.09604,13.516488 7.75188,13.516488 L7.75188,13.516488 Z" id="Fill-3" fill="#009688"/>
                                <path d="M7.751592,10.658304 C7.310952,10.658304 6.921432,10.810944 6.623352,11.099664 C6.297192,11.394144 6.124392,11.795904 6.124392,12.261744 C6.124392,12.728304 6.296472,13.129344 6.623352,13.423104 C6.927912,13.719744 7.317432,13.876704 7.751592,13.876704 C8.180712,13.876704 8.561592,13.733424 8.884872,13.451904 C8.897112,13.441104 8.909352,13.430304 8.920872,13.418064 C9.223272,13.114944 9.390312,12.704544 9.390312,12.261744 C9.390312,11.820384 9.227592,11.423664 8.920152,11.116944 C8.593272,10.810944 8.195832,10.658304 7.751592,10.658304 M7.963272,2.422944 C6.904872,2.422944 6.042312,2.741184 5.399352,3.369744 C4.749912,3.989664 4.417272,4.854384 4.417272,5.933664 C4.417272,6.331824 4.739112,6.653664 5.137272,6.653664 L6.479352,6.653664 C6.877512,6.653664 7.199352,6.331824 7.199352,5.933664 C7.199352,5.591664 7.254072,5.330304 7.352712,5.196384 C7.392312,5.143104 7.485912,5.017104 7.881192,5.017104 C8.089272,5.017104 8.234712,5.057424 8.313912,5.135904 C8.334072,5.156784 8.432712,5.261184 8.432712,5.545584 C8.432712,5.673744 8.381592,5.798304 8.277192,5.926464 L8.178552,6.040944 C7.329672,6.801984 6.863112,7.323984 6.667272,7.730064 C6.463512,8.123184 6.359832,8.608464 6.359832,9.196704 L6.359832,9.361584 C6.359832,9.759024 6.682392,10.081584 7.079832,10.081584 L8.434872,10.081584 C8.832312,10.081584 9.154872,9.759024 9.154872,9.361584 L9.154872,9.196704 C9.154872,9.025344 9.187272,8.876304 9.254952,8.741664 C9.321192,8.609184 9.411912,8.498304 9.523512,8.411184 C9.535032,8.402544 9.545832,8.393184 9.556632,8.383824 C9.949032,8.040384 10.453752,7.589664 10.630872,7.393104 C10.645272,7.377264 10.658232,7.360704 10.671192,7.343424 C11.055672,6.830784 11.250792,6.197904 11.250792,5.462784 C11.250792,4.531104 10.931112,3.778704 10.298952,3.225024 C9.709992,2.695104 8.921592,2.422944 7.963272,2.422944 M7.751592,11.378304 C8.010792,11.378304 8.234712,11.461104 8.411112,11.625984 C8.575992,11.790864 8.670312,12.002544 8.670312,12.261744 C8.670312,12.520944 8.575992,12.744144 8.411112,12.909744 C8.222472,13.073904 8.010792,13.156704 7.751592,13.156704 C7.492392,13.156704 7.280712,13.062384 7.115832,12.897504 C6.927192,12.732624 6.844392,12.520944 6.844392,12.261744 C6.844392,12.002544 6.927192,11.790864 7.115832,11.625984 C7.280712,11.461104 7.492392,11.378304 7.751592,11.378304 M7.963272,3.142944 C8.728632,3.142944 9.353592,3.343104 9.824472,3.767184 C10.295352,4.179024 10.530792,4.744944 10.530792,5.462784 C10.530792,6.052464 10.377432,6.534864 10.095192,6.911424 C9.989352,7.029504 9.648072,7.347024 9.082872,7.842384 C8.870472,8.006544 8.717112,8.207424 8.611272,8.419104 C8.493192,8.654544 8.434872,8.913744 8.434872,9.196704 L8.434872,9.361584 L7.079832,9.361584 L7.079832,9.196704 C7.079832,8.748864 7.151112,8.360784 7.315992,8.042544 C7.468632,7.724304 7.927992,7.229664 8.694072,6.546384 L8.835192,6.382224 C9.046872,6.122304 9.152712,5.840064 9.152712,5.545584 C9.152712,5.156784 9.035352,4.850784 8.822952,4.626864 C8.599752,4.402944 8.281512,4.297104 7.881192,4.297104 C7.375032,4.297104 7.009992,4.450464 6.774552,4.767984 C6.573672,5.038704 6.479352,5.427504 6.479352,5.933664 L5.137272,5.933664 C5.137272,5.063184 5.384232,4.379184 5.902632,3.885264 C6.408792,3.389904 7.092072,3.142944 7.963272,3.142944" id="Fill-5" fill="#000000"/>
                            </g>
                        </g>
                    </g>
                </g>
            </g>
        </g>
    </g>
</svg>
