<?xml version="1.0" encoding="UTF-8"?>
<svg width="10px" height="19px" viewBox="0 0 10 19" version="1.1" xmlns="http://www.w3.org/2000/svg" xmlns:xlink="http://www.w3.org/1999/xlink">
    <!-- Generator: Sketch 43.2 (39069) - http://www.bohemiancoding.com/sketch -->
    <title>FB_icon</title>
    <desc>Created with Sketch.</desc>
    <defs/>
    <g id="Welcome" stroke="none" stroke-width="1" fill="none" fill-rule="evenodd">
        <g id="SignUp" transform="translate(-32.000000, -94.000000)" fill="#FFFFFF">
            <g id="Social_Login" transform="translate(16.000000, 80.000000)">
                <g id="Bg-+-Sign-in-with-Faceboo">
                    <path d="M16,20.2511111 L18.089173,20.2511111 L18.089173,18.3522222 C18.089173,17.5144444 18.1117522,16.2233333 18.7629848,15.4233333 C19.447492,14.5755556 20.3886894,14 22.0060753,14 C24.6419034,14 25.7518508,14.3511111 25.7518508,14.3511111 L25.2301518,17.2466667 C25.2301518,17.2466667 24.3590688,17.01 23.5462165,17.01 C22.7345526,17.01 22.0060753,17.2833333 22.0060753,18.0422222 L22.0060753,20.2511111 L25.3382944,20.2511111 L25.1065602,23.0788889 L22.0060753,23.0788889 L22.0060753,32.9011111 L18.089173,32.9011111 L18.089173,23.0788889 L16,23.0788889 L16,20.2511111" id="FB_icon"/>
                </g>
            </g>
        </g>
    </g>
</svg>