<svg xmlns="http://www.w3.org/2000/svg" viewBox="0 0 29 18.95"><defs/><title>Ferri_icon</title><g id="Layer_2"><g id="Ferri"><path class="cls-ferriicon1" d="M28.5,18.45c-1.75,0-1.75-2-3.5-2s-1.75,2-3.5,2-1.75-2-3.49-2-1.75,2-3.5,2-1.75-2-3.5-2-1.75,2-3.5,2-1.75-2-3.51-2-1.75,2-3.51,2" style="fill: none; stroke: #000; stroke-linecap: round; stroke-linejoin: round;"/><path class="cls-ferriicon1" d="M1.83,17.6V11.81a1,1,0,0,1,1-1H28a6.12,6.12,0,0,1-2.64,5.51" style="fill: none; stroke: #000; stroke-linecap: round; stroke-linejoin: round;"/><line class="cls-ferriicon1" x1="25.83" y1="3.54" x2="8.92" y2="3.54" style="fill: none; stroke: #000; stroke-linecap: round; stroke-linejoin: round;"/><line class="cls-ferriicon1" x1="23.8" y1="3.54" x2="23.8" y2="10.81" style="fill: none; stroke: #000; stroke-linecap: round; stroke-linejoin: round;"/><line class="cls-ferriicon1" x1="11.92" y1="3.54" x2="11.92" y2="10.81" style="fill: none; stroke: #000; stroke-linecap: round; stroke-linejoin: round;"/><rect class="cls-ferriicon2" x="14.93" y="0.5" width="8.62" height="3.04" style="stroke: #000; stroke-linecap: round; stroke-linejoin: round; fill: #009688;"/></g></g></svg>
