<?xml version="1.0" encoding="UTF-8"?>
<svg width="30px" height="30px" viewBox="0 0 30 30" version="1.1" xmlns="http://www.w3.org/2000/svg" xmlns:xlink="http://www.w3.org/1999/xlink">
    <!-- Generator: Sketch 56.2 (81672) - https://sketch.com -->
    <title>Components/Star/Yellow@1x</title>
    <desc>Created with Sketch.</desc>
    <g id="Components/Star/Yellow" stroke="none" stroke-width="1" fill="none" fill-rule="evenodd">
        <g id="yellow-star-copy-2" fill="#FAC22E">
            <path d="M16.4483796,0.941782096 L19.8319995,8.11090813 C20.0672947,8.60952752 20.5222404,8.95502757 21.0485257,9.03485902 L28.6148931,10.1845628 C29.9403059,10.3861045 30.4690943,12.0887392 29.5103916,13.0656929 L24.0353979,18.6460422 C23.6549206,19.0340754 23.4809523,19.5935499 23.5710654,20.141246 L24.8633116,28.0210029 C25.0898458,29.40104 23.7043576,30.4532447 22.5191206,29.8021603 L15.7518808,26.0821456 C15.2812904,25.8236749 14.7187096,25.8236749 14.2481192,26.0821456 L7.48087936,29.8021603 C6.29564241,30.453899 4.91015424,29.40104 5.13668844,28.0210029 L6.42893464,20.141246 C6.51904769,19.5935499 6.34507943,19.0340754 5.96460211,18.6460422 L0.48960843,13.0656929 C-0.469094314,12.0880848 0.0596940793,10.3854501 1.38510688,10.1845628 L8.9514743,9.03485902 C9.47775955,8.95502757 9.93270531,8.60952752 10.1680005,8.11090813 L13.5516204,0.941782096 C14.1436131,-0.313927365 15.8557611,-0.313927365 16.4483796,0.941782096 Z" id="star_active"></path>
        </g>
    </g>
</svg>