<svg xmlns="http://www.w3.org/2000/svg" viewBox="0 0 25.23 25.28"><defs/><title>Flight_icon</title><g id="Layer_2"><g id="Aeroplane"><path class="cls-flight1" d="M16,13l5.2,10.91,2.26-2.26a2,2,0,0,0,.43-2.2L19.61,9.48l3.84-3.55a4,4,0,0,0,1.28-3.18A2.44,2.44,0,0,0,22.25.5h0A4,4,0,0,0,19.3,1.78L15.74,5.62,5.82,1.39a2,2,0,0,0-2.2.43L1.36,4.07,12.27,9.26,10.9,10.82,6.45,15.66,2.37,13.92a1,1,0,0,0-1.1.21l-.77.77,3.86,3.26A2.09,2.09,0,0,0,7,20.84l3.33,3.94.77-.77a1,1,0,0,0,.21-1.1L9.58,18.72Z" style="fill: none; stroke: #000; stroke-linecap: round; stroke-linejoin: round;"/><path class="cls-flight2" d="M4.85,20.36h0a2.1,2.1,0,0,1-.05-2.91L19.3,1.78A4,4,0,0,1,22.22.5h0A2.5,2.5,0,0,1,24.73,3h0a4,4,0,0,1-1.29,2.93L7.76,20.41A2.1,2.1,0,0,1,4.85,20.36Z" style="fill: none; stroke: #000; stroke-miterlimit: 10;"/><line class="cls-flight3" x1="4.21" y1="21.02" x2="7.8" y2="17.43" style="fill: none; stroke-linecap: round; stroke-linejoin: round; stroke: #009688;"/><path class="cls-flight4" d="M21.06,2.5l1.67,1.67a.34.34,0,0,0,.58-.24h0a2,2,0,0,0-2-2h0A.34.34,0,0,0,21.06,2.5Z" style="fill: #009688;"/></g></g></svg>
