<?xml version="1.0" encoding="UTF-8"?>
<svg width="46px" height="45px" viewBox="0 0 46 45" version="1.1" xmlns="http://www.w3.org/2000/svg" xmlns:xlink="http://www.w3.org/1999/xlink">
    <!-- Generator: Sketch 54.1 (76490) - https://sketchapp.com -->
    <title>Icon/Flight/Black</title>
    <desc>Created with Sketch.</desc>
    <g id="Page-3" stroke="none" stroke-width="1" fill="none" fill-rule="evenodd">
        <g id="4-copy" transform="translate(-233.000000, -113.000000)">
            <g id="Group-2" transform="translate(32.000000, 74.000000)">
                <g id="Group-5" transform="translate(189.000000, 24.000000)">
                    <g id="Icon/Flight/Black" transform="translate(10.000000, 13.000000)">
                        <g id="icon/flight">
                            <rect id="Rectangle" x="0" y="0" width="23.04" height="23.04"></rect>
                            <g id="iconAsset-100" transform="translate(2.920000, 2.920000)">
                                <path d="M27.89216,22.5008 L37.22336,42.0848 L41.25536,38.02976 C42.2886854,36.9954663 42.5977941,35.4408311 42.03872,34.08992 L34.43552,16.25696 L41.34752,9.89792 C42.942544,8.44140928 43.7900743,6.33953425 43.65152,4.184 C43.468265,1.85719275 41.4917234,0.0833733618 39.15872,0.152 L39.15872,0.152 C37.1798965,0.170540515 35.2962374,1.00401798 33.95168,2.456 L27.54656,9.368 L9.69056,1.74176 C8.34557714,1.16371734 6.7840259,1.46506933 5.75072,2.50208 L1.69568,6.55712 L21.25664,15.77312 L18.8144,18.67616 L10.84256,27.3392 L3.608,24.344 C2.93428184,24.0501088 2.1495029,24.1961142 1.62656,24.71264 L0.24416,26.11808 L7.15616,31.97024 C6.66197793,33.3447768 7.00961515,34.8811561 8.04739734,35.9090546 C9.08517953,36.9369532 10.6248151,37.2698726 11.99456,36.76256 L17.96192,43.83584 L19.34432,42.4304 C19.8648237,41.9200628 20.0201814,41.1432742 19.736,40.472 L16.44128,32.84576 L27.89216,22.5008 Z" id="Shape" stroke="#000000" fill="#FFFFFF" stroke-linecap="round" stroke-linejoin="round"></path>
                                <path d="M7.93952,35.864 L7.93952,35.864 C6.53806395,34.4022914 6.53806395,32.0956286 7.93952,30.63392 L33.88256,2.456 C35.2330454,0.985349375 37.1390285,0.149391916 39.13568,0.152 L39.13568,0.152 C41.6355088,0.214515136 43.6292616,2.25938981 43.62848,4.76 L43.62848,4.76 C43.6144036,6.75312844 42.7812377,8.65274653 41.32448,10.01312 L13.1696,35.864 C11.7078914,37.2654561 9.40122861,37.2654561 7.93952,35.864 Z" id="Shape" stroke="#000000"></path>
                                <path d="M6.81056,36.94688 L13.23872,30.51872" id="Shape" stroke="#009688" stroke-linecap="round" stroke-linejoin="round"></path>
                                <path d="M37.03904,3.74624 L40.03424,6.74144 C40.2135697,6.90220031 40.4695803,6.94500534 40.6914523,6.85132604 C40.9133244,6.75764674 41.061189,6.54431659 41.07104,6.30368 L41.07104,6.30368 C41.0771763,5.34644255 40.7012091,4.42630339 40.0264922,3.7472613 C39.3517752,3.0682192 38.4340571,2.68638033 37.4768,2.6864 L37.4768,2.6864 C37.2265034,2.68809384 37.0016006,2.83963563 36.9060452,3.0709804 C36.8104897,3.30232517 36.8628956,3.5684075 37.03904,3.74624 L37.03904,3.74624 Z" id="Shape" fill="#009688" fill-rule="nonzero"></path>
                            </g>
                        </g>
                    </g>
                </g>
            </g>
        </g>
    </g>
</svg>