<svg xmlns="http://www.w3.org/2000/svg" viewBox="0 0 18.84 26.38"><defs/><title>FloralDecoration_icon</title><g id="Layer_2"><g id="Flower"><path class="cls-flowers1" d="M5.13,5.19V2.49h0a5.67,5.67,0,0,1,5,3" style="fill: none; stroke: #000; stroke-linecap: round; stroke-linejoin: round;"/><path class="cls-flowers1" d="M14.42,9.32c-3.34-5.67-10-4-10-4v8a5,5,0,0,0,5,5h0a5,5,0,0,0,5-5V.5S9.26.66,9.09,5.37" style="fill: none; stroke: #000; stroke-linecap: round; stroke-linejoin: round;"/><path class="cls-flowers2" d="M18.34,20.7a8.42,8.42,0,0,1-3.41,4.37,8.42,8.42,0,0,1-5.51.59,8.42,8.42,0,0,1,3.41-4.37A8.42,8.42,0,0,1,18.34,20.7Z" style="stroke: #000; stroke-linecap: round; stroke-linejoin: round; fill: #009688;"/><path class="cls-flowers2" d="M.5,20.7a8.42,8.42,0,0,0,3.41,4.37,8.42,8.42,0,0,0,5.51.59A8.42,8.42,0,0,0,6,21.28,8.42,8.42,0,0,0,.5,20.7Z" style="stroke: #000; stroke-linecap: round; stroke-linejoin: round; fill: #009688;"/></g></g></svg>
