<?xml version="1.0" encoding="UTF-8"?>
<svg width="24px" height="24px" viewBox="0 0 24 24" version="1.1" xmlns="http://www.w3.org/2000/svg" xmlns:xlink="http://www.w3.org/1999/xlink">
    <!-- Generator: Sketch 53.2 (72643) - https://sketchapp.com -->
    <title>icon/friends</title>
    <desc>Created with Sketch.</desc>
    <defs>
        <polygon id="path-1" points="0.334 0.6993 9.538 0.6993 9.538 14 0.334 14"></polygon>
        <polygon id="path-3" points="0.3044 0.796 7 0.796 7 10 0.3044 10"></polygon>
    </defs>
    <g id="icon/friends" stroke="none" stroke-width="1" fill="none" fill-rule="evenodd">
        <g id="Group-21" transform="translate(0.000000, 3.000000)">
            <path d="M14.4895,3.0695 C14.4895,4.4585 13.3805,5.5835 12.0105,5.5835 C10.6405,5.5835 9.5305,4.4585 9.5305,3.0695 C9.5305,1.6805 10.6405,0.5545 12.0105,0.5545 C13.3805,0.5545 14.4895,1.6805 14.4895,3.0695" id="Fill-1" fill="#009688"></path>
            <path d="M12.01,1.1106 C10.949,1.1106 10.086,1.9896 10.086,3.0696 C10.086,4.1496 10.949,5.0286 12.01,5.0286 C13.072,5.0286 13.934,4.1496 13.934,3.0696 C13.934,1.9896 13.072,1.1106 12.01,1.1106 M12.01,6.1396 C10.337,6.1396 8.976,4.7616 8.976,3.0696 C8.976,1.3766 10.337,0.0006 12.01,0.0006 C13.684,0.0006 15.045,1.3766 15.045,3.0696 C15.045,4.7616 13.684,6.1396 12.01,6.1396" id="Fill-3" fill="#000000"></path>
            <g id="Group-7" transform="translate(7.000000, 6.653000)">
                <mask id="mask-2" fill="white">
                    <use xlink:href="#path-1"></use>
                </mask>
                <g id="Clip-6"></g>
                <path d="M1.344,12.9903 L8.529,12.9903 L8.529,5.3013 C8.529,3.3203 6.917,1.7093 4.938,1.7093 C2.956,1.7093 1.344,3.3203 1.344,5.3013 L1.344,12.9903 Z M9.033,14.0003 L0.839,14.0003 C0.56,14.0003 0.334,13.7743 0.334,13.4953 L0.334,5.3013 C0.334,2.7633 2.399,0.6993 4.938,0.6993 C7.475,0.6993 9.538,2.7633 9.538,5.3013 L9.538,13.4953 C9.538,13.7743 9.313,14.0003 9.033,14.0003 L9.033,14.0003 Z" id="Fill-5" fill="#000000" mask="url(#mask-2)"></path>
            </g>
            <path d="M7.1546,7.1667 C7.1546,8.5557 6.0456,9.6807 4.6756,9.6807 C3.3056,9.6807 2.1956,8.5557 2.1956,7.1667 C2.1956,5.7777 3.3056,4.6527 4.6756,4.6527 C6.0456,4.6527 7.1546,5.7777 7.1546,7.1667" id="Fill-8" fill="#009688"></path>
            <path d="M4.6741,5.2082 C3.6141,5.2082 2.7511,6.0872 2.7511,7.1662 C2.7511,8.2472 3.6141,9.1252 4.6741,9.1252 C5.7361,9.1252 6.5991,8.2472 6.5991,7.1662 C6.5991,6.0872 5.7361,5.2082 4.6741,5.2082 M4.6741,10.2362 C3.0021,10.2362 1.6411,8.8592 1.6411,7.1662 C1.6411,5.4742 3.0021,4.0982 4.6741,4.0982 C6.3481,4.0982 7.7101,5.4742 7.7101,7.1662 C7.7101,8.8592 6.3481,10.2362 4.6741,10.2362" id="Fill-10" fill="#000000"></path>
            <path d="M6.2005,20.653 L0.5055,20.653 C0.2255,20.653 0.0005,20.427 0.0005,20.148 L0.0005,16.051 C0.0005,13.514 2.0635,11.449 4.6015,11.449 C5.1835,11.449 5.7535,11.556 6.2895,11.769 C6.5495,11.871 6.6765,12.164 6.5735,12.424 C6.4715,12.684 6.1785,12.81 5.9195,12.708 C5.5015,12.542 5.0565,12.459 4.6015,12.459 C2.6215,12.459 1.0105,14.07 1.0105,16.051 L1.0105,19.643 L6.2005,19.643 C6.4795,19.643 6.7065,19.869 6.7065,20.148 C6.7065,20.427 6.4795,20.653 6.2005,20.653" id="Fill-12" fill="#000000"></path>
            <path d="M16.846,7.1667 C16.846,8.5557 17.956,9.6807 19.325,9.6807 C20.695,9.6807 21.805,8.5557 21.805,7.1667 C21.805,5.7777 20.695,4.6527 19.325,4.6527 C17.956,4.6527 16.846,5.7777 16.846,7.1667" id="Fill-14" fill="#009688"></path>
            <path d="M19.3245,5.2082 C18.2645,5.2082 17.4015,6.0872 17.4015,7.1662 C17.4015,8.2472 18.2645,9.1252 19.3245,9.1252 C20.3865,9.1252 21.2495,8.2472 21.2495,7.1662 C21.2495,6.0872 20.3865,5.2082 19.3245,5.2082 M19.3245,10.2362 C17.6525,10.2362 16.2915,8.8592 16.2915,7.1662 C16.2915,5.4742 17.6525,4.0982 19.3245,4.0982 C20.9985,4.0982 22.3595,5.4742 22.3595,7.1662 C22.3595,8.8592 20.9985,10.2362 19.3245,10.2362" id="Fill-16" fill="#000000"></path>
            <g id="Group-20" transform="translate(17.000000, 10.653000)">
                <mask id="mask-4" fill="white">
                    <use xlink:href="#path-3"></use>
                </mask>
                <g id="Clip-19"></g>
                <path d="M6.4954,10 L0.8084,10 C0.5294,10 0.3044,9.774 0.3044,9.495 C0.3044,9.216 0.5294,8.99 0.8084,8.99 L5.9904,8.99 L5.9904,5.398 C5.9904,3.417 4.3794,1.806 2.3984,1.806 C1.9424,1.806 1.4994,1.889 1.0814,2.055 C0.8214,2.157 0.5284,2.031 0.4264,1.771 C0.3234,1.511 0.4514,1.218 0.7104,1.116 C1.2464,0.903 1.8154,0.796 2.3984,0.796 C4.9354,0.796 7.0004,2.861 7.0004,5.398 L7.0004,9.495 C7.0004,9.774 6.7734,10 6.4954,10" id="Fill-18" fill="#000000" mask="url(#mask-4)"></path>
            </g>
        </g>
    </g>
</svg>