<?xml version="1.0" encoding="UTF-8"?>
<svg width="24px" height="24px" viewBox="0 0 24 24" version="1.1" xmlns="http://www.w3.org/2000/svg" xmlns:xlink="http://www.w3.org/1999/xlink">
    <!-- Generator: Sketch 53 (72520) - https://sketchapp.com -->
    <title>Icon/Gmail</title>
    <desc>Created with Sketch.</desc>
    <g id="Icon/Gmail" stroke="none" stroke-width="1" fill="none" fill-rule="evenodd">
        <g id="Group-5" transform="translate(0.000000, 3.000000)">
            <polygon id="Fill-1" fill="#ECEFF1" points="3 18 21 18 21 0 3 0"></polygon>
            <polygon id="Fill-2" fill="#CFD8DC" points="11.9997 10.8927 20.9997 17.9997 20.9997 3.9687"></polygon>
            <path d="M21.75,0 L21,0 L12,7.107 L3,0 L2.25,0 C1.008,0 0,1.008 0,2.25 L0,15.75 C0,16.992 1.008,18 2.25,18 L3,18 L3,3.969 L12,10.892 L21,3.967 L21,18 L21.75,18 C22.992,18 24,16.992 24,15.75 L24,2.25 C24,1.008 22.992,0 21.75,0" id="Fill-3" fill="#F44336"></path>
        </g>
    </g>
</svg>