<?xml version="1.0" encoding="UTF-8"?>
<svg width="24px" height="24px" viewBox="0 0 24 24" version="1.1" xmlns="http://www.w3.org/2000/svg" xmlns:xlink="http://www.w3.org/1999/xlink">
    <!-- Generator: Sketch 52.2 (67145) - http://www.bohemiancoding.com/sketch -->
    <title>Icon/Golf/2</title>
    <desc>Created with Sketch.</desc>
    <defs>
        <polygon id="path-1" points="0 0.5443 22 0.5443 22 10 0 10"></polygon>
        <polygon id="path-3" points="0.0092 0.837 1.0562 0.837 1.0562 17.7964 0.0092 17.7964"></polygon>
        <polygon id="path-5" points="0.0086 0.837 9.8526 0.837 9.8526 8.0441 0.0086 8.0441"></polygon>
    </defs>
    <g id="Icon/Golf/2" stroke="none" stroke-width="1" fill="none" fill-rule="evenodd">
        <g id="Group-14" transform="translate(1.000000, 1.000000)">
            <g id="Group-3" transform="translate(0.000000, 12.163100)">
                <mask id="mask-2" fill="white">
                    <use xlink:href="#path-1"></use>
                </mask>
                <g id="Clip-2"></g>
                <path d="M11,1.5923 C5.135,1.5923 1.048,3.5313 1.048,5.2723 C1.048,7.0123 5.135,8.9523 11,8.9523 C16.865,8.9523 20.952,7.0123 20.952,5.2723 C20.952,3.5313 16.865,1.5923 11,1.5923 M11,10.0003 C4.832,10.0003 0,7.9233 0,5.2723 C0,2.6213 4.832,0.5443 11,0.5443 C17.168,0.5443 22,2.6213 22,5.2723 C22,7.9233 17.168,10.0003 11,10.0003" id="Fill-1" fill="#000000" mask="url(#mask-2)"></path>
            </g>
            <path d="M8.251,16.8237 C6.453,16.8237 5.512,17.4077 5.512,17.6097 C5.512,17.8107 6.453,18.3947 8.251,18.3947 C10.049,18.3947 10.991,17.8107 10.991,17.6097 C10.991,17.4077 10.049,16.8237 8.251,16.8237 M8.251,19.4427 C6.368,19.4427 4.464,18.8127 4.464,17.6097 C4.464,15.2037 12.038,15.2037 12.038,17.6097 C12.038,18.8127 10.134,19.4427 8.251,19.4427" id="Fill-4" fill="#000000"></path>
            <path d="M19.3408,9.48 C19.3408,8.422 18.4838,7.565 17.4258,7.565 C16.3688,7.565 15.5118,8.422 15.5118,9.48 C15.5118,10.537 16.3688,11.394 17.4258,11.394 C18.4838,11.394 19.3408,10.537 19.3408,9.48" id="Fill-6" fill="#009688"></path>
            <g id="Group-10" transform="translate(7.000000, 0.163100)">
                <mask id="mask-4" fill="white">
                    <use xlink:href="#path-3"></use>
                </mask>
                <g id="Clip-9"></g>
                <path d="M0.5332,17.7964 C0.2432,17.7964 0.0092,17.5624 0.0092,17.2724 L0.0092,1.3604 C0.0092,1.0704 0.2432,0.8364 0.5332,0.8364 C0.8222,0.8364 1.0562,1.0704 1.0562,1.3604 L1.0562,17.2724 C1.0562,17.5624 0.8222,17.7964 0.5332,17.7964" id="Fill-8" fill="#000000" mask="url(#mask-4)"></path>
            </g>
            <g id="Group-13" transform="translate(7.000000, 0.163100)">
                <mask id="mask-6" fill="white">
                    <use xlink:href="#path-5"></use>
                </mask>
                <g id="Clip-12"></g>
                <path d="M1.0566,2.0991 L1.0566,6.7821 L7.7436,4.4411 L1.0566,2.0991 Z M0.5336,8.0441 C0.4256,8.0441 0.3196,8.0111 0.2306,7.9481 C0.0906,7.8501 0.0086,7.6901 0.0086,7.5211 L0.0086,1.3611 C0.0086,1.1911 0.0906,1.0321 0.2306,0.9331 C0.3686,0.8351 0.5466,0.8101 0.7056,0.8671 L9.5016,3.9471 C9.7126,4.0211 9.8526,4.2181 9.8526,4.4411 C9.8526,4.6641 9.7126,4.8621 9.5016,4.9351 L0.7056,8.0151 C0.6496,8.0361 0.5906,8.0441 0.5336,8.0441 Z" id="Fill-11" fill="#000000" mask="url(#mask-6)"></path>
            </g>
        </g>
    </g>
</svg>