<?xml version="1.0" encoding="UTF-8"?>
<svg width="20px" height="20px" viewBox="0 0 20 20" version="1.1" xmlns="http://www.w3.org/2000/svg" xmlns:xlink="http://www.w3.org/1999/xlink">
    <!-- Generator: Sketch 43.2 (39069) - http://www.bohemiancoding.com/sketch -->
    <title>Google-icon</title>
    <desc>Created with Sketch.</desc>
    <defs/>
    <g id="Welcome" stroke="none" stroke-width="1" fill="none" fill-rule="evenodd">
        <g id="SignUp" transform="translate(-32.000000, -159.000000)" fill="#FFFFFF">
            <g id="Social_Login" transform="translate(16.000000, 80.000000)">
                <g id="Btn_Login_GoolePlus" transform="translate(0.000000, 65.000000)">
                    <path d="M25.5442105,14.9193258 C25.7101754,15.0184921 25.8954386,15.1631662 26.1021053,15.3540274 C26.3003509,15.5533788 26.4947368,15.7989172 26.6849123,16.0882655 C26.8670175,16.361652 27.0284211,16.684282 27.1694737,17.0581933 C27.285614,17.4307461 27.342807,17.8661268 27.342807,18.3636563 C27.3280702,19.2755108 27.1196491,20.0049943 26.7185965,20.5524465 C26.5231579,20.8176824 26.3150877,21.062202 26.0954386,21.2860054 C25.8515789,21.5091295 25.5933333,21.7376875 25.3192982,21.9696415 C25.1617544,22.1272208 25.017193,22.3055164 24.8838596,22.5048678 C24.7270175,22.7120302 24.6484211,22.9517953 24.6484211,23.2255214 C24.6484211,23.4921157 24.7287719,23.7111645 24.8898246,23.8850452 C25.0263158,24.0511147 25.1592982,24.1964681 25.2884211,24.3204259 L26.1821053,25.0291932 C26.737193,25.4696681 27.2242105,25.952934 27.6424561,26.4834057 C28.0364912,27.0230469 28.2417544,27.7273993 28.2592982,28.597142 C28.2592982,29.8326453 27.6950877,30.9265309 26.5680702,31.8811763 C25.4003509,32.867745 23.7133333,33.3768213 21.5094737,33.4104427 C19.6645614,33.3938018 18.2873684,33.0130983 17.377193,32.2693512 C16.46,31.5734891 16,30.7421224 16,29.7742322 C16,29.3028528 16.1487719,28.7764564 16.4491228,28.1970807 C16.7378947,27.6187239 17.262807,27.1096476 18.022807,26.6712104 C18.8750877,26.2005101 19.7712281,25.8850119 20.7105263,25.7277722 C21.6407018,25.5960033 22.4122807,25.5209493 23.0270175,25.504648 C22.8368421,25.2625057 22.6677193,25.0044016 22.5192982,24.7293171 C22.345614,24.4627228 22.2596491,24.1414512 22.2596491,23.7672003 C22.2596491,23.5420385 22.2922807,23.3535546 22.3578947,23.204126 C22.4161404,23.0451882 22.4701754,22.9005141 22.5192982,22.7667075 C22.2203509,22.7993101 21.9375439,22.8162907 21.6733333,22.8162907 C20.2705263,22.7993101 19.2021053,22.3724196 18.4670175,21.5356192 C17.6964912,20.7551941 17.3115789,19.8477546 17.3115789,18.8122819 C17.3115789,17.5597981 17.8561404,16.4248195 18.9477193,15.4046294 C19.6961404,14.8086128 20.4740351,14.4197587 21.2810526,14.2360294 C22.0803509,14.07845 22.8291228,14 23.5273684,14 L28.794386,14 L27.1677193,14.9193258 L25.5442105,14.9193258 L25.5442105,14.9193258 Z M26.5610526,29.5935594 C26.5610526,28.9462616 26.3431579,28.3831873 25.9077193,27.9026383 C25.4459649,27.4465413 24.7252632,26.8868631 23.7438596,26.2229244 C23.5754386,26.2062835 23.3785965,26.1984724 23.1522807,26.1984724 C23.0182456,26.1825107 22.6740351,26.1984724 22.1207018,26.247716 C21.5761404,26.3227699 21.0178947,26.4426524 20.4473684,26.608722 C20.3129825,26.6586448 20.1249123,26.7333591 19.8821053,26.832865 C19.6385965,26.9405216 19.3915789,27.0940255 19.1392982,27.2930373 C18.8957895,27.5001998 18.6905263,27.757285 18.5235088,28.064293 C18.3298246,28.3879419 18.234386,28.7778148 18.234386,29.2335722 C18.234386,30.1291253 18.6526316,30.8670991 19.4912281,31.447154 C20.2887719,32.0275484 21.3778947,32.3260661 22.7621053,32.3430467 C24.0035088,32.3260661 24.9515789,32.0604907 25.6045614,31.5466599 C26.2424561,31.0403005 26.5610526,30.3899462 26.5610526,29.5935594 L26.5610526,29.5935594 Z M22.8891228,22.1211078 C22.3403509,22.1211078 21.8526316,21.9591136 21.4259649,21.6344458 C20.9982456,21.3104574 20.6512281,20.9161695 20.3807018,20.4512426 C19.822807,19.4538063 19.5452632,18.4954253 19.5452632,17.5733825 C19.5270175,16.8754828 19.7178947,16.2441467 20.1168421,15.6793743 C20.5905263,15.1393935 21.1835088,14.8609128 21.8975439,14.8442719 C22.4368421,14.8609128 22.9140351,15.015096 23.3294737,15.3047839 C23.7357895,15.6121314 24.0635088,16.0115135 24.3133333,16.5008923 C24.8445614,17.5221013 25.1101754,18.5361785 25.1101754,19.5407466 C25.1101754,19.7740591 25.0905263,20.0596716 25.0522807,20.4006406 C24.9891228,20.7416096 24.845614,21.0737488 24.6224561,21.3973977 C24.1603509,21.8545135 23.582807,22.0959766 22.8891228,22.1211078 Z M35.9301754,16.7841275 L35.9301754,18.0804211 L33.1666667,18.0804211 L33.1666667,20.7548544 L31.8277193,20.7548544 L31.8277193,18.0804211 L29.0645614,18.0804211 L29.0645614,16.7841275 L31.8277193,16.7841275 L31.8277193,14.109015 L33.1666667,14.109015 L33.1666667,16.7841275 L35.9301754,16.7841275 Z" id="Google-icon"/>
                </g>
            </g>
        </g>
    </g>
</svg>