<?xml version="1.0" encoding="utf-8"?>
<!-- Generator: Adobe Illustrator 22.1.0, SVG Export Plug-In . SVG Version: 6.00 Build 0)  -->
<svg version="1.1" id="Layer_1" xmlns="http://www.w3.org/2000/svg" xmlns:xlink="http://www.w3.org/1999/xlink" x="0px" y="0px"
	 viewBox="0 0 174 52" style="enable-background:new 0 0 174 52;" xml:space="preserve">
<style type="text/css">
	.st0{fill:#FFFFFF;}
	.st1{fill:#00CCFF;}
	.st2{fill:#FFD600;}
	.st3{fill:#FF2540;}
	.st4{fill:#15DE74;}
</style>
<title>Google Play_bt</title>
<desc>Created with Sketch.</desc>
<defs />
<g>
	<g id="background">
		<path d="M5.9,51.5c-3,0-5.4-2.4-5.4-5.4V5.9c0-3,2.4-5.4,5.4-5.4h162.2c3,0,5.4,2.4,5.4,5.4v40.1c0,3-2.4,5.4-5.4,5.4H5.9z"/>
		<path class="st0" d="M168.1,1c2.7,0,4.9,2.2,4.9,4.9v40.1c0,2.7-2.2,4.9-4.9,4.9H5.9C3.2,51,1,48.8,1,46.1V5.9C1,3.2,3.2,1,5.9,1
			H168.1 M168.1,0H5.9C2.6,0,0,2.7,0,5.9v40.1C0,49.3,2.6,52,5.9,52h162.2c3.2,0,5.9-2.7,5.9-5.9V5.9C174,2.7,171.4,0,168.1,0
			L168.1,0z"/>
	</g>
	<g id="get-it-on_1_" transform="translate(53.358440, 8.745455)">
		<path id="o" class="st0" d="M38.8,8.5c-2.3,0-4.2-1.9-4.2-4.3S36.5,0,38.8,0s4.2,1.9,4.2,4.3S41.2,8.5,38.8,8.5z M38.8,7.2
			c1.6,0,2.9-1.3,2.9-3s-1.3-3-2.9-3c-1.6,0-2.9,1.3-2.9,3S37.2,7.2,38.8,7.2z"/>
		<path id="e" class="st0" d="M10.3,4.7v2.6h3.4v0.9h-3.4H9V0.5V0.4h4.7v0.9h-3.4v2.5h3v0.9H10.3z"/>
		<path id="t" class="st0" d="M18.3,1.3v7H17v-7h-2V0.4h5.3v0.9H18.3z"/>
		<path id="t_1_" class="st0" d="M29.7,1.3v7h-1.3v-7h-2V0.4h5.3v0.9H29.7z"/>
		<rect id="i" x="24" y="0.4" class="st0" width="1.3" height="7.9"/>
		<path id="n" class="st0" d="M45.4,0.4h0.2l3.5,5.8V0.4h1.3v7.9h-1.3l-3.7-6.2v6.2h-1.3V0.4H45.4z"/>
		<g id="g" transform="translate(0.000000, 0.118182)">
			<polygon id="Rectangle-1" class="st0" points="4.2,3.8 7.7,3.8 7.7,4.9 4.2,4.9 			"/>
			<path id="Oval-1" class="st0" d="M7,1.2L6.2,2C5.7,1.4,5,1.2,4.2,1.2c-1.6,0-3,1.3-3,3s1.3,3,3,3s2.8-1,2.8-3C7,4,7,3.9,7,3.8h1
				c0,0,0,0,0,0c0.4,2.9-1.5,4.5-3.9,4.5C1.9,8.3,0,6.5,0,4.2S1.9,0,4.1,0C5.3,0,6.3,0.4,7,1.2z"/>
		</g>
	</g>
	<g id="googleplay" transform="translate(52.773369, 22.690909)">
		<g id="big-P" transform="translate(73.016812, 0.590909)">
			<path id="Combined-Shape" class="st0" d="M0.6,0l6.6,0c0,0,3.8,0.7,3.8,5.1s-3.8,5.1-3.8,5.1H0.6V0z M1.9,2.5v5.5h4.5
				c0,0,2,0,2-2.7s-2-2.7-2-2.7H1.9z"/>
			<rect id="Rectangle-6" x="0" y="0" class="st0" width="2.3" height="16.5"/>
		</g>
		<rect id="y" x="85.4" y="0.6" class="st0" width="2.3" height="16.5"/>
		<path id="a" class="st0" d="M96.4,16c-0.6,0.5-1.7,1-3.3,1.1c-3.7,0.2-3.7-3.2-3.7-3.4s-0.2-3,2.8-3.5c2.1-0.3,3.6,0.2,4.3,0.5
			v-0.5c-0.2-0.6-0.7-1.8-2.2-1.8c-2.1,0-2.6,1.2-2.6,1.2l-1.9-1.2c0,0,1.1-2.3,4.4-2.3c4.1,0,4.8,2.8,4.8,3.8c0,0,0,0,0,0v7.2h-2.3
			V16z M96.3,12.4c0,0-4.5-1.2-4.7,1.3s4.3,1.3,4.7-0.5C96.3,12.7,96.3,12.4,96.3,12.4z"/>
		<path id="y_1_" class="st0" d="M103.2,16.5L99,6.5h2.3l3,7.2l3-7.1h2.3l-6.3,15.2H101L103.2,16.5z"/>
		<path id="e_1_" class="st0" d="M67.8,10.4l-7.4,3.1c0,0,0.5,1.7,2.7,1.7c1.7,0,2.7-1.6,2.7-1.6l1.9,1.3c0,0-1.5,2.5-4.6,2.5
			c-3.8,0-5.5-3.4-5.5-5.6c0-2.1,1.3-5.7,5.3-5.7S67.8,10.4,67.8,10.4z M65,9.5c0,0-0.9-1.4-2.4-1.2c-3,0.6-2.6,3.2-2.6,3.2L65,9.5z
			"/>
		<rect id="i_1_" x="54.1" y="0.6" class="st0" width="2.5" height="16.5"/>
		<path id="g_1_" class="st0" d="M50.1,6.5l2.3,0v10.4c0,2.7-1.6,5.5-5.3,5.5c-3.7,0-4.9-3.3-4.9-3.3l2.1-0.9c0,0,0.6,2,2.9,2
			c2.6,0,2.9-2.4,2.9-3.2V16c0,0-0.9,1.4-3.1,1.4c-2.4,0-5.2-2.1-5.2-5.6s2.7-5.5,5.3-5.6c2.1-0.1,3.1,1.4,3.1,1.4V6.5z M47.2,15.2
			c1.7,0,3-1.5,3-3.4s-1.4-3.4-3-3.4c-1.7,0-3,1.5-3,3.4S45.5,15.2,47.2,15.2z"/>
		<path id="o_1_" class="st0" d="M35.2,17.4c-3.1,0-5.6-2.5-5.6-5.6s2.5-5.6,5.6-5.6c3.1,0,5.6,2.5,5.6,5.6S38.3,17.4,35.2,17.4z
			 M35.1,15.2c1.7,0,3.1-1.5,3.1-3.4s-1.4-3.4-3.1-3.4S32,9.9,32,11.8S33.4,15.2,35.1,15.2z"/>
		<path id="o_2_" class="st0" d="M23.1,17.4c-3.1,0-5.6-2.5-5.6-5.6s2.5-5.6,5.6-5.6s5.6,2.5,5.6,5.6S26.2,17.4,23.1,17.4z
			 M23.1,15.2c1.7,0,3.1-1.5,3.1-3.4s-1.4-3.4-3.1-3.4c-1.7,0-3.1,1.5-3.1,3.4S21.4,15.2,23.1,15.2z"/>
		<g id="big-g">
			<polygon id="Rectangle-1_1_" class="st0" points="8.7,7.9 16.1,7.9 16,10.3 8.7,10.3 			"/>
			<path id="Oval-1_1_" class="st0" d="M14.6,2.4L13,4.1c-1-1.1-2.5-1.7-4.3-1.7c-3.4,0-6.2,2.8-6.2,6.3S5.3,15,8.7,15
				s5.9-2,5.9-6.3c0-0.3,0-0.5,0-0.8h2.1c0,0,0,0.1,0,0.1c0.8,6-3.2,9.4-8.1,9.4C3.9,17.4,0,13.5,0,8.7S3.9,0,8.6,0
				C11.1,0,13.2,0.9,14.6,2.4z"/>
		</g>
	</g>
	<g>
		<path class="st1" d="M13.2,9.8c-0.4,0.4-0.6,1-0.6,1.8v28.8c0,0.8,0.2,1.4,0.6,1.8L29.2,26L13.2,9.8z"/>
		<path class="st2" d="M29.2,26l5.4-5.5l6.3,3.6c1.8,1,1.8,2.7,0,3.8l-6.3,3.6L29.2,26z"/>
		<path class="st3" d="M34.7,31.5L29.2,26L13.2,42.2c0.6,0.6,1.6,0.7,2.7,0.1L34.7,31.5L34.7,31.5z"/>
		<path class="st4" d="M34.7,20.5L15.8,9.7c-1.1-0.6-2.1-0.6-2.7,0.1L29.2,26L34.7,20.5z"/>
	</g>
</g>
</svg>
