<?xml version="1.0" encoding="UTF-8"?>
<svg width="21px" height="13px" viewBox="0 0 21 13" version="1.1" xmlns="http://www.w3.org/2000/svg" xmlns:xlink="http://www.w3.org/1999/xlink">
    <!-- Generator: Sketch 45.2 (43514) - http://www.bohemiancoding.com/sketch -->
    <title>Combined Shape</title>
    <desc>Created with Sketch.</desc>
    <defs/>
    <g id="Page-1" stroke="none" stroke-width="1" fill="none" fill-rule="evenodd">
        <g id="HomePage" transform="translate(-522.000000, -7812.000000)" fill="#FFFFFF">
            <g id="Footer" transform="translate(0.000000, 7636.000000)">
                <g id="Group-22-Copy" transform="translate(402.000000, 137.000000)">
                    <g id="Social" transform="translate(0.000000, 34.000000)">
                        <g id="G" transform="translate(120.833333, 0.000000)">
                            <g id="Page-1" transform="translate(0.000000, 5.000000)">
                                <path d="M12.3926667,5.46266667 L12.3926667,6.29535484 C12.3926667,6.87234409 12.4296559,7.43643011 12.2825591,7.99686022 C12.1640645,8.44546237 11.9954624,8.88094624 11.7827742,9.29556989 C11.3638495,10.1026667 10.7722366,10.8218065 10.054172,11.3820215 C9.33202151,11.9456774 8.48729032,12.3501935 7.59223656,12.5469677 C7.15202151,12.6467527 6.69954839,12.6944946 6.24793548,12.6944946 C2.79739785,12.6944946 -2.15053763e-05,9.85384946 -2.15053763e-05,6.34653763 C-2.15053763e-05,2.84288172 2.79739785,8.60215054e-05 6.24793548,8.60215054e-05 C7.86578495,8.60215054e-05 9.33847312,0.624172043 10.4481505,1.64653763 L8.83868817,3.28223656 L8.73653763,3.28223656 C8.05997849,2.71406452 7.19460215,2.37126882 6.24793548,2.37126882 C4.08707527,2.37126882 2.33589247,4.15148387 2.33589247,6.34653763 C2.33589247,8.54288172 4.08707527,10.3233118 6.24793548,10.3233118 C7.96255914,10.3233118 9.41890323,9.20202151 9.94707527,7.6415914 L6.29352688,7.6415914 L6.29352688,5.46266667 L10.0632043,5.46266667 L12.3281505,5.46266667 L12.3926667,5.46266667 Z M19.9046452,5.41498925 L19.9046452,7.24423656 L18.0848602,7.24423656 L18.0848602,9.0635914 L16.2545376,9.0635914 L16.2545376,7.24423656 L14.436043,7.24423656 L14.436043,5.41498925 L16.2545376,5.41498925 L16.2545376,3.59477419 L18.0848602,3.59477419 L18.0848602,5.41498925 L19.9046452,5.41498925 Z" id="Combined-Shape"/>
                            </g>
                        </g>
                    </g>
                </g>
            </g>
        </g>
    </g>
</svg>
