<?xml version="1.0" encoding="UTF-8"?>
<svg width="24px" height="24px" viewBox="0 0 24 24" version="1.1" xmlns="http://www.w3.org/2000/svg" xmlns:xlink="http://www.w3.org/1999/xlink">
    <!-- Generator: Sketch 52.2 (67145) - http://www.bohemiancoding.com/sketch -->
    <title>Icon/Gym</title>
    <desc>Created with Sketch.</desc>
    <defs>
        <polygon id="path-1" points="0.0005 0.026 22 0.026 22 16 0.0005 16"></polygon>
    </defs>
    <g id="Icon/Gym" stroke="none" stroke-width="1" fill="none" fill-rule="evenodd">
        <g id="Group-11" transform="translate(1.000000, 4.000000)">
            <polygon id="Fill-1" fill="#009688" points="5.038 9.9101 16.885 9.9101 16.885 8.0641 5.038 8.0641"></polygon>
            <g id="Group-10" transform="translate(0.000000, 0.974100)">
                <mask id="mask-2" fill="white">
                    <use xlink:href="#path-1"></use>
                </mask>
                <g id="Clip-3"></g>
                <path d="M5.562,8.412 L16.362,8.412 L16.362,7.613 L5.562,7.613 L5.562,8.412 Z M16.886,9.459 L5.039,9.459 C4.749,9.459 4.515,9.225 4.515,8.936 L4.515,7.09 C4.515,6.801 4.749,6.567 5.039,6.567 L16.886,6.567 C17.175,6.567 17.409,6.801 17.409,7.09 L17.409,8.936 C17.409,9.225 17.175,9.459 16.886,9.459 Z" id="Fill-2" fill="#000000" mask="url(#mask-2)"></path>
                <path d="M2.002,8.9358 L1.273,8.9358 C0.859,8.9358 0.523,8.5998 0.523,8.1868 L0.523,7.8388 C0.523,7.4248 0.859,7.0898 1.273,7.0898 L2.002,7.0898 L2.002,8.9358 Z" id="Fill-4" fill="#009688" mask="url(#mask-2)"></path>
                <path d="M1.2725,7.6135 C1.1485,7.6135 1.0475,7.7155 1.0475,7.8395 L1.0475,8.1865 C1.0475,8.3105 1.1485,8.4125 1.2725,8.4125 L1.4775,8.4125 L1.4775,7.6135 L1.2725,7.6135 Z M2.0015,9.4595 L1.2725,9.4595 C0.5715,9.4595 0.0005,8.8885 0.0005,8.1865 L0.0005,7.8395 C0.0005,7.1365 0.5715,6.5665 1.2725,6.5665 L2.0015,6.5665 C2.2915,6.5665 2.5255,6.8015 2.5255,7.0905 L2.5255,8.9355 C2.5255,9.2245 2.2915,9.4595 2.0015,9.4595 Z" id="Fill-5" fill="#000000" mask="url(#mask-2)"></path>
                <path d="M20.7275,8.9358 L19.9985,8.9358 L19.9985,7.0898 L20.7275,7.0898 C21.1405,7.0898 21.4765,7.4248 21.4765,7.8388 L21.4765,8.1868 C21.4765,8.5998 21.1405,8.9358 20.7275,8.9358" id="Fill-6" fill="#009688" mask="url(#mask-2)"></path>
                <path d="M20.5215,8.4123 L20.7275,8.4123 C20.8515,8.4123 20.9525,8.3103 20.9525,8.1863 L20.9525,7.8393 C20.9525,7.7153 20.8515,7.6133 20.7275,7.6133 L20.5215,7.6133 L20.5215,8.4123 Z M20.7275,9.4593 L19.9985,9.4593 C19.7085,9.4593 19.4735,9.2243 19.4735,8.9353 L19.4735,7.0903 C19.4735,6.8013 19.7085,6.5663 19.9985,6.5663 L20.7275,6.5663 C21.4285,6.5663 22.0005,7.1373 22.0005,7.8393 L22.0005,8.1863 C22.0005,8.8893 21.4285,9.4593 20.7275,9.4593 Z" id="Fill-7" fill="#000000" mask="url(#mask-2)"></path>
                <path d="M18.4043,1.0735 C17.8553,1.0735 17.4093,1.5195 17.4093,2.0675 L17.4093,13.9585 C17.4093,14.5065 17.8553,14.9525 18.4043,14.9525 C18.9523,14.9525 19.3983,14.5065 19.3983,13.9585 L19.3983,2.0675 C19.3983,1.5195 18.9523,1.0735 18.4043,1.0735 M18.4043,16.0005 C17.2773,16.0005 16.3623,15.0845 16.3623,13.9585 L16.3623,2.0675 C16.3623,0.9415 17.2773,0.0255 18.4043,0.0255 C19.5303,0.0255 20.4463,0.9415 20.4463,2.0675 L20.4463,13.9585 C20.4463,15.0845 19.5303,16.0005 18.4043,16.0005" id="Fill-8" fill="#000000" mask="url(#mask-2)"></path>
                <path d="M3.5195,1.0735 C2.9705,1.0735 2.5255,1.5195 2.5255,2.0675 L2.5255,13.9585 C2.5255,14.5065 2.9705,14.9525 3.5195,14.9525 C4.0685,14.9525 4.5145,14.5065 4.5145,13.9585 L4.5145,2.0675 C4.5145,1.5195 4.0685,1.0735 3.5195,1.0735 M3.5195,16.0005 C2.3925,16.0005 1.4775,15.0845 1.4775,13.9585 L1.4775,2.0675 C1.4775,0.9415 2.3925,0.0255 3.5195,0.0255 C4.6455,0.0255 5.5625,0.9415 5.5625,2.0675 L5.5625,13.9585 C5.5625,15.0845 4.6455,16.0005 3.5195,16.0005" id="Fill-9" fill="#000000" mask="url(#mask-2)"></path>
            </g>
        </g>
    </g>
</svg>