<?xml version="1.0" encoding="UTF-8" standalone="no"?>
<svg width="10px" height="10px" viewBox="0 0 10 10" version="1.1" xmlns="http://www.w3.org/2000/svg" xmlns:xlink="http://www.w3.org/1999/xlink">
    <!-- Generator: Sketch 46.1 (44463) - http://www.bohemiancoding.com/sketch -->
    <title>Group 37</title>
    <desc>Created with Sketch.</desc>
    <defs/>
    <g id="Welcome" stroke="none" stroke-width="1" fill="none" fill-rule="evenodd">
        <g id="Group-37" transform="translate(-1.000000, -1.000000)">
            <g id="Group-36">
                <g id="Star">
                    <rect id="Rectangle-15" x="0" y="0" width="12" height="12"/>
                    <path d="M7.79659821,4.11983471 C7.62329112,4.10330579 7.47360608,3.98760331 7.40289742,3.81404959 L6.41864545,1.30991736 C6.26116514,0.896694215 5.70195254,0.896694215 5.54447222,1.30991736 L4.56809427,3.81404959 C4.50510215,3.98760331 4.34762183,4.10330579 4.17439348,4.11983471 L1.42636199,4.39256198 C1.01691317,4.4338843 0.851558839,4.97107438 1.15864545,5.26033058 L3.2295116,7.16942149 C3.36336986,7.29338843 3.41848797,7.47520661 3.37911789,7.65702479 L2.75707065,10.3346281 C2.66258246,10.7561983 3.09565333,11.1032231 3.45785805,10.8801653 L5.74919663,9.4668595 C5.89880293,9.37595041 6.0799053,9.37595041 6.2295116,9.4668595 L8.52092892,10.8801653 C8.88313364,11.1032231 9.31620451,10.7644628 9.22163758,10.3346281 L8.60746435,7.65702479 C8.56809427,7.47520661 8.62329112,7.29338843 8.75707065,7.16942149 L10.8280155,5.26033058 C11.1271494,4.97107438 10.953921,4.4338843 10.5444722,4.39256198 L7.79659821,4.11983471 Z" id="Fill-1" fill="#FAC22E"/>
                </g>
                <g id="Star-Copy-3" transform="translate(6.000000, 1.000000)" fill="#B2B2B2">
                    <path d="M5.74540415e-15,8.39880331 C0.0791144444,8.40067065 0.157919297,8.42335605 0.229511595,8.4668595 L2.52092892,9.88016529 C2.88313364,10.1032231 3.31620451,9.76446281 3.22163758,9.3346281 L2.60746435,6.65702479 C2.56809427,6.47520661 2.62329112,6.29338843 2.75707065,6.16942149 L4.82801553,4.26033058 C5.12714939,3.97107438 4.95392104,3.4338843 4.54447222,3.39256198 L1.79659821,3.11983471 C1.62329112,3.10330579 1.47360608,2.98760331 1.40289742,2.81404959 L0.418645453,0.309917355 C0.342607298,0.11039575 0.172910615,0.0072116125 2.14758766e-15,0.000364942792 L0,8.39880331 Z" id="Combined-Shape"/>
                </g>
            </g>
        </g>
    </g>
</svg>