<?xml version="1.0" encoding="UTF-8"?>
<svg width="24px" height="24px" viewBox="0 0 24 24" version="1.1" xmlns="http://www.w3.org/2000/svg" xmlns:xlink="http://www.w3.org/1999/xlink">
    <!-- Generator: Sketch 53 (72520) - https://sketchapp.com -->
    <title>Icon/Headphone</title>
    <desc>Created with Sketch.</desc>
    <g id="Icon/Headphone" stroke="none" stroke-width="1" fill="none" fill-rule="evenodd">
        <g transform="translate(1.000000, 1.000000)">
            <path d="M13.8571,20.4287 L13.5651,20.4287 L13.5651,19.4287 L13.8571,19.4287 C15.9441,19.4287 17.6431,17.7307 17.6431,15.6427 L17.6431,8.4997 C17.6431,4.8367 14.6631,1.8567 11.0001,1.8567 C7.3371,1.8567 4.3571,4.8367 4.3571,8.4997 L4.3571,12.7857 L3.3571,12.7857 L3.3571,8.4997 C3.3571,4.2857 6.7861,0.8567 11.0001,0.8567 C15.2141,0.8567 18.6431,4.2857 18.6431,8.4997 L18.6431,15.6427 C18.6431,18.2817 16.4961,20.4287 13.8571,20.4287" id="Fill-1" fill="#000000"></path>
            <path d="M3.8571,15.414 L2.4281,15.414 C1.6401,15.414 1.0001,14.774 1.0001,13.985 L1.0001,12.557 C1.0001,11.768 1.6401,11.128 2.4281,11.128 L3.8571,11.128 L3.8571,15.414 Z" id="Fill-3" fill="#009688"></path>
            <path d="M2.4284,11.6284 C1.9164,11.6284 1.5004,12.0454 1.5004,12.5574 L1.5004,13.9854 C1.5004,14.4974 1.9164,14.9144 2.4284,14.9144 L3.3574,14.9144 L3.3574,11.6284 L2.4284,11.6284 Z M3.8574,15.9144 L2.4284,15.9144 C1.3654,15.9144 0.5004,15.0484 0.5004,13.9854 L0.5004,12.5574 C0.5004,11.4934 1.3654,10.6284 2.4284,10.6284 L3.8574,10.6284 C4.1334,10.6284 4.3574,10.8524 4.3574,11.1284 L4.3574,15.4144 C4.3574,15.6904 4.1334,15.9144 3.8574,15.9144 L3.8574,15.9144 Z" id="Fill-5" fill="#000000"></path>
            <path d="M18.1428,15.414 L19.5718,15.414 C20.3608,15.414 20.9998,14.774 20.9998,13.985 L20.9998,12.557 C20.9998,11.768 20.3608,11.128 19.5718,11.128 L18.1428,11.128 L18.1428,15.414 Z" id="Fill-7" fill="#009688"></path>
            <path d="M18.6428,14.914 L19.5718,14.914 C20.0838,14.914 20.4998,14.497 20.4998,13.985 L20.4998,12.557 C20.4998,12.045 20.0838,11.628 19.5718,11.628 L18.6428,11.628 L18.6428,14.914 Z M19.5718,15.914 L18.1428,15.914 C17.8668,15.914 17.6428,15.69 17.6428,15.414 L17.6428,11.128 C17.6428,10.852 17.8668,10.628 18.1428,10.628 L19.5718,10.628 C20.6348,10.628 21.4998,11.494 21.4998,12.557 L21.4998,13.985 C21.4998,15.049 20.6348,15.914 19.5718,15.914 L19.5718,15.914 Z" id="Fill-9" fill="#000000"></path>
            <path d="M9.9938,19.7143 C9.8758,19.7143 9.7798,19.8103 9.7798,19.9283 C9.7798,20.0473 9.8758,20.1433 9.9938,20.1433 L12.8508,20.1433 C12.9688,20.1433 13.0648,20.0473 13.0648,19.9283 C13.0648,19.8103 12.9688,19.7143 12.8508,19.7143 L9.9938,19.7143 Z M12.8508,21.1433 L9.9938,21.1433 C9.3248,21.1433 8.7798,20.5983 8.7798,19.9283 C8.7798,19.2593 9.3248,18.7143 9.9938,18.7143 L12.8508,18.7143 C13.5198,18.7143 14.0648,19.2593 14.0648,19.9283 C14.0648,20.5983 13.5198,21.1433 12.8508,21.1433 L12.8508,21.1433 Z" id="Fill-11" fill="#000000"></path>
        </g>
    </g>
</svg>