<svg xmlns="http://www.w3.org/2000/svg" viewBox="0 0 29.24 21"><defs/><title>Help_Plan_icon</title><g id="Layer_2"><g id="Help_Plan_icon"><path class="cls-help1" d="M27.51,18a6.23,6.23,0,0,0-7.23-9.54,10.06,10.06,0,0,1,.21,2.75,9.76,9.76,0,0,1-3.15,6.53,6.51,6.51,0,0,0,5.35,2.79h6.07C26.54,19.13,27.51,18,27.51,18Z" style="fill: #009688; stroke: #000; stroke-linecap: round; stroke-linejoin: round;"/><path class="cls-help2" d="M.5,20.5h9.72a10.19,10.19,0,0,0,10.27-9.33,10,10,0,1,0-18,5.28S4.12,19.14.5,20.5Z" style="stroke: #000; stroke-linecap: round; stroke-linejoin: round; fill: none;"/><path class="cls-help3" d="M10.41,17.21a1.45,1.45,0,0,1-1-.43,1.34,1.34,0,0,1-.44-1,1.36,1.36,0,0,1,.47-1.07,1.42,1.42,0,0,1,1-.39,1.52,1.52,0,0,1,1.06.41,1.46,1.46,0,0,1,.44,1.06,1.49,1.49,0,0,1-.43,1.06A1.57,1.57,0,0,1,10.41,17.21Zm-.73-4.15a.5.5,0,0,1-.5-.5v-.18a3.19,3.19,0,0,1,.31-1.49,7.11,7.11,0,0,1,1.62-1.78L11.22,9a1,1,0,0,0,0-1.25.92.92,0,0,0-.67-.2.89.89,0,0,0-.81.31,1.68,1.68,0,0,0-.22,1,.5.5,0,0,1-.5.5H7.55a.5.5,0,0,1-.5-.5,3.44,3.44,0,0,1,1-2.6,3.58,3.58,0,0,1,2.6-.95A3.42,3.42,0,0,1,13,6.07,2.82,2.82,0,0,1,14,8.3a3.06,3.06,0,0,1-.58,1.88c-.22.25-.83.79-1.18,1.09a1.35,1.35,0,0,0-.54,1.1v.18a.5.5,0,0,1-.5.5Z" style="fill: #009688;"/><path d="M10.64,5.76a2.93,2.93,0,0,1,2,.68,2.34,2.34,0,0,1,.77,1.85A2.57,2.57,0,0,1,13,9.88c-.12.13-.49.48-1.11,1a1.82,1.82,0,0,0-.52.63,1.87,1.87,0,0,0-.19.85v.18H9.68v-.18a2.73,2.73,0,0,1,.26-1.26,7,7,0,0,1,1.51-1.64l.15-.18a1.43,1.43,0,0,0,.35-.91,1.41,1.41,0,0,0-.36-1,1.4,1.4,0,0,0-1-.36,1.4,1.4,0,0,0-1.21.52A2.12,2.12,0,0,0,9,8.82H7.55a2.94,2.94,0,0,1,.84-2.24,3.08,3.08,0,0,1,2.25-.81m-.23,9a1,1,0,0,1,.72.27,1,1,0,0,1,.28.7,1,1,0,0,1-.28.71,1,1,0,0,1-.72.27,1,1,0,0,1-.7-.28,1,1,0,0,1,0-1.39.94.94,0,0,1,.7-.27m.23-10a4.06,4.06,0,0,0-3,1.1,3.91,3.91,0,0,0-1.14,3,1,1,0,0,0,1,1H9a1,1,0,0,0,1-1,1.2,1.2,0,0,1,.13-.68s.08-.11.41-.11a.53.53,0,0,1,.32.07.48.48,0,0,1,.07.3.43.43,0,0,1-.12.28l-.1.11A7.15,7.15,0,0,0,9,10.69a3.65,3.65,0,0,0-.36,1.7v.18a1,1,0,0,0,1,1h1.48a1,1,0,0,0,1-1v-.18a.88.88,0,0,1,.09-.4.82.82,0,0,1,.23-.29l0,0c.43-.38,1-.88,1.19-1.1l.06-.07a3.55,3.55,0,0,0,.68-2.18,3.35,3.35,0,0,0-1.11-2.61,3.9,3.9,0,0,0-2.69-.93Zm-.23,9A1.94,1.94,0,0,0,9,14.31a2,2,0,0,0,0,2.85,1.94,1.94,0,0,0,1.38.55,2,2,0,0,0,1.38-.52l.05,0a2,2,0,0,0,.58-1.41,1.94,1.94,0,0,0-.58-1.4,2,2,0,0,0-1.43-.56Z"/></g></g></svg>
