<svg xmlns="http://www.w3.org/2000/svg" viewBox="0 0 29 20.98"><defs/><title>Hill_Station_icon</title><g id="Layer_2"><g id="Hill_Station_icon"><polygon class="cls-hillstation1" points="28.5 20.48 19.63 4.88 10.07 20.48 28.5 20.48" style="fill: none; stroke: #000; stroke-linecap: round; stroke-linejoin: round;"/><polygon class="cls-hillstation1" points="10.07 20.48 12.46 16.58 7.3 8.95 0.5 20.48 10.07 20.48" style="fill: none; stroke: #000; stroke-linecap: round; stroke-linejoin: round;"/><polygon class="cls-hillstation2" points="22.77 10.4 19.75 13.01 16.44 10.08 19.63 4.88 22.77 10.4" style="stroke: #000; stroke-linecap: round; stroke-linejoin: round; fill: #009688;"/><polygon class="cls-hillstation2" points="9.79 12.63 7.6 14.71 4.97 12.9 7.3 8.95 9.79 12.63" style="stroke: #000; stroke-linecap: round; stroke-linejoin: round; fill: #009688;"/><path class="cls-hillstation2" d="M11.1,1.73a2,2,0,0,0-.61.1,3.24,3.24,0,0,0-5.27,0A2,2,0,0,0,2.5,3.76H13.13A2,2,0,0,0,11.1,1.73Z" style="stroke: #000; stroke-linecap: round; stroke-linejoin: round; fill: #009688;"/></g></g></svg>
