<?xml version="1.0" encoding="UTF-8"?>
<svg width="22px" height="16px" viewBox="0 0 22 16" version="1.1" xmlns="http://www.w3.org/2000/svg" xmlns:xlink="http://www.w3.org/1999/xlink">
    <!-- Generator: Sketch 54.1 (76490) - https://sketchapp.com -->
    <title>Honeymoon_white_icon@1.5x</title>
    <desc>Created with Sketch.</desc>
    <g id="Page-1" stroke="none" stroke-width="1" fill="none" fill-rule="evenodd">
        <g id="Honeymoon_white_icon" transform="translate(1.000000, -2.000000)">
            <rect id="Rectangle-9" x="0" y="0" width="20" height="20"></rect>
            <g id="Honeymoon" transform="translate(0.000000, 2.222222)" stroke="#FFFFFF" stroke-linecap="round" stroke-linejoin="round">
                <path d="M16.6106897,3.23062069 C16.4513793,2.79062069 16.2251724,2.37682759 15.9313793,1.99544828 C13.467931,-1.20248276 8.62103448,0.684413793 8.62103448,3.932 C8.62103448,0.684413793 3.77344828,-1.20248276 1.31,1.99544828 C-1.2362069,5.30096552 1.27344828,11.0926897 8.62103448,14.4195862 C9.19,14.1616552 9.73,13.8892414 10.2410345,13.6044138" id="Stroke-1"></path>
                <path d="M17.1731034,4.68806897 C14.6806897,3.99427586 12.9186207,6.82462069 14.1668966,8.49082759 C12.9186207,6.82462069 9.7062069,7.7197931 9.67172414,10.3066897 C9.63586207,12.9811724 13.1489655,14.9887586 18.1972414,13.8715172 C20.6882759,9.34186207 19.7496552,5.406 17.1731034,4.68806897 Z" id="Stroke-5"></path>
            </g>
        </g>
    </g>
</svg>