<?xml version="1.0" encoding="UTF-8"?>
<svg width="24px" height="24px" viewBox="0 0 24 24" version="1.1" xmlns="http://www.w3.org/2000/svg" xmlns:xlink="http://www.w3.org/1999/xlink">
    <!-- Generator: Sketch 53.2 (72643) - https://sketchapp.com -->
    <title>icon/honeymoon</title>
    <desc>Created with Sketch.</desc>
    <defs>
        <polygon id="path-1" points="0 0.244488463 20.3691843 0.244488463 20.3691843 17.9998 0 17.9998"></polygon>
        <polygon id="path-3" points="0.127810234 0.293581676 13 0.293581676 13 12.7179 0.127810234 12.7179"></polygon>
    </defs>
    <g id="icon/honeymoon" stroke="none" stroke-width="1" fill="none" fill-rule="evenodd">
        <g id="Group-9" transform="translate(0.000000, 3.000000)">
            <g id="Group-3" transform="translate(0.000000, 0.756100)">
                <mask id="mask-2" fill="white">
                    <use xlink:href="#path-1"></use>
                </mask>
                <g id="Clip-2"></g>
                <path d="M10.354,17.9998 C10.286,17.9998 10.219,17.9858 10.156,17.9568 C4.902,15.5788 1.193,11.8658 0.235,8.0258 C-0.29,5.9288 0.071,3.9298 1.249,2.3998 C3.02,0.1018 5.569,-0.0622 7.367,0.5488 C8.731,1.0128 9.782,1.9098 10.354,3.0248 C10.926,1.9098 11.978,1.0128 13.342,0.5488 C15.137,-0.0622 17.688,0.1018 19.458,2.3998 C19.834,2.8888 20.131,3.4278 20.34,4.0028 C20.431,4.2528 20.302,4.5278 20.053,4.6178 C19.804,4.7088 19.529,4.5798 19.438,4.3308 C19.263,3.8488 19.014,3.3958 18.698,2.9858 C17.237,1.0888 15.134,0.9528 13.652,1.4568 C11.94,2.0398 10.834,3.4318 10.834,5.0048 C10.834,5.2698 10.62,5.4838 10.354,5.4838 C10.089,5.4838 9.874,5.2698 9.874,5.0048 C9.874,3.4318 8.769,2.0408 7.057,1.4568 C5.577,0.9528 3.471,1.0888 2.01,2.9848 C1,4.2978 0.708,5.9588 1.166,7.7928 C2.042,11.3038 5.471,14.7308 10.354,16.9918 C10.936,16.7228 11.507,16.4328 12.054,16.1288 C12.287,15.9988 12.579,16.0838 12.707,16.3138 C12.836,16.5458 12.752,16.8388 12.521,16.9668 C11.889,17.3178 11.227,17.6518 10.552,17.9568 C10.489,17.9858 10.421,17.9998 10.354,17.9998" id="Fill-1" fill="#000000" mask="url(#mask-2)"></path>
            </g>
            <path d="M20.5606,6.6621 C17.5856,5.8341 15.4836,9.2131 16.9726,11.2011 C15.4836,9.2131 11.6496,10.2801 11.6076,13.3681 C11.5656,16.5601 15.7576,18.9551 21.7826,17.6221 C24.7546,12.2161 23.6356,7.5191 20.5606,6.6621" id="Fill-4" fill="#009688"></path>
            <g id="Group-8" transform="translate(11.000000, 5.756100)">
                <mask id="mask-4" fill="white">
                    <use xlink:href="#path-3"></use>
                </mask>
                <g id="Clip-7"></g>
                <path d="M3.8472,4.9119 C3.5632,4.9119 3.2672,4.9589 2.9722,5.0559 C2.0742,5.3479 1.1082,6.1749 1.0882,7.6189 C1.0752,8.6249 1.5412,9.5429 2.4392,10.2719 C4.1832,11.6929 7.1722,12.1259 10.4652,11.4429 C12.0462,8.4749 12.4712,5.4859 11.5982,3.4119 C11.1502,2.3459 10.4012,1.6389 9.4312,1.3689 C8.0422,0.9819 6.9762,1.6769 6.4432,2.4559 C5.8312,3.3499 5.7982,4.4109 6.3572,5.1569 C6.4212,5.2429 6.4522,5.3449 6.4522,5.4439 C6.4522,5.5909 6.3872,5.7349 6.2612,5.8299 C6.0482,5.9889 5.7472,5.9439 5.5882,5.7329 C5.1892,5.1999 4.5532,4.9119 3.8472,4.9119 M7.5222,12.7179 C5.2182,12.7179 3.2042,12.1339 1.8322,11.0169 C0.7162,10.1079 0.1102,8.8959 0.1282,7.6049 C0.1542,5.6549 1.4602,4.5369 2.6742,4.1419 C3.4862,3.8789 4.3032,3.8939 5.0052,4.1539 C4.9532,3.4049 5.1692,2.6179 5.6502,1.9139 C6.3702,0.8599 7.8072,-0.0821 9.6892,0.4439 C10.9332,0.7909 11.9262,1.7129 12.4842,3.0399 C13.4882,5.4279 13.0092,8.8129 11.2022,12.0989 C11.1362,12.2189 11.0202,12.3059 10.8862,12.3349 C9.7252,12.5929 8.5932,12.7179 7.5222,12.7179" id="Fill-6" fill="#000000" mask="url(#mask-4)"></path>
            </g>
        </g>
    </g>
</svg>