<svg xmlns="http://www.w3.org/2000/svg" viewBox="0 0 21.34 26"><defs/><title>Hotel_icon</title><g id="Layer_2"><g id="Hotel"><line class="cls-hotel1" x1="20.84" y1="25.49" x2="0.5" y2="25.49" style="fill: none; stroke: #000; stroke-linecap: round; stroke-linejoin: round;"/><rect class="cls-hotel1" x="0.84" y="0.5" width="20" height="2" style="fill: none; stroke: #000; stroke-linecap: round; stroke-linejoin: round;"/><polyline class="cls-hotel1" points="1.84 25.5 1.84 2.5 19.84 2.5 19.84 25.49" style="fill: none; stroke: #000; stroke-linecap: round; stroke-linejoin: round;"/><rect class="cls-hotel1" x="3.87" y="6.49" width="3" height="3" style="fill: none; stroke: #000; stroke-linecap: round; stroke-linejoin: round;"/><rect class="cls-hotel1" x="14.86" y="6.49" width="3" height="3" style="fill: none; stroke: #000; stroke-linecap: round; stroke-linejoin: round;"/><rect class="cls-hotel1" x="3.87" y="14.83" width="3" height="3" style="fill: none; stroke: #000; stroke-linecap: round; stroke-linejoin: round;"/><rect class="cls-hotel1" x="14.86" y="14.83" width="3" height="3" style="fill: none; stroke: #000; stroke-linecap: round; stroke-linejoin: round;"/><path class="cls-hotel2" d="M10.67,19.81h0a2,2,0,0,1,2,2V25.5a0,0,0,0,1,0,0h-4a0,0,0,0,1,0,0V21.81A2,2,0,0,1,10.67,19.81Z" style="stroke: #000; stroke-linecap: round; stroke-linejoin: round; fill: #009688;"/></g></g></svg>
