<svg xmlns="http://www.w3.org/2000/svg" viewBox="0 0 70.24 46"><defs/><title>Hotel_Empty_state</title><g id="Layer_2"><g id="Layer_1-2"><line class="cls-1" x1="69.74" y1="45.47" x2="0.5" y2="45.47" style="fill: none; stroke: #000; stroke-linecap: round; stroke-linejoin: round;"/><rect class="cls-1" x="17.12" y="0.5" width="36" height="3.6" style="fill: none; stroke: #000; stroke-linecap: round; stroke-linejoin: round;"/><polyline class="cls-1" points="18.92 45.5 18.92 4.1 51.32 4.1 51.32 45.48" style="fill: none; stroke: #000; stroke-linecap: round; stroke-linejoin: round;"/><rect class="cls-1" x="22.57" y="11.29" width="5.4" height="5.4" style="fill: none; stroke: #000; stroke-linecap: round; stroke-linejoin: round;"/><rect class="cls-1" x="42.36" y="11.29" width="5.4" height="5.4" style="fill: none; stroke: #000; stroke-linecap: round; stroke-linejoin: round;"/><rect class="cls-1" x="22.57" y="26.29" width="5.4" height="5.4" style="fill: none; stroke: #000; stroke-linecap: round; stroke-linejoin: round;"/><rect class="cls-1" x="42.36" y="26.29" width="5.4" height="5.4" style="fill: none; stroke: #000; stroke-linecap: round; stroke-linejoin: round;"/><path class="cls-1" d="M34.81,35.25h0a3.6,3.6,0,0,1,3.6,3.6V45.5a0,0,0,0,1,0,0h-7.2a0,0,0,0,1,0,0V38.85A3.6,3.6,0,0,1,34.81,35.25Z" style="fill: none; stroke: #000; stroke-linecap: round; stroke-linejoin: round;"/><line class="cls-1" x1="58.82" y1="45.36" x2="58.82" y2="31.22" style="fill: none; stroke: #000; stroke-linecap: round; stroke-linejoin: round;"/><path class="cls-1" d="M58.82,35.31s1.5-2.33,2.75,0" style="fill: none; stroke: #000; stroke-linecap: round; stroke-linejoin: round;"/><path class="cls-1" d="M58.82,33.39a2,2,0,0,1,2.75-1" style="fill: none; stroke: #000; stroke-linecap: round; stroke-linejoin: round;"/><path class="cls-1" d="M58.82,33.39a2,2,0,0,0-2.75-1" style="fill: none; stroke: #000; stroke-linecap: round; stroke-linejoin: round;"/><path class="cls-1" d="M56.07,35.31s1.5-2.33,2.75,0" style="fill: none; stroke: #000; stroke-linecap: round; stroke-linejoin: round;"/><line class="cls-1" x1="66.57" y1="45.36" x2="66.57" y2="36.22" style="fill: none; stroke: #000; stroke-linecap: round; stroke-linejoin: round;"/><path class="cls-1" d="M66.57,40.31s1.5-2.33,2.75,0" style="fill: none; stroke: #000; stroke-linecap: round; stroke-linejoin: round;"/><path class="cls-1" d="M66.57,38.39a2,2,0,0,1,2.75-1" style="fill: none; stroke: #000; stroke-linecap: round; stroke-linejoin: round;"/><path class="cls-1" d="M66.57,38.39a2,2,0,0,0-2.75-1" style="fill: none; stroke: #000; stroke-linecap: round; stroke-linejoin: round;"/><path class="cls-1" d="M63.82,40.31s1.5-2.33,2.75,0" style="fill: none; stroke: #000; stroke-linecap: round; stroke-linejoin: round;"/><line class="cls-1" x1="12.17" y1="45.36" x2="12.17" y2="31.22" style="fill: none; stroke: #000; stroke-linecap: round; stroke-linejoin: round;"/><path class="cls-1" d="M12.17,35.31s-1.5-2.33-2.75,0" style="fill: none; stroke: #000; stroke-linecap: round; stroke-linejoin: round;"/><path class="cls-1" d="M12.17,33.39a2,2,0,0,0-2.75-1" style="fill: none; stroke: #000; stroke-linecap: round; stroke-linejoin: round;"/><path class="cls-1" d="M12.17,33.39a2,2,0,0,1,2.75-1" style="fill: none; stroke: #000; stroke-linecap: round; stroke-linejoin: round;"/><path class="cls-1" d="M14.92,35.31s-1.5-2.33-2.75,0" style="fill: none; stroke: #000; stroke-linecap: round; stroke-linejoin: round;"/><line class="cls-1" x1="4.42" y1="45.36" x2="4.42" y2="36.22" style="fill: none; stroke: #000; stroke-linecap: round; stroke-linejoin: round;"/><path class="cls-1" d="M4.42,40.31s-1.5-2.33-2.75,0" style="fill: none; stroke: #000; stroke-linecap: round; stroke-linejoin: round;"/><path class="cls-1" d="M4.42,38.39a2,2,0,0,0-2.75-1" style="fill: none; stroke: #000; stroke-linecap: round; stroke-linejoin: round;"/><path class="cls-1" d="M4.42,38.39a2,2,0,0,1,2.75-1" style="fill: none; stroke: #000; stroke-linecap: round; stroke-linejoin: round;"/><path class="cls-1" d="M7.17,40.31s-1.5-2.33-2.75,0" style="fill: none; stroke: #000; stroke-linecap: round; stroke-linejoin: round;"/></g></g></svg>
