<?xml version="1.0" encoding="UTF-8"?>
<svg width="72px" height="47px" viewBox="0 0 72 47" version="1.1" xmlns="http://www.w3.org/2000/svg" xmlns:xlink="http://www.w3.org/1999/xlink">
    <!-- Generator: Sketch 63.1 (92452) - https://sketch.com -->
    <title>Hotel_placeholder</title>
    <desc>Created with Sketch.</desc>
    <g id="Hotel_placeholder" stroke="none" stroke-width="1" fill="none" fill-rule="evenodd">
        <g id="Group-32" fill="#B2B2B2">
            <path d="M70.6934,46.9413 L1.4554,46.9413 C1.1784,46.9413 0.9554,46.7173 0.9554,46.4413 C0.9554,46.1653 1.1784,45.9413 1.4554,45.9413 L70.6934,45.9413 C70.9694,45.9413 71.1934,46.1653 71.1934,46.4413 C71.1934,46.7173 70.9694,46.9413 70.6934,46.9413" id="Fill-2"></path>
            <path d="M18.574,4.567 L53.574,4.567 L53.574,1.965 L18.574,1.965 L18.574,4.567 Z M54.074,5.567 L18.074,5.567 C17.798,5.567 17.574,5.343 17.574,5.067 L17.574,1.465 C17.574,1.189 17.798,0.965 18.074,0.965 L54.074,0.965 C54.351,0.965 54.574,1.189 54.574,1.465 L54.574,5.067 C54.574,5.343 54.351,5.567 54.074,5.567 L54.074,5.567 Z" id="Fill-4"></path>
            <path d="M19.8741,46.9657 C19.5981,46.9657 19.3741,46.7417 19.3741,46.4657 L19.3741,5.0637 C19.3741,4.7877 19.5981,4.5637 19.8741,4.5637 L52.2741,4.5637 C52.5511,4.5637 52.7741,4.7877 52.7741,5.0637 L52.7741,46.4417 C52.7741,46.7177 52.5511,46.9417 52.2741,46.9417 C51.9981,46.9417 51.7741,46.7177 51.7741,46.4417 L51.7741,5.5637 L20.3741,5.5637 L20.3741,46.4657 C20.3741,46.7417 20.1501,46.9657 19.8741,46.9657" id="Fill-6"></path>
            <path d="M24.022,17.154 L28.421,17.154 L28.421,12.754 L24.022,12.754 L24.022,17.154 Z M28.921,18.154 L23.522,18.154 C23.245,18.154 23.022,17.93 23.022,17.654 L23.022,12.253 C23.022,11.977 23.245,11.753 23.522,11.753 L28.921,11.753 C29.197,11.753 29.421,11.977 29.421,12.253 L29.421,17.654 C29.421,17.93 29.197,18.154 28.921,18.154 L28.921,18.154 Z" id="Fill-7"></path>
            <path d="M43.812,17.154 L48.211,17.154 L48.211,12.754 L43.812,12.754 L43.812,17.154 Z M48.711,18.154 L43.312,18.154 C43.035,18.154 42.812,17.93 42.812,17.654 L42.812,12.253 C42.812,11.977 43.035,11.753 43.312,11.753 L48.711,11.753 C48.987,11.753 49.211,11.977 49.211,12.253 L49.211,17.654 C49.211,17.93 48.987,18.154 48.711,18.154 L48.711,18.154 Z" id="Fill-8"></path>
            <path d="M24.022,32.152 L28.421,32.152 L28.421,27.752 L24.022,27.752 L24.022,32.152 Z M28.921,33.152 L23.522,33.152 C23.245,33.152 23.022,32.929 23.022,32.652 L23.022,27.252 C23.022,26.975 23.245,26.752 23.522,26.752 L28.921,26.752 C29.197,26.752 29.421,26.975 29.421,27.252 L29.421,32.652 C29.421,32.929 29.197,33.152 28.921,33.152 L28.921,33.152 Z" id="Fill-9"></path>
            <path d="M43.812,32.152 L48.211,32.152 L48.211,27.752 L43.812,27.752 L43.812,32.152 Z M48.711,33.152 L43.312,33.152 C43.035,33.152 42.812,32.929 42.812,32.652 L42.812,27.252 C42.812,26.975 43.035,26.752 43.312,26.752 L48.711,26.752 C48.987,26.752 49.211,26.975 49.211,27.252 L49.211,32.652 C49.211,32.929 48.987,33.152 48.711,33.152 L48.711,33.152 Z" id="Fill-10"></path>
            <path d="M32.6651,45.9657 L38.8641,45.9657 L38.8641,39.8157 C38.8641,38.1067 37.4741,36.7157 35.7651,36.7157 C34.0561,36.7157 32.6651,38.1067 32.6651,39.8157 L32.6651,45.9657 Z M39.3641,46.9657 L32.1651,46.9657 C31.8891,46.9657 31.6651,46.7417 31.6651,46.4657 L31.6651,39.8157 C31.6651,37.5547 33.5041,35.7157 35.7651,35.7157 C38.0251,35.7157 39.8641,37.5547 39.8641,39.8157 L39.8641,46.4657 C39.8641,46.7417 39.6411,46.9657 39.3641,46.9657 L39.3641,46.9657 Z" id="Fill-11"></path>
            <path d="M59.7764,46.826 C59.5004,46.826 59.2764,46.602 59.2764,46.326 L59.2764,32.189 C59.2764,31.913 59.5004,31.689 59.7764,31.689 C60.0524,31.689 60.2764,31.913 60.2764,32.189 L60.2764,46.326 C60.2764,46.602 60.0524,46.826 59.7764,46.826" id="Fill-12"></path>
            <path d="M62.5274,36.7753 C62.3484,36.7753 62.1754,36.6793 62.0864,36.5113 C61.9014,36.1663 61.6104,35.7523 61.2764,35.7383 C60.8844,35.7543 60.3714,36.2753 60.1974,36.5463 C60.0484,36.7783 59.7394,36.8453 59.5064,36.6963 C59.2744,36.5463 59.2074,36.2373 59.3564,36.0043 C59.4424,35.8703 60.2024,34.6783 61.3154,34.7393 C61.9644,34.7643 62.5194,35.2023 62.9674,36.0393 C63.0974,36.2833 63.0064,36.5863 62.7624,36.7153 C62.6874,36.7563 62.6064,36.7753 62.5274,36.7753" id="Fill-13"></path>
            <path d="M59.7764,34.8534 C59.7134,34.8534 59.6494,34.8414 59.5874,34.8164 C59.3314,34.7104 59.2094,34.4184 59.3144,34.1644 C59.3304,34.1244 59.7164,33.2034 60.6594,32.8114 C61.2774,32.5544 61.9694,32.5814 62.7174,32.8914 C62.9734,32.9974 63.0944,33.2904 62.9884,33.5444 C62.8824,33.7994 62.5884,33.9214 62.3354,33.8154 C61.8394,33.6094 61.4054,33.5834 61.0434,33.7344 C60.4894,33.9644 60.2414,34.5374 60.2394,34.5424 C60.1604,34.7364 59.9734,34.8534 59.7764,34.8534" id="Fill-14"></path>
            <path d="M59.7764,34.8534 C59.5814,34.8534 59.3954,34.7384 59.3154,34.5454 C59.2174,34.3194 58.6634,33.2184 57.2174,33.8154 C56.9644,33.9214 56.6714,33.7994 56.5644,33.5444 C56.4594,33.2904 56.5804,32.9974 56.8354,32.8914 C57.5844,32.5814 58.2754,32.5544 58.8944,32.8114 C59.8374,33.2034 60.2234,34.1244 60.2394,34.1644 C60.3434,34.4184 60.2214,34.7104 59.9654,34.8164 C59.9044,34.8414 59.8394,34.8534 59.7764,34.8534" id="Fill-15"></path>
            <path d="M59.7774,36.7753 C59.5984,36.7753 59.4254,36.6793 59.3364,36.5113 C59.1514,36.1663 58.8604,35.7523 58.5264,35.7383 C58.1214,35.7543 57.6214,36.2753 57.4474,36.5463 C57.2984,36.7783 56.9894,36.8453 56.7564,36.6963 C56.5244,36.5463 56.4574,36.2373 56.6064,36.0043 C56.6914,35.8703 57.4454,34.6783 58.5654,34.7393 C59.2144,34.7643 59.7694,35.2023 60.2174,36.0393 C60.3474,36.2833 60.2564,36.5863 60.0124,36.7153 C59.9374,36.7563 59.8564,36.7753 59.7774,36.7753" id="Fill-16"></path>
            <path d="M67.5264,46.826 C67.2504,46.826 67.0264,46.602 67.0264,46.326 L67.0264,37.189 C67.0264,36.913 67.2504,36.689 67.5264,36.689 C67.8024,36.689 68.0264,36.913 68.0264,37.189 L68.0264,46.326 C68.0264,46.602 67.8024,46.826 67.5264,46.826" id="Fill-17"></path>
            <path d="M70.2774,41.7753 C70.0984,41.7753 69.9254,41.6793 69.8364,41.5113 C69.6514,41.1663 69.3604,40.7523 69.0264,40.7383 C68.6234,40.7293 68.1214,41.2753 67.9474,41.5463 C67.7984,41.7783 67.4884,41.8453 67.2564,41.6963 C67.0244,41.5463 66.9574,41.2373 67.1064,41.0043 C67.1924,40.8713 67.9494,39.6693 69.0654,39.7393 C69.7144,39.7643 70.2694,40.2023 70.7174,41.0393 C70.8474,41.2833 70.7564,41.5863 70.5124,41.7153 C70.4374,41.7563 70.3564,41.7753 70.2774,41.7753" id="Fill-18"></path>
            <path d="M67.5264,39.8534 C67.4634,39.8534 67.3994,39.8414 67.3374,39.8164 C67.0814,39.7104 66.9594,39.4184 67.0644,39.1644 C67.0804,39.1244 67.4664,38.2034 68.4094,37.8114 C69.0264,37.5544 69.7194,37.5814 70.4674,37.8914 C70.7234,37.9974 70.8444,38.2904 70.7384,38.5444 C70.6324,38.8004 70.3394,38.9224 70.0854,38.8154 C69.5894,38.6104 69.1554,38.5844 68.7934,38.7344 C68.2394,38.9644 67.9914,39.5374 67.9894,39.5424 C67.9104,39.7364 67.7234,39.8534 67.5264,39.8534" id="Fill-19"></path>
            <path d="M67.5264,39.8534 C67.3314,39.8534 67.1454,39.7384 67.0654,39.5454 C66.9674,39.3204 66.4124,38.2184 64.9674,38.8154 C64.7144,38.9224 64.4214,38.8004 64.3144,38.5444 C64.2094,38.2904 64.3304,37.9974 64.5854,37.8914 C65.3344,37.5814 66.0264,37.5544 66.6444,37.8114 C67.5874,38.2034 67.9734,39.1244 67.9894,39.1644 C68.0934,39.4184 67.9714,39.7104 67.7154,39.8164 C67.6544,39.8414 67.5894,39.8534 67.5264,39.8534" id="Fill-20"></path>
            <path d="M67.5274,41.7753 C67.3484,41.7753 67.1754,41.6793 67.0864,41.5113 C66.9014,41.1663 66.6104,40.7523 66.2764,40.7383 C65.8594,40.7293 65.3714,41.2753 65.1974,41.5463 C65.0484,41.7783 64.7394,41.8453 64.5064,41.6963 C64.2744,41.5463 64.2074,41.2373 64.3564,41.0043 C64.4414,40.8713 65.1924,39.6693 66.3154,39.7393 C66.9644,39.7643 67.5194,40.2023 67.9674,41.0393 C68.0974,41.2833 68.0064,41.5863 67.7624,41.7153 C67.6874,41.7563 67.6064,41.7753 67.5274,41.7753" id="Fill-21"></path>
            <path d="M13.1241,46.826 C12.8481,46.826 12.6241,46.602 12.6241,46.326 L12.6241,32.189 C12.6241,31.913 12.8481,31.689 13.1241,31.689 C13.4001,31.689 13.6241,31.913 13.6241,32.189 L13.6241,46.326 C13.6241,46.602 13.4001,46.826 13.1241,46.826" id="Fill-22"></path>
            <path d="M10.3741,36.7753 C10.2941,36.7753 10.2131,36.7563 10.1391,36.7153 C9.8951,36.5863 9.8031,36.2833 9.9341,36.0393 C10.3821,35.2023 10.9371,34.7643 11.5851,34.7393 C12.6801,34.6853 13.4591,35.8703 13.5451,36.0043 C13.6941,36.2373 13.6271,36.5453 13.3951,36.6943 C13.1641,36.8443 12.8531,36.7773 12.7041,36.5463 C12.5281,36.2753 12.0271,35.7333 11.6231,35.7383 C11.2901,35.7533 11.0001,36.1673 10.8151,36.5113 C10.7251,36.6793 10.5531,36.7753 10.3741,36.7753" id="Fill-23"></path>
            <path d="M13.1241,34.8534 C12.9291,34.8534 12.7431,34.7384 12.6631,34.5454 C12.5661,34.3194 12.0101,33.2184 10.5651,33.8154 C10.3121,33.9214 10.0191,33.7994 9.9121,33.5444 C9.8071,33.2904 9.9281,32.9974 10.1831,32.8914 C10.9311,32.5814 11.6231,32.5544 12.2421,32.8114 C13.1851,33.2034 13.5711,34.1244 13.5871,34.1644 C13.6911,34.4184 13.5691,34.7104 13.3131,34.8164 C13.2521,34.8414 13.1871,34.8534 13.1241,34.8534" id="Fill-24"></path>
            <path d="M13.1241,34.8534 C13.0611,34.8534 12.9971,34.8414 12.9351,34.8164 C12.6791,34.7104 12.5571,34.4184 12.6621,34.1644 C12.6781,34.1244 13.0641,33.2034 14.0071,32.8114 C14.6251,32.5544 15.3171,32.5814 16.0651,32.8914 C16.3211,32.9974 16.4421,33.2904 16.3361,33.5444 C16.2301,33.7994 15.9371,33.9214 15.6831,33.8154 C15.1871,33.6094 14.7531,33.5834 14.3911,33.7344 C13.8371,33.9644 13.5891,34.5374 13.5871,34.5424 C13.5081,34.7364 13.3211,34.8534 13.1241,34.8534" id="Fill-25"></path>
            <path d="M13.1241,36.7753 C13.0441,36.7753 12.9631,36.7563 12.8891,36.7153 C12.6451,36.5863 12.5531,36.2833 12.6841,36.0393 C13.1321,35.2023 13.6871,34.7643 14.3351,34.7393 C15.4371,34.6853 16.2091,35.8703 16.2951,36.0043 C16.4441,36.2373 16.3771,36.5453 16.1451,36.6943 C15.9131,36.8443 15.6031,36.7773 15.4541,36.5463 C15.2781,36.2753 14.7751,35.7333 14.3731,35.7383 C14.0401,35.7533 13.7501,36.1673 13.5651,36.5113 C13.4751,36.6793 13.3031,36.7753 13.1241,36.7753" id="Fill-26"></path>
            <path d="M5.3741,46.826 C5.0981,46.826 4.8741,46.602 4.8741,46.326 L4.8741,37.189 C4.8741,36.913 5.0981,36.689 5.3741,36.689 C5.6501,36.689 5.8741,36.913 5.8741,37.189 L5.8741,46.326 C5.8741,46.602 5.6501,46.826 5.3741,46.826" id="Fill-27"></path>
            <path d="M2.6241,41.7753 C2.5441,41.7753 2.4631,41.7563 2.3891,41.7153 C2.1451,41.5863 2.0531,41.2833 2.1841,41.0393 C2.6321,40.2023 3.1871,39.7643 3.8351,39.7393 C4.9331,39.6743 5.7091,40.8713 5.7951,41.0043 C5.9441,41.2373 5.8771,41.5453 5.6451,41.6943 C5.4141,41.8453 5.1031,41.7763 4.9541,41.5463 C4.7781,41.2753 4.2891,40.7553 3.8731,40.7383 C3.5401,40.7533 3.2501,41.1673 3.0651,41.5113 C2.9751,41.6793 2.8031,41.7753 2.6241,41.7753" id="Fill-28"></path>
            <path d="M5.3741,39.8534 C5.1791,39.8534 4.9931,39.7384 4.9131,39.5454 C4.8161,39.3204 4.2601,38.2184 2.8151,38.8154 C2.5631,38.9224 2.2681,38.8004 2.1621,38.5444 C2.0571,38.2904 2.1781,37.9974 2.4331,37.8914 C3.1821,37.5814 3.8741,37.5544 4.4921,37.8114 C5.4351,38.2034 5.8211,39.1244 5.8371,39.1644 C5.9411,39.4184 5.8191,39.7104 5.5631,39.8164 C5.5021,39.8414 5.4371,39.8534 5.3741,39.8534" id="Fill-29"></path>
            <path d="M5.3741,39.8534 C5.3111,39.8534 5.2471,39.8414 5.1851,39.8164 C4.9291,39.7104 4.8071,39.4184 4.9121,39.1644 C4.9281,39.1244 5.3141,38.2034 6.2571,37.8114 C6.8751,37.5544 7.5671,37.5814 8.3151,37.8914 C8.5711,37.9974 8.6921,38.2904 8.5861,38.5444 C8.4801,38.8004 8.1871,38.9224 7.9331,38.8154 C7.4371,38.6104 7.0031,38.5844 6.6411,38.7344 C6.0871,38.9644 5.8391,39.5374 5.8371,39.5424 C5.7581,39.7364 5.5711,39.8534 5.3741,39.8534" id="Fill-30"></path>
            <path d="M5.3741,41.7753 C5.2941,41.7753 5.2131,41.7563 5.1391,41.7153 C4.8951,41.5863 4.8031,41.2833 4.9341,41.0393 C5.3821,40.2023 5.9371,39.7643 6.5851,39.7393 C7.6891,39.6743 8.4591,40.8713 8.5451,41.0043 C8.6941,41.2373 8.6271,41.5453 8.3951,41.6943 C8.1631,41.8453 7.8541,41.7763 7.7041,41.5463 C7.5281,41.2753 7.0371,40.7553 6.6231,40.7383 C6.2901,40.7533 6.0001,41.1673 5.8151,41.5113 C5.7251,41.6793 5.5531,41.7753 5.3741,41.7753" id="Fill-31"></path>
        </g>
    </g>
</svg>