<?xml version="1.0" encoding="UTF-8"?>
<svg width="24px" height="24px" viewBox="0 0 24 24" version="1.1" xmlns="http://www.w3.org/2000/svg" xmlns:xlink="http://www.w3.org/1999/xlink">
    <!-- Generator: Sketch 52.2 (67145) - http://www.bohemiancoding.com/sketch -->
    <title>Icon/Hot Tub</title>
    <desc>Created with Sketch.</desc>
    <defs>
        <polygon id="path-1" points="0.0003 0.3055 22 0.3055 22 4.1945 0.0003 4.1945"></polygon>
    </defs>
    <g id="Icon/Hot-Tub" stroke="none" stroke-width="1" fill="none" fill-rule="evenodd">
        <g id="Group-18" transform="translate(1.000000, 2.000000)">
            <path d="M2,11.0909 L2,12.9199 C2,15.1729 3.833,17.0049 6.086,17.0049 L15.904,17.0049 C18.162,17.0049 20,15.1729 20,12.9199 L20,11.0909 L2,11.0909 Z M15.904,18.0529 L6.086,18.0529 C3.256,18.0529 0.952,15.7499 0.952,12.9199 L0.952,10.5679 C0.952,10.2779 1.187,10.0429 1.477,10.0429 L20.523,10.0429 C20.813,10.0429 21.048,10.2779 21.048,10.5679 L21.048,12.9199 C21.048,15.7499 18.74,18.0529 15.904,18.0529 Z" id="Fill-1" fill="#000000"></path>
            <path d="M20.0557,7.7257 L1.9447,7.7257 C1.1597,7.7257 0.5247,8.3627 0.5247,9.1467 C0.5247,9.9317 1.1597,10.5677 1.9447,10.5677 L20.0557,10.5677 C20.8397,10.5677 21.4767,9.9317 21.4767,9.1467 C21.4767,8.3627 20.8397,7.7257 20.0557,7.7257" id="Fill-3" fill="#009688"></path>
            <g id="Group-7" transform="translate(0.000000, 6.896600)">
                <mask id="mask-2" fill="white">
                    <use xlink:href="#path-1"></use>
                </mask>
                <g id="Clip-6"></g>
                <path d="M1.9453,1.3535 C1.4493,1.3535 1.0483,1.7555 1.0483,2.2495 C1.0483,2.7455 1.4493,3.1465 1.9453,3.1465 L20.0543,3.1465 C20.5503,3.1465 20.9523,2.7455 20.9523,2.2495 C20.9523,1.7555 20.5503,1.3535 20.0543,1.3535 L1.9453,1.3535 Z M20.0543,4.1945 L1.9453,4.1945 C0.8733,4.1945 0.0003,3.3225 0.0003,2.2495 C0.0003,1.1775 0.8733,0.3055 1.9453,0.3055 L20.0543,0.3055 C21.1273,0.3055 22.0003,1.1775 22.0003,2.2495 C22.0003,3.3225 21.1273,4.1945 20.0543,4.1945 Z" id="Fill-5" fill="#000000" mask="url(#mask-2)"></path>
            </g>
            <path d="M4.8779,19.8966 C4.8059,19.8966 4.7319,19.8806 4.6609,19.8496 C4.3979,19.7296 4.2809,19.4186 4.4009,19.1566 L5.1759,17.4556 C5.2969,17.1916 5.6069,17.0796 5.8689,17.1956 C6.1329,17.3156 6.2489,17.6256 6.1289,17.8896 L5.3549,19.5896 C5.2669,19.7836 5.0759,19.8966 4.8779,19.8966" id="Fill-8" fill="#000000"></path>
            <path d="M17.0811,19.8966 C16.8831,19.8966 16.6921,19.7836 16.6041,19.5896 L15.8301,17.8896 C15.7101,17.6256 15.8261,17.3156 16.0901,17.1956 C16.3541,17.0796 16.6641,17.1916 16.7831,17.4556 L17.5581,19.1566 C17.6781,19.4186 17.5611,19.7296 17.2981,19.8496 C17.2271,19.8806 17.1531,19.8966 17.0811,19.8966" id="Fill-10" fill="#000000"></path>
            <path d="M5.0215,5.9864 C4.7315,5.9864 4.4975,5.7524 4.4975,5.4624 C4.4975,4.7424 5.1055,4.4044 5.5065,4.1814 C5.7285,4.0574 5.9785,3.9184 5.9785,3.8154 C5.9785,3.7124 5.7285,3.5724 5.5065,3.4484 C5.1055,3.2254 4.4975,2.8874 4.4975,2.1684 C4.4975,1.4474 5.1065,1.1114 5.5075,0.8864 C5.7175,0.7714 5.9785,0.6264 5.9785,0.5234 C5.9785,0.2344 6.2125,0.0004 6.5025,0.0004 C6.7925,0.0004 7.0265,0.2344 7.0265,0.5234 C7.0265,1.2434 6.4185,1.5794 6.0165,1.8034 C5.8055,1.9204 5.5445,2.0644 5.5445,2.1684 C5.5445,2.2714 5.7955,2.4104 6.0165,2.5344 C6.4185,2.7574 7.0265,3.0944 7.0265,3.8154 C7.0265,4.5354 6.4185,4.8734 6.0165,5.0954 C5.7955,5.2194 5.5445,5.3584 5.5445,5.4624 C5.5445,5.7524 5.3105,5.9864 5.0215,5.9864" id="Fill-12" fill="#000000"></path>
            <path d="M10.2598,5.9864 C9.9698,5.9864 9.7358,5.7524 9.7358,5.4624 C9.7358,4.7424 10.3428,4.4044 10.7448,4.1814 C10.9658,4.0574 11.2168,3.9184 11.2168,3.8154 C11.2168,3.7124 10.9658,3.5724 10.7448,3.4484 C10.3428,3.2254 9.7358,2.8874 9.7358,2.1684 C9.7358,1.4474 10.3438,1.1114 10.7458,0.8864 C10.9558,0.7714 11.2168,0.6264 11.2168,0.5234 C11.2168,0.2344 11.4508,0.0004 11.7398,0.0004 C12.0308,0.0004 12.2648,0.2344 12.2648,0.5234 C12.2648,1.2434 11.6568,1.5794 11.2548,1.8034 C11.0438,1.9204 10.7828,2.0644 10.7828,2.1684 C10.7828,2.2714 11.0338,2.4104 11.2548,2.5344 C11.6568,2.7574 12.2648,3.0944 12.2648,3.8154 C12.2648,4.5354 11.6568,4.8734 11.2548,5.0954 C11.0338,5.2194 10.7828,5.3584 10.7828,5.4624 C10.7828,5.7524 10.5488,5.9864 10.2598,5.9864" id="Fill-14" fill="#000000"></path>
            <path d="M15.4971,5.9864 C15.2081,5.9864 14.9741,5.7524 14.9741,5.4624 C14.9741,4.7424 15.5811,4.4044 15.9831,4.1814 C16.2041,4.0574 16.4551,3.9184 16.4551,3.8154 C16.4551,3.7124 16.2041,3.5724 15.9831,3.4484 C15.5811,3.2254 14.9741,2.8874 14.9741,2.1684 C14.9741,1.4474 15.5821,1.1114 15.9841,0.8864 C16.1941,0.7714 16.4551,0.6264 16.4551,0.5234 C16.4551,0.2344 16.6891,0.0004 16.9781,0.0004 C17.2681,0.0004 17.5031,0.2344 17.5031,0.5234 C17.5031,1.2434 16.8941,1.5794 16.4931,1.8034 C16.2821,1.9204 16.0211,2.0644 16.0211,2.1684 C16.0211,2.2714 16.2711,2.4104 16.4931,2.5344 C16.8941,2.7574 17.5031,3.0944 17.5031,3.8154 C17.5031,4.5354 16.8941,4.8734 16.4931,5.0954 C16.2711,5.2194 16.0211,5.3584 16.0211,5.4624 C16.0211,5.7524 15.7871,5.9864 15.4971,5.9864" id="Fill-16" fill="#000000"></path>
        </g>
    </g>
</svg>