<svg xmlns="http://www.w3.org/2000/svg" viewBox="0 0 29 15.91"><defs/><title>House_boat_icon</title><g id="Layer_2"><g id="House_boat"><path class="cls-houseboat1" d="M28.5,15.41c-1.75,0-1.75-2-3.5-2s-1.75,2-3.5,2-1.75-2-3.49-2-1.75,2-3.5,2-1.75-2-3.5-2-1.75,2-3.5,2-1.75-2-3.51-2-1.75,2-3.51,2" style="fill: none; stroke-linecap: round; stroke-linejoin: round; stroke: #000;"/><line class="cls-houseboat2" x1="19.8" y1="0.5" x2="19.8" y2="7.77" style="fill: none; stroke-linecap: round; stroke-linejoin: round; stroke: #009688;"/><line class="cls-houseboat2" x1="5.92" y1="0.5" x2="5.92" y2="7.77" style="fill: none; stroke-linecap: round; stroke-linejoin: round; stroke: #009688;"/><line class="cls-houseboat1" x1="21.83" y1="0.5" x2="2.92" y2="0.5" style="fill: none; stroke-linecap: round; stroke-linejoin: round; stroke: #000;"/><path class="cls-houseboat1" d="M3.79,13.28s-2.41-1-2-5.51H28a6.12,6.12,0,0,1-2.64,5.51" style="fill: none; stroke-linecap: round; stroke-linejoin: round; stroke: #000;"/></g></g></svg>
