<svg xmlns="http://www.w3.org/2000/svg" viewBox="0 0 107.2 77.47"><defs/><title>Forgot_password</title><g id="Layer_2"><g id="Layer_1-2"><rect class="IllusPassword-1" x="0.5" y="30.96" width="86.75" height="25.86" rx="12.93" ry="12.93" transform="translate(87.87 87.66) rotate(179.84)" style="fill: none; stroke: #000; stroke-linecap: round; stroke-linejoin: round;"/><circle class="IllusPassword-2" cx="13.93" cy="43.78" r="2.49" transform="translate(-0.12 0.04) rotate(-0.16)" style="stroke: #000; stroke-linecap: round; stroke-linejoin: round; fill: #009688;"/><circle class="IllusPassword-2" cx="25.17" cy="43.74" r="2.49" transform="translate(-0.12 0.07) rotate(-0.16)" style="stroke: #000; stroke-linecap: round; stroke-linejoin: round; fill: #009688;"/><circle class="IllusPassword-2" cx="36.41" cy="43.71" r="2.49" transform="translate(-0.12 0.1) rotate(-0.16)" style="stroke: #000; stroke-linecap: round; stroke-linejoin: round; fill: #009688;"/><circle class="IllusPassword-2" cx="47.65" cy="43.68" r="2.49" transform="translate(-0.12 0.13) rotate(-0.16)" style="stroke: #000; stroke-linecap: round; stroke-linejoin: round; fill: #009688;"/><circle class="IllusPassword-2" cx="58.9" cy="43.65" r="2.49" transform="translate(-0.12 0.16) rotate(-0.16)" style="stroke: #000; stroke-linecap: round; stroke-linejoin: round; fill: #009688;"/><rect class="IllusPassword-3" x="57.38" y="48.13" width="44.18" height="28.84" rx="4" ry="4" style="stroke: #000; stroke-linecap: round; stroke-linejoin: round; fill: #fff;"/><path class="IllusPassword-4" d="M85.7,48.09a.5.5,0,0,1-.5-.5V39.92a6,6,0,0,0-12.09,0v7.67a.5.5,0,0,1-.5.5h-4.5a.5.5,0,0,1-.5-.5v-8a11.54,11.54,0,0,1,23.09,0v8a.5.5,0,0,1-.5.5Z" style="fill: #009688;"/><path d="M79.16,28.57a11,11,0,0,1,11,11v8H85.7V39.92a6.54,6.54,0,0,0-6.54-6.54h0a6.54,6.54,0,0,0-6.54,6.54v7.67h-4.5v-8a11,11,0,0,1,11-11h0m0-1h0a12.05,12.05,0,0,0-12,12v8a1,1,0,0,0,1,1h4.5a1,1,0,0,0,1-1V39.92a5.54,5.54,0,0,1,11.09,0v7.67a1,1,0,0,0,1,1h4.5a1,1,0,0,0,1-1v-8a12.05,12.05,0,0,0-12-12Z"/><path class="IllusPassword-2" d="M82.84,62.4a3.68,3.68,0,1,0-6.06,2.79L75.47,73h7.36l-1.31-7.84A3.66,3.66,0,0,0,82.84,62.4Z" style="stroke: #000; stroke-linecap: round; stroke-linejoin: round; fill: #009688;"/><path class="IllusPassword-4" d="M97.13,34.2a3.32,3.32,0,0,1-2.43-1,3.38,3.38,0,0,1,0-4.88,3.28,3.28,0,0,1,2.41-.93,3.53,3.53,0,0,1,2.49.94,3.33,3.33,0,0,1,1,2.44,3.41,3.41,0,0,1-1,2.47A3.64,3.64,0,0,1,97.13,34.2ZM94.94,21.8a.5.5,0,0,1-.5-.5v-.54a8.57,8.57,0,0,1,.83-4c.52-1.09,2-2.69,4.61-5l.41-.49a3.76,3.76,0,0,0,.92-2.41,3.72,3.72,0,0,0-.94-2.66,4.5,4.5,0,0,0-5.93.42,5.82,5.82,0,0,0-.86,3.51.5.5,0,0,1-.5.5H88.59a.5.5,0,0,1-.5-.5,9.32,9.32,0,0,1,2.65-7.05A9.73,9.73,0,0,1,97.82.5a9.26,9.26,0,0,1,6.41,2.17,7.49,7.49,0,0,1,2.47,5.91,8.19,8.19,0,0,1-1.52,5c-.43.48-1.65,1.6-3.38,3.12a5,5,0,0,0-1.42,1.73,5.12,5.12,0,0,0-.53,2.32v.54a.5.5,0,0,1-.5.5Z" style="fill: #009688;"/><path d="M97.82,1a8.74,8.74,0,0,1,6.08,2,7,7,0,0,1,2.31,5.54,7.68,7.68,0,0,1-1.42,4.73c-.35.38-1.46,1.42-3.31,3a5.43,5.43,0,0,0-1.54,1.88,5.58,5.58,0,0,0-.58,2.54v.54H94.94v-.54A8.16,8.16,0,0,1,95.71,17c.5-1,2-2.65,4.5-4.88l.46-.54a4.26,4.26,0,0,0,1-2.73,4.2,4.2,0,0,0-1.08-3,5,5,0,0,0-6.69.46,6.32,6.32,0,0,0-1,3.81H88.59a8.79,8.79,0,0,1,2.5-6.69A9.19,9.19,0,0,1,97.82,1m-.69,26.89a3.06,3.06,0,0,1,2.15.81,2.84,2.84,0,0,1,.85,2.08,2.93,2.93,0,0,1-.85,2.12,3.13,3.13,0,0,1-2.15.81,2.84,2.84,0,0,1-2.08-.85,2.88,2.88,0,0,1,0-4.15,2.81,2.81,0,0,1,2.08-.81M97.82,0a10.22,10.22,0,0,0-7.43,2.71,9.79,9.79,0,0,0-2.8,7.41,1,1,0,0,0,1,1H93a1,1,0,0,0,1-1,5.45,5.45,0,0,1,.77-3.21,3.1,3.1,0,0,1,2.81-1.13,3.19,3.19,0,0,1,2.37.78,3.23,3.23,0,0,1,.78,2.29,3.28,3.28,0,0,1-.81,2.1l-.4.47c-2.64,2.36-4.13,4-4.69,5.15a9,9,0,0,0-.87,4.2v.54a1,1,0,0,0,1,1h4.42a1,1,0,0,0,1-1v-.54a4.55,4.55,0,0,1,.47-2.09,4.43,4.43,0,0,1,1.26-1.54l0,0c1.74-1.53,3-2.67,3.39-3.12l.06-.07a8.67,8.67,0,0,0,1.62-5.33,8,8,0,0,0-2.65-6.29A9.74,9.74,0,0,0,97.82,0Zm-.69,26.89A3.79,3.79,0,0,0,94.37,28a3.88,3.88,0,0,0,0,5.61,3.85,3.85,0,0,0,2.76,1.12,4.11,4.11,0,0,0,2.81-1.05l.05,0a4,4,0,0,0,1.14-2.82A3.85,3.85,0,0,0,100,28a4.09,4.09,0,0,0-2.86-1.1Z"/></g></g></svg>
