<svg xmlns="http://www.w3.org/2000/svg" viewBox="0 0 160.09 89.83"><defs/><title>404</title><g id="Layer_2"><g id="Layer_1-2"><path class="clsIllus404-1" d="M26.56,21.35a4.9,4.9,0,0,1,4.63,3.28A2.67,2.67,0,0,1,36,26.25H21.65A4.91,4.91,0,0,1,26.56,21.35Z" style="fill: #fff; stroke: #000; stroke-linecap: round; stroke-linejoin: round;"/><path class="clsIllus404-1" d="M135.63,22a3.85,3.85,0,0,0-3.13,1.61,5.78,5.78,0,0,0-10.85.57,2.39,2.39,0,0,0-4.09,1.69h21.92A3.86,3.86,0,0,0,135.63,22Z" style="fill: #fff; stroke: #000; stroke-linecap: round; stroke-linejoin: round;"/><path class="clsIllus404-2" d="M116.23,73.67l-3.23-10a12.58,12.58,0,0,0-4-6.48c-3.37-2.85-6.87-3-10.29-4L87.43,49.9l-1.84-.53-2.22-.64a10.57,10.57,0,0,0-5.71,0l-2.45.67-3.08.84-11,3C57,54.35,52.11,55.7,48.05,60.9a11.08,11.08,0,0,0-1.86,3.77l-2.9,7.73,26.41.45v3H88.76V73.2Z" style="fill: #009688;"/><path class="clsIllus404-3" d="M37.79,75.19H30.12V87.62H21.69V75.19H.5v-5L22.65,42.22h7.47v26h7.66ZM21.69,58.9l.51-5.22h-.26l-2.32,4.38-7.15,8.31L8.87,68.76l4.51-.58h8.31Z" style="stroke: #000; stroke-linecap: round; stroke-linejoin: round; fill: #009688;"/><path class="clsIllus404-1" d="M47,44.79Q47,23,55.38,11.73T79.36.5q16.72,0,24.59,11t7.87,33.25q0,21.72-8.42,33.13t-24,11.41A31.31,31.31,0,0,1,65,86.22a26.76,26.76,0,0,1-10.07-8.91,41.54,41.54,0,0,1-5.92-14A80.31,80.31,0,0,1,47,44.79Zm17.57,0q0,14,3.42,22.15t11.35,8.11a11.77,11.77,0,0,0,11.47-7.32q3.42-7.32,3.42-22.94a89.23,89.23,0,0,0-.79-12.51A36.73,36.73,0,0,0,91,22.83a14.19,14.19,0,0,0-4.58-6,11.66,11.66,0,0,0-7-2.07q-7.93,0-11.35,7.63T64.59,44.79Z" style="fill: #fff; stroke: #000; stroke-linecap: round; stroke-linejoin: round;"/><rect class="clsIllus404-3" x="49.1" y="32.07" width="60.84" height="16.83" rx="5" ry="5" style="stroke: #000; stroke-linecap: round; stroke-linejoin: round; fill: #009688;"/><path class="clsIllus404-1" d="M78,55H66.31a1.5,1.5,0,0,1-1.5-1.5V40.84a3,3,0,0,1,3-3H91.75a3,3,0,0,1,3,3V53.46a1.5,1.5,0,0,1-1.5,1.5H81.6" style="fill: #fff; stroke: #000; stroke-linecap: round; stroke-linejoin: round;"/><path class="clsIllus404-1" d="M69.56,39.26h1.24a1,1,0,0,1,1,1V42.5a0,0,0,0,1,0,0H68.56a0,0,0,0,1,0,0V40.26A1,1,0,0,1,69.56,39.26Z" style="fill: #fff; stroke: #000; stroke-linecap: round; stroke-linejoin: round;"/><path class="clsIllus404-1" d="M88.89,39.26h1.24a1,1,0,0,1,1,1V42.5a0,0,0,0,1,0,0H87.89a0,0,0,0,1,0,0V40.26A1,1,0,0,1,88.89,39.26Z" style="fill: #fff; stroke: #000; stroke-linecap: round; stroke-linejoin: round;"/><rect class="clsIllus404-4" x="77.96" y="56.71" width="3.65" height="6.08" rx="1.22" ry="1.22" style="stroke: #000; stroke-linecap: round; stroke-linejoin: round; fill: none;"/><path class="clsIllus404-3" d="M159.59,74.88l-7.66.13.21,12.43-8.43.14-.21-12.43-21.18.36-.08-5,21.68-28.32,7.47-.13L151.81,68l7.66-.13Zm-16.37-16,.43-5.22h-.26l-2.24,4.42-7,8.43-3.57,2.44,4.5-.66,8.31-.14Z" style="stroke: #000; stroke-linecap: round; stroke-linejoin: round; fill: #009688;"/><path class="clsIllus404-5" d="M69.08,51,63.24,52.6,66.61,67S69.46,57.78,69.08,51Z" style="fill: #fff;"/><path class="clsIllus404-5" d="M91,51l5.84,1.56L91.89,67A101.18,101.18,0,0,1,91,51Z" style="fill: #fff;"/><path class="clsIllus404-2" d="M54.9,72.4s3.48,1,7.47-8.54c0,0,5.47-12.47.87-11.26Z" style="fill: #009688;"/><path class="clsIllus404-4" d="M43.28,72.41l2.9-7.73a11.08,11.08,0,0,1,1.86-3.77c4.06-5.2,9-6.55,13.12-7.69l11-3,3.08-.84,2.45-.67a10.57,10.57,0,0,1,5.71,0l2.22.64,1.84.53,11.32,3.24c3.42,1,6.92,1.16,10.29,4a12.58,12.58,0,0,1,4,6.48l3.23,10" style="stroke: #000; stroke-linecap: round; stroke-linejoin: round; fill: none;"/><path class="clsIllus404-5" d="M80.2,58.28C73.12,58.28,73,51,73,51V36.1a.5.5,0,0,1,.5-.5H86.27a.5.5,0,0,1,.5.5V51C86.77,51,86.7,58.28,80.2,58.28Z" style="fill: #fff;"/><path d="M86.27,36.1V51s0,6.82-6.07,6.82c-6.67,0-6.67-6.82-6.67-6.82V36.1H86.27m0-1H73.53a1,1,0,0,0-1,1V51c0,2.7,1.6,7.82,7.67,7.82,5.59,0,7.07-5.11,7.07-7.82V36.1a1,1,0,0,0-1-1Z"/><path class="clsIllus404-6" d="M86.31,44.94l0,3.39s-7.21,3.84-12.74.05l.06-3.74Z" style="fill: #efefef;"/><path class="clsIllus404-1" d="M93.58,30.33c0,10.58-6.18,18.08-13.74,18.05S66.18,40.83,66.21,30.25,72.4,11.11,80,11.13,93.61,19.75,93.58,30.33Z" style="fill: #fff; stroke: #000; stroke-linecap: round; stroke-linejoin: round;"/><path class="clsIllus404-1" d="M92.92,28A3,3,0,0,1,96,31.14c0,2.15-2.32,3.51-3.5,3.5" style="fill: #fff; stroke: #000; stroke-linecap: round; stroke-linejoin: round;"/><path class="clsIllus404-1" d="M66.94,27.89A3,3,0,0,0,63.81,31c0,1.84,2.21,3.36,3.39,3.37" style="fill: #fff; stroke: #000; stroke-linecap: round; stroke-linejoin: round;"/><path class="clsIllus404-2" d="M67.38,7.88s-18,16.35-.81,20c0,0,.67-7.32,6.11-5.92,21.47-3.25,20.56,6,20.56,6C97,5.19,83.3,8.18,77.39,9.56,72,10.83,75.64,8.17,75.64,8.17S71.22,5.66,67.38,7.88Z" style="fill: #009688;"/><path class="clsIllus404-4" d="M65,14.13a6.28,6.28,0,0,0-3,5.2" style="stroke: #000; stroke-linecap: round; stroke-linejoin: round; fill: none;"/><path class="clsIllus404-6" d="M82.17,44.13a4.19,4.19,0,0,1-2,.24,4.19,4.19,0,0,1-2-.24,4.71,4.71,0,0,1,3.94,0Z" style="fill: #efefef;"/><path class="clsIllus404-3" d="M71,11.13s-3.29,2.15-3.76,4.72" style="stroke: #000; stroke-linecap: round; stroke-linejoin: round; fill: #009688;"/><path class="clsIllus404-4" d="M75.64,8.17S72,10.84,77.39,9.56C83.3,8.17,97.16,5.12,93.24,28c0,0,.74-9.32-20.56-6-5.37-1.36-6.11,5.92-6.11,5.92-17.22-3.67.81-20,.81-20" style="stroke: #000; stroke-linecap: round; stroke-linejoin: round; fill: none;"/><path class="clsIllus404-2" d="M105.65,72.4s-4.83,1.55-8.82-8c0,0-3-8.89-.85-14.39Z" style="fill: #009688;"/><path class="clsIllus404-4" d="M65.33,52.07S63.8,67.8,55.44,73.34" style="stroke: #000; stroke-linecap: round; stroke-linejoin: round; fill: none;"/><path class="clsIllus404-4" d="M69.08,51S69.73,74,56.38,78.8" style="stroke: #000; stroke-linecap: round; stroke-linejoin: round; fill: none;"/><path class="clsIllus404-4" d="M94.67,52.07s.57,16.78,9,21" style="stroke: #000; stroke-linecap: round; stroke-linejoin: round; fill: none;"/><path class="clsIllus404-4" d="M91.18,51S87.41,75.32,102.72,78.8" style="stroke: #000; stroke-linecap: round; stroke-linejoin: round; fill: none;"/><path class="clsIllus404-1" d="M60.57,34.37h0a16.59,16.59,0,0,0,.57-2.77,8.72,8.72,0,0,1,11.1-7.45,1.89,1.89,0,0,1,1.15,2.69,2,2,0,0,1-2.31.91,4.95,4.95,0,0,0-6.07,6,4.84,4.84,0,0,0,2.19,3,5,5,0,0,0,5.8-.43,1.89,1.89,0,0,1,2.91.58,2,2,0,0,1-.56,2.38,8.72,8.72,0,0,1-5.54,2h0a2.6,2.6,0,0,0-2.52,1.93l-.11.41L54.11,76.73A5.83,5.83,0,0,1,46,79.93h0a5.83,5.83,0,0,1-2.74-7.52L56.12,45A48.13,48.13,0,0,0,60.57,34.37Z" style="fill: #fff; stroke: #000; stroke-linecap: round; stroke-linejoin: round;"/><path class="clsIllus404-1" d="M98.47,34.37h0a16.59,16.59,0,0,1-.57-2.77,8.72,8.72,0,0,0-11.1-7.45,1.89,1.89,0,0,0-1.15,2.69,2,2,0,0,0,2.31.91,4.95,4.95,0,0,1,6.07,6,4.84,4.84,0,0,1-2.19,3,5,5,0,0,1-5.8-.43,1.89,1.89,0,0,0-2.91.58,2,2,0,0,0,.56,2.38,8.72,8.72,0,0,0,5.54,2h0a2.6,2.6,0,0,1,2.52,1.93l.11.41,13.05,33.16a5.83,5.83,0,0,0,8.07,3.2h0a5.83,5.83,0,0,0,2.74-7.52L102.92,45A48.13,48.13,0,0,1,98.47,34.37Z" style="fill: #fff; stroke: #000; stroke-linecap: round; stroke-linejoin: round;"/><path class="clsIllus404-3" d="M85.53,27.95a26.85,26.85,0,0,1-12.06,0l2.22,4a17.23,17.23,0,0,1,8.21,0Z" style="stroke: #000; stroke-linecap: round; stroke-linejoin: round; fill: #009688;"/><circle class="clsIllus404-3" cx="89.35" cy="32.52" r="6.42" style="stroke: #000; stroke-linecap: round; stroke-linejoin: round; fill: #009688;"/><circle class="clsIllus404-1" cx="89.35" cy="32.52" r="3.82" style="fill: #fff; stroke: #000; stroke-linecap: round; stroke-linejoin: round;"/><circle class="clsIllus404-3" cx="69.69" cy="32.52" r="6.42" style="stroke: #000; stroke-linecap: round; stroke-linejoin: round; fill: #009688;"/><circle class="clsIllus404-1" cx="69.69" cy="32.52" r="3.82" style="fill: #fff; stroke: #000; stroke-linecap: round; stroke-linejoin: round;"/><circle class="clsIllus404-3" cx="79.52" cy="30.08" r="1.8" style="stroke: #000; stroke-linecap: round; stroke-linejoin: round; fill: #009688;"/></g></g></svg>
