<svg xmlns="http://www.w3.org/2000/svg"
     viewBox="0 0 58.64 68.09"><defs/><title>Support</title><g id="Layer_2"><g id="Layer_1-2"><line class="IllusSupport-1" x1="54.32" y1="67.59" x2="4.32" y2="67.59" style="fill: #009688; stroke: #000; stroke-linecap: round; stroke-linejoin: round;"/><path class="IllusSupport-2" d="M4.32,67.59V52.85a10,10,0,0,1,7.36-9.64L22,40.38l2.9-.79,2.3-.63a10.07,10.07,0,0,1,5.39,0l2.09.6,1.73.5,10.66,3a10,10,0,0,1,7.24,9.62V67.59" style="stroke: #000; stroke-linecap: round; stroke-linejoin: round; fill: #fff;"/><polyline class="IllusSupport-1" points="33.55 67.59 29.5 53.14 25.35 67.59" style="fill: #009688; stroke: #000; stroke-linecap: round; stroke-linejoin: round;"/><path class="IllusSupport-3" d="M35.46,54.88l-2.85-1.35c-.66,1-1.88,2.42-2.6,2.41s-2.59.47-3.81-2.8c-.39-1-1.53,2.42-2.87,1.74,0,0-.23-4.67,4-4.6s1.6.47,1.6.47l4.38-.87,2,3.26Z" style="fill: #efefef;"/><path class="IllusSupport-1" d="M27,50.34h4.57a1,1,0,0,1,.85,1.53l-2.22,3.59a1,1,0,0,1-1.69,0L26.2,51.89A1,1,0,0,1,27,50.34Z" style="fill: #009688; stroke: #000; stroke-linecap: round; stroke-linejoin: round;"/><path class="IllusSupport-4" d="M32,51.14s.63.16.11.91a6.06,6.06,0,0,0-2.83-.37,3.84,3.84,0,0,1-2.67.38l-.29-.39s-1.79-1.78.54-1.78,1.79.52,2.73.75C29.55,50.63,31.28,49.9,32,51.14Z" style="fill: #067f71;"/><path class="IllusSupport-5" d="M23.33,55.38l-.15,0a.5.5,0,0,1-.35-.42l-1.65-13a1.53,1.53,0,0,1,.92-1.83,1.13,1.13,0,0,0,.72-1.25.5.5,0,0,1,.38-.49h.12a.5.5,0,0,1,.44.27L30,50.4a.5.5,0,0,1-.35.72l-2.82.55-3.12,3.54A.5.5,0,0,1,23.33,55.38Z" style="fill: #fff;"/><path d="M23.33,38.86l6.22,11.77-3,.58-3.23,3.67-1.65-13c-.31-1.82,1.65-.79,1.65-3m0-1a1,1,0,0,0-1,1c0,.56-.09.61-.46.81A2,2,0,0,0,20.7,42l1.64,13a1,1,0,0,0,1.74.54l3-3.41,2.66-.52a1,1,0,0,0,.69-1.45L24.21,38.4a1,1,0,0,0-.88-.53Z"/><path class="IllusSupport-5" d="M35.46,55.38a.5.5,0,0,1-.4-.2l-2.63-3.45-3.28-.61a.5.5,0,0,1-.35-.72L35,38.63a.5.5,0,0,1,.4-.26h0a.5.5,0,0,1,.39.19,6,6,0,0,0,.69.72,2.24,2.24,0,0,1,.76,2.52L36,54.93a.5.5,0,0,1-.36.43Z" style="fill: #fff;"/><path d="M35.46,38.86c1,1.22,1.66,1,1.35,2.85L35.46,54.88l-2.75-3.6-3.47-.65,6.22-11.77m0-1h-.09a1,1,0,0,0-.79.53L28.35,50.17a1,1,0,0,0,.7,1.45l3.09.58,2.51,3.3a1,1,0,0,0,1.79-.5L37.8,41.85a2.71,2.71,0,0,0-.92-2.94,5.49,5.49,0,0,1-.63-.66,1,1,0,0,0-.79-.38Z"/><path class="IllusSupport-5" d="M29.55,51.13a.5.5,0,0,1-.42-.23l-6.22-9.54a.51.51,0,0,1-.08-.27v-14a.5.5,0,0,1,.5-.5h12a.5.5,0,0,1,.5.5v14a.5.5,0,0,1-.07.26L30,50.89a.5.5,0,0,1-.42.24Z" style="fill: #fff;"/><path d="M35.33,27.09v14l-5.78,9.54-6.22-9.54v-14h12m0-1h-12a1,1,0,0,0-1,1v14a1,1,0,0,0,.16.55l6.22,9.54a1,1,0,0,0,.84.45h0a1,1,0,0,0,.84-.48l5.78-9.54a1,1,0,0,0,.14-.52v-14a1,1,0,0,0-1-1Z"/><path class="IllusSupport-3" d="M35.16,35.84l-.08,2.82s-6.19,3.57-11.4,0l-.29-3.52Z" style="fill: #efefef;"/><path class="IllusSupport-1" d="M29.39.5c-5.35,0-16.77,1-13.91,17.35,1.84,10.55,6.15,19.41,13.8,19.44S42.2,28.6,43.19,17.94C44.43,4.69,41,5.2,37.54,3.94a3.84,3.84,0,0,1-1.26-.75A10.58,10.58,0,0,0,29.39.5Z" style="fill: #009688; stroke: #000; stroke-linecap: round; stroke-linejoin: round;"/><path class="IllusSupport-2" d="M42.22,21.65c0,10-5.82,17-12.94,17S16.4,31.54,16.43,21.57s5.83-18,12.95-18S42.25,11.68,42.22,21.65Z" style="stroke: #000; stroke-linecap: round; stroke-linejoin: round; fill: #fff;"/><path class="IllusSupport-6" d="M39.53,7.31l2.85,9.36a8,8,0,0,0-6.75-5.51S33.07,10.64,34,9a4.45,4.45,0,0,1-2.25,2.15S26.4,13,22,12.56c0,0-3.5-1.13-5,3.5-1.33-.62.53-4.88.53-4.88L23,3.82l8.2-1.9Z" style="fill: #009688;"/><path class="IllusSupport-7" d="M17.06,16.06s.87-3.74,4.2-3.63c4,.14,12.41,0,12.92-4.2" style="stroke: #000; stroke-linecap: round; stroke-linejoin: round; fill: none;"/><path class="IllusSupport-7" d="M41.5,15.62a5.29,5.29,0,0,0-4.58-4.19C33.51,11,33.66,9.6,33.66,9.6" style="stroke: #000; stroke-linecap: round; stroke-linejoin: round; fill: none;"/><path class="IllusSupport-2" d="M41.61,19.43a2.78,2.78,0,0,1,2.86,3,3.81,3.81,0,0,1-3.13,3.3" style="stroke: #000; stroke-linecap: round; stroke-linejoin: round; fill: #fff;"/><path class="IllusSupport-2" d="M17.06,19.36a2.79,2.79,0,0,0-2.89,3c0,1.73,2,3.17,3.15,3.17" style="stroke: #000; stroke-linecap: round; stroke-linejoin: round; fill: #fff;"/><path class="IllusSupport-7" d="M21.36,5.19s-4.62,1.73-4.61,7.94" style="stroke: #000; stroke-linecap: round; stroke-linejoin: round; fill: none;"/><line class="IllusSupport-1" x1="14.44" y1="67.59" x2="14.44" y2="56.8" style="fill: #009688; stroke: #000; stroke-linecap: round; stroke-linejoin: round;"/><line class="IllusSupport-1" x1="44.32" y1="67.59" x2="44.32" y2="56.8" style="fill: #009688; stroke: #000; stroke-linecap: round; stroke-linejoin: round;"/><path class="IllusSupport-3" d="M31.47,34.65a4,4,0,0,1-1.85.23,4,4,0,0,1-1.85-.23,3.07,3.07,0,0,1,1.85-.41A3.07,3.07,0,0,1,31.47,34.65Z" style="fill: #efefef;"/><polygon points="38.55 58.04 41.83 57.26 40.87 60.63 38.55 58.04"/><polygon class="IllusSupport-6" points="37.94 58.35 40.38 61.09 36.88 61.94 37.94 58.35" style="fill: #009688;"/><path class="IllusSupport-2" d="M16.45,19c0-7.87,5.91-13.41,13-13.39S42.25,11.22,42.23,19.1c0,0,4.95-16.3-12.89-17C29.34,2.11,13,1.34,16.45,19Z" style="stroke: #000; stroke-linecap: round; stroke-linejoin: round; fill: #fff;"/><path class="IllusSupport-1" d="M41.06,27.5s4.22.76,4.49-2.14l.3-5a3.17,3.17,0,0,0-1.78-2.51l-.34-.17-1.91-.11-.36,0Z" style="fill: #009688; stroke: #000; stroke-linecap: round; stroke-linejoin: round;"/><ellipse class="IllusSupport-1" cx="29.06" cy="31.33" rx="3.58" ry="1.47" style="fill: #009688; stroke: #000; stroke-linecap: round; stroke-linejoin: round;"/><path class="IllusSupport-7" d="M41.06,27.5s-.61,3.85-8.42,3.82" style="stroke: #000; stroke-linecap: round; stroke-linejoin: round; fill: none;"/><line class="IllusSupport-7" x1="58.14" y1="67.59" x2="0.5" y2="67.59" style="stroke: #000; stroke-linecap: round; stroke-linejoin: round; fill: none;"/></g></g></svg>
