<svg xmlns="http://www.w3.org/2000/svg" viewBox="0 0 55.42 50.18"><defs/><title>ProgressA</title><g id="Layer_2"><g id="Layer_1-2"><polyline class="IllusProgressA-1" points="43.66 25.52 21.9 6.42 0.5 25.52" style="fill: #efefef; stroke: #000; stroke-linecap: round; stroke-linejoin: round;"/><path class="IllusProgressA-2" d="M.5,25.52H43.66a0,0,0,0,1,0,0V47.68a2,2,0,0,1-2,2H2.5a2,2,0,0,1-2-2V25.52a0,0,0,0,1,0,0Z" style="stroke: #000; stroke-linecap: round; stroke-linejoin: round; fill: #fff;"/><polygon class="IllusProgressA-3" points="43.48 26.49 22.77 37.88 0.95 26.74 0.63 25.99 43.23 25.99 43.48 26.49" style="fill: #009688;"/><rect class="IllusProgressA-2" x="7.21" y="0.5" width="29.87" height="41.16" style="stroke: #000; stroke-linecap: round; stroke-linejoin: round; fill: #fff;"/><line class="IllusProgressA-4" x1="32.88" y1="10.52" x2="11.22" y2="10.52" style="stroke-linecap: round; stroke-linejoin: round; fill: none; stroke: #009688;"/><line class="IllusProgressA-4" x1="32.88" y1="15.54" x2="11.22" y2="15.54" style="stroke-linecap: round; stroke-linejoin: round; fill: none; stroke: #009688;"/><line class="IllusProgressA-4" x1="31.01" y1="20.57" x2="11.22" y2="20.57" style="stroke-linecap: round; stroke-linejoin: round; fill: none; stroke: #009688;"/><line class="IllusProgressA-4" x1="23.88" y1="25.59" x2="11.22" y2="25.59" style="stroke-linecap: round; stroke-linejoin: round; fill: none; stroke: #009688;"/><polygon class="IllusProgressA-5" points="22.08 38.26 38.25 29.24 38.25 45.83 4.45 45.83 5.59 29.24 22.08 38.26" style="fill: #fff;"/><polyline class="IllusProgressA-6" points="43.66 26.22 22.08 38.26 0.5 26.22" style="stroke: #000; stroke-linecap: round; stroke-linejoin: round; fill: none;"/><line class="IllusProgressA-6" x1="43.15" y1="49.02" x2="23.88" y2="37.6" style="stroke: #000; stroke-linecap: round; stroke-linejoin: round; fill: none;"/><line class="IllusProgressA-6" x1="1.59" y1="49.02" x2="20.85" y2="37.6" style="stroke: #000; stroke-linecap: round; stroke-linejoin: round; fill: none;"/><path class="IllusProgressA-7" d="M47.69,24.81H50.9a0,0,0,0,1,0,0V36.4A1.41,1.41,0,0,1,49.5,37.8h-.4a1.41,1.41,0,0,1-1.41-1.41V24.81a0,0,0,0,1,0,0Z" transform="translate(-5.16 52.4) rotate(-53.59)" style="stroke: #000; stroke-linecap: round; stroke-linejoin: round; fill: #009688;"/><path class="IllusProgressA-7" d="M31.11,17.9A9,9,0,1,0,43.72,16,9,9,0,0,0,31.11,17.9Zm12.2,9A6.14,6.14,0,1,1,42,18.31,6.14,6.14,0,0,1,43.31,26.89Z" style="stroke: #000; stroke-linecap: round; stroke-linejoin: round; fill: #009688;"/></g></g></svg>
