<svg xmlns="http://www.w3.org/2000/svg" viewBox="0 0 51.04 48.82"><defs/><title>destinations</title><g id="Layer_2"><g id="Layer_1-2"><path class="IllusDestinations-1" d="M9.1,33.92s1.51-2.42,2.61-1.06-1.33,2.36,3.73,2.34,2.32-1.14,6.91.54-1.93,1.15-.94,2.67.8,8.1-2,4.51-1.35.11-5.08-3.13S8,40,9.1,33.92Z" style="fill: none; stroke: #000; stroke-linecap: round; stroke-linejoin: round;"/><path class="IllusDestinations-1" d="M38.2,44.41c-1-.35-2.73.45-3.86.75s-1.57.13-.56-1.71c.09-.17.17-.32.24-.47,1.57-3.34-1.62-3,1.87-3.37a2.71,2.71,0,0,1,.22-.19,2.55,2.55,0,0,1,.5-.32c.59-.29,1.36-.31,1.59,1.28C38.58,43.06,40.12,45.08,38.2,44.41Z" style="fill: none; stroke: #000; stroke-linecap: round; stroke-linejoin: round;"/><polygon class="IllusDestinations-1" points="11.6 48.32 0.5 46.59 5.8 28.46 14.35 29.47 11.6 48.32" style="fill: none; stroke: #000; stroke-linecap: round; stroke-linejoin: round;"/><polygon class="IllusDestinations-1" points="23.2 46.59 11.6 48.32 14.35 29.47 23.2 28.46 23.2 46.59" style="fill: none; stroke: #000; stroke-linecap: round; stroke-linejoin: round;"/><path class="IllusDestinations-1" d="M33.05,36.3c-1.83-1.93-4.18-4.57-6.39-7.44" style="fill: none; stroke: #000; stroke-linecap: round; stroke-linejoin: round;"/><path class="IllusDestinations-1" d="M34.8,48.32,23.2,46.59V28.46l3.46.4c2.21,2.87,4.56,5.51,6.39,7.44L34,43l.32,2.18Z" style="fill: none; stroke: #000; stroke-linecap: round; stroke-linejoin: round;"/><path class="IllusDestinations-1" d="M42,33.34c-2.42,2.76-4.56,4.91-5.42,5.76a2.55,2.55,0,0,0-.5.32c-.31-.3-1.49-1.44-3.06-3.12" style="fill: none; stroke: #000; stroke-linecap: round; stroke-linejoin: round;"/><path class="IllusDestinations-1" d="M45.9,46.59,34.8,48.32l-.46-3.16L34,43l-1-6.68c1.57,1.68,2.75,2.82,3.06,3.12a2.55,2.55,0,0,1,.5-.32c.86-.85,3-3,5.42-5.76Z" style="fill: none; stroke: #000; stroke-linecap: round; stroke-linejoin: round;"/><path class="IllusDestinations-2" d="M36.19.5A14.35,14.35,0,0,0,21.85,14.85c0,7.92,14.35,21.57,14.35,21.57S50.54,22.77,50.54,14.85A14.35,14.35,0,0,0,36.19.5Zm0,22.4a8.05,8.05,0,1,1,8.05-8.05A8.05,8.05,0,0,1,36.19,22.9Z" style="stroke: #000; stroke-linecap: round; stroke-linejoin: round; fill: #009688;"/></g></g></svg>
