<?xml version="1.0" encoding="UTF-8"?>
<svg width="80px" height="64px" viewBox="0 0 80 64" version="1.1" xmlns="http://www.w3.org/2000/svg" xmlns:xlink="http://www.w3.org/1999/xlink">
    <!-- Generator: Sketch 43.2 (39069) - http://www.bohemiancoding.com/sketch -->
    <title>Destination_illus</title>
    <desc>Created with Sketch.</desc>
    <defs>
        <polygon id="path-1" points="0.244384083 0.109803922 10.1521559 0.109803922 10.1521559 15.4856863 0.244384083 15.4856863 0.244384083 0.109803922"/>
    </defs>
    <g id="Welcome" stroke="none" stroke-width="1" fill="none" fill-rule="evenodd">
        <g id="HomePage" transform="translate(-264.000000, -1077.000000)">
            <g id="largest-travel-marketplace" transform="translate(8.000000, 1017.000000)">
                <g id="destination" transform="translate(256.000000, 60.000000)">
                    <g id="Destination_illus">
                        <path d="M44.4627059,3.41023529 C44.4627059,3.41023529 -5.70513725,8.09572549 9.478,29.3941569 C9.478,29.3941569 -11.2302353,43.0227843 8.57211765,54.9023922 C28.3740784,66.782 45.3634902,66.8749412 54.0917255,54.6200392 C69.0591765,33.6051373 91.0795686,45.8863137 73.3407451,27.4565098 C55.6011373,9.02631373 69.2415294,-4.57643137 44.4627059,3.41023529" id="Fill-1" fill="#EEFFFD"/>
                        <path d="M61.8401569,34.8233725 C61.3895686,38.5880784 60.3617255,42.2351373 58.8248627,45.5449412 C58.6636863,45.8900392 58.502902,46.2272941 58.3307451,46.564549 C57.1895686,48.8351373 55.793098,50.9214118 54.1774118,52.764549 C53.9189804,53.0625882 53.648,53.3567059 53.3734902,53.6429804 C48.9303529,58.2861176 42.9774118,61.0978824 35.9695686,60.6939608 C31.9895686,60.4625882 28.5107451,59.7684706 25.4989804,58.6743529 L25.4950588,58.6743529 C25.0244706,58.5018039 24.5617255,58.3214118 24.1150588,58.1292549 C23.8362353,58.0116078 23.5621176,57.8900392 23.2911373,57.7606275 C20.7538824,56.5802353 18.6087843,55.0782745 16.8287843,53.2978824 C16.6127059,53.0821961 16.4013333,52.8586667 16.1934902,52.6351373 C12.0362353,48.0900392 10.102902,41.9174902 10.102902,34.8233725 C10.102902,23.0821961 17.9225098,13.6978824 28.6401569,10.7292549 C28.9264314,10.6508235 29.213098,10.5763137 29.502902,10.5057255 C31.5699608,10.0037647 33.7381961,9.74101961 35.9695686,9.74101961 C41.8640784,9.74101961 47.6362353,11.1802353 52.2440784,14.0390588 C52.3542745,14.1057255 52.4636863,14.1763137 52.5734902,14.246902 C58.9460392,18.3410196 62.9895686,25.219451 61.8401569,34.8233725" id="Fill-4" fill="#FD5346"/>
                        <path d="M27.1932549,24.2587059 C18.5658039,39.1567451 16.2128627,33.348902 19.3501176,41.348902 C21.028549,45.6312549 18.7305098,50.4116471 16.828549,53.2979216 C16.6128627,53.0822353 16.401098,52.8587059 16.1932549,52.6351765 C12.0363922,48.0900784 10.1030588,41.9175294 10.1030588,34.8234118 C10.1030588,23.0822353 17.9222745,13.6979216 28.6399216,10.7292941 C28.9265882,10.6508627 29.2128627,10.5763529 29.5030588,10.5057647 C30.4520784,13.2626275 30.6089412,18.3606667 27.1932549,24.2587059" id="Fill-6" fill="#EF3930"/>
                        <path d="M26.181451,23.6390588 C17.554,38.537098 15.2010588,32.7292549 18.3383137,40.7292549 C20.3069412,45.7527843 18.1069412,50.0978824 16.1932157,52.6351373 C12.0363529,48.0900392 10.1030196,41.9174902 10.1030196,34.8233725 C10.1030196,23.0821961 17.9222353,13.6978824 28.6402745,10.7292549 C30.1069412,12.5410196 30.4834118,16.2116078 26.181451,23.6390588" id="Fill-8" fill="#1FB5A3"/>
                        <path d="M54.1773725,52.764549 C53.9189412,53.0625882 53.6479608,53.3567059 53.373451,53.6429804 C48.9303137,58.2861176 42.9773725,61.0978824 35.9695294,60.6939608 C31.9895294,60.4625882 28.5107059,59.7684706 25.4989412,58.6743529 L25.4950196,58.6743529 C25.0244314,58.5018039 24.5616863,58.3214118 24.1150196,58.1292549 C23.8248235,57.9802353 23.5499216,57.8547451 23.291098,57.7606275 C25.5616863,56.7527843 28.8405098,54.9880784 28.8636471,51.5096471 C28.9263922,42.4586667 35.4601176,43.3802353 35.4601176,43.3802353 C35.4601176,43.3802353 32.7150196,48.4704314 43.6954118,50.5135686 C48.291098,51.3723922 51.718549,52.0665098 54.1773725,52.764549" id="Fill-10" fill="#EF3930"/>
                        <path d="M53.3735294,53.643098 C48.9303922,58.2862353 42.977451,61.098 35.9696078,60.6940784 C31.9896078,60.4627059 28.5107843,59.7685882 25.4990196,58.6744706 C27.7696078,57.6666275 29.6245098,55.7725098 29.6480392,52.2940784 C29.7107843,43.243098 34.4166667,44.1921176 34.4166667,44.1921176 C34.4166667,44.1921176 31.6715686,49.2823137 42.6519608,51.325451 C47.3970588,52.2117255 50.8990196,52.925451 53.3735294,53.643098" id="Fill-12" fill="#1FB5A3"/>
                        <path d="M61.8401569,34.8233725 C61.3895686,38.5880784 60.3617255,42.2351373 58.8248627,45.5449412 C58.6636863,45.8900392 58.502902,46.2272941 58.3307451,46.564549 C57.2209412,44.1606275 55.4009412,41.0547451 52.848,39.3527843 C48.2836863,36.3018039 43.0440784,30.6586667 43.0440784,30.6586667 C36.0872157,19.9253333 47.7738824,15.3488627 52.2440784,14.0390588 C52.3542745,14.1057255 52.4636863,14.1763137 52.5734902,14.246902 C58.9460392,18.3410196 62.9895686,25.219451 61.8401569,34.8233725" id="Fill-14" fill="#EF3930"/>
                        <path d="M61.8401569,34.8233725 C61.3895686,38.5880784 60.3617255,42.2351373 58.8248627,45.5449412 C58.648,45.2233725 58.4872157,44.8782745 58.3421176,44.5018039 C55.2087843,36.3527843 52.4558431,40.1057255 43.8283922,29.5841569 C37.475451,21.8351373 47.0758431,16.5135686 52.5734902,14.246902 C58.9460392,18.3410196 62.9895686,25.219451 61.8401569,34.8233725" id="Fill-16" fill="#1FB5A3"/>
                        <path d="M34.2241176,42.724549 C33.8096078,44.8316078 40.6990196,40.392 38.1480392,40.3249412 C35.5966667,40.2578824 35.2045098,37.7398431 34.2241176,42.724549" id="Fill-18" fill="#EF3930"/>
                        <path d="M33.8319608,42.3323922 C33.417451,44.439451 40.3068627,39.9998431 37.7558824,39.9327843 C35.2045098,39.8657255 34.8123529,37.3476863 33.8319608,42.3323922" id="Fill-20" fill="#1FB5A3"/>
                        <path d="M21.8608235,13.7497255 C21.2012157,13.7497255 20.6663137,13.2148235 20.6663137,12.5552157 C20.6663137,11.8956078 21.2012157,11.361098 21.8608235,11.361098 C22.5208235,11.361098 23.0553333,11.8956078 23.0553333,12.5552157 C23.0553333,13.2148235 22.5208235,13.7497255 21.8608235,13.7497255 M21.5623922,10.5736471 C17.4153333,11.1340392 22.2184706,16.7073725 22.2184706,16.7073725 C22.2184706,16.7073725 26.2863137,9.93560784 21.5623922,10.5736471" id="Fill-22" fill="#FAC22E"/>
                        <path d="M11.1109804,31.3462353 C10.6870588,31.8513333 9.93372549,31.9172157 9.42823529,31.4932941 C8.92313725,31.0689804 8.85764706,30.3156471 9.28156863,29.8101569 C9.70588235,29.3050588 10.4592157,29.2391765 10.9643137,29.6634902 C11.4694118,30.0878039 11.5352941,30.8407451 11.1109804,31.3462353 M8.48705882,29.532902 C6.24941176,33.0689804 13.6058824,32.9736863 13.6058824,32.9736863 C13.6058824,32.9736863 11.0356863,25.5046667 8.48705882,29.532902" id="Fill-24" fill="#FAC22E"/>
                        <path d="M35.9968627,38.6568627 C35.3380392,38.6270588 34.8282353,38.0690196 34.8576471,37.4098039 C34.887451,36.7509804 35.4458824,36.2407843 36.1043137,36.2705882 C36.7635294,36.3003922 37.2737255,36.8588235 37.2443137,37.5176471 C37.2141176,38.1764706 36.6560784,38.6866667 35.9968627,38.6568627 M35.8415686,35.4705882 C31.6741176,35.8435294 36.2207843,41.627451 36.2207843,41.627451 C36.2207843,41.627451 40.5898039,35.0462745 35.8415686,35.4705882" id="Fill-26" fill="#FAC22E"/>
                        <path d="M47.8396863,24.3630588 C47.1804706,24.3332549 46.6706667,23.7748235 46.7004706,23.116 C46.7298824,22.4571765 47.2883137,21.9469804 47.9471373,21.9767843 C48.6063529,22.0061961 49.116549,22.5646275 49.0867451,23.223451 C49.0569412,23.8826667 48.498902,24.3928627 47.8396863,24.3630588 M47.6843922,21.1767843 C43.516549,21.5497255 48.0632157,27.3336471 48.0632157,27.3336471 C48.0632157,27.3336471 52.4322353,20.7524706 47.6843922,21.1767843" id="Fill-28" fill="#FAC22E"/>
                        <g id="Group-32" transform="translate(33.333333, 0.282353)">
                            <mask id="mask-2" fill="white">
                                <use xlink:href="#path-1"/>
                            </mask>
                            <g id="Clip-31"/>
                            <path d="M4.79317647,8.0645098 C3.15788235,7.89745098 1.96768627,6.43666667 2.1347451,4.80176471 C2.30141176,3.16647059 3.76258824,1.97627451 5.39788235,2.14333333 C7.03278431,2.31039216 8.22298039,3.77117647 8.05592157,5.40607843 C7.8892549,7.04137255 6.42847059,8.23156863 4.79317647,8.0645098 M4.85670588,0.116666667 C-5.56407843,0.455098039 4.93082353,15.4856863 4.93082353,15.4856863 C4.93082353,15.4856863 16.7280784,-0.268823529 4.85670588,0.116666667" id="Fill-30" fill="#FAC22E" mask="url(#mask-2)"/>
                        </g>
                        <path d="M61.8347843,30.7166667 C61.4708627,30.1664706 61.6222353,29.4252941 62.1724314,29.0613725 C62.7230196,28.6978431 63.4638039,28.8488235 63.8277255,29.3994118 C64.1916471,29.9496078 64.0402745,30.6907843 63.4900784,31.0543137 C62.9394902,31.4182353 62.1987059,31.2668627 61.8347843,30.7166667 M64.3194902,28.7162745 C61.5653725,25.5656863 59.5649804,32.6456863 59.5649804,32.6456863 C59.5649804,32.6456863 67.4567451,32.3052941 64.3194902,28.7162745" id="Fill-33" fill="#FAC22E"/>
                        <path d="M38.2521569,52.5656078 C37.5929412,52.5358039 37.0831373,51.9773725 37.1129412,51.318549 C37.1423529,50.6597255 37.7007843,50.1495294 38.3596078,50.1793333 C39.0184314,50.2091373 39.5290196,50.7671765 39.4992157,51.4263922 C39.4694118,52.0852157 38.9113725,52.5954118 38.2521569,52.5656078 M38.0968627,49.3793333 C33.9290196,49.7522745 38.4756863,55.5361961 38.4756863,55.5361961 C38.4756863,55.5361961 42.8447059,48.9550196 38.0968627,49.3793333" id="Fill-35" fill="#FAC22E"/>
                        <path d="M17.817098,42.5573725 C17.1582745,42.5275686 16.6484706,41.9691373 16.6778824,41.3103137 C16.7076863,40.6514902 17.2661176,40.1412941 17.924549,40.171098 C18.5837647,40.200902 19.0939608,40.7589412 19.064549,41.4181569 C19.0343529,42.0769804 18.4763137,42.5871765 17.817098,42.5573725 M17.6618039,39.371098 C13.4943529,39.7440392 18.0410196,45.5279608 18.0410196,45.5279608 C18.0410196,45.5279608 22.4100392,38.9467843 17.6618039,39.371098" id="Fill-37" fill="#FAC22E"/>
                    </g>
                </g>
            </g>
        </g>
    </g>
</svg>
