<svg xmlns="http://www.w3.org/2000/svg"
     viewBox="0 0 46.64 49.26"><defs/><title>MoneySafe</title><g id="Layer_2"><g id="Layer_1-2"><path class="cls-IllusMoneySafe1" d="M16.13,44.8,13.5,47.43a4.57,4.57,0,0,1-6.45,0l-.53-.53L5.64,46,4.42,44.8,10.27,39Z" style="fill: #009688; stroke: #000; stroke-linecap: round; stroke-linejoin: round;"/><path class="cls-IllusMoneySafe1" d="M42.21,44.8l-2.62,2.62a4.57,4.57,0,0,1-6.45,0l-.53-.53L31.73,46,30.51,44.8,36.36,39Z" style="fill: #009688; stroke: #000; stroke-linecap: round; stroke-linejoin: round;"/><rect class="cls-IllusMoneySafe2" x="0.5" y="0.5" width="45.64" height="45.64" rx="7.52" ry="7.52" style="stroke: #000; stroke-linecap: round; stroke-linejoin: round; fill: #fff;"/><rect class="cls-IllusMoneySafe2" x="5.77" y="5.77" width="35.1" height="35.1" rx="4" ry="4" style="stroke: #000; stroke-linecap: round; stroke-linejoin: round; fill: #fff;"/><circle class="cls-IllusMoneySafe2" cx="23.32" cy="23.32" r="8.55" transform="translate(-9.66 23.32) rotate(-45)" style="stroke: #000; stroke-linecap: round; stroke-linejoin: round; fill: #fff;"/><circle class="cls-IllusMoneySafe1" cx="23.32" cy="23.32" r="11.24" transform="translate(-9.66 23.32) rotate(-45)" style="fill: #009688; stroke: #000; stroke-linecap: round; stroke-linejoin: round;"/><circle class="cls-IllusMoneySafe2" cx="23.32" cy="23.32" r="8.55" transform="translate(-9.66 23.32) rotate(-45)" style="stroke: #000; stroke-linecap: round; stroke-linejoin: round; fill: #fff;"/><line class="cls-IllusMoneySafe2" x1="17.28" y1="17.28" x2="29.37" y2="29.37" style="stroke: #000; stroke-linecap: round; stroke-linejoin: round; fill: #fff;"/><line class="cls-IllusMoneySafe2" x1="29.37" y1="17.28" x2="17.28" y2="29.37" style="stroke: #000; stroke-linecap: round; stroke-linejoin: round; fill: #fff;"/><circle class="cls-IllusMoneySafe2" cx="23.32" cy="23.32" r="4.42" transform="translate(-9.66 23.32) rotate(-45)" style="stroke: #000; stroke-linecap: round; stroke-linejoin: round; fill: #fff;"/><circle class="cls-IllusMoneySafe2" cx="23.32" cy="23.32" r="2.47" transform="translate(-9.66 23.32) rotate(-45)" style="stroke: #000; stroke-linecap: round; stroke-linejoin: round; fill: #fff;"/></g></g></svg>
