<svg xmlns="http://www.w3.org/2000/svg"
     viewBox="0 0 85.63 66.6"><defs/><title>Traveler</title><g id="Layer_2"><g id="Layer_1-2"><rect class="cls-illustraveler1" x="4.71" y="30.91" width="44.82" height="12.4" rx="5" ry="5" style="fill: #009688; stroke: #000; stroke-linecap: round; stroke-linejoin: round;"/><path class="cls-illustraveler2" d="M25.64,46H15a1.37,1.37,0,0,1-1.37-1.37V33.06a2.74,2.74,0,0,1,2.74-2.74h21.9A2.74,2.74,0,0,1,41,33.06V44.6A1.37,1.37,0,0,1,39.63,46H29" style="stroke: #000; stroke-linecap: round; stroke-linejoin: round; fill: #fff;"/><path class="cls-illustraveler3" d="M38.25,51.75h3.24a2,2,0,0,1,2,2V62.2a1,1,0,0,1-1,1H38.25a0,0,0,0,1,0,0V51.75A0,0,0,0,1,38.25,51.75Z" style="stroke: #000; stroke-linecap: round; stroke-linejoin: round; fill: none;"/><path class="cls-illustraveler3" d="M10.65,51.75h4.71a1,1,0,0,1,1,1V61.2a2,2,0,0,1-2,2H10.65a0,0,0,0,1,0,0V51.75A0,0,0,0,1,10.65,51.75Z" transform="translate(27.02 114.96) rotate(-180)" style="stroke: #000; stroke-linecap: round; stroke-linejoin: round; fill: none;"/><line class="cls-illustraveler3" x1="43.49" y1="56.01" x2="38.25" y2="56.01" style="stroke: #000; stroke-linecap: round; stroke-linejoin: round; fill: none;"/><line class="cls-illustraveler3" x1="15.89" y1="56.01" x2="10.65" y2="56.01" style="stroke: #000; stroke-linecap: round; stroke-linejoin: round; fill: none;"/><path class="cls-illustraveler2" d="M18.05,27.36h1a1,1,0,0,1,1,1v2a0,0,0,0,1,0,0h-3a0,0,0,0,1,0,0v-2A1,1,0,0,1,18.05,27.36Z" style="stroke: #000; stroke-linecap: round; stroke-linejoin: round; fill: #fff;"/><path class="cls-illustraveler2" d="M35.73,27.36h1a1,1,0,0,1,1,1v2a0,0,0,0,1,0,0h-3a0,0,0,0,1,0,0v-2A1,1,0,0,1,35.73,27.36Z" style="stroke: #000; stroke-linecap: round; stroke-linejoin: round; fill: #fff;"/><polyline class="cls-illustraveler3" points="38.26 30.91 38.26 63.2 16.36 63.2 16.36 30.91" style="stroke: #000; stroke-linecap: round; stroke-linejoin: round; fill: none;"/><rect class="cls-illustraveler3" x="25.64" y="43.31" width="3.34" height="5.56" rx="1.22" ry="1.22" style="stroke: #000; stroke-linecap: round; stroke-linejoin: round; fill: none;"/><rect class="cls-illustraveler1" x="21.84" y="52.26" width="10.95" height="10.95" style="fill: #009688; stroke: #000; stroke-linecap: round; stroke-linejoin: round;"/><path class="cls-illustraveler2" d="M49.53,47.62V66.08H4.71V47.7a9,9,0,0,1,6.6-8.64l9.26-2.54,2.6-.71,2.06-.56a9,9,0,0,1,4.83,0l1.87.54,1.55.45L43,39A9,9,0,0,1,49.53,47.62Z" style="stroke: #000; stroke-linecap: round; stroke-linejoin: round; fill: #fff;"/><path class="cls-illustraveler4" d="M27.38,43.42c-6.06,0-6.13-6.19-6.13-6.26V24.61a.5.5,0,0,1,.5-.5H32.51a.5.5,0,0,1,.5.5V37.16C33,39.32,31.83,43.42,27.38,43.42Z" style="fill: #fff;"/><path d="M32.51,24.61V37.16s0,5.76-5.12,5.76c-5.63,0-5.63-5.76-5.63-5.76V24.61H32.51m0-1H21.75a1,1,0,0,0-1,1V37.16c0,2.34,1.39,6.76,6.63,6.76,4.84,0,6.12-4.42,6.12-6.76V24.61a1,1,0,0,0-1-1Z"/><path class="cls-illustraveler5" d="M32.54,32.07l0,2.86s-6.09,3.24-10.76,0l0-3.16Z" style="fill: #efefef;"/><path class="cls-illustraveler2" d="M38.68,19.73c0,8.93-5.22,15.26-11.6,15.25S15.54,28.6,15.57,19.66,20.79,3.5,27.17,3.52,38.71,10.8,38.68,19.73Z" style="stroke: #000; stroke-linecap: round; stroke-linejoin: round; fill: #fff;"/><path class="cls-illustraveler2" d="M38.12,17.74a2.51,2.51,0,0,1,2.58,2.67,3.28,3.28,0,0,1-3,3" style="stroke: #000; stroke-linecap: round; stroke-linejoin: round; fill: #fff;"/><path class="cls-illustraveler2" d="M16.18,17.68a2.54,2.54,0,0,0-2.64,2.66,3.33,3.33,0,0,0,2.86,2.84" style="stroke: #000; stroke-linecap: round; stroke-linejoin: round; fill: #fff;"/><path class="cls-illustraveler6" d="M16.55.77s-15.22,13.81-.68,16.9c0,0,.57-6.18,5.16-5,18.13-2.75,17.36,5.07,17.36,5.07C41.59-1.5,30,1,25,2.2,20.46,3.27,23.53,1,23.53,1S19.8-1.1,16.55.77Z" style="fill: #009688;"/><path class="cls-illustraveler3" d="M14.53,6.05A5.3,5.3,0,0,0,12,10.44" style="stroke: #000; stroke-linecap: round; stroke-linejoin: round; fill: none;"/><line class="cls-illustraveler1" x1="13.78" y1="66.08" x2="13.78" y2="51.24" style="fill: #009688; stroke: #000; stroke-linecap: round; stroke-linejoin: round;"/><line class="cls-illustraveler1" x1="40.57" y1="66.08" x2="40.57" y2="51.24" style="fill: #009688; stroke: #000; stroke-linecap: round; stroke-linejoin: round;"/><path class="cls-illustraveler5" d="M29,31.39a3.54,3.54,0,0,1-1.66.21,3.54,3.54,0,0,1-1.66-.21A2.75,2.75,0,0,1,27.38,31,2.75,2.75,0,0,1,29,31.39Z" style="fill: #efefef;"/><line class="cls-illustraveler1" x1="40.7" y1="58.93" x2="49.53" y2="58.93" style="fill: #009688; stroke: #000; stroke-linecap: round; stroke-linejoin: round;"/><line class="cls-illustraveler1" x1="4.71" y1="58.93" x2="13.54" y2="58.93" style="fill: #009688; stroke: #000; stroke-linecap: round; stroke-linejoin: round;"/><path class="cls-illustraveler1" d="M19.61,3.52s-2.78,1.82-3.17,4" style="fill: #009688; stroke: #000; stroke-linecap: round; stroke-linejoin: round;"/><path class="cls-illustraveler3" d="M23.53,1S20.46,3.27,25,2.2C30,1,41.7-1.56,38.39,17.74c0,0,.63-7.87-17.36-5.07-4.53-1.15-5.16,5-5.16,5-14.54-3.1.68-16.9.68-16.9" style="stroke: #000; stroke-linecap: round; stroke-linejoin: round; fill: none;"/><rect class="cls-illustraveler6" x="5.19" y="57.01" width="8.1" height="1.62" style="fill: #009688;"/><rect class="cls-illustraveler6" x="41.06" y="57.07" width="7.98" height="1.62" style="fill: #009688;"/><path class="cls-illustraveler3" d="M14.82,38.09s1.18,7.43-1,13.15" style="stroke: #000; stroke-linecap: round; stroke-linejoin: round; fill: none;"/><path class="cls-illustraveler3" d="M18,37.23s1.53,13.47-4.21,19.83" style="stroke: #000; stroke-linecap: round; stroke-linejoin: round; fill: none;"/><path class="cls-illustraveler3" d="M39.6,38.09s-1.1,7.39,1,13.08" style="stroke: #000; stroke-linecap: round; stroke-linejoin: round; fill: none;"/><path class="cls-illustraveler3" d="M36.65,37.23s-2.56,13.28,3.92,19.72" style="stroke: #000; stroke-linecap: round; stroke-linejoin: round; fill: none;"/><path class="cls-illustraveler3" d="M23.84,27.24c0,.73,1.58,2.22,3.53,2.22s3.55-1.47,3.55-2.2Z" style="stroke: #000; stroke-linecap: round; stroke-linejoin: round; fill: none;"/><path class="cls-illustraveler1" d="M47.9,26.79c.55-3.16-2-3.4-1.7-6.6.21-2.25.47-2.84,1.29-3.88a16.36,16.36,0,0,0,1.8-2.8,12.83,12.83,0,0,1,23,0,16,16,0,0,0,1.81,2.81c.82,1,1.1,1.63,1.32,3.88.32,3.2-2,3.42-1.66,6.62s3.63,3,2.92,6.16c-.43,1.88-2.28,3.73,2.2,7.39s8.52,16.46-2.32,14.17-26.87-.45-26.57-14S46.37,35.59,47.9,26.79Z" style="fill: #009688; stroke: #000; stroke-linecap: round; stroke-linejoin: round;"/><path class="cls-illustraveler1" d="M60.91,56.06" style="fill: #009688; stroke: #000; stroke-linecap: round; stroke-linejoin: round;"/><ellipse class="cls-illustraveler2" cx="71.35" cy="27.04" rx="1.45" ry="2.43" style="stroke: #000; stroke-linecap: round; stroke-linejoin: round; fill: #fff;"/><path class="cls-illustraveler2" d="M48.85,27c0,1.34.65,2.43,1.45,2.43s1.45-1.09,1.45-2.43-.65-2.36-1.45-2.36S48.85,25.7,48.85,27Z" style="stroke: #000; stroke-linecap: round; stroke-linejoin: round; fill: #fff;"/><path class="cls-illustraveler2" d="M40.41,66V52.37a8.16,8.16,0,0,1,6-7.87l8.43-2.31,2.37-.64L59.1,41a8.22,8.22,0,0,1,4.4,0l1.71.49,1.41.41,8.7,2.49a8.17,8.17,0,0,1,5.91,7.85V66" style="stroke: #000; stroke-linecap: round; stroke-linejoin: round; fill: #fff;"/><path class="cls-illustraveler2" d="M55.93,42.4c-.81-2.74,0-11.43,0-11.43h9.8s.77,8.68,0,11.43" style="stroke: #000; stroke-linecap: round; stroke-linejoin: round; fill: #fff;"/><path class="cls-illustraveler5" d="M65.58,38.11l-.07,2.3s-5.05,2.91-9.3,0L56,37.53Z" style="fill: #efefef;"/><path class="cls-illustraveler2" d="M71.35,24.32c0,8.14-4.75,16.11-10.57,16.09s-10.51-8-10.48-16.15,4.76-12.51,10.57-12.49S71.37,16.18,71.35,24.32Z" style="stroke: #000; stroke-linecap: round; stroke-linejoin: round; fill: #fff;"/><path class="cls-illustraveler6" d="M68.38,10.84l4.11,10.57s-10.24-.21-13.71-1.94c0,0-2.69-1.81-2.9-2.77,0,0-1.31,7.27-6.34,7.56,0,0-4.16-12.2,9.64-13.42Z" style="fill: #009688;"/><path class="cls-illustraveler3" d="M49.81,24.81s5.92-3.53,6.06-8.12c0,0,1.47,5.23,15.47,4.68" style="stroke: #000; stroke-linecap: round; stroke-linejoin: round; fill: none;"/><path class="cls-illustraveler2" d="M44.22,56.47c0,2.44,2,5.52,4.42,5.52V66.1" style="stroke: #000; stroke-linecap: round; stroke-linejoin: round; fill: #fff;"/><path class="cls-illustraveler2" d="M77.48,56.47c0,2.44-2,5.52-4.42,5.52V66.1" style="stroke: #000; stroke-linecap: round; stroke-linejoin: round; fill: #fff;"/><path class="cls-illustraveler3" d="M56.91,33.19c0,.86,1.85,2.6,4.14,2.6s4.15-1.72,4.15-2.58Z" style="stroke: #000; stroke-linecap: round; stroke-linejoin: round; fill: none;"/><line class="cls-illustraveler1" x1="59.09" y1="24.67" x2="62.34" y2="24.67" style="fill: #009688; stroke: #000; stroke-linecap: round; stroke-linejoin: round;"/><path class="cls-illustraveler2" d="M59.37,25.81a4.78,4.78,0,0,1-9.55,0c0-2.64,2.14-3.29,4.78-3.29S59.37,23.17,59.37,25.81Z" style="stroke: #000; stroke-linecap: round; stroke-linejoin: round; fill: #fff;"/><path class="cls-illustraveler2" d="M62.06,25.81a4.78,4.78,0,0,0,9.55,0c0-2.64-2.14-3.29-4.78-3.29S62.06,23.17,62.06,25.81Z" style="stroke: #000; stroke-linecap: round; stroke-linejoin: round; fill: #fff;"/><line class="cls-illustraveler1" x1="56.46" y1="22.66" x2="64.96" y2="22.66" style="fill: #009688; stroke: #000; stroke-linecap: round; stroke-linejoin: round;"/><circle class="cls-illustraveler2" cx="75.01" cy="21.74" r="1.78" transform="translate(6.6 59.41) rotate(-45)" style="stroke: #000; stroke-linecap: round; stroke-linejoin: round; fill: #fff;"/><circle class="cls-illustraveler2" cx="70.16" cy="18.3" r="1.78" transform="translate(7.61 54.97) rotate(-45)" style="stroke: #000; stroke-linecap: round; stroke-linejoin: round; fill: #fff;"/><circle class="cls-illustraveler2" cx="71.26" cy="21.74" r="1.78" transform="translate(5.5 56.76) rotate(-45)" style="stroke: #000; stroke-linecap: round; stroke-linejoin: round; fill: #fff;"/><circle class="cls-illustraveler2" cx="73.23" cy="16.02" r="1.78" transform="translate(10.12 56.47) rotate(-45)" style="stroke: #000; stroke-linecap: round; stroke-linejoin: round; fill: #fff;"/><circle class="cls-illustraveler2" cx="76.3" cy="18.3" r="1.78" transform="translate(9.41 59.32) rotate(-45)" style="stroke: #000; stroke-linecap: round; stroke-linejoin: round; fill: #fff;"/><circle class="cls-illustraveler1" cx="73.23" cy="19.1" r="1.29" style="fill: #009688; stroke: #000; stroke-linecap: round; stroke-linejoin: round;"/><line class="cls-illustraveler2" x1="81.23" y1="59.82" x2="76.58" y2="59.82" style="stroke: #000; stroke-linecap: round; stroke-linejoin: round; fill: #fff;"/><line class="cls-illustraveler2" x1="45.06" y1="59.82" x2="40.41" y2="59.82" style="stroke: #000; stroke-linecap: round; stroke-linejoin: round; fill: #fff;"/><path class="cls-illustraveler3" d="M72.52,34.59S74,35.6,74,39.3c0,2,3.51,4,3.51,4" style="stroke: #000; stroke-linecap: round; stroke-linejoin: round; fill: none;"/><path class="cls-illustraveler2" d="M53.39,43.82a1.22,1.22,0,0,0,.86-.36,1.24,1.24,0,0,0,.37-.88,1.21,1.21,0,0,0-.37-.86.79.79,0,0,0-.19-.16,1.08,1.08,0,0,0-.21-.11l-.23-.07a1.21,1.21,0,0,0-1.11.35,1.2,1.2,0,0,0-.36.86,1.22,1.22,0,0,0,1.24,1.24Z" style="stroke: #000; stroke-linecap: round; stroke-linejoin: round; fill: #fff;"/><path class="cls-illustraveler2" d="M59.52,51.79a1.23,1.23,0,0,0-.8,2.33,1.12,1.12,0,0,0,.4.07,1.24,1.24,0,0,0,.41-2.41Z" style="stroke: #000; stroke-linecap: round; stroke-linejoin: round; fill: #fff;"/><path class="cls-illustraveler2" d="M56.37,49.17a1.23,1.23,0,0,0-1.7-.41A1.23,1.23,0,0,0,55.32,51a1.21,1.21,0,0,0,.64-.18A1.23,1.23,0,0,0,56.37,49.17Z" style="stroke: #000; stroke-linecap: round; stroke-linejoin: round; fill: #fff;"/><path class="cls-illustraveler2" d="M54.65,48.7a1.21,1.21,0,1,0-.4.07A1.17,1.17,0,0,0,54.65,48.7Z" style="stroke: #000; stroke-linecap: round; stroke-linejoin: round; fill: #fff;"/><path class="cls-illustraveler2" d="M53.85,46.31a1.27,1.27,0,1,0-.21,0Z" style="stroke: #000; stroke-linecap: round; stroke-linejoin: round; fill: #fff;"/><path class="cls-illustraveler2" d="M57.73,50.79a1.23,1.23,0,0,0-1.59,1.88,1.24,1.24,0,0,0,.8.3,1.2,1.2,0,0,0,.94-.44A1.21,1.21,0,0,0,57.73,50.79Z" style="stroke: #000; stroke-linecap: round; stroke-linejoin: round; fill: #fff;"/><path class="cls-illustraveler2" d="M69.2,46.42a1.23,1.23,0,0,0-.7,2.36,1.13,1.13,0,0,0,.35.06,1.24,1.24,0,0,0,.36-2.42Z" style="stroke: #000; stroke-linecap: round; stroke-linejoin: round; fill: #fff;"/><path class="cls-illustraveler2" d="M61.6,52.13a1.23,1.23,0,0,0-1.26,1.21,1.25,1.25,0,0,0,1.22,1.26h0a1.24,1.24,0,0,0,0-2.47Z" style="stroke: #000; stroke-linecap: round; stroke-linejoin: round; fill: #fff;"/><path class="cls-illustraveler2" d="M69.5,43.92a1.23,1.23,0,1,0-.3,2.45h.15a1.23,1.23,0,0,0,.15-2.46Z" style="stroke: #000; stroke-linecap: round; stroke-linejoin: round; fill: #fff;"/><path class="cls-illustraveler2" d="M68.5,48.86A1.23,1.23,0,1,0,67.25,51a1.12,1.12,0,0,0,.62.17,1.23,1.23,0,0,0,.63-2.3Z" style="stroke: #000; stroke-linecap: round; stroke-linejoin: round; fill: #fff;"/><path class="cls-illustraveler2" d="M65.47,50.9a1.24,1.24,0,0,0-.15,1.74,1.2,1.2,0,0,0,.94.45,1.24,1.24,0,0,0,.79-.28,1.22,1.22,0,0,0,.16-1.74A1.25,1.25,0,0,0,65.47,50.9Z" style="stroke: #000; stroke-linecap: round; stroke-linejoin: round; fill: #fff;"/><path class="cls-illustraveler2" d="M63.7,51.85a1.24,1.24,0,0,0-.81,1.54,1.23,1.23,0,0,0,1.17.88,1.33,1.33,0,0,0,.37-.06,1.23,1.23,0,0,0-.73-2.36Z" style="stroke: #000; stroke-linecap: round; stroke-linejoin: round; fill: #fff;"/><path class="cls-illustraveler2" d="M69,43.73a1.22,1.22,0,0,0,.47.09,1.25,1.25,0,0,0,.88-.36,1.28,1.28,0,0,0,.36-.88,1.23,1.23,0,0,0-.56-1,1.1,1.1,0,0,0-.21-.11l-.24-.07a1.21,1.21,0,0,0-1.11.35.54.54,0,0,0-.15.19.68.68,0,0,0-.11.21.76.76,0,0,0-.07.23,1.56,1.56,0,0,0,0,.24,1.22,1.22,0,0,0,.36.88A1.13,1.13,0,0,0,69,43.73Z" style="stroke: #000; stroke-linecap: round; stroke-linejoin: round; fill: #fff;"/><line class="cls-illustraveler2" x1="85.13" y1="66.08" x2="0.5" y2="66.08" style="stroke: #000; stroke-linecap: round; stroke-linejoin: round; fill: #fff;"/></g></g></svg>
