<svg xmlns="http://www.w3.org/2000/svg" viewBox="0 0 82.35 70.09"><defs/><title>ProgressB</title><g id="Layer_2"><g id="Layer_1-2"><path class="IllusProgressB-1" d="M12,69.59V52.85a10,10,0,0,1,7.36-9.64l10.33-2.83,2.9-.79,2.3-.63a10.07,10.07,0,0,1,5.39,0l2.09.6,1.73.5,10.66,3A10,10,0,0,1,62,52.76V69.59" style="fill: #fff; stroke: #000; stroke-linecap: round; stroke-linejoin: round;"/><polyline class="IllusProgressB-1" points="41.28 69.59 37.23 53.14 33.08 69.59" style="fill: #fff; stroke: #000; stroke-linecap: round; stroke-linejoin: round;"/><path class="IllusProgressB-2" d="M43.18,54.88l-2.85-1.35c-.66,1-1.88,2.42-2.6,2.41s-2.59.47-3.81-2.8c-.39-1-1.53,2.42-2.87,1.74,0,0-.23-4.67,4-4.6s1.6.47,1.6.47l4.38-.87,2,3.26Z" style="fill: #efefef;"/><path class="IllusProgressB-1" d="M34.76,50.34h4.57a1,1,0,0,1,.85,1.53L38,55.46a1,1,0,0,1-1.69,0l-2.35-3.59A1,1,0,0,1,34.76,50.34Z" style="fill: #fff; stroke: #000; stroke-linecap: round; stroke-linejoin: round;"/><path class="IllusProgressB-3" d="M39.69,51.14s.63.16.11.91A6.06,6.06,0,0,0,37,51.67,3.84,3.84,0,0,1,34.3,52L34,51.66s-1.79-1.78.54-1.78,1.79.52,2.73.75C37.28,50.63,39,49.9,39.69,51.14Z" style="fill: #067f71;"/><path class="IllusProgressB-4" d="M31.06,55.38a.5.5,0,0,1-.19,0,.5.5,0,0,1-.31-.5l.35-4.94c-.35-2.22-.35-10.68-.35-11a.5.5,0,0,1,.38-.49h.12a.5.5,0,0,1,.44.27L37.72,50.4a.5.5,0,0,1-.35.72l-2.82.55-3.12,3.54A.5.5,0,0,1,31.06,55.38Z" style="fill: #fff;"/><path d="M31.06,38.86l6.22,11.77-3,.58-3.23,3.67.35-5c-.31-1.82-.35-8.79-.35-11m0-1a1,1,0,0,0-1,1c0,.9,0,8.77.35,11.06l-.35,4.89a1,1,0,0,0,1.75.73l3-3.41,2.66-.52a1,1,0,0,0,.69-1.45L31.94,38.4a1,1,0,0,0-.88-.53Z"/><path class="IllusProgressB-4" d="M43.18,55.38a.5.5,0,0,1-.4-.2l-2.63-3.45-3.28-.61a.5.5,0,0,1-.35-.72l6.22-11.77a.5.5,0,0,1,.44-.27h.12a.5.5,0,0,1,.38.49A62.72,62.72,0,0,1,43,47.73l.64,7.11a.5.5,0,0,1-.32.51A.49.49,0,0,1,43.18,55.38Z" style="fill: #fff;"/><path d="M43.18,38.86a62.05,62.05,0,0,1-.65,8.85l.65,7.17-2.75-3.6L37,50.63l6.22-11.77m0-1a1,1,0,0,0-.88.53L36.08,50.17a1,1,0,0,0,.7,1.45l3.09.58,2.51,3.3a1,1,0,0,0,1.79-.7l-.64-7a63.5,63.5,0,0,0,.64-8.89,1,1,0,0,0-1-1Zm0,2h0Z"/><path class="IllusProgressB-4" d="M37.28,51.13a.5.5,0,0,1-.42-.23l-6.22-9.54a.51.51,0,0,1-.08-.27v-14a.5.5,0,0,1,.5-.5h12a.5.5,0,0,1,.5.5v14a.5.5,0,0,1-.07.26L37.7,50.89a.5.5,0,0,1-.42.24Z" style="fill: #fff;"/><path d="M43.06,27.09v14l-5.78,9.54-6.22-9.54v-14h12m0-1h-12a1,1,0,0,0-1,1v14a1,1,0,0,0,.16.55l6.22,9.54a1,1,0,0,0,.84.45h0a1,1,0,0,0,.84-.48l5.78-9.54a1,1,0,0,0,.14-.52v-14a1,1,0,0,0-1-1Z"/><path class="IllusProgressB-2" d="M42.88,35.84l-.08,2.82s-6.19,3.57-11.4,0l-.29-3.52Z" style="fill: #efefef;"/><path class="IllusProgressB-5" d="M37.11.5c-5.35,0-16.77,1-13.91,17.35C25,28.41,29.35,37.27,37,37.29S49.92,28.6,50.92,17.94c1.24-13.24-2.16-12.74-5.65-14A3.84,3.84,0,0,1,44,3.19,10.58,10.58,0,0,0,37.11.5Z" style="stroke: #000; stroke-linecap: round; stroke-linejoin: round; fill: #009688;"/><path class="IllusProgressB-1" d="M49.94,21.65c0,10-5.82,17-12.94,17S24.13,31.54,24.16,21.57s5.83-18,12.95-18S50,11.68,49.94,21.65Z" style="fill: #fff; stroke: #000; stroke-linecap: round; stroke-linejoin: round;"/><path class="IllusProgressB-6" d="M47.26,7.31l2.85,9.36a8,8,0,0,0-6.75-5.51S40.8,10.64,41.73,9a4.45,4.45,0,0,1-2.25,2.15S34.12,13,29.75,12.56c0,0-3.5-1.13-5,3.5-1.33-.62.53-4.88.53-4.88l5.4-7.36,8.2-1.9Z" style="fill: #009688;"/><path class="IllusProgressB-2" d="M24.75,19s.21-6.47,7.34-5.92c0,0,7.81.21,9.13-2.38a4.4,4.4,0,0,0,3.25,1.45s4,.44,4.87,7.25c0,0-.35-6.41-3.06-7.55,0,0-4.83-.69-4.89-2.28a9.93,9.93,0,0,1-6.47,2.66s-2.85.18-5.32.19c0,0-3-.78-4.32,3.74Z" style="fill: #efefef;"/><path class="IllusProgressB-7" d="M24.79,16.06s.87-3.74,4.2-3.63c4,.14,12.41,0,12.92-4.2" style="stroke: #000; stroke-linecap: round; stroke-linejoin: round; fill: none;"/><path class="IllusProgressB-7" d="M49.22,15.62a5.29,5.29,0,0,0-4.58-4.19C41.23,11,41.39,9.6,41.39,9.6" style="stroke: #000; stroke-linecap: round; stroke-linejoin: round; fill: none;"/><path class="IllusProgressB-1" d="M49.34,19.43a2.78,2.78,0,0,1,2.86,3,3.81,3.81,0,0,1-3.13,3.3" style="fill: #fff; stroke: #000; stroke-linecap: round; stroke-linejoin: round;"/><path class="IllusProgressB-1" d="M24.79,19.36a2.79,2.79,0,0,0-2.89,3c0,1.73,2,3.17,3.15,3.17" style="fill: #fff; stroke: #000; stroke-linecap: round; stroke-linejoin: round;"/><path class="IllusProgressB-7" d="M40.67,5.23s-2,4.55-11.18,3.51" style="stroke: #000; stroke-linecap: round; stroke-linejoin: round; fill: none;"/><path class="IllusProgressB-7" d="M29.08,5.19s-4.62,1.73-4.61,7.94" style="stroke: #000; stroke-linecap: round; stroke-linejoin: round; fill: none;"/><line class="IllusProgressB-5" x1="22.16" y1="69.59" x2="22.16" y2="56.8" style="stroke: #000; stroke-linecap: round; stroke-linejoin: round; fill: #009688;"/><line class="IllusProgressB-5" x1="52.05" y1="69.59" x2="52.05" y2="56.8" style="stroke: #000; stroke-linecap: round; stroke-linejoin: round; fill: #009688;"/><path class="IllusProgressB-2" d="M39.2,34.65a4,4,0,0,1-1.85.23,4,4,0,0,1-1.85-.23,3.07,3.07,0,0,1,1.85-.41A3.07,3.07,0,0,1,39.2,34.65Z" style="fill: #efefef;"/><line class="IllusProgressB-5" x1="12.05" y1="69.59" x2="62.05" y2="69.59" style="stroke: #000; stroke-linecap: round; stroke-linejoin: round; fill: #009688;"/><polygon class="IllusProgressB-4" points="40.72 62.21 38.31 69.08 44.6 69.08 40.72 62.21" style="fill: #fff;"/><polygon class="IllusProgressB-4" points="32.02 62.21 29.6 69.08 35.89 69.08 32.02 62.21" style="fill: #fff;"/><polygon class="IllusProgressB-2" points="47.04 41.4 52.05 47.78 47.04 51.03 48.04 52.92 42.22 69.08 40.01 69.08 45.16 40.8 47.04 41.4" style="fill: #efefef;"/><polygon class="IllusProgressB-2" points="27.43 41.4 22.41 47.78 27.43 51.03 26.43 52.92 32.24 69.08 34.46 69.08 29.31 40.8 27.43 41.4" style="fill: #efefef;"/><polygon class="IllusProgressB-5" points="24.16 47.51 28.95 51.03 27.61 53.14 33.45 69.59 36.49 69.59 30.45 38.86 24.16 47.51" style="stroke: #000; stroke-linecap: round; stroke-linejoin: round; fill: #009688;"/><polygon class="IllusProgressB-5" points="49.94 47.38 45.16 50.9 46.49 53.01 40.65 69.46 37.61 69.46 43.66 38.73 49.94 47.38" style="stroke: #000; stroke-linecap: round; stroke-linejoin: round; fill: #009688;"/><polyline class="IllusProgressB-1" points="15.1 54.94 22.16 69.59 12.05 69.59 6.5 55.1" style="fill: #fff; stroke: #000; stroke-linecap: round; stroke-linejoin: round;"/><line class="IllusProgressB-1" x1="7.15" y1="56.8" x2="13.35" y2="55.4" style="fill: #fff; stroke: #000; stroke-linecap: round; stroke-linejoin: round;"/><rect class="IllusProgressB-1" x="5.29" y="30.12" width="22.67" height="31.24" transform="translate(-15.08 8.82) rotate(-20.68)" style="fill: #fff; stroke: #000; stroke-linecap: round; stroke-linejoin: round;"/><rect class="IllusProgressB-1" x="3.72" y="46.31" width="7.89" height="8.65" rx="3" ry="3" transform="translate(-18.75 6.77) rotate(-22.45)" style="fill: #fff; stroke: #000; stroke-linecap: round; stroke-linejoin: round;"/><rect class="IllusProgressB-1" x="61.71" y="54.96" width="6.77" height="8.67" transform="translate(80.01 146.09) rotate(-142.08)" style="fill: #fff; stroke: #000; stroke-linecap: round; stroke-linejoin: round;"/><path class="IllusProgressB-5" d="M71.25,47.72h0a1,1,0,0,1,1,1v6.86a0,0,0,0,1,0,0H70.29a0,0,0,0,1,0,0V48.69A1,1,0,0,1,71.25,47.72Z" transform="translate(93.99 136.65) rotate(-140.9)" style="stroke: #000; stroke-linecap: round; stroke-linejoin: round; fill: #009688;"/><path class="IllusProgressB-5" d="M72.2,41.86a5.44,5.44,0,1,0,7.65-.79A5.44,5.44,0,0,0,72.2,41.86ZM73.54,43a3.7,3.7,0,1,1,.54,5.21A3.7,3.7,0,0,1,73.54,43Z" style="stroke: #000; stroke-linecap: round; stroke-linejoin: round; fill: #009688;"/><rect class="IllusProgressB-1" x="64.68" y="50.91" width="8.11" height="7.61" rx="3" ry="3" transform="translate(89.34 140.11) rotate(-142.08)" style="fill: #fff; stroke: #000; stroke-linecap: round; stroke-linejoin: round;"/><polygon class="IllusProgressB-1" points="67.98 61.65 62.08 69.46 51.18 69.46 61.93 57.41 67.98 61.65" style="fill: #fff; stroke: #000; stroke-linecap: round; stroke-linejoin: round;"/><circle class="IllusProgressB-6" cx="65.1" cy="62.74" r="0.66" style="fill: #009688;"/><line class="IllusProgressB-5" x1="67.55" y1="69.59" x2="7.67" y2="69.59" style="stroke: #000; stroke-linecap: round; stroke-linejoin: round; fill: #009688;"/></g></g></svg>
