<?xml version="1.0" encoding="UTF-8"?>
<svg width="55px" height="67px" viewBox="0 0 55 67" version="1.1" xmlns="http://www.w3.org/2000/svg" xmlns:xlink="http://www.w3.org/1999/xlink">
    <!-- Generator: Sketch 53.2 (72643) - https://sketchapp.com -->
    <title>Group 19</title>
    <desc>Created with Sketch.</desc>
    <g id="Group-19" stroke="none" stroke-width="1" fill="none" fill-rule="evenodd">
        <g>
            <polygon id="Fill-1" fill="#FFFFFF" points="0.5004 62.7899 12.6594 65.2299 15.8594 65.8709 15.8594 27.4609 0.5004 24.3799"></polygon>
            <g id="Group-18" transform="translate(0.000000, 0.479900)">
                <polygon id="Stroke-2" stroke="#000000" stroke-linecap="round" stroke-linejoin="round" points="15.8599 26.9803 15.8599 65.3903 12.6599 64.7503 0.5009 62.3103 0.5009 23.9003"></polygon>
                <path d="M31.23,39.2303 L31.23,62.3103 L15.86,65.3793 L15.86,26.9693 L20.92,25.9593 C23.93,30.8903 28.001,35.7093 31.23,39.2303" id="Fill-4" fill="#FFFFFF"></path>
                <path d="M31.23,39.2303 L31.23,62.3103 L15.86,65.3793 L15.86,26.9693 L20.92,25.9593 C23.93,30.8903 28.001,35.7093 31.23,39.2303 Z" id="Stroke-6" stroke="#000000" stroke-linecap="round" stroke-linejoin="round"></path>
                <path d="M46.5903,37.0799 L46.5903,65.3799 L33.1103,62.6809 L31.2303,62.3099 L31.2303,39.2299 C33.7503,41.9699 35.7393,43.8999 36.3603,44.4899 C36.8003,44.8999 37.3693,45.1199 37.9593,45.1199 C38.5203,45.1199 39.0903,44.8999 39.5393,44.4899 C40.2893,43.7609 43.2303,40.9399 46.5903,37.0799" id="Fill-8" fill="#FFFFFF"></path>
                <path d="M46.5903,37.0799 L46.5903,65.3799 L33.1103,62.6809 L31.2303,62.3099 L31.2303,39.2299 C33.7503,41.9699 35.7393,43.8999 36.3603,44.4899 C36.8003,44.8999 37.3693,45.1199 37.9593,45.1199 C38.5203,45.1199 39.0903,44.8999 39.5393,44.4899 C40.2893,43.7609 43.2303,40.9399 46.5903,37.0799 Z" id="Stroke-10" stroke="#000000" stroke-linecap="round" stroke-linejoin="round"></path>
                <path d="M37.9497,25.9598 C32.8007,25.9598 28.6197,21.7898 28.6197,16.6408 C28.6197,11.4898 32.8007,7.3108 37.9497,7.3108 C43.0997,7.3108 47.2697,11.4898 47.2697,16.6408 C47.2697,21.7898 43.0997,25.9598 37.9497,25.9598 M37.9497,0.0208 C28.7697,0.0208 21.3297,7.4598 21.3297,16.6408 C21.3297,25.8198 37.9497,41.6298 37.9497,41.6298 C37.9497,41.6298 54.5697,25.8198 54.5697,16.6408 C54.5697,7.4598 47.1297,0.0208 37.9497,0.0208" id="Fill-12" fill="#009385"></path>
                <path d="M37.9497,25.9598 C32.8007,25.9598 28.6197,21.7898 28.6197,16.6408 C28.6197,11.4898 32.8007,7.3108 37.9497,7.3108 C43.0997,7.3108 47.2697,11.4898 47.2697,16.6408 C47.2697,21.7898 43.0997,25.9598 37.9497,25.9598 Z M37.9497,0.0208 C28.7697,0.0208 21.3297,7.4598 21.3297,16.6408 C21.3297,25.8198 37.9497,41.6298 37.9497,41.6298 C37.9497,41.6298 54.5697,25.8198 54.5697,16.6408 C54.5697,7.4598 47.1297,0.0208 37.9497,0.0208 Z" id="Stroke-14" stroke="#000000" stroke-linecap="round" stroke-linejoin="round"></path>
                <path d="M46.5903,46.6004 L46.5903,51.5104 L46.2893,51.8204 L44.6003,55.4804 L43.7393,58.0494 L41.6103,57.0304 L42.1903,53.4504 L37.1003,52.8204 L37.8693,59.2404 L33.1103,62.6804 L31.2303,62.3104 L15.8603,65.3794 L15.8603,65.3904 L12.6593,64.7494 L12.4003,63.8704 L11.9303,59.5704 L9.7093,61.4004 L6.7703,58.6904 L7.5793,57.9694 L5.8103,56.2194 L7.8793,55.2304 L9.8193,55.4194 L7.9893,51.5904 L9.8003,49.9304 L11.8403,49.9304 L15.8603,43.8604 L16.2703,43.2404 L15.8603,43.0394 L14.1103,42.1804 L14.1103,39.8604 L14.8103,38.8604 L12.8403,37.9994 L12.8403,36.9994 C12.8403,36.9994 14.6293,36.1104 15.8603,35.8294 C16.1003,35.7604 16.3193,35.7304 16.5003,35.7304 C17.6003,35.7304 19.5393,38.2194 20.2093,38.2004 C20.8693,38.1694 22.8403,37.1694 23.7793,38.0304 C24.7203,38.8904 23.3103,40.6604 23.3103,40.6604 C23.3103,40.6604 21.9003,40.7994 22.2603,41.5494 C22.6193,42.2894 22.8903,43.2404 22.8903,43.2404 L21.7793,43.6604 L25.0003,46.7194 L23.9403,48.6904 L29.5693,51.3794 L31.2303,51.5494 L35.5203,51.9904 L35.2703,49.9404 L37.0393,49.6904 L37.4593,51.1804 L40.8903,50.7994 L44.0203,47.3294 L46.5903,46.6004 Z" id="Stroke-16" stroke="#000000"></path>
            </g>
        </g>
    </g>
</svg>