<svg xmlns="http://www.w3.org/2000/svg"
     viewBox="0 0 50.85 52.75"><defs/><title>Quality_check</title><g id="Layer_2"><g id="Layer_1-2"><rect class="IllusQualityCheck-1" x="0.5" y="7.37" width="37.89" height="44.88" rx="4.21" ry="4.21" style="fill: #fff; stroke: #000; stroke-linecap: round; stroke-linejoin: round;"/><rect class="IllusQualityCheck-1" x="4.61" y="10.36" width="29.69" height="38.9" style="fill: #fff; stroke: #000; stroke-linecap: round; stroke-linejoin: round;"/><path class="IllusQualityCheck-2" d="M29.11,4.78H29a2.38,2.38,0,0,1-2-1C25.68,1.83,22.79.5,19.42.5s-6.26,1.33-7.57,3.24a2.38,2.38,0,0,1-2,1H9.73A2.38,2.38,0,0,0,7.35,7.16v3.21a2.38,2.38,0,0,0,2.38,2.38H29.11a2.38,2.38,0,0,0,2.38-2.38V7.16A2.38,2.38,0,0,0,29.11,4.78ZM19.42,7.12A2.63,2.63,0,1,1,22,4.49,2.63,2.63,0,0,1,19.42,7.12Z" style="stroke: #000; stroke-linecap: round; stroke-linejoin: round; fill: #009688;"/><line class="IllusQualityCheck-3" x1="30.11" y1="18.31" x2="8.59" y2="18.31" style="stroke-linecap: round; stroke-linejoin: round; fill: none; stroke: #009688;"/><line class="IllusQualityCheck-3" x1="30.11" y1="23.31" x2="8.59" y2="23.31" style="stroke-linecap: round; stroke-linejoin: round; fill: none; stroke: #009688;"/><line class="IllusQualityCheck-3" x1="23.26" y1="28.3" x2="8.59" y2="28.3" style="stroke-linecap: round; stroke-linejoin: round; fill: none; stroke: #009688;"/><line class="IllusQualityCheck-3" x1="21.17" y1="33.3" x2="8.59" y2="33.3" style="stroke-linecap: round; stroke-linejoin: round; fill: none; stroke: #009688;"/><line class="IllusQualityCheck-3" x1="17.17" y1="38.29" x2="8.59" y2="38.29" style="stroke-linecap: round; stroke-linejoin: round; fill: none; stroke: #009688;"/><circle class="IllusQualityCheck-2" cx="34.5" cy="39.64" r="8.71" transform="translate(-12.27 15.68) rotate(-21.84)" style="stroke: #000; stroke-linecap: round; stroke-linejoin: round; fill: #009688;"/><line class="IllusQualityCheck-4" x1="50.33" y1="32.8" x2="45.76" y2="34.63" style="stroke: #000; stroke-linecap: round; stroke-linejoin: round; fill: none;"/><line class="IllusQualityCheck-4" x1="39.34" y1="28.32" x2="41.28" y2="23.79" style="stroke: #000; stroke-linecap: round; stroke-linejoin: round; fill: none;"/><line class="IllusQualityCheck-4" x1="45.82" y1="44.48" x2="50.35" y2="46.42" style="stroke: #000; stroke-linecap: round; stroke-linejoin: round; fill: none;"/><polygon class="IllusQualityCheck-1" points="30.73 37.7 33.19 40.54 38.63 35.67 40.31 37.52 32.85 43.77 28.91 39.28 30.73 37.7" style="fill: #fff; stroke: #000; stroke-linecap: round; stroke-linejoin: round;"/></g></g></svg>
