<svg xmlns="http://www.w3.org/2000/svg" viewBox="0 0 114.58 84.65"><defs/><title>Request_callback</title><g id="Layer_2"><g id="Layer_1-2"><path class="cls-requestcallback1" d="M42.45,81.9s19.22-4.67,38.22,0,45.83-1.89,27-4.61-43,.65-38.33-14.78-1.45-20.91-1.45-20.91" style="fill: none; stroke: #000; stroke-linecap: round; stroke-linejoin: round;"/><line class="cls-requestcallback1" x1="21.23" y1="0.5" x2="22.22" y2="5.32" style="fill: none; stroke: #000; stroke-linecap: round; stroke-linejoin: round;"/><line class="cls-requestcallback1" x1="14.86" y1="10.52" x2="10.75" y2="7.81" style="fill: none; stroke: #000; stroke-linecap: round; stroke-linejoin: round;"/><line class="cls-requestcallback1" x1="31.92" y1="7.01" x2="34.63" y2="2.9" style="fill: none; stroke: #000; stroke-linecap: round; stroke-linejoin: round;"/><path class="cls-requestcallback2" d="M58,71.67S51.77,61.29,50.81,60.8a11.4,11.4,0,0,0-1.9-.73,3.18,3.18,0,0,1-2.15-2.24L46.27,56h0a7.56,7.56,0,0,1-1.05,3.38c-2.06,3.52-6.88,6-12.5,6-7.49,0-13.55-4.41-13.54-9.82,0-.17,0-.33,0-.5h0l-.54,2a3.21,3.21,0,0,1-2.09,2.21,21.21,21.21,0,0,0-3.31,1.33c-1.33.78-5.32,11.06-5.32,11.06S6.85,81.66,7.48,82.5s1.88,1.57,4.59,1.57l20.88,0,20.88,0c2.72,0,4-.72,4.6-1.56S58,71.67,58,71.67Z" style="stroke: #000; stroke-linecap: round; stroke-linejoin: round; fill: #fff;"/><path class="cls-requestcallback3" d="M46.19,36.21a3.92,3.92,0,0,1,4.16.64C49.2,46.16,42.48,48,42.48,48h0a15.79,15.79,0,0,0-3.83-1.73,19.09,19.09,0,0,0-5.52-.81,17.51,17.51,0,0,0-9.73,2.75h0c-.14,0-6.73-2-7.83-11.16a3.91,3.91,0,0,1,4.16-.62c2.57,1,.71,6.33,7.19,7,0,0,8.54-.46,12.08-.23C44.44,43.57,43.62,37.19,46.19,36.21Z" style="stroke: #000; stroke-linecap: round; stroke-linejoin: round; fill: #009688;"/><line class="cls-requestcallback2" x1="58.01" y1="71.67" x2="7.9" y2="71.67" style="stroke: #000; stroke-linecap: round; stroke-linejoin: round; fill: #fff;"/><ellipse class="cls-requestcallback3" cx="33.31" cy="54.59" rx="9.13" ry="7.32" style="stroke: #000; stroke-linecap: round; stroke-linejoin: round; fill: #009688;"/><path class="cls-requestcallback3" d="M42.9,62.83a17.53,17.53,0,0,1-10.79,3.4c-8.06,0-14.58-4.72-14.57-10.5a7.75,7.75,0,0,1,.39-2.42,8.64,8.64,0,0,0-1.27,3.9c0,.19,0,.38,0,.56,0,6.17,6.9,11.18,15.43,11.2,6.4,0,11.9-2.8,14.25-6.8a8.62,8.62,0,0,0,1.2-3.86c0-.16,0-.32,0-.48a8.52,8.52,0,0,0-1.15-4.25,7.64,7.64,0,0,1,.32,2.2,8,8,0,0,1-1.21,4.17" style="stroke: #000; stroke-linecap: round; stroke-linejoin: round; fill: #009688;"/><path class="cls-requestcallback2" d="M32.2,45.33c-8,0-14.51,4.68-14.51,10.45s6.5,10.45,14.51,10.45,14.51-4.68,14.51-10.45S40.21,45.33,32.2,45.33Zm0,13.8c-3.28,0-5.94-2-5.94-4.47s2.66-4.47,5.94-4.47,5.94,2,5.94,4.47S35.52,59.13,32.24,59.13Z" style="stroke: #000; stroke-linecap: round; stroke-linejoin: round; fill: #fff;"/><path class="cls-requestcallback4" d="M33.13,48.83a1.57,1.57,0,0,1-1-.37,1.22,1.22,0,0,1-.43-.91,1,1,0,0,1,0-.25,1.34,1.34,0,0,1,.08-.24,1.25,1.25,0,0,1,.14-.23,1,1,0,0,1,.18-.19,1.59,1.59,0,0,1,1.32-.35,1.33,1.33,0,0,1,.28.07,1.78,1.78,0,0,1,.25.12,1,1,0,0,1,.22.16,1,1,0,0,1,.18.19.93.93,0,0,1,.14.23.91.91,0,0,1,.08.24,1,1,0,0,1,0,.25,1.22,1.22,0,0,1-.43.91l-.22.16-.25.12a1.37,1.37,0,0,1-.28.07A1.42,1.42,0,0,1,33.13,48.83Z" style="fill: #009688;"/><path class="cls-requestcallback4" d="M31.9,62.58a1.38,1.38,0,0,1,1.45-1.3h0a1.38,1.38,0,0,1,1.48,1.27h0a1.37,1.37,0,0,1-1.44,1.3h0A1.39,1.39,0,0,1,31.9,62.58Zm-4.34.48a1.26,1.26,0,0,1-.91-1.63h0a1.51,1.51,0,0,1,1.86-.8h0a1.25,1.25,0,0,1,.91,1.63h0a1.46,1.46,0,0,1-1.38.87h0A1.8,1.8,0,0,1,27.56,63.06ZM22.4,60.29h0a1.18,1.18,0,0,1,0-1.82h0a1.61,1.61,0,0,1,2.07,0h0a1.18,1.18,0,0,1,0,1.81h0a1.54,1.54,0,0,1-1,.37h0A1.58,1.58,0,0,1,22.4,60.29Zm-2.59-5.11a1.38,1.38,0,0,1,1.43-1.31h0a1.39,1.39,0,0,1,1.49,1.26h0a1.37,1.37,0,0,1-1.43,1.31h0A1.39,1.39,0,0,1,19.81,55.19Zm2.47-3.38A1.18,1.18,0,0,1,22.22,50h0a1.61,1.61,0,0,1,2.07-.06h0a1.18,1.18,0,0,1,.07,1.81h0a1.54,1.54,0,0,1-1.07.41h0A1.59,1.59,0,0,1,22.29,51.81Zm4.15-3a1.25,1.25,0,0,1,.88-1.65h0a1.52,1.52,0,0,1,1.87.77h0a1.25,1.25,0,0,1-.88,1.65h0a1.71,1.71,0,0,1-.5.08h0A1.47,1.47,0,0,1,26.44,48.78Z" style="fill: #009688;"/><path class="cls-requestcallback4" d="M38.68,63a1.56,1.56,0,0,1-1-.38,1.7,1.7,0,0,1-.18-.19,1.41,1.41,0,0,1-.13-.23.94.94,0,0,1-.08-.24,1,1,0,0,1,0-.25,1,1,0,0,1,0-.26,1,1,0,0,1,.08-.24,1.13,1.13,0,0,1,.13-.22,1.77,1.77,0,0,1,.18-.2,1.87,1.87,0,0,1,.23-.16l.25-.12.28-.08a1.61,1.61,0,0,1,1.32.35,1.28,1.28,0,0,1,.18.2,1.13,1.13,0,0,1,.13.22,1.46,1.46,0,0,1,.09.24,1.5,1.5,0,0,1,0,.26,1.43,1.43,0,0,1,0,.25,1.28,1.28,0,0,1-.08.24,1.52,1.52,0,0,1-.14.23,1.24,1.24,0,0,1-.18.19A1.56,1.56,0,0,1,38.68,63Z" style="fill: #009688;"/><path class="cls-requestcallback3" d="M46,59.09c-4-.2-5-3.05-5-3.05-2.53,3.26,2.54,6.33,2.54,6.33A15.69,15.69,0,0,0,46,59.09Z" style="stroke: #000; stroke-linecap: round; stroke-linejoin: round; fill: #009688;"/><ellipse class="cls-requestcallback2" cx="32.14" cy="54.46" rx="2.16" ry="1.58" style="stroke: #000; stroke-linecap: round; stroke-linejoin: round; fill: #fff;"/><path class="cls-requestcallback3" d="M67.27,42.48c.63.25.61-.88.61-.88l-2-1.62a9.24,9.24,0,0,0-.68,1.35A21.53,21.53,0,0,0,67.27,42.48Z" style="stroke: #000; stroke-linecap: round; stroke-linejoin: round; fill: #009688;"/><path class="cls-requestcallback3" d="M65.65,37.16S62.2,26.46,49.79,18s-23.18-5.48-25.1-5.56-4.45,3.87-4.45,3.87a1,1,0,0,0-.48.94.29.29,0,0,1,0,.13,2.62,2.62,0,0,1-.58.64,4.22,4.22,0,0,0-.33,3,33.16,33.16,0,0,0,11.92,3.19c1.26,0,1.88-2.48,1.88-2.48l-.32-1.05a1.43,1.43,0,0,0,.23-1.08c3.37-4.47,19.33,8.7,22.06,10.92h0c2.71,2.21,1.26,4.08,1.26,4.08-.41-.15-1,.78-1,.78L54,35.33l-.05,0c-.29.19-1.74,1.18-1.64,2.11s4.82,7.3,7,9.18,3.26-.14,3.26-.14c.63.21.78-1.34.78-1.34a.73.73,0,0,0,.7-.7l.07-.25a28,28,0,0,1,1-2.89A9.23,9.23,0,0,1,65.86,40,2.49,2.49,0,0,0,65.65,37.16Z" style="stroke: #000; stroke-linecap: round; stroke-linejoin: round; fill: #009688;"/><path class="cls-requestcallback1" d="M54.86,35.4s1.53,4,8.23,10.89" style="fill: none; stroke: #000; stroke-linecap: round; stroke-linejoin: round;"/><path class="cls-requestcallback1" d="M32.31,20.69s-7,.29-12.57-3.31" style="fill: none; stroke: #000; stroke-linecap: round; stroke-linejoin: round;"/><path class="cls-requestcallback5" d="M20,18s-1.1.28-.76,2.68a31.56,31.56,0,0,0,11.51,3.1s.51,0,1-1.14a1.91,1.91,0,0,0,.26-1.44S24.36,21,20,18Z" style="fill: #fff;"/><path class="cls-requestcallback5" d="M54.57,35.88s-.32-.32-1,.45c0,0-.69.56-.72,1.09,0,0,3.5,6,7,8.91a1.48,1.48,0,0,0,2.47-.14S56.82,40.31,54.57,35.88Z" style="fill: #fff;"/><line class="cls-requestcallback3" x1="66.22" y1="84.15" x2="0.5" y2="84.15" style="stroke: #000; stroke-linecap: round; stroke-linejoin: round; fill: #009688;"/></g></g></svg>
