<?xml version="1.0" encoding="UTF-8"?>
<svg width="20px" height="20px" viewBox="0 0 20 20" version="1.1" xmlns="http://www.w3.org/2000/svg" xmlns:xlink="http://www.w3.org/1999/xlink">
    <!-- Generator: Sketch 43.2 (39069) - http://www.bohemiancoding.com/sketch -->
    <title>Info_icon</title>
    <desc>Created with Sketch.</desc>
    <defs/>
    <g id="Welcome" stroke="none" stroke-width="1" fill="none" fill-rule="evenodd">
        <g id="Package_Lsiting_page" transform="translate(-325.000000, -313.000000)">
            <g id="Group-3" transform="translate(8.000000, 158.000000)">
                <g id="Package_list">
                    <g id="Package_card">
                        <g id="Card_info" transform="translate(0.000000, 120.000000)">
                            <g id="Info_icon" transform="translate(318.000000, 36.000000)">
                                <path d="M9.00006207,17.6897793 L9.00006207,17.6897793 C4.20088966,17.6897793 0.310406897,13.7992966 0.310406897,9.00012414 C0.310406897,4.20095172 4.20088966,0.310468966 9.00006207,0.310468966 C13.7992345,0.310468966 17.6897172,4.20095172 17.6897172,9.00012414 C17.6897172,13.7992966 13.7992345,17.6897793 9.00006207,17.6897793 Z" id="Stroke-1" stroke="#B2B2B2" stroke-linecap="round" stroke-linejoin="round"/>
                                <polygon id="Fill-3" fill="#B2B2B2" points="10.3756966 6.65006897 7.79921379 6.65006897 7.79921379 6.65441379 6.84024828 6.65441379 6.84024828 8.15213793 7.79921379 8.15213793 7.79921379 13.5012414 6.78128276 13.5012414 6.78128276 14.9325517 7.79921379 14.9325517 7.79921379 14.9424828 10.3756966 14.9424828 10.3756966 14.9325517 11.2185931 14.9325517 11.2185931 13.5012414 10.3756966 13.5012414"/>
                                <path d="M9.06976552,5.63269655 C9.93562759,5.63269655 10.4601103,5.05669655 10.4601103,4.34352414 C10.4433517,3.61607586 9.9350069,3.05745517 9.10452414,3.05745517 C8.27528276,3.05745517 7.73217931,3.61545517 7.73217931,4.34352414 C7.73155862,5.05669655 8.25728276,5.63269655 9.06976552,5.63269655" id="Fill-5" fill="#B2B2B2"/>
                            </g>
                        </g>
                    </g>
                </g>
            </g>
        </g>
    </g>
</svg>