<?xml version="1.0" encoding="UTF-8"?>
<svg width="19px" height="20px" viewBox="0 0 19 20" version="1.1" xmlns="http://www.w3.org/2000/svg" xmlns:xlink="http://www.w3.org/1999/xlink">
    <!-- Generator: Sketch 45.2 (43514) - http://www.bohemiancoding.com/sketch -->
    <title>Insta</title>
    <desc>Created with Sketch.</desc>
    <defs/>
    <g id="Page-1" stroke="none" stroke-width="1" fill="none" fill-rule="evenodd">
        <g id="HomePage" transform="translate(-571.000000, -7807.000000)" fill="#FFFFFF">
            <g id="Footer" transform="translate(0.000000, 7636.000000)">
                <g id="Group-22-Copy" transform="translate(402.000000, 137.000000)">
                    <g id="Social" transform="translate(0.000000, 34.000000)">
                        <g id="Insta" transform="translate(169.166667, 0.833333)">
                            <path d="M5.18012369,1.67543606 C3.18398113,1.67543606 1.56003983,3.29937736 1.56003983,5.29540461 L1.56003983,13.1357296 C1.56003983,15.1318721 3.18398113,16.7558134 5.18012369,16.7558134 L13.020218,16.7558134 C15.0164759,16.7558134 16.6404172,15.1318721 16.6404172,13.1357296 L16.6404172,5.29540461 C16.6404172,3.29937736 15.0164759,1.67543606 13.020218,1.67543606 L5.18012369,1.67543606 Z M13.020218,18.315761 L5.18012369,18.315761 C2.32369811,18.315761 -2.30607966e-05,15.9921551 -2.30607966e-05,13.1357296 L-2.30607966e-05,5.29540461 C-2.30607966e-05,2.43920964 2.32369811,0.115373166 5.18012369,0.115373166 L13.020218,0.115373166 C15.8766436,0.115373166 18.2004801,2.43920964 18.2004801,5.29540461 L18.2004801,13.1357296 C18.2004801,15.9921551 15.8766436,18.315761 13.020218,18.315761 L13.020218,18.315761 Z" id="Fill-1"/>
                            <path d="M9.10022851,6.11553878 C7.39084696,6.11553878 6.00005031,7.50622013 6.00005031,9.21560168 C6.00005031,10.9249832 7.39084696,12.3156646 9.10022851,12.3156646 C10.8096101,12.3156646 12.2002914,10.9249832 12.2002914,9.21560168 C12.2002914,7.50622013 10.8096101,6.11553878 9.10022851,6.11553878 M9.10022851,13.8757275 C6.53067925,13.8757275 4.44010273,11.7852662 4.44010273,9.21560168 C4.44010273,6.64605241 6.53067925,4.55547589 9.10022851,4.55547589 C11.6697778,4.55547589 13.7603543,6.64605241 13.7603543,9.21560168 C13.7603543,11.7852662 11.6697778,13.8757275 9.10022851,13.8757275" id="Fill-4"/>
                            <path d="M15.0802736,4.28880084 C15.0802736,4.90740671 14.5788166,5.40874843 13.960326,5.40874843 C13.3417201,5.40874843 12.8402631,4.90740671 12.8402631,4.28880084 C12.8402631,3.67019497 13.3417201,3.16873795 13.960326,3.16873795 C14.5788166,3.16873795 15.0802736,3.67019497 15.0802736,4.28880084" id="Fill-6"/>
                        </g>
                    </g>
                </g>
            </g>
        </g>
    </g>
</svg>
