<?xml version="1.0" encoding="UTF-8"?>
<svg width="20px" height="20px" viewBox="0 0 20 20" version="1.1" xmlns="http://www.w3.org/2000/svg" xmlns:xlink="http://www.w3.org/1999/xlink">
    <!-- Generator: Sketch 43.1 (39012) - http://www.bohemiancoding.com/sketch -->
    <title>International_icon</title>
    <desc>Created with Sketch.</desc>
    <defs/>
    <g id="Welcome" stroke="none" stroke-width="1" fill="none" fill-rule="evenodd">
        <g id="Side_Menu" transform="translate(-15.000000, -233.000000)">
            <g id="Group-14" transform="translate(0.000000, 24.000000)">
                <g id="Inter_national" transform="translate(16.000000, 210.000000)">
                    <g id="International_icon">
                        <rect id="Rectangle-9" x="0" y="0" width="18" height="18"/>
                        <g id="International">
                            <path d="M17.64,8.999856 C17.64,13.771296 13.77144,17.639856 9,17.639856 C4.22856,17.639856 0.36,13.771296 0.36,8.999856 C0.36,4.228416 4.22856,0.359856 9,0.359856 C13.77144,0.359856 17.64,4.228416 17.64,8.999856 Z" id="Stroke-1" stroke="#000000" stroke-linecap="round" stroke-linejoin="round"/>
                            <path d="M15.414264,3.214872 C15.414264,3.214872 10.333944,2.224872 11.354184,5.225112 C12.374424,8.225352 13.573944,8.285112 14.774184,9.784872 C15.974424,11.285352 13.634424,13.325112 14.414184,13.505112 C15.193944,13.685112 15.684264,13.806792 16.752024,12.816072" id="Stroke-3" stroke="#000000" stroke-linecap="round" stroke-linejoin="round"/>
                            <path d="M8.507448,12.286224 C7.724808,12.286224 6.594408,10.815264 6.129288,9.760464 C5.669928,8.718624 5.683608,7.853184 6.168168,7.322544 C6.575688,6.876144 6.835608,6.414624 7.065288,6.007104 C7.527528,5.185584 7.964568,4.410144 9.314568,4.410144 C11.298888,4.410144 11.445048,6.586704 11.551608,8.175744 C11.591928,8.774064 11.629368,9.339984 11.750328,9.657504 C11.788488,9.756144 11.780568,9.866304 11.729448,9.959184 C11.678328,10.051344 11.589048,10.116864 11.485368,10.138464 C10.884168,10.259424 9.290088,10.777104 9.128808,11.706624 C9.054648,12.134304 8.759448,12.286224 8.507448,12.286224" id="Fill-5" fill="#009688"/>
                            <path d="M9.31428,4.050144 C7.75404,4.050144 7.22124,4.996224 6.75108,5.830704 C6.52068,6.240384 6.28164,6.663744 5.9022,7.079904 C5.31612,7.722144 5.2794,8.725824 5.79996,9.905184 C6.2874,11.010384 7.48476,12.646224 8.50716,12.646224 C9.00756,12.646224 9.3906,12.301344 9.48348,11.768544 C9.5994,11.099664 10.95516,10.611504 11.55564,10.491264 C11.763,10.449504 11.94156,10.319184 12.04452,10.133424 C12.14676,9.947664 12.1626,9.726624 12.087,9.528624 C11.98476,9.261504 11.94732,8.697744 11.9106,8.151264 C11.80764,6.617664 11.63556,4.050144 9.31428,4.050144 M9.31428,4.770144 C11.64132,4.770144 10.93428,8.524944 11.41452,9.784944 C11.41452,9.784944 9.01404,10.265184 8.77428,11.645424 C8.74044,11.839824 8.64396,11.926224 8.50716,11.926224 C7.677,11.926224 5.35212,8.750304 6.43428,7.565184 C7.69428,6.184944 7.57404,4.770144 9.31428,4.770144" id="Fill-7" fill="#000000"/>
                            <path d="M1.463184,4.77612 C1.463184,4.77612 3.793824,4.43484 3.793824,8.99964 C3.793824,13.56516 6.014304,13.26564 6.374304,14.88564 C6.734304,16.50564 5.981184,17.09388 5.981184,17.09388" id="Stroke-9" stroke="#000000" stroke-linecap="round" stroke-linejoin="round"/>
                            <path d="M11.17548,16.364736 C10.85004,16.364736 10.24452,16.364736 10.00044,15.903936 C9.7578,15.445296 10.07604,14.884416 10.33668,14.502816 C10.51812,14.235696 10.7262,14.180256 10.86948,14.180256 C11.48868,14.180256 11.75652,15.156576 11.75652,15.654816 C11.75652,16.178976 11.46636,16.364736 11.21868,16.364736 L11.17548,16.364736 Z" id="Fill-11" fill="#009688"/>
                            <path d="M10.869624,13.820112 L10.869624,13.820112 C10.681704,13.820112 10.323864,13.882752 10.039464,14.299632 C9.858744,14.563872 9.310104,15.368832 9.682344,16.072272 C10.027224,16.724592 10.832184,16.724592 11.175624,16.724592 L11.218824,16.724592 C11.650824,16.724592 12.115944,16.389792 12.115944,15.654672 C12.115944,15.080112 11.802024,13.820112 10.869624,13.820112 M10.869624,14.540112 C11.287944,14.540112 11.611944,16.004592 11.218824,16.004592 L11.175624,16.004592 C10.694664,16.004592 9.760824,15.985872 10.634184,14.704992 C10.713384,14.589072 10.793304,14.540112 10.869624,14.540112" id="Fill-13" fill="#000000"/>
                        </g>
                    </g>
                </g>
            </g>
        </g>
    </g>
</svg>
