<?xml version="1.0" encoding="UTF-8"?>
<svg width="82px" height="60px" viewBox="0 0 82 60" version="1.1" xmlns="http://www.w3.org/2000/svg" xmlns:xlink="http://www.w3.org/1999/xlink">
    <!-- Generator: Sketch 53.2 (72643) - https://sketchapp.com -->
    <title>Group 55</title>
    <desc>Created with Sketch.</desc>
    <defs>
        <polygon id="path-1" points="0 0.0781 19.0558 0.0781 19.0558 6.5301 0 6.5301"></polygon>
        <polygon id="path-3" points="0.2274 0 19.283 0 19.283 6.452 0.2274 6.452"></polygon>
    </defs>
    <g id="Group-55" stroke="none" stroke-width="1" fill="none" fill-rule="evenodd">
        <g>
            <path d="M42.0012,59.5146 C39.4372,59.5146 36.8632,59.1816 34.3552,58.5256 C26.7282,56.5296 20.3172,51.7456 16.3032,45.0566 C12.2882,38.3636 11.1522,30.5646 13.1072,23.0956 C16.4152,10.4556 28.0252,1.6286 41.3412,1.6286 C43.9062,1.6286 46.4782,1.9616 48.9872,2.6186 C64.7362,6.7396 74.2692,22.6326 70.2342,38.0476 C66.9272,50.6876 55.3162,59.5146 42.0012,59.5146" id="Fill-1" fill="#FFFFFF"></path>
            <path d="M41.343,1.1435 L41.341,1.1435 C27.805,1.1445 16.002,10.1215 12.638,22.9735 C10.65,30.5695 11.804,38.4995 15.887,45.3055 C19.966,52.1045 26.482,56.9655 34.233,58.9955 C36.781,59.6625 39.395,59.9995 42.001,59.9995 C55.537,59.9995 67.341,51.0235 70.704,38.1695 C72.693,30.5745 71.538,22.6425 67.455,15.8375 C63.376,9.0395 56.862,4.1775 49.111,2.1485 C46.562,1.4815 43.948,1.1435 41.343,1.1435 M41.341,2.1145 C43.822,2.1145 46.347,2.4285 48.864,3.0875 C64.381,7.1485 73.739,22.7455 69.766,37.9245 C66.438,50.6405 54.809,59.0295 42.001,59.0295 C39.521,59.0295 36.996,58.7145 34.479,58.0555 C18.962,53.9955 9.604,38.3985 13.576,23.2185 C16.905,10.5025 28.533,2.1145 41.341,2.1145" id="Fill-3" fill="#000000"></path>
            <path d="M17.2746,22.4131 C19.8826,12.4481 27.5876,5.1421 36.9616,2.4451 C25.9586,4.1111 16.5206,11.9721 13.5766,23.2191 C9.6036,38.3981 18.9616,53.9951 34.4786,58.0561 C39.8086,59.4511 45.1726,59.3031 50.0796,57.8921 C46.2326,58.4751 42.1956,58.3021 38.1756,57.2501 C22.6606,53.1891 13.3016,37.5921 17.2746,22.4131" id="Fill-5" fill="#EFEFEF"></path>
            <path d="M20.9133,31.6699 C18.3153,31.6699 15.4763,30.7999 12.4733,29.0859 C12.3123,28.9929 12.2193,28.8189 12.2293,28.6359 C12.3373,26.7699 12.6333,24.9049 13.1073,23.0959 C16.3703,10.6319 27.8183,1.8059 40.9473,1.6319 L40.9543,1.6319 C41.1503,1.6319 41.3283,1.7499 41.4023,1.9329 C42.1873,3.8389 42.4793,7.5809 38.5933,9.5189 C36.7643,10.4299 35.1153,10.4859 33.6603,10.5359 C31.3523,10.6149 29.5303,10.6769 27.7653,14.1699 C26.3143,17.0369 27.4993,19.4369 28.6433,21.7569 C29.7203,23.9349 30.8313,26.1859 28.8503,28.2219 C26.6213,30.5099 23.9523,31.6699 20.9143,31.6699 L20.9133,31.6699 Z" id="Fill-7" fill="#009385"></path>
            <path d="M40.9543,1.1465 L40.9413,1.1465 C27.5943,1.3235 15.9553,10.2975 12.6383,22.9735 C12.1563,24.8135 11.8553,26.7095 11.7443,28.6075 C11.7233,28.9755 11.9113,29.3245 12.2313,29.5065 C15.3093,31.2645 18.2303,32.1555 20.9133,32.1555 C24.0883,32.1555 26.8753,30.9455 29.1973,28.5605 C31.4183,26.2785 30.1763,23.7615 29.0793,21.5425 C27.9863,19.3295 26.8563,17.0405 28.1973,14.3885 C29.8343,11.1525 31.3633,11.1005 33.6773,11.0215 C35.1813,10.9695 36.8863,10.9115 38.8093,9.9525 C43.0243,7.8515 42.7043,3.8055 41.8503,1.7465 C41.7003,1.3825 41.3463,1.1465 40.9543,1.1465 M40.9543,2.1175 C41.0893,2.4445 42.8193,6.8705 38.3773,9.0835 C33.7623,11.3845 30.3693,7.9445 27.3313,13.9515 C24.2933,19.9585 32.0823,24.2055 28.5023,27.8825 C26.5753,29.8625 24.0633,31.1845 20.9133,31.1845 C18.5473,31.1845 15.8203,30.4385 12.7133,28.6645 C12.8193,26.8565 13.1013,25.0355 13.5763,23.2185 C16.8713,10.6305 28.2993,2.2845 40.9543,2.1175" id="Fill-9" fill="#000000"></path>
            <path d="M25.1379,51.2558 C24.3659,51.2558 23.8499,51.0628 23.5599,50.6648 C23.1019,50.0328 23.3859,49.1558 23.6859,48.2288 C24.1359,46.8398 24.3679,45.8848 23.5359,45.2708 C20.3079,42.8878 18.9809,40.7338 19.5939,38.8718 C20.5529,35.9598 25.8439,35.0178 28.2549,35.0178 C28.4619,35.0178 28.6529,35.0248 28.8259,35.0358 C31.5999,35.2388 33.7499,36.3388 34.4369,37.9048 C34.8549,38.8568 34.6849,39.8848 33.9599,40.7978 C33.4359,41.4598 32.8529,42.0408 32.2879,42.6058 C30.8999,43.9908 30.1399,44.8158 30.6869,45.6308 C31.2289,46.4418 31.2979,47.4368 30.8749,48.3608 C30.1929,49.8598 28.4089,50.8938 25.9839,51.1968 C25.6609,51.2378 25.3799,51.2558 25.1379,51.2558" id="Fill-11" fill="#009385"></path>
            <path d="M28.2541,34.5322 L28.2541,34.5322 C25.7281,34.5332 20.1751,35.5562 19.1341,38.7192 C18.4481,40.8032 19.8321,43.1392 23.2481,45.6612 C23.7761,46.0512 23.6741,46.6932 23.2251,48.0782 C22.9001,49.0812 22.5641,50.1192 23.1681,50.9492 C23.7431,51.7412 24.7931,51.7412 25.1381,51.7412 C25.4101,51.7412 25.7061,51.7202 26.0441,51.6782 C28.6401,51.3532 30.5621,50.2182 31.3171,48.5622 C31.8111,47.4812 31.7281,46.3142 31.0901,45.3612 C30.7931,44.9162 31.2351,44.3432 32.6321,42.9482 C33.1791,42.4022 33.7991,41.7832 34.3411,41.0992 C35.1831,40.0382 35.3751,38.8352 34.8811,37.7102 C34.1211,35.9792 31.8151,34.7692 28.8611,34.5532 C28.6771,34.5402 28.4741,34.5322 28.2541,34.5322 M28.2541,35.5032 C28.4481,35.5032 28.6271,35.5092 28.7901,35.5212 C33.0671,35.8342 35.3331,38.2882 33.5801,40.4972 C31.8281,42.7072 29.1661,44.2312 30.2831,45.9002 C31.4001,47.5702 30.0911,50.1932 25.9241,50.7162 C25.6241,50.7532 25.3631,50.7712 25.1381,50.7712 C21.7161,50.7712 26.2531,46.6742 23.8241,44.8812 C14.5311,38.0192 24.3041,35.5032 28.2541,35.5032" id="Fill-13" fill="#000000"></path>
            <path d="M64.968,48.2549 C64.894,48.2549 64.818,48.2379 64.747,48.2019 C62.077,46.8379 58.267,43.4429 58.718,39.6819 C58.995,37.3569 60.847,35.7109 62.638,34.1189 C63.912,32.9869 65.116,31.9169 65.725,30.6639 C66.286,29.5079 64.913,28.6089 62.627,27.2339 C60.388,25.8899 57.852,24.3649 56.9,21.8379 C54.422,15.2639 60.061,11.9659 62.6,10.8539 C62.662,10.8259 62.729,10.8129 62.794,10.8129 C62.925,10.8129 63.053,10.8649 63.147,10.9639 C70.103,18.3039 72.753,28.4279 70.235,38.0479 C69.278,41.7019 67.636,45.0719 65.354,48.0639 C65.259,48.1879 65.115,48.2549 64.968,48.2549" id="Fill-15" fill="#009385"></path>
            <path d="M62.7932,10.3271 C62.6622,10.3271 62.5292,10.3531 62.4042,10.4091 C56.8532,12.8421 54.6242,17.1791 56.4442,22.0091 C57.4562,24.6941 60.1852,26.3331 62.3772,27.6501 C64.6252,29.0011 65.6462,29.7181 65.2882,30.4531 C64.7222,31.6191 63.5532,32.6581 62.3152,33.7581 C60.4572,35.4091 58.5352,37.1161 58.2352,39.6241 C57.7552,43.6321 61.7342,47.2081 64.5262,48.6341 C64.6672,48.7061 64.8182,48.7401 64.9682,48.7401 C65.2632,48.7401 65.5512,48.6051 65.7392,48.3581 C68.0622,45.3131 69.7322,41.8861 70.7042,38.1701 C73.2652,28.3881 70.5702,18.0921 63.4982,10.6301 C63.3112,10.4321 63.0552,10.3271 62.7932,10.3271 M62.7942,11.2981 C69.3602,18.2251 72.3202,28.1611 69.7662,37.9251 C68.8042,41.6011 67.1462,44.9151 64.9682,47.7691 C62.3212,46.4181 58.7862,43.1811 59.1982,39.7391 C59.6442,36.0211 64.6262,34.0381 66.1612,30.8771 C67.6962,27.7161 59.1782,26.5101 57.3532,21.6661 C55.0252,15.4891 60.3532,12.3681 62.7942,11.2981" id="Fill-17" fill="#000000"></path>
            <path d="M56.9992,55.372 C56.9512,55.372 56.9022,55.364 56.8552,55.35 C56.7232,55.309 56.6142,55.213 56.5582,55.087 C56.1452,54.181 54.9772,51.04 57.2172,48.717 C57.9672,47.937 58.8762,47.56 59.9952,47.56 C60.8312,47.56 61.6762,47.772 62.4212,47.961 C63.0522,48.12 63.6482,48.271 64.1342,48.271 C64.3222,48.271 64.5202,48.379 64.6002,48.551 C64.6792,48.722 64.6782,48.922 64.5582,49.067 C62.4942,51.533 60.0342,53.631 57.2492,55.303 C57.1732,55.348 57.0872,55.372 56.9992,55.372" id="Fill-19" fill="#009385"></path>
            <path d="M59.9953,47.0742 L59.9953,47.0742 C58.7543,47.0742 57.7013,47.5132 56.8673,48.3792 C54.9183,50.4012 55.2013,53.2742 56.1163,55.2882 C56.2303,55.5402 56.4473,55.7312 56.7113,55.8132 C56.8053,55.8432 56.9023,55.8572 56.9993,55.8572 C57.1733,55.8572 57.3473,55.8102 57.4993,55.7192 C60.3173,54.0282 62.8083,51.9062 64.9013,49.4112 C65.0603,49.2382 65.1583,49.0082 65.1583,48.7552 C65.1583,48.2192 64.7253,47.7842 64.1903,47.7842 L64.1883,47.7842 L64.1853,47.7842 L64.1703,47.7842 L64.1693,47.7842 C64.1683,47.7852 64.1673,47.7852 64.1673,47.7852 L64.1653,47.7852 C63.7063,47.7852 63.1393,47.6412 62.5393,47.4902 C61.7663,47.2952 60.8903,47.0742 59.9953,47.0742 M59.9953,48.0452 C61.4593,48.0452 62.9743,48.7562 64.1333,48.7562 C64.1503,48.7562 64.1683,48.7552 64.1853,48.7552 C62.1443,51.1932 59.7103,53.2612 56.9993,54.8862 C56.6613,54.1432 55.5163,51.1792 57.5653,49.0532 C58.3053,48.2862 59.1413,48.0452 59.9953,48.0452" id="Fill-21" fill="#000000"></path>
            <path d="M58.3908,29.1758 C58.4488,29.0718 58.4948,28.9618 58.5318,28.8488 C58.5358,28.8358 58.5388,28.8248 58.5428,28.8128 C58.5768,28.7028 58.5998,28.5898 58.6138,28.4748 C58.6148,28.4668 58.6178,28.4588 58.6188,28.4508 C58.6198,28.4408 58.6178,28.4308 58.6188,28.4208 C58.6198,28.3918 58.6248,28.3628 58.6258,28.3328 C58.6278,28.2918 58.6208,28.2518 58.6188,28.2118 L58.6188,28.2018 C58.5768,27.6458 58.1438,27.1978 57.5548,27.1298 C57.5348,27.1278 57.5148,27.1208 57.4948,27.1198 L57.4908,27.1198 L57.4848,27.1188 C57.2318,27.1018 56.9778,27.1388 56.7408,27.2218 C56.7378,27.2228 56.7358,27.2228 56.7338,27.2238 C56.6508,27.2528 56.5728,27.2948 56.4948,27.3348 C56.4568,27.3538 56.4178,27.3658 56.3828,27.3868 C56.2718,27.4528 56.1668,27.5298 56.0718,27.6168 L54.5028,29.0378 L50.6048,27.0128 C50.2348,26.8198 49.7828,26.8708 49.4568,27.1468 L48.4118,28.0278 C48.3658,28.0668 48.3418,28.1248 48.3468,28.1848 C48.3528,28.2438 48.3868,28.2968 48.4388,28.3268 L52.6148,30.7248 L50.2658,32.8938 L50.1688,32.9818 L48.6338,32.1838 C48.4148,32.0708 48.1498,32.1018 47.9578,32.2628 L47.5998,32.5648 C47.5608,32.5978 47.5368,32.6458 47.5348,32.6968 C47.5328,32.7488 47.5518,32.7988 47.5878,32.8348 L48.9958,34.2408 C48.9948,34.2438 48.9948,34.2468 48.9948,34.2498 C48.9418,34.4148 48.9308,34.5888 48.9598,34.7578 C48.9618,34.7688 48.9648,34.7798 48.9668,34.7908 C48.9818,34.8608 49.0028,34.9278 49.0328,34.9938 C49.0388,35.0088 49.0438,35.0248 49.0518,35.0388 C49.0628,35.0618 49.0748,35.0838 49.0868,35.1058 L48.9148,35.2508 C48.8368,35.3168 48.8278,35.4318 48.8928,35.5098 C48.9288,35.5528 48.9808,35.5738 49.0338,35.5738 C49.0748,35.5738 49.1168,35.5608 49.1518,35.5308 L49.3268,35.3838 C49.3438,35.3978 49.3608,35.4118 49.3778,35.4258 C49.3918,35.4348 49.4058,35.4418 49.4188,35.4488 C49.4788,35.4878 49.5408,35.5218 49.6068,35.5468 C49.6218,35.5528 49.6378,35.5578 49.6538,35.5628 C49.7198,35.5848 49.7868,35.6008 49.8568,35.6098 C49.8738,35.6128 49.8908,35.6128 49.9088,35.6148 C49.9368,35.6168 49.9628,35.6238 49.9918,35.6238 C50.0458,35.6238 50.1008,35.6188 50.1548,35.6108 L51.3278,37.2718 C51.3568,37.3138 51.4028,37.3408 51.4538,37.3478 C51.4618,37.3488 51.4688,37.3488 51.4768,37.3488 C51.5198,37.3488 51.5618,37.3338 51.5948,37.3058 L51.9538,37.0028 C52.1458,36.8418 52.2208,36.5858 52.1458,36.3508 L51.6058,34.6568 L51.6178,34.6488 L54.2378,32.6528 L55.8938,37.1728 C55.9148,37.2298 55.9608,37.2728 56.0198,37.2868 C56.0768,37.3018 56.1388,37.2888 56.1848,37.2498 L57.2298,36.3688 C57.5558,36.0948 57.6848,35.6598 57.5568,35.2608 L56.2198,31.0718 L57.7498,29.8758 L57.8838,29.7718 L57.8878,29.7678 C57.9868,29.6908 58.0748,29.6048 58.1548,29.5128 C58.1598,29.5068 58.1648,29.5018 58.1698,29.4958 C58.2498,29.4028 58.3188,29.3018 58.3788,29.1958 C58.3828,29.1898 58.3868,29.1828 58.3908,29.1758" id="Fill-23" fill="#EFEFEF"></path>
            <path d="M39.8508,47.9912 C39.5818,47.9912 39.3658,47.7742 39.3658,47.5072 C39.3658,45.1272 41.2998,43.1912 43.6798,43.1912 C45.2618,43.1912 46.6998,44.0602 47.4498,45.4142 C47.8808,45.1022 48.3988,44.9302 48.9438,44.9302 C50.3648,44.9302 51.5208,46.0862 51.5208,47.5072 C51.5208,47.7742 51.3038,47.9912 51.0358,47.9912 L39.8508,47.9912 Z" id="Fill-25" fill="#009385"></path>
            <path d="M43.6799,42.707 C41.0339,42.707 38.8799,44.86 38.8799,47.507 C38.8799,48.043 39.3149,48.477 39.8509,48.477 L46.8529,48.477 L47.5089,48.477 L51.0349,48.477 C51.5719,48.477 52.0059,48.043 52.0059,47.507 C52.0059,45.818 50.6329,44.445 48.9449,44.445 C48.4729,44.445 48.0179,44.553 47.6089,44.754 C46.7249,43.494 45.2679,42.707 43.6799,42.707 M43.6799,43.677 C45.3509,43.677 46.7669,44.749 47.2899,46.24 C47.6729,45.742 48.2679,45.415 48.9449,45.415 C50.0989,45.415 51.0349,46.352 51.0349,47.507 L47.5089,47.507 L46.8529,47.507 L39.8509,47.507 C39.8509,45.392 41.5649,43.677 43.6799,43.677" id="Fill-27" fill="#000000"></path>
            <path d="M0.9709,28.0449 C0.7019,28.0449 0.4859,27.8279 0.4859,27.5599 C0.4859,26.2629 1.5399,25.2069 2.8369,25.2069 C3.2249,25.2069 3.5979,25.2999 3.9319,25.4759 C4.7369,23.7099 6.4879,22.5639 8.4749,22.5639 C10.2369,22.5639 11.8419,23.4829 12.7409,24.9559 C13.3759,24.3879 14.2069,24.0619 15.0729,24.0619 C17.0009,24.0619 18.5709,25.6309 18.5709,27.5599 C18.5709,27.8279 18.3539,28.0449 18.0849,28.0449 L0.9709,28.0449 Z" id="Fill-29" fill="#009385"></path>
            <g id="Group-33" transform="translate(0.000000, 22.000000)">
                <mask id="mask-2" fill="white">
                    <use xlink:href="#path-1"></use>
                </mask>
                <g id="Clip-32"></g>
                <path d="M8.4748,0.0781 C6.4548,0.0781 4.6588,1.1571 3.7038,2.8551 C3.4268,2.7671 3.1358,2.7221 2.8378,2.7221 C1.2728,2.7221 -0.0002,3.9951 -0.0002,5.5591 C-0.0002,6.0961 0.4348,6.5301 0.9698,6.5301 L3.9638,6.5301 L4.7048,6.5301 L12.0588,6.5301 L12.9858,6.5301 L18.0848,6.5301 C18.6208,6.5301 19.0558,6.0961 19.0558,5.5591 C19.0558,3.3631 17.2688,1.5761 15.0718,1.5761 C14.2728,1.5761 13.4998,1.8191 12.8508,2.2571 C11.8298,0.9031 10.2228,0.0781 8.4748,0.0781 M8.4748,1.0491 C10.3418,1.0491 11.9438,2.1821 12.6288,3.8001 C13.1758,3.0411 14.0658,2.5461 15.0718,2.5461 C16.7368,2.5461 18.0848,3.8951 18.0848,5.5591 L12.9858,5.5591 L12.0588,5.5591 L4.7048,5.5591 L3.9638,5.5591 L0.9698,5.5591 C0.9698,4.5281 1.8068,3.6921 2.8378,3.6921 C3.3548,3.6921 3.8228,3.9021 4.1608,4.2411 C4.7248,2.3931 6.4418,1.0491 8.4748,1.0491" id="Fill-31" fill="#000000" mask="url(#mask-2)"></path>
            </g>
            <path d="M63.1985,5.9668 C62.9295,5.9668 62.7135,5.7488 62.7135,5.4818 C62.7135,4.1838 63.7685,3.1278 65.0655,3.1278 C65.4535,3.1278 65.8255,3.2208 66.1595,3.3978 C66.9635,1.6318 68.7155,0.4858 70.7025,0.4858 C72.4645,0.4858 74.0695,1.4048 74.9675,2.8778 C75.6045,2.3088 76.4345,1.9828 77.3005,1.9828 C79.2285,1.9828 80.7985,3.5518 80.7985,5.4818 C80.7985,5.7488 80.5815,5.9668 80.3125,5.9668 L63.1985,5.9668 Z" id="Fill-34" fill="#009385"></path>
            <g id="Group-38" transform="translate(62.000000, 0.000000)">
                <mask id="mask-4" fill="white">
                    <use xlink:href="#path-3"></use>
                </mask>
                <g id="Clip-37"></g>
                <path d="M8.7024,0 C6.6834,0 4.8864,1.079 3.9314,2.777 C3.6544,2.689 3.3634,2.644 3.0654,2.644 C1.5014,2.644 0.2274,3.917 0.2274,5.481 C0.2274,6.018 0.6624,6.452 1.1984,6.452 L4.1904,6.452 L4.9324,6.452 L12.2864,6.452 L13.2134,6.452 L18.3124,6.452 C18.8484,6.452 19.2834,6.018 19.2834,5.481 C19.2834,3.284 17.4964,1.497 15.3004,1.497 C14.5014,1.497 13.7274,1.741 13.0784,2.178 C12.0574,0.824 10.4504,0 8.7024,0 M8.7024,0.971 C10.5694,0.971 12.1714,2.104 12.8564,3.722 C13.4034,2.963 14.2934,2.468 15.3004,2.468 C16.9644,2.468 18.3124,3.817 18.3124,5.481 L13.2134,5.481 L12.2864,5.481 L4.9324,5.481 L4.1904,5.481 L1.1984,5.481 C1.1984,4.45 2.0334,3.614 3.0654,3.614 C3.5824,3.614 4.0504,3.824 4.3884,4.163 C4.9524,2.315 6.6694,0.971 8.7024,0.971" id="Fill-36" fill="#000000" mask="url(#mask-4)"></path>
            </g>
            <path d="M52.3137,29.0732 C51.5757,29.6822 50.8257,30.2992 50.0657,30.9202" id="Stroke-39" stroke="#000000" stroke-linecap="round" stroke-linejoin="round"></path>
            <path d="M45.092,34.9521 C27.231,49.3101 12.149,60.1201 11.352,59.1291 C11.074,58.7841 12.561,57.0581 15.368,54.3481" id="Stroke-41" stroke="#000000" stroke-linecap="round" stroke-linejoin="round" stroke-dasharray="6.598,6.598"></path>
            <path d="M17.7004,52.1513 C18.3734,51.5303 19.0924,50.8763 19.8524,50.1903" id="Stroke-43" stroke="#000000" stroke-linecap="round" stroke-linejoin="round"></path>
            <path d="M64.8772,21.9316 L68.3072,31.2906 L70.3642,29.5566 C70.8912,29.1126 71.1022,28.4016 70.8972,27.7596 L68.1882,19.2726 L71.6632,16.5596 C72.4602,15.9396 72.9472,15.0006 72.9842,13.9976 C73.0242,12.9306 72.1822,12.0506 71.1122,11.9856 L71.0772,11.9836 C70.1542,11.9266 69.2462,12.2466 68.5592,12.8706 L65.2862,15.8356 L57.3902,11.7326 C56.7912,11.4216 56.0552,11.5096 55.5282,11.9526 L53.4712,13.6876 L62.1092,18.6486 L60.8462,19.8596 L56.7562,23.6006 L53.5092,21.9126 C53.2102,21.7576 52.8422,21.8006 52.5782,22.0236 L51.8722,22.6186 L54.8112,25.5546 C54.5312,26.1536 54.5982,26.8726 55.0402,27.3976 C55.4832,27.9246 56.1872,28.1126 56.8262,27.9346 L59.2722,31.3996 L59.9792,30.8036 C60.2422,30.5816 60.3482,30.2266 60.2452,29.9056 L59.1042,26.3286 L64.8772,21.9316 Z" id="Fill-45" fill="#FFFFFF"></path>
            <path d="M64.8772,21.9316 L68.3072,31.2906 L70.3642,29.5566 C70.8912,29.1126 71.1022,28.4016 70.8972,27.7596 L68.1882,19.2726 L71.6632,16.5596 C72.4602,15.9396 72.9472,15.0006 72.9842,13.9976 C73.0242,12.9306 72.1822,12.0506 71.1122,11.9856 L71.0772,11.9836 C70.1542,11.9266 69.2462,12.2466 68.5592,12.8706 L65.2862,15.8356 L57.3902,11.7326 C56.7912,11.4216 56.0552,11.5096 55.5282,11.9526 L53.4712,13.6876 L62.1092,18.6486 L60.8462,19.8596 L56.7562,23.6006 L53.5092,21.9126 C53.2102,21.7576 52.8422,21.8006 52.5782,22.0236 L51.8722,22.6186 L54.8112,25.5546 C54.5312,26.1536 54.5982,26.8726 55.0402,27.3976 C55.4832,27.9246 56.1872,28.1126 56.8262,27.9346 L59.2722,31.3996 L59.9792,30.8036 C60.2422,30.5816 60.3482,30.2266 60.2452,29.9056 L59.1042,26.3286 L64.8772,21.9316 Z" id="Stroke-47" stroke="#000000" stroke-linecap="round" stroke-linejoin="round"></path>
            <path d="M55.0403,27.3974 L55.0403,27.3974 C54.4413,26.6884 54.5263,25.6204 55.2323,24.9804 L68.5593,12.8714 C69.2523,12.2414 70.1703,11.9194 71.0923,11.9844 L71.0963,11.9844 C72.2453,12.0644 73.0863,13.0624 72.9713,14.2094 C72.8773,15.1304 72.4033,15.9824 71.6633,16.5594 L57.4523,27.6194 C56.7023,28.2044 55.6373,28.1064 55.0403,27.3974 Z" id="Stroke-49" stroke="#000000"></path>
            <path d="M54.4612,27.9062 L57.7312,25.1502" id="Stroke-51" stroke="#009385" stroke-linecap="round" stroke-linejoin="round"></path>
            <path d="M69.9651,13.5713 L71.2151,15.0533 C71.3751,15.2443 71.6921,15.1403 71.7171,14.8893 L71.7171,14.8833 C71.8071,13.9673 71.1361,13.1723 70.2191,13.1053 L70.2121,13.1043 C69.9601,13.0863 69.8051,13.3813 69.9651,13.5713" id="Fill-53" fill="#009385"></path>
        </g>
    </g>
</svg>