<?xml version="1.0" encoding="UTF-8"?>
<svg width="174px" height="52px" viewBox="0 0 174 52" version="1.1" xmlns="http://www.w3.org/2000/svg" xmlns:xlink="http://www.w3.org/1999/xlink">
    <!-- Generator: Sketch 51 (57462) - http://www.bohemiancoding.com/sketch -->
    <title>Group 6</title>
    <desc>Created with Sketch.</desc>
    <defs/>
    <g id="Symbols" stroke="none" stroke-width="1" fill="none" fill-rule="evenodd">
        <g id="Mobile-push" transform="translate(-802.000000, -23.000000)">
            <g id="Group-6" transform="translate(802.000000, 23.000000)">
                <g id="Appstore">
                    <rect id="backfround-copy" stroke="#000000" stroke-width="0.600000018" x="0.300000009" y="0.300000009" width="173.4" height="51.4" rx="4.80000014"/>
                    <path d="M66.7876057,39.9350348 L69.7120876,39.9350348 L63.3101756,22.0832457 L60.3488305,22.0832457 L53.9469186,39.9350348 L56.7730985,39.9350348 L58.4073678,35.1968261 L65.1656242,35.1968261 L66.7876057,39.9350348 Z M61.6881941,25.3245269 L61.8970856,25.3245269 L64.4652231,32.8710212 L59.1077689,32.8710212 L61.6881941,25.3245269 Z M77.4663998,26.2400033 C75.6478145,26.2400033 74.0749839,27.1554796 73.2639931,28.6895211 L73.0673893,28.6895211 L73.0673893,26.4626867 L70.5238274,26.4626867 L70.5238274,44.3021045 L73.1656912,44.3021045 L73.1656912,37.8937699 L73.3745828,37.8937699 C74.0749839,39.3164697 75.5863758,40.1577182 77.4909753,40.1577182 C80.8701035,40.1577182 83.0204578,37.4731457 83.0204578,33.1926751 C83.0204578,28.9122045 80.8701035,26.2400033 77.4663998,26.2400033 L77.4663998,26.2400033 Z M76.7168478,37.7700569 C74.5050548,37.7700569 73.1165403,36.013332 73.1165403,33.2050464 C73.1165403,30.3843895 74.5050548,28.6276646 76.7291355,28.6276646 C78.965504,28.6276646 80.3048675,30.3472756 80.3048675,33.1926751 C80.3048675,36.0504459 78.965504,37.7700569 76.7168478,37.7700569 L76.7168478,37.7700569 Z M91.1679777,26.2400033 C89.3493924,26.2400033 87.7765618,27.1554796 86.965571,28.6895211 L86.7689672,28.6895211 L86.7689672,26.4626867 L84.2254052,26.4626867 L84.2254052,44.3021045 L86.8672691,44.3021045 L86.8672691,37.8937699 L87.0761607,37.8937699 C87.7765618,39.3164697 89.2879537,40.1577182 91.1925532,40.1577182 C94.5716814,40.1577182 96.7220357,37.4731457 96.7220357,33.1926751 C96.7220357,28.9122045 94.5716814,26.2400033 91.1679777,26.2400033 L91.1679777,26.2400033 Z M90.4184256,37.7700569 C88.2066326,37.7700569 86.8181182,36.013332 86.8181182,33.2050464 C86.8181182,30.3843895 88.2066326,28.6276646 90.4307134,28.6276646 C92.6670819,28.6276646 94.0064454,30.3472756 94.0064454,33.1926751 C94.0064454,36.0504459 92.6670819,37.7700569 90.4184256,37.7700569 L90.4184256,37.7700569 Z M102.314455,35.1349695 C102.511059,38.3267655 105.152923,40.3680304 109.084999,40.3680304 C113.287406,40.3680304 115.916982,38.2277951 115.916982,34.8133157 C115.916982,32.1287431 114.417878,30.6441868 110.780707,29.790567 L108.826957,29.3080862 C106.516862,28.7637489 105.582993,28.0338421 105.582993,26.759598 C105.582993,25.1513287 107.032947,24.099768 109.207876,24.099768 C111.272217,24.099768 112.697594,25.1265861 112.955637,26.7719693 L115.634364,26.7719693 C115.474623,23.7657428 112.845047,21.6502501 109.24474,21.6502501 C105.374102,21.6502501 102.793677,23.7657428 102.793677,26.9451675 C102.793677,29.5678836 104.255918,31.1266676 107.463018,31.8813171 L109.748537,32.4380257 C112.095495,32.9947343 113.127665,33.8112402 113.127665,35.1720835 C113.127665,36.7556101 111.505684,37.9061412 109.293891,37.9061412 C106.922357,37.9061412 105.2758,36.8298379 105.042333,35.1349695 L102.314455,35.1349695 Z M118.190963,23.1966629 L118.190963,26.5245432 L115.991457,26.5245432 L115.991457,28.7637489 L118.190963,28.7637489 L118.190963,36.3720998 C118.190963,38.9700732 119.358298,40.0092626 122.295067,40.0092626 C122.811152,40.0092626 123.290374,39.9474061 123.708157,39.8731783 L123.708157,37.6587152 C123.339525,37.6958291 123.130634,37.7205717 122.725138,37.7205717 C121.41035,37.7205717 120.832826,37.1020066 120.832826,35.6916781 L120.832826,28.7637489 L123.831035,28.7637489 L123.831035,26.5245432 L120.832826,26.5245432 L120.832826,23.1966629 L118.190963,23.1966629 Z M130.381149,37.8319134 C128.083341,37.8319134 126.793129,36.137045 126.793129,33.1926751 C126.793129,30.2730478 128.083341,28.5658081 130.381149,28.5658081 C132.666668,28.5658081 133.969168,30.2730478 133.969168,33.1926751 C133.969168,36.1246737 132.666668,37.8319134 130.381149,37.8319134 L130.381149,37.8319134 Z M130.381149,40.1948321 C134.28865,40.1948321 136.684759,37.5597448 136.684759,33.1926751 C136.684759,28.850348 134.276362,26.2028894 130.381149,26.2028894 C126.473648,26.2028894 124.065251,28.850348 124.065251,33.1926751 C124.065251,37.5597448 126.46136,40.1948321 130.381149,40.1948321 L130.381149,40.1948321 Z M137.889706,39.9350348 L140.53157,39.9350348 L140.53157,31.9802875 C140.53157,30.0874782 141.94466,28.8132341 143.935274,28.8132341 C144.377632,28.8132341 145.188623,28.8998332 145.397515,28.974061 L145.397515,26.351345 C145.114897,26.2771172 144.611099,26.2400033 144.230179,26.2400033 C142.48532,26.2400033 141.010792,27.2049648 140.629872,28.5286942 L140.433268,28.5286942 L140.433268,26.4626867 L137.889706,26.4626867 L137.889706,39.9350348 Z M151.345529,28.4668377 C153.29928,28.4668377 154.577204,29.8400522 154.638643,31.9555449 L147.880387,31.9555449 C148.02784,29.8524235 149.391779,28.4668377 151.345529,28.4668377 L151.345529,28.4668377 Z M154.626355,36.297872 C154.134846,37.3494326 153.041237,37.9308838 151.443831,37.9308838 C149.33034,37.9308838 147.966401,36.4339563 147.880387,34.0710376 L147.880387,33.9225819 L157.329658,33.9225819 L157.329658,32.9947343 C157.329658,28.7637489 155.081002,26.2028894 151.357817,26.2028894 C147.585481,26.2028894 145.189372,28.9369471 145.189372,33.2421603 C145.189372,37.5473735 147.53633,40.1948321 151.370105,40.1948321 C154.429752,40.1948321 156.567818,38.7102759 157.169917,36.297872 L154.626355,36.297872 Z" id="App-Store" fill="#000000"/>
                    <path d="M56.4227224,8.14880003 L56.4227224,16.649652 L59.4712519,16.649652 C61.9873128,16.649652 63.4442875,15.0885115 63.4442875,12.3727161 C63.4442875,9.69815835 61.9756101,8.14880003 59.4712519,8.14880003 L56.4227224,8.14880003 Z M57.7334146,9.35058367 L59.3249693,9.35058367 C61.0745093,9.35058367 62.1101901,10.469892 62.1101901,12.3903894 C62.1101901,14.3403422 61.0920632,15.4478683 59.3249693,15.4478683 L57.7334146,15.4478683 L57.7334146,9.35058367 Z M68.0562855,15.6481656 C66.9620916,15.6481656 66.3477047,14.8410854 66.3477047,13.4390045 C66.3477047,12.0487058 66.9620916,11.2357345 68.0562855,11.2357345 C69.1446281,11.2357345 69.7648663,12.0487058 69.7648663,13.4390045 C69.7648663,14.8351943 69.1446281,15.6481656 68.0562855,15.6481656 L68.0562855,15.6481656 Z M68.0562855,16.773365 C69.9170003,16.773365 71.0580046,15.5185615 71.0580046,13.4390045 C71.0580046,11.3712297 69.911149,10.1105351 68.0562855,10.1105351 C66.1955708,10.1105351 65.0487151,11.3712297 65.0487151,13.4390045 C65.0487151,15.5185615 66.1897195,16.773365 68.0562855,16.773365 L68.0562855,16.773365 Z M80.9186225,10.2342481 L79.6605921,10.2342481 L78.525439,15.1297491 L78.4259669,15.1297491 L77.1152747,10.2342481 L75.9099061,10.2342481 L74.5992139,15.1297491 L74.505593,15.1297491 L73.3645887,10.2342481 L72.0890044,10.2342481 L73.8443957,16.649652 L75.1375339,16.649652 L76.448226,11.9249927 L76.5476982,11.9249927 L77.8642417,16.649652 L79.1690825,16.649652 L80.9186225,10.2342481 Z M82.5171988,16.649652 L83.7752292,16.649652 L83.7752292,12.8970236 C83.7752292,11.8955373 84.3954675,11.2710811 85.4077431,11.2710811 C86.3439518,11.2710811 86.8003535,11.7836064 86.8003535,12.8145483 L86.8003535,16.649652 L88.0583839,16.649652 L88.0583839,12.4964291 C88.0583839,10.9706352 87.2567552,10.1105351 85.8348883,10.1105351 C84.8752744,10.1105351 84.1321588,10.5405851 83.8220396,11.2534078 L83.7284188,11.2534078 L83.7284188,10.2342481 L82.5171988,10.2342481 L82.5171988,16.649652 Z M90.1835776,16.649652 L91.441608,16.649652 L91.441608,7.73053219 L90.1835776,7.73053219 L90.1835776,16.649652 Z M96.3169147,15.6481656 C95.2227208,15.6481656 94.6083339,14.8410854 94.6083339,13.4390045 C94.6083339,12.0487058 95.2227208,11.2357345 96.3169147,11.2357345 C97.4052573,11.2357345 98.0254955,12.0487058 98.0254955,13.4390045 C98.0254955,14.8351943 97.4052573,15.6481656 96.3169147,15.6481656 L96.3169147,15.6481656 Z M96.3169147,16.773365 C98.1776295,16.773365 99.3186338,15.5185615 99.3186338,13.4390045 C99.3186338,11.3712297 98.1717782,10.1105351 96.3169147,10.1105351 C94.4562,10.1105351 93.3093443,11.3712297 93.3093443,13.4390045 C93.3093443,15.5185615 94.4503487,16.773365 96.3169147,16.773365 L96.3169147,16.773365 Z M103.210921,15.6894033 C102.526319,15.6894033 102.028958,15.3536108 102.028958,14.7762834 C102.028958,14.2107381 102.426847,13.9102922 103.304542,13.8513812 L104.860989,13.7512326 L104.860989,14.2873224 C104.860989,15.0826204 104.158833,15.6894033 103.210921,15.6894033 L103.210921,15.6894033 Z M102.8891,16.7556917 C103.725836,16.7556917 104.422141,16.3904437 104.802476,15.7483142 L104.901948,15.7483142 L104.901948,16.649652 L106.113168,16.649652 L106.113168,12.2666763 C106.113168,10.9117242 105.212067,10.1105351 103.614661,10.1105351 C102.169389,10.1105351 101.13956,10.8174666 101.010831,11.9191017 L102.227902,11.9191017 C102.368334,11.4654872 102.853992,11.206279 103.556148,11.206279 C104.41629,11.206279 104.860989,11.5892003 104.860989,12.2666763 L104.860989,12.8204394 L103.134854,12.920588 C101.619367,13.0148456 100.765076,13.6805394 100.765076,14.8351943 C100.765076,16.0075225 101.660326,16.7556917 102.8891,16.7556917 L102.8891,16.7556917 Z M110.532073,16.7556917 C111.409769,16.7556917 112.152884,16.3374239 112.533219,15.6363834 L112.632691,15.6363834 L112.632691,16.649652 L113.83806,16.649652 L113.83806,7.73053219 L112.58003,7.73053219 L112.58003,11.2534078 L112.486409,11.2534078 C112.141182,10.5464762 111.403918,10.1282084 110.532073,10.1282084 C108.922965,10.1282084 107.887284,11.4124674 107.887284,13.4390045 C107.887284,15.4714327 108.911262,16.7556917 110.532073,16.7556917 L110.532073,16.7556917 Z M110.889003,11.26519 C111.942238,11.26519 112.603435,12.1076167 112.603435,13.4448956 C112.603435,14.7880655 111.948089,15.6187101 110.889003,15.6187101 C109.824065,15.6187101 109.186273,14.7998477 109.186273,13.4390045 C109.186273,12.0899434 109.829917,11.26519 110.889003,11.26519 L110.889003,11.26519 Z M122.289684,15.6481656 C121.19549,15.6481656 120.581103,14.8410854 120.581103,13.4390045 C120.581103,12.0487058 121.19549,11.2357345 122.289684,11.2357345 C123.378027,11.2357345 123.998265,12.0487058 123.998265,13.4390045 C123.998265,14.8351943 123.378027,15.6481656 122.289684,15.6481656 L122.289684,15.6481656 Z M122.289684,16.773365 C124.150399,16.773365 125.291403,15.5185615 125.291403,13.4390045 C125.291403,11.3712297 124.144547,10.1105351 122.289684,10.1105351 C120.428969,10.1105351 119.282114,11.3712297 119.282114,13.4390045 C119.282114,15.5185615 120.423118,16.773365 122.289684,16.773365 L122.289684,16.773365 Z M127.100626,16.649652 L128.358657,16.649652 L128.358657,12.8970236 C128.358657,11.8955373 128.978895,11.2710811 129.991171,11.2710811 C130.927379,11.2710811 131.383781,11.7836064 131.383781,12.8145483 L131.383781,16.649652 L132.641811,16.649652 L132.641811,12.4964291 C132.641811,10.9706352 131.840183,10.1105351 130.418316,10.1105351 C129.458702,10.1105351 128.715586,10.5405851 128.405467,11.2534078 L128.311846,11.2534078 L128.311846,10.2342481 L127.100626,10.2342481 L127.100626,16.649652 Z M138.729508,8.67899869 L138.729508,10.2637036 L137.682125,10.2637036 L137.682125,11.329992 L138.729508,11.329992 L138.729508,14.9530162 C138.729508,16.1901465 139.285382,16.6849985 140.683844,16.6849985 C140.929599,16.6849985 141.1578,16.6555431 141.356744,16.6201965 L141.356744,15.5656903 C141.181205,15.5833635 141.081733,15.5951457 140.88864,15.5951457 C140.26255,15.5951457 139.987539,15.3005909 139.987539,14.6290059 L139.987539,11.329992 L141.415257,11.329992 L141.415257,10.2637036 L139.987539,10.2637036 L139.987539,8.67899869 L138.729508,8.67899869 Z M143.206926,16.649652 L144.464957,16.649652 L144.464957,12.9029147 C144.464957,11.9308838 145.102749,11.2769722 146.132578,11.2769722 C147.08049,11.2769722 147.554445,11.7953886 147.554445,12.8204394 L147.554445,16.649652 L148.812476,16.649652 L148.812476,12.5082113 C148.812476,10.9824173 147.993293,10.1164262 146.559724,10.1164262 C145.60011,10.1164262 144.862845,10.5464762 144.552726,11.26519 L144.453254,11.26519 L144.453254,7.73053219 L143.206926,7.73053219 L143.206926,16.649652 Z M153.500541,11.1886057 C154.430898,11.1886057 155.039434,11.8425174 155.06869,12.8498949 L151.850473,12.8498949 C151.920689,11.8484085 152.570183,11.1886057 153.500541,11.1886057 L153.500541,11.1886057 Z M155.062839,14.9176697 C154.828787,15.4184128 154.308021,15.6952944 153.547351,15.6952944 C152.540927,15.6952944 151.891432,14.9824717 151.850473,13.8572723 L151.850473,13.7865792 L156.350126,13.7865792 L156.350126,13.344747 C156.350126,11.329992 155.279337,10.1105351 153.506392,10.1105351 C151.710042,10.1105351 150.569037,11.4124674 150.569037,13.4625689 C150.569037,15.5126704 151.686636,16.773365 153.512243,16.773365 C154.969218,16.773365 155.987345,16.0664334 156.274059,14.9176697 L155.062839,14.9176697 Z" id="Download-on-the" fill="#000000"/>
                    <g id="logo_apple" transform="translate(15.578512, 8.083527)" fill="#000000">
                        <path d="M23.1689348,18.1643154 C23.1303707,13.8492358 26.6782669,11.7499354 26.840502,11.6522002 C24.83118,8.70273677 21.7167974,8.29974609 20.6223752,8.26761394 C18.0066661,7.99047417 15.4694151,9.84342802 14.1369593,9.84342802 C12.7779077,9.84342802 10.7260322,8.29439073 8.51458122,8.33991127 C5.66881746,8.38409297 3.00656556,10.0429151 1.54644939,12.6188423 C-1.46686869,17.8711096 0.780486802,25.5895192 3.66747425,29.8349793 C5.11163287,31.9155358 6.79914418,34.2357447 9.00793559,34.1540755 C11.1688543,34.065712 11.9760406,32.7670377 14.5837709,32.7670377 C17.1675648,32.7670377 17.9255486,34.1540755 20.1782233,34.1005219 C22.4973878,34.065712 23.9575039,32.0132711 25.3511303,29.9139708 C27.0200245,27.5335142 27.6902417,25.1838509 27.7168376,25.0633553 C27.6636458,25.0459504 23.2141479,23.3362524 23.1689348,18.1643154" id="Fill-2"/>
                        <path d="M18.9135871,5.47479477 C20.075829,4.0114432 20.8710471,2.02058888 20.6503009,0.000280095736 C18.9681088,0.0752551071 16.8643713,1.17176465 15.652927,2.60298406 C14.5811113,3.86417086 13.623658,5.93133903 13.8710001,7.87533397 C15.7606404,8.01725095 17.700813,6.91538606 18.9135871,5.47479477" id="Fill-3"/>
                    </g>
                </g>
            </g>
        </g>
    </g>
</svg>