<?xml version="1.0" encoding="UTF-8"?>
<svg width="24px" height="24px" viewBox="0 0 24 24" version="1.1" xmlns="http://www.w3.org/2000/svg" xmlns:xlink="http://www.w3.org/1999/xlink">
    <!-- Generator: Sketch 53 (72520) - https://sketchapp.com -->
    <title>Icon/Map@svg</title>
    <desc>Created with Sketch.</desc>
    <defs>
        <polygon id="path-1" points="0.0001 0.072 22 0.072 22 19 0.0001 19"></polygon>
    </defs>
    <g id="Icon/Map" stroke="none" stroke-width="1" fill="none" fill-rule="evenodd">
        <g transform="translate(1.000000, 2.000000)">
            <g id="Group-3" transform="translate(0.000000, 0.928400)">
                <mask id="mask-2" fill="white">
                    <use xlink:href="#path-1"></use>
                </mask>
                <g id="Clip-2"></g>
                <path d="M5.9951,15.0484 C6.0591,15.0484 6.1231,15.0614 6.1821,15.0864 L13.0671,18.0264 L21.0431,16.6224 L21.0431,2.6164 L13.0921,4.0164 C13.0031,4.0314 12.9081,4.0214 12.8221,3.9854 L5.9601,1.0544 L0.9561,2.4124 L0.9561,16.3984 L5.8701,15.0654 C5.9111,15.0534 5.9531,15.0484 5.9951,15.0484 M13.0101,19.0004 C12.9451,19.0004 12.8821,18.9864 12.8221,18.9624 L5.9601,16.0314 L0.6031,17.4854 C0.4611,17.5254 0.3071,17.4944 0.1881,17.4034 C0.0701,17.3134 0.0001,17.1734 0.0001,17.0244 L0.0001,2.0474 C0.0001,1.8314 0.1451,1.6424 0.3531,1.5854 L5.8701,0.0884 C5.9741,0.0604 6.0841,0.0684 6.1821,0.1094 L13.0671,3.0494 L21.4391,1.5754 C21.5781,1.5534 21.7211,1.5904 21.8291,1.6804 C21.9371,1.7714 22.0001,1.9054 22.0001,2.0474 L22.0001,17.0244 C22.0001,17.2564 21.8331,17.4544 21.6041,17.4954 L13.0921,18.9924 C13.0651,18.9974 13.0371,19.0004 13.0101,19.0004" id="Fill-1" fill="#000000" mask="url(#mask-2)"></path>
            </g>
            <path d="M15.4888,10.8366 C15.3288,10.8366 15.1738,10.7566 15.0828,10.6116 C14.9428,10.3876 15.0108,10.0926 15.2358,9.9526 L19.8458,7.0776 C20.0718,6.9386 20.3648,7.0066 20.5048,7.2306 C20.6448,7.4546 20.5768,7.7506 20.3518,7.8896 L15.7418,10.7646 C15.6628,10.8136 15.5748,10.8366 15.4888,10.8366" id="Fill-4" fill="#009688"></path>
            <path d="M19.2319,11.7048 C19.0719,11.7048 18.9159,11.6248 18.8259,11.4788 L15.9499,6.8688 C15.8109,6.6448 15.8789,6.3498 16.1029,6.2098 C16.3289,6.0698 16.6229,6.1388 16.7619,6.3628 L19.6369,10.9738 C19.7769,11.1978 19.7089,11.4928 19.4839,11.6318 C19.4059,11.6818 19.3179,11.7048 19.2319,11.7048" id="Fill-6" fill="#009688"></path>
            <path d="M15.9507,14.6911 C15.8287,14.6911 15.7057,14.6451 15.6127,14.5511 C15.4257,14.3641 15.4257,14.0611 15.6127,13.8751 C16.0307,13.4571 16.2347,12.8541 16.2367,12.8481 C16.3197,12.5971 16.5917,12.4611 16.8397,12.5441 C17.0907,12.6261 17.2267,12.8951 17.1447,13.1461 C17.1347,13.1791 16.8717,13.9681 16.2887,14.5511 C16.1957,14.6451 16.0737,14.6911 15.9507,14.6911" id="Fill-8" fill="#009688"></path>
            <path d="M11.5249,12.4533 C11.3709,12.4533 11.2199,12.3793 11.1279,12.2413 C10.9659,12.0003 10.7999,11.7413 10.6289,11.4613 C10.1919,10.7433 9.6519,10.2483 9.0249,9.9893 C8.7809,9.8893 8.6649,9.6093 8.7649,9.3643 C8.8659,9.1203 9.1469,9.0073 9.3899,9.1053 C10.2099,9.4433 10.9009,10.0683 11.4459,10.9633 C11.6079,11.2313 11.7679,11.4783 11.9209,11.7083 C12.0689,11.9283 12.0099,12.2243 11.7909,12.3713 C11.7089,12.4273 11.6169,12.4533 11.5249,12.4533" id="Fill-10" fill="#009688"></path>
            <path d="M2.6807,12.0764 C2.5487,12.0764 2.4157,12.0214 2.3217,11.9144 C2.1467,11.7154 2.1657,11.4144 2.3647,11.2394 C2.3837,11.2224 2.8447,10.8174 3.5677,10.3414 C3.7887,10.1984 4.0857,10.2584 4.2297,10.4784 C4.3747,10.6994 4.3137,10.9954 4.0937,11.1404 C3.4307,11.5764 3.0007,11.9524 2.9967,11.9564 C2.9057,12.0374 2.7927,12.0764 2.6807,12.0764" id="Fill-12" fill="#009688"></path>
        </g>
    </g>
</svg>