<svg xmlns="http://www.w3.org/2000/svg" viewBox="0 0 29.07 17.31"><defs/><title>jeep_icon</title><g id="Layer_2"><g id="jeep"><path class="cls-jeep1" d="M4.5,14.27h-3a1,1,0,0,1-1-1V9.12a2,2,0,0,1,2-2H24.77a1,1,0,0,1,1,1v5.15a1,1,0,0,1-1,1H24.4" style="fill: none; stroke: #000; stroke-miterlimit: 10;"/><line class="cls-jeep1" x1="18.64" y1="14.27" x2="10.27" y2="14.27" style="fill: none; stroke: #000; stroke-miterlimit: 10;"/><path class="cls-jeep2" d="M5.33,7.12,8.09,1A1.06,1.06,0,0,1,9,.5H12.5V7.13" style="fill: none; stroke: #000; stroke-linecap: round; stroke-linejoin: round;"/><rect class="cls-jeep3" x="12.67" y="5.24" width="11.27" height="1.88" style="stroke: #000; stroke-linecap: round; stroke-linejoin: round; fill: #009688;"/><rect class="cls-jeep2" x="26.57" y="7.69" width="2" height="4.74" rx="1" ry="1" style="fill: none; stroke: #000; stroke-linecap: round; stroke-linejoin: round;"/><circle class="cls-jeep1" cx="7.54" cy="13.93" r="2.88" style="fill: none; stroke: #000; stroke-miterlimit: 10;"/><circle cx="7.54" cy="13.93" r="0.5"/><circle class="cls-jeep1" cx="21.54" cy="13.93" r="2.88" style="fill: none; stroke: #000; stroke-miterlimit: 10;"/><circle cx="21.54" cy="13.93" r="0.5"/></g></g></svg>
