<svg xmlns="http://www.w3.org/2000/svg" viewBox="0 0 29.17 12.86"><defs/><title>Jet_ski_icon</title><g id="Layer_2"><g id="Jet_ski"><line class="cls-jetski1" x1="12.21" y1="10.73" x2="16.85" y2="10.73" style="fill: none; stroke: #000; stroke-linecap: round; stroke-linejoin: round;"/><line class="cls-jetski1" x1="5.16" y1="10.73" x2="9.69" y2="10.73" style="fill: none; stroke: #000; stroke-linecap: round; stroke-linejoin: round;"/><path class="cls-jetski1" d="M19.1,10.73a14.88,14.88,0,0,0,6.23-1.34,9.14,9.14,0,0,0,3.34-2.58h-26A1.79,1.79,0,0,0,1.76,7,1.85,1.85,0,0,0,.66,8.55l.5,1.12a1.81,1.81,0,0,0,1.65,1.07" style="fill: none; stroke: #000; stroke-linecap: round; stroke-linejoin: round;"/><path class="cls-jetski1" d="M14.67.53s7.51-.81,14,6.29" style="fill: none; stroke: #000; stroke-linecap: round; stroke-linejoin: round;"/><line class="cls-jetski1" x1="25.42" y1="3.92" x2="17.1" y2="3.92" style="fill: none; stroke: #000; stroke-linecap: round; stroke-linejoin: round;"/><path class="cls-jetski1" d="M19.61,1.11,14.24,6.53A7.23,7.23,0,0,1,9,8.67L.66,8.55" style="fill: none; stroke: #000; stroke-linecap: round; stroke-linejoin: round;"/><path class="cls-jetski2" d="M4.32,4.89h6.23a1.29,1.29,0,0,1,1.29,1.29v.64a0,0,0,0,1,0,0H3a0,0,0,0,1,0,0V6.18A1.29,1.29,0,0,1,4.32,4.89Z" style="stroke: #000; stroke-linecap: round; stroke-linejoin: round; fill: #009688;"/><path class="cls-jetski1" d="M28.5,12.36c-1.75,0-1.75-2-3.5-2s-1.75,2-3.5,2-1.75-2-3.49-2-1.75,2-3.5,2-1.75-2-3.5-2-1.75,2-3.5,2-1.75-2-3.51-2-1.75,2-3.51,2" style="fill: none; stroke: #000; stroke-linecap: round; stroke-linejoin: round;"/></g></g></svg>
