<svg xmlns="http://www.w3.org/2000/svg" viewBox="0 0 23.87 12"><defs/><title>Asset 97</title><g id="Layer_2"><g id="Layer_1-2"><rect class="cls-1" width="23.87" height="12" rx="2" ry="2" style="fill: #9d9d9d;"/><rect class="cls-2" x="6.86" y="8.16" width="9.72" height="1.62" style="fill: #fff;"/><rect class="cls-2" x="2.63" y="2.22" width="1.62" height="1.62" style="fill: #fff;"/><rect class="cls-2" x="5.46" y="2.22" width="1.62" height="1.62" style="fill: #fff;"/><rect class="cls-2" x="8.29" y="2.22" width="1.62" height="1.62" style="fill: #fff;"/><rect class="cls-2" x="11.13" y="2.22" width="1.62" height="1.62" style="fill: #fff;"/><rect class="cls-2" x="13.96" y="2.22" width="1.62" height="1.62" style="fill: #fff;"/><rect class="cls-2" x="16.79" y="2.22" width="1.62" height="1.62" style="fill: #fff;"/><rect class="cls-2" x="19.62" y="2.22" width="1.62" height="1.62" style="fill: #fff;"/><rect class="cls-2" x="4.05" y="5.19" width="1.62" height="1.62" style="fill: #fff;"/><rect class="cls-2" x="6.88" y="5.19" width="1.62" height="1.62" style="fill: #fff;"/><rect class="cls-2" x="9.71" y="5.19" width="1.62" height="1.62" style="fill: #fff;"/><rect class="cls-2" x="12.54" y="5.19" width="1.62" height="1.62" style="fill: #fff;"/><rect class="cls-2" x="15.37" y="5.19" width="1.62" height="1.62" style="fill: #fff;"/><rect class="cls-2" x="18.2" y="5.19" width="1.62" height="1.62" style="fill: #fff;"/></g></g></svg>
