<?xml version="1.0" encoding="UTF-8"?>
<svg width="24px" height="24px" viewBox="0 0 24 24" version="1.1" xmlns="http://www.w3.org/2000/svg" xmlns:xlink="http://www.w3.org/1999/xlink">
    <!-- Generator: Sketch 52.2 (67145) - http://www.bohemiancoding.com/sketch -->
    <title>Icon/Kitchen/3</title>
    <desc>Created with Sketch.</desc>
    <defs>
        <polygon id="path-1" points="0 0.6 21.9997287 0.6 21.9997287 14.9929 0 14.9929"></polygon>
        <polygon id="path-3" points="0 20.4003 22 20.4003 22 1.0003 0 1.0003"></polygon>
    </defs>
    <g id="Icon/Kitchen/3" stroke="none" stroke-width="1" fill="none" fill-rule="evenodd">
        <g id="Group-14" transform="translate(1.000000, 2.000000)">
            <g id="Group-3" transform="translate(0.000000, 0.400300)">
                <mask id="mask-2" fill="white">
                    <use xlink:href="#path-1"></use>
                </mask>
                <g id="Clip-2"></g>
                <path d="M1.0947,13.9459 L20.9057,13.9459 L19.8357,1.6469 L2.1637,1.6469 L1.0947,13.9459 Z M21.4767,14.9929 L0.5237,14.9929 C0.3767,14.9929 0.2377,14.9319 0.1377,14.8239 C0.0387,14.7149 -0.0103,14.5709 0.0017,14.4249 L1.1617,1.0789 C1.1857,0.8069 1.4117,0.5999 1.6837,0.5999 L20.3167,0.5999 C20.5877,0.5999 20.8147,0.8069 20.8377,1.0789 L21.9977,14.4249 C22.0107,14.5709 21.9607,14.7149 21.8627,14.8239 C21.7627,14.9319 21.6227,14.9929 21.4767,14.9929 Z" id="Fill-1" fill="#000000" mask="url(#mask-2)"></path>
            </g>
            <mask id="mask-4" fill="white">
                <use xlink:href="#path-3"></use>
            </mask>
            <g id="Clip-5"></g>
            <path d="M1.048,19.3533 L20.952,19.3533 L20.952,15.3933 L1.048,15.3933 L1.048,19.3533 Z M21.477,20.4003 L0.523,20.4003 C0.234,20.4003 0,20.1663 0,19.8763 L0,14.8693 C0,14.5803 0.234,14.3463 0.523,14.3463 L21.477,14.3463 C21.766,14.3463 22,14.5803 22,14.8693 L22,19.8763 C22,20.1663 21.766,20.4003 21.477,20.4003 Z" id="Fill-4" fill="#000000" mask="url(#mask-4)"></path>
            <path d="M16.4053,8.1967 C16.4053,10.1317 13.9853,11.6987 11.0003,11.6987 C8.0143,11.6987 5.5943,10.1317 5.5943,8.1967 C5.5943,6.2617 8.0143,4.6947 11.0003,4.6947 C13.9853,4.6947 16.4053,6.2617 16.4053,8.1967" id="Fill-6" fill="#009587" mask="url(#mask-4)"></path>
            <path d="M11,5.2182 C8.354,5.2182 6.118,6.5822 6.118,8.1972 C6.118,9.8122 8.354,11.1752 11,11.1752 C13.646,11.1752 15.881,9.8122 15.881,8.1972 C15.881,6.5822 13.646,5.2182 11,5.2182 M11,12.2232 C7.675,12.2232 5.07,10.4552 5.07,8.1972 C5.07,5.9392 7.675,4.1702 11,4.1702 C14.325,4.1702 16.929,5.9392 16.929,8.1972 C16.929,10.4552 14.325,12.2232 11,12.2232" id="Fill-7" fill="#000000" mask="url(#mask-4)"></path>
            <path d="M16.0283,17.8969 L9.9673,17.8969 C9.6773,17.8969 9.4443,17.6629 9.4443,17.3739 C9.4443,17.0839 9.6773,16.8489 9.9673,16.8489 L16.0283,16.8489 C16.3173,16.8489 16.5513,17.0839 16.5513,17.3739 C16.5513,17.6629 16.3173,17.8969 16.0283,17.8969" id="Fill-8" fill="#009587" mask="url(#mask-4)"></path>
            <path d="M7.9053,17.8969 L5.9713,17.8969 C5.6823,17.8969 5.4483,17.6629 5.4483,17.3739 C5.4483,17.0839 5.6823,16.8489 5.9713,16.8489 L7.9053,16.8489 C8.1943,16.8489 8.4283,17.0839 8.4283,17.3739 C8.4283,17.6629 8.1943,17.8969 7.9053,17.8969" id="Fill-9" fill="#009587" mask="url(#mask-4)"></path>
            <path d="M5.3086,13.0161 C5.1506,13.0161 4.9936,12.9441 4.8906,12.8071 C4.7166,12.5771 4.7626,12.2481 4.9936,12.0741 L8.8696,9.1491 C9.0976,8.9771 9.4276,9.0201 9.6026,9.2521 C9.7766,9.4821 9.7306,9.8111 9.4986,9.9861 L5.6236,12.9111 C5.5296,12.9811 5.4186,13.0161 5.3086,13.0161" id="Fill-10" fill="#000000" mask="url(#mask-4)"></path>
            <path d="M12.7715,7.3833 C12.6135,7.3833 12.4575,7.3113 12.3535,7.1743 C12.1795,6.9443 12.2255,6.6153 12.4575,6.4413 L16.3755,3.4833 C16.6055,3.3103 16.9345,3.3543 17.1095,3.5863 C17.2835,3.8173 17.2375,4.1453 17.0065,4.3203 L13.0865,7.2783 C12.9935,7.3483 12.8825,7.3833 12.7715,7.3833" id="Fill-11" fill="#000000" mask="url(#mask-4)"></path>
            <path d="M9.2266,7.3833 C9.1166,7.3833 9.0056,7.3483 8.9126,7.2783 L4.9936,4.3203 C4.7626,4.1453 4.7166,3.8173 4.8906,3.5863 C5.0666,3.3543 5.3946,3.3103 5.6236,3.4833 L9.5416,6.4413 C9.7736,6.6153 9.8196,6.9443 9.6456,7.1743 C9.5416,7.3113 9.3856,7.3833 9.2266,7.3833" id="Fill-12" fill="#000000" mask="url(#mask-4)"></path>
            <path d="M16.6914,13.0161 C16.5814,13.0161 16.4704,12.9811 16.3754,12.9111 L12.5044,9.9891 C12.2734,9.8141 12.2274,9.4851 12.4014,9.2551 C12.5764,9.0231 12.9064,8.9801 13.1344,9.1521 L17.0074,12.0741 C17.2374,12.2481 17.2834,12.5771 17.1094,12.8081 C17.0064,12.9441 16.8494,13.0161 16.6914,13.0161" id="Fill-13" fill="#000000" mask="url(#mask-4)"></path>
        </g>
    </g>
</svg>