<?xml version="1.0" encoding="UTF-8"?>
<svg width="127px" height="56px" viewBox="0 0 127 56" version="1.1" xmlns="http://www.w3.org/2000/svg" xmlns:xlink="http://www.w3.org/1999/xlink">
    <!-- Generator: Sketch 53 (72520) - https://sketchapp.com -->
    <title>Asset 53@2x Copy 13</title>
    <desc>Created with Sketch.</desc>
    <defs>
        <polygon id="path-1" points="0.377019162 0.000151351351 49.9621689 0.000151351351 49.9621689 0.756756757 0.377019162 0.756756757"></polygon>
    </defs>
    <g id="Asset-53@2x-Copy-13" stroke="none" stroke-width="1" fill="none" fill-rule="evenodd">
        <g id="Illustration/Phone-Copy" transform="translate(-0.000000, 0.000000)">
            <g id="Group-75" transform="translate(39.233533, -2.270270)">
                <path d="M32.0252766,56.0177081 C32.0252766,56.0177081 46.5273485,52.4859243 60.8626778,56.0177081 C75.1980072,59.5494919 95.4432647,54.5859243 81.2339353,52.5275459 C67.0238515,50.4684108 48.7908216,53.0217081 52.3112766,41.3396541 C55.8324862,29.6576 51.2187737,25.516627 51.2187737,25.516627" id="Stroke-1" stroke="#000000" stroke-linecap="round" stroke-linejoin="round"></path>
                <path d="M43.7773796,48.280173 C43.7773796,48.280173 39.0580383,40.4250378 38.3390084,40.0512 C37.9142299,39.8294703 37.3845772,39.6433081 36.9084934,39.4995243 C36.1125054,39.2611459 35.5028766,38.6148757 35.2878467,37.8089297 L34.9098467,36.3869838 L34.9007928,36.386227 C34.8464695,37.2913081 34.5688168,38.1547676 34.1055593,38.9486054 C32.5497988,41.6101189 28.9123976,43.4732541 24.6744216,43.4656865 C19.0263018,43.4558486 14.4540862,40.1283892 14.4616311,36.0320649 C14.4616311,35.9072 14.4654036,35.7815784 14.475212,35.6574703 L14.4623856,35.6567135 L14.054206,37.1679568 C13.842194,37.9549838 13.2491641,38.5815784 12.4773198,38.8381189 C11.6217269,39.1234162 10.5390323,39.5169297 9.98297246,39.8438486 C8.97723593,40.4363892 5.96983473,48.2166054 5.96983473,48.2166054 C5.96983473,48.2166054 5.16856527,55.8424432 5.64012216,56.4750919 C6.11243353,57.1084973 7.05705629,57.6639568 9.1054994,57.6669838 C11.154697,57.6707676 24.8570084,57.694227 24.8570084,57.694227 C24.8570084,57.694227 38.5600743,57.7176865 40.6100263,57.7214703 C42.659224,57.7244973 43.6046012,57.1728216 44.0784216,56.5409297 C44.5522419,55.9097946 43.7773796,48.280173 43.7773796,48.280173" id="Fill-3" fill="#FFFFFF"></path>
                <path d="M43.7773796,48.280173 C43.7773796,48.280173 39.0580383,40.4250378 38.3390084,40.0512 C37.9142299,39.8294703 37.3845772,39.6433081 36.9084934,39.4995243 C36.1125054,39.2611459 35.5028766,38.6148757 35.2878467,37.8089297 L34.9098467,36.3869838 L34.9007928,36.386227 C34.8464695,37.2913081 34.5688168,38.1547676 34.1055593,38.9486054 C32.5497988,41.6101189 28.9123976,43.4732541 24.6744216,43.4656865 C19.0263018,43.4558486 14.4540862,40.1283892 14.4616311,36.0320649 C14.4616311,35.9072 14.4654036,35.7815784 14.475212,35.6574703 L14.4623856,35.6567135 L14.054206,37.1679568 C13.842194,37.9549838 13.2491641,38.5815784 12.4773198,38.8381189 C11.6217269,39.1234162 10.5390323,39.5169297 9.98297246,39.8438486 C8.97723593,40.4363892 5.96983473,48.2166054 5.96983473,48.2166054 C5.96983473,48.2166054 5.16856527,55.8424432 5.64012216,56.4750919 C6.11243353,57.1084973 7.05705629,57.6639568 9.1054994,57.6669838 C11.154697,57.6707676 24.8570084,57.694227 24.8570084,57.694227 C24.8570084,57.694227 38.5600743,57.7176865 40.6100263,57.7214703 C42.659224,57.7244973 43.6046012,57.1728216 44.0784216,56.5409297 C44.5522419,55.9097946 43.7773796,48.280173 43.7773796,48.280173 Z" id="Stroke-5" stroke="#000000" stroke-linecap="round" stroke-linejoin="round"></path>
                <path d="M34.850921,21.4470919 C36.7892084,20.7084973 37.9858311,21.9299027 37.9858311,21.9299027 C37.1211844,28.9745514 32.0479868,30.3571459 32.0479868,30.3571459 L32.0449689,30.3639568 C31.190885,29.8228757 30.2175916,29.3786595 29.1552683,29.0540108 C27.874897,28.6620108 26.4662623,28.4440649 24.9882144,28.4410378 C22.1490647,28.4364973 19.5671964,29.2273081 17.6462623,30.5221189 L17.6447533,30.5228757 C17.5361066,30.4910919 12.5692922,29.0472 11.7370886,22.0744432 C11.7370886,22.0744432 12.9374838,20.8583351 14.8727533,21.6029838 C16.8080228,22.3461189 15.4061784,26.3940108 20.2967892,26.9297946 C20.2967892,26.9297946 26.739388,26.5854703 29.4095317,26.7557405 C33.5267892,27.0175784 32.913388,22.1849297 34.850921,21.4470919" id="Fill-7" fill="#009385"></path>
                <path d="M34.850921,21.4470919 C36.7892084,20.7084973 37.9858311,21.9299027 37.9858311,21.9299027 C37.1211844,28.9745514 32.0479868,30.3571459 32.0479868,30.3571459 L32.0449689,30.3639568 C31.190885,29.8228757 30.2175916,29.3786595 29.1552683,29.0540108 C27.874897,28.6620108 26.4662623,28.4440649 24.9882144,28.4410378 C22.1490647,28.4364973 19.5671964,29.2273081 17.6462623,30.5221189 L17.6447533,30.5228757 C17.5361066,30.4910919 12.5692922,29.0472 11.7370886,22.0744432 C11.7370886,22.0744432 12.9374838,20.8583351 14.8727533,21.6029838 C16.8080228,22.3461189 15.4061784,26.3940108 20.2967892,26.9297946 C20.2967892,26.9297946 26.739388,26.5854703 29.4095317,26.7557405 C33.5267892,27.0175784 32.913388,22.1849297 34.850921,21.4470919 Z" id="Stroke-9" stroke="#000000" stroke-linecap="round" stroke-linejoin="round"></path>
                <g id="Group-14" transform="translate(5.281437, 47.504800)">
                    <path d="M38.4841725,0.775372973 L0.676627545,0.775372973" id="Fill-11" fill="#FFFFFF"></path>
                    <path d="M38.4841725,0.775372973 L0.676627545,0.775372973" id="Stroke-13" stroke="#000000" stroke-linecap="round" stroke-linejoin="round"></path>
                </g>
                <path d="M32.0252766,35.3532541 C32.0252766,38.4120649 28.9401629,40.8912 25.1352647,40.8912 C21.3303665,40.8912 18.2452527,38.4120649 18.2452527,35.3532541 C18.2452527,32.2944432 21.3303665,29.8153081 25.1352647,29.8153081 C28.9401629,29.8153081 32.0252766,32.2944432 32.0252766,35.3532541" id="Fill-15" fill="#009385"></path>
                <path d="M32.0252766,35.3532541 C32.0252766,38.4120649 28.9401629,40.8912 25.1352647,40.8912 C21.3303665,40.8912 18.2452527,38.4120649 18.2452527,35.3532541 C18.2452527,32.2944432 21.3303665,29.8153081 25.1352647,29.8153081 C28.9401629,29.8153081 32.0252766,32.2944432 32.0252766,35.3532541 Z" id="Stroke-17" stroke="#000000" stroke-linecap="round" stroke-linejoin="round"></path>
                <g id="Group-22" transform="translate(12.071856, 33.883178)">
                    <path d="M20.2923377,7.70514595 C18.2770922,9.29357838 15.3753198,10.2872 12.1536431,10.2811459 C6.07621796,10.2713081 1.15391856,6.71228108 1.16146347,2.33217297 C1.16221796,1.70330811 1.26558323,1.08957838 1.45873293,0.501578378 C0.907954491,1.4112 0.57371497,2.40709189 0.501283832,3.45292973 C0.490720958,3.59444324 0.485439521,3.73747027 0.48468503,3.87974054 C0.476385629,8.54892973 5.68991856,12.3425514 12.1287449,12.3539027 C16.9597509,12.362227 21.1064335,10.2380108 22.8794874,7.20417297 C23.4076311,6.29984865 23.7245174,5.31530811 23.7863856,4.28384865 C23.7939305,4.16201081 23.797703,4.04168649 23.797703,3.91909189 C23.799212,2.78168649 23.4906251,1.6964973 22.9307928,0.705145946 C23.0899904,1.24168649 23.1722299,1.7979027 23.170721,2.37076757 C23.169212,3.49228108 22.8447808,4.55855135 22.2585413,5.52492973" id="Fill-19" fill="#009385"></path>
                    <path d="M20.2923377,7.70514595 C18.2770922,9.29357838 15.3753198,10.2872 12.1536431,10.2811459 C6.07621796,10.2713081 1.15391856,6.71228108 1.16146347,2.33217297 C1.16221796,1.70330811 1.26558323,1.08957838 1.45873293,0.501578378 C0.907954491,1.4112 0.57371497,2.40709189 0.501283832,3.45292973 C0.490720958,3.59444324 0.485439521,3.73747027 0.48468503,3.87974054 C0.476385629,8.54892973 5.68991856,12.3425514 12.1287449,12.3539027 C16.9597509,12.362227 21.1064335,10.2380108 22.8794874,7.20417297 C23.4076311,6.29984865 23.7245174,5.31530811 23.7863856,4.28384865 C23.7939305,4.16201081 23.797703,4.04168649 23.797703,3.91909189 C23.799212,2.78168649 23.4906251,1.6964973 22.9307928,0.705145946 C23.0899904,1.24168649 23.1722299,1.7979027 23.170721,2.37076757 C23.169212,3.49228108 22.8447808,4.55855135 22.2585413,5.52492973" id="Stroke-21" stroke="#000000" stroke-linecap="round" stroke-linejoin="round"></path>
                </g>
                <path d="M24.3212443,38.7852216 C21.8457593,38.7852216 19.8388132,37.2724649 19.8388132,35.4055459 C19.8388132,33.538627 21.8457593,32.0251135 24.3212443,32.0251135 C26.7967293,32.0251135 28.8044299,33.538627 28.8044299,35.4055459 C28.8044299,37.2724649 26.7967293,38.7852216 24.3212443,38.7852216 M24.2955916,28.3427351 C18.2491006,28.3427351 13.3471725,31.8851135 13.3471725,36.2538703 C13.3471725,40.622627 18.2491006,44.1642486 24.2955916,44.1642486 C30.3413281,44.1642486 35.2432563,40.622627 35.2432563,36.2538703 C35.2432563,31.8851135 30.3413281,28.3427351 24.2955916,28.3427351" id="Fill-23" fill="#FFFFFF"></path>
                <path d="M24.3212443,38.7852216 C21.8457593,38.7852216 19.8388132,37.2724649 19.8388132,35.4055459 C19.8388132,33.538627 21.8457593,32.0251135 24.3212443,32.0251135 C26.7967293,32.0251135 28.8044299,33.538627 28.8044299,35.4055459 C28.8044299,37.2724649 26.7967293,38.7852216 24.3212443,38.7852216 Z M24.2955916,28.3427351 C18.2491006,28.3427351 13.3471725,31.8851135 13.3471725,36.2538703 C13.3471725,40.622627 18.2491006,44.1642486 24.2955916,44.1642486 C30.3413281,44.1642486 35.2432563,40.622627 35.2432563,36.2538703 C35.2432563,31.8851135 30.3413281,28.3427351 24.2955916,28.3427351 Z" id="Stroke-25" stroke="#000000" stroke-linecap="round" stroke-linejoin="round"></path>
                <path d="M24.9976455,30.996 C24.7056575,30.996 24.4234778,30.8938378 24.2197653,30.7137297 C24.0100168,30.5290811 23.8938251,30.2808649 23.8938251,30.0228108 C23.8938251,29.96 23.8998611,29.8964324 23.9157054,29.8328649 C23.9330587,29.7692973 23.9496575,29.7117838 23.9768192,29.6535135 C24.0047353,29.5899459 24.0432144,29.5362162 24.0816934,29.4824865 C24.1209269,29.4295135 24.1646874,29.3803243 24.2197653,29.3364324 C24.4740287,29.1078919 24.8550467,29.0057297 25.2134299,29.0685405 C25.2851066,29.0783784 25.3567832,29.0980541 25.422424,29.1215135 C25.4888192,29.1472432 25.5491784,29.1812973 25.6102922,29.2145946 C25.671406,29.2486486 25.7264838,29.288 25.7755257,29.3364324 C25.8306036,29.3803243 25.8751186,29.4295135 25.9135976,29.4824865 C25.9573581,29.5362162 25.9913102,29.5899459 26.0192263,29.6535135 C26.046388,29.7117838 26.0682683,29.7692973 26.0795856,29.8328649 C26.0954299,29.8964324 26.1014659,29.96 26.1014659,30.0228108 C26.1014659,30.2808649 25.9860287,30.5290811 25.7755257,30.7137297 C25.7264838,30.7576216 25.671406,30.7962162 25.6102922,30.8355676 C25.5491784,30.8696216 25.4888192,30.8983784 25.422424,30.9225946 C25.3567832,30.9475676 25.2851066,30.9664865 25.2134299,30.9770811 C25.1409988,30.9914595 25.0693222,30.996 24.9976455,30.996" id="Fill-27" fill="#009385"></path>
                <path d="M19.9490443,30.9568 C19.7445772,30.4505297 20.0373198,29.8912865 20.6114874,29.7111784 C21.1849006,29.525773 21.8194275,29.7891243 22.0238946,30.2953946 C22.2328886,30.8009081 21.9356192,31.3563676 21.3614515,31.5410162 L21.3674874,31.5410162 C21.2407329,31.5796108 21.113224,31.6000432 20.9864695,31.6000432 C20.5337749,31.6000432 20.1150323,31.3510703 19.9490443,30.9568 M16.8148886,33.2490162 C16.3735114,32.8842595 16.3463497,32.2659892 16.7650922,31.8717189 C17.1793078,31.4827459 17.8802299,31.4585297 18.3268886,31.827827 C18.7682659,32.1933405 18.796182,32.8108541 18.376685,33.2005838 C18.1616551,33.4094486 17.8636311,33.5123676 17.5708886,33.5123676 C17.3007808,33.5123676 17.0306731,33.4245838 16.8148886,33.2490162 M14.9497868,35.803827 C14.939224,35.2635027 15.4251162,34.8208 16.0317269,34.8117189 C16.6443737,34.8018811 17.1461102,35.2294486 17.1574275,35.7652324 C17.1679904,36.3055568 16.6828527,36.7482595 16.0754874,36.7580973 L16.0536072,36.7580973 C15.4522778,36.7580973 14.9618587,36.3343135 14.9497868,35.803827 M16.9031641,39.6685838 L16.9092,39.6685838 C16.4783856,39.2841514 16.4836671,38.6704216 16.9197629,38.2905297 C17.3558587,37.9159351 18.0507449,37.9204757 18.4815593,38.3056649 C18.9063377,38.6900973 18.9003018,39.3030703 18.4649605,39.6776649 C18.2499305,39.8676108 17.9737868,39.9599351 17.6931162,39.9599351 C17.4056551,39.9599351 17.1242299,39.8630703 16.9031641,39.6685838 M20.7933198,41.7610162 C20.2191521,41.5854486 19.9105653,41.0315027 20.1097509,40.5252324 C20.308182,40.0144216 20.9374275,39.745773 21.5108407,39.9213405 C22.0902898,40.0908541 22.3935952,40.6470703 22.1951641,41.1571243 C22.0404934,41.5612324 21.609679,41.8147459 21.1524575,41.8147459 C21.0355114,41.8147459 20.9147928,41.7943135 20.7933198,41.7610162 M24.0655473,41.4008 C24.0602659,40.865773 24.5461581,40.4230703 25.1572958,40.417773 C25.7646611,40.4079351 26.2671521,40.8362595 26.2724335,41.3765838 C26.2837509,41.9116108 25.7978587,42.3550703 25.185212,42.3588541 C25.1799305,42.3641514 25.1746491,42.3641514 25.1693677,42.3641514 C24.5672838,42.3641514 24.0768647,41.935827 24.0655473,41.4008" id="Fill-29" fill="#009385"></path>
                <path d="M29.1797138,41.7073622 C28.8816898,41.7073622 28.6063006,41.6052 28.3965521,41.4197946 C28.3467557,41.3766595 28.3029952,41.3274703 28.2584802,41.2744973 C28.2200012,41.2200108 28.1875581,41.1617405 28.1588874,41.1034703 C28.1317257,41.0452 28.1098455,40.9876865 28.0985281,40.9233622 C28.0819293,40.8605514 28.0766479,40.7969838 28.0766479,40.734173 C28.0766479,40.6706054 28.0819293,40.6024973 28.0985281,40.5396865 C28.1098455,40.4814162 28.1317257,40.4178486 28.1588874,40.3595784 C28.1875581,40.3013081 28.2200012,40.2422811 28.2584802,40.1938486 C28.3029952,40.1408757 28.3467557,40.0863892 28.3965521,40.0432541 C28.445594,39.9993622 28.5067078,39.9600108 28.5678216,39.9214162 C28.6289353,39.8873622 28.6892946,39.8586054 28.7556898,39.8336324 C28.8213305,39.8094162 28.8930072,39.7904973 28.9654383,39.7753622 C29.3230671,39.7117946 29.704085,39.8192541 29.9583485,40.0432541 C30.0081449,40.0863892 30.0571868,40.1408757 30.0964204,40.1938486 C30.1348994,40.2422811 30.168097,40.3013081 30.1952587,40.3595784 C30.2231749,40.4178486 30.2450551,40.4814162 30.2616539,40.5396865 C30.2729713,40.6024973 30.2835341,40.6706054 30.2835341,40.734173 C30.2835341,40.7969838 30.2729713,40.8605514 30.2616539,40.9233622 C30.2450551,40.9876865 30.2292108,41.0452 30.2012946,41.1034703 C30.172624,41.1617405 30.1348994,41.2200108 30.0964204,41.2744973 C30.0571868,41.3274703 30.0081449,41.3766595 29.9583485,41.4197946 C29.7486,41.6052 29.4732108,41.7073622 29.1797138,41.7073622" id="Fill-31" fill="#009385"></path>
                <path d="M34.6785198,38.7571459 C31.6243401,38.6050378 30.8781485,36.4452541 30.8781485,36.4452541 C28.9700407,38.9122811 32.7968192,41.2377946 32.7968192,41.2377946 C32.7968192,41.2377946 34.0372024,40.0042811 34.6785198,38.7571459" id="Fill-33" fill="#009385"></path>
                <path d="M34.6785198,38.7571459 C31.6243401,38.6050378 30.8781485,36.4452541 30.8781485,36.4452541 C28.9700407,38.9122811 32.7968192,41.2377946 32.7968192,41.2377946 C32.7968192,41.2377946 34.0372024,40.0042811 34.6785198,38.7571459 Z" id="Stroke-35" stroke="#000000" stroke-linecap="round" stroke-linejoin="round"></path>
                <path d="M25.8832671,35.252 C25.8832671,35.9111351 25.1514108,36.4454054 24.249794,36.4454054 C23.3481772,36.4454054 22.6170754,35.9111351 22.6170754,35.252 C22.6170754,34.5928649 23.3481772,34.0585946 24.249794,34.0585946 C25.1514108,34.0585946 25.8832671,34.5928649 25.8832671,35.252" id="Fill-37" fill="#FFFFFF"></path>
                <path d="M25.8832671,35.252 C25.8832671,35.9111351 25.1514108,36.4454054 24.249794,36.4454054 C23.3481772,36.4454054 22.6170754,35.9111351 22.6170754,35.252 C22.6170754,34.5928649 23.3481772,34.0585946 24.249794,34.0585946 C25.1514108,34.0585946 25.8832671,34.5928649 25.8832671,35.252 Z" id="Stroke-39" stroke="#000000" stroke-linecap="round" stroke-linejoin="round"></path>
                <path d="M50.7556671,26.1856757 C51.2294874,26.3748649 51.2189246,25.5167027 51.2189246,25.5167027 L49.6880623,24.2945405 C49.5107569,24.5745405 49.3364695,24.934 49.1780263,25.3138919 C49.1780263,25.3138919 50.2810922,25.9964865 50.7556671,26.1856757" id="Fill-41" fill="#009385"></path>
                <path d="M50.7556671,26.1856757 C51.2294874,26.3748649 51.2189246,25.5167027 51.2189246,25.5167027 L49.6880623,24.2945405 C49.5107569,24.5745405 49.3364695,24.934 49.1780263,25.3138919 C49.1780263,25.3138919 50.2810922,25.9964865 50.7556671,26.1856757 Z" id="Stroke-43" stroke="#000000" stroke-linecap="round" stroke-linejoin="round"></path>
                <path d="M49.5362587,22.1639676 C49.5362587,22.1639676 46.9287377,14.0696973 37.5692766,7.66299459 C28.2083066,1.25629189 20.0786659,3.5136973 18.6330611,3.4576973 C17.1867018,3.40245405 15.2763305,6.38634595 15.2763305,6.38634595 C14.9760431,6.4991027 14.902103,6.90245405 14.9141749,7.09845405 C14.9164383,7.12721081 14.9073844,7.16050811 14.8907856,7.19683243 C14.7957198,7.40115676 14.4531808,7.67812973 14.4531808,7.67812973 C13.8405341,8.64072432 14.2072168,9.95975135 14.2072168,9.95975135 C18.3478635,11.9560757 22.250091,12.3473189 23.2015042,12.3760757 C24.1514084,12.4048324 24.6184383,10.4978054 24.6184383,10.4978054 L24.3747377,9.70245405 C24.6456,9.39218378 24.5475162,8.88515676 24.5475162,8.88515676 C27.0878874,5.50094054 39.1318275,15.467427 41.1893246,17.1481838 C41.190079,17.1496973 41.1923425,17.1519676 41.194606,17.1534811 C43.2385222,18.8251568 42.1460192,20.2440757 42.1460192,20.2440757 C41.8344144,20.1298054 41.3877557,20.8313189 41.3877557,20.8313189 L40.7630371,20.7791027 C40.7630371,20.7791027 40.7494563,20.787427 40.7238036,20.8033189 C40.5012287,20.9501297 39.4124982,21.7000757 39.4849293,22.3985622 C39.5649054,23.1749946 43.123085,27.9244 44.7965461,29.3448324 C46.4700072,30.7660216 47.2531689,29.2358595 47.2531689,29.2358595 C47.7277437,29.3955351 47.8446898,28.2210486 47.8446898,28.2210486 C48.3652886,28.1786703 48.3743425,27.6913189 48.3743425,27.6913189 C48.3743425,27.6913189 48.3924503,27.6201838 48.4279114,27.4983459 C48.542594,27.1010486 48.8255281,26.1558595 49.1778754,25.3128324 C49.3363186,24.9336973 49.510606,24.5749946 49.6879114,24.2942378 C50.3843066,23.2022378 49.5362587,22.1639676 49.5362587,22.1639676" id="Fill-45" fill="#009385"></path>
                <path d="M49.5362587,22.1639676 C49.5362587,22.1639676 46.9287377,14.0696973 37.5692766,7.66299459 C28.2083066,1.25629189 20.0786659,3.5136973 18.6330611,3.4576973 C17.1867018,3.40245405 15.2763305,6.38634595 15.2763305,6.38634595 C14.9760431,6.4991027 14.902103,6.90245405 14.9141749,7.09845405 C14.9164383,7.12721081 14.9073844,7.16050811 14.8907856,7.19683243 C14.7957198,7.40115676 14.4531808,7.67812973 14.4531808,7.67812973 C13.8405341,8.64072432 14.2072168,9.95975135 14.2072168,9.95975135 C18.3478635,11.9560757 22.250091,12.3473189 23.2015042,12.3760757 C24.1514084,12.4048324 24.6184383,10.4978054 24.6184383,10.4978054 L24.3747377,9.70245405 C24.6456,9.39218378 24.5475162,8.88515676 24.5475162,8.88515676 C27.0878874,5.50094054 39.1318275,15.467427 41.1893246,17.1481838 C41.190079,17.1496973 41.1923425,17.1519676 41.194606,17.1534811 C43.2385222,18.8251568 42.1460192,20.2440757 42.1460192,20.2440757 C41.8344144,20.1298054 41.3877557,20.8313189 41.3877557,20.8313189 L40.7630371,20.7791027 C40.7630371,20.7791027 40.7494563,20.787427 40.7238036,20.8033189 C40.5012287,20.9501297 39.4124982,21.7000757 39.4849293,22.3985622 C39.5649054,23.1749946 43.123085,27.9244 44.7965461,29.3448324 C46.4700072,30.7660216 47.2531689,29.2358595 47.2531689,29.2358595 C47.7277437,29.3955351 47.8446898,28.2210486 47.8446898,28.2210486 C48.3652886,28.1786703 48.3743425,27.6913189 48.3743425,27.6913189 C48.3743425,27.6913189 48.3924503,27.6201838 48.4279114,27.4983459 C48.542594,27.1010486 48.8255281,26.1558595 49.1778754,25.3128324 C49.3363186,24.9336973 49.510606,24.5749946 49.6879114,24.2942378 C50.3843066,23.2022378 49.5362587,22.1639676 49.5362587,22.1639676 Z" id="Stroke-47" stroke="#000000" stroke-linecap="round" stroke-linejoin="round"></path>
                <path d="M41.3879066,20.8314703 C41.3879066,20.8314703 42.5437868,23.8532 47.6003856,29.0717946" id="Stroke-49" stroke="#000000" stroke-linecap="round" stroke-linejoin="round"></path>
                <path d="M24.3750395,9.70260541 C24.3750395,9.70260541 19.1268,9.91903784 14.8910874,7.19622703" id="Stroke-51" stroke="#000000" stroke-linecap="round" stroke-linejoin="round"></path>
                <path d="M15.0957054,7.64142703 C15.0957054,7.64142703 14.2687832,7.85407568 14.5200287,9.66802162 C14.5200287,9.66802162 18.7949749,11.8580757 23.2064838,12.0124541 C23.2064838,12.0124541 23.5912743,12.0412108 23.9851186,11.1512649 C23.9851186,11.1512649 24.3676455,10.5541838 24.1850587,10.0577514 C24.1850587,10.0577514 18.3807593,9.96467027 15.0957054,7.64142703" id="Fill-53" fill="#FFFFFF"></path>
                <path d="M41.1705377,21.1913838 C41.1705377,21.1913838 40.9268371,20.9514919 40.387376,21.5281405 C40.387376,21.5281405 39.8645138,21.9504108 39.8403701,22.3522486 C39.8403701,22.3522486 42.4818431,26.8753838 45.1474599,29.0972216 C45.1474599,29.0972216 46.1562144,30.2452216 47.0125617,28.9897622 C47.0125617,28.9897622 42.870406,24.5483568 41.1705377,21.1913838" id="Fill-55" fill="#FFFFFF"></path>
                <g id="Group-60" transform="translate(0.000000, 57.342638)">
                    <mask id="mask-2" fill="white">
                        <use xlink:href="#path-1"></use>
                    </mask>
                    <g id="Clip-58"></g>
                    <path d="M49.9621689,0.37852973 L0.377019162,0.37852973" id="Fill-57" fill="#009385" mask="url(#mask-2)"></path>
                    <path d="M49.9621689,0.37852973 L0.377019162,0.37852973" id="Stroke-59" stroke="#000000" stroke-linecap="round" stroke-linejoin="round" mask="url(#mask-2)"></path>
                </g>
                <path d="M62.1172455,14.1566486 C64.0653413,19.0339459 61.7037844,24.5726486 56.8410898,26.5265946 C51.9783952,28.4812973 46.4570299,26.1118919 44.5081796,21.2353514 C42.5600838,16.3572973 44.9223952,10.8201081 49.7843353,8.86540541 C54.6470299,6.9107027 60.1683952,9.28010811 62.1172455,14.1566486" id="Fill-61" fill="#009385"></path>
                <path d="M62.1172455,14.1566486 C64.0653413,19.0339459 61.7037844,24.5726486 56.8410898,26.5265946 C51.9783952,28.4812973 46.4570299,26.1118919 44.5081796,21.2353514 C42.5600838,16.3572973 44.9223952,10.8201081 49.7843353,8.86540541 C54.6470299,6.9107027 60.1683952,9.28010811 62.1172455,14.1566486 Z" id="Stroke-63" stroke="#000000" stroke-linecap="round" stroke-linejoin="round"></path>
                <path d="M70.5588683,10.2243135 L65.5777186,12.2266919" id="Stroke-65" stroke="#000000" stroke-linecap="round" stroke-linejoin="round"></path>
                <path d="M58.5887174,5.32612973 L60.6990287,0.378454054" id="Stroke-67" stroke="#000000" stroke-linecap="round" stroke-linejoin="round"></path>
                <path d="M65.6450946,22.9879243 L70.5787114,25.104573" id="Stroke-69" stroke="#000000" stroke-linecap="round" stroke-linejoin="round"></path>
                <polygon id="Fill-71" fill="#FFFFFF" points="49.2091114 15.5718595 51.8822731 18.6783459 57.810309 13.3644 59.6391952 15.383427 51.5125725 22.2101297 47.2255545 17.2980216"></polygon>
                <polygon id="Stroke-73" stroke="#000000" stroke-linecap="round" stroke-linejoin="round" points="49.2091114 15.5718595 51.8822731 18.6783459 57.810309 13.3644 59.6391952 15.383427 51.5125725 22.2101297 47.2255545 17.2980216"></polygon>
            </g>
        </g>
    </g>
</svg>