<?xml version="1.0" encoding="UTF-8"?>
<svg width="24px" height="24px" viewBox="0 0 24 24" version="1.1" xmlns="http://www.w3.org/2000/svg" xmlns:xlink="http://www.w3.org/1999/xlink">
    <!-- Generator: Sketch 52.2 (67145) - http://www.bohemiancoding.com/sketch -->
    <title>Icon/Laundry/2</title>
    <desc>Created with Sketch.</desc>
    <defs>
        <polygon id="path-1" points="0.3599 0.468 3.3159 0.468 3.3159 4.4229 0.3599 4.4229"></polygon>
    </defs>
    <g id="Icon/Laundry/2" stroke="none" stroke-width="1" fill="none" fill-rule="evenodd">
        <g id="Group-24" transform="translate(2.000000, 2.000000)">
            <path d="M13.1299,19.5801 L16.5109,19.5801 L16.5109,10.3041 C16.5109,10.0401 16.7239,9.8271 16.9859,9.8271 L19.0479,9.8271 L19.0479,5.9371 L14.1299,5.9371 C13.9009,7.5891 12.5079,8.8391 10.8259,8.8391 C9.1329,8.8391 7.7319,7.5731 7.5179,5.9371 L2.6079,5.9371 L2.6079,9.8271 L4.6649,9.8271 C4.9289,9.8271 5.1419,10.0401 5.1419,10.3041 L5.1419,12.2581 L11.6019,12.2581 C12.0559,12.2581 12.4819,12.4341 12.8029,12.7561 C13.1249,13.0781 13.3019,13.5031 13.3019,13.9541 C13.3019,14.4321 13.1019,14.8651 12.7809,15.1741 L12.8039,15.1961 C13.1249,15.5181 13.3019,15.9421 13.3019,16.3921 C13.3019,16.8711 13.1029,17.3051 12.7829,17.6131 C12.7899,17.6211 12.7969,17.6281 12.8029,17.6341 C13.1249,17.9561 13.3019,18.3831 13.3019,18.8371 C13.3019,19.1021 13.2389,19.3551 13.1299,19.5801 M16.9859,20.5321 L11.6019,20.5321 C11.3379,20.5321 11.1249,20.3191 11.1249,20.0561 C11.1249,19.7931 11.3379,19.5801 11.6019,19.5801 C12.0139,19.5801 12.3499,19.2471 12.3499,18.8371 C12.3499,18.6371 12.2719,18.4491 12.1299,18.3081 C11.9909,18.1691 11.8039,18.0931 11.6019,18.0931 C11.3379,18.0931 11.1249,17.8801 11.1249,17.6161 C11.1249,17.3531 11.3379,17.1411 11.6019,17.1411 C12.0139,17.1411 12.3499,16.8051 12.3499,16.3921 C12.3499,16.1961 12.2719,16.0111 12.1299,15.8691 C11.9879,15.7271 11.8019,15.6491 11.6019,15.6491 C11.3379,15.6491 11.1249,15.4361 11.1249,15.1731 C11.1249,14.9101 11.3379,14.6971 11.6019,14.6971 C12.0139,14.6971 12.3499,14.3641 12.3499,13.9541 C12.3499,13.7581 12.2719,13.5701 12.1299,13.4301 C11.9879,13.2881 11.8009,13.2101 11.6019,13.2101 L4.6649,13.2101 C4.4019,13.2101 4.1899,12.9971 4.1899,12.7331 L4.1899,10.7791 L2.1319,10.7791 C1.8679,10.7791 1.6549,10.5661 1.6549,10.3041 L1.6549,5.4621 C1.6549,5.1981 1.8679,4.9851 2.1319,4.9851 L7.9649,4.9851 C8.2289,4.9851 8.4419,5.1981 8.4419,5.4621 C8.4419,6.8161 9.5109,7.8861 10.8259,7.8861 C12.1399,7.8861 13.2099,6.8161 13.2099,5.5021 C13.2099,5.2381 13.4229,4.9851 13.6859,4.9851 L19.5239,4.9851 C19.7869,4.9851 19.9999,5.1981 19.9999,5.4621 L19.9999,10.3041 C19.9999,10.5661 19.7869,10.7791 19.5239,10.7791 L17.4629,10.7791 L17.4629,20.0561 C17.4629,20.3191 17.2499,20.5321 16.9859,20.5321" id="Fill-1" fill="#000000"></path>
            <path d="M4.665,13.21 C4.402,13.21 4.189,12.997 4.189,12.733 L4.189,8.909 C4.189,8.647 4.402,8.433 4.665,8.433 C4.929,8.433 5.142,8.647 5.142,8.909 L5.142,12.733 C5.142,12.997 4.929,13.21 4.665,13.21" id="Fill-3" fill="#000000"></path>
            <path d="M16.9863,20.5322 L11.6013,20.5322 C11.3383,20.5322 11.1253,20.3192 11.1253,20.0552 C11.1253,19.7932 11.3383,19.5802 11.6013,19.5802 L16.5103,19.5802 L16.5103,8.9092 C16.5103,8.6462 16.7233,8.4322 16.9863,8.4322 C17.2503,8.4322 17.4633,8.6462 17.4633,8.9092 L17.4633,20.0552 C17.4633,20.3192 17.2503,20.5322 16.9863,20.5322" id="Fill-5" fill="#000000"></path>
            <path d="M8.0391,6.5156 C7.8721,6.5156 7.7101,6.4266 7.6231,6.2706 C7.4951,6.0396 7.5781,5.7506 7.8081,5.6216 C9.1311,4.8886 10.5951,4.0636 10.5951,4.0636 L10.8261,3.9326 L13.8671,5.6226 C14.0971,5.7506 14.1801,6.0406 14.0521,6.2706 C13.9241,6.4996 13.6311,6.5806 13.4041,6.4546 L10.8301,5.0246 C10.3631,5.2866 9.2761,5.8966 8.2711,6.4556 C8.1971,6.4956 8.1181,6.5156 8.0391,6.5156" id="Fill-7" fill="#000000"></path>
            <g id="Group-11" transform="translate(9.000000, 0.532200)">
                <mask id="mask-2" fill="white">
                    <use xlink:href="#path-1"></use>
                </mask>
                <g id="Clip-10"></g>
                <path d="M1.8379,4.4229 C1.5749,4.4229 1.3609,4.2089 1.3609,3.9459 L1.3609,2.9469 C1.3609,2.6849 1.5749,2.4709 1.8379,2.4709 C2.1279,2.4709 2.3629,2.2359 2.3629,1.9449 C2.3629,1.6549 2.1279,1.4199 1.8379,1.4199 C1.5479,1.4199 1.3129,1.6549 1.3129,1.9449 C1.3129,2.2089 1.0999,2.4219 0.8359,2.4219 C0.5729,2.4219 0.3599,2.2089 0.3599,1.9449 C0.3599,1.1309 1.0239,0.4679 1.8379,0.4679 C2.6519,0.4679 3.3159,1.1309 3.3159,1.9449 C3.3159,2.5939 2.8969,3.1469 2.3149,3.3449 L2.3149,3.9459 C2.3149,4.2089 2.1019,4.4229 1.8379,4.4229" id="Fill-9" fill="#000000" mask="url(#mask-2)"></path>
            </g>
            <path d="M14.0937,18.8359 C14.0937,19.5089 13.5457,20.0559 12.8687,20.0559 L1.6967,20.0559 C1.3557,20.0559 1.0497,19.9209 0.8297,19.6969 C0.6107,19.4779 0.4767,19.1729 0.4767,18.8359 C0.4767,18.1589 1.0187,17.6169 1.6967,17.6169 L12.8687,17.6169 C13.2097,17.6169 13.5147,17.7509 13.7347,17.9709 C13.9537,18.1899 14.0937,18.4949 14.0937,18.8359" id="Fill-12" fill="#009587"></path>
            <path d="M1.6953,18.0928 C1.2793,18.0928 0.9523,18.4188 0.9523,18.8368 C0.9523,19.0358 1.0283,19.2218 1.1673,19.3608 C1.3063,19.5038 1.4943,19.5798 1.6953,19.5798 L12.8693,19.5798 C13.2813,19.5798 13.6173,19.2468 13.6173,18.8368 C13.6173,18.6368 13.5393,18.4488 13.3983,18.3088 C13.2583,18.1688 13.0713,18.0928 12.8693,18.0928 L1.6953,18.0928 Z M12.8693,20.5318 L1.6953,20.5318 C1.2353,20.5318 0.8073,20.3538 0.4903,20.0298 C0.1753,19.7158 0.0003,19.2908 0.0003,18.8368 C0.0003,17.9018 0.7603,17.1408 1.6953,17.1408 L12.8693,17.1408 C13.3263,17.1408 13.7533,17.3168 14.0713,17.6338 C14.3913,17.9538 14.5693,18.3808 14.5693,18.8368 C14.5693,19.7718 13.8063,20.5318 12.8693,20.5318 Z" id="Fill-14" fill="#000000"></path>
            <path d="M14.0937,16.3926 C14.0937,17.0696 13.5457,17.6176 12.8687,17.6176 L1.6967,17.6176 C1.3557,17.6176 1.0497,17.4826 0.8297,17.2576 C0.6107,17.0386 0.4767,16.7286 0.4767,16.3926 C0.4767,15.7196 1.0187,15.1726 1.6967,15.1726 L12.8687,15.1726 C13.2097,15.1726 13.5147,15.3126 13.7347,15.5326 C13.9537,15.7516 14.0937,16.0566 14.0937,16.3926" id="Fill-16" fill="#009587"></path>
            <path d="M1.6953,15.6494 C1.2853,15.6494 0.9523,15.9824 0.9523,16.3924 C0.9523,16.5914 1.0303,16.7854 1.1683,16.9224 C1.3063,17.0644 1.4933,17.1404 1.6953,17.1404 L12.8693,17.1404 C13.2813,17.1404 13.6173,16.8044 13.6173,16.3924 C13.6173,16.1964 13.5393,16.0104 13.3983,15.8704 C13.2563,15.7274 13.0693,15.6494 12.8693,15.6494 L1.6953,15.6494 Z M12.8693,18.0924 L1.6953,18.0924 C1.2353,18.0924 0.8063,17.9154 0.4903,17.5914 C0.1793,17.2804 0.0003,16.8414 0.0003,16.3924 C0.0003,15.4584 0.7603,14.6974 1.6953,14.6974 L12.8693,14.6974 C13.3243,14.6974 13.7513,14.8754 14.0723,15.1964 C14.3913,15.5154 14.5693,15.9404 14.5693,16.3924 C14.5693,17.3304 13.8063,18.0924 12.8693,18.0924 Z" id="Fill-18" fill="#000000"></path>
            <path d="M14.0937,13.9531 C14.0937,14.6261 13.5457,15.1731 12.8687,15.1731 L1.6967,15.1731 C1.3557,15.1731 1.0497,15.0341 0.8297,14.8141 C0.6107,14.5951 0.4767,14.2901 0.4767,13.9531 C0.4767,13.2811 1.0187,12.7341 1.6967,12.7341 L12.8687,12.7341 C13.2097,12.7341 13.5147,12.8731 13.7347,13.0931 C13.9537,13.3121 14.0937,13.6171 14.0937,13.9531" id="Fill-20" fill="#009587"></path>
            <path d="M1.6953,13.21 C1.2853,13.21 0.9523,13.544 0.9523,13.954 C0.9523,14.153 1.0283,14.339 1.1673,14.478 C1.3083,14.619 1.4963,14.697 1.6953,14.697 L12.8693,14.697 C13.2813,14.697 13.6173,14.364 13.6173,13.954 C13.6173,13.757 13.5393,13.57 13.3983,13.431 C13.2563,13.288 13.0683,13.21 12.8693,13.21 L1.6953,13.21 Z M12.8693,15.649 L1.6953,15.649 C1.2413,15.649 0.8153,15.473 0.4943,15.151 C0.1753,14.833 0.0003,14.408 0.0003,13.954 C0.0003,13.019 0.7603,12.258 1.6953,12.258 L12.8693,12.258 C13.3233,12.258 13.7493,12.435 14.0713,12.756 C14.3913,13.076 14.5693,13.502 14.5693,13.954 C14.5693,14.889 13.8063,15.649 12.8693,15.649 Z" id="Fill-22" fill="#000000"></path>
        </g>
    </g>
</svg>