<?xml version="1.0" encoding="UTF-8"?>
<svg width="18px" height="18px" viewBox="0 0 18 18" version="1.1" xmlns="http://www.w3.org/2000/svg" xmlns:xlink="http://www.w3.org/1999/xlink">
    <!-- Generator: Sketch 45.2 (43514) - http://www.bohemiancoding.com/sketch -->
    <title>in@1x</title>
    <desc>Created with Sketch.</desc>
    <defs/>
    <g id="Page-1" stroke="none" stroke-width="1" fill="none" fill-rule="evenodd">
        <g id="HomePage" transform="translate(-479.000000, -7808.000000)" fill="#FFFFFF">
            <g id="Footer" transform="translate(0.000000, 7636.000000)">
                <g id="Group-22-Copy" transform="translate(402.000000, 137.000000)">
                    <g id="Social" transform="translate(0.000000, 34.000000)">
                        <path d="M77.5,10.3749793 L77.5,7.5 L81.6666667,7.5 L81.6666667,9.73508823 L81.6666667,18.3333333 L77.5,18.3333333 L77.5,10.3749793 Z M79.5836024,1.66666667 C80.7341039,1.66666667 81.6666667,2.59941011 81.6666667,3.75013456 C81.6666667,4.90085901 80.7341039,5.83333333 79.5836024,5.83333333 C78.4331009,5.83333333 77.5,4.90085901 77.5,3.75013456 C77.5,2.59941011 78.4331009,1.66666667 79.5836024,1.66666667 Z M94.0792782,10.8263069 C94.1424351,11.3048171 94.1666667,11.8249582 94.1666667,12.3801181 L94.1661511,12.3801181 L94.1661511,18.3333333 L90.7443387,18.3333333 L90.7443387,13.055273 C90.7443387,11.7958166 90.5984335,10.1771102 88.7815784,10.1771102 C86.9379139,10.1771102 86.6564148,11.5477455 86.6564148,12.96393 L86.6564148,18.3333333 L83.3333333,18.3333333 L83.3333333,9.57860512 L83.3333333,7.5 L86.5123141,7.5 L86.5123141,8.96197839 L86.5615507,8.96197839 C87.0348404,8.10830056 88.1922863,7.5 89.9158239,7.5 C92.8218124,7.5 93.8091216,8.78443495 94.0792782,10.8263069 Z" id="in"/>
                    </g>
                </g>
            </g>
        </g>
    </g>
</svg>
