<svg xmlns="http://www.w3.org/2000/svg" viewBox="0 0 63.01 65.58"><defs/><title>Looking</title><g id="Layer_2"><g id="Layer_1-2"><rect class="cls-nopackage1" x="6.09" y="24.79" width="50.84" height="14.06" rx="5" ry="5" style="fill: #009688; stroke: #000; stroke-linecap: round; stroke-linejoin: round;"/><path class="cls-nopackage2" d="M30.34,46H19.69a1.37,1.37,0,0,1-1.37-1.37V33.06a2.74,2.74,0,0,1,2.74-2.74H43a2.74,2.74,0,0,1,2.74,2.74V44.6A1.37,1.37,0,0,1,44.33,46H33.68" style="stroke: #000; stroke-linecap: round; stroke-linejoin: round; fill: #fff;"/><path class="cls-nopackage3" d="M43,51.75h3.24a2,2,0,0,1,2,2V62.2a1,1,0,0,1-1,1H43a0,0,0,0,1,0,0V51.75A0,0,0,0,1,43,51.75Z" style="stroke: #000; stroke-linecap: round; stroke-linejoin: round; fill: none;"/><path class="cls-nopackage3" d="M15.36,51.75h4.71a1,1,0,0,1,1,1V61.2a2,2,0,0,1-2,2H15.36a0,0,0,0,1,0,0V51.75a0,0,0,0,1,0,0Z" transform="translate(36.42 114.96) rotate(-180)" style="stroke: #000; stroke-linecap: round; stroke-linejoin: round; fill: none;"/><line class="cls-nopackage3" x1="48.19" y1="56.01" x2="42.96" y2="56.01" style="stroke: #000; stroke-linecap: round; stroke-linejoin: round; fill: none;"/><line class="cls-nopackage3" x1="20.59" y1="56.01" x2="15.36" y2="56.01" style="stroke: #000; stroke-linecap: round; stroke-linejoin: round; fill: none;"/><path class="cls-nopackage2" d="M22.75,27.36h1a1,1,0,0,1,1,1v2a0,0,0,0,1,0,0h-3a0,0,0,0,1,0,0v-2A1,1,0,0,1,22.75,27.36Z" style="stroke: #000; stroke-linecap: round; stroke-linejoin: round; fill: #fff;"/><path class="cls-nopackage2" d="M40.43,27.36h1a1,1,0,0,1,1,1v2a0,0,0,0,1,0,0h-3a0,0,0,0,1,0,0v-2a1,1,0,0,1,1-1Z" style="stroke: #000; stroke-linecap: round; stroke-linejoin: round; fill: #fff;"/><polyline class="cls-nopackage3" points="42.96 30.91 42.96 63.2 21.07 63.2 21.07 30.91" style="stroke: #000; stroke-linecap: round; stroke-linejoin: round; fill: none;"/><rect class="cls-nopackage3" x="30.34" y="43.31" width="3.34" height="5.56" rx="1.22" ry="1.22" style="stroke: #000; stroke-linecap: round; stroke-linejoin: round; fill: none;"/><rect class="cls-nopackage1" x="26.54" y="52.26" width="10.95" height="10.95" style="fill: #009688; stroke: #000; stroke-linecap: round; stroke-linejoin: round;"/><path class="cls-nopackage2" d="M.9,55.27l2.45-6.53a9.36,9.36,0,0,1,1.57-3.19C8.36,41.16,12.5,40,16,39.06l9.26-2.54,2.6-.71,2.07-.57a8.93,8.93,0,0,1,4.82,0l1.87.54,1.55.45L47.74,39c2.89.83,5.84,1,8.69,3.38a10.62,10.62,0,0,1,3.35,5.47l2.73,8.48" style="stroke: #000; stroke-linecap: round; stroke-linejoin: round; fill: #fff;"/><path class="cls-nopackage4" d="M32.08,43.42C26,43.42,26,37.22,26,37.16V24.61a.5.5,0,0,1,.5-.5H37.21a.5.5,0,0,1,.5.5V37.16C37.71,39.32,36.53,43.42,32.08,43.42Z" style="fill: #fff;"/><path d="M37.21,24.61V37.16s0,5.76-5.12,5.76c-5.63,0-5.63-5.76-5.63-5.76V24.61H37.21m0-1H26.45a1,1,0,0,0-1,1V37.16c0,2.34,1.39,6.76,6.63,6.76,4.84,0,6.12-4.42,6.12-6.76V24.61a1,1,0,0,0-1-1Z"/><path class="cls-nopackage5" d="M37.24,32.07l0,2.86s-6.09,3.24-10.76,0l0-3.16Z" style="fill: #efefef;"/><path class="cls-nopackage2" d="M43.38,19.73c0,8.93-5.22,15.26-11.6,15.25S20.24,28.6,20.27,19.66,25.49,3.5,31.87,3.52,43.41,10.8,43.38,19.73Z" style="stroke: #000; stroke-linecap: round; stroke-linejoin: round; fill: #fff;"/><path class="cls-nopackage2" d="M42.82,17.74a2.51,2.51,0,0,1,2.58,2.67,3.28,3.28,0,0,1-3,3" style="stroke: #000; stroke-linecap: round; stroke-linejoin: round; fill: #fff;"/><path class="cls-nopackage2" d="M20.88,17.68a2.54,2.54,0,0,0-2.64,2.66,3.33,3.33,0,0,0,2.86,2.84" style="stroke: #000; stroke-linecap: round; stroke-linejoin: round; fill: #fff;"/><path class="cls-nopackage6" d="M21.25.77S6,14.58,20.57,17.68c0,0,.57-6.18,5.16-5,18.13-2.75,17.36,5.07,17.36,5.07C46.29-1.5,34.7,1,29.71,2.2,25.16,3.27,28.23,1,28.23,1S24.5-1.1,21.25.77Z" style="fill: #009688;"/><path class="cls-nopackage3" d="M19.23,6.05a5.3,5.3,0,0,0-2.52,4.39" style="stroke: #000; stroke-linecap: round; stroke-linejoin: round; fill: none;"/><rect class="cls-nopackage4" x="11.97" y="47.14" width="38.42" height="17.4" style="fill: #fff;"/><path class="cls-nopackage5" d="M33.75,31.39a3.54,3.54,0,0,1-1.66.21,3.54,3.54,0,0,1-1.66-.21A2.75,2.75,0,0,1,32.08,31,2.75,2.75,0,0,1,33.75,31.39Z" style="fill: #efefef;"/><path class="cls-nopackage1" d="M24.31,3.52s-2.78,1.82-3.17,4" style="fill: #009688; stroke: #000; stroke-linecap: round; stroke-linejoin: round;"/><path class="cls-nopackage3" d="M28.23,1S25.16,3.27,29.71,2.2c5-1.18,16.7-3.75,13.38,15.55,0,0,.63-7.87-17.36-5.07-4.53-1.15-5.16,5-5.16,5C6,14.58,21.25.77,21.25.77" style="stroke: #000; stroke-linecap: round; stroke-linejoin: round; fill: none;"/><path class="cls-nopackage3" d="M19.52,38.09S19,51.17,12,55.84" style="stroke: #000; stroke-linecap: round; stroke-linejoin: round; fill: none;"/><path class="cls-nopackage3" d="M22.69,37.23S23.24,56.58,12,60.67" style="stroke: #000; stroke-linecap: round; stroke-linejoin: round; fill: none;"/><path class="cls-nopackage3" d="M44.3,38.09s.48,14.17,7.58,17.75" style="stroke: #000; stroke-linecap: round; stroke-linejoin: round; fill: none;"/><path class="cls-nopackage3" d="M41.35,37.23s-2.41,20.5,10.52,23.44" style="stroke: #000; stroke-linecap: round; stroke-linejoin: round; fill: none;"/><polyline class="cls-nopackage3" points="51.87 53.34 51.87 65.08 11.97 65.08 11.97 54.39" style="stroke: #000; stroke-linecap: round; stroke-linejoin: round; fill: none;"/><path class="cls-nopackage2" d="M15.5,23.15h0A14,14,0,0,0,16,20.8a7.37,7.37,0,0,1,9.38-6.29,1.6,1.6,0,0,1,1,2.27,1.67,1.67,0,0,1-1.95.77,4.18,4.18,0,0,0-5.13,5,4.09,4.09,0,0,0,1.85,2.54,4.19,4.19,0,0,0,4.9-.37,1.6,1.6,0,0,1,2.46.49,1.65,1.65,0,0,1-.47,2,7.36,7.36,0,0,1-4.68,1.68h0a2.2,2.2,0,0,0-2.13,1.63l-.09.35-11,28a4.92,4.92,0,0,1-6.82,2.7h0A4.92,4.92,0,0,1,.9,55.27L11.74,32.13A40.65,40.65,0,0,0,15.5,23.15Z" style="stroke: #000; stroke-linecap: round; stroke-linejoin: round; fill: #fff;"/><path class="cls-nopackage2" d="M47.51,23.15h0A14,14,0,0,1,47,20.8a7.37,7.37,0,0,0-9.38-6.29,1.6,1.6,0,0,0-1,2.27,1.67,1.67,0,0,0,1.95.77,4.18,4.18,0,0,1,5.13,5,4.09,4.09,0,0,1-1.85,2.54,4.19,4.19,0,0,1-4.9-.37,1.6,1.6,0,0,0-2.46.49,1.65,1.65,0,0,0,.47,2,7.36,7.36,0,0,0,4.68,1.68h0a2.2,2.2,0,0,1,2.13,1.63l.09.35,11,28a4.92,4.92,0,0,0,6.82,2.7h0a4.92,4.92,0,0,0,2.32-6.35L51.27,32.13A40.65,40.65,0,0,1,47.51,23.15Z" style="stroke: #000; stroke-linecap: round; stroke-linejoin: round; fill: #fff;"/><path class="cls-nopackage1" d="M36.58,17.72a22.68,22.68,0,0,1-10.19,0l1.88,3.42a14.55,14.55,0,0,1,6.93,0Z" style="fill: #009688; stroke: #000; stroke-linecap: round; stroke-linejoin: round;"/><circle class="cls-nopackage1" cx="39.81" cy="21.58" r="5.42" style="fill: #009688; stroke: #000; stroke-linecap: round; stroke-linejoin: round;"/><circle class="cls-nopackage2" cx="39.81" cy="21.58" r="3.23" style="stroke: #000; stroke-linecap: round; stroke-linejoin: round; fill: #fff;"/><circle class="cls-nopackage1" cx="23.21" cy="21.58" r="5.42" style="fill: #009688; stroke: #000; stroke-linecap: round; stroke-linejoin: round;"/><circle class="cls-nopackage2" cx="23.21" cy="21.58" r="3.23" style="stroke: #000; stroke-linecap: round; stroke-linejoin: round; fill: #fff;"/><circle class="cls-nopackage1" cx="31.51" cy="19.52" r="1.52" style="fill: #009688; stroke: #000; stroke-linecap: round; stroke-linejoin: round;"/><line class="cls-nopackage1" x1="59.33" y1="65.08" x2="6.09" y2="65.08" style="fill: #009688; stroke: #000; stroke-linecap: round; stroke-linejoin: round;"/></g></g></svg>
