<?xml version="1.0" encoding="UTF-8"?>
<svg width="124px" height="56px" viewBox="0 0 124 56" version="1.1" xmlns="http://www.w3.org/2000/svg" xmlns:xlink="http://www.w3.org/1999/xlink">
    <!-- Generator: Sketch 55.2 (78181) - https://sketchapp.com -->
    <title>Group 31 Copy</title>
    <desc>Created with Sketch.</desc>
    <g id="Luxury" stroke="none" stroke-width="1" fill="none" fill-rule="evenodd">
        <g id="Lux-PDP-DS" transform="translate(-100.000000, -213.000000)">
            <g id="Group-31-Copy" transform="translate(100.000000, 213.000000)">
                <path d="M0,1 L118,1 C121.313708,1 124,3.6862915 124,7 L124,50 C124,53.3137085 121.313708,56 118,56 L0,56 L0,1 Z" id="Rectangle-Copy-4" fill="#000000" opacity="0.302594866"></path>
                <path d="M0,0 L118,0 C121.313708,-6.08718376e-16 124,2.6862915 124,6 L124,49 C124,52.3137085 121.313708,55 118,55 L0,55 L0,0 Z" id="Rectangle" fill="#FFFFFF"></path>
                <g id="Group-32" transform="translate(61.000000, 0.000000)" fill="#E4A500" opacity="0.200358073">
                    <polygon id="Rectangle" points="20.7462687 0 55 0 34.2537313 55 0 55"></polygon>
                    <path d="M37.7462687,0 L57,0 C60.3137085,-6.08718376e-16 63,2.6862915 63,6 L63,49 C63,52.3137085 60.3137085,55 57,55 L17,55 L37.7462687,0 Z" id="Rectangle-Copy-10"></path>
                </g>
                <g id="Group-2" transform="translate(10.000000, 8.000000)">
                    <g id="Group-30" transform="translate(34.000000, 0.000000)" fill="#3E3E3E" font-family="Lato-Regular, Lato" font-size="12" font-weight="normal">
                        <text id="Most">
                            <tspan x="0" y="12">MOST</tspan>
                        </text>
                        <text id="Luxurious">
                            <tspan x="0" y="24">LUXURIOUS</tspan>
                        </text>
                        <text id="Experience">
                            <tspan x="0" y="36">EXPERIENCE</tspan>
                        </text>
                    </g>
                    <g id="diamond" transform="translate(0.000000, 6.000000)" stroke="#3E3E3E">
                        <g id="Group-36">
                            <polygon id="Rectangle" points="4.24011503 3.90798505e-14 22.7215779 3.90798505e-14 26.8662862 6.96774194 13.5106216 26.442378 0.0725865209 6.96774194"></polygon>
                            <path d="M22.6557828,0.435483871 L13.5106216,25.6935484" id="Line-2"></path>
                            <path d="M4.53420962,0.435483871 L13.4694364,25.6935484" id="Line-3" stroke-linecap="square"></path>
                            <path d="M0.446105429,6.96774194 L26.5751377,6.96774194" id="Line-4"></path>
                            <polyline id="Path-2" stroke-linejoin="round" points="20.2010383 6.96774194 13.7256753 0 6.90483085 6.96774194"></polyline>
                        </g>
                    </g>
                </g>
            </g>
        </g>
    </g>
</svg>