<svg xmlns="http://www.w3.org/2000/svg" viewBox="0 0 29 16.97"><defs/><title>MinI_bus_icon</title><g id="Layer_2"><g id="MinI_bus"><path class="cls-minibus1" d="M21.62,6.54H17.44v7h1.3s.39-2.88,2.88-2.88Z" style="fill: #009688;"/><path class="cls-minibus1" d="M27.53,9.52h1a0,0,0,0,1,0,0v2.22a0,0,0,0,1,0,0h-1a.5.5,0,0,1-.5-.5V10A.5.5,0,0,1,27.53,9.52Z" style="fill: #009688;"/><line class="cls-minibus2" x1="5.5" y1="0.5" x2="5.5" y2="6.54" style="fill: none; stroke: #000; stroke-miterlimit: 10;"/><line class="cls-minibus2" x1="13.19" y1="0.5" x2="13.19" y2="6.54" style="fill: none; stroke: #000; stroke-miterlimit: 10;"/><line class="cls-minibus2" x1="21.62" y1="0.5" x2="21.62" y2="6.54" style="fill: none; stroke: #000; stroke-miterlimit: 10;"/><path class="cls-minibus3" d="M24.5,13.58h4v-5a2,2,0,0,0-2-2H25.21" style="fill: none; stroke: #000; stroke-linecap: round; stroke-linejoin: round;"/><line class="cls-minibus3" x1="10.26" y1="13.58" x2="18.74" y2="13.58" style="fill: none; stroke: #000; stroke-linecap: round; stroke-linejoin: round;"/><path class="cls-minibus3" d="M.5,6.54h26v-3a3,3,0,0,0-3-3H2.5a2,2,0,0,0-2,2V12.58a1,1,0,0,0,1,1h3" style="fill: none; stroke: #000; stroke-linecap: round; stroke-linejoin: round;"/><line class="cls-minibus3" x1="17.44" y1="6.54" x2="17.44" y2="13.58" style="fill: none; stroke: #000; stroke-linecap: round; stroke-linejoin: round;"/><line class="cls-minibus3" x1="21.62" y1="6.54" x2="21.62" y2="10.7" style="fill: none; stroke: #000; stroke-linecap: round; stroke-linejoin: round;"/><circle class="cls-minibus2" cx="7.38" cy="13.58" r="2.88" style="fill: none; stroke: #000; stroke-miterlimit: 10;"/><circle cx="7.38" cy="13.58" r="0.5"/><circle class="cls-minibus2" cx="21.62" cy="13.58" r="2.88" style="fill: none; stroke: #000; stroke-miterlimit: 10;"/><circle cx="21.62" cy="13.58" r="0.5"/></g></g></svg>
