<?xml version="1.0" encoding="UTF-8"?>
<svg width="73px" height="57px" viewBox="0 0 73 57" version="1.1" xmlns="http://www.w3.org/2000/svg" xmlns:xlink="http://www.w3.org/1999/xlink">
    <!-- Generator: Sketch 58 (84663) - https://sketch.com -->
    <title>Illustration/Destinations</title>
    <desc>Created with Sketch.</desc>
    <g id="Illustration/Destinations" stroke="none" stroke-width="1" fill="none" fill-rule="evenodd">
        <g transform="translate(8.000000, 0.000000)">
            <path d="M10.1707,39.6833003 C10.1707,39.6833003 11.8549941,36.852088 13.0866412,38.4478622 C14.3182882,40.0436364 11.6046412,41.2077092 17.2521118,41.1831408 C22.8984647,41.1597423 19.8428176,39.8505992 24.9795235,41.8207485 C30.1162294,43.7920678 22.8202294,43.1684991 23.9311706,44.9479511 C25.0421118,46.7274031 24.8241706,54.4208129 21.7238176,50.226641 C18.6234647,46.0324692 20.2105235,50.3553325 16.0450529,46.5589343 C11.8773471,42.763706 8.92564118,46.7706902 10.1707,39.6833003 Z" id="Stroke-1" stroke="#000000" fill="#2196F3" stroke-linecap="round" stroke-linejoin="round"></path>
            <polygon id="Stroke-5" stroke="#000000" stroke-linecap="round" stroke-linejoin="round" points="12.9637 56.530651 0.557817647 54.510195 6.47911176 33.2959919 16.0405824 34.4764436"></polygon>
            <polygon id="Stroke-7" stroke="#000000" stroke-linecap="round" stroke-linejoin="round" points="25.9313118 54.5106629 12.9632529 56.5311189 16.0401353 34.4769115 25.9313118 33.2952899"></polygon>
            <path d="M36.9429294,42.4698215 C34.8976353,40.2118712 32.2700471,37.124446 29.8000471,33.7667686" id="Stroke-9" stroke="#000000" stroke-linecap="round" stroke-linejoin="round"></path>
            <path d="M38.8988118,56.5328738 L25.9329882,54.508908 L25.9329882,33.2982147 L29.8000471,33.7661837 C32.2700471,37.123861 34.8976353,40.2124562 36.9429294,42.4692365 L38.0270471,50.2854881 L38.3835765,52.835919 L38.8988118,56.5328738 Z" id="Stroke-11" stroke="#000000" stroke-linecap="round" stroke-linejoin="round"></path>
            <path d="M46.9788412,39.0068511 C44.2741353,42.235837 41.8823706,44.7511702 40.9211941,45.7456042 C40.6976647,45.8520672 40.5076647,46.0029871 40.3623706,46.1199794 C40.0170176,45.7690027 38.6970765,44.436461 36.9434882,42.4698215" id="Stroke-13" stroke="#000000" stroke-linecap="round" stroke-linejoin="round"></path>
            <path d="M51.3042471,54.5083231 L38.8983647,56.5322889 L38.3831294,52.835334 L38.0266,50.2860731 L36.9424824,42.4698215 C38.6971882,44.436461 40.0160118,45.7690027 40.3624824,46.1199794 C40.5077765,46.0029871 40.6977765,45.8520672 40.9213059,45.7456042 C41.8824824,44.7511702 44.2742471,42.235837 46.9789529,39.0068511 L51.3042471,54.5083231 Z" id="Stroke-15" stroke="#000000" stroke-linecap="round" stroke-linejoin="round"></path>
            <path d="M40.4520059,26.7901703 C35.4829471,26.7901703 31.4538294,22.5737699 31.4538294,17.371125 C31.4538294,12.1696499 35.4829471,7.95207963 40.4520059,7.95207963 C45.4210647,7.95207963 49.4501824,12.1696499 49.4501824,17.371125 C49.4501824,22.5737699 45.4210647,26.7901703 40.4520059,26.7901703 M40.4520059,0.585078198 C31.5946529,0.585078198 24.4148882,8.09948985 24.4148882,17.371125 C24.4148882,26.6415902 40.4520059,42.6086913 40.4520059,42.6086913 C40.4520059,42.6086913 56.4880059,26.6415902 56.4880059,17.371125 C56.4880059,8.09948985 49.3082412,0.585078198 40.4520059,0.585078198" id="Fill-17" fill="#2196F3"></path>
            <path d="M40.4520059,26.7901703 C35.4829471,26.7901703 31.4538294,22.5737699 31.4538294,17.371125 C31.4538294,12.1696499 35.4829471,7.95207963 40.4520059,7.95207963 C45.4210647,7.95207963 49.4501824,12.1696499 49.4501824,17.371125 C49.4501824,22.5737699 45.4210647,26.7901703 40.4520059,26.7901703 Z M40.4520059,0.585078198 C31.5946529,0.585078198 24.4148882,8.09948985 24.4148882,17.371125 C24.4148882,26.6415902 40.4520059,42.6086913 40.4520059,42.6086913 C40.4520059,42.6086913 56.4880059,26.6415902 56.4880059,17.371125 C56.4880059,8.09948985 49.3082412,0.585078198 40.4520059,0.585078198 Z" id="Stroke-19" stroke="#000000" stroke-linecap="round" stroke-linejoin="round"></path>
        </g>
    </g>
</svg>