<?xml version="1.0" encoding="UTF-8"?>
<svg width="73px" height="57px" viewBox="0 0 73 57" version="1.1" xmlns="http://www.w3.org/2000/svg" xmlns:xlink="http://www.w3.org/1999/xlink">
    <!-- Generator: Sketch 58 (84663) - https://sketch.com -->
    <title>Illustration/QC</title>
    <desc>Created with Sketch.</desc>
    <defs>
        <polygon id="path-1" points="0 56.2583476 51.809434 56.2583476 51.809434 0.000319956934 0 0.000319956934"></polygon>
    </defs>
    <g id="Illustration/QC" stroke="none" stroke-width="1" fill="none" fill-rule="evenodd">
        <g transform="translate(16.000000, 0.000000)">
            <path d="M39.1197396,12.3498044 L39.1197396,51.2405697 C39.1197396,53.7138368 37.2052868,55.7252994 34.8354,55.7252994 L4.79407925,55.7252994 C2.43030566,55.7252994 0.508720755,53.7138368 0.508720755,51.2405697 L0.508720755,12.3498044 C0.508720755,9.87547076 2.43030566,7.8650747 4.79407925,7.8650747 L34.8354,7.8650747 C37.2052868,7.8650747 39.1197396,9.87547076 39.1197396,12.3498044 Z" id="Fill-1" fill="#FFFFFF"></path>
            <path d="M39.1197396,12.3498044 L39.1197396,51.2405697 C39.1197396,53.7138368 37.2052868,55.7252994 34.8354,55.7252994 L4.79407925,55.7252994 C2.43030566,55.7252994 0.508720755,53.7138368 0.508720755,51.2405697 L0.508720755,12.3498044 C0.508720755,9.87547076 2.43030566,7.8650747 4.79407925,7.8650747 L34.8354,7.8650747 C37.2052868,7.8650747 39.1197396,9.87547076 39.1197396,12.3498044 Z" id="Stroke-3" stroke="#000000" stroke-linecap="round" stroke-linejoin="round"></path>
            <mask id="mask-2" fill="white">
                <use xlink:href="#path-1"></use>
            </mask>
            <g id="Clip-6"></g>
            <polygon id="Fill-5" fill="#FFFFFF" mask="url(#mask-2)" points="4.69392453 52.5415146 34.9420755 52.5415146 34.9420755 11.0494994 4.69392453 11.0494994"></polygon>
            <polygon id="Stroke-7" stroke="#000000" stroke-linecap="round" stroke-linejoin="round" mask="url(#mask-2)" points="4.69392453 52.5415146 34.9420755 52.5415146 34.9420755 11.0494994 4.69392453 11.0494994"></polygon>
            <path d="M19.7861094,7.5931113 C18.3087509,7.5931113 17.1105623,6.33888012 17.1105623,4.79242161 C17.1105623,3.24596309 18.3087509,1.99173191 19.7861094,1.99173191 C21.2634679,1.99173191 22.4626755,3.24596309 22.4626755,4.79242161 C22.4626755,6.33888012 21.2634679,7.5931113 19.7861094,7.5931113 M29.6609774,5.09851374 L29.5010151,5.09851374 C28.699166,5.09851374 27.9543736,4.68256973 27.5009774,3.9893297 C26.1672792,1.95120403 23.2166377,0.533794818 19.7861094,0.533794818 C16.3555811,0.533794818 13.4059585,1.95120403 12.0722604,3.9893297 C11.6188642,4.68256973 10.8740717,5.09851374 10.0722226,5.09851374 L9.91226038,5.09851374 C8.57346792,5.09851374 7.48837358,6.23542738 7.48837358,7.63577223 L7.48837358,11.0603779 C7.48837358,12.4607228 8.57346792,13.5965699 9.91226038,13.5965699 L29.6609774,13.5965699 C30.9997698,13.5965699 32.0838453,12.4607228 32.0838453,11.0603779 L32.0838453,7.63577223 C32.0838453,6.23542738 30.9997698,5.09851374 29.6609774,5.09851374" id="Fill-8" fill="#2196F3" mask="url(#mask-2)"></path>
            <path d="M19.7861094,7.5931113 C18.3087509,7.5931113 17.1105623,6.33888012 17.1105623,4.79242161 C17.1105623,3.24596309 18.3087509,1.99173191 19.7861094,1.99173191 C21.2634679,1.99173191 22.4626755,3.24596309 22.4626755,4.79242161 C22.4626755,6.33888012 21.2634679,7.5931113 19.7861094,7.5931113 Z M29.6609774,5.09851374 L29.5010151,5.09851374 C28.699166,5.09851374 27.9543736,4.68256973 27.5009774,3.9893297 C26.1672792,1.95120403 23.2166377,0.533794818 19.7861094,0.533794818 C16.3555811,0.533794818 13.4059585,1.95120403 12.0722604,3.9893297 C11.6188642,4.68256973 10.8740717,5.09851374 10.0722226,5.09851374 L9.91226038,5.09851374 C8.57346792,5.09851374 7.48837358,6.23542738 7.48837358,7.63577223 L7.48837358,11.0603779 C7.48837358,12.4607228 8.57346792,13.5965699 9.91226038,13.5965699 L29.6609774,13.5965699 C30.9997698,13.5965699 32.0838453,12.4607228 32.0838453,11.0603779 L32.0838453,7.63577223 C32.0838453,6.23542738 30.9997698,5.09851374 29.6609774,5.09851374 Z" id="Stroke-9" stroke="#000000" stroke-linecap="round" stroke-linejoin="round" mask="url(#mask-2)"></path>
            <path d="M30.6812717,19.5331575 L8.75115849,19.5331575" id="Stroke-10" stroke="#2196F3" stroke-linecap="round" stroke-linejoin="round" mask="url(#mask-2)"></path>
            <path d="M30.6812717,24.8595872 L8.75115849,24.8595872" id="Stroke-11" stroke="#2196F3" stroke-linecap="round" stroke-linejoin="round" mask="url(#mask-2)"></path>
            <path d="M23.6954038,30.1869768 L8.75064906,30.1869768" id="Stroke-12" stroke="#2196F3" stroke-linecap="round" stroke-linejoin="round" mask="url(#mask-2)"></path>
            <path d="M21.5671925,35.5132999 L8.75085283,35.5132999" id="Stroke-13" stroke="#2196F3" stroke-linecap="round" stroke-linejoin="round" mask="url(#mask-2)"></path>
            <path d="M17.4917208,40.8397296 L8.75085283,40.8397296" id="Stroke-14" stroke="#2196F3" stroke-linecap="round" stroke-linejoin="round" mask="url(#mask-2)"></path>
            <path d="M43.3872679,38.8222945 C45.2090038,43.5821872 43.0000981,48.9873263 38.4528906,50.8953362 C33.9046642,52.8022795 28.7410415,50.4900574 26.9193057,45.7312312 C25.0965509,40.9702721 27.3054566,35.5640664 31.853683,33.6571231 C36.4008906,31.7491132 41.5645132,34.0613353 43.3872679,38.8222945" id="Fill-15" fill="#2196F3" mask="url(#mask-2)"></path>
            <path d="M43.3872679,38.8222945 C45.2090038,43.5821872 43.0000981,48.9873263 38.4528906,50.8953362 C33.9046642,52.8022795 28.7410415,50.4900574 26.9193057,45.7312312 C25.0965509,40.9702721 27.3054566,35.5640664 31.853683,33.6571231 C36.4008906,31.7491132 41.5645132,34.0613353 43.3872679,38.8222945 Z" id="Stroke-16" stroke="#000000" stroke-linecap="round" stroke-linejoin="round" mask="url(#mask-2)"></path>
            <path d="M51.2814566,34.9831313 L46.6242113,36.9370016" id="Stroke-17" stroke="#000000" stroke-linecap="round" stroke-linejoin="round" mask="url(#mask-2)"></path>
            <path d="M40.0868491,30.2025481 L42.0603962,25.3733314" id="Stroke-18" stroke="#000000" stroke-linecap="round" stroke-linejoin="round" mask="url(#mask-2)"></path>
            <path d="M46.6866679,47.4408678 L51.3001019,49.5067231" id="Stroke-19" stroke="#000000" stroke-linecap="round" stroke-linejoin="round" mask="url(#mask-2)"></path>
            <polygon id="Fill-20" fill="#FFFFFF" mask="url(#mask-2)" points="31.3150075 40.2033353 33.8142906 43.2354605 39.3599887 38.0478921 41.0696491 40.0188268 33.4688943 46.6824632 29.4596491 41.8884418"></polygon>
            <polygon id="Stroke-21" stroke="#000000" stroke-linecap="round" stroke-linejoin="round" mask="url(#mask-2)" points="31.3150075 40.2033353 33.8142906 43.2354605 39.3599887 38.0478921 41.0696491 40.0188268 33.4688943 46.6824632 29.4596491 41.8884418"></polygon>
        </g>
    </g>
</svg>