<?xml version="1.0" encoding="UTF-8"?>
<svg width="73px" height="57px" viewBox="0 0 73 57" version="1.1" xmlns="http://www.w3.org/2000/svg" xmlns:xlink="http://www.w3.org/1999/xlink">
    <!-- Generator: Sketch 58 (84663) - https://sketch.com -->
    <title>Group 201</title>
    <desc>Created with Sketch.</desc>
    <g id="Group-201" stroke="none" stroke-width="1" fill="none" fill-rule="evenodd">
        <g transform="translate(0.000000, 5.000000)">
            <g id="Group-4" transform="translate(49.324324, 39.214712)">
                <path d="M0.109598649,12.3307851 L0.109598649,5.75782568 C0.109598649,3.99102838 1.29140946,2.44027162 3.00000405,1.97267703 L7.05643649,0.860906757 L8.19484189,0.55115 L9.09747703,0.303541892 C9.78900405,0.115122973 10.5239365,0.119068919 11.214477,0.31537973 L12.0352338,0.55115 L12.7139365,0.747460811 L16.9005851,1.94505541 C18.5815581,2.4274473 19.7426527,3.96636622 19.7426527,5.72231216 L19.7426527,12.3307851" id="Fill-1" fill="#FFFFFF"></path>
                <path d="M0.109598649,12.3307851 L0.109598649,5.75782568 C0.109598649,3.99102838 1.29140946,2.44027162 3.00000405,1.97267703 L7.05643649,0.860906757 L8.19484189,0.55115 L9.09747703,0.303541892 C9.78900405,0.115122973 10.5239365,0.119068919 11.214477,0.31537973 L12.0352338,0.55115 L12.7139365,0.747460811 L16.9005851,1.94505541 C18.5815581,2.4274473 19.7426527,3.96636622 19.7426527,5.72231216 L19.7426527,12.3307851" id="Stroke-3" stroke="#000000" stroke-linecap="round" stroke-linejoin="round"></path>
            </g>
            <g id="Group-8" transform="translate(57.216216, 44.147145)">
                <polyline id="Fill-5" fill="#4695EB" points="3.69527973 7.3983527 2.10506351 0.939825676 0.475387838 7.3983527"></polyline>
                <polyline id="Stroke-7" stroke="#000000" points="3.69527973 7.3983527 2.10506351 0.939825676 0.475387838 7.3983527"></polyline>
            </g>
            <path d="M61.6600419,45.7720851 L60.5413662,45.2403689 C60.2829068,45.6270716 59.8015014,46.1903554 59.5183797,46.185423 C59.2362446,46.1804905 58.5022986,46.3689095 58.0228662,45.0874635 C57.8699608,44.6760986 57.4220959,46.0384365 56.8982716,45.7720851 C56.8982716,45.7720851 56.8075149,43.9401797 58.4776365,43.9638554 C60.1487446,43.9885176 59.1050419,44.1483284 59.1050419,44.1483284 L60.8235014,43.808977 L61.6097311,45.0874635 L61.6600419,45.7720851 Z" id="Fill-9" fill="#ECECEC"></path>
            <path d="M58.3537338,43.9889122 L60.1481527,43.9889122 C60.4559365,43.9889122 60.6433689,44.3262905 60.4815851,44.5877095 L59.6085446,45.9993716 C59.4566257,46.2440203 59.1034635,46.2479662 58.9466122,46.0072635 L58.0242473,44.5956014 C57.8535851,44.3351689 58.0420041,43.9889122 58.3537338,43.9889122" id="Fill-11" fill="#4695EB"></path>
            <path d="M58.3537338,43.9889122 L60.1481527,43.9889122 C60.4559365,43.9889122 60.6433689,44.3262905 60.4815851,44.5877095 L59.6085446,45.9993716 C59.4566257,46.2440203 59.1034635,46.2479662 58.9466122,46.0072635 L58.0242473,44.5956014 C57.8535851,44.3351689 58.0420041,43.9889122 58.3537338,43.9889122 Z" id="Stroke-13" stroke="#000000"></path>
            <path d="M60.2862608,44.302023 C60.2862608,44.302023 60.5348554,44.3641716 60.3306527,44.6591311 C60.3306527,44.6591311 59.6677338,44.4056041 59.2178959,44.5121446 C59.2178959,44.5121446 58.6210716,44.8307797 58.1702473,44.6591311 L58.0558149,44.5062257 C58.0558149,44.5062257 57.35245,43.8087797 58.2688959,43.8087797 C59.1853419,43.8087797 58.9712743,44.0129824 59.3402203,44.1037392 C59.3402203,44.1037392 60.0208959,43.8137122 60.2862608,44.302023" id="Fill-15" fill="#067F71"></path>
            <path d="M56.8980743,46.2653284 C56.8615743,46.2653284 56.8250743,46.2613824 56.7895608,46.2525041 C56.6129797,46.2130446 56.4719122,46.0808554 56.4235743,45.9062473 L55.3571824,42.1349095 C55.2536014,41.5341392 55.5880203,41.0211662 55.9115878,40.5249635 C56.1424257,40.1708149 56.4048311,39.7693149 56.4048311,39.4812608 C56.4048311,39.2553554 56.558723,39.0570716 56.7796959,39.0028149 C56.8191554,38.99295 56.8586149,38.9880176 56.8980743,38.9880176 C57.0776149,38.9880176 57.2472905,39.0866662 57.3341014,39.2514095 L59.7766419,43.8730986 C59.8486554,44.0112068 59.8526014,44.17595 59.7855203,44.3160311 C59.7174527,44.4570986 59.588223,44.5577203 59.4343311,44.5883014 L58.4251554,44.7846122 L57.2680068,46.0976257 C57.1733041,46.2051527 57.0381554,46.2653284 56.8980743,46.2653284" id="Fill-17" fill="#FFFFFF"></path>
            <path d="M56.9038946,38.5034554 C56.8269486,38.5034554 56.7480297,38.5123338 56.6700973,38.5300905 C56.2311108,38.6346581 55.9203676,39.0312257 55.9114892,39.4810635 C55.9085297,39.6270635 55.6421784,40.0354689 55.4991378,40.2544689 C55.1410432,40.8039419 54.7346108,41.4264149 54.8598946,42.1652932 C54.8658135,42.2008068 54.8727189,42.2353338 54.8825838,42.2698608 L55.9489757,46.0411986 C56.0476243,46.3874554 56.3277865,46.6538068 56.6789757,46.7346986 C56.7519757,46.7504824 56.8249757,46.7583743 56.8979757,46.7583743 C57.1771514,46.7583743 57.4494216,46.6390095 57.6378405,46.4239554 L58.6845027,45.2362257 L59.5289351,45.0714824 C59.8357324,45.0122932 60.0951784,44.81105 60.230327,44.5279284 C60.3644892,44.2467797 60.3585703,43.9182797 60.2125703,43.6420635 L57.7710162,39.0193878 C57.5973946,38.6928608 57.2610027,38.5034554 56.9038946,38.5034554 M56.8979757,39.4810635 L59.3405162,44.1037392 L58.1656108,44.3326041 L56.8979757,45.7718878 L55.8315838,42.0015365 C55.7122189,41.2873203 56.8979757,40.3570635 56.8979757,39.4810635" id="Fill-19" fill="#000000"></path>
            <path d="M61.6600419,46.2653284 C61.508123,46.2653284 61.362123,46.1952878 61.2684068,46.0709905 L60.303623,44.8063149 L59.1277311,44.5883014 C58.9728527,44.5596932 58.8426365,44.4590716 58.7735824,44.3180041 C58.7055149,44.1769365 58.7084743,44.0121932 58.7814743,43.8730986 L61.2240149,39.2514095 C61.3108257,39.0866662 61.4805014,38.9880176 61.6600419,38.9880176 C61.6995014,38.9880176 61.7389608,38.99295 61.7784203,39.0028149 C61.9993932,39.0570716 62.1532851,39.2553554 62.1532851,39.4812608 C62.1532851,40.0327068 62.3900419,40.3217473 62.6406095,40.6275581 C62.8832851,40.9244905 63.187123,41.2934365 63.0963662,41.8330446 L62.1394743,45.8855311 C62.0960689,46.0709905 61.9490824,46.2150176 61.7626365,46.254477 C61.7281095,46.2613824 61.6935824,46.2653284 61.6600419,46.2653284" id="Fill-21" fill="#FFFFFF"></path>
            <path d="M61.6590554,38.4947743 C61.3009608,38.4947743 60.9616095,38.6910851 60.7870014,39.0195851 L58.3454473,43.6422608 C58.1984608,43.9194635 58.1925419,44.2499365 58.3296635,44.5330581 C58.4667851,44.8151932 58.7291905,45.01545 59.0379608,45.0736527 L60.0274068,45.2561527 L60.8747986,46.3698959 C61.0632176,46.6175041 61.3552176,46.7585716 61.6600419,46.7585716 C61.7281095,46.7585716 61.7971635,46.7516662 61.8652311,46.7368689 C62.238123,46.6569635 62.5320959,46.3698959 62.6198932,45.9979905 L63.5698797,41.9790446 C63.5748122,41.9583284 63.5787581,41.9366257 63.5827041,41.9159095 C63.7109473,41.1543419 63.296623,40.6492608 63.0223797,40.3148419 C62.7885824,40.0287608 62.6465284,39.8561257 62.6465284,39.4812608 C62.6465284,39.027477 62.3367716,38.6328824 61.8967986,38.5233824 C61.8178797,38.5046392 61.7379743,38.4947743 61.6590554,38.4947743 M61.6600419,39.4812608 C61.6600419,40.7972338 62.7303797,41.0379365 62.6100284,41.7521527 L61.6600419,45.7720851 L60.5808257,44.356477 L59.2175014,44.1039365 L61.6600419,39.4812608" id="Fill-23" fill="#000000"></path>
            <path d="M59.3402203,44.5967851 C59.1735041,44.5967851 59.0186257,44.5129338 58.9268824,44.3728527 L56.4843419,40.6271635 C56.4330446,40.5462716 56.4044365,40.4525554 56.4044365,40.3568662 L56.4044365,34.859177 C56.4044365,34.5869068 56.6254095,34.3659338 56.8976797,34.3659338 L61.6101257,34.3659338 C61.8823959,34.3659338 62.1033689,34.5869068 62.1033689,34.859177 L62.1033689,40.3568662 C62.1033689,40.447623 62.0777203,40.5354203 62.0323419,40.6123662 L59.7624365,44.3590419 C59.6746392,44.5040554 59.5177878,44.5938257 59.3481122,44.5967851 L59.3402203,44.5967851 Z" id="Fill-25" fill="#FFFFFF"></path>
            <path d="M61.6099284,33.8725919 L56.8984689,33.8725919 C56.3529419,33.8725919 55.9119824,34.3145378 55.9119824,34.8590784 L55.9119824,40.3567676 C55.9119824,40.5481459 55.9672257,40.7345919 56.0717932,40.8953892 L58.5133473,44.6420649 C58.6958473,44.9212405 59.0065905,45.0899297 59.340023,45.0899297 L59.3567932,45.0899297 C59.6961446,45.0840108 60.0078743,44.9044703 60.1834689,44.6144432 L62.4533743,40.8677676 C62.5470905,40.7138757 62.5964149,40.5372946 62.5964149,40.3567676 L62.5964149,34.8590784 C62.5964149,34.3145378 62.1544689,33.8725919 61.6099284,33.8725919 M61.6099284,34.8590784 L61.6099284,40.3567676 L59.340023,44.1034432 L56.8984689,40.3567676 L56.8984689,34.8590784 L61.6099284,34.8590784" id="Fill-27" fill="#000000"></path>
            <path d="M61.5415649,38.2954054 L61.5090108,39.4002703 C61.5090108,39.4002703 59.0792946,40.8010811 57.0343081,39.4002703 L56.9188892,38.0172162 L61.5415649,38.2954054 Z" id="Fill-29" fill="#ECECEC"></path>
            <path d="M59.2766905,24.4180166 C57.1774473,24.4112 52.6909068,24.7909973 53.8155014,31.2317676 C54.5385959,35.3750108 56.2284473,38.8543486 59.2332851,38.8642271 C62.238123,38.8721054 64.3067851,35.4519568 64.6964473,31.2633351 C65.1817986,26.0635649 63.8500419,26.2618486 62.4768527,25.7676189 C62.2953392,25.7025108 62.1256635,25.6038622 61.98065,25.4746324 C61.617623,25.1490919 60.6528392,24.4220514 59.2766905,24.4180166" id="Fill-31" fill="#4695EB"></path>
            <path d="M59.2766905,24.4180166 C57.1774473,24.4112 52.6909068,24.7909973 53.8155014,31.2317676 C54.5385959,35.3750108 56.2284473,38.8543486 59.2332851,38.8642271 C62.238123,38.8721054 64.3067851,35.4519568 64.6964473,31.2633351 C65.1817986,26.0635649 63.8500419,26.2618486 62.4768527,25.7676189 C62.2953392,25.7025108 62.1256635,25.6038622 61.98065,25.4746324 C61.617623,25.1490919 60.6528392,24.4220514 59.2766905,24.4180166 Z" id="Stroke-33" stroke="#000000"></path>
            <path d="M64.3141315,32.7223486 C64.3022473,36.6357405 62.0283959,39.4087541 59.2317068,39.400879 C56.4360041,39.3929703 54.1779365,36.6061459 54.1887489,32.6927541 C54.2006257,28.7793622 56.4774365,25.613727 59.2731392,25.6216042 C62.0688419,25.6304973 64.325923,28.8089568 64.3141315,32.7223486" id="Fill-35" fill="#FFFFFF"></path>
            <path d="M64.3141315,32.7223486 C64.3022473,36.6357405 62.0283959,39.4087541 59.2317068,39.400879 C56.4360041,39.3929703 54.1779365,36.6061459 54.1887489,32.6927541 C54.2006257,28.7793622 56.4774365,25.613727 59.2731392,25.6216042 C62.0688419,25.6304973 64.325923,28.8089568 64.3141315,32.7223486 Z" id="Stroke-37" stroke="#000000" stroke-linecap="round" stroke-linejoin="round"></path>
            <path d="M63.997127,27.0933581 L64.3769243,30.7680203 C64.3769243,30.7680203 63.8077216,28.7960338 61.7262351,28.6056419 C61.7262351,28.6056419 60.7219919,28.4004527 61.0879784,27.7414797 C61.0879784,27.7414797 60.8097892,28.3639527 60.2040865,28.5878851 C60.2040865,28.5878851 58.1008973,29.3287365 56.3844108,29.1541284 C56.3844108,29.1541284 55.0112216,28.7111959 54.4370865,30.5283041 C53.9152351,30.2846419 54.4232757,27.8716959 54.4232757,27.8716959 L56.7622351,25.7221419 L59.982127,24.9763581 L63.997127,27.0933581 Z" id="Fill-39" fill="#4695EB"></path>
            <path d="M54.6390203,31.6404689 C54.6390203,31.6404689 54.6913041,29.3794419 57.3035203,29.3676041 C57.3035203,29.3676041 60.3714932,29.4504689 60.8893986,28.4343878 C60.8893986,28.4343878 61.4221014,29.0509419 62.1639392,29.004577 C62.1639392,29.004577 63.9692095,29.5599689 63.8902905,32.1771176 C63.8902905,32.1771176 63.9396149,29.333077 62.873223,28.8861986 C62.873223,28.8861986 60.9781824,28.6168878 60.9535203,27.9914554 C60.9535203,27.9914554 60.058777,28.9542662 58.4113446,29.0361446 C58.4113446,29.0361446 57.2916824,29.1071716 56.3229527,29.1121041 C56.3229527,29.1121041 55.1588986,29.1328203 54.6311284,30.906523 L54.6390203,31.6404689 Z" id="Fill-41" fill="#ECECEC"></path>
            <path d="M54.2998662,30.5286986 C54.2998662,30.5286986 54.7763392,29.0608068 56.0844203,29.1051986 C57.6499743,29.1584689 60.956677,29.1199959 61.1579203,27.4557932" id="Stroke-43" stroke="#000000" stroke-linecap="round" stroke-linejoin="round"></path>
            <path d="M64.376727,30.7676257 C64.376727,30.7676257 63.796673,28.916977 62.2311189,28.7068554 C60.8944297,28.5273149 60.9536189,27.9916527 60.9536189,27.9916527" id="Stroke-45" stroke="#000000" stroke-linecap="round" stroke-linejoin="round"></path>
            <g id="Group-50" transform="translate(63.135135, 31.322820)">
                <path d="M0.940022973,0.528658108 C1.62069865,0.530631081 2.06659054,1.01696892 2.06462409,1.69961757 C2.06264459,2.38029324 1.26950946,2.9968473 0.834468919,2.99487905" id="Fill-47" fill="#FFFFFF"></path>
                <path d="M0.940022973,0.528658108 C1.62069865,0.530631081 2.06659054,1.01696892 2.06462409,1.69961757 C2.06264459,2.38029324 1.26950946,2.9968473 0.834468919,2.99487905" id="Stroke-49" stroke="#000000" stroke-linecap="round" stroke-linejoin="round"></path>
            </g>
            <g id="Group-54" transform="translate(53.270270, 31.322820)">
                <path d="M1.16642162,0.499748049 C0.485745946,0.497781081 0.0339351351,0.982145946 0.0319585421,1.66380811 C0.0299891892,2.34448378 0.834962162,2.90678108 1.2700027,2.90776757" id="Fill-51" fill="#FFFFFF"></path>
                <path d="M1.16642162,0.499748049 C0.485745946,0.497781081 0.0339351351,0.982145946 0.0319585421,1.66380811 C0.0299891892,2.34448378 0.834962162,2.90678108 1.2700027,2.90776757" id="Stroke-53" stroke="#000000" stroke-linecap="round" stroke-linejoin="round"></path>
            </g>
            <path d="M60.6715824,26.2735878 C60.6715824,26.2735878 59.8804203,28.0591284 56.2827041,27.650723" id="Stroke-55" stroke="#000000" stroke-linecap="round" stroke-linejoin="round"></path>
            <path d="M56.1225973,26.260073 C56.1225973,26.260073 54.7612459,26.9930324 54.9003405,28.3356405" id="Stroke-57" stroke="#000000" stroke-linecap="round" stroke-linejoin="round"></path>
            <g id="Group-62" transform="translate(52.283784, 46.120118)">
                <path d="M1.12212838,5.42537973 L1.12212838,0.404163514" id="Fill-59" fill="#009385"></path>
                <path d="M1.12212838,5.42537973 L1.12212838,0.404163514" id="Stroke-61" stroke="#000000" stroke-linecap="round" stroke-linejoin="round"></path>
            </g>
            <g id="Group-66" transform="translate(64.121622, 46.120118)">
                <path d="M1.01904054,5.42537973 L1.01904054,0.404163514" id="Fill-63" fill="#009385"></path>
                <path d="M1.01904054,5.42537973 L1.01904054,0.404163514" id="Stroke-65" stroke="#000000" stroke-linecap="round" stroke-linejoin="round"></path>
            </g>
            <path d="M60.0936,37.8290932 C60.0936,37.8784176 59.767073,37.9188635 59.365573,37.9188635 C58.9630865,37.9188635 58.6365595,37.8784176 58.6365595,37.8290932 C58.6365595,37.7787824 58.9630865,37.6692824 59.365573,37.6692824 C59.767073,37.6692824 60.0936,37.7787824 60.0936,37.8290932" id="Fill-67" fill="#ECECEC"></path>
            <g id="Group-72" transform="translate(49.324324, 51.052550)">
                <path d="M19.7430473,0.4997 L0.109993243,0.4997" id="Fill-69" fill="#009385"></path>
                <path d="M19.7430473,0.4997 L0.109993243,0.4997" id="Stroke-71" stroke="#000000" stroke-linecap="round" stroke-linejoin="round"></path>
            </g>
            <path d="M63.1050473,32.1770189 C63.1050473,32.1770189 64.3756419,32.0625865 64.5265743,32.5114378 L64.1043581,33.8471405 C64.1043581,33.8471405 64.3144797,33.925073 63.0438851,34.1628162 L63.1050473,32.1770189 Z" id="Fill-73" fill="#FFFFFF"></path>
            <path d="M55.4482351,32.1423932 C55.4482351,32.1423932 54.1776405,32.0279608 54.0267081,32.4768122 L54.4489243,33.8125149 C54.4489243,33.8125149 54.2388027,33.8904473 55.5093973,34.1281905 L55.4482351,32.1423932 Z" id="Fill-75" fill="#FFFFFF"></path>
            <g id="Group-80" transform="translate(17.756757, 28.363361)">
                <path d="M0.161586486,23.1821365 L0.161586486,10.8115959 C0.161586486,7.48713649 2.38611351,4.56812297 5.60107297,3.68817703 L13.2345054,1.59682568 L15.3771541,1.01282568 L17.0758838,0.548190541 C18.3770595,0.193055405 19.759127,0.199960811 21.0603027,0.569893243 L22.6041541,1.01282568 L23.8826405,1.38275811 L31.7597351,3.63687973 C34.9224108,4.54543378 37.1094514,7.44274459 37.1094514,10.7455014 L37.1094514,23.1821365" id="Fill-77" fill="#FFFFFF"></path>
                <path d="M0.161586486,23.1821365 L0.161586486,10.8115959 C0.161586486,7.48713649 2.38611351,4.56812297 5.60107297,3.68817703 L13.2345054,1.59682568 L15.3771541,1.01282568 L17.0758838,0.548190541 C18.3770595,0.193055405 19.759127,0.199960811 21.0603027,0.569893243 L22.6041541,1.01282568 L23.8826405,1.38275811 L31.7597351,3.63687973 C34.9224108,4.54543378 37.1094514,7.44274459 37.1094514,10.7455014 L37.1094514,23.1821365" id="Stroke-79" stroke="#000000" stroke-linecap="round" stroke-linejoin="round"></path>
            </g>
            <g id="Group-84" transform="translate(32.554054, 39.214712)">
                <polyline id="Fill-81" fill="#FFFFFF" points="6.9640027 12.3307851 3.97001622 0.176285135 0.905002703 12.3307851"></polyline>
                <polyline id="Stroke-83" stroke="#000000" stroke-linecap="round" stroke-linejoin="round" points="6.9640027 12.3307851 3.97001622 0.176285135 0.905002703 12.3307851"></polyline>
            </g>
            <path d="M40.9264635,40.6807297 L38.8213014,39.6794459 C38.3369365,40.407473 37.4283824,41.4669595 36.8966662,41.4580811 C36.3659365,41.4492027 34.9848554,41.8043378 34.0832068,39.3904054 C33.7951527,38.617 32.9517068,41.1808784 31.9652203,40.6807297 C31.9652203,40.6807297 31.7945581,37.231973 34.9384905,37.2783378 C38.0814365,37.3247027 36.1183284,37.6255811 36.1183284,37.6255811 L39.3530176,36.9853514 L40.8317608,39.3904054 L40.9264635,40.6807297 Z" id="Fill-85" fill="#ECECEC"></path>
            <path d="M34.7041014,37.3243081 L38.0818311,37.3243081 C38.6608986,37.3243081 39.0140608,37.9605919 38.710223,38.4528486 L37.0667365,41.1084703 C36.7806554,41.568173 36.114777,41.5770514 35.8188311,41.1232676 L34.0855743,38.4666595 C33.7649662,37.9753892 34.1171419,37.3243081 34.7041014,37.3243081" id="Fill-87" fill="#FFFFFF"></path>
            <path d="M34.7041014,37.3243081 L38.0818311,37.3243081 C38.6608986,37.3243081 39.0140608,37.9605919 38.710223,38.4528486 L37.0667365,41.1084703 C36.7806554,41.568173 36.114777,41.5770514 35.8188311,41.1232676 L34.0855743,38.4666595 C33.7649662,37.9753892 34.1171419,37.3243081 34.7041014,37.3243081 Z" id="Stroke-89" stroke="#000000" stroke-linecap="round" stroke-linejoin="round"></path>
            <path d="M38.3417703,37.9139311 C38.3417703,37.9139311 38.8103514,38.0323095 38.4246351,38.5867149 C38.4246351,38.5867149 37.1767297,38.1092554 36.3313108,38.3095122 C36.3313108,38.3095122 35.2067162,38.9102824 34.3603108,38.5867149 L34.1452568,38.2986608 C34.1452568,38.2986608 32.8204054,36.9856473 34.5447838,36.9856473 C36.2691622,36.9856473 35.8656892,37.370377 36.5601757,37.5400527 C36.5601757,37.5400527 37.8416216,36.9945257 38.3417703,37.9139311" id="Fill-91" fill="#067F71"></path>
            <path d="M31.9652203,41.173973 C31.9010986,41.173973 31.8359905,41.1611486 31.7748284,41.1355 C31.5795041,41.0546081 31.4581662,40.8573108 31.4729635,40.6462027 L31.7304365,37.0070541 C31.4749365,35.3408784 31.471977,29.1102297 31.471977,28.8419054 C31.471977,28.616 31.6258689,28.4177162 31.8468419,28.3634595 C31.8863014,28.3535946 31.9257608,28.3486622 31.9652203,28.3486622 C32.1457473,28.3486622 32.3144365,28.4473108 32.4012473,28.6120541 L36.9972878,37.3099054 C37.0693014,37.4480135 37.0732473,37.6127568 37.0051797,37.7528378 C36.9380986,37.8939054 36.8078824,37.9935405 36.654977,38.0251081 L34.610977,38.4236486 L32.3351527,41.0062703 C32.2394635,41.1147838 32.1043149,41.173973 31.9652203,41.173973" id="Fill-93" fill="#FFFFFF"></path>
            <path d="M31.9652203,27.8544324 C31.8863014,27.8544324 31.8063959,27.8642973 31.727477,27.884027 C31.2875041,27.993527 30.9787338,28.3881216 30.9787338,28.8419054 C30.9787338,29.5087703 30.9856392,35.2728108 31.2342338,37.0257973 L30.9807068,40.6106892 C30.9511122,41.0329054 31.1937878,41.4265135 31.5844365,41.5902703 C31.7067608,41.6425541 31.836977,41.6672162 31.9642338,41.6672162 C32.2414365,41.6672162 32.5137068,41.5498243 32.7050851,41.3318108 L34.8694365,38.8754595 L36.7506662,38.5075 C37.056477,38.4473243 37.315923,38.2460811 37.4510716,37.9649324 C37.5842473,37.6837838 37.5783284,37.3552838 37.4323284,37.0790676 L32.8372743,28.3802297 C32.6636527,28.0517297 32.3243014,27.8544324 31.9652203,27.8544324 M31.9652203,28.8419054 L36.5602743,37.5397568 L34.3515311,37.9718378 L31.9652203,40.6807297 L32.2266392,36.9853514 C31.9997473,35.6437297 31.9652203,30.4883514 31.9652203,28.8419054" id="Fill-95" fill="#000000"></path>
            <path d="M40.9264635,41.173973 C40.7765176,41.173973 40.6295311,41.1049189 40.5348284,40.9796351 L38.6190716,38.4670541 L36.2406527,38.0251081 C36.0867608,37.9965 35.9555581,37.8968649 35.8874905,37.7548108 C35.8184365,37.6137432 35.8213959,37.449 35.8943959,37.3099054 L40.4904365,28.6120541 C40.5772473,28.4473108 40.7459365,28.3486622 40.9264635,28.3486622 C40.965923,28.3486622 41.0053824,28.3535946 41.0448419,28.3634595 C41.2658149,28.4177162 41.4197414,28.616 41.4197414,28.8419054 C41.4197414,31.2509054 41.1819635,33.945 40.9442203,35.4000676 L41.4177338,40.6363378 C41.4374635,40.8553378 41.3102068,41.0615135 41.1050176,41.1404324 C41.0468149,41.1631216 40.9866392,41.173973 40.9264635,41.173973" id="Fill-97" fill="#FFFFFF"></path>
            <path d="M40.925477,27.8544324 C40.5673824,27.8544324 40.2280311,28.0517297 40.053423,28.3802297 L35.4583689,37.0790676 C35.3123689,37.3562703 35.30645,37.6867432 35.4425851,37.9688784 C35.5787203,38.2510135 35.8421122,38.4522568 36.1498959,38.509473 L38.3418689,38.9178784 L40.1412203,41.2775541 C40.3316122,41.5281216 40.6245986,41.6672162 40.9264635,41.6672162 C41.0458284,41.6672162 41.1671662,41.6455135 41.2835716,41.6001351 C41.6929635,41.4403243 41.9484635,41.0289595 41.9080176,40.5909595 L41.440423,35.4178243 C41.6791527,33.9302027 41.91295,31.245973 41.91295,28.8419054 C41.91295,28.3881216 41.6041797,27.993527 41.1632203,27.884027 C41.0843014,27.8642973 41.0043959,27.8544324 40.925477,27.8544324 L40.925477,27.8544324 Z M40.9264635,28.8419054 C40.9264635,31.3179865 40.67195,34.0397027 40.4470311,35.3823108 L40.9264635,40.6807297 L38.8962743,38.0172162 L36.330423,37.5397568 L40.9264635,28.8419054 L40.9264635,28.8419054 Z" id="Fill-99" fill="#000000"></path>
            <path d="M36.5604716,38.0333946 C36.3937554,38.0333946 36.238877,37.9495432 36.1471338,37.8094622 L31.5520797,30.7590432 C31.4997959,30.6781514 31.4721743,30.5844351 31.4721743,30.4897324 L31.4721743,20.1434622 C31.4721743,19.8711919 31.6921608,19.6502189 31.9654176,19.6502189 L40.8319581,19.6502189 C41.1042284,19.6502189 41.3252014,19.8711919 41.3252014,20.1434622 L41.3252014,30.4897324 C41.3252014,30.5795027 41.3005392,30.6673 41.2541743,30.7442459 L36.9826878,37.7956514 C36.8948905,37.9406649 36.7380392,38.0304351 36.5683635,38.0333946 L36.5604716,38.0333946 Z" id="Fill-101" fill="#FFFFFF"></path>
            <path d="M40.8330432,19.157173 L31.9655162,19.157173 C31.4199892,19.157173 30.9790297,19.5981324 30.9790297,20.1436595 L30.9790297,30.4879568 C30.9790297,30.6803216 31.0332865,30.8667676 31.1388405,31.0275649 L35.7338946,38.0789703 C35.9163946,38.3581459 36.2271378,38.5268351 36.5605703,38.5268351 C36.5655027,38.5268351 36.5714216,38.5268351 36.5773405,38.5258486 C36.9157054,38.5209162 37.2284216,38.3403892 37.4040162,38.0503622 L41.6755027,30.9999432 C41.7692189,30.8460514 41.8195297,30.6694703 41.8195297,30.4879568 L41.8195297,20.1436595 C41.8195297,19.5981324 41.3775838,19.157173 40.8330432,19.157173 M40.8330432,20.1436595 L40.8330432,30.4879568 L36.5605703,37.5403486 L31.9655162,30.4879568 L31.9655162,20.1436595 L40.8330432,20.1436595" id="Fill-103" fill="#000000"></path>
            <path d="M40.7029257,26.6087959 L40.6417635,28.6892959 C40.6417635,28.6892959 36.0693986,31.3242014 32.2201284,28.6892959 L32.0050743,26.0859581 L40.7029257,26.6087959 Z" id="Fill-105" fill="#ECECEC"></path>
            <path d="M36.4410081,0.492807862 C32.4901297,0.481109459 24.0477784,1.19532568 26.1637919,13.3162851 C27.5241568,21.1134743 30.7055757,27.6617716 36.3601162,27.6795573 C42.0146568,27.6953122 45.9063459,21.2584878 46.6412784,13.3784338 C47.5547649,3.59150135 45.0481027,3.96537973 42.4635081,3.03413649 C42.1221838,2.91082568 41.8025622,2.7263527 41.5302919,2.48269054 C40.8466568,1.87008243 39.0305351,0.500839189 36.4410081,0.492807862" id="Fill-107" fill="#4695EB"></path>
            <path d="M36.4410081,0.492807862 C32.4901297,0.481109459 24.0477784,1.19532568 26.1637919,13.3162851 C27.5241568,21.1134743 30.7055757,27.6617716 36.3601162,27.6795573 C42.0146568,27.6953122 45.9063459,21.2584878 46.6412784,13.3784338 C47.5547649,3.59150135 45.0481027,3.96537973 42.4635081,3.03413649 C42.1221838,2.91082568 41.8025622,2.7263527 41.5302919,2.48269054 C40.8466568,1.87008243 39.0305351,0.500839189 36.4410081,0.492807862 Z" id="Stroke-109" stroke="#000000"></path>
            <path d="M45.9206342,16.1225432 C45.8998351,23.4866649 41.6184838,28.7051784 36.3575514,28.6894303 C31.0956324,28.6745973 26.8458486,23.4304351 26.8684474,16.065327 C26.8892541,8.70120541 31.1725784,2.74282703 36.4344973,2.75956198 C41.6954297,2.77538108 45.9422541,8.75743514 45.9206342,16.1225432" id="Fill-111" fill="#FFFFFF"></path>
            <path d="M45.9206342,16.1225432 C45.8998351,23.4866649 41.6184838,28.7051784 36.3575514,28.6894303 C31.0956324,28.6745973 26.8458486,23.4304351 26.8684474,16.065327 C26.8892541,8.70120541 31.1725784,2.74282703 36.4344973,2.75956198 C41.6954297,2.77538108 45.9422541,8.75743514 45.9206342,16.1225432 Z" id="Stroke-113" stroke="#000000" stroke-linecap="round" stroke-linejoin="round"></path>
            <path d="M43.9340635,5.52846757 L46.0382392,12.4437378 C46.0382392,12.4437378 44.9688878,8.73158919 41.0505635,8.37546757 C41.0505635,8.37546757 39.1614419,7.98975135 39.8480365,6.74875135 C39.8480365,6.74875135 39.3261851,7.91971081 38.1887662,8.34192703 C38.1887662,8.34192703 34.2299959,9.73484595 30.9982662,9.40733243 C30.9982662,9.40733243 28.4146581,8.57375135 27.3324824,11.9939 C26.3529014,11.5351838 27.7211581,8.38631892 27.7211581,8.38631892 L31.709523,2.94880541 L37.7675365,1.54404865 L43.9340635,5.52846757 Z" id="Fill-115" fill="#4695EB"></path>
            <path d="M27.307327,14.1833081 C27.307327,14.1833081 27.4641784,9.40180811 32.7280703,9.80922703 C32.7280703,9.80922703 38.5019757,9.96607838 39.4766243,8.05229459 C39.4766243,8.05229459 40.4788946,9.2124027 41.8757595,9.12559189 C41.8757595,9.12559189 44.8381784,9.44817297 45.4724892,14.4822135 C45.4724892,14.4822135 45.2160027,9.74313243 43.2094892,8.90264595 C43.2094892,8.90264595 39.6433405,8.39460541 39.5979622,7.21871351 C39.5979622,7.21871351 37.9130432,9.03088919 34.8125162,9.18576757 C34.8125162,9.18576757 32.7073541,9.31795676 30.8823541,9.32782162 C30.8823541,9.32782162 28.6844622,8.7527 27.6920568,12.0899838 L27.307327,14.1833081 Z" id="Fill-117" fill="#ECECEC"></path>
            <path d="M27.3323838,11.9936041 C27.3323838,11.9936041 27.9726135,9.23045541 30.4338973,9.31430676 C33.3815189,9.41690135 39.6023027,9.34291486 39.9811135,6.20983378" id="Stroke-119" stroke="#000000" stroke-linecap="round" stroke-linejoin="round"></path>
            <path d="M45.3887365,11.6631311 C45.3887365,11.6631311 44.947777,8.96114459 42.0011419,8.56556351 C39.4856014,8.22818514 39.5980608,7.21900946 39.5980608,7.21900946" id="Stroke-121" stroke="#000000" stroke-linecap="round" stroke-linejoin="round"></path>
            <g id="Group-126" transform="translate(44.391892, 13.566064)">
                <path d="M1.08069595,0.915854054 C2.36214189,0.9198 3.19868243,1.83723243 3.1957308,3.11867838 C3.19177703,4.40012432 1.70020946,5.56121892 0.881425676,5.5582651" id="Fill-123" fill="#FFFFFF"></path>
                <path d="M1.08069595,0.915854054 C2.36214189,0.9198 3.19868243,1.83723243 3.1957308,3.11867838 C3.19177703,4.40012432 1.70020946,5.56121892 0.881425676,5.5582651" id="Stroke-125" stroke="#000000" stroke-linecap="round" stroke-linejoin="round"></path>
            </g>
            <g id="Group-130" transform="translate(24.662162, 13.566064)">
                <path d="M2.67022162,0.861880495 C1.38778919,0.857947297 0.539410811,1.7704473 0.535460533,3.05287973 C0.532505405,4.33432568 2.04676216,5.39381216 2.86554595,5.39578514" id="Fill-127" fill="#FFFFFF"></path>
                <path d="M2.67022162,0.861880495 C1.38778919,0.857947297 0.539410811,1.7704473 0.535460533,3.05287973 C0.532505405,4.33432568 2.04676216,5.39381216 2.86554595,5.39578514" id="Stroke-129" stroke="#000000" stroke-linecap="round" stroke-linejoin="round"></path>
            </g>
            <path d="M39.0652595,3.98609595 C39.0652595,3.98609595 37.5776378,7.34606892 30.8063946,6.57956892" id="Stroke-131" stroke="#000000" stroke-linecap="round" stroke-linejoin="round"></path>
            <path d="M30.5057135,3.96103919 C30.5057135,3.96103919 27.0895108,5.23557973 27.1033216,9.83162027" id="Stroke-133" stroke="#000000" stroke-linecap="round" stroke-linejoin="round"></path>
            <g id="Group-138" transform="translate(24.662162, 41.187685)">
                <path d="M0.730986486,10.3578122 L0.730986486,0.909244595" id="Fill-135" fill="#009385"></path>
                <path d="M0.730986486,10.3578122 L0.730986486,0.909244595" id="Stroke-137" stroke="#000000" stroke-linecap="round" stroke-linejoin="round"></path>
            </g>
            <g id="Group-142" transform="translate(46.364865, 41.187685)">
                <path d="M1.11246081,10.3578122 L1.11246081,0.909244595" id="Fill-139" fill="#009385"></path>
                <path d="M1.11246081,10.3578122 L1.11246081,0.909244595" id="Stroke-141" stroke="#000000" stroke-linecap="round" stroke-linejoin="round"></path>
            </g>
            <path d="M37.9785459,25.7321054 C37.9785459,25.8258216 37.3649514,25.9007946 36.6083162,25.9007946 C35.8516811,25.9007946 35.2380865,25.8258216 35.2380865,25.7321054 C35.2380865,25.6374027 35.8516811,25.431227 36.6083162,25.431227 C37.3649514,25.431227 37.9785459,25.6374027 37.9785459,25.7321054" id="Fill-143" fill="#ECECEC"></path>
            <g id="Group-148" transform="translate(17.756757, 51.052550)">
                <path d="M37.1096486,0.4997 L0.161783784,0.4997" id="Fill-145" fill="#009385"></path>
                <path d="M37.1096486,0.4997 L0.161783784,0.4997" id="Stroke-147" stroke="#000000" stroke-linecap="round" stroke-linejoin="round"></path>
            </g>
            <polygon id="Fill-149" fill="#FFFFFF" points="39.1075797 46.0967378 37.3249986 51.1731973 41.9703635 51.1731973"></polygon>
            <polygon id="Fill-151" fill="#FFFFFF" points="32.6723338 46.0967378 30.8897527 51.1731973 35.5351176 51.1731973"></polygon>
            <polygon id="Fill-153" fill="#ECECEC" points="43.7722797 30.7175122 47.477523 35.4279851 43.7722797 37.8340257 44.5111581 39.2289176 40.2159959 51.1723095 38.5764554 51.1723095 42.3833068 30.2706338"></polygon>
            <polygon id="Fill-155" fill="#ECECEC" points="29.282273 30.7175122 25.5780162 35.4279851 29.282273 37.8340257 28.5433946 39.2289176 32.8385568 51.1723095 34.4780973 51.1723095 30.6712459 30.2706338"></polygon>
            <polygon id="Fill-157" fill="#4695EB" points="26.8680446 35.2280243 30.4065716 37.8343216 29.4210716 39.3909973 33.7330041 51.5454973 35.9821932 51.5454973 31.5143959 28.8415108"></polygon>
            <polygon id="Stroke-159" stroke="#000000" points="26.8680446 35.2280243 30.4065716 37.8343216 29.4210716 39.3909973 33.7330041 51.5454973 35.9821932 51.5454973 31.5143959 28.8415108"></polygon>
            <polygon id="Fill-161" fill="#4695EB" points="45.9205514 35.1326311 42.3820243 37.7389284 43.3675243 39.2956041 39.0555919 51.4501041 36.8064027 51.4501041 41.2742 28.7451311"></polygon>
            <polygon id="Stroke-163" stroke="#000000" points="45.9205514 35.1326311 42.3820243 37.7389284 43.3675243 39.2956041 39.0555919 51.4501041 36.8064027 51.4501041 41.2742 28.7451311"></polygon>
            <path d="M71.7676811,23.150273 L49.9189784,23.150273 C49.510573,23.150273 49.1801,22.8188135 49.1801,22.4113946 L49.1801,14.1268811 C49.1801,13.7174892 49.510573,13.3880027 49.9189784,13.3880027 L71.7676811,13.3880027 C72.1760865,13.3880027 72.5065595,13.7174892 72.5065595,14.1268811 L72.5065595,22.4113946 C72.5065595,22.8188135 72.1760865,23.150273 71.7676811,23.150273" id="Fill-165" fill="#FFFFFF"></path>
            <path d="M71.7676811,23.150273 L49.9189784,23.150273 C49.510573,23.150273 49.1801,22.8188135 49.1801,22.4113946 L49.1801,14.1268811 C49.1801,13.7174892 49.510573,13.3880027 49.9189784,13.3880027 L71.7676811,13.3880027 C72.1760865,13.3880027 72.5065595,13.7174892 72.5065595,14.1268811 L72.5065595,22.4113946 C72.5065595,22.8188135 72.1760865,23.150273 71.7676811,23.150273 Z" id="Stroke-167" stroke="#000000" stroke-linecap="round" stroke-linejoin="round"></path>
            <path d="M61.8680919,15.7044703 L50.9259838,15.7044703" id="Stroke-169" stroke="#ECECEC" stroke-linecap="round" stroke-linejoin="round"></path>
            <path d="M61.8680919,18.2428973 L50.9259838,18.2428973" id="Stroke-171" stroke="#ECECEC" stroke-linecap="round" stroke-linejoin="round"></path>
            <path d="M57.8932419,20.7824095 L50.9266743,20.7824095" id="Stroke-173" stroke="#ECECEC" stroke-linecap="round" stroke-linejoin="round"></path>
            <path d="M70.6049095,15.4376257 L68.9338014,15.4376257 C69.2277743,15.6704365 69.4398689,16.0048554 69.5010311,16.4714635 L70.6049095,16.4714635 L70.6049095,16.9775311 L69.5118824,16.9775311 C69.4092878,18.0103824 68.5895176,18.6683689 67.2932743,18.7088149 C68.0824635,19.5295716 68.9436662,20.562423 69.7950041,21.6061257 L68.8223284,21.6061257 C68.0321527,20.6541662 67.2932743,19.7732338 66.3413149,18.7601122 L66.3413149,18.1317203 L66.8976932,18.1317203 C67.9917068,18.1317203 68.5786662,17.67695 68.6506797,16.9775311 L66.3413149,16.9775311 L66.3413149,16.4714635 L68.6191122,16.4714635 C68.4780446,15.8835176 67.9413959,15.5895446 67.059477,15.5895446 L66.3413149,15.5895446 L66.3413149,14.9305716 L70.6049095,14.9305716 L70.6049095,15.4376257 Z" id="Fill-175" fill="#4695EB"></path>
            <path d="M20.8787892,22.7475892 L2.71757297,22.7475892 C2.31015405,22.7475892 1.97869459,22.4171162 1.97869459,22.0087108 L1.97869459,15.2680486 C1.97869459,14.8596432 2.31015405,14.5291703 2.71757297,14.5291703 L20.8787892,14.5291703 C21.2862081,14.5291703 21.6176676,14.8596432 21.6176676,15.2680486 L21.6176676,22.0087108 C21.6176676,22.4171162 21.2862081,22.7475892 20.8787892,22.7475892" id="Fill-177" fill="#FFFFFF"></path>
            <path d="M20.8787892,22.7475892 L2.71757297,22.7475892 C2.31015405,22.7475892 1.97869459,22.4171162 1.97869459,22.0087108 L1.97869459,15.2680486 C1.97869459,14.8596432 2.31015405,14.5291703 2.71757297,14.5291703 L20.8787892,14.5291703 C21.2862081,14.5291703 21.6176676,14.8596432 21.6176676,15.2680486 L21.6176676,22.0087108 C21.6176676,22.4171162 21.2862081,22.7475892 20.8787892,22.7475892 Z" id="Stroke-179" stroke="#000000" stroke-linecap="round" stroke-linejoin="round"></path>
            <path d="M12.6612581,16.4790595 L3.44846081,16.4790595" id="Stroke-181" stroke="#ECECEC" stroke-linecap="round" stroke-linejoin="round"></path>
            <path d="M12.6612581,18.616677 L3.44846081,18.616677" id="Stroke-183" stroke="#ECECEC" stroke-linecap="round" stroke-linejoin="round"></path>
            <path d="M9.3146027,20.7543932 L3.44895405,20.7543932" id="Stroke-185" stroke="#ECECEC" stroke-linecap="round" stroke-linejoin="round"></path>
            <path d="M20.0166,16.2545351 L18.6088838,16.2545351 C18.8564919,16.4508459 19.0360324,16.7319946 19.0873297,17.1246162 L20.0166,17.1246162 L20.0166,17.5507784 L19.0952216,17.5507784 C19.0093973,18.4208595 18.3188568,18.9752649 17.2278027,19.0088054 C17.8936811,19.7003324 18.6177622,20.569427 19.3349378,21.4483865 L18.5161541,21.4483865 C17.8502757,20.646373 17.2278027,19.9045351 16.4257892,19.0522108 L16.4257892,18.5234541 L16.8953568,18.5234541 C17.8167351,18.5234541 18.3109649,18.1397108 18.3701541,17.5507784 L16.4257892,17.5507784 L16.4257892,17.1246162 L18.3454919,17.1246162 C18.226127,16.6303865 17.7743162,16.3827784 17.0324784,16.3827784 L16.4257892,16.3827784 L16.4257892,15.828373 L20.0166,15.828373 L20.0166,16.2545351 Z" id="Fill-187" fill="#4695EB"></path>
            <path d="M44.1123216,48.6737365 L1.23172703,48.6737365 C0.824308108,48.6737365 0.492848649,48.342277 0.492848649,47.9338716 L0.492848649,30.8479257 C0.492848649,30.4405068 0.824308108,30.1090473 1.23172703,30.1090473 L44.1123216,30.1090473 C44.520727,30.1090473 44.8512,30.4405068 44.8512,30.8479257 L44.8512,47.9338716 C44.8512,48.342277 44.520727,48.6737365 44.1123216,48.6737365" id="Fill-189" fill="#FFFFFF"></path>
            <path d="M44.1123216,48.6737365 L1.23172703,48.6737365 C0.824308108,48.6737365 0.492848649,48.342277 0.492848649,47.9338716 L0.492848649,30.8479257 C0.492848649,30.4405068 0.824308108,30.1090473 1.23172703,30.1090473 L44.1123216,30.1090473 C44.520727,30.1090473 44.8512,30.4405068 44.8512,30.8479257 L44.8512,47.9338716 C44.8512,48.342277 44.520727,48.6737365 44.1123216,48.6737365 Z" id="Stroke-191" stroke="#000000" stroke-linecap="round" stroke-linejoin="round"></path>
            <path d="M24.6215189,34.5142027 L3.81355946,34.5142027" id="Stroke-193" stroke="#ECECEC" stroke-linecap="round" stroke-linejoin="round"></path>
            <path d="M24.6215189,39.3425608 L3.81355946,39.3425608" id="Stroke-195" stroke="#ECECEC" stroke-linecap="round" stroke-linejoin="round"></path>
            <path d="M17.0619743,44.1709189 L3.81346081,44.1709189" id="Stroke-197" stroke="#ECECEC" stroke-linecap="round" stroke-linejoin="round"></path>
            <path d="M41.235727,34.0074446 L38.0562811,34.0074446 C38.6156189,34.450377 39.0200784,35.0866608 39.1354973,35.9715392 L41.235727,35.9715392 L41.235727,36.9353365 L39.155227,36.9353365 C38.9618757,38.9004176 37.4012541,40.1522689 34.9360243,40.2292149 C36.4394297,41.7898365 38.0760108,43.7539311 39.6948351,45.7387419 L37.845173,45.7387419 C36.3427541,43.9275527 34.9360243,42.2515122 33.1258216,40.3249041 L33.1258216,39.1312554 L34.1862946,39.1312554 C36.2658081,39.1312554 37.3834973,38.2641338 37.5176595,36.9353365 L33.1258216,36.9353365 L33.1258216,35.9715392 L37.4604432,35.9715392 C37.1891595,34.8548365 36.1691324,34.2964851 34.4930919,34.2964851 L33.1258216,34.2964851 L33.1258216,33.0436473 L41.235727,33.0436473 L41.235727,34.0074446 Z" id="Fill-199" fill="#4695EB"></path>
        </g>
    </g>
</svg>