<?xml version="1.0" encoding="UTF-8"?>
<svg width="73px" height="57px" viewBox="0 0 73 57" version="1.1" xmlns="http://www.w3.org/2000/svg" xmlns:xlink="http://www.w3.org/1999/xlink">
    <!-- Generator: Sketch 58 (84663) - https://sketch.com -->
    <title>Group 109</title>
    <desc>Created with Sketch.</desc>
    <g id="Group-109" stroke="none" stroke-width="1" fill="none" fill-rule="evenodd">
        <g id="Group-103" transform="translate(6.000000, 1.000000)">
            <path d="M51.021,19.6906 L9.622,19.6906 C9.235,19.6906 8.922,19.3776 8.922,18.9906 L8.922,1.1996 C8.922,0.8136 9.235,0.5006 9.622,0.5006 L51.021,0.5006 C51.408,0.5006 51.721,0.8136 51.721,1.1996 L51.721,18.9906 C51.721,19.3776 51.408,19.6906 51.021,19.6906" id="Fill-1" fill="#FFFFFF"></path>
            <path d="M51.021,19.6906 L9.622,19.6906 C9.235,19.6906 8.922,19.3776 8.922,18.9906 L8.922,1.1996 C8.922,0.8136 9.235,0.5006 9.622,0.5006 L51.021,0.5006 C51.408,0.5006 51.721,0.8136 51.721,1.1996 L51.721,18.9906 C51.721,19.3776 51.408,19.6906 51.021,19.6906 Z" id="Stroke-3" stroke="#000000" stroke-linecap="round" stroke-linejoin="round"></path>
            <path d="M48.7759,5.0539 L30.3219,5.0539" id="Stroke-5" stroke="#ECECEC" stroke-linecap="round" stroke-linejoin="round"></path>
            <path d="M48.7759,10.0451 L30.3219,10.0451" id="Stroke-7" stroke="#ECECEC" stroke-linecap="round" stroke-linejoin="round"></path>
            <path d="M40.9614,15.0363 L30.3214,15.0363" id="Stroke-9" stroke="#ECECEC" stroke-linecap="round" stroke-linejoin="round"></path>
            <path d="M20.5786,13.4855 C20.5446,13.4855 20.5116,13.4855 20.4776,13.4865 C19.1006,13.5135 17.8996,14.1055 16.9466,14.8045 C16.1706,14.3075 15.3636,14.1295 14.5366,14.3085 C12.5266,14.7495 11.1896,17.0915 11.1346,17.1905 C11.0596,17.3235 11.0606,17.4855 11.1376,17.6165 C11.2146,17.7475 11.3536,17.8275 11.5066,17.8275 L14.9976,17.8275 L15.1196,17.8275 L25.9606,17.8275 C26.1206,17.8275 26.2676,17.7375 26.3406,17.5935 C26.4136,17.4505 26.3996,17.2785 26.3056,17.1495 C24.5336,14.7175 22.6076,13.4855 20.5786,13.4855" id="Fill-11" fill="#ECECEC"></path>
            <path d="M23.9741,7.8234 C23.9741,6.2294 22.6771,4.9324 21.0831,4.9324 C19.4901,4.9324 18.1931,6.2294 18.1931,7.8234 C18.1931,9.4174 19.4901,10.7134 21.0831,10.7134 C22.6771,10.7134 23.9741,9.4174 23.9741,7.8234" id="Fill-13" fill="#ECECEC"></path>
            <path d="M16.2065,8.1203 L17.6005,8.1203 C17.8365,8.1203 18.0265,7.9293 18.0265,7.6923 C18.0265,7.4573 17.8365,7.2663 17.6005,7.2663 L16.2065,7.2663 C15.9705,7.2663 15.7785,7.4573 15.7785,7.6923 C15.7785,7.9293 15.9705,8.1203 16.2065,8.1203" id="Fill-15" fill="#ECECEC"></path>
            <path d="M24.1401,7.6926 C24.1401,7.9286 24.3311,8.1206 24.5671,8.1206 L25.9601,8.1206 C26.1961,8.1206 26.3871,7.9286 26.3871,7.6926 C26.3871,7.4576 26.1961,7.2656 25.9601,7.2656 L24.5671,7.2656 C24.3311,7.2656 24.1401,7.4576 24.1401,7.6926" id="Fill-17" fill="#ECECEC"></path>
            <path d="M21.0835,4.7668 C21.3195,4.7668 21.5115,4.5758 21.5115,4.3388 L21.5115,2.9458 C21.5115,2.7098 21.3195,2.5188 21.0835,2.5188 C20.8475,2.5188 20.6565,2.7098 20.6565,2.9458 L20.6565,4.3388 C20.6565,4.5758 20.8475,4.7668 21.0835,4.7668" id="Fill-19" fill="#ECECEC"></path>
            <path d="M20.6567,11.3058 L20.6567,12.6998 C20.6567,12.9358 20.8467,13.1258 21.0837,13.1258 C21.3197,13.1258 21.5107,12.9358 21.5107,12.6998 L21.5107,11.3058 C21.5107,11.0698 21.3197,10.8788 21.0837,10.8788 C20.8467,10.8788 20.6567,11.0698 20.6567,11.3058" id="Fill-21" fill="#ECECEC"></path>
            <path d="M23.5464,5.7873 C23.6554,5.7873 23.7654,5.7453 23.8494,5.6623 L24.8344,4.6773 C25.0014,4.5103 25.0014,4.2393 24.8344,4.0723 C24.6674,3.9053 24.3974,3.9053 24.2304,4.0723 L23.2444,5.0583 C23.0774,5.2253 23.0774,5.4953 23.2444,5.6623 C23.3284,5.7453 23.4384,5.7873 23.5464,5.7873" id="Fill-23" fill="#ECECEC"></path>
            <path d="M18.3188,9.9845 L17.3328,10.9685 C17.1668,11.1355 17.1668,11.4065 17.3328,11.5725 C17.4168,11.6565 17.5258,11.6985 17.6348,11.6985 C17.7448,11.6985 17.8538,11.6565 17.9368,11.5725 L18.9228,10.5885 C19.0898,10.4215 19.0898,10.1515 18.9228,9.9845 C18.7558,9.8175 18.4848,9.8175 18.3188,9.9845" id="Fill-25" fill="#ECECEC"></path>
            <path d="M24.23,11.5724 C24.314,11.6564 24.423,11.6984 24.533,11.6984 C24.642,11.6984 24.751,11.6564 24.834,11.5724 C25.001,11.4064 25.001,11.1354 24.834,10.9684 L23.849,9.9844 C23.682,9.8174 23.412,9.8174 23.245,9.9844 C23.078,10.1514 23.078,10.4214 23.245,10.5884 L24.23,11.5724 Z" id="Fill-27" fill="#ECECEC"></path>
            <path d="M18.3188,5.6623 C18.4018,5.7453 18.5108,5.7873 18.6208,5.7873 C18.7298,5.7873 18.8398,5.7453 18.9228,5.6623 C19.0898,5.4953 19.0898,5.2253 18.9228,5.0583 L17.9368,4.0723 C17.7698,3.9053 17.4998,3.9053 17.3328,4.0723 C17.1668,4.2393 17.1668,4.5103 17.3328,4.6773 L18.3188,5.6623 Z" id="Fill-29" fill="#ECECEC"></path>
            <path d="M54.3296,35.9396 L6.3126,35.9396 C5.8646,35.9396 5.5016,35.5766 5.5016,35.1276 L5.5016,14.4936 C5.5016,14.0446 5.8646,13.6816 6.3126,13.6816 L54.3296,13.6816 C54.7776,13.6816 55.1416,14.0446 55.1416,14.4936 L55.1416,35.1276 C55.1416,35.5766 54.7776,35.9396 54.3296,35.9396" id="Fill-31" fill="#FFFFFF"></path>
            <path d="M54.3296,35.9396 L6.3126,35.9396 C5.8646,35.9396 5.5016,35.5766 5.5016,35.1276 L5.5016,14.4936 C5.5016,14.0446 5.8646,13.6816 6.3126,13.6816 L54.3296,13.6816 C54.7776,13.6816 55.1416,14.0446 55.1416,14.4936 L55.1416,35.1276 C55.1416,35.5766 54.7776,35.9396 54.3296,35.9396 Z" id="Stroke-33" stroke="#000000" stroke-linecap="round" stroke-linejoin="round"></path>
            <path d="M51.7261,18.964 L30.3221,18.964" id="Stroke-35" stroke="#ECECEC" stroke-linecap="round" stroke-linejoin="round"></path>
            <path d="M51.7261,24.7531 L30.3221,24.7531" id="Stroke-37" stroke="#ECECEC" stroke-linecap="round" stroke-linejoin="round"></path>
            <path d="M42.6626,30.5422 L30.3216,30.5422" id="Stroke-39" stroke="#ECECEC" stroke-linecap="round" stroke-linejoin="round"></path>
            <path d="M19.022,28.7433 C18.982,28.7433 18.943,28.7433 18.905,28.7443 C17.308,28.7763 15.914,29.4623 14.808,30.2723 C13.909,29.6963 12.973,29.4893 12.014,29.6983 C9.682,30.2083 8.132,32.9263 8.067,33.0413 C7.981,33.1943 7.982,33.3823 8.071,33.5343 C8.16,33.6863 8.323,33.7793 8.499,33.7793 L12.548,33.7793 L12.689,33.7793 L25.263,33.7793 C25.45,33.7793 25.62,33.6753 25.705,33.5083 C25.79,33.3423 25.773,33.1423 25.664,32.9923 C23.609,30.1723 21.376,28.7433 19.022,28.7433" id="Fill-41" fill="#ECECEC"></path>
            <path d="M22.9595,22.176 C22.9595,20.327 21.4555,18.823 19.6065,18.823 C17.7585,18.823 16.2545,20.327 16.2545,22.176 C16.2545,24.024 17.7585,25.528 19.6065,25.528 C21.4555,25.528 22.9595,24.024 22.9595,22.176" id="Fill-43" fill="#ECECEC"></path>
            <path d="M13.9507,22.5197 L15.5667,22.5197 C15.8407,22.5197 16.0617,22.2977 16.0617,22.0247 C16.0617,21.7497 15.8407,21.5297 15.5667,21.5297 L13.9507,21.5297 C13.6767,21.5297 13.4547,21.7497 13.4547,22.0247 C13.4547,22.2977 13.6767,22.5197 13.9507,22.5197" id="Fill-45" fill="#ECECEC"></path>
            <path d="M23.1518,22.0246 C23.1518,22.2976 23.3738,22.5196 23.6478,22.5196 L25.2628,22.5196 C25.5368,22.5196 25.7578,22.2976 25.7578,22.0246 C25.7578,21.7506 25.5368,21.5296 25.2628,21.5296 L23.6478,21.5296 C23.3738,21.5296 23.1518,21.7506 23.1518,22.0246" id="Fill-47" fill="#ECECEC"></path>
            <path d="M19.6069,18.6301 C19.8809,18.6301 20.1029,18.4081 20.1029,18.1351 L20.1029,16.5191 C20.1029,16.2451 19.8809,16.0241 19.6069,16.0241 C19.3339,16.0241 19.1119,16.2451 19.1119,16.5191 L19.1119,18.1351 C19.1119,18.4081 19.3339,18.6301 19.6069,18.6301" id="Fill-49" fill="#ECECEC"></path>
            <path d="M19.1118,26.215 L19.1118,27.831 C19.1118,28.105 19.3338,28.326 19.6068,28.326 C19.8818,28.326 20.1028,28.105 20.1028,27.831 L20.1028,26.215 C20.1028,25.942 19.8818,25.72 19.6068,25.72 C19.3338,25.72 19.1118,25.942 19.1118,26.215" id="Fill-51" fill="#ECECEC"></path>
            <path d="M22.4643,19.8137 C22.5903,19.8137 22.7173,19.7657 22.8143,19.6687 L23.9573,18.5257 C24.1513,18.3327 24.1513,18.0187 23.9573,17.8257 C23.7643,17.6317 23.4503,17.6317 23.2563,17.8257 L22.1133,18.9677 C21.9203,19.1617 21.9203,19.4757 22.1133,19.6687 C22.2103,19.7657 22.3373,19.8137 22.4643,19.8137" id="Fill-53" fill="#ECECEC"></path>
            <path d="M16.3999,24.6818 L15.2569,25.8248 C15.0629,26.0178 15.0629,26.3308 15.2569,26.5248 C15.3539,26.6208 15.4809,26.6698 15.6069,26.6698 C15.7339,26.6698 15.8609,26.6208 15.9579,26.5248 L17.0999,25.3828 C17.2949,25.1898 17.2949,24.8748 17.0999,24.6818 C16.9069,24.4888 16.5929,24.4888 16.3999,24.6818" id="Fill-55" fill="#ECECEC"></path>
            <path d="M23.2563,26.5246 C23.3533,26.6216 23.4803,26.6706 23.6073,26.6706 C23.7343,26.6706 23.8603,26.6216 23.9573,26.5246 C24.1513,26.3316 24.1513,26.0176 23.9573,25.8246 L22.8143,24.6816 C22.6203,24.4886 22.3073,24.4886 22.1133,24.6816 C21.9203,24.8756 21.9203,25.1896 22.1133,25.3826 L23.2563,26.5246 Z" id="Fill-57" fill="#ECECEC"></path>
            <path d="M16.3999,19.6691 C16.4969,19.7661 16.6239,19.8141 16.7509,19.8141 C16.8779,19.8141 17.0039,19.7661 17.0999,19.6691 C17.2949,19.4761 17.2949,19.1611 17.0999,18.9681 L15.9579,17.8251 C15.7639,17.6321 15.4509,17.6321 15.2569,17.8251 C15.0629,18.0191 15.0629,18.3321 15.2569,18.5251 L16.3999,19.6691 Z" id="Fill-59" fill="#ECECEC"></path>
            <path d="M59.4526,52.8859 L1.1896,52.8859 C0.8086,52.8859 0.5006,52.5759 0.5006,52.1959 L0.5006,26.8329 C0.5006,26.4509 0.8086,26.1429 1.1896,26.1429 L59.4526,26.1429 C59.8336,26.1429 60.1426,26.4509 60.1426,26.8329 L60.1426,52.1959 C60.1426,52.5759 59.8336,52.8859 59.4526,52.8859" id="Fill-61" fill="#FFFFFF"></path>
            <path d="M59.4526,52.8859 L1.1896,52.8859 C0.8086,52.8859 0.5006,52.5759 0.5006,52.1959 L0.5006,26.8329 C0.5006,26.4509 0.8086,26.1429 1.1896,26.1429 L59.4526,26.1429 C59.8336,26.1429 60.1426,26.4509 60.1426,26.8329 L60.1426,52.1959 C60.1426,52.5759 59.8336,52.8859 59.4526,52.8859 Z" id="Stroke-63" stroke="#000000" stroke-linecap="round" stroke-linejoin="round"></path>
            <path d="M56.0386,32.4885 L30.3216,32.4885" id="Stroke-65" stroke="#ECECEC" stroke-linecap="round" stroke-linejoin="round"></path>
            <path d="M56.0386,39.4445 L30.3216,39.4445" id="Stroke-67" stroke="#ECECEC" stroke-linecap="round" stroke-linejoin="round"></path>
            <path d="M45.1489,46.4006 L30.3219,46.4006" id="Stroke-69" stroke="#ECECEC" stroke-linecap="round" stroke-linejoin="round"></path>
            <path d="M8.9663,49.6945 C8.9663,49.6945 16.2783,38.7575 24.2433,49.6945 L8.9663,49.6945 Z" id="Stroke-71" stroke="#000000" stroke-linecap="round" stroke-linejoin="round"></path>
            <path d="M9.1362,49.6945 L4.1012,49.6945 C4.1012,49.6945 7.4642,43.7115 11.6332,46.7385" id="Stroke-73" stroke="#000000" stroke-linecap="round" stroke-linejoin="round"></path>
            <path d="M20.8804,36.3478 C20.8804,38.2438 19.3434,39.7808 17.4474,39.7808 C15.5524,39.7808 14.0154,38.2438 14.0154,36.3478 C14.0154,34.4518 15.5524,32.9148 17.4474,32.9148 C19.3434,32.9148 20.8804,34.4518 20.8804,36.3478" id="Fill-75" fill="#4695EB"></path>
            <path d="M20.8804,36.3478 C20.8804,38.2438 19.3434,39.7808 17.4474,39.7808 C15.5524,39.7808 14.0154,38.2438 14.0154,36.3478 C14.0154,34.4518 15.5524,32.9148 17.4474,32.9148 C19.3434,32.9148 20.8804,34.4518 20.8804,36.3478 Z" id="Stroke-77" stroke="#000000"></path>
            <path d="M12.5932,36.1672 L10.6522,36.1672" id="Stroke-79" stroke="#000000" stroke-linecap="round" stroke-linejoin="round"></path>
            <path d="M24.2436,36.1672 L22.3026,36.1672" id="Stroke-81" stroke="#000000" stroke-linecap="round" stroke-linejoin="round"></path>
            <path d="M17.4477,31.4933 L17.4477,29.5513" id="Stroke-83" stroke="#000000" stroke-linecap="round" stroke-linejoin="round"></path>
            <path d="M17.4477,43.1437 L17.4477,41.2027" id="Stroke-85" stroke="#000000" stroke-linecap="round" stroke-linejoin="round"></path>
            <path d="M20.8804,32.9152 L22.2534,31.5422" id="Stroke-87" stroke="#000000" stroke-linecap="round" stroke-linejoin="round"></path>
            <path d="M12.6421,41.1535 L14.0151,39.7805" id="Stroke-89" stroke="#000000" stroke-linecap="round" stroke-linejoin="round"></path>
            <path d="M20.8804,39.7804 L22.2534,41.1534" id="Stroke-91" stroke="#000000" stroke-linecap="round" stroke-linejoin="round"></path>
            <path d="M12.6421,31.5422 L14.0151,32.9152" id="Stroke-93" stroke="#000000" stroke-linecap="round" stroke-linejoin="round"></path>
            <path d="M65.1665,43.4406 C66.7965,47.5076 64.8205,52.1276 60.7535,53.7566 C56.6865,55.3866 52.0675,53.4116 50.4375,49.3436 C48.8085,45.2766 50.7835,40.6576 54.8515,39.0276 C58.9185,37.3976 63.5365,39.3746 65.1665,43.4406" id="Fill-95" fill="#4695EB"></path>
            <path d="M65.1665,43.4406 C66.7965,47.5076 64.8205,52.1276 60.7535,53.7566 C56.6865,55.3866 52.0675,53.4116 50.4375,49.3436 C48.8085,45.2766 50.7835,40.6576 54.8515,39.0276 C58.9185,37.3976 63.5365,39.3746 65.1665,43.4406 Z" id="Stroke-97" stroke="#000000"></path>
            <polygon id="Fill-99" fill="#FFFFFF" points="54.3696 44.6213 56.6046 47.2123 61.5636 42.7803 63.0946 44.4643 56.2966 50.1573 52.7106 46.0603"></polygon>
            <polygon id="Stroke-101" stroke="#000000" stroke-linecap="round" stroke-linejoin="round" points="54.3696 44.6213 56.6046 47.2123 61.5636 42.7803 63.0946 44.4643 56.2966 50.1573 52.7106 46.0603"></polygon>
        </g>
    </g>
</svg>