<?xml version="1.0" encoding="UTF-8"?>
<svg width="73px" height="57px" viewBox="0 0 73 57" version="1.1" xmlns="http://www.w3.org/2000/svg" xmlns:xlink="http://www.w3.org/1999/xlink">
    <!-- Generator: Sketch 58 (84663) - https://sketch.com -->
    <title>Illustration/24*7 Support</title>
    <desc>Created with Sketch.</desc>
    <defs>
        <polygon id="path-1" points="38.2898074 0.796478795 0.245310913 0.796478795 0.245310913 0.397841158 38.2898074 0.397841158"></polygon>
    </defs>
    <g id="Illustration/24*7-Support" stroke="none" stroke-width="1" fill="none" fill-rule="evenodd">
        <g id="Group-90" transform="translate(14.000000, 2.069612)">
            <g id="Group-4" transform="translate(3.043560, 53.364079)">
                <mask id="mask-2" fill="white">
                    <use xlink:href="#path-1"></use>
                </mask>
                <g id="Clip-3"></g>
                <path d="M38.2898074,0.397841158 L0.245310913,0.397841158" id="Stroke-2" stroke="#000000" stroke-linecap="round" stroke-linejoin="round" mask="url(#mask-2)"></path>
            </g>
            <g id="Group-8" transform="translate(3.043560, 30.266194)">
                <path d="M0.245310913,23.4957262 L0.245310913,11.7556288 C0.245310913,8.17147419 2.5355896,5.02538295 5.8454608,4.07757319 L13.7054538,1.8235382 L15.9120346,1.19431995 L17.6620814,0.692538312 C19.0012477,0.31022849 20.4248727,0.3173968 21.7632781,0.715636197 L23.3535381,1.19431995 L24.6698777,1.59255935 L32.7809643,4.02181967 C36.0375732,5.00069211 38.2898074,8.12368547 38.2898074,11.6839457 L38.2898074,23.4957262" id="Fill-5" fill="#FFFFFF"></path>
                <path d="M0.245310913,23.4957262 L0.245310913,11.7556288 C0.245310913,8.17147419 2.5355896,5.02538295 5.8454608,4.07757319 L13.7054538,1.8235382 L15.9120346,1.19431995 L17.6620814,0.692538312 C19.0012477,0.31022849 20.4248727,0.3173968 21.7632781,0.715636197 L23.3535381,1.19431995 L24.6698777,1.59255935 L32.7809643,4.02181967 C36.0375732,5.00069211 38.2898074,8.12368547 38.2898074,11.6839457 L38.2898074,23.4957262" id="Stroke-7" stroke="#000000" stroke-linecap="round" stroke-linejoin="round"></path>
            </g>
            <g id="Group-12" transform="translate(19.022248, 42.213376)">
                <polyline id="Fill-9" fill="#2196F3" points="6.5062937 11.5485443 3.42392859 0.0410186579 0.268518056 11.5485443"></polyline>
                <polyline id="Stroke-11" stroke="#000000" stroke-linecap="round" stroke-linejoin="round" points="6.5062937 11.5485443 3.42392859 0.0410186579 0.268518056 11.5485443"></polyline>
            </g>
            <path d="M26.9797112,43.644091 L24.8119358,42.5656587 C24.312792,43.3493938 23.3784192,44.4907479 22.8305784,44.4819867 C22.2834986,44.4732254 20.8606344,44.8555352 19.9331096,42.2542355 C19.6363625,41.4203222 18.7681871,44.1833071 17.752399,43.644091 C17.752399,43.644091 17.5766335,39.9269244 20.8134592,39.9771026 C24.0495241,40.0264843 22.0286004,40.3514476 22.0286004,40.3514476 L25.3590157,39.661697 L26.8830782,42.2542355 L26.9797112,43.644091 Z" id="Fill-13" fill="#EFEFEF"></path>
            <path d="M20.5723332,40.0264843 L24.0496002,40.0264843 C24.6461379,40.0264843 25.0106042,40.711456 24.6971175,41.2419109 L23.0041374,44.1044557 C22.7111948,44.600662 22.0248721,44.6094233 21.7205161,44.1211818 L19.9354683,41.258637 C19.6052421,40.7281821 19.9681866,40.0264843 20.5723332,40.0264843" id="Fill-15" fill="#2196F3"></path>
            <path d="M20.5723332,40.0264843 L24.0496002,40.0264843 C24.6461379,40.0264843 25.0106042,40.711456 24.6971175,41.2419109 L23.0041374,44.1044557 C22.7111948,44.600662 22.0248721,44.6094233 21.7205161,44.1211818 L19.9354683,41.258637 C19.6052421,40.7281821 19.9681866,40.0264843 20.5723332,40.0264843 Z" id="Stroke-17" stroke="#000000" stroke-linecap="round" stroke-linejoin="round"></path>
            <path d="M24.3173574,40.6619947 C24.3173574,40.6619947 24.8005225,40.7894313 24.4033379,41.3867904 C24.4033379,41.3867904 23.1189557,40.8730616 22.2469759,41.0881109 C22.2469759,41.0881109 21.0911841,41.7356481 20.2184433,41.3867904 L19.9970243,41.0761637 C19.9970243,41.0761637 18.6335096,39.6616173 20.4086658,39.6616173 C22.1845829,39.6616173 21.769137,40.0765828 22.4843735,40.2589764 C22.4843735,40.2589764 23.8037567,39.6711751 24.3173574,40.6619947" id="Fill-19" fill="#067F71"></path>
            <path d="M17.752399,44.0423304 C17.7151154,44.0423304 17.6770709,44.036755 17.6413091,44.0248078 C17.4975009,43.9786121 17.393259,43.8495825 17.3749976,43.6942691 L16.121051,33.3392483 C15.9658295,32.375509 16.4824737,32.076033 16.8248742,31.8785062 C17.1421653,31.6945196 17.3719541,31.5615077 17.3719541,30.8837042 C17.3719541,30.7005141 17.4906529,30.5412183 17.6610922,30.4966155 C17.6915278,30.4886507 17.7219634,30.4854648 17.752399,30.4854648 C17.8916419,30.4854648 18.0217541,30.5643162 18.0887124,30.6973282 L22.8206869,40.0734765 C22.8762318,40.1841871 22.8792754,40.317199 22.8275349,40.4310955 C22.7757944,40.5441955 22.6753569,40.6254363 22.5566581,40.6501272 L20.4086658,41.088987 L18.0377328,43.906929 C17.9639264,43.9945416 17.8604454,44.0423304 17.752399,44.0423304" id="Fill-21" fill="#FFFFFF"></path>
            <path d="M17.752399,30.0869068 C17.6915278,30.0869068 17.6298958,30.0948716 17.5690246,30.1100047 C17.2296677,30.1992103 16.9915091,30.5178018 16.9915091,30.8833856 C16.9915091,31.3270243 16.9237899,31.3652553 16.6407389,31.5301264 C16.2854033,31.7348214 15.5465791,32.1625306 15.748215,33.4217635 L16.9975962,43.7433322 C17.0348798,44.0547554 17.2426028,44.3128146 17.5286974,44.4052061 C17.6025037,44.4291005 17.6770709,44.4402512 17.752399,44.4402512 C17.96697,44.4402512 18.1762147,44.3446737 18.3230665,44.1702449 L20.6095407,41.4534557 L22.6297035,41.0400832 C22.8663403,40.991498 23.0664543,40.8290163 23.1706962,40.6020199 C23.2741773,40.3750234 23.268851,40.109796 23.1570002,39.8867819 L18.4250257,30.51143 C18.2911091,30.2462026 18.029363,30.0869068 17.752399,30.0869068 M17.752399,30.8833856 L22.4843735,40.2587375 L20.2093126,40.7238811 L17.752399,43.6437724 L16.4992133,33.289548 C16.266381,31.8423461 17.752399,32.6587368 17.752399,30.8833856" id="Fill-23" fill="#000000"></path>
            <path d="M26.9797112,44.0423304 C26.8632951,44.0423304 26.7499225,43.9865769 26.6776379,43.885424 L24.6749756,41.1367757 L22.176974,40.6501272 C22.0582752,40.6278258 21.9570768,40.5457885 21.9045754,40.4326885 C21.852074,40.3179955 21.8543567,40.1849836 21.9106625,40.0734765 L26.6433979,30.6973282 C26.7035082,30.5786528 26.8168808,30.4990049 26.9454712,30.4862613 C26.9568845,30.4854648 26.9682979,30.4854648 26.9797112,30.4854648 C27.0953665,30.4854648 27.2064564,30.5404218 27.278741,30.6367958 C27.4689634,30.8892796 27.644729,31.0605225 27.8007115,31.2126499 C28.2861592,31.6825724 28.5737756,32.0322266 28.3827922,33.220573 L27.3578735,43.6847114 C27.3426557,43.8471931 27.2330876,43.9833909 27.0831922,44.0271973 C27.0489522,44.0375515 27.0139513,44.0423304 26.9797112,44.0423304" id="Fill-25" fill="#FFFFFF"></path>
            <path d="M26.9797112,30.0869068 C26.9568845,30.0869068 26.9332969,30.0884998 26.9104702,30.0900927 C26.6540503,30.1147836 26.4265442,30.2732829 26.3063236,30.51143 L21.5743492,39.8867819 C21.4617374,40.1105924 21.4571721,40.3774128 21.5629358,40.6052058 C21.6679386,40.8329987 21.8703353,40.9954804 22.1084939,41.0416762 L24.4611656,41.4996515 L26.3740428,44.1264385 C26.5201337,44.3271512 26.7453571,44.4402512 26.9797112,44.4402512 C27.0481913,44.4402512 27.1174323,44.4306934 27.1859124,44.409985 C27.4864639,44.3215758 27.7040784,44.0499766 27.7360358,43.7250132 L28.7617154,33.2600783 C28.9701993,31.9251799 28.6019285,31.4464961 28.0586531,30.9200236 C27.9064752,30.7710821 27.7489709,30.6181582 27.5770098,30.3903652 C27.4324407,30.1984138 27.2117826,30.0869068 26.9797112,30.0869068 M26.9797112,30.8833856 C27.71397,31.8590721 28.2397449,31.7069447 28.0076735,33.1549431 L26.9797112,43.6437724 L24.8887857,40.7732628 L22.2469759,40.2587375 L26.9797112,30.8833856" id="Fill-27" fill="#000000"></path>
            <path d="M22.4842213,40.6572955 C22.3556309,40.6572955 22.2361712,40.5895948 22.1654085,40.4764948 L17.433434,32.8764941 C17.3938677,32.8111829 17.3718019,32.7363139 17.3718019,32.6590554 L17.3718019,21.5083523 C17.3718019,21.2885242 17.5422412,21.1101129 17.7522469,21.1101129 L26.882926,21.1101129 C27.0936925,21.1101129 27.263371,21.2885242 27.263371,21.5083523 L27.263371,32.6590554 C27.263371,32.7323315 27.2443487,32.8032181 27.2085869,32.8653434 L22.8098822,40.4653441 C22.742163,40.5824265 22.6211815,40.6549061 22.4903085,40.6572955 L22.4842213,40.6572955 Z" id="Fill-29" fill="#FFFFFF"></path>
            <path d="M26.8830782,20.7118735 L17.752399,20.7118735 C17.3316269,20.7118735 16.9915091,21.0678995 16.9915091,21.5083523 L16.9915091,32.6590554 C16.9915091,32.8127758 17.0341189,32.9649033 17.1147733,33.0939329 L21.8467478,40.6939335 C21.9867515,40.919337 22.2271927,41.0555349 22.4843735,41.0555349 C22.488178,41.0555349 22.4919824,41.0547384 22.4965478,41.0547384 C22.7582939,41.050756 22.999496,40.9057969 23.1349344,40.6716321 L27.5328782,33.0724279 C27.6051627,32.9473808 27.6439681,32.8048111 27.6439681,32.6590554 L27.6439681,21.5083523 C27.6439681,21.0678995 27.3030894,20.7118735 26.8830782,20.7118735 M26.8830782,21.5083523 L26.8830782,32.6590554 L22.4843735,40.2590561 L17.752399,32.6590554 L17.752399,21.5083523 L26.8830782,21.5083523" id="Fill-31" fill="#000000"></path>
            <path d="M26.7500746,28.4775418 L26.6861599,30.7196296 C26.6861599,30.7196296 21.9785339,33.559873 18.0158191,30.7196296 L17.7936393,27.9136348 L26.7500746,28.4775418 Z" id="Fill-33" fill="#EFEFEF"></path>
            <path d="M22.3608811,0.3283975 C18.2924026,0.315803842 9.59999607,1.08520236 11.7784239,14.1506405 C13.1799832,22.5542883 16.4548534,29.6118869 22.2779441,29.6302421 C28.1002738,29.6485249 32.1071202,22.7103981 32.8642057,14.2159518 C33.8039047,3.66738661 31.2229661,4.07040488 28.5628949,3.0668416 C28.209842,2.93382964 27.8811375,2.73470994 27.6018909,2.47266842 C26.8973068,1.81159102 25.0270394,0.337308769 22.3608811,0.3283975" id="Fill-35" fill="#2196F3"></path>
            <path d="M22.3608811,0.3283975 C18.2924026,0.315803842 9.59999607,1.08520236 11.7784239,14.1506405 C13.1799832,22.5542883 16.4548534,29.6118869 22.2779441,29.6302421 C28.1002738,29.6485249 32.1071202,22.7103981 32.8642057,14.2159518 C33.8039047,3.66738661 31.2229661,4.07040488 28.5628949,3.0668416 C28.209842,2.93382964 27.8811375,2.73470994 27.6018909,2.47266842 C26.8973068,1.81159102 25.0270394,0.337308769 22.3608811,0.3283975 Z" id="Stroke-37" stroke="#000000" stroke-linecap="round" stroke-linejoin="round"></path>
            <path d="M32.1224972,17.1743926 C32.0995874,25.1121003 27.691752,30.7368335 22.2749766,30.7201447 C16.8574403,30.7025849 12.4815623,25.0515679 12.503545,17.1130637 C12.5256939,9.17535607 16.935812,2.75414402 22.3533483,2.77083748 C27.7708846,2.78759613 32.1444799,9.23668493 32.1224972,17.1743926" id="Fill-39" fill="#FFFFFF"></path>
            <path d="M32.1224972,17.1743926 C32.0995874,25.1121003 27.691752,30.7368335 22.2749766,30.7201447 C16.8574403,30.7025849 12.4815623,25.0515679 12.503545,17.1130637 C12.5256939,9.17535607 16.935812,2.75414402 22.3533483,2.77083748 C27.7708846,2.78759613 32.1444799,9.23668493 32.1224972,17.1743926 Z" id="Stroke-41" stroke="#000000" stroke-linecap="round" stroke-linejoin="round"></path>
            <path d="M30.0767615,5.75535577 L32.243776,13.2088043 C32.243776,13.2088043 31.1412465,9.20809134 27.107769,8.82418856 C27.107769,8.82418856 25.1621734,8.40842663 25.8698011,7.07113874 C25.8698011,7.07113874 25.3318519,8.33276115 24.1600814,8.78755054 C24.1600814,8.78755054 20.0839941,10.2889131 16.7558615,9.93607296 C16.7558615,9.93607296 14.0957903,9.03764488 12.9818474,12.7245452 C11.9729074,12.2299319 13.3835973,8.83613575 13.3835973,8.83613575 L17.4893594,2.9748483 L23.727135,1.46074211 L30.0767615,5.75535577 Z" id="Fill-43" fill="#2196F3"></path>
            <path d="M12.9819996,12.7245452 C12.9819996,12.7245452 13.6416912,9.74571453 16.1746938,9.83651311 C19.2106446,9.94642719 25.6165769,9.86757579 26.0061526,6.48970922" id="Stroke-45" stroke="#000000" stroke-linecap="round" stroke-linejoin="round"></path>
            <path d="M31.5740407,12.3683599 C31.5740407,12.3683599 31.1190285,9.45563695 28.0868822,9.0295208 C25.4952911,8.66552999 25.6109463,7.57753996 25.6109463,7.57753996" id="Stroke-47" stroke="#000000" stroke-linecap="round" stroke-linejoin="round"></path>
            <g id="Group-52" transform="translate(31.196487, 15.133097)">
                <path d="M0.463762412,0.273351522 C1.78314555,0.278130395 2.64523384,1.2657641 2.64144193,2.64685833 C2.63762494,4.02954552 1.10214906,5.28001722 0.258322131,5.27684344" id="Fill-49" fill="#FFFFFF"></path>
                <path d="M0.463762412,0.273351522 C1.78314555,0.278130395 2.64523384,1.2657641 2.64144193,2.64685833 C2.63762494,4.02954552 1.10214906,5.28001722 0.258322131,5.27684344" id="Stroke-51" stroke="#000000" stroke-linecap="round" stroke-linejoin="round"></path>
            </g>
            <g id="Group-56" transform="translate(10.652459, 15.133097)">
                <path d="M2.32954061,0.215037216 C1.01015747,0.211066881 0.135894941,1.19392171 0.131322655,2.57581242 C0.127525152,3.95770313 1.68734951,5.09905724 2.53117644,5.10144668" id="Fill-53" fill="#FFFFFF"></path>
                <path d="M2.32954061,0.215037216 C1.01015747,0.211066881 0.135894941,1.19392171 0.131322655,2.57581242 C0.127525152,3.95770313 1.68734951,5.09905724 2.53117644,5.10144668" id="Stroke-55" stroke="#000000" stroke-linecap="round" stroke-linejoin="round"></path>
            </g>
            <path d="M16.2499458,4.06674108 C16.2499458,4.06674108 12.7323516,5.440667 12.7460477,10.3939686" id="Stroke-57" stroke="#000000" stroke-linecap="round" stroke-linejoin="round"></path>
            <g id="Group-62" transform="translate(10.652459, 44.602812)">
                <path d="M0.332965433,9.1591079 L0.332965433,0.567491141" id="Fill-59" fill="#009688"></path>
                <path d="M0.332965433,9.1591079 L0.332965433,0.567491141" id="Stroke-61" stroke="#000000" stroke-linecap="round" stroke-linejoin="round"></path>
            </g>
            <g id="Group-66" transform="translate(33.479157, 44.602812)">
                <path d="M0.245310913,9.1591079 L0.245310913,0.567491141" id="Fill-63" fill="#009688"></path>
                <path d="M0.245310913,9.1591079 L0.245310913,0.567491141" id="Stroke-65" stroke="#000000" stroke-linecap="round" stroke-linejoin="round"></path>
            </g>
            <path d="M23.944293,27.5317232 C23.944293,27.6320795 23.3119935,27.7141168 22.5336031,27.7141168 C21.7536909,27.7141168 21.1221523,27.6320795 21.1221523,27.5317232 C21.1221523,27.4305704 21.7536909,27.2083528 22.5336031,27.2083528 C23.3119935,27.2083528 23.944293,27.4305704 23.944293,27.5317232" id="Fill-67" fill="#EFEFEF"></path>
            <polygon id="Fill-69" fill="#000000" points="29.3292632 46.1572205 31.8257431 45.5335776 31.0990932 48.2248795"></polygon>
            <polygon id="Fill-71" fill="#2196F3" points="28.8641312 46.4053237 30.7229853 48.5844896 28.0629141 49.2662755"></polygon>
            <path d="M12.5139001,15.0790162 C12.5314006,8.80674568 17.0130423,4.39584612 22.4305786,4.41177569 C27.8481149,4.42929822 32.1509474,8.86807455 32.1326861,15.1403451 C32.1326861,15.1403451 35.8983304,2.15933366 22.324054,1.61055977 C22.324054,1.61055977 9.90100412,0.994085183 12.5139001,15.0790162" id="Fill-73" fill="#FFFFFF"></path>
            <path d="M12.5139001,15.0790162 C12.5314006,8.80674568 17.0130423,4.39584612 22.4305786,4.41177569 C27.8481149,4.42929822 32.1509474,8.86807455 32.1326861,15.1403451 C32.1326861,15.1403451 35.8983304,2.15933366 22.324054,1.61055977 C22.324054,1.61055977 9.90100412,0.994085183 12.5139001,15.0790162 Z" id="Stroke-75" stroke="#000000" stroke-linecap="round" stroke-linejoin="round"></path>
            <path d="M31.2411514,21.8350679 C31.2411514,21.8350679 34.4543895,22.4411883 34.6545036,20.1306033 L34.8812488,16.1513952 C34.8812488,16.1513952 34.852335,14.9049059 33.524582,14.149844 C33.4446886,14.1044447 33.3594689,14.0598419 33.268923,14.018425 L31.817145,13.9276264 L31.5417029,13.9109004 L31.2411514,21.8350679 Z" id="Fill-77" fill="#2196F3"></path>
            <path d="M31.2411514,21.8350679 C31.2411514,21.8350679 34.4543895,22.4411883 34.6545036,20.1306033 L34.8812488,16.1513952 C34.8812488,16.1513952 34.852335,14.9049059 33.524582,14.149844 C33.4446886,14.1044447 33.3594689,14.0598419 33.268923,14.018425 L31.817145,13.9276264 L31.5417029,13.9109004 L31.2411514,21.8350679 Z" id="Stroke-79" stroke="#000000" stroke-linecap="round" stroke-linejoin="round"></path>
            <path d="M24.8337733,24.8801656 C24.8337733,25.5269064 23.6140668,26.050193 22.1097874,26.050193 C20.6047471,26.050193 19.3858015,25.5269064 19.3858015,24.8801656 C19.3858015,24.2334249 20.6047471,23.7101383 22.1097874,23.7101383 C23.6140668,23.7101383 24.8337733,24.2334249 24.8337733,24.8801656" id="Fill-81" fill="#2196F3"></path>
            <path d="M24.8337733,24.8801656 C24.8337733,25.5269064 23.6140668,26.050193 22.1097874,26.050193 C20.6047471,26.050193 19.3858015,25.5269064 19.3858015,24.8801656 C19.3858015,24.2334249 20.6047471,23.7101383 22.1097874,23.7101383 C23.6140668,23.7101383 24.8337733,24.2334249 24.8337733,24.8801656 Z" id="Stroke-83" stroke="#000000" stroke-linecap="round" stroke-linejoin="round"></path>
            <path d="M31.2411514,21.8350679 C31.2411514,21.8350679 30.7785303,24.9046972 24.8336973,24.8800063" id="Stroke-85" stroke="#000000" stroke-linecap="round" stroke-linejoin="round"></path>
            <path d="M44.2416406,53.7626372 L0.380140609,53.7626372" id="Stroke-87" stroke="#000000" stroke-linecap="round" stroke-linejoin="round"></path>
        </g>
    </g>
</svg>