<?xml version="1.0" encoding="UTF-8"?>
<svg width="73px" height="57px" viewBox="0 0 73 57" version="1.1" xmlns="http://www.w3.org/2000/svg" xmlns:xlink="http://www.w3.org/1999/xlink">
    <!-- Generator: Sketch 58 (84663) - https://sketch.com -->
    <title>Illustration/Travelers</title>
    <desc>Created with Sketch.</desc>
    <g id="Illustration/Travelers" stroke="none" stroke-width="1" fill="none" fill-rule="evenodd">
        <g transform="translate(2.000000, 1.000000)">
            <path d="M35.4005857,36.0397382 L7.7169116,36.0397382 C5.52202806,36.0397382 3.74211346,34.1774044 3.74211346,31.8790281 L3.74211346,29.8852158 C3.74211346,27.5868395 5.52202806,25.7245057 7.7169116,25.7245057 L35.4005857,25.7245057 C37.5962642,25.7245057 39.3753838,27.5868395 39.3753838,29.8852158 L39.3753838,31.8790281 C39.3753838,34.1774044 37.5962642,36.0397382 35.4005857,36.0397382 Z" id="Fill-1" fill="#2196F3"></path>
            <path d="M35.4005857,36.0397382 L7.7169116,36.0397382 C5.52202806,36.0397382 3.74211346,34.1774044 3.74211346,31.8790281 L3.74211346,29.8852158 C3.74211346,27.5868395 5.52202806,25.7245057 7.7169116,25.7245057 L35.4005857,25.7245057 C37.5962642,25.7245057 39.3753838,27.5868395 39.3753838,29.8852158 L39.3753838,31.8790281 C39.3753838,34.1774044 37.5962642,36.0397382 35.4005857,36.0397382 Z" id="Stroke-3" stroke="#000000" stroke-linecap="round" stroke-linejoin="round"></path>
            <g id="Group-8" transform="translate(10.334475, 24.634150)">
                <path d="M10.0495616,13.6135107 L1.5832416,13.6135107 C0.982252116,13.6135107 0.494941864,13.1042397 0.494941864,12.4751404 L0.494941864,2.87554998 C0.494941864,1.61735124 1.46876741,0.597145117 2.67074637,0.597145117 L20.0787723,0.597145117 C21.2807513,0.597145117 22.2545768,1.61735124 22.2545768,2.87554998 L22.2545768,12.4751404 C22.2545768,13.1042397 21.7672666,13.6135107 21.1662771,13.6135107 L12.700752,13.6135107" id="Fill-5" fill="#FFFFFF"></path>
                <path d="M10.0495616,13.6135107 L1.5832416,13.6135107 C0.982252116,13.6135107 0.494941864,13.1042397 0.494941864,12.4751404 L0.494941864,2.87554998 C0.494941864,1.61735124 1.46876741,0.597145117 2.67074637,0.597145117 L20.0787723,0.597145117 C21.2807513,0.597145117 22.2545768,1.61735124 22.2545768,2.87554998 L22.2545768,12.4751404 C22.2545768,13.1042397 21.7672666,13.6135107 21.1662771,13.6135107 L12.700752,13.6135107" id="Stroke-7" stroke="#000000" stroke-linecap="round" stroke-linejoin="round"></path>
            </g>
            <path d="M33.7795835,52.5940388 L30.4113396,52.5940388 L30.4113396,43.0660126 L32.9846239,43.0660126 C33.8622593,43.0660126 34.5745431,43.8107797 34.5745431,44.7302967 L34.5745431,51.7618968 C34.5745431,52.2220713 34.2191962,52.5940388 33.7795835,52.5940388 Z" id="Stroke-9" stroke="#000000" stroke-linecap="round" stroke-linejoin="round"></path>
            <path d="M9.26549295,52.5940388 L13.0081629,52.5940388 L13.0081629,43.0660126 L10.0604526,43.0660126 C9.18281715,43.0660126 8.47053333,43.8107797 8.47053333,44.7302967 L8.47053333,51.7618968 C8.47053333,52.2220713 8.82588028,52.5940388 9.26549295,52.5940388 Z" id="Stroke-11" stroke="#000000" stroke-linecap="round" stroke-linejoin="round"></path>
            <path d="M34.5745431,46.6089405 L30.4113396,46.6089405" id="Stroke-13" stroke="#000000" stroke-linecap="round" stroke-linejoin="round"></path>
            <path d="M12.6339754,46.6089405 L8.47077181,46.6089405" id="Stroke-15" stroke="#000000" stroke-linecap="round" stroke-linejoin="round"></path>
            <path d="M15.9131839,25.231628 L13.5545386,25.231628 L13.5545386,23.5956367 C13.5545386,23.1354622 13.9106805,22.7634947 14.3494983,22.7634947 L15.1182242,22.7634947 C15.5578369,22.7634947 15.9131839,23.1354622 15.9131839,23.5956367 L15.9131839,25.231628 Z" id="Fill-17" fill="#FFFFFF"></path>
            <path d="M15.9131839,25.231628 L13.5545386,25.231628 L13.5545386,23.5956367 C13.5545386,23.1354622 13.9106805,22.7634947 14.3494983,22.7634947 L15.1182242,22.7634947 C15.5578369,22.7634947 15.9131839,23.1354622 15.9131839,23.5956367 L15.9131839,25.231628 Z" id="Stroke-19" stroke="#000000" stroke-linecap="round" stroke-linejoin="round"></path>
            <path d="M29.9647312,25.231628 L27.606086,25.231628 L27.606086,23.5956367 C27.606086,23.1354622 27.961433,22.7634947 28.4010457,22.7634947 L29.1697716,22.7634947 C29.6085893,22.7634947 29.9647312,23.1354622 29.9647312,23.5956367 L29.9647312,25.231628 Z" id="Fill-21" fill="#FFFFFF"></path>
            <path d="M29.9647312,25.231628 L27.606086,25.231628 L27.606086,23.5956367 C27.606086,23.1354622 27.961433,22.7634947 28.4010457,22.7634947 L29.1697716,22.7634947 C29.6085893,22.7634947 29.9647312,23.1354622 29.9647312,23.5956367 L29.9647312,25.231628 Z" id="Stroke-23" stroke="#000000" stroke-linecap="round" stroke-linejoin="round"></path>
            <polyline id="Stroke-25" stroke="#000000" stroke-linecap="round" stroke-linejoin="round" points="30.4111011 25.7240896 30.4111011 52.5939556 13.0078449 52.5939556 13.0078449 25.7240896"></polyline>
            <path d="M22.0663304,40.6652829 L21.3532516,40.6652829 C20.8174488,40.6652829 20.3841958,40.2109333 20.3841958,39.6509017 L20.3841958,37.0537865 C20.3841958,36.4937549 20.8174488,36.0394054 21.3532516,36.0394054 L22.0663304,36.0394054 C22.6013382,36.0394054 23.0353862,36.4937549 23.0353862,37.0537865 L23.0353862,39.6509017 C23.0353862,40.2109333 22.6013382,40.6652829 22.0663304,40.6652829 Z" id="Stroke-27" stroke="#000000" stroke-linecap="round" stroke-linejoin="round"></path>
            <polygon id="Fill-29" fill="#009688" points="17.3587384 52.594122 26.0595716 52.594122 26.0595716 43.4863275 17.3587384 43.4863275"></polygon>
            <polygon id="Stroke-31" stroke="#000000" stroke-linecap="round" stroke-linejoin="round" points="17.3587384 52.594122 26.0595716 52.594122 26.0595716 43.4863275 17.3587384 43.4863275"></polygon>
            <path d="M39.3737939,39.6259375 L39.3737939,54.9922721 L3.74211346,54.9922721 L3.74211346,39.6925088 C3.74211346,36.3364801 5.88691453,33.3898651 8.98646212,32.5011375 L16.3485832,30.3908253 L18.4154783,29.8008366 L20.0538901,29.3315085 C21.3083364,28.9728553 22.6406887,28.9811767 23.895135,29.3539763 L25.3840944,29.8008366 L26.6178717,30.1744684 L34.2145059,32.4495447 C37.264766,33.3673973 39.3737939,36.2915444 39.3737939,39.6259375" id="Fill-32" fill="#FFFFFF"></path>
            <path d="M39.3737939,39.6259375 L39.3737939,54.9922721 L3.74211346,54.9922721 L3.74211346,39.6925088 C3.74211346,36.3364801 5.88691453,33.3898651 8.98646212,32.5011375 L16.3485832,30.3908253 L18.4154783,29.8008366 L20.0538901,29.3315085 C21.3083364,28.9728553 22.6406887,28.9811767 23.895135,29.3539763 L25.3840944,29.8008366 L26.6178717,30.1744684 L34.2145059,32.4495447 C37.264766,33.3673973 39.3737939,36.2915444 39.3737939,39.6259375 Z" id="Stroke-33" stroke="#000000" stroke-linecap="round" stroke-linejoin="round"></path>
            <path d="M21.7674255,36.1291935 C16.9483803,36.1291935 16.8919381,30.9749058 16.8919381,30.9224808 L16.8919381,20.4790984 C16.8919381,20.2494272 17.0700091,20.0630274 17.289418,20.0630274 L25.8407987,20.0630274 C26.0602075,20.0630274 26.2382785,20.2494272 26.2382785,20.4790984 L26.2382785,30.9224808 C26.2382785,32.7232362 25.303406,36.1291935 21.7674255,36.1291935" id="Fill-34" fill="#FFFFFF"></path>
            <path d="M25.8408782,19.647206 L17.2894975,19.647206 C16.8506797,19.647206 16.4945378,20.0191735 16.4945378,20.4793481 L16.4945378,30.9227305 C16.4945378,32.8674464 17.5963519,36.5455141 21.767505,36.5455141 C25.6190844,36.5455141 26.6358378,32.8674464 26.6358378,30.9227305 L26.6358378,20.4793481 C26.6358378,20.0191735 26.2804908,19.647206 25.8408782,19.647206 M25.8408782,20.4793481 L25.8408782,30.9227305 C25.8408782,30.9227305 25.8408782,35.7133721 21.767505,35.7133721 C17.2894975,35.7133721 17.2894975,30.9227305 17.2894975,30.9227305 L17.2894975,20.4793481 L25.8408782,20.4793481" id="Fill-35" fill="#000000"></path>
            <path d="M25.8672708,26.6862954 L25.8410372,29.0678859 C25.8410372,29.0678859 21.001323,31.7656903 17.2896564,29.1061644 L17.3286095,26.4782599 L25.8672708,26.6862954 Z" id="Fill-36" fill="#EFEFEF"></path>
            <path d="M30.7480889,16.4202425 C30.727336,23.8545993 26.5991107,29.1228905 21.5248834,29.106287 C16.451451,29.0912691 12.3526392,23.7971815 12.3740192,16.3628247 C12.394772,8.92846785 16.5253823,2.91540958 21.5988146,2.93036022 C26.6730419,2.94619884 30.7694689,8.98505351 30.7480889,16.4202425" id="Fill-37" fill="#FFFFFF"></path>
            <path d="M30.7480889,16.4202425 C30.727336,23.8545993 26.5991107,29.1228905 21.5248834,29.106287 C16.451451,29.0912691 12.3526392,23.7971815 12.3740192,16.3628247 C12.394772,8.92846785 16.5253823,2.91540958 21.5988146,2.93036022 C26.6730419,2.94619884 30.7694689,8.98505351 30.7480889,16.4202425 Z" id="Stroke-38" stroke="#000000" stroke-linecap="round" stroke-linejoin="round"></path>
            <g id="Group-41" transform="translate(29.413506, 14.648446)">
                <path d="M0.888923856,0.116416669 C2.12508608,0.120577379 2.94150962,1.04508717 2.94150962,2.33990016 C2.94150962,3.84940579 1.38259379,4.80553698 0.592403915,4.80305028" id="Fill-39" fill="#FFFFFF"></path>
                <path d="M0.888923856,0.116416669 C2.12508608,0.120577379 2.94150962,1.04508717 2.94150962,2.33990016 C2.94150962,3.84940579 1.38259379,4.80553698 0.592403915,4.80305028" id="Stroke-40" stroke="#000000" stroke-linecap="round" stroke-linejoin="round"></path>
            </g>
            <g id="Group-44" transform="translate(10.334475, 14.648446)">
                <path d="M2.53003851,0.0611484139 C1.29387629,0.0570017287 0.432935013,0.979015091 0.428955128,2.2721638 C0.425780377,3.56697679 1.9139448,4.63544715 2.70413467,4.63794357" id="Fill-42" fill="#FFFFFF"></path>
                <path d="M2.53003851,0.0611484139 C1.29387629,0.0570017287 0.432935013,0.979015091 0.428955128,2.2721638 C0.425780377,3.56697679 1.9139448,4.63544715 2.70413467,4.63794357" id="Stroke-43" stroke="#000000" stroke-linecap="round" stroke-linejoin="round"></path>
            </g>
            <path d="M13.1541175,0.642829714 C13.1541175,0.642829714 1.05324201,12.1330468 12.6135449,14.7093585 C12.6135449,14.7093585 13.065082,9.56755292 16.7171265,10.5461519 C31.1313345,8.26192209 30.5184206,14.765112 30.5184206,14.765112 C33.0630864,-1.24862911 23.8487093,0.851697362 19.8794759,1.82779996 C16.2616147,2.71735978 18.7045256,0.848368794 18.7045256,0.848368794 C18.7045256,0.848368794 15.7377363,-0.914940156 13.1541175,0.642829714" id="Fill-45" fill="#2196F3"></path>
            <path d="M11.5510019,5.03762139 C11.5510019,5.03762139 9.54690866,6.2200952 9.54690866,8.69155701" id="Stroke-46" stroke="#000000" stroke-linecap="round" stroke-linejoin="round"></path>
            <g id="Group-49" transform="translate(10.334475, 42.109132)">
                <path d="M0.617206655,12.8813921 L0.617206655,0.531572325" id="Fill-47" fill="#009688"></path>
                <path d="M0.617206655,12.8813921 L0.617206655,0.531572325" id="Stroke-48" stroke="#000000" stroke-linecap="round" stroke-linejoin="round"></path>
            </g>
            <g id="Group-52" transform="translate(31.798385, 42.109132)">
                <path d="M0.450265133,12.8813921 L0.450265133,0.531572325" id="Fill-50" fill="#009688"></path>
                <path d="M0.450265133,12.8813921 L0.450265133,0.531572325" id="Stroke-51" stroke="#000000" stroke-linecap="round" stroke-linejoin="round"></path>
            </g>
            <path d="M23.0887279,26.1206885 C23.0887279,26.2147205 22.497278,26.2912776 21.767505,26.2912776 C21.0377321,26.2912776 20.4462821,26.2147205 20.4462821,26.1206885 C20.4462821,26.0266564 21.0377321,25.8177888 21.767505,25.8177888 C22.497278,25.8177888 23.0887279,26.0266564 23.0887279,26.1206885" id="Fill-53" fill="#EFEFEF"></path>
            <g id="Group-56" transform="translate(31.798385, 48.766269)">
                <path d="M0.556630732,0.271611157 L7.57691921,0.271611157" id="Fill-54" fill="#009688"></path>
                <path d="M0.556630732,0.271611157 L7.57691921,0.271611157" id="Stroke-55" stroke="#000000" stroke-linecap="round" stroke-linejoin="round"></path>
            </g>
            <g id="Group-59" transform="translate(3.179839, 48.766269)">
                <path d="M0.563626376,0.271611157 L7.58391485,0.271611157" id="Fill-57" fill="#009688"></path>
                <path d="M0.563626376,0.271611157 L7.58391485,0.271611157" id="Stroke-58" stroke="#000000" stroke-linecap="round" stroke-linejoin="round"></path>
            </g>
            <g id="Group-62" transform="translate(12.719354, 2.166315)">
                <path d="M2.86773736,0.764072807 C2.86773736,0.764072807 0.657749596,2.27607486 0.345330462,4.08431948" id="Fill-60" fill="#009688"></path>
                <path d="M2.86773736,0.764072807 C2.86773736,0.764072807 0.657749596,2.27607486 0.345330462,4.08431948" id="Stroke-61" stroke="#000000" stroke-linecap="round" stroke-linejoin="round"></path>
            </g>
            <path d="M18.7048436,0.848452008 C18.7048436,0.848452008 16.2627276,2.72077156 19.8797939,1.82788317 C23.8474374,0.848452008 33.1524399,-1.29597799 30.5179437,14.7651952 C30.5179437,14.7651952 31.0155884,8.21540535 16.7174445,10.5462352 C13.1123026,9.58927183 12.6138629,14.7094417 12.6138629,14.7094417 C1.05356,12.13313 13.1544355,0.642912928 13.1544355,0.642912928" id="Stroke-63" stroke="#000000" stroke-linecap="round" stroke-linejoin="round"></path>
            <polygon id="Fill-64" fill="#2196F3" points="4.12186567 48.7887365 10.5602437 48.7887365 10.5602437 47.4423307 4.12186567 47.4423307"></polygon>
            <polygon id="Fill-65" fill="#009688" points="32.6370675 48.8378329 38.9784605 48.8378329 38.9784605 47.4914271 32.6370675 47.4914271"></polygon>
            <path d="M11.7831301,31.700284 C11.7831301,31.700284 12.7211825,37.8864278 10.9516023,42.6404552" id="Stroke-66" stroke="#000000" stroke-linecap="round" stroke-linejoin="round"></path>
            <path d="M14.3022777,30.9778183 C14.3022777,30.9778183 15.516976,42.1834428 10.9515228,47.4775303" id="Stroke-67" stroke="#000000" stroke-linecap="round" stroke-linejoin="round"></path>
            <path d="M31.4769829,31.6962065 C31.4769829,31.6962065 30.6049122,37.8490646 32.2488887,42.5772956" id="Stroke-68" stroke="#000000" stroke-linecap="round" stroke-linejoin="round"></path>
            <path d="M29.1363833,30.9778183 C29.1363833,30.9778183 27.0989018,42.0303286 32.2486503,47.3893233" id="Stroke-69" stroke="#000000" stroke-linecap="round" stroke-linejoin="round"></path>
            <path d="M18.9516755,22.6710437 C18.9500886,23.2810038 20.2069198,24.5167347 21.7610659,24.5217382 C23.3160069,24.5258883 24.5799927,23.299311 24.5815826,22.6885187 L18.9516755,22.6710437 Z" id="Stroke-70" stroke="#000000" stroke-linecap="round" stroke-linejoin="round"></path>
            <path d="M38.0741939,22.2899227 C38.5106267,19.6603539 36.4898394,19.4573112 36.7243525,16.7986175 C36.8889091,14.9296265 37.0971885,14.4378305 37.7466705,13.5724028 C38.2920128,12.8434464 38.7832979,12.0703865 39.1768029,11.241573 C40.847808,7.71994799 44.3106522,5.29675041 48.3220185,5.29675041 C52.3317948,5.29675041 55.7922541,7.71911584 57.4648492,11.2382445 C57.8599441,12.0695543 58.353614,12.8442786 58.904521,13.5724028 C59.5595678,14.4369984 59.7757968,14.9262979 59.9522778,16.7994496 C60.2026901,19.4606398 58.3854124,19.6478718 58.6358247,22.3082298 C58.8870319,24.9669236 61.524708,24.8337809 60.9547219,27.4383854 C60.6136842,29.0011481 59.141419,30.5439394 62.7012482,33.5887471 C66.2602825,36.6335548 69.4703295,47.2891334 60.8593268,45.3760389 C52.249119,43.4629444 39.4979666,44.9999107 39.7412242,33.7643291 C39.9836869,22.5295796 36.8602906,29.6185975 38.0741939,22.2899227" id="Fill-71" fill="#2196F3"></path>
            <path d="M38.0741939,22.2899227 C38.5106267,19.6603539 36.4898394,19.4573112 36.7243525,16.7986175 C36.8889091,14.9296265 37.0971885,14.4378305 37.7466705,13.5724028 C38.2920128,12.8434464 38.7832979,12.0703865 39.1768029,11.241573 C40.847808,7.71994799 44.3106522,5.29675041 48.3220185,5.29675041 C52.3317948,5.29675041 55.7922541,7.71911584 57.4648492,11.2382445 C57.8599441,12.0695543 58.353614,12.8442786 58.904521,13.5724028 C59.5595678,14.4369984 59.7757968,14.9262979 59.9522778,16.7994496 C60.2026901,19.4606398 58.3854124,19.6478718 58.6358247,22.3082298 C58.8870319,24.9669236 61.524708,24.8337809 60.9547219,27.4383854 C60.6136842,29.0011481 59.141419,30.5439394 62.7012482,33.5887471 C66.2602825,36.6335548 69.4703295,47.2891334 60.8593268,45.3760389 C52.249119,43.4629444 39.4979666,44.9999107 39.7412242,33.7643291 C39.9836869,22.5295796 36.8602906,29.6185975 38.0741939,22.2899227 Z" id="Stroke-72" stroke="#000000" stroke-linecap="round" stroke-linejoin="round"></path>
            <path d="M57.8698016,22.5036168 C57.8698016,23.6178549 57.3546678,24.5215612 56.7187,24.5215612 C56.0819374,24.5215612 55.5668035,23.6178549 55.5668035,22.5036168 C55.5668035,21.3885464 56.0819374,20.4856724 56.7187,20.4856724 C57.3546678,20.4856724 57.8698016,21.3885464 57.8698016,22.5036168" id="Fill-73" fill="#FFFFFF"></path>
            <path d="M57.8698016,22.5036168 C57.8698016,23.6178549 57.3546678,24.5215612 56.7187,24.5215612 C56.0819374,24.5215612 55.5668035,23.6178549 55.5668035,22.5036168 C55.5668035,21.3885464 56.0819374,20.4856724 56.7187,20.4856724 C57.3546678,20.4856724 57.8698016,21.3885464 57.8698016,22.5036168 Z" id="Stroke-74" stroke="#000000" stroke-linecap="round" stroke-linejoin="round"></path>
            <path d="M38.8319494,22.5036168 C38.8319494,23.6178549 39.3478782,24.5215612 39.9838459,24.5215612 C40.6198136,24.5215612 41.1349475,23.6178549 41.1349475,22.5036168 C41.1349475,21.3885464 40.6198136,20.5372652 39.9838459,20.5372652 C39.3478782,20.5372652 38.8319494,21.3885464 38.8319494,22.5036168" id="Fill-75" fill="#FFFFFF"></path>
            <path d="M38.8319494,22.5036168 C38.8319494,23.6178549 39.3478782,24.5215612 39.9838459,24.5215612 C40.6198136,24.5215612 41.1349475,23.6178549 41.1349475,22.5036168 C41.1349475,21.3885464 40.6198136,20.5372652 39.9838459,20.5372652 C39.3478782,20.5372652 38.8319494,21.3885464 38.8319494,22.5036168 Z" id="Stroke-76" stroke="#000000" stroke-linecap="round" stroke-linejoin="round"></path>
            <g id="Group-79" transform="translate(31.798385, 33.787712)">
                <path d="M0.326092439,21.1280028 L0.326092439,9.7900677 C0.326092439,6.7327779 2.27930825,4.04995202 5.10300484,3.24110997 L11.8068994,1.31802975 L13.6893638,0.782130289 L15.181503,0.353577146 C16.32386,0.0282096146 17.5377633,0.0340346088 18.6801203,0.374380697 L20.0363215,0.782130289 L21.1588045,1.12164423 L28.0773381,3.19367787 C30.854927,4.02914847 32.7763445,6.69200294 32.7763445,9.72932133 L32.7763445,21.1280028" id="Fill-77" fill="#FFFFFF"></path>
                <path d="M0.326092439,21.1280028 L0.326092439,9.7900677 C0.326092439,6.7327779 2.27930825,4.04995202 5.10300484,3.24110997 L11.8068994,1.31802975 L13.6893638,0.782130289 L15.181503,0.353577146 C16.32386,0.0282096146 17.5377633,0.0340346088 18.6801203,0.374380697 L20.0363215,0.782130289 L21.1588045,1.12164423 L28.0773381,3.19367787 C30.854927,4.02914847 32.7763445,6.69200294 32.7763445,9.72932133 L32.7763445,21.1280028" id="Stroke-78" stroke="#000000" stroke-linecap="round" stroke-linejoin="round"></path>
            </g>
            <g id="Group-82" transform="translate(43.722780, 25.466292)">
                <path d="M0.738279007,9.81286839 C0.0911818693,7.53363139 0.738279007,0.301485055 0.738279007,0.301485055 L8.52649848,0.301485055 C8.52649848,0.301485055 9.13702748,7.52281354 8.52649848,9.81286839" id="Fill-80" fill="#FFFFFF"></path>
                <path d="M0.738279007,9.81286839 C0.0911818693,7.53363139 0.738279007,0.301485055 0.738279007,0.301485055 L8.52649848,0.301485055 C8.52649848,0.301485055 9.13702748,7.52281354 8.52649848,9.81286839" id="Stroke-81" stroke="#000000" stroke-linecap="round" stroke-linejoin="round"></path>
            </g>
            <path d="M52.1358373,31.7124333 L52.08178,33.6255278 C52.08178,33.6255278 48.065644,36.0470611 44.6854757,33.6255278 L44.4962753,31.2314552 L52.1358373,31.7124333 Z" id="Fill-83" fill="#EFEFEF"></path>
            <path d="M56.717819,20.2339494 C56.699462,27.005089 52.939303,33.6389253 48.3182027,33.6248014 C43.6971023,33.6106324 39.9647669,26.9526641 39.9837731,20.1823566 C40.0037199,13.4112169 43.7646739,9.77142772 48.3865692,9.78553305 C53.0068746,9.79972055 56.7368251,13.4628097 56.717819,20.2339494" id="Fill-84" fill="#FFFFFF"></path>
            <path d="M56.717819,20.2339494 C56.699462,27.005089 52.939303,33.6389253 48.3182027,33.6248014 C43.6971023,33.6106324 39.9647669,26.9526641 39.9837731,20.1823566 C40.0037199,13.4112169 43.7646739,9.77142772 48.3865692,9.78553305 C53.0068746,9.79972055 56.7368251,13.4628097 56.717819,20.2339494 Z" id="Stroke-85" stroke="#000000" stroke-linecap="round" stroke-linejoin="round"></path>
            <path d="M54.3553646,9.02033633 L57.6242386,17.8194061 C57.6242386,17.8194061 49.4822621,17.6446563 46.7213673,16.201722 C46.7213673,16.201722 44.5821309,14.6955449 44.4175743,13.8916957 C44.4175743,13.8916957 43.3777671,19.939704 39.3751453,20.186018 C39.3751453,20.186018 36.0712931,10.0372139 47.0401461,9.02033633 L54.3553646,9.02033633 Z" id="Fill-86" fill="#2196F3"></path>
            <path d="M39.6005164,20.6476072 C39.6005164,20.6476072 44.3082673,17.710978 44.4179717,13.8922782 C44.4179717,13.8922782 45.5889473,18.2460453 56.7183821,17.7867029" id="Stroke-87" stroke="#000000" stroke-linecap="round" stroke-linejoin="round"></path>
            <g id="Group-90" transform="translate(34.978224, 46.269843)">
                <path d="M0.177037509,0.718637852 C0.177037509,2.74740011 1.74946765,5.31122968 3.68757923,5.31122968 L3.68757923,8.73799054" id="Fill-88" fill="#FFFFFF"></path>
                <path d="M0.177037509,0.718637852 C0.177037509,2.74740011 1.74946765,5.31122968 3.68757923,5.31122968 L3.68757923,8.73799054" id="Stroke-89" stroke="#000000" stroke-linecap="round" stroke-linejoin="round"></path>
            </g>
            <g id="Group-93" transform="translate(58.032053, 46.269843)">
                <path d="M3.56253208,0.718637852 C3.56253208,2.74740011 1.99089689,5.31122968 0.0527853193,5.31122968 L0.0527853193,8.73799054" id="Fill-91" fill="#FFFFFF"></path>
                <path d="M3.56253208,0.718637852 C3.56253208,2.74740011 1.99089689,5.31122968 0.0527853193,5.31122968 L0.0527853193,8.73799054" id="Stroke-92" stroke="#000000" stroke-linecap="round" stroke-linejoin="round"></path>
            </g>
            <path d="M45.2428161,27.6183777 C45.240437,28.3323556 46.7127022,29.7786184 48.5323648,29.7844564 C50.3520274,29.7894363 51.8314472,28.3531591 51.8330372,27.6383491 L45.2428161,27.6183777 Z" id="Stroke-94" stroke="#000000" stroke-linecap="round" stroke-linejoin="round"></path>
            <g id="Group-97" transform="translate(46.902618, 20.473440)">
                <path d="M0.0698769513,0.0525761194 L2.65508566,0.0525761194" id="Fill-95" fill="#009688"></path>
                <path d="M0.0698769513,0.0525761194 L2.65508566,0.0525761194" id="Stroke-96" stroke="#000000" stroke-linecap="round" stroke-linejoin="round"></path>
            </g>
            <path d="M47.1953222,21.4765039 C47.1953222,23.6716945 45.4949035,25.4508142 43.3978,25.4508142 C41.3006966,25.4508142 39.6002779,23.6716945 39.6002779,21.4765039 C39.6002779,19.2804811 41.3006966,18.7362602 43.3978,18.7362602 C45.4949035,18.7362602 47.1953222,19.2804811 47.1953222,21.4765039" id="Fill-98" fill="#FFFFFF"></path>
            <path d="M47.1953222,21.4765039 C47.1953222,23.6716945 45.4949035,25.4508142 43.3978,25.4508142 C41.3006966,25.4508142 39.6002779,23.6716945 39.6002779,21.4765039 C39.6002779,19.2804811 41.3006966,18.7362602 43.3978,18.7362602 C45.4949035,18.7362602 47.1953222,19.2804811 47.1953222,21.4765039 Z" id="Stroke-99" stroke="#000000" stroke-linecap="round" stroke-linejoin="round"></path>
            <path d="M49.336387,21.4765039 C49.336387,23.6716945 51.0360106,25.4508142 53.1331141,25.4508142 C55.2302176,25.4508142 56.9306363,23.6716945 56.9306363,21.4765039 C56.9306363,19.2804811 55.2302176,18.7362602 53.1331141,18.7362602 C51.0360106,18.7362602 49.336387,19.2804811 49.336387,21.4765039" id="Fill-100" fill="#FFFFFF"></path>
            <path d="M49.336387,21.4765039 C49.336387,23.6716945 51.0360106,25.4508142 53.1331141,25.4508142 C55.2302176,25.4508142 56.9306363,23.6716945 56.9306363,21.4765039 C56.9306363,19.2804811 55.2302176,18.7362602 53.1331141,18.7362602 C51.0360106,18.7362602 49.336387,19.2804811 49.336387,21.4765039 Z" id="Stroke-101" stroke="#000000" stroke-linecap="round" stroke-linejoin="round"></path>
            <g id="Group-104" transform="translate(44.517739, 18.809156)">
                <path d="M0.367191852,0.0508746269 L7.12673357,0.0508746269" id="Fill-102" fill="#009688"></path>
                <path d="M0.367191852,0.0508746269 L7.12673357,0.0508746269" id="Stroke-103" stroke="#000000" stroke-linecap="round" stroke-linejoin="round"></path>
            </g>
            <path d="M60.6350687,19.1433441 C60.0817768,19.7225149 59.1842673,19.7225149 58.6309754,19.1433441 C58.0776835,18.5641732 58.0776835,17.625517 58.6309754,17.045514 C59.1842673,16.4663432 60.0817768,16.4663432 60.6350687,17.045514 C61.1883606,17.625517 61.1883606,18.5641732 60.6350687,19.1433441" id="Fill-105" fill="#FFFFFF"></path>
            <path d="M60.6350687,19.1433441 C60.0817768,19.7225149 59.1842673,19.7225149 58.6309754,19.1433441 C58.0776835,18.5641732 58.0776835,17.625517 58.6309754,17.045514 C59.1842673,16.4663432 60.0817768,16.4663432 60.6350687,17.045514 C61.1883606,17.625517 61.1883606,18.5641732 60.6350687,19.1433441 Z" id="Stroke-106" stroke="#000000" stroke-linecap="round" stroke-linejoin="round"></path>
            <path d="M56.7759371,16.2812748 C56.2226452,16.8604456 55.3251358,16.8604456 54.7718439,16.2812748 C54.218552,15.7021039 54.218552,14.7626156 54.7718439,14.1834447 C55.3251358,13.6042739 56.2226452,13.6042739 56.7759371,14.1834447 C57.3284341,14.7626156 57.3284341,15.7021039 56.7759371,16.2812748" id="Fill-107" fill="#FFFFFF"></path>
            <path d="M56.7759371,16.2812748 C56.2226452,16.8604456 55.3251358,16.8604456 54.7718439,16.2812748 C54.218552,15.7021039 54.218552,14.7626156 54.7718439,14.1834447 C55.3251358,13.6042739 56.2226452,13.6042739 56.7759371,14.1834447 C57.3284341,14.7626156 57.3284341,15.7021039 56.7759371,16.2812748 Z" id="Stroke-108" stroke="#000000" stroke-linecap="round" stroke-linejoin="round"></path>
            <path d="M55.6494793,19.1433441 C55.0961874,18.5641732 55.0961874,17.625517 55.6494793,17.045514 C56.2027713,16.4663432 57.1002807,16.4663432 57.6535726,17.045514 C58.2068645,17.625517 58.2068645,18.5641732 57.6535726,19.1433441 C57.1002807,19.7225149 56.2027713,19.7225149 55.6494793,19.1433441" id="Fill-109" fill="#FFFFFF"></path>
            <path d="M55.6494793,19.1433441 C55.0961874,18.5641732 55.0961874,17.625517 55.6494793,17.045514 C56.2027713,16.4663432 57.1002807,16.4663432 57.6535726,17.045514 C58.2068645,17.625517 58.2068645,18.5641732 57.6535726,19.1433441 C57.1002807,19.7225149 56.2027713,19.7225149 55.6494793,19.1433441 Z" id="Stroke-110" stroke="#000000" stroke-linecap="round" stroke-linejoin="round"></path>
            <path d="M57.2138009,14.3796638 C56.661304,13.800493 56.661304,12.8618368 57.2138009,12.2818338 C57.7670928,11.7026629 58.6646022,11.7026629 59.2178941,12.2818338 C59.771186,12.8618368 59.771186,13.800493 59.2178941,14.3796638 C58.6646022,14.9588347 57.7670928,14.9588347 57.2138009,14.3796638" id="Fill-111" fill="#FFFFFF"></path>
            <path d="M57.2138009,14.3796638 C56.661304,13.800493 56.661304,12.8618368 57.2138009,12.2818338 C57.7670928,11.7026629 58.6646022,11.7026629 59.2178941,12.2818338 C59.771186,12.8618368 59.771186,13.800493 59.2178941,14.3796638 C58.6646022,14.9588347 57.7670928,14.9588347 57.2138009,14.3796638 Z" id="Stroke-112" stroke="#000000" stroke-linecap="round" stroke-linejoin="round"></path>
            <path d="M59.6568708,16.2812748 C59.1035789,15.7021039 59.1035789,14.7626156 59.6568708,14.1834447 C60.2093678,13.6042739 61.1068772,13.6042739 61.6609641,14.1834447 C62.213461,14.7626156 62.213461,15.7021039 61.6609641,16.2812748 C61.1068772,16.8604456 60.2093678,16.8604456 59.6568708,16.2812748" id="Fill-113" fill="#FFFFFF"></path>
            <path d="M59.6568708,16.2812748 C59.1035789,15.7021039 59.1035789,14.7626156 59.6568708,14.1834447 C60.2093678,13.6042739 61.1068772,13.6042739 61.6609641,14.1834447 C62.213461,14.7626156 62.213461,15.7021039 61.6609641,16.2812748 C61.1068772,16.8604456 60.2093678,16.8604456 59.6568708,16.2812748 Z" id="Stroke-114" stroke="#000000" stroke-linecap="round" stroke-linejoin="round"></path>
            <path d="M59.2415839,15.8944119 C59.2415839,16.4877292 58.7828922,16.9678752 58.216086,16.9678752 C57.6500747,16.9678752 57.1905881,16.4877292 57.1905881,15.8944119 C57.1905881,15.3019268 57.6500747,14.8209487 58.216086,14.8209487 C58.7828922,14.8209487 59.2415839,15.3019268 59.2415839,15.8944119" id="Fill-115" fill="#2196F3"></path>
            <path d="M59.2415839,15.8944119 C59.2415839,16.4877292 58.7828922,16.9678752 58.216086,16.9678752 C57.6500747,16.9678752 57.1905881,16.4877292 57.1905881,15.8944119 C57.1905881,15.3019268 57.6500747,14.8209487 58.216086,14.8209487 C58.7828922,14.8209487 59.2415839,15.3019268 59.2415839,15.8944119 Z" id="Stroke-116" stroke="#000000" stroke-linecap="round" stroke-linejoin="round"></path>
            <g id="Group-119" transform="translate(60.416932, 49.598411)">
                <path d="M4.15803633,0.183071245 L0.458294226,0.183071245" id="Fill-117" fill="#FFFFFF"></path>
                <path d="M4.15803633,0.183071245 L0.458294226,0.183071245" id="Stroke-118" stroke="#000000" stroke-linecap="round" stroke-linejoin="round"></path>
            </g>
            <g id="Group-122" transform="translate(31.798385, 49.598411)">
                <path d="M4.02607304,0.183071245 L0.326330927,0.183071245" id="Fill-120" fill="#FFFFFF"></path>
                <path d="M4.02607304,0.183071245 L0.326330927,0.183071245" id="Stroke-121" stroke="#000000" stroke-linecap="round" stroke-linejoin="round"></path>
            </g>
            <path d="M57.6477694,28.7845415 C57.6477694,28.7845415 58.8044356,29.6233407 58.8258995,32.7039305 C58.8378239,34.3690467 61.6177977,36.034995 61.6177977,36.034995" id="Stroke-123" stroke="#000000" stroke-linecap="round" stroke-linejoin="round"></path>
            <path d="M42.4433715,36.4639642 C42.6985536,36.4639642 42.9441961,36.3607786 43.1302166,36.1660574 C43.3178271,35.9696719 43.4251467,35.7133721 43.4251467,35.4362688 C43.4251467,35.1691512 43.3178271,34.9012015 43.1302166,34.716466 C43.0912636,34.6657053 43.0427711,34.6240982 42.9839441,34.5824911 C42.9338616,34.5517018 42.8758296,34.5100947 42.8170025,34.4909555 C42.7581755,34.4701519 42.6985536,34.4493484 42.630187,34.4285448 C42.316178,34.3569806 41.9719605,34.4701519 41.7461919,34.716466 C41.5601714,34.9012015 41.4615964,35.1691512 41.4615964,35.4362688 C41.4615964,35.7133721 41.5601714,35.9696719 41.7461919,36.1660574 C41.9322125,36.3607786 42.177855,36.4639642 42.4433715,36.4639642" id="Fill-124" fill="#FFFFFF"></path>
            <path d="M42.4433715,36.4639642 C42.6985536,36.4639642 42.9441961,36.3607786 43.1302166,36.1660574 C43.3178271,35.9696719 43.4251467,35.7133721 43.4251467,35.4362688 C43.4251467,35.1691512 43.3178271,34.9012015 43.1302166,34.716466 C43.0912636,34.6657053 43.0427711,34.6240982 42.9839441,34.5824911 C42.9338616,34.5517018 42.8758296,34.5100947 42.8170025,34.4909555 C42.7581755,34.4701519 42.6985536,34.4493484 42.630187,34.4285448 C42.316178,34.3569806 41.9719605,34.4701519 41.7461919,34.716466 C41.5601714,34.9012015 41.4615964,35.1691512 41.4615964,35.4362688 C41.4615964,35.7133721 41.5601714,35.9696719 41.7461919,36.1660574 C41.9322125,36.3607786 42.177855,36.4639642 42.4433715,36.4639642 Z" id="Stroke-125" stroke="#000000" stroke-linecap="round" stroke-linejoin="round"></path>
            <path d="M47.3132942,43.0943054 C46.7933906,42.9079056 46.234534,43.1966589 46.0675925,43.7317262 C45.8903165,44.275115 46.155038,44.8509572 46.6749416,45.0365249 C46.7838511,45.0772999 46.8816311,45.0972713 46.9897456,45.0972713 C47.4023297,45.0972713 47.7855002,44.8301537 47.9230282,44.398272 C48.0995093,43.8648689 47.8244532,43.279041 47.3132942,43.0943054" id="Fill-126" fill="#FFFFFF"></path>
            <path d="M47.3132942,43.0943054 C46.7933906,42.9079056 46.234534,43.1966589 46.0675925,43.7317262 C45.8903165,44.275115 46.155038,44.8509572 46.6749416,45.0365249 C46.7838511,45.0772999 46.8816311,45.0972713 46.9897456,45.0972713 C47.4023297,45.0972713 47.7855002,44.8301537 47.9230282,44.398272 C48.0995093,43.8648689 47.8244532,43.279041 47.3132942,43.0943054 Z" id="Stroke-127" stroke="#000000" stroke-linecap="round" stroke-linejoin="round"></path>
            <path d="M44.8096483,40.914759 C44.5155133,40.4204667 43.9161137,40.2773383 43.4550371,40.5752451 C42.9931656,40.8731519 42.8564325,41.5114049 43.1306936,41.9940472 C43.3175091,42.3019398 43.6410577,42.4766896 43.9749407,42.4766896 C44.1522167,42.4766896 44.3294927,42.4250968 44.4860998,42.3227433 C44.9479713,42.0248365 45.0942439,41.3874157 44.8096483,40.914759" id="Fill-128" fill="#FFFFFF"></path>
            <path d="M44.8096483,40.914759 C44.5155133,40.4204667 43.9161137,40.2773383 43.4550371,40.5752451 C42.9931656,40.8731519 42.8564325,41.5114049 43.1306936,41.9940472 C43.3175091,42.3019398 43.6410577,42.4766896 43.9749407,42.4766896 C44.1522167,42.4766896 44.3294927,42.4250968 44.4860998,42.3227433 C44.9479713,42.0248365 45.0942439,41.3874157 44.8096483,40.914759 Z" id="Stroke-129" stroke="#000000" stroke-linecap="round" stroke-linejoin="round"></path>
            <path d="M43.4448617,40.5239019 C43.9560207,40.3383343 44.2302818,39.7533384 44.0538007,39.2182711 C43.8765247,38.6840359 43.3176681,38.3961148 42.8065091,38.5808503 C42.296145,38.7672501 42.021089,39.352246 42.198365,39.8864811 C42.335098,40.3183629 42.7182686,40.5854804 43.1300576,40.5854804 C43.2294276,40.5854804 43.3367471,40.565509 43.4448617,40.5239019" id="Fill-130" fill="#FFFFFF"></path>
            <path d="M43.4448617,40.5239019 C43.9560207,40.3383343 44.2302818,39.7533384 44.0538007,39.2182711 C43.8765247,38.6840359 43.3176681,38.3961148 42.8065091,38.5808503 C42.296145,38.7672501 42.021089,39.352246 42.198365,39.8864811 C42.335098,40.3183629 42.7182686,40.5854804 43.1300576,40.5854804 C43.2294276,40.5854804 43.3367471,40.565509 43.4448617,40.5239019 Z" id="Stroke-131" stroke="#000000" stroke-linecap="round" stroke-linejoin="round"></path>
            <path d="M42.8067476,38.5394096 C43.3369856,38.4370562 43.7002822,37.9019888 43.6025022,37.3469501 C43.5142616,36.7827578 43.0031026,36.4124546 42.4728645,36.5056545 C41.932292,36.608008 41.5793299,37.1422432 41.6675704,37.6972819 C41.7566059,38.2007278 42.168395,38.5510596 42.639806,38.5510596 C42.6890935,38.5510596 42.7479206,38.5510596 42.8067476,38.5394096" id="Fill-132" fill="#FFFFFF"></path>
            <path d="M42.8067476,38.5394096 C43.3369856,38.4370562 43.7002822,37.9019888 43.6025022,37.3469501 C43.5142616,36.7827578 43.0031026,36.4124546 42.4728645,36.5056545 C41.932292,36.608008 41.5793299,37.1422432 41.6675704,37.6972819 C41.7566059,38.2007278 42.168395,38.5510596 42.639806,38.5510596 C42.6890935,38.5510596 42.7479206,38.5510596 42.8067476,38.5394096 Z" id="Stroke-133" stroke="#000000" stroke-linecap="round" stroke-linejoin="round"></path>
            <path d="M45.8903165,42.2604991 C45.4777324,41.8918602 44.8584589,41.9426209 44.5158313,42.3836561 C44.1612793,42.8155379 44.2113617,43.4629444 44.6231508,43.824094 C44.8099663,43.988026 45.0357349,44.0695759 45.2615034,44.0695759 C45.5373544,44.0695759 45.821155,43.9464189 46.0079705,43.7001048 C46.3617275,43.2682231 46.31244,42.6216488 45.8903165,42.2604991" id="Fill-134" fill="#FFFFFF"></path>
            <path d="M45.8903165,42.2604991 C45.4777324,41.8918602 44.8584589,41.9426209 44.5158313,42.3836561 C44.1612793,42.8155379 44.2113617,43.4629444 44.6231508,43.824094 C44.8099663,43.988026 45.0357349,44.0695759 45.2615034,44.0695759 C45.5373544,44.0695759 45.821155,43.9464189 46.0079705,43.7001048 C46.3617275,43.2682231 46.31244,42.6216488 45.8903165,42.2604991 Z" id="Stroke-135" stroke="#000000" stroke-linecap="round" stroke-linejoin="round"></path>
            <path d="M55.0121602,38.6321103 C54.4914617,38.4690104 53.9413496,38.776903 53.7942821,39.321956 C53.637675,39.8653447 53.932605,40.4420192 54.4525086,40.5951333 C54.5407492,40.6259225 54.6393241,40.6475582 54.7275647,40.6475582 C55.1600227,40.6475582 55.5423983,40.3596371 55.6695918,39.9069518 C55.8269938,39.362731 55.5320638,38.7968744 55.0121602,38.6321103" id="Fill-136" fill="#FFFFFF"></path>
            <path d="M55.0121602,38.6321103 C54.4914617,38.4690104 53.9413496,38.776903 53.7942821,39.321956 C53.637675,39.8653447 53.932605,40.4420192 54.4525086,40.5951333 C54.5407492,40.6259225 54.6393241,40.6475582 54.7275647,40.6475582 C55.1600227,40.6475582 55.5423983,40.3596371 55.6695918,39.9069518 C55.8269938,39.362731 55.5320638,38.7968744 55.0121602,38.6321103 Z" id="Stroke-137" stroke="#000000" stroke-linecap="round" stroke-linejoin="round"></path>
            <path d="M48.9730904,43.3811448 C48.4237733,43.3703269 47.9817758,43.8238443 47.9714413,44.3888688 C47.9714413,44.9638789 48.4038993,45.4265499 48.9436769,45.4373677 L48.9635509,45.4373677 C49.493789,45.4373677 49.9357865,44.9855146 49.9357865,44.419658 C49.945326,43.8538015 49.513663,43.3811448 48.9730904,43.3811448" id="Fill-138" fill="#FFFFFF"></path>
            <path d="M48.9730904,43.3811448 C48.4237733,43.3703269 47.9817758,43.8238443 47.9714413,44.3888688 C47.9714413,44.9638789 48.4038993,45.4265499 48.9436769,45.4373677 L48.9635509,45.4373677 C49.493789,45.4373677 49.9357865,44.9855146 49.9357865,44.419658 C49.945326,43.8538015 49.513663,43.3811448 48.9730904,43.3811448 Z" id="Stroke-139" stroke="#000000" stroke-linecap="round" stroke-linejoin="round"></path>
            <path d="M55.2473888,36.5460134 C54.7171507,36.4736171 54.2266606,36.8747095 54.1582941,37.4405661 C54.0891326,38.0055905 54.4715082,38.5090365 55.0120807,38.5806007 C55.0518287,38.5922507 55.0907817,38.5922507 55.1305297,38.5922507 C55.6210198,38.5922507 56.0431434,38.2119617 56.1019704,37.6868801 C56.1703369,37.1210236 55.7879613,36.6075919 55.2473888,36.5460134" id="Fill-140" fill="#FFFFFF"></path>
            <path d="M55.2473888,36.5460134 C54.7171507,36.4736171 54.2266606,36.8747095 54.1582941,37.4405661 C54.0891326,38.0055905 54.4715082,38.5090365 55.0120807,38.5806007 C55.0518287,38.5922507 55.0907817,38.5922507 55.1305297,38.5922507 C55.6210198,38.5922507 56.0431434,38.2119617 56.1019704,37.6868801 C56.1703369,37.1210236 55.7879613,36.6075919 55.2473888,36.5460134 Z" id="Stroke-141" stroke="#000000" stroke-linecap="round" stroke-linejoin="round"></path>
            <path d="M54.4524291,40.65796 C53.9810181,40.3692067 53.372874,40.534803 53.1073575,41.0265989 C52.8323014,41.5109056 52.9889085,42.1483264 53.4611145,42.4254297 C53.608182,42.5277831 53.7846631,42.5693902 53.9516046,42.5693902 C54.2854876,42.5693902 54.6193707,42.3838226 54.7966467,42.0659443 C55.0709077,41.5724841 54.9143007,40.945049 54.4524291,40.65796" id="Fill-142" fill="#FFFFFF"></path>
            <path d="M54.4524291,40.65796 C53.9810181,40.3692067 53.372874,40.534803 53.1073575,41.0265989 C52.8323014,41.5109056 52.9889085,42.1483264 53.4611145,42.4254297 C53.608182,42.5277831 53.7846631,42.5693902 53.9516046,42.5693902 C54.2854876,42.5693902 54.6193707,42.3838226 54.7966467,42.0659443 C55.0709077,41.5724841 54.9143007,40.945049 54.4524291,40.65796 Z" id="Stroke-143" stroke="#000000" stroke-linecap="round" stroke-linejoin="round"></path>
            <path d="M52.0465633,42.3531165 C51.6339793,42.7234197 51.5751523,43.3708262 51.9289093,43.8027079 C52.1157248,44.049022 52.3995254,44.1730111 52.6753764,44.1730111 C52.9011449,44.1730111 53.1269135,44.0906291 53.3033945,43.9358507 C53.7255181,43.5771975 53.78514,42.9198053 53.431383,42.4862593 C53.0879604,42.0552097 52.4686869,41.9936312 52.0465633,42.3531165" id="Fill-144" fill="#FFFFFF"></path>
            <path d="M52.0465633,42.3531165 C51.6339793,42.7234197 51.5751523,43.3708262 51.9289093,43.8027079 C52.1157248,44.049022 52.3995254,44.1730111 52.6753764,44.1730111 C52.9011449,44.1730111 53.1269135,44.0906291 53.3033945,43.9358507 C53.7255181,43.5771975 53.78514,42.9198053 53.431383,42.4862593 C53.0879604,42.0552097 52.4686869,41.9936312 52.0465633,42.3531165 Z" id="Stroke-145" stroke="#000000" stroke-linecap="round" stroke-linejoin="round"></path>
            <path d="M50.6421876,43.1454822 C50.122284,43.3193999 49.8368935,43.89441 49.9950905,44.4303095 C50.122284,44.8713447 50.5046596,45.160098 50.9267832,45.160098 C51.0253582,45.160098 51.1231382,45.1392945 51.2217132,45.1085052 C51.7320773,44.9437411 52.0270073,44.3678988 51.8696053,43.8336636 C51.7129983,43.2886106 51.1628862,42.980718 50.6421876,43.1454822" id="Fill-146" fill="#FFFFFF"></path>
            <path d="M50.6421876,43.1454822 C50.122284,43.3193999 49.8368935,43.89441 49.9950905,44.4303095 C50.122284,44.8713447 50.5046596,45.160098 50.9267832,45.160098 C51.0253582,45.160098 51.1231382,45.1392945 51.2217132,45.1085052 C51.7320773,44.9437411 52.0270073,44.3678988 51.8696053,43.8336636 C51.7129983,43.2886106 51.1628862,42.980718 50.6421876,43.1454822 Z" id="Stroke-147" stroke="#000000" stroke-linecap="round" stroke-linejoin="round"></path>
            <path d="M54.8553147,36.3916511 C54.9721737,36.4432439 55.1009572,36.4640474 55.2281507,36.4640474 C55.4833328,36.4640474 55.7385148,36.3608618 55.9253303,36.1661406 C56.1018114,35.9697551 56.2099259,35.7134553 56.2099259,35.436352 C56.2099259,35.1692344 56.1018114,34.9012847 55.9253303,34.7165492 C55.8760428,34.6657885 55.8275503,34.6241814 55.7679283,34.5825743 C55.7186408,34.5517851 55.6606088,34.510178 55.6009868,34.4910387 C55.5421598,34.469403 55.4833328,34.4494316 55.4141713,34.428628 C55.1009572,34.3570638 54.7567397,34.469403 54.5309712,34.7165492 C54.4816837,34.7573241 54.4419357,34.8089169 54.4133171,34.8713276 C54.3743641,34.9220883 54.3441556,34.9836668 54.3250766,35.0460774 C54.2956631,35.1068238 54.2757891,35.1692344 54.2662496,35.2399665 C54.2559151,35.3023772 54.2455806,35.3739414 54.2455806,35.436352 C54.2455806,35.7134553 54.3441556,35.9697551 54.5309712,36.1661406 C54.6295461,36.2684941 54.7273262,36.3400583 54.8553147,36.3916511" id="Fill-148" fill="#FFFFFF"></path>
            <path d="M54.8553147,36.3916511 C54.9721737,36.4432439 55.1009572,36.4640474 55.2281507,36.4640474 C55.4833328,36.4640474 55.7385148,36.3608618 55.9253303,36.1661406 C56.1018114,35.9697551 56.2099259,35.7134553 56.2099259,35.436352 C56.2099259,35.1692344 56.1018114,34.9012847 55.9253303,34.7165492 C55.8760428,34.6657885 55.8275503,34.6241814 55.7679283,34.5825743 C55.7186408,34.5517851 55.6606088,34.510178 55.6009868,34.4910387 C55.5421598,34.469403 55.4833328,34.4494316 55.4141713,34.428628 C55.1009572,34.3570638 54.7567397,34.469403 54.5309712,34.7165492 C54.4816837,34.7573241 54.4419357,34.8089169 54.4133171,34.8713276 C54.3743641,34.9220883 54.3441556,34.9836668 54.3250766,35.0460774 C54.2956631,35.1068238 54.2757891,35.1692344 54.2662496,35.2399665 C54.2559151,35.3023772 54.2455806,35.3739414 54.2455806,35.436352 C54.2455806,35.7134553 54.3441556,35.9697551 54.5309712,36.1661406 C54.6295461,36.2684941 54.7273262,36.3400583 54.8553147,36.3916511 Z" id="Stroke-149" stroke="#000000" stroke-linecap="round" stroke-linejoin="round"></path>
            <g id="Group-152" transform="translate(0.000000, 54.591263)">
                <path d="M67.6709383,0.400842813 L0.397479814,0.400842813" id="Fill-150" fill="#FFFFFF"></path>
                <path d="M67.6709383,0.400842813 L0.397479814,0.400842813" id="Stroke-151" stroke="#000000" stroke-linecap="round" stroke-linejoin="round"></path>
            </g>
        </g>
    </g>
</svg>