<?xml version="1.0" encoding="UTF-8"?>
<svg width="73px" height="57px" viewBox="0 0 73 57" version="1.1" xmlns="http://www.w3.org/2000/svg" xmlns:xlink="http://www.w3.org/1999/xlink">
    <!-- Generator: Sketch 58 (84663) - https://sketch.com -->
    <title>Illustration/MoneySafe</title>
    <desc>Created with Sketch.</desc>
    <g id="Illustration/MoneySafe" stroke="none" stroke-width="1" fill="none" fill-rule="evenodd" stroke-linecap="round" stroke-linejoin="round">
        <g transform="translate(11.000000, 0.000000)" fill-rule="nonzero" stroke="#000000">
            <path d="M17.7013862,51.4639724 L14.8151714,54.4851833 C12.8582475,56.5254495 9.69373558,56.5254495 7.73681171,54.4851833 L7.15517905,53.8763461 L6.18944936,52.8424717 L4.85059684,51.4639724 L11.2705044,44.801226 L17.7013862,51.4639724 Z" id="Shape" fill="#2196F3"></path>
            <path d="M46.3221024,51.4639724 L43.4468618,54.4736958 C41.4899379,56.513962 38.325426,56.513962 36.3685021,54.4736958 L35.7868695,53.8648586 L34.8211398,52.8424717 L33.4822873,51.4639724 L39.9021948,44.801226 L46.3221024,51.4639724 Z" id="Shape" fill="#2196F3"></path>
            <path d="M8.06871005,0.574374692 L43.1149634,0.574374692 C47.2681447,0.574374692 50.6349634,3.94119337 50.6349634,8.09437469 L50.6349634,45.4832966 C50.6349634,49.6364779 47.2681447,53.0032966 43.1149634,53.0032966 L8.06871005,53.0032966 C3.91552873,53.0032966 0.54871005,49.6364779 0.54871005,45.4832966 L0.54871005,8.09437469 C0.54871005,3.94119337 3.91552873,0.574374692 8.06871005,0.574374692 Z" id="Rectangle-path" fill="#FFFFFF"></path>
            <path d="M10.332114,6.62828395 L40.8515595,6.62828395 C43.0606985,6.62828395 44.8515595,8.41914495 44.8515595,10.6282839 L44.8515595,42.9493873 C44.8515595,45.1585263 43.0606985,46.9493873 40.8515595,46.9493873 L10.332114,46.9493873 C8.12297498,46.9493873 6.33211398,45.1585263 6.33211398,42.9493873 L6.33211398,10.6282839 C6.33211398,8.41914495 8.12297498,6.62828395 10.332114,6.62828395 Z" id="Rectangle-path" fill="#FFFFFF"></path>
            <ellipse id="Oval" fill="#FFFFFF" transform="translate(25.591244, 26.788836) rotate(-45.000000) translate(-25.591244, -26.788836) " cx="25.5912444" cy="26.7888356" rx="9.38294186" ry="9.82180724"></ellipse>
            <ellipse id="Oval" fill="#2196F3" transform="translate(25.591244, 26.788836) rotate(-45.000000) translate(-25.591244, -26.788836) " cx="25.5912444" cy="26.7888356" rx="12.3350019" ry="12.9119431"></ellipse>
            <ellipse id="Oval" fill="#FFFFFF" transform="translate(25.591244, 26.788836) rotate(-45.000000) translate(-25.591244, -26.788836) " cx="25.5912444" cy="26.7888356" rx="9.38294186" ry="9.82180724"></ellipse>
            <path d="M18.9634193,19.8503894 L32.2312283,33.7387694" id="Shape" fill="#FFFFFF"></path>
            <path d="M32.2312283,19.8503894 L18.9634193,33.7387694" id="Shape" fill="#FFFFFF"></path>
            <ellipse id="Oval" fill="#FFFFFF" transform="translate(25.591244, 26.788836) rotate(-45.000000) translate(-25.591244, -26.788836) " cx="25.5912444" cy="26.7888356" rx="4.85059684" ry="5.07747228"></ellipse>
            <ellipse id="Oval" fill="#FFFFFF" transform="translate(25.591244, 26.788836) rotate(-45.000000) translate(-25.591244, -26.788836) " cx="25.5912444" cy="26.7888356" rx="2.71062765" ry="2.83741098"></ellipse>
        </g>
    </g>
</svg>