<?xml version="1.0" encoding="UTF-8"?>
<svg width="14px" height="20px" viewBox="0 0 14 20" version="1.1" xmlns="http://www.w3.org/2000/svg" xmlns:xlink="http://www.w3.org/1999/xlink">
    <!-- Generator: Sketch 49.1 (51147) - http://www.bohemiancoding.com/sketch -->
    <title>mobile iconicon/mobile phone</title>
    <desc>Created with Sketch.</desc>
    <defs>
        <polygon id="path-1" points="0.0005 0.0001 14 0.0001 14 20 0.0005 20"/>
        <polygon id="path-3" points="0.0004 0.4068 14 0.4068 14 1.4068 0.0004 1.4068"/>
        <polygon id="path-5" points="0.0004 0.8727 14 0.8727 14 1.8727 0.0004 1.8727"/>
    </defs>
    <g id="Symbols" stroke="none" stroke-width="1" fill="none" fill-rule="evenodd">
        <g id="header/desktop/header-only" transform="translate(-896.000000, -14.000000)">
            <g id="Download_app_icon" transform="translate(891.000000, 12.000000)">
                <g id="icon/mobile-phone">
                    <g id="Group">
                        <rect id="Rectangle" x="0" y="0" width="24" height="24"/>
                    </g>
                    <g id="Page-1" transform="translate(5.000000, 2.000000)">
                        <polygon id="Fill-1" fill="#009688" points="0.508 15.406 13.48 15.406 13.48 2.873 0.508 2.873"/>
                        <g id="Group-13">
                            <g id="Group-4">
                                <mask id="mask-2" fill="white">
                                    <use xlink:href="#path-1"/>
                                </mask>
                                <g id="Clip-3"/>
                                <path d="M13.2885,0.0001 L0.7125,0.0001 C0.3185,0.0001 0.0005,0.3191 0.0005,0.7121 L0.0005,19.2881 C0.0005,19.6811 0.3185,20.0001 0.7125,20.0001 L13.2885,20.0001 C13.6815,20.0001 14.0005,19.6811 14.0005,19.2881 L14.0005,0.7121 C14.0005,0.3191 13.6815,0.0001 13.2885,0.0001 Z M0.9665,19.0341 L13.0335,19.0341 L13.0335,0.9661 L0.9665,0.9661 L0.9665,19.0341 Z" id="Fill-2" fill="#000000" mask="url(#mask-2)"/>
                            </g>
                            <g id="Group-7" transform="translate(0.000000, 15.000000)">
                                <path d="M14.0004,0.4068 L0.0004,0.4068" id="Stroke-5" stroke="#000000" stroke-width="0.966" stroke-linejoin="round"/>
                                <mask id="mask-4" fill="white">
                                    <use xlink:href="#path-3"/>
                                </mask>
                                <g id="Clip-6"/>
                            </g>
                            <g id="Group-10" transform="translate(0.000000, 2.000000)">
                                <path d="M14.0004,0.8727 L0.0004,0.8727" id="Stroke-8" stroke="#000000" stroke-width="0.966" stroke-linejoin="round"/>
                                <mask id="mask-6" fill="white">
                                    <use xlink:href="#path-5"/>
                                </mask>
                                <g id="Clip-9"/>
                            </g>
                            <path d="M4.8744,17.3971 L9.1254,17.3971" id="Stroke-11" stroke="#000000" stroke-width="0.966" stroke-linecap="round" stroke-linejoin="round"/>
                        </g>
                    </g>
                </g>
            </g>
        </g>
    </g>
</svg>