<?xml version="1.0" encoding="UTF-8"?>
<svg width="83px" height="47px" viewBox="0 0 83 47" version="1.1" xmlns="http://www.w3.org/2000/svg" xmlns:xlink="http://www.w3.org/1999/xlink">
    <!-- Generator: Sketch 51.1 (57501) - http://www.bohemiancoding.com/sketch -->
    <title>mountains</title>
    <desc>Created with Sketch.</desc>
    <defs>
        <polygon id="path-1" points="0.8516 0.87 2.3516 0.87 2.3516 4.6403 0.8516 4.6403"/>
    </defs>
    <g id="09-July-2018" stroke="none" stroke-width="1" fill="none" fill-rule="evenodd" opacity="0.17">
        <g id="Image-missing-text-loaded" transform="translate(-615.000000, -1684.000000)">
            <g id="Bitmap" transform="translate(476.000000, 1637.000000)">
                <g id="mountains" transform="translate(139.000000, 46.000000)">
                    <g id="Group-34">
                        <path d="M6.541,47.1299 C6.414,47.1299 6.285,47.0979 6.167,47.0289 C5.809,46.8219 5.686,46.3629 5.893,46.0049 L21.156,19.5699 C21.424,19.1059 22.187,19.1059 22.455,19.5699 L28.377,29.8269 C28.584,30.1859 28.461,30.6449 28.103,30.8519 C27.742,31.0599 27.284,30.9349 27.078,30.5769 L21.806,21.4449 L7.191,46.7549 C7.053,46.9949 6.801,47.1299 6.541,47.1299" id="Fill-1" fill="#000000"/>
                        <path d="M75.0859,47.1299 C74.8259,47.1299 74.5739,46.9949 74.4359,46.7549 L59.8229,21.4449 L53.1579,32.9869 C52.9509,33.3449 52.4939,33.4709 52.1339,33.2619 C51.7749,33.0549 51.6519,32.5959 51.8589,32.2369 L59.1739,19.5699 C59.3079,19.3379 59.5559,19.1949 59.8229,19.1949 C60.0909,19.1949 60.3389,19.3379 60.4729,19.5699 L75.7339,46.0049 C75.9409,46.3629 75.8179,46.8219 75.4599,47.0289 C75.3419,47.0979 75.2129,47.1299 75.0859,47.1299" id="Fill-3" fill="#000000"/>
                        <path d="M52.6016,6.5117 C51.5966,6.5117 50.7786,7.3297 50.7786,8.3357 C50.7786,9.3417 51.5966,10.1597 52.6016,10.1597 C53.6076,10.1597 54.4256,9.3417 54.4256,8.3357 C54.4256,7.3297 53.6076,6.5117 52.6016,6.5117 M52.6016,11.6597 C50.7696,11.6597 49.2786,10.1687 49.2786,8.3357 C49.2786,6.5027 50.7696,5.0117 52.6016,5.0117 C54.4346,5.0117 55.9256,6.5027 55.9256,8.3357 C55.9256,10.1687 54.4346,11.6597 52.6016,11.6597" id="Fill-5" fill="#000000"/>
                        <g id="Group-9" transform="translate(51.000000, 0.130200)">
                            <mask id="mask-2" fill="white">
                                <use xlink:href="#path-1"/>
                            </mask>
                            <g id="Clip-8"/>
                            <path d="M1.6016,4.6403 C1.1876,4.6403 0.8516,4.3043 0.8516,3.8903 L0.8516,1.6193 C0.8516,1.2053 1.1876,0.8693 1.6016,0.8693 C2.0156,0.8693 2.3516,1.2053 2.3516,1.6193 L2.3516,3.8903 C2.3516,4.3043 2.0156,4.6403 1.6016,4.6403" id="Fill-7" fill="#000000" mask="url(#mask-2)"/>
                        </g>
                        <path d="M52.6016,15.6729 C52.1876,15.6729 51.8516,15.3369 51.8516,14.9229 L51.8516,12.6519 C51.8516,12.2369 52.1876,11.9019 52.6016,11.9019 C53.0156,11.9019 53.3516,12.2369 53.3516,12.6519 L53.3516,14.9229 C53.3516,15.3369 53.0156,15.6729 52.6016,15.6729" id="Fill-10" fill="#000000"/>
                        <path d="M59.1885,9.086 L56.9175,9.086 C56.5025,9.086 56.1675,8.75 56.1675,8.336 C56.1675,7.922 56.5025,7.586 56.9175,7.586 L59.1885,7.586 C59.6025,7.586 59.9385,7.922 59.9385,8.336 C59.9385,8.75 59.6025,9.086 59.1885,9.086" id="Fill-12" fill="#000000"/>
                        <path d="M48.2861,9.086 L46.0151,9.086 C45.6011,9.086 45.2651,8.75 45.2651,8.336 C45.2651,7.922 45.6011,7.586 46.0151,7.586 L48.2861,7.586 C48.7001,7.586 49.0361,7.922 49.0361,8.336 C49.0361,8.75 48.7001,9.086 48.2861,9.086" id="Fill-14" fill="#000000"/>
                        <path d="M55.6533,6.0352 C55.4613,6.0352 55.2693,5.9622 55.1233,5.8152 C54.8303,5.5222 54.8303,5.0482 55.1233,4.7552 L56.3003,3.5772 C56.5933,3.2842 57.0683,3.2842 57.3613,3.5772 C57.6543,3.8702 57.6543,4.3452 57.3613,4.6382 L56.1833,5.8152 C56.0373,5.9622 55.8453,6.0352 55.6533,6.0352" id="Fill-16" fill="#000000"/>
                        <path d="M48.373,13.3155 C48.181,13.3155 47.989,13.2425 47.843,13.0955 C47.55,12.8025 47.55,12.3285 47.843,12.0355 L49.02,10.8575 C49.313,10.5645 49.788,10.5645 50.081,10.8575 C50.374,11.1505 50.374,11.6255 50.081,11.9185 L48.903,13.0955 C48.757,13.2425 48.565,13.3155 48.373,13.3155" id="Fill-18" fill="#000000"/>
                        <path d="M56.8311,13.3155 C56.6391,13.3155 56.4471,13.2425 56.3011,13.0955 L55.1231,11.9185 C54.8301,11.6255 54.8301,11.1505 55.1231,10.8575 C55.4161,10.5645 55.8911,10.5645 56.1841,10.8575 L57.3611,12.0355 C57.6541,12.3285 57.6541,12.8025 57.3611,13.0955 C57.2151,13.2425 57.0231,13.3155 56.8311,13.3155" id="Fill-20" fill="#000000"/>
                        <path d="M49.5508,6.0352 C49.3588,6.0352 49.1668,5.9622 49.0208,5.8152 L47.8428,4.6382 C47.5498,4.3452 47.5498,3.8702 47.8428,3.5772 C48.1358,3.2842 48.6108,3.2842 48.9038,3.5772 L50.0808,4.7552 C50.3738,5.0482 50.3738,5.5222 50.0808,5.8152 C49.9348,5.9622 49.7428,6.0352 49.5508,6.0352" id="Fill-22" fill="#000000"/>
                        <path d="M61.3457,47.1299 C61.0987,47.1299 60.8567,47.0079 60.7127,46.7839 L39.3597,13.4149 L18.0067,46.7839 C17.7837,47.1329 17.3197,47.2349 16.9707,47.0119 C16.6217,46.7879 16.5207,46.3239 16.7427,45.9759 L38.7277,11.6189 C39.0027,11.1879 39.7157,11.1879 39.9917,11.6189 L61.9767,45.9759 C62.1997,46.3239 62.0977,46.7879 61.7487,47.0119 C61.6237,47.0919 61.4837,47.1299 61.3457,47.1299" id="Fill-24" fill="#000000"/>
                        <path d="M45.3936,22.2032 L33.3266,22.2032 C32.9126,22.2032 32.5766,21.8672 32.5766,21.4532 C32.5766,21.0392 32.9126,20.7032 33.3266,20.7032 L45.3936,20.7032 C45.8076,20.7032 46.1436,21.0392 46.1436,21.4532 C46.1436,21.8672 45.8076,22.2032 45.3936,22.2032" id="Fill-26" fill="#000000"/>
                        <path d="M25.6523,27.3584 L17.9593,27.3584 C17.5453,27.3584 17.2093,27.0224 17.2093,26.6084 C17.2093,26.1944 17.5453,25.8584 17.9593,25.8584 L25.6523,25.8584 C26.0663,25.8584 26.4023,26.1944 26.4023,26.6084 C26.4023,27.0224 26.0663,27.3584 25.6523,27.3584" id="Fill-28" fill="#000000"/>
                        <path d="M63.6689,27.3584 L55.9759,27.3584 C55.5619,27.3584 55.2259,27.0224 55.2259,26.6084 C55.2259,26.1944 55.5619,25.8584 55.9759,25.8584 L63.6689,25.8584 C64.0829,25.8584 64.4189,26.1944 64.4189,26.6084 C64.4189,27.0224 64.0829,27.3584 63.6689,27.3584" id="Fill-30" fill="#000000"/>
                        <path d="M81.75,47.1299 L0.75,47.1299 C0.336,47.1299 0,46.7939 0,46.3799 C0,45.9659 0.336,45.6299 0.75,45.6299 L81.75,45.6299 C82.164,45.6299 82.5,45.9659 82.5,46.3799 C82.5,46.7939 82.164,47.1299 81.75,47.1299" id="Fill-32" fill="#000000"/>
                    </g>
                </g>
            </g>
        </g>
    </g>
</svg>