<?xml version="1.0" encoding="UTF-8"?>
<svg width="24px" height="24px" viewBox="0 0 24 24" version="1.1" xmlns="http://www.w3.org/2000/svg" xmlns:xlink="http://www.w3.org/1999/xlink">
    <!-- Generator: Sketch 53.2 (72643) - https://sketchapp.com -->
    <title>icon/nature</title>
    <desc>Created with Sketch.</desc>
    <defs>
        <polygon id="path-1" points="0 0.199265604 23.9995341 0.199265604 23.9995341 7.9999 0 7.9999"></polygon>
        <polygon id="path-3" points="0.749841176 0.812291274 14 0.812291274 14 17.4023 0.749841176 17.4023"></polygon>
    </defs>
    <g id="icon/nature" stroke="none" stroke-width="1" fill="none" fill-rule="evenodd">
        <g id="Group-15">
            <path d="M6.3075,3.88 C4.4175,3.88 2.8795,5.418 2.8795,7.307 C2.8795,9.197 4.4175,10.735 6.3075,10.735 C8.1975,10.735 9.7355,9.197 9.7355,7.307 C9.7355,5.418 8.1975,3.88 6.3075,3.88 M6.3075,11.695 C3.8885,11.695 1.9195,9.727 1.9195,7.307 C1.9195,4.888 3.8885,2.92 6.3075,2.92 C8.7265,2.92 10.6955,4.888 10.6955,7.307 C10.6955,9.727 8.7265,11.695 6.3075,11.695" id="Fill-1" fill="#000000"></path>
            <g id="Group-5" transform="translate(0.000000, 15.188200)">
                <mask id="mask-2" fill="white">
                    <use xlink:href="#path-1"></use>
                </mask>
                <g id="Clip-4"></g>
                <path d="M1.4667,7.0399 L22.5017,7.0399 C19.0687,3.0239 15.4577,1.0389 11.7767,1.1639 C6.7727,1.3209 2.8937,5.3339 1.4667,7.0399 M23.5197,7.9999 L0.4797,7.9999 C0.3007,7.9999 0.1367,7.9009 0.0537,7.7419 C-0.0283,7.5829 -0.0163,7.3919 0.0867,7.2459 C0.2807,6.9669 4.9277,0.4229 11.7407,0.2049 C15.9967,0.0679 20.0697,2.4299 23.8947,7.2209 C24.0097,7.3649 24.0317,7.5619 23.9527,7.7279 C23.8727,7.8939 23.7037,7.9999 23.5197,7.9999" id="Fill-3" fill="#000000" mask="url(#mask-2)"></path>
            </g>
            <polygon id="Fill-6" fill="#009688" points="23.5199 17.1105 18.2749 8.5675 21.5619 8.5675 17.2119 1.4805 13.1869 8.5675 16.0819 8.5675 11.2299 17.1105"></polygon>
            <g id="Group-10" transform="translate(10.000000, 0.188200)">
                <mask id="mask-4" fill="white">
                    <use xlink:href="#path-3"></use>
                </mask>
                <g id="Clip-9"></g>
                <path d="M2.0541,16.4423 L12.6621,16.4423 L7.8651,8.6303 C7.7741,8.4823 7.7711,8.2963 7.8551,8.1443 C7.9401,7.9923 8.1001,7.8993 8.2751,7.8993 L10.7041,7.8993 L7.2271,2.2353 L4.0121,7.8993 L6.0811,7.8993 C6.2521,7.8993 6.4101,7.9893 6.4961,8.1373 C6.5821,8.2853 6.5831,8.4673 6.4981,8.6163 L2.0541,16.4423 Z M13.5201,17.4023 L1.2301,17.4023 C1.0581,17.4023 0.9011,17.3113 0.8151,17.1633 C0.7291,17.0163 0.7281,16.8333 0.8121,16.6853 L5.2571,8.8593 L3.1871,8.8593 C3.0161,8.8593 2.8581,8.7683 2.7721,8.6203 C2.6861,8.4723 2.6851,8.2903 2.7701,8.1413 L6.7941,1.0543 C6.8781,0.9073 7.0331,0.8153 7.2031,0.8123 C7.3251,0.8113 7.5321,0.8963 7.6201,1.0403 L11.9711,8.1273 C12.0621,8.2753 12.0661,8.4613 11.9811,8.6133 C11.8961,8.7653 11.7361,8.8593 11.5621,8.8593 L9.1321,8.8593 L13.9291,16.6713 C14.0201,16.8193 14.0241,17.0043 13.9391,17.1563 C13.8541,17.3083 13.6941,17.4023 13.5201,17.4023 L13.5201,17.4023 Z" id="Fill-8" fill="#000000" mask="url(#mask-4)"></path>
            </g>
            <path d="M17.3744,23.1881 C17.1094,23.1881 16.8944,22.9741 16.8944,22.7081 L16.8944,17.1101 C16.8944,16.8451 17.1094,16.6301 17.3744,16.6301 C17.6404,16.6301 17.8544,16.8451 17.8544,17.1101 L17.8544,22.7081 C17.8544,22.9741 17.6404,23.1881 17.3744,23.1881" id="Fill-11" fill="#000000"></path>
            <path d="M18.4716,9.047 L16.2786,9.047 C16.0136,9.047 15.7986,8.832 15.7986,8.567 C15.7986,8.302 16.0136,8.087 16.2786,8.087 L18.4716,8.087 C18.7366,8.087 18.9516,8.302 18.9516,8.567 C18.9516,8.832 18.7366,9.047 18.4716,9.047" id="Fill-13" fill="#000000"></path>
        </g>
    </g>
</svg>