<svg xmlns="http://www.w3.org/2000/svg" viewBox="0 0 27.48 28.81"><defs/><title>Notification_icon</title><g id="Layer_2"><g id="Notification"><path class="cls-bell1" d="M10.22,1.65h0a10,10,0,0,1,10,10v9a0,0,0,0,1,0,0H.22a0,0,0,0,1,0,0v-9A10,10,0,0,1,10.22,1.65Z" transform="translate(-4.5 7.68) rotate(-34.24)" style="fill: none; stroke: #fff; stroke-linecap: round; stroke-linejoin: round;"/><rect class="cls-bell2" x="4.71" y="18.69" width="24" height="4" rx="2" ry="2" transform="matrix(0.83, -0.56, 0.56, 0.83, -8.74, 12.99)" style="stroke: #fff; stroke-linecap: round; stroke-linejoin: round; fill: none;"/><circle class="cls-bell2" cx="4.05" cy="2" r="1.5" transform="translate(-0.42 2.62) rotate(-34.24)" style="stroke: #fff; stroke-linecap: round; stroke-linejoin: round; fill: none;"/><path class="cls-bell1" d="M19.84,21a2.44,2.44,0,1,1-4.05,2.71" style="fill: none; stroke: #fff; stroke-linecap: round; stroke-linejoin: round;"/></g></g></svg>
