<?xml version="1.0" encoding="UTF-8"?>
<svg width="30px" height="30px" viewBox="0 0 30 30" version="1.1" xmlns="http://www.w3.org/2000/svg" xmlns:xlink="http://www.w3.org/1999/xlink">
    <!-- Generator: Sketch 56.2 (81672) - https://sketch.com -->
    <title>Components/Star/Outline</title>
    <desc>Created with Sketch.</desc>
    <g id="Components/Star/Outline" stroke="none" stroke-width="1" fill="none" fill-rule="evenodd">
        <path d="M15.9962114,1.15519238 L15.9962058,1.15518059 C15.5839465,0.281637195 14.4156182,0.281637195 14.0037886,1.15519238 L10.6201822,8.32428969 C10.314544,8.97197454 9.71920571,9.42412259 9.02658675,9.52918494 L1.46003408,10.6789168 C0.544155284,10.8177328 0.169104064,12.0247555 0.84651492,12.7155247 L6.32161432,18.2959818 C6.81445568,18.7986105 7.03811001,19.5185496 6.92234364,20.222163 L5.63008522,28.1019943 C5.46949436,29.0803073 6.42943418,29.8097227 7.24001778,29.3639986 L14.007413,25.6438985 C14.6279124,25.3030906 15.3720876,25.3030906 15.9927424,25.6439838 L22.759854,29.3639281 C23.5706264,29.8093084 24.5304765,29.0801296 24.3699026,28.1019198 L23.0776986,20.2224202 C22.96189,19.5185496 23.1855443,18.7986105 23.6784914,18.295874 L29.1535204,12.7154887 C29.8308599,12.0252547 29.4557916,10.8181769 28.5397807,10.6788887 L20.9735392,9.52920407 C20.2807943,9.42412259 19.685456,8.97197454 19.3798313,8.32431841 L15.9962114,1.15519238 Z" id="star_inactive" stroke="#B2B2B2"></path>
    </g>
</svg>