<svg xmlns="http://www.w3.org/2000/svg" viewBox="0 0 25 20.24"><defs/><title>Para_icon</title><g id="Layer_2"><g id="Para"><path class="cls-paraicon1" d="M4.3,14.8a16.41,16.41,0,0,1-3.8-5" style="fill: none; stroke-linecap: round; stroke-linejoin: round; stroke: #009688;"/><path class="cls-paraicon1" d="M24.5,9.77a15.55,15.55,0,0,1-3.48,5" style="fill: none; stroke-linecap: round; stroke-linejoin: round; stroke: #009688;"/><path class="cls-paraicon1" d="M5.16,7.43A19.92,19.92,0,0,0,4.3,14.8" style="fill: none; stroke-linecap: round; stroke-linejoin: round; stroke: #009688;"/><path class="cls-paraicon1" d="M20.08,7.43a19.92,19.92,0,0,1,.86,7.36" style="fill: none; stroke-linecap: round; stroke-linejoin: round; stroke: #009688;"/><path class="cls-paraicon2" d="M.5,9.77c13.5-8.45,24,0,24,0V6.89S14.13-7.49.5,6.89Z" style="fill: none; stroke-linecap: round; stroke-linejoin: round; stroke: #000;"/><circle class="cls-paraicon2" cx="12.67" cy="14.86" r="1.73" transform="matrix(0.29, -0.96, 0.96, 0.29, -5.22, 22.67)" style="fill: none; stroke-linecap: round; stroke-linejoin: round; stroke: #000;"/><path class="cls-paraicon2" d="M20.21,15.51a11.41,11.41,0,0,1-7.54,2.63,12.47,12.47,0,0,1-7.51-2.63" style="fill: none; stroke-linecap: round; stroke-linejoin: round; stroke: #000;"/><path class="cls-paraicon2" d="M16,17.72s-3,4.54-6.4,0" style="fill: none; stroke-linecap: round; stroke-linejoin: round; stroke: #000;"/></g></g></svg>
