<svg xmlns="http://www.w3.org/2000/svg" viewBox="0 0 29 24.42"><defs/><title>ParaSelling_icon</title><g id="Layer_2"><g id="ParaSelling"><path class="cls-paraselling1" d="M20.4,8.55l.22-1.18a4.09,4.09,0,0,0-4.36-4.82l-1.2.09" style="fill: none; stroke-linecap: round; stroke: #009688; stroke-linejoin: round;"/><path class="cls-paraselling1" d="M25.82,14.54,26,13.37a4.09,4.09,0,0,0-4.36-4.82l-1.2.09" style="fill: none; stroke-linecap: round; stroke: #009688; stroke-linejoin: round;"/><path class="cls-paraselling2" d="M15,2.57a8.06,8.06,0,1,1,10.81,12" style="fill: none; stroke-linecap: round; stroke: #000; stroke-miterlimit: 10;"/><line class="cls-paraselling2" x1="13.46" y1="14.85" x2="25.84" y2="14.53" style="fill: none; stroke-linecap: round; stroke: #000; stroke-miterlimit: 10;"/><line class="cls-paraselling2" x1="11.56" y1="16.57" x2="26.42" y2="3.16" style="fill: none; stroke-linecap: round; stroke: #000; stroke-miterlimit: 10;"/><line class="cls-paraselling2" x1="15.02" y1="2.57" x2="13.46" y2="14.85" style="fill: none; stroke-linecap: round; stroke: #000; stroke-miterlimit: 10;"/><path class="cls-paraselling3" d="M28.5,23.92c-1.75,0-1.75-2-3.5-2s-1.75,2-3.5,2-1.75-2-3.49-2-1.75,2-3.5,2-1.75-2-3.5-2-1.75,2-3.5,2-1.75-2-3.51-2-1.75,2-3.51,2" style="fill: none; stroke-linecap: round; stroke-linejoin: round; stroke: #000;"/><path class="cls-paraselling3" d="M28.5,20.54c-1.75,0-1.75-2-3.5-2s-1.75,2-3.5,2-1.75-2-3.49-2-1.75,2-3.5,2-1.75-2-3.5-2-1.75,2-3.5,2-1.75-2-3.51-2-1.75,2-3.51,2" style="fill: none; stroke-linecap: round; stroke-linejoin: round; stroke: #000;"/></g></g></svg>
