<?xml version="1.0" encoding="UTF-8"?>
<svg width="24px" height="24px" viewBox="0 0 24 24" version="1.1" xmlns="http://www.w3.org/2000/svg" xmlns:xlink="http://www.w3.org/1999/xlink">
    <!-- Generator: Sketch 52.2 (67145) - http://www.bohemiancoding.com/sketch -->
    <title>Icon/Parking</title>
    <desc>Created with Sketch.</desc>
    <defs>
        <polygon id="path-1" points="0 0.0001 19.9995 0.0001 19.9995 20 0 20"></polygon>
    </defs>
    <g id="Icon/Parking" stroke="none" stroke-width="1" fill="none" fill-rule="evenodd">
        <g id="Group-8" transform="translate(2.000000, 2.000000)">
            <g id="Group-3">
                <mask id="mask-2" fill="white">
                    <use xlink:href="#path-1"></use>
                </mask>
                <g id="Clip-2"></g>
                <path d="M2.5205,0.9521 C1.6555,0.9521 0.9525,1.6551 0.9525,2.5191 L0.9525,17.4791 C0.9525,18.3451 1.6555,19.0481 2.5205,19.0481 L17.4805,19.0481 C18.3445,19.0481 19.0475,18.3451 19.0475,17.4791 L19.0475,2.5191 C19.0475,1.6551 18.3445,0.9521 17.4805,0.9521 L2.5205,0.9521 Z M17.4805,20.0001 L2.5205,20.0001 C1.1305,20.0001 -0.0005,18.8691 -0.0005,17.4791 L-0.0005,2.5191 C-0.0005,1.1301 1.1305,0.0001 2.5205,0.0001 L17.4805,0.0001 C18.8705,0.0001 19.9995,1.1301 19.9995,2.5191 L19.9995,17.4791 C19.9995,18.8691 18.8705,20.0001 17.4805,20.0001 Z" id="Fill-1" fill="#000000" mask="url(#mask-2)"></path>
            </g>
            <path d="M8.2988,9.6357 C8.5408,9.6917 8.8408,9.7087 9.2518,9.7087 C10.7668,9.7087 11.7018,8.9427 11.7018,7.6527 C11.7018,6.4917 10.8988,5.7997 9.4768,5.7997 C8.8968,5.7997 8.5038,5.8557 8.2988,5.9127 L8.2988,9.6357 Z M5.4738,3.9097 C6.3528,3.7607 7.5878,3.6497 9.3268,3.6497 C11.0848,3.6497 12.3388,3.9857 13.1808,4.6577 C13.9858,5.2947 14.5278,6.3417 14.5278,7.5767 C14.5278,8.8117 14.1158,9.8597 13.3668,10.5707 C12.3948,11.4867 10.9538,11.8987 9.2708,11.8987 C8.8968,11.8987 8.5598,11.8797 8.2988,11.8417 L8.2988,16.3507 L5.4738,16.3507 L5.4738,3.9097 Z" id="Fill-4" fill="#009688"></path>
            <path d="M8.7744,9.2207 C8.9064,9.2297 9.0624,9.2337 9.2524,9.2337 C9.8454,9.2337 11.2254,9.0787 11.2254,7.6527 C11.2254,6.0827 9.3844,6.2427 8.7744,6.3107 L8.7744,9.2207 Z M9.2524,10.1857 C8.7724,10.1857 8.4554,10.1597 8.1914,10.0997 C7.9754,10.0497 7.8224,9.8577 7.8224,9.6357 L7.8224,5.9117 C7.8224,5.6987 7.9644,5.5107 8.1714,5.4527 C8.4744,5.3697 8.9374,5.3237 9.4764,5.3237 C11.1424,5.3237 12.1774,6.2157 12.1774,7.6527 C12.1774,9.1917 11.0294,10.1857 9.2524,10.1857 Z M5.9494,15.8737 L7.8224,15.8737 L7.8224,11.8417 C7.8224,11.7027 7.8814,11.5727 7.9864,11.4817 C8.0924,11.3907 8.2324,11.3537 8.3674,11.3697 C8.6034,11.4047 8.9164,11.4227 9.2694,11.4227 C10.9044,11.4227 12.2084,11.0077 13.0414,10.2237 C13.6924,9.6047 14.0514,8.6637 14.0514,7.5767 C14.0514,6.5457 13.6264,5.6177 12.8844,5.0327 C12.1224,4.4217 10.9594,4.1257 9.3264,4.1257 C8.0114,4.1257 6.8784,4.1907 5.9494,4.3197 L5.9494,15.8737 Z M8.2974,16.8257 L5.4734,16.8257 C5.2104,16.8257 4.9974,16.6137 4.9974,16.3507 L4.9974,3.9097 C4.9974,3.6777 5.1654,3.4797 5.3944,3.4407 C6.4414,3.2637 7.7644,3.1737 9.3264,3.1737 C11.1834,3.1737 12.5424,3.5377 13.4784,4.2867 C14.4464,5.0527 15.0034,6.2527 15.0034,7.5767 C15.0034,8.9287 14.5404,10.1137 13.6964,10.9147 C12.6814,11.8707 11.1514,12.3747 9.2694,12.3747 C9.0954,12.3747 8.9294,12.3717 8.7744,12.3637 L8.7744,16.3507 C8.7744,16.6137 8.5614,16.8257 8.2974,16.8257 Z" id="Fill-6" fill="#000000"></path>
        </g>
    </g>
</svg>