<svg xmlns="http://www.w3.org/2000/svg" viewBox="0 0 65.32 57.05"><defs/><title>Part_Pay</title><g id="Layer_2"><g id="Layer_1-2"><path class="cls-partypay1" d="M29.25,56.54C13.71,56.54,1.09,44.72.52,29.62-.07,14.18,12.38,1.13,28.27.52l1.15,0A29.08,29.08,0,0,1,52.88,12.3a.5.5,0,0,1-.07.67L35.95,27.83,54.55,41.15a.5.5,0,0,1,.15.65A29.15,29.15,0,0,1,30.4,56.52l-1.15,0Z" style="fill: #fff;"/><path d="M29.42,1A28.49,28.49,0,0,1,52.48,12.6L35.14,27.87,54.26,41.55A28.49,28.49,0,0,1,30.38,56l-1.13,0C14.12,56,1.58,44.42,1,29.6.44,14.41,12.65,1.62,28.29,1l1.13,0m0-1L28.25,0C12.09.64-.58,13.92,0,29.64.6,45,13.45,57,29.25,57l1.17,0A29.66,29.66,0,0,0,55.14,42a1,1,0,0,0-.29-1.3l-18.09-13L53.14,13.35A1,1,0,0,0,53.29,12,29.58,29.58,0,0,0,29.42,0Z"/><path class="cls-partypay2" d="M30.77,44.67a.5.5,0,0,1-.37-.17c-3.87-4.32-7.44-8.26-12-12.73a.5.5,0,0,1-.15-.34l-.11-2.91a.5.5,0,0,1,.48-.52l2.58-.1c4.32-.16,6.92-1.8,7.38-4.64l-10.14.39a.5.5,0,0,1-.5-.48l-.09-2.35a.5.5,0,0,1,.48-.52l9.88-.38c-.83-1.89-2.86-2.85-6-2.85h-.64l-3.35.13a.5.5,0,0,1-.5-.48l-.12-3.05a.5.5,0,0,1,.48-.52l19.78-.75a.5.5,0,0,1,.5.48l.09,2.35a.5.5,0,0,1-.48.52L31.47,16a7.55,7.55,0,0,1,1.94,3.72l4.71-.18a.5.5,0,0,1,.5.48l.09,2.35a.5.5,0,0,1-.48.52l-4.63.17c-.47,4.58-3.9,7.62-9.32,8.33,3.66,3.6,7.61,8,11.36,12.26a.5.5,0,0,1-.36.83Z" style="fill: #009688;"/><path d="M37.85,12.93l.09,2.35-7.74.29A7,7,0,0,1,33,20.26l5.12-.19.09,2.35-5.07.19c-.29,4.81-4,8-10,8.42,3.81,3.66,8,8.3,12.1,13l-4.51.17c-3.83-4.27-7.41-8.23-12-12.75l-.11-2.91,2.58-.1c5.07-.19,7.71-2.41,7.92-5.66l-10.7.41-.09-2.35,10.56-.4c-.72-2.55-3-3.82-6.73-3.82h-.65l-3.33.13-.12-3.05,19.76-.75m0-1h0l-19.76.75a1,1,0,0,0-1,1l.12,3.05a1,1,0,0,0,1,1h0l3.33-.13h.62c2.57,0,4.29.62,5.19,1.88l-9.06.34a1,1,0,0,0-1,1l.09,2.35a1,1,0,0,0,1,1h0L28,23.8c-.9,2.93-4.52,3.53-6.76,3.61l-2.58.1a1,1,0,0,0-1,1l.11,2.91a1,1,0,0,0,.3.67c4.53,4.47,8.1,8.4,12,12.71a1,1,0,0,0,.74.33h0L35.31,45A1,1,0,0,0,36,43.34c-3.52-4-7.22-8.13-10.69-11.6,4.87-.94,8.08-3.94,8.71-8.18l4.2-.16a1,1,0,0,0,1-1L39.12,20a1,1,0,0,0-1-1h0l-4.28.16a8.11,8.11,0,0,0-1.29-2.74L38,16.27a1,1,0,0,0,1-1l-.09-2.35a1,1,0,0,0-1-1Z"/><path class="cls-partypay2" d="M60.77,40.1a.5.5,0,0,1-.28-.08L41.65,27.61a.5.5,0,0,1,0-.81l16.81-13a.5.5,0,0,1,.67.05c11.46,12.14,2.18,25.91,2.08,26A.5.5,0,0,1,60.77,40.1Z" style="fill: #009688;"/><path d="M58.73,14.18c11.32,12,2,25.42,2,25.42L41.92,27.19l16.81-13m0-1a1,1,0,0,0-.61.21l-16.81,13A1,1,0,0,0,41.37,28L60.22,40.43a1,1,0,0,0,1.37-.27c.1-.14,9.6-14.25-2.13-26.68a1,1,0,0,0-.73-.31Z"/></g></g></svg>
