<?xml version="1.0" encoding="UTF-8"?>
<svg width="200px" height="177px" viewBox="0 0 200 177" version="1.1" xmlns="http://www.w3.org/2000/svg" xmlns:xlink="http://www.w3.org/1999/xlink">
    <!-- Generator: Sketch 63.1 (92452) - https://sketch.com -->
    <title>Group 235</title>
    <desc>Created with Sketch.</desc>
    <defs>
        <path d="M0.022,3.459 C0.022,4.863 27.697,6 61.835,6 L61.835,6 C95.972,6 123.646,4.863 123.646,3.459 L123.646,3.459 C123.646,2.057 95.972,0.919 61.835,0.919 L61.835,0.919 C27.697,0.919 0.022,2.057 0.022,3.459 L0.022,3.459 Z" id="path-1"></path>
        <polygon id="path-3" points="0.3814 0.149 142.0724 0.149 142.0724 141.8609 0.3814 141.8609"></polygon>
    </defs>
    <g id="Group-235" stroke="none" stroke-width="1" fill="none" fill-rule="evenodd">
        <g>
            <path d="M86.8343,171.7706 C120.9723,171.7706 148.6463,172.9086 148.6463,174.3106 C148.6463,175.7136 120.9723,176.8506 86.8343,176.8506 C52.6963,176.8506 25.0223,175.7136 25.0223,174.3106 C25.0223,172.9086 52.6963,171.7706 86.8343,171.7706" id="Fill-1" fill="#D6D6D6"></path>
            <g id="Group-198" transform="translate(25.000000, 170.851000)">
                <mask id="mask-2" fill="white">
                    <use xlink:href="#path-1"></use>
                </mask>
                <g id="Clip-4"></g>
                <polygon id="Fill-3" fill="#D6D6D6" mask="url(#mask-2)" points="0.022 6 0.663 6 0.663 0.92 0.022 0.92"></polygon>
                <polygon id="Fill-5" fill="#D6D6D6" mask="url(#mask-2)" points="0.662 6 1.303 6 1.303 0.92 0.662 0.92"></polygon>
                <polygon id="Fill-6" fill="#D6D6D6" mask="url(#mask-2)" points="1.303 6 1.944 6 1.944 0.92 1.303 0.92"></polygon>
                <polygon id="Fill-7" fill="#D6D6D6" mask="url(#mask-2)" points="1.944 6 2.585 6 2.585 0.92 1.944 0.92"></polygon>
                <polygon id="Fill-8" fill="#D6D6D6" mask="url(#mask-2)" points="2.585 6 3.225 6 3.225 0.92 2.585 0.92"></polygon>
                <polygon id="Fill-9" fill="#D6D6D6" mask="url(#mask-2)" points="3.225 6 3.866 6 3.866 0.92 3.225 0.92"></polygon>
                <polygon id="Fill-10" fill="#D6D6D6" mask="url(#mask-2)" points="3.865 6 4.506 6 4.506 0.92 3.865 0.92"></polygon>
                <polygon id="Fill-11" fill="#D6D6D6" mask="url(#mask-2)" points="4.506 6 5.147 6 5.147 0.92 4.506 0.92"></polygon>
                <polygon id="Fill-12" fill="#D6D6D6" mask="url(#mask-2)" points="5.146 6 5.787 6 5.787 0.92 5.146 0.92"></polygon>
                <polygon id="Fill-13" fill="#D6D6D6" mask="url(#mask-2)" points="5.787 6 6.428 6 6.428 0.92 5.787 0.92"></polygon>
                <polygon id="Fill-14" fill="#D6D6D6" mask="url(#mask-2)" points="6.428 6 7.068 6 7.068 0.92 6.428 0.92"></polygon>
                <polygon id="Fill-15" fill="#D6D6D6" mask="url(#mask-2)" points="7.068 6 7.709 6 7.709 0.92 7.068 0.92"></polygon>
                <polygon id="Fill-16" fill="#D6D6D6" mask="url(#mask-2)" points="7.708 6 8.349 6 8.349 0.92 7.708 0.92"></polygon>
                <polygon id="Fill-17" fill="#D6D6D6" mask="url(#mask-2)" points="8.349 6 8.99 6 8.99 0.92 8.349 0.92"></polygon>
                <polygon id="Fill-18" fill="#D6D6D6" mask="url(#mask-2)" points="8.99 6 9.631 6 9.631 0.92 8.99 0.92"></polygon>
                <polygon id="Fill-19" fill="#D6D6D6" mask="url(#mask-2)" points="9.631 6 10.271 6 10.271 0.92 9.631 0.92"></polygon>
                <polygon id="Fill-20" fill="#D6D6D6" mask="url(#mask-2)" points="10.27 6 10.911 6 10.911 0.92 10.27 0.92"></polygon>
                <polygon id="Fill-21" fill="#D6D6D6" mask="url(#mask-2)" points="10.911 6 11.552 6 11.552 0.92 10.911 0.92"></polygon>
                <polygon id="Fill-22" fill="#D6D6D6" mask="url(#mask-2)" points="11.552 6 12.193 6 12.193 0.92 11.552 0.92"></polygon>
                <polygon id="Fill-23" fill="#D6D6D6" mask="url(#mask-2)" points="12.192 6 12.833 6 12.833 0.92 12.192 0.92"></polygon>
                <polygon id="Fill-24" fill="#D6D6D6" mask="url(#mask-2)" points="12.833 6 13.474 6 13.474 0.92 12.833 0.92"></polygon>
                <polygon id="Fill-25" fill="#D6D6D6" mask="url(#mask-2)" points="13.474 6 14.114 6 14.114 0.92 13.474 0.92"></polygon>
                <polygon id="Fill-26" fill="#D6D6D6" mask="url(#mask-2)" points="14.114 6 14.755 6 14.755 0.92 14.114 0.92"></polygon>
                <polygon id="Fill-27" fill="#D6D6D6" mask="url(#mask-2)" points="14.754 6 15.395 6 15.395 0.92 14.754 0.92"></polygon>
                <polygon id="Fill-28" fill="#D6D6D6" mask="url(#mask-2)" points="15.395 6 16.036 6 16.036 0.92 15.395 0.92"></polygon>
                <polygon id="Fill-29" fill="#D6D6D6" mask="url(#mask-2)" points="16.036 6 16.677 6 16.677 0.92 16.036 0.92"></polygon>
                <polygon id="Fill-30" fill="#D6D6D6" mask="url(#mask-2)" points="16.677 6 17.317 6 17.317 0.92 16.677 0.92"></polygon>
                <polygon id="Fill-31" fill="#D6D6D6" mask="url(#mask-2)" points="17.316 6 17.957 6 17.957 0.92 17.316 0.92"></polygon>
                <polygon id="Fill-32" fill="#D6D6D6" mask="url(#mask-2)" points="17.957 6 18.598 6 18.598 0.92 17.957 0.92"></polygon>
                <polygon id="Fill-33" fill="#D6D6D6" mask="url(#mask-2)" points="18.598 6 19.239 6 19.239 0.92 18.598 0.92"></polygon>
                <polygon id="Fill-34" fill="#D6D6D6" mask="url(#mask-2)" points="19.238 6 19.879 6 19.879 0.92 19.238 0.92"></polygon>
                <polygon id="Fill-35" fill="#D6D6D6" mask="url(#mask-2)" points="19.879 6 20.52 6 20.52 0.92 19.879 0.92"></polygon>
                <polygon id="Fill-36" fill="#D6D6D6" mask="url(#mask-2)" points="20.52 6 21.16 6 21.16 0.92 20.52 0.92"></polygon>
                <polygon id="Fill-37" fill="#D6D6D6" mask="url(#mask-2)" points="21.16 6 21.801 6 21.801 0.92 21.16 0.92"></polygon>
                <polygon id="Fill-38" fill="#D6D6D6" mask="url(#mask-2)" points="21.8 6 22.441 6 22.441 0.92 21.8 0.92"></polygon>
                <polygon id="Fill-39" fill="#D6D6D6" mask="url(#mask-2)" points="22.441 6 23.082 6 23.082 0.92 22.441 0.92"></polygon>
                <polygon id="Fill-40" fill="#D6D6D6" mask="url(#mask-2)" points="23.081 6 23.722 6 23.722 0.92 23.081 0.92"></polygon>
                <polygon id="Fill-41" fill="#D6D6D6" mask="url(#mask-2)" points="23.722 6 24.363 6 24.363 0.92 23.722 0.92"></polygon>
                <polygon id="Fill-42" fill="#D6D6D6" mask="url(#mask-2)" points="24.363 6 25.003 6 25.003 0.92 24.363 0.92"></polygon>
                <polygon id="Fill-43" fill="#D6D6D6" mask="url(#mask-2)" points="25.003 6 25.644 6 25.644 0.92 25.003 0.92"></polygon>
                <polygon id="Fill-44" fill="#D6D6D6" mask="url(#mask-2)" points="25.643 6 26.284 6 26.284 0.92 25.643 0.92"></polygon>
                <polygon id="Fill-45" fill="#D6D6D6" mask="url(#mask-2)" points="26.284 6 26.925 6 26.925 0.92 26.284 0.92"></polygon>
                <polygon id="Fill-46" fill="#D6D6D6" mask="url(#mask-2)" points="26.925 6 27.566 6 27.566 0.92 26.925 0.92"></polygon>
                <polygon id="Fill-47" fill="#D6D6D6" mask="url(#mask-2)" points="27.566 6 28.206 6 28.206 0.92 27.566 0.92"></polygon>
                <polygon id="Fill-48" fill="#D6D6D6" mask="url(#mask-2)" points="28.205 6 28.846 6 28.846 0.92 28.205 0.92"></polygon>
                <polygon id="Fill-49" fill="#D6D6D6" mask="url(#mask-2)" points="28.846 6 29.487 6 29.487 0.92 28.846 0.92"></polygon>
                <polygon id="Fill-50" fill="#D6D6D6" mask="url(#mask-2)" points="29.487 6 30.128 6 30.128 0.92 29.487 0.92"></polygon>
                <polygon id="Fill-51" fill="#D6D6D6" mask="url(#mask-2)" points="30.127 6 30.768 6 30.768 0.92 30.127 0.92"></polygon>
                <polygon id="Fill-52" fill="#D6D6D6" mask="url(#mask-2)" points="30.768 6 31.409 6 31.409 0.92 30.768 0.92"></polygon>
                <polygon id="Fill-53" fill="#D6D6D6" mask="url(#mask-2)" points="31.409 6 32.049 6 32.049 0.92 31.409 0.92"></polygon>
                <polygon id="Fill-54" fill="#D6D6D6" mask="url(#mask-2)" points="32.049 6 32.69 6 32.69 0.92 32.049 0.92"></polygon>
                <polygon id="Fill-55" fill="#D6D6D6" mask="url(#mask-2)" points="32.689 6 33.33 6 33.33 0.92 32.689 0.92"></polygon>
                <polygon id="Fill-56" fill="#D6D6D6" mask="url(#mask-2)" points="33.33 6 33.971 6 33.971 0.92 33.33 0.92"></polygon>
                <polygon id="Fill-57" fill="#D6D6D6" mask="url(#mask-2)" points="33.971 6 34.612 6 34.612 0.92 33.971 0.92"></polygon>
                <polygon id="Fill-58" fill="#D6D6D6" mask="url(#mask-2)" points="34.612 6 35.252 6 35.252 0.92 34.612 0.92"></polygon>
                <polygon id="Fill-59" fill="#D6D6D6" mask="url(#mask-2)" points="35.251 6 35.892 6 35.892 0.92 35.251 0.92"></polygon>
                <polygon id="Fill-60" fill="#D6D6D6" mask="url(#mask-2)" points="35.892 6 36.533 6 36.533 0.92 35.892 0.92"></polygon>
                <polygon id="Fill-61" fill="#D6D6D6" mask="url(#mask-2)" points="36.533 6 37.174 6 37.174 0.92 36.533 0.92"></polygon>
                <polygon id="Fill-62" fill="#D6D6D6" mask="url(#mask-2)" points="37.173 6 37.814 6 37.814 0.92 37.173 0.92"></polygon>
                <polygon id="Fill-63" fill="#D6D6D6" mask="url(#mask-2)" points="37.814 6 38.455 6 38.455 0.92 37.814 0.92"></polygon>
                <polygon id="Fill-64" fill="#D6D6D6" mask="url(#mask-2)" points="38.455 6 39.095 6 39.095 0.92 38.455 0.92"></polygon>
                <polygon id="Fill-65" fill="#D6D6D6" mask="url(#mask-2)" points="39.095 6 39.736 6 39.736 0.92 39.095 0.92"></polygon>
                <polygon id="Fill-66" fill="#D6D6D6" mask="url(#mask-2)" points="39.735 6 40.376 6 40.376 0.92 39.735 0.92"></polygon>
                <polygon id="Fill-67" fill="#D6D6D6" mask="url(#mask-2)" points="40.376 6 41.017 6 41.017 0.92 40.376 0.92"></polygon>
                <polygon id="Fill-68" fill="#D6D6D6" mask="url(#mask-2)" points="41.017 6 41.658 6 41.658 0.92 41.017 0.92"></polygon>
                <polygon id="Fill-69" fill="#D6D6D6" mask="url(#mask-2)" points="41.657 6 42.298 6 42.298 0.92 41.657 0.92"></polygon>
                <polygon id="Fill-70" fill="#D6D6D6" mask="url(#mask-2)" points="42.298 6 42.938 6 42.938 0.92 42.298 0.92"></polygon>
                <polygon id="Fill-71" fill="#D6D6D6" mask="url(#mask-2)" points="42.938 6 43.579 6 43.579 0.92 42.938 0.92"></polygon>
                <polygon id="Fill-72" fill="#D6D6D6" mask="url(#mask-2)" points="43.579 6 44.22 6 44.22 0.92 43.579 0.92"></polygon>
                <polygon id="Fill-73" fill="#D6D6D6" mask="url(#mask-2)" points="44.219 6 44.86 6 44.86 0.92 44.219 0.92"></polygon>
                <polygon id="Fill-74" fill="#D6D6D6" mask="url(#mask-2)" points="44.86 6 45.501 6 45.501 0.92 44.86 0.92"></polygon>
                <polygon id="Fill-75" fill="#D6D6D6" mask="url(#mask-2)" points="45.501 6 46.141 6 46.141 0.92 45.501 0.92"></polygon>
                <polygon id="Fill-76" fill="#D6D6D6" mask="url(#mask-2)" points="46.141 6 46.782 6 46.782 0.92 46.141 0.92"></polygon>
                <polygon id="Fill-77" fill="#D6D6D6" mask="url(#mask-2)" points="46.781 6 47.422 6 47.422 0.92 46.781 0.92"></polygon>
                <polygon id="Fill-78" fill="#D6D6D6" mask="url(#mask-2)" points="47.422 6 48.063 6 48.063 0.92 47.422 0.92"></polygon>
                <polygon id="Fill-79" fill="#D6D6D6" mask="url(#mask-2)" points="48.062 6 48.703 6 48.703 0.92 48.062 0.92"></polygon>
                <polygon id="Fill-80" fill="#D6D6D6" mask="url(#mask-2)" points="48.703 6 49.344 6 49.344 0.92 48.703 0.92"></polygon>
                <polygon id="Fill-81" fill="#D6D6D6" mask="url(#mask-2)" points="49.344 6 49.984 6 49.984 0.92 49.344 0.92"></polygon>
                <polygon id="Fill-82" fill="#D6D6D6" mask="url(#mask-2)" points="49.984 6 50.625 6 50.625 0.92 49.984 0.92"></polygon>
                <polygon id="Fill-83" fill="#D6D6D6" mask="url(#mask-2)" points="50.624 6 51.265 6 51.265 0.92 50.624 0.92"></polygon>
                <polygon id="Fill-84" fill="#D6D6D6" mask="url(#mask-2)" points="51.265 6 51.906 6 51.906 0.92 51.265 0.92"></polygon>
                <polygon id="Fill-85" fill="#D6D6D6" mask="url(#mask-2)" points="51.906 6 52.547 6 52.547 0.92 51.906 0.92"></polygon>
                <polygon id="Fill-86" fill="#D6D6D6" mask="url(#mask-2)" points="52.547 6 53.187 6 53.187 0.92 52.547 0.92"></polygon>
                <polygon id="Fill-87" fill="#D6D6D6" mask="url(#mask-2)" points="53.186 6 53.827 6 53.827 0.92 53.186 0.92"></polygon>
                <polygon id="Fill-88" fill="#D6D6D6" mask="url(#mask-2)" points="53.827 6 54.468 6 54.468 0.92 53.827 0.92"></polygon>
                <polygon id="Fill-89" fill="#D6D6D6" mask="url(#mask-2)" points="54.468 6 55.109 6 55.109 0.92 54.468 0.92"></polygon>
                <polygon id="Fill-90" fill="#D6D6D6" mask="url(#mask-2)" points="55.108 6 55.749 6 55.749 0.92 55.108 0.92"></polygon>
                <polygon id="Fill-91" fill="#D6D6D6" mask="url(#mask-2)" points="55.749 6 56.39 6 56.39 0.92 55.749 0.92"></polygon>
                <polygon id="Fill-92" fill="#D6D6D6" mask="url(#mask-2)" points="56.39 6 57.03 6 57.03 0.92 56.39 0.92"></polygon>
                <polygon id="Fill-93" fill="#D6D6D6" mask="url(#mask-2)" points="57.03 6 57.671 6 57.671 0.92 57.03 0.92"></polygon>
                <polygon id="Fill-94" fill="#D6D6D6" mask="url(#mask-2)" points="57.67 6 58.311 6 58.311 0.92 57.67 0.92"></polygon>
                <polygon id="Fill-95" fill="#D6D6D6" mask="url(#mask-2)" points="58.311 6 58.952 6 58.952 0.92 58.311 0.92"></polygon>
                <polygon id="Fill-96" fill="#D6D6D6" mask="url(#mask-2)" points="58.952 6 59.593 6 59.593 0.92 58.952 0.92"></polygon>
                <polygon id="Fill-97" fill="#D6D6D6" mask="url(#mask-2)" points="59.593 6 60.233 6 60.233 0.92 59.593 0.92"></polygon>
                <polygon id="Fill-98" fill="#D6D6D6" mask="url(#mask-2)" points="60.232 6 60.873 6 60.873 0.92 60.232 0.92"></polygon>
                <polygon id="Fill-99" fill="#D6D6D6" mask="url(#mask-2)" points="60.873 6 61.514 6 61.514 0.92 60.873 0.92"></polygon>
                <polygon id="Fill-100" fill="#D6D6D6" mask="url(#mask-2)" points="61.514 6 62.155 6 62.155 0.92 61.514 0.92"></polygon>
                <polygon id="Fill-101" fill="#D6D6D6" mask="url(#mask-2)" points="62.154 6 62.795 6 62.795 0.92 62.154 0.92"></polygon>
                <polygon id="Fill-102" fill="#D6D6D6" mask="url(#mask-2)" points="62.795 6 63.436 6 63.436 0.92 62.795 0.92"></polygon>
                <polygon id="Fill-103" fill="#D6D6D6" mask="url(#mask-2)" points="63.436 6 64.076 6 64.076 0.92 63.436 0.92"></polygon>
                <polygon id="Fill-104" fill="#D6D6D6" mask="url(#mask-2)" points="64.076 6 64.717 6 64.717 0.92 64.076 0.92"></polygon>
                <polygon id="Fill-105" fill="#D6D6D6" mask="url(#mask-2)" points="64.716 6 65.357 6 65.357 0.92 64.716 0.92"></polygon>
                <polygon id="Fill-106" fill="#D6D6D6" mask="url(#mask-2)" points="65.357 6 65.998 6 65.998 0.92 65.357 0.92"></polygon>
                <polygon id="Fill-107" fill="#D6D6D6" mask="url(#mask-2)" points="65.997 6 66.638 6 66.638 0.92 65.997 0.92"></polygon>
                <polygon id="Fill-108" fill="#D6D6D6" mask="url(#mask-2)" points="66.638 6 67.279 6 67.279 0.92 66.638 0.92"></polygon>
                <polygon id="Fill-109" fill="#D6D6D6" mask="url(#mask-2)" points="67.279 6 67.919 6 67.919 0.92 67.279 0.92"></polygon>
                <polygon id="Fill-110" fill="#D6D6D6" mask="url(#mask-2)" points="67.919 6 68.56 6 68.56 0.92 67.919 0.92"></polygon>
                <polygon id="Fill-111" fill="#D6D6D6" mask="url(#mask-2)" points="68.559 6 69.2 6 69.2 0.92 68.559 0.92"></polygon>
                <polygon id="Fill-112" fill="#D6D6D6" mask="url(#mask-2)" points="69.2 6 69.841 6 69.841 0.92 69.2 0.92"></polygon>
                <polygon id="Fill-113" fill="#D6D6D6" mask="url(#mask-2)" points="69.841 6 70.482 6 70.482 0.92 69.841 0.92"></polygon>
                <polygon id="Fill-114" fill="#D6D6D6" mask="url(#mask-2)" points="70.482 6 71.122 6 71.122 0.92 70.482 0.92"></polygon>
                <polygon id="Fill-115" fill="#D6D6D6" mask="url(#mask-2)" points="71.121 6 71.762 6 71.762 0.92 71.121 0.92"></polygon>
                <polygon id="Fill-116" fill="#D6D6D6" mask="url(#mask-2)" points="71.762 6 72.403 6 72.403 0.92 71.762 0.92"></polygon>
                <polygon id="Fill-117" fill="#D6D6D6" mask="url(#mask-2)" points="72.403 6 73.044 6 73.044 0.92 72.403 0.92"></polygon>
                <polygon id="Fill-118" fill="#D6D6D6" mask="url(#mask-2)" points="73.043 6 73.684 6 73.684 0.92 73.043 0.92"></polygon>
                <polygon id="Fill-119" fill="#D6D6D6" mask="url(#mask-2)" points="73.684 6 74.325 6 74.325 0.92 73.684 0.92"></polygon>
                <polygon id="Fill-120" fill="#D6D6D6" mask="url(#mask-2)" points="74.325 6 74.965 6 74.965 0.92 74.325 0.92"></polygon>
                <polygon id="Fill-121" fill="#D6D6D6" mask="url(#mask-2)" points="74.965 6 75.606 6 75.606 0.92 74.965 0.92"></polygon>
                <polygon id="Fill-122" fill="#D6D6D6" mask="url(#mask-2)" points="75.605 6 76.246 6 76.246 0.92 75.605 0.92"></polygon>
                <polygon id="Fill-123" fill="#D6D6D6" mask="url(#mask-2)" points="76.246 6 76.887 6 76.887 0.92 76.246 0.92"></polygon>
                <polygon id="Fill-124" fill="#D6D6D6" mask="url(#mask-2)" points="76.887 6 77.528 6 77.528 0.92 76.887 0.92"></polygon>
                <polygon id="Fill-125" fill="#D6D6D6" mask="url(#mask-2)" points="77.527 6 78.168 6 78.168 0.92 77.527 0.92"></polygon>
                <polygon id="Fill-126" fill="#D6D6D6" mask="url(#mask-2)" points="78.168 6 78.809 6 78.809 0.92 78.168 0.92"></polygon>
                <polygon id="Fill-127" fill="#D6D6D6" mask="url(#mask-2)" points="78.808 6 79.449 6 79.449 0.92 78.808 0.92"></polygon>
                <polygon id="Fill-128" fill="#D6D6D6" mask="url(#mask-2)" points="79.449 6 80.089 6 80.089 0.92 79.449 0.92"></polygon>
                <polygon id="Fill-129" fill="#D6D6D6" mask="url(#mask-2)" points="80.089 6 80.73 6 80.73 0.92 80.089 0.92"></polygon>
                <polygon id="Fill-130" fill="#D6D6D6" mask="url(#mask-2)" points="80.729 6 81.37 6 81.37 0.92 80.729 0.92"></polygon>
                <polygon id="Fill-131" fill="#D6D6D6" mask="url(#mask-2)" points="81.37 6 82.011 6 82.011 0.92 81.37 0.92"></polygon>
                <polygon id="Fill-132" fill="#D6D6D6" mask="url(#mask-2)" points="82.011 6 82.652 6 82.652 0.92 82.011 0.92"></polygon>
                <polygon id="Fill-133" fill="#D6D6D6" mask="url(#mask-2)" points="82.651 6 83.292 6 83.292 0.92 82.651 0.92"></polygon>
                <polygon id="Fill-134" fill="#D6D6D6" mask="url(#mask-2)" points="83.292 6 83.933 6 83.933 0.92 83.292 0.92"></polygon>
                <polygon id="Fill-135" fill="#D6D6D6" mask="url(#mask-2)" points="83.933 6 84.574 6 84.574 0.92 83.933 0.92"></polygon>
                <polygon id="Fill-136" fill="#D6D6D6" mask="url(#mask-2)" points="84.573 6 85.214 6 85.214 0.92 84.573 0.92"></polygon>
                <polygon id="Fill-137" fill="#D6D6D6" mask="url(#mask-2)" points="85.214 6 85.855 6 85.855 0.92 85.214 0.92"></polygon>
                <polygon id="Fill-138" fill="#D6D6D6" mask="url(#mask-2)" points="85.854 6 86.495 6 86.495 0.92 85.854 0.92"></polygon>
                <polygon id="Fill-139" fill="#D6D6D6" mask="url(#mask-2)" points="86.495 6 87.135 6 87.135 0.92 86.495 0.92"></polygon>
                <polygon id="Fill-140" fill="#D6D6D6" mask="url(#mask-2)" points="87.135 6 87.776 6 87.776 0.92 87.135 0.92"></polygon>
                <polygon id="Fill-141" fill="#D6D6D6" mask="url(#mask-2)" points="87.775 6 88.416 6 88.416 0.92 87.775 0.92"></polygon>
                <polygon id="Fill-142" fill="#D6D6D6" mask="url(#mask-2)" points="88.416 6 89.057 6 89.057 0.92 88.416 0.92"></polygon>
                <polygon id="Fill-143" fill="#D6D6D6" mask="url(#mask-2)" points="89.057 6 89.698 6 89.698 0.92 89.057 0.92"></polygon>
                <polygon id="Fill-144" fill="#D6D6D6" mask="url(#mask-2)" points="89.697 6 90.338 6 90.338 0.92 89.697 0.92"></polygon>
                <polygon id="Fill-145" fill="#D6D6D6" mask="url(#mask-2)" points="90.338 6 90.979 6 90.979 0.92 90.338 0.92"></polygon>
                <polygon id="Fill-146" fill="#D6D6D6" mask="url(#mask-2)" points="90.978 6 91.619 6 91.619 0.92 90.978 0.92"></polygon>
                <polygon id="Fill-147" fill="#D6D6D6" mask="url(#mask-2)" points="91.619 6 92.26 6 92.26 0.92 91.619 0.92"></polygon>
                <polygon id="Fill-148" fill="#D6D6D6" mask="url(#mask-2)" points="92.26 6 92.901 6 92.901 0.92 92.26 0.92"></polygon>
                <polygon id="Fill-149" fill="#D6D6D6" mask="url(#mask-2)" points="92.9 6 93.541 6 93.541 0.92 92.9 0.92"></polygon>
                <polygon id="Fill-150" fill="#D6D6D6" mask="url(#mask-2)" points="93.541 6 94.181 6 94.181 0.92 93.541 0.92"></polygon>
                <polygon id="Fill-151" fill="#D6D6D6" mask="url(#mask-2)" points="94.181 6 94.822 6 94.822 0.92 94.181 0.92"></polygon>
                <polygon id="Fill-152" fill="#D6D6D6" mask="url(#mask-2)" points="94.821 6 95.462 6 95.462 0.92 94.821 0.92"></polygon>
                <polygon id="Fill-153" fill="#D6D6D6" mask="url(#mask-2)" points="95.462 6 96.103 6 96.103 0.92 95.462 0.92"></polygon>
                <polygon id="Fill-154" fill="#D6D6D6" mask="url(#mask-2)" points="96.102 6 96.743 6 96.743 0.92 96.102 0.92"></polygon>
                <polygon id="Fill-155" fill="#D6D6D6" mask="url(#mask-2)" points="96.743 6 97.384 6 97.384 0.92 96.743 0.92"></polygon>
                <polygon id="Fill-156" fill="#D6D6D6" mask="url(#mask-2)" points="97.384 6 98.025 6 98.025 0.92 97.384 0.92"></polygon>
                <polygon id="Fill-157" fill="#D6D6D6" mask="url(#mask-2)" points="98.024 6 98.665 6 98.665 0.92 98.024 0.92"></polygon>
                <polygon id="Fill-158" fill="#D6D6D6" mask="url(#mask-2)" points="98.665 6 99.306 6 99.306 0.92 98.665 0.92"></polygon>
                <polygon id="Fill-159" fill="#D6D6D6" mask="url(#mask-2)" points="99.306 6 99.947 6 99.947 0.92 99.306 0.92"></polygon>
                <polygon id="Fill-160" fill="#D6D6D6" mask="url(#mask-2)" points="99.946 6 100.587 6 100.587 0.92 99.946 0.92"></polygon>
                <polygon id="Fill-161" fill="#D6D6D6" mask="url(#mask-2)" points="100.587 6 101.228 6 101.228 0.92 100.587 0.92"></polygon>
                <polygon id="Fill-162" fill="#D6D6D6" mask="url(#mask-2)" points="101.227 6 101.867 6 101.867 0.92 101.227 0.92"></polygon>
                <polygon id="Fill-163" fill="#D6D6D6" mask="url(#mask-2)" points="101.867 6 102.508 6 102.508 0.92 101.867 0.92"></polygon>
                <polygon id="Fill-164" fill="#D6D6D6" mask="url(#mask-2)" points="102.508 6 103.149 6 103.149 0.92 102.508 0.92"></polygon>
                <polygon id="Fill-165" fill="#D6D6D6" mask="url(#mask-2)" points="103.148 6 103.789 6 103.789 0.92 103.148 0.92"></polygon>
                <polygon id="Fill-166" fill="#D6D6D6" mask="url(#mask-2)" points="103.789 6 104.43 6 104.43 0.92 103.789 0.92"></polygon>
                <polygon id="Fill-167" fill="#D6D6D6" mask="url(#mask-2)" points="104.43 6 105.071 6 105.071 0.92 104.43 0.92"></polygon>
                <polygon id="Fill-168" fill="#D6D6D6" mask="url(#mask-2)" points="105.07 6 105.711 6 105.711 0.92 105.07 0.92"></polygon>
                <polygon id="Fill-169" fill="#D6D6D6" mask="url(#mask-2)" points="105.711 6 106.352 6 106.352 0.92 105.711 0.92"></polygon>
                <polygon id="Fill-170" fill="#D6D6D6" mask="url(#mask-2)" points="106.351 6 106.992 6 106.992 0.92 106.351 0.92"></polygon>
                <polygon id="Fill-171" fill="#D6D6D6" mask="url(#mask-2)" points="106.992 6 107.633 6 107.633 0.92 106.992 0.92"></polygon>
                <polygon id="Fill-172" fill="#D6D6D6" mask="url(#mask-2)" points="107.633 6 108.274 6 108.274 0.92 107.633 0.92"></polygon>
                <polygon id="Fill-173" fill="#D6D6D6" mask="url(#mask-2)" points="108.273 6 108.913 6 108.913 0.92 108.273 0.92"></polygon>
                <polygon id="Fill-174" fill="#D6D6D6" mask="url(#mask-2)" points="108.913 6 109.554 6 109.554 0.92 108.913 0.92"></polygon>
                <polygon id="Fill-175" fill="#D6D6D6" mask="url(#mask-2)" points="109.554 6 110.195 6 110.195 0.92 109.554 0.92"></polygon>
                <polygon id="Fill-176" fill="#D6D6D6" mask="url(#mask-2)" points="110.194 6 110.835 6 110.835 0.92 110.194 0.92"></polygon>
                <polygon id="Fill-177" fill="#D6D6D6" mask="url(#mask-2)" points="110.835 6 111.476 6 111.476 0.92 110.835 0.92"></polygon>
                <polygon id="Fill-178" fill="#D6D6D6" mask="url(#mask-2)" points="111.475 6 112.116 6 112.116 0.92 111.475 0.92"></polygon>
                <polygon id="Fill-179" fill="#D6D6D6" mask="url(#mask-2)" points="112.116 6 112.757 6 112.757 0.92 112.116 0.92"></polygon>
                <polygon id="Fill-180" fill="#D6D6D6" mask="url(#mask-2)" points="112.757 6 113.398 6 113.398 0.92 112.757 0.92"></polygon>
                <polygon id="Fill-181" fill="#D6D6D6" mask="url(#mask-2)" points="113.397 6 114.038 6 114.038 0.92 113.397 0.92"></polygon>
                <polygon id="Fill-182" fill="#D6D6D6" mask="url(#mask-2)" points="114.038 6 114.679 6 114.679 0.92 114.038 0.92"></polygon>
                <polygon id="Fill-183" fill="#D6D6D6" mask="url(#mask-2)" points="114.679 6 115.32 6 115.32 0.92 114.679 0.92"></polygon>
                <polygon id="Fill-184" fill="#D6D6D6" mask="url(#mask-2)" points="115.319 6 115.959 6 115.959 0.92 115.319 0.92"></polygon>
                <polygon id="Fill-185" fill="#D6D6D6" mask="url(#mask-2)" points="115.959 6 116.6 6 116.6 0.92 115.959 0.92"></polygon>
                <polygon id="Fill-186" fill="#D6D6D6" mask="url(#mask-2)" points="116.6 6 117.241 6 117.241 0.92 116.6 0.92"></polygon>
                <polygon id="Fill-187" fill="#D6D6D6" mask="url(#mask-2)" points="117.24 6 117.881 6 117.881 0.92 117.24 0.92"></polygon>
                <polygon id="Fill-188" fill="#D6D6D6" mask="url(#mask-2)" points="117.881 6 118.522 6 118.522 0.92 117.881 0.92"></polygon>
                <polygon id="Fill-189" fill="#D6D6D6" mask="url(#mask-2)" points="118.521 6 119.162 6 119.162 0.92 118.521 0.92"></polygon>
                <polygon id="Fill-190" fill="#D6D6D6" mask="url(#mask-2)" points="119.162 6 119.803 6 119.803 0.92 119.162 0.92"></polygon>
                <polygon id="Fill-191" fill="#D6D6D6" mask="url(#mask-2)" points="119.803 6 120.444 6 120.444 0.92 119.803 0.92"></polygon>
                <polygon id="Fill-192" fill="#D6D6D6" mask="url(#mask-2)" points="120.443 6 121.084 6 121.084 0.92 120.443 0.92"></polygon>
                <polygon id="Fill-193" fill="#D6D6D6" mask="url(#mask-2)" points="121.084 6 121.725 6 121.725 0.92 121.084 0.92"></polygon>
                <polygon id="Fill-194" fill="#D6D6D6" mask="url(#mask-2)" points="121.725 6 122.366 6 122.366 0.92 121.725 0.92"></polygon>
                <polygon id="Fill-195" fill="#D6D6D6" mask="url(#mask-2)" points="122.365 6 123.005 6 123.005 0.92 122.365 0.92"></polygon>
                <polygon id="Fill-196" fill="#D6D6D6" mask="url(#mask-2)" points="123.005 6 123.646 6 123.646 0.92 123.005 0.92"></polygon>
                <path d="M123.6458,5.9997 L123.6458,0.9197 L123.6458,5.9997 Z" id="Fill-197" fill="#D6D6D6" mask="url(#mask-2)"></path>
            </g>
            <g id="Group-234" transform="translate(0.000000, 0.851000)">
                <path d="M101.2288,27.821 C125.0788,27.821 144.4128,47.155 144.4128,71.005 C144.4128,94.854 125.0788,114.188 101.2288,114.188 C77.3788,114.188 58.0448,94.854 58.0448,71.005 C58.0448,47.155 77.3788,27.821 101.2288,27.821" id="Fill-199" fill="#EFEFEF"></path>
                <g id="Group-203" transform="translate(30.000000, 0.000000)">
                    <mask id="mask-4" fill="white">
                        <use xlink:href="#path-3"></use>
                    </mask>
                    <g id="Clip-202"></g>
                    <path d="M72.1634,2.1559 C71.8514,2.1519 71.5384,2.1499 71.2264,2.1489 L70.4934,2.1529 L70.4744,0.1529 L71.2284,0.1489 C71.5524,0.1499 71.8724,0.1519 72.1904,0.1559 L72.1634,2.1559 Z M65.4904,2.3839 L65.3254,0.3909 C65.8944,0.3439 66.4664,0.3029 67.0394,0.2699 L67.1544,2.2669 C66.5984,2.2999 66.0434,2.3379 65.4904,2.3839 L65.4904,2.3839 Z M77.1674,2.4019 C76.6144,2.3539 76.0604,2.3129 75.5034,2.2799 L75.6244,0.2829 C76.1974,0.3179 76.7684,0.3599 77.3374,0.4079 L77.1674,2.4019 Z M60.5174,2.9769 L60.2094,1.0009 C60.7734,0.9129 61.3404,0.8309 61.9094,0.7569 L62.1694,2.7389 C61.6174,2.8119 61.0664,2.8909 60.5174,2.9769 L60.5174,2.9769 Z M82.1384,3.0089 C81.5894,2.9209 81.0384,2.8399 80.4854,2.7659 L80.7534,0.7829 C81.3214,0.8609 81.8884,0.9439 82.4524,1.0329 L82.1384,3.0089 Z M55.6014,3.9289 L55.1494,1.9809 C55.7064,1.8519 56.2654,1.7299 56.8274,1.6139 L57.2314,3.5729 C56.6854,3.6849 56.1424,3.8039 55.6014,3.9289 L55.6014,3.9289 Z M87.0514,3.9759 C86.5104,3.8489 85.9674,3.7279 85.4224,3.6139 L85.8304,1.6559 C86.3924,1.7739 86.9514,1.8979 87.5084,2.0289 L87.0514,3.9759 Z M50.7674,5.2389 L50.1754,3.3289 C50.7214,3.1589 51.2694,2.9959 51.8214,2.8399 L52.3674,4.7629 C51.8314,4.9159 51.2984,5.0739 50.7674,5.2389 L50.7674,5.2389 Z M91.8804,5.2999 C91.3504,5.1329 90.8184,4.9729 90.2824,4.8199 L90.8334,2.8969 C91.3854,3.0549 91.9344,3.2199 92.4794,3.3909 L91.8804,5.2999 Z M46.0314,6.9049 L45.2984,5.0439 C45.8324,4.8329 46.3694,4.6299 46.9104,4.4319 L47.5954,6.3109 C47.0714,6.5029 46.5504,6.6999 46.0314,6.9049 L46.0314,6.9049 Z M96.6004,6.9739 C96.0844,6.7689 95.5644,6.5699 95.0424,6.3779 L95.7334,4.5009 C96.2714,4.6989 96.8074,4.9039 97.3394,5.1139 L96.6004,6.9739 Z M41.4314,8.9119 L40.5644,7.1099 C41.0814,6.8609 41.6014,6.6189 42.1254,6.3829 L42.9474,8.2059 C42.4394,8.4349 41.9344,8.6709 41.4314,8.9119 L41.4314,8.9119 Z M101.1744,8.9839 C100.6754,8.7419 100.1724,8.5069 99.6674,8.2769 L100.4954,6.4559 C101.0154,6.6929 101.5324,6.9349 102.0454,7.1829 L101.1744,8.9839 Z M36.9924,11.2499 L35.9964,9.5149 C36.4934,9.2299 36.9944,8.9499 37.4994,8.6769 L38.4524,10.4349 C37.9614,10.7009 37.4754,10.9719 36.9924,11.2499 L36.9924,11.2499 Z M105.5914,11.3229 C105.1104,11.0449 104.6264,10.7739 104.1394,10.5069 L105.0984,8.7519 C105.5994,9.0259 106.0974,9.3049 106.5914,9.5899 L105.5914,11.3229 Z M32.7384,13.9029 L31.6184,12.2459 C32.0934,11.9249 32.5724,11.6099 33.0554,11.3009 L34.1344,12.9839 C33.6654,13.2849 33.2004,13.5909 32.7384,13.9029 L32.7384,13.9029 Z M109.8304,13.9779 C109.3714,13.6669 108.9084,13.3609 108.4404,13.0599 L109.5224,11.3779 C110.0044,11.6869 110.4804,12.0029 110.9534,12.3229 L109.8304,13.9779 Z M28.6894,16.8579 L27.4524,15.2859 C27.9024,14.9319 28.3574,14.5829 28.8164,14.2389 L30.0144,15.8409 C29.5694,16.1749 29.1274,16.5129 28.6894,16.8579 L28.6894,16.8579 Z M113.8674,16.9359 C113.4314,16.5919 112.9914,16.2519 112.5464,15.9179 L113.7474,14.3189 C114.2044,14.6619 114.6574,15.0109 115.1054,15.3649 L113.8674,16.9359 Z M24.8654,20.0959 L23.5184,18.6179 C23.9414,18.2319 24.3694,17.8519 24.8014,17.4769 L26.1134,18.9869 C25.6924,19.3519 25.2764,19.7209 24.8654,20.0959 L24.8654,20.0959 Z M117.6824,20.1779 C117.2714,19.8019 116.8564,19.4329 116.4374,19.0679 L117.7504,17.5589 C118.1834,17.9349 118.6094,18.3159 119.0314,18.7019 L117.6824,20.1779 Z M21.2884,23.6009 L19.8374,22.2239 C20.2314,21.8089 20.6304,21.3989 21.0344,20.9939 L22.4514,22.4059 C22.0594,22.7999 21.6704,23.1979 21.2884,23.6009 L21.2884,23.6009 Z M121.2534,23.6889 C120.8714,23.2849 120.4844,22.8859 120.0924,22.4919 L121.5104,21.0809 C121.9144,21.4879 122.3124,21.8989 122.7064,22.3149 L121.2534,23.6889 Z M17.9734,27.3549 L16.4284,26.0859 C16.7914,25.6429 17.1594,25.2059 17.5324,24.7729 L19.0474,26.0779 C18.6844,26.4999 18.3264,26.9259 17.9734,27.3549 L17.9734,27.3549 Z M124.5624,27.4519 C124.2114,27.0209 123.8534,26.5939 123.4904,26.1719 L125.0084,24.8689 C125.3814,25.3029 125.7484,25.7419 126.1114,26.1849 L124.5624,27.4519 Z M14.9414,31.3359 L13.3074,30.1819 C13.6374,29.7149 13.9724,29.2519 14.3134,28.7929 L15.9184,29.9859 C15.5874,30.4309 15.2624,30.8809 14.9414,31.3359 L14.9414,31.3359 Z M127.5934,31.4439 C127.2724,30.9889 126.9474,30.5369 126.6164,30.0899 L128.2224,28.8989 C128.5644,29.3599 128.8994,29.8239 129.2294,30.2939 L127.5934,31.4439 Z M12.2054,35.5239 L10.4934,34.4919 C10.7884,34.0019 11.0884,33.5159 11.3954,33.0339 L13.0824,34.1079 C12.7854,34.5759 12.4934,35.0479 12.2054,35.5239 L12.2054,35.5239 Z M130.3254,35.6479 C130.0384,35.1699 129.7454,34.6949 129.4474,34.2239 L131.1394,33.1559 C131.4444,33.6389 131.7454,34.1279 132.0404,34.6189 L130.3254,35.6479 Z M9.7834,39.8969 L7.9994,38.9919 C8.2584,38.4829 8.5224,37.9759 8.7934,37.4739 L10.5544,38.4219 C10.2914,38.9099 10.0344,39.4019 9.7834,39.8969 L9.7834,39.8969 Z M132.7474,40.0399 C132.4954,39.5419 132.2384,39.0479 131.9764,38.5569 L133.7394,37.6129 C134.0104,38.1179 134.2744,38.6269 134.5324,39.1399 L132.7474,40.0399 Z M7.6874,44.4309 L5.8424,43.6599 C6.0624,43.1329 6.2894,42.6089 6.5224,42.0889 L8.3484,42.9059 C8.1214,43.4109 7.9014,43.9199 7.6874,44.4309 L7.6874,44.4309 Z M134.8414,44.6019 C134.6264,44.0859 134.4054,43.5729 134.1794,43.0639 L136.0074,42.2519 C136.2394,42.7759 136.4664,43.3029 136.6864,43.8329 L134.8414,44.6019 Z M5.9264,49.1109 L4.0294,48.4749 C4.2114,47.9319 4.4004,47.3909 4.5954,46.8539 L6.4754,47.5349 C6.2864,48.0569 6.1034,48.5819 5.9264,49.1109 L5.9264,49.1109 Z M136.5964,49.3049 C136.4204,48.7749 136.2384,48.2479 136.0494,47.7239 L137.9304,47.0439 C138.1254,47.5849 138.3124,48.1289 138.4944,48.6749 L136.5964,49.3049 Z M4.5104,53.9139 L2.5724,53.4199 C2.7144,52.8639 2.8624,52.3109 3.0174,51.7609 L4.9424,52.3029 C4.7924,52.8379 4.6474,53.3739 4.5104,53.9139 L4.5104,53.9139 Z M137.9974,54.1139 C137.8604,53.5729 137.7184,53.0349 137.5694,52.4999 L139.4954,51.9629 C139.6494,52.5139 139.7964,53.0669 139.9364,53.6229 L137.9974,54.1139 Z M3.4494,58.8089 L1.4804,58.4569 C1.5814,57.8919 1.6884,57.3289 1.8034,56.7699 L3.7634,57.1699 C3.6514,57.7139 3.5474,58.2599 3.4494,58.8089 L3.4494,58.8089 Z M139.0434,59.0099 C138.9474,58.4609 138.8444,57.9139 138.7344,57.3699 L140.6954,56.9749 C140.8094,57.5349 140.9144,58.0979 141.0144,58.6639 L139.0434,59.0099 Z M2.7484,63.7669 L0.7594,63.5599 C0.8194,62.9889 0.8854,62.4199 0.9584,61.8529 L2.9424,62.1099 C2.8714,62.6599 2.8064,63.2129 2.7484,63.7669 L2.7484,63.7669 Z M139.7294,63.9699 C139.6744,63.4159 139.6114,62.8639 139.5414,62.3139 L141.5254,62.0609 C141.5984,62.6289 141.6624,63.1979 141.7204,63.7699 L139.7294,63.9699 Z M2.4094,68.7639 L0.4104,68.7009 C0.4284,68.1269 0.4534,67.5549 0.4854,66.9849 L2.4824,67.0959 C2.4514,67.6509 2.4264,68.2069 2.4094,68.7639 L2.4094,68.7639 Z M140.0544,68.9689 C140.0384,68.4109 140.0154,67.8549 139.9854,67.2999 L141.9834,67.1959 C142.0134,67.7659 142.0364,68.3369 142.0544,68.9099 L140.0544,68.9689 Z M0.4294,73.8529 C0.4064,73.2829 0.3904,72.7109 0.3814,72.1369 L2.3814,72.1059 C2.3904,72.6639 2.4054,73.2199 2.4274,73.7749 L0.4294,73.8529 Z M142.0194,74.0589 L140.0214,73.9759 C140.0454,73.4219 140.0614,72.8669 140.0724,72.3089 L142.0724,72.3469 C142.0614,72.9199 142.0434,73.4899 142.0194,74.0589 L142.0194,74.0589 Z M0.8184,78.9919 C0.7544,78.4239 0.6974,77.8539 0.6474,77.2829 L2.6394,77.1079 C2.6884,77.6639 2.7434,78.2169 2.8054,78.7679 L0.8184,78.9919 Z M141.6154,79.1969 L139.6294,78.9689 C139.6924,78.4159 139.7494,77.8629 139.8004,77.3069 L141.7924,77.4899 C141.7394,78.0609 141.6814,78.6299 141.6154,79.1969 L141.6154,79.1969 Z M1.5794,84.0889 C1.4744,83.5269 1.3754,82.9629 1.2844,82.3969 L3.2584,82.0769 C3.3474,82.6269 3.4424,83.1759 3.5444,83.7209 L1.5794,84.0889 Z M140.8404,84.2929 L138.8754,83.9179 C138.9784,83.3729 139.0764,82.8259 139.1674,82.2769 L141.1404,82.6009 C141.0474,83.1679 140.9474,83.7319 140.8404,84.2929 L140.8404,84.2929 Z M2.7084,89.1169 C2.5634,88.5639 2.4244,88.0089 2.2914,87.4509 L4.2374,86.9889 C4.3664,87.5309 4.5014,88.0699 4.6434,88.6079 L2.7084,89.1169 Z M139.6934,89.3179 L137.7624,88.8009 C137.9044,88.2649 138.0414,87.7259 138.1714,87.1849 L140.1164,87.6519 C139.9824,88.2099 139.8424,88.7649 139.6934,89.3179 L139.6934,89.3179 Z M4.2064,94.0559 C4.0204,93.5139 3.8404,92.9689 3.6664,92.4199 L5.5734,91.8159 C5.7424,92.3489 5.9174,92.8799 6.0984,93.4059 L4.2064,94.0559 Z M138.1844,94.2459 L136.2954,93.5899 C136.4764,93.0649 136.6524,92.5379 136.8234,92.0059 L138.7274,92.6169 C138.5534,93.1629 138.3714,93.7059 138.1844,94.2459 L138.1844,94.2459 Z M6.0664,98.8769 C5.8404,98.3499 5.6214,97.8189 5.4074,97.2849 L7.2644,96.5429 C7.4714,97.0609 7.6844,97.5769 7.9044,98.0879 L6.0664,98.8769 Z M136.3194,99.0449 L134.4834,98.2519 C134.7024,97.7439 134.9164,97.2319 135.1234,96.7179 L136.9784,97.4639 C136.7664,97.9939 136.5464,98.5209 136.3194,99.0449 L136.3194,99.0449 Z M8.2724,103.5479 C8.0084,103.0389 7.7504,102.5259 7.4984,102.0099 L9.2964,101.1329 C9.5404,101.6339 9.7904,102.1329 10.0464,102.6259 L8.2724,103.5479 Z M134.1114,103.6879 L132.3384,102.7639 C132.5944,102.2719 132.8444,101.7779 133.0894,101.2789 L134.8844,102.1599 C134.6334,102.6729 134.3754,103.1819 134.1114,103.6879 L134.1114,103.6879 Z M10.8114,108.0399 C10.5114,107.5519 10.2164,107.0589 9.9284,106.5619 L11.6574,105.5579 C11.9374,106.0399 12.2234,106.5179 12.5144,106.9909 L10.8114,108.0399 Z M131.5694,108.1639 L129.8684,107.1129 C130.1594,106.6399 130.4454,106.1659 130.7254,105.6849 L132.4534,106.6929 C132.1644,107.1869 131.8704,107.6769 131.5694,108.1639 L131.5694,108.1639 Z M13.6684,112.3349 C13.3344,111.8689 13.0054,111.3989 12.6824,110.9269 L14.3334,109.7979 C14.6474,110.2589 14.9674,110.7149 15.2924,111.1669 L13.6684,112.3349 Z M128.7094,112.4429 L127.0884,111.2709 C127.4134,110.8209 127.7324,110.3669 128.0464,109.9089 L129.6964,111.0399 C129.3734,111.5109 129.0444,111.9789 128.7094,112.4429 L128.7094,112.4429 Z M16.8294,116.4079 C16.4624,115.9689 16.1004,115.5239 15.7444,115.0759 L17.3094,113.8319 C17.6564,114.2679 18.0084,114.6989 18.3644,115.1269 L16.8294,116.4079 Z M125.5454,116.5069 L124.0144,115.2209 C124.3704,114.7959 124.7224,114.3659 125.0684,113.9309 L126.6334,115.1769 C126.2764,115.6259 125.9134,116.0689 125.5454,116.5069 L125.5454,116.5069 Z M20.2754,120.2419 C19.8774,119.8299 19.4854,119.4139 19.0974,118.9929 L20.5684,117.6369 C20.9454,118.0469 21.3274,118.4509 21.7144,118.8509 L20.2754,120.2419 Z M122.0964,120.3309 L120.6584,118.9399 C121.0464,118.5399 121.4294,118.1349 121.8084,117.7259 L123.2744,119.0859 C122.8864,119.5059 122.4934,119.9209 122.0964,120.3309 L122.0964,120.3309 Z M23.9884,123.8149 C23.5614,123.4329 23.1404,123.0469 22.7234,122.6549 L24.0934,121.1979 C24.4984,121.5799 24.9084,121.9549 25.3234,122.3269 L23.9884,123.8149 Z M118.3754,123.8979 L117.0434,122.4059 C117.4584,122.0349 117.8704,121.6589 118.2764,121.2799 L119.6424,122.7409 C119.2244,123.1319 118.8024,123.5169 118.3754,123.8979 L118.3754,123.8979 Z M27.9484,127.1099 C27.4954,126.7599 27.0464,126.4049 26.6024,126.0449 L27.8634,124.4919 C28.2944,124.8429 28.7304,125.1869 29.1704,125.5259 L27.9484,127.1099 Z M114.4054,127.1889 L113.1844,125.6049 C113.6264,125.2649 114.0634,124.9199 114.4974,124.5699 L115.7534,126.1269 C115.3084,126.4859 114.8584,126.8399 114.4054,127.1889 L114.4054,127.1889 Z M32.1334,130.1079 C31.6564,129.7919 31.1844,129.4689 30.7154,129.1429 L31.8604,127.5029 C32.3154,127.8199 32.7744,128.1339 33.2384,128.4399 L32.1334,130.1079 Z M110.2074,130.1839 L109.1054,128.5159 C109.5704,128.2089 110.0314,127.8949 110.4894,127.5779 L111.6304,129.2199 C111.1604,129.5479 110.6854,129.8689 110.2074,130.1839 L110.2074,130.1839 Z M36.5234,132.7929 C36.0254,132.5119 35.5304,132.2259 35.0404,131.9339 L36.0634,130.2159 C36.5404,130.4999 37.0204,130.7779 37.5044,131.0509 L36.5234,132.7929 Z M105.8004,132.8679 L104.8214,131.1239 C105.3084,130.8509 105.7914,130.5729 106.2704,130.2889 L107.2904,132.0099 C106.7974,132.3019 106.3004,132.5879 105.8004,132.8679 L105.8004,132.8679 Z M41.0954,135.1509 C40.5784,134.9079 40.0644,134.6579 39.5544,134.4029 L40.4494,132.6139 C40.9454,132.8629 41.4434,133.1049 41.9454,133.3409 L41.0954,135.1509 Z M101.2054,135.2239 L100.3574,133.4139 C100.8624,133.1769 101.3654,132.9339 101.8654,132.6849 L102.7564,134.4759 C102.2424,134.7309 101.7254,134.9809 101.2054,135.2239 L101.2054,135.2239 Z M45.8294,137.1709 C45.2944,136.9659 44.7624,136.7539 44.2334,136.5359 L44.9964,134.6859 C45.5094,134.8979 46.0254,135.1039 46.5454,135.3029 L45.8294,137.1709 Z M96.4494,137.2399 L95.7364,135.3709 C96.2594,135.1719 96.7774,134.9669 97.2954,134.7559 L98.0514,136.6069 C97.5194,136.8239 96.9854,137.0349 96.4494,137.2399 L96.4494,137.2399 Z M50.7044,138.8429 C50.1554,138.6769 49.6104,138.5039 49.0674,138.3259 L49.6914,136.4259 C50.2194,136.5989 50.7504,136.7659 51.2844,136.9279 L50.7044,138.8429 Z M91.5594,138.8999 L90.9854,136.9839 C91.5184,136.8239 92.0504,136.6589 92.5794,136.4859 L93.1984,138.3879 C92.6554,138.5649 92.1084,138.7359 91.5594,138.8999 L91.5594,138.8999 Z M55.6914,140.1499 C55.1314,140.0259 54.5734,139.8939 54.0184,139.7549 L54.5034,137.8149 C55.0424,137.9489 55.5834,138.0769 56.1264,138.1989 L55.6914,140.1499 Z M86.5704,140.1949 L86.1394,138.2419 C86.6834,138.1219 87.2254,137.9959 87.7644,137.8629 L88.2424,139.8039 C87.6874,139.9409 87.1304,140.0709 86.5704,140.1949 L86.5704,140.1949 Z M60.7564,141.0919 C60.1894,141.0079 59.6244,140.9159 59.0614,140.8189 L59.4014,138.8479 C59.9494,138.9429 60.4984,139.0309 61.0504,139.1129 L60.7564,141.0919 Z M81.5014,141.1199 L81.2144,139.1409 C81.7664,139.0609 82.3144,138.9739 82.8614,138.8819 L83.1974,140.8519 C82.6354,140.9489 82.0684,141.0379 81.5014,141.1199 L81.5014,141.1199 Z M65.8794,141.6609 C65.3074,141.6189 64.7364,141.5689 64.1684,141.5119 L64.3654,139.5219 C64.9184,139.5769 65.4724,139.6249 66.0284,139.6669 L65.8794,141.6609 Z M76.3784,141.6759 L76.2334,139.6809 C76.7894,139.6399 77.3444,139.5939 77.8944,139.5409 L78.0904,141.5309 C77.5214,141.5869 76.9514,141.6349 76.3784,141.6759 L76.3784,141.6759 Z M71.2284,141.8599 L71.2284,139.8599 C71.7864,139.8599 72.3424,139.8529 72.8964,139.8399 L72.9454,141.8399 C72.3754,141.8529 71.8024,141.8599 71.2284,141.8599 L71.2284,141.8599 Z M71.0254,141.8609 C70.4534,141.8579 69.8814,141.8499 69.3124,141.8359 L69.3644,139.8359 C69.9194,139.8499 70.4764,139.8579 71.0354,139.8609 L71.0254,141.8609 Z" id="Fill-201" fill="#D4D4D4" mask="url(#mask-4)"></path>
                </g>
                <path d="M98.3162,127.4821 L58.1042,146.0851 C53.8792,148.0411 48.8582,146.2041 46.9022,141.9691 L25.5472,95.8221 C23.5912,91.5971 25.4292,86.5761 29.6622,84.6201 L69.7212,66.0851 L72.0162,71.4191 L78.7902,77.3461 L78.7902,86.6611 L83.8712,95.1281 L83.8712,103.5951 L95.7252,112.0631 L95.7252,123.0701 L98.3162,127.4821 Z" id="Fill-204" fill="#EF9A4D"></path>
                <polygon id="Fill-206" fill="#510303" points="78.7566 78.4811 28.2066 101.5461 32.9736 111.8511 80.8056 90.0221 78.7906 86.6691 78.7906 78.5661"></polygon>
                <path d="M102.6682,154.5778 L142.8802,173.1808 C147.1052,175.1368 152.1262,173.2988 154.0822,169.0648 L175.4372,122.9178 C177.3932,118.6928 175.5562,113.6718 171.3212,111.7158 L131.2632,93.1808 L128.9682,98.5148 L122.1932,104.4418 L122.1932,113.7568 L117.1132,122.2238 L117.1132,130.6908 L105.2592,139.1588 L105.2592,150.1658 L102.6682,154.5778 Z" id="Fill-208" fill="#EF9A4D"></path>
                <polygon id="Fill-210" fill="#510303" points="122.2278 105.5768 172.7788 128.6418 168.0108 138.9468 120.1788 117.1178 122.1938 113.7648 122.1938 105.6618"></polygon>
                <path d="M63.5491,122.2321 C66.3551,122.2321 68.6291,124.5061 68.6291,127.3121 C68.6291,130.1191 66.3551,132.3931 63.5491,132.3931 C60.7431,132.3931 58.4681,130.1191 58.4681,127.3121 C58.4681,124.5061 60.7431,122.2321 63.5491,122.2321" id="Fill-212" fill="#FFFFFF"></path>
                <path d="M56.7752,125.6188 C59.5812,125.6188 61.8562,127.8928 61.8562,130.6998 C61.8562,133.5058 59.5812,135.7798 56.7752,135.7798 C53.9692,135.7798 51.6942,133.5058 51.6942,130.6998 C51.6942,127.8928 53.9692,125.6188 56.7752,125.6188" id="Fill-214" fill="#FFFFFF"></path>
                <polygon id="Fill-216" fill="#FFFFFF" points="125.5589 143.9469 149.9809 155.6869 148.4429 158.8849 124.0219 147.1439"></polygon>
                <polygon id="Fill-218" fill="#FFFFFF" points="133.7288 154.1755 147.4348 160.7645 145.8978 163.9625 132.1918 157.3725"></polygon>
                <path d="M19.097,75.0446 C18.633,75.0446 18.176,74.8306 17.883,74.4266 L11.109,65.1126 C10.621,64.4426 10.769,63.5046 11.439,63.0176 C12.111,62.5306 13.048,62.6786 13.535,63.3486 L20.308,72.6626 C20.796,73.3326 20.648,74.2706 19.978,74.7576 C19.711,74.9516 19.403,75.0446 19.097,75.0446" id="Fill-220" fill="#B2B2B2"></path>
                <path d="M12.0745,82.8263 C11.7985,82.8263 11.5195,82.7503 11.2695,82.5913 L3.0475,77.3493 C2.3485,76.9043 2.1435,75.9773 2.5895,75.2793 C3.0335,74.5813 3.9625,74.3743 4.6595,74.8203 L12.8825,80.0613 C13.5805,80.5073 13.7855,81.4343 13.3405,82.1323 C13.0545,82.5813 12.5705,82.8263 12.0745,82.8263" id="Fill-222" fill="#B2B2B2"></path>
                <path d="M10.6297,91.9792 C10.5827,91.9792 10.5357,91.9772 10.4877,91.9722 L1.3597,91.1182 C0.5357,91.0412 -0.0703,90.3092 0.0067,89.4842 C0.0837,88.6592 0.8067,88.0482 1.6407,88.1302 L10.7677,88.9852 C11.5927,89.0632 12.1987,89.7942 12.1217,90.6192 C12.0487,91.3962 11.3947,91.9792 10.6297,91.9792" id="Fill-224" fill="#B2B2B2"></path>
                <path d="M180.1604,103.8337 C179.8534,103.8337 179.5454,103.7407 179.2794,103.5467 C178.6084,103.0597 178.4614,102.1217 178.9484,101.4517 L185.7224,92.1377 C186.2104,91.4647 187.1494,91.3177 187.8174,91.8067 C188.4884,92.2937 188.6364,93.2307 188.1484,93.9007 L181.3744,103.2157 C181.0814,103.6197 180.6234,103.8337 180.1604,103.8337" id="Fill-226" fill="#B2B2B2"></path>
                <path d="M187.1819,111.6149 C186.6869,111.6149 186.2029,111.3699 185.9159,110.9219 C185.4709,110.2219 185.6759,109.2959 186.3739,108.8499 L194.5959,103.6089 C195.2929,103.1649 196.2209,103.3689 196.6669,104.0669 C197.1129,104.7659 196.9079,105.6929 196.2089,106.1379 L187.9879,111.3799 C187.7379,111.5389 187.4579,111.6149 187.1819,111.6149" id="Fill-228" fill="#B2B2B2"></path>
                <path d="M188.6272,120.7682 C187.8612,120.7682 187.2082,120.1852 187.1362,119.4082 C187.0592,118.5832 187.6642,117.8522 188.4892,117.7752 L197.6172,116.9202 C198.4292,116.8312 199.1732,117.4492 199.2502,118.2742 C199.3272,119.0982 198.7222,119.8302 197.8972,119.9072 L188.7692,120.7612 C188.7212,120.7662 188.6742,120.7682 188.6272,120.7682" id="Fill-230" fill="#B2B2B2"></path>
                <path d="M105.0735,51.8981 L105.0735,66.7571 C105.0735,68.3551 104.9825,69.9261 104.7875,71.4981 C104.5935,73.0691 104.3455,74.6671 104.0345,76.2911 L98.5795,76.2911 C98.2675,74.6671 98.0205,73.0691 97.8255,71.4981 C97.6315,69.9261 97.5395,68.3551 97.5395,66.7571 L97.5395,51.8981 L105.0735,51.8981 Z M96.6565,85.6691 C96.6565,85.0451 96.7735,84.4611 97.0075,83.9281 C97.2415,83.3961 97.5665,82.9281 97.9685,82.5251 C98.3715,82.1231 98.8515,81.8111 99.4105,81.5771 C99.9695,81.3431 100.5665,81.2271 101.2285,81.2271 C101.8655,81.2271 102.4635,81.3431 103.0205,81.5771 C103.5795,81.8111 104.0605,82.1231 104.4755,82.5251 C104.8915,82.9281 105.2165,83.3961 105.4505,83.9281 C105.6835,84.4611 105.8015,85.0451 105.8015,85.6691 C105.8015,86.2921 105.6835,86.8771 105.4505,87.4221 C105.2165,87.9671 104.8915,88.4351 104.4755,88.8381 C104.0605,89.2401 103.5795,89.5521 103.0205,89.7731 C102.4635,89.9941 101.8655,90.1111 101.2285,90.1111 C100.5665,90.1111 99.9695,89.9941 99.4105,89.7731 C98.8515,89.5521 98.3715,89.2401 97.9685,88.8381 C97.5665,88.4351 97.2415,87.9671 97.0075,87.4221 C96.7735,86.8771 96.6565,86.2921 96.6565,85.6691 L96.6565,85.6691 Z" id="Fill-232" fill="#B2B2B2"></path>
            </g>
        </g>
    </g>
</svg>