<?xml version="1.0" encoding="UTF-8"?>
<svg width="73px" height="53px" viewBox="0 0 73 53" version="1.1" xmlns="http://www.w3.org/2000/svg" xmlns:xlink="http://www.w3.org/1999/xlink">
    <!-- Generator: Sketch 60.1 (88133) - https://sketch.com -->
    <title>MktQuotes</title>
    <desc>Created with Sketch.</desc>
    <g id="Components" stroke="none" stroke-width="1" fill="none" fill-rule="evenodd">
        <g id="MktQuotes">
            <g>
                <g id="Group-4" transform="translate(49.324324, 39.214712)">
                    <path d="M0.1,12.3 L0.1,5.8 C0.1,4 1.3,2.4 3,2 L7.1,0.9 L8.2,0.6 L9.1,0.4 C9.8,0.2 10.5,0.2 11.2,0.4 L12,0.6 L12.7,0.8 L16.9,2 C18.6,2.5 19.7,4 19.7,5.8 L19.7,12.4" id="Fill-1" fill="#FFFFFF"></path>
                    <path d="M0.1,12.3 L0.1,5.8 C0.1,4 1.3,2.4 3,2 L7.1,0.9 L8.2,0.6 L9.1,0.4 C9.8,0.2 10.5,0.2 11.2,0.4 L12,0.6 L12.7,0.8 L16.9,2 C18.6,2.5 19.7,4 19.7,5.8 L19.7,12.4" id="Stroke-3" stroke="#000000" stroke-linecap="round" stroke-linejoin="round"></path>
                </g>
                <g id="Group-8" transform="translate(57.216216, 44.147145)">
                    <polyline id="Fill-5" fill="#009688" points="3.7 7.4 2.1 0.9 0.5 7.4"></polyline>
                    <polyline id="Stroke-7" stroke="#000000" points="3.7 7.4 2.1 0.9 0.5 7.4"></polyline>
                </g>
                <path d="M61.7,45.8 L60.6,45.3 C60.3,45.7 59.9,46.2 59.6,46.2 C59.3,46.2 58.6,46.4 58.1,45.1 C57.9,44.7 57.5,46.1 57,45.8 C57,45.8 56.9,44 58.6,44 C60.3,44 59.2,44.2 59.2,44.2 L60.9,43.9 L61.7,45.2 L61.7,45.8 Z" id="Fill-9" fill="#ECECEC"></path>
                <path d="M58.4,44 L60.2,44 C60.5,44 60.7,44.3 60.5,44.6 L59.6,46 C59.4,46.2 59.1,46.2 58.9,46 L58,44.6 C57.9,44.3 58,44 58.4,44" id="Fill-11" fill="#009688"></path>
                <path d="M58.4,44 L60.2,44 C60.5,44 60.7,44.3 60.5,44.6 L59.6,46 C59.4,46.2 59.1,46.2 58.9,46 L58,44.6 C57.9,44.3 58,44 58.4,44 Z" id="Stroke-13" stroke="#000000"></path>
                <path d="M60.3,44.3 C60.3,44.3 60.5,44.4 60.3,44.7 C60.3,44.7 59.6,44.4 59.2,44.6 C59.2,44.6 58.6,44.9 58.2,44.7 L58.1,44.5 C58.1,44.5 57.4,43.8 58.3,43.8 C59.2,43.8 59,44 59.4,44.1 C59.3,44.1 60,43.8 60.3,44.3" id="Fill-15" fill="#067F71"></path>
                <path d="M56.9,46.3 C56.9,46.3 56.8,46.3 56.8,46.3 C56.6,46.3 56.5,46.1 56.4,46 L55.3,42.2 C55.2,41.6 55.5,41.1 55.9,40.6 C56.1,40.2 56.4,39.8 56.4,39.6 C56.4,39.4 56.6,39.2 56.8,39.1 C56.8,39.1 56.9,39.1 56.9,39.1 C57.1,39.1 57.2,39.2 57.3,39.4 L59.7,44 C59.8,44.1 59.8,44.3 59.7,44.4 C59.6,44.5 59.5,44.6 59.3,44.7 L58.3,44.9 L57.1,46.2 C57.2,46.2 57,46.3 56.9,46.3" id="Fill-17" fill="#FFFFFF"></path>
                <path d="M56.9,38.5 C56.8,38.5 56.7,38.5 56.7,38.5 C56.3,38.6 56,39 55.9,39.5 C55.9,39.6 55.6,40.1 55.5,40.3 C55.1,40.8 54.7,41.5 54.9,42.2 C54.9,42.2 54.9,42.3 54.9,42.3 L56,46.1 C56.1,46.4 56.4,46.7 56.7,46.8 C56.8,46.8 56.8,46.8 56.9,46.8 C57.2,46.8 57.5,46.7 57.6,46.5 L58.6,45.3 L59.4,45.1 C59.7,45 60,44.8 60.1,44.6 C60.2,44.3 60.2,44 60.1,43.7 L57.8,39 C57.6,38.7 57.3,38.5 56.9,38.5 M56.9,39.5 L59.3,44.1 L58.1,44.3 L56.8,45.7 L55.8,42 C55.7,41.3 56.9,40.4 56.9,39.5" id="Fill-19" fill="#000000" fill-rule="nonzero"></path>
                <path d="M61.7,46.3 C61.5,46.3 61.4,46.2 61.3,46.1 L60.3,44.8 L59.1,44.6 C58.9,44.6 58.8,44.5 58.7,44.3 C58.6,44.2 58.6,44 58.7,43.9 L61.1,39.3 C61.2,39.1 61.4,39 61.5,39 C61.5,39 61.6,39 61.6,39 C61.8,39.1 62,39.3 62,39.5 C62,40.1 62.2,40.3 62.5,40.6 C62.7,40.9 63,41.3 63,41.8 L62,45.9 C62,46.1 61.8,46.2 61.6,46.3 C61.7,46.3 61.7,46.3 61.7,46.3" id="Fill-21" fill="#FFFFFF"></path>
                <path d="M61.7,38.5 C61.3,38.5 61,38.7 60.8,39 L58.4,43.6 C58.3,43.9 58.2,44.2 58.4,44.5 C58.5,44.8 58.8,45 59.1,45 L60.1,45.2 L60.9,46.3 C61.1,46.5 61.4,46.7 61.7,46.7 C61.8,46.7 61.8,46.7 61.9,46.7 C62.3,46.6 62.6,46.3 62.7,46 L63.6,42 C63.6,42 63.6,42 63.6,41.9 C63.7,41.1 63.3,40.6 63,40.3 C62.8,40 62.6,39.8 62.6,39.5 C62.6,39 62.3,38.7 61.9,38.5 C61.8,38.5 61.7,38.5 61.7,38.5 M61.7,39.5 C61.7,40.8 62.8,41.1 62.6,41.8 L61.7,45.8 L60.6,44.4 L59.2,44.1 L61.7,39.5" id="Fill-23" fill="#000000" fill-rule="nonzero"></path>
                <path d="M59.3,44.6 C59.1,44.6 59,44.5 58.9,44.4 L56.5,40.7 C56.4,40.6 56.4,40.5 56.4,40.4 L56.4,34.9 C56.4,34.6 56.6,34.4 56.9,34.4 L61.6,34.4 C61.9,34.4 62.1,34.6 62.1,34.9 L62.1,40.4 C62.1,40.5 62.1,40.6 62,40.7 L59.7,44.4 C59.7,44.5 59.5,44.6 59.3,44.6 L59.3,44.6 Z" id="Fill-25" fill="#FFFFFF"></path>
                <path d="M61.6,33.9 L56.9,33.9 C56.4,33.9 55.9,34.3 55.9,34.9 L55.9,40.4 C55.9,40.6 56,40.8 56.1,40.9 L58.5,44.6 C58.7,44.9 59,45 59.3,45 L59.3,45 C59.6,45 60,44.8 60.1,44.5 L62.4,40.8 C62.5,40.6 62.5,40.5 62.5,40.3 L62.5,34.8 C62.6,34.3 62.2,33.9 61.6,33.9 M61.6,34.9 L61.6,40.4 L59.3,44.1 L56.9,40.4 L56.9,34.9 L61.6,34.9" id="Fill-27" fill="#000000" fill-rule="nonzero"></path>
                <path d="M61.5,38.3 L61.5,39.4 C61.5,39.4 59.1,40.8 57,39.4 L56.9,38 L61.5,38.3 Z" id="Fill-29" fill="#ECECEC"></path>
                <path d="M59.3,24.4 C57.2,24.4 52.7,24.8 53.8,31.2 C54.5,35.3 56.2,38.8 59.2,38.8 C62.2,38.8 64.3,35.4 64.7,31.2 C65.2,26 63.9,26.2 62.5,25.7 C62.3,25.6 62.1,25.5 62,25.4 C61.6,25.1 60.7,24.4 59.3,24.4" id="Fill-31" fill="#009688"></path>
                <path d="M59.3,24.4 C57.2,24.4 52.7,24.8 53.8,31.2 C54.5,35.3 56.2,38.8 59.2,38.8 C62.2,38.8 64.3,35.4 64.7,31.2 C65.2,26 63.9,26.2 62.5,25.7 C62.3,25.6 62.1,25.5 62,25.4 C61.6,25.1 60.7,24.4 59.3,24.4 Z" id="Stroke-33" stroke="#000000"></path>
                <path d="M64.3,32.7 C64.3,36.6 62,39.4 59.2,39.4 C56.4,39.4 54.1,36.6 54.2,32.7 C54.2,28.8 56.5,25.6 59.3,25.6 C62.1,25.6 64.3,28.8 64.3,32.7" id="Fill-35" fill="#FFFFFF"></path>
                <path d="M64.3,32.7 C64.3,36.6 62,39.4 59.2,39.4 C56.4,39.4 54.1,36.6 54.2,32.7 C54.2,28.8 56.5,25.6 59.3,25.6 C62.1,25.6 64.3,28.8 64.3,32.7 Z" id="Stroke-37" stroke="#000000" stroke-linecap="round" stroke-linejoin="round"></path>
                <path d="M64,27.1 L64.4,30.8 C64.4,30.8 63.8,28.8 61.7,28.6 C61.7,28.6 60.7,28.4 61.1,27.7 C61.1,27.7 60.8,28.3 60.2,28.5 C60.2,28.5 58.1,29.2 56.4,29.1 C56.4,29.1 55,28.7 54.5,30.5 C54,30.3 54.5,27.8 54.5,27.8 L56.8,25.7 L60,25 L64,27.1 Z" id="Fill-39" fill="#009688"></path>
                <path d="M54.6,31.6 C54.6,31.6 54.7,29.3 57.3,29.3 C57.3,29.3 60.4,29.4 60.9,28.4 C60.9,28.4 61.4,29 62.2,29 C62.2,29 64,29.6 63.9,32.2 C63.9,32.2 63.9,29.4 62.9,28.9 C62.9,28.9 61,28.6 61,28 C61,28 60.1,29 58.5,29 C58.5,29 57.4,29.1 56.4,29.1 C56.4,29.1 55.2,29.1 54.7,30.9 L54.6,31.6 Z" id="Fill-41" fill="#ECECEC"></path>
                <path d="M54.3,30.5 C54.3,30.5 54.8,29 56.1,29.1 C57.7,29.2 61,29.1 61.2,27.5" id="Stroke-43" stroke="#000000" stroke-linecap="round" stroke-linejoin="round"></path>
                <path d="M64.4,30.8 C64.4,30.8 63.8,28.9 62.3,28.7 C60.9,28.5 61,28 61,28" id="Stroke-45" stroke="#000000" stroke-linecap="round" stroke-linejoin="round"></path>
                <g id="Group-50" transform="translate(63.135135, 31.322820)">
                    <path d="M0.9,0.5 C1.6,0.5 2,1 2,1.7 C2.1,2.4 1.3,3 0.8,3" id="Fill-47" fill="#FFFFFF"></path>
                    <path d="M0.9,0.5 C1.6,0.5 2,1 2,1.7 C2.1,2.4 1.3,3 0.8,3" id="Stroke-49" stroke="#000000" stroke-linecap="round" stroke-linejoin="round"></path>
                </g>
                <g id="Group-54" transform="translate(53.270270, 31.322820)">
                    <path d="M1.2,0.5 C0.5,0.5 0,1 0,1.7 C0,2.4 0.8,2.9 1.2,2.9" id="Fill-51" fill="#FFFFFF"></path>
                    <path d="M1.2,0.5 C0.5,0.5 0,1 0,1.7 C0,2.4 0.8,2.9 1.2,2.9" id="Stroke-53" stroke="#000000" stroke-linecap="round" stroke-linejoin="round"></path>
                </g>
                <path d="M60.7,26.3 C60.7,26.3 59.9,28.1 56.3,27.7" id="Stroke-55" stroke="#000000" stroke-linecap="round" stroke-linejoin="round"></path>
                <path d="M56.1,26.3 C56.1,26.3 54.7,27 54.9,28.4" id="Stroke-57" stroke="#000000" stroke-linecap="round" stroke-linejoin="round"></path>
                <g id="Group-62" transform="translate(52.283784, 46.120118)">
                    <line x1="1.1" y1="5.4" x2="1.1" y2="0.4" id="Fill-59" fill="#009385"></line>
                    <line x1="1.1" y1="5.4" x2="1.1" y2="0.4" id="Stroke-61" stroke="#000000" stroke-linecap="round" stroke-linejoin="round"></line>
                </g>
                <g id="Group-66" transform="translate(64.121622, 46.120118)">
                    <line x1="1" y1="5.4" x2="1" y2="0.4" id="Fill-63" fill="#009385"></line>
                    <line x1="1" y1="5.4" x2="1" y2="0.4" id="Stroke-65" stroke="#000000" stroke-linecap="round" stroke-linejoin="round"></line>
                </g>
                <path d="M60.1,37.8 C60.1,37.8 59.8,37.9 59.4,37.9 C59,37.9 58.7,37.9 58.7,37.8 C58.7,37.7 59,37.6 59.4,37.6 C59.8,37.7 60.1,37.8 60.1,37.8" id="Fill-67" fill="#ECECEC"></path>
                <g id="Group-72" transform="translate(49.324324, 51.052550)">
                    <line x1="19.7" y1="0.5" x2="0.1" y2="0.5" id="Fill-69" fill="#009385"></line>
                    <line x1="19.7" y1="0.5" x2="0.1" y2="0.5" id="Stroke-71" stroke="#000000" stroke-linecap="round" stroke-linejoin="round"></line>
                </g>
                <path d="M63.1,32.2 C63.1,32.2 64.4,32.1 64.5,32.5 L64.1,33.8 C64.1,33.8 64.3,33.9 63,34.1 L63.1,32.2 Z" id="Fill-73" fill="#FFFFFF"></path>
                <path d="M55.4,32.1 C55.4,32.1 54.1,32 54,32.4 L54.4,33.7 C54.4,33.7 54.2,33.8 55.5,34 L55.4,32.1 Z" id="Fill-75" fill="#FFFFFF"></path>
                <g id="Group-80" transform="translate(17.756757, 28.363361)">
                    <path d="M0.2,23.2 L0.2,10.8 C0.2,7.5 2.4,4.6 5.6,3.7 L13.2,1.6 L15.4,1 L17.1,0.5 C18.4,0.1 19.8,0.2 21.1,0.5 L22.6,1 L23.9,1.4 L31.8,3.7 C35,4.6 37.1,7.5 37.1,10.8 L37.1,23.2" id="Fill-77" fill="#FFFFFF"></path>
                    <path d="M0.2,23.2 L0.2,10.8 C0.2,7.5 2.4,4.6 5.6,3.7 L13.2,1.6 L15.4,1 L17.1,0.5 C18.4,0.1 19.8,0.2 21.1,0.5 L22.6,1 L23.9,1.4 L31.8,3.7 C35,4.6 37.1,7.5 37.1,10.8 L37.1,23.2" id="Stroke-79" stroke="#000000" stroke-linecap="round" stroke-linejoin="round"></path>
                </g>
                <g id="Group-84" transform="translate(32.554054, 39.214712)">
                    <polyline id="Fill-81" fill="#FFFFFF" points="7 12.3 4 0.2 0.9 12.3"></polyline>
                    <polyline id="Stroke-83" stroke="#000000" stroke-linecap="round" stroke-linejoin="round" points="7 12.3 4 0.2 0.9 12.3"></polyline>
                </g>
                <path d="M40.9,40.7 L38.8,39.7 C38.3,40.4 37.4,41.5 36.9,41.5 C36.4,41.5 35,41.8 34.1,39.4 C33.8,38.6 33,41.2 32,40.7 C32,40.7 31.8,37.3 35,37.3 C38.1,37.3 36.2,37.6 36.2,37.6 L39.4,37 L40.9,39.4 L40.9,40.7 Z" id="Fill-85" fill="#ECECEC"></path>
                <path d="M34.7,37.3 L38.1,37.3 C38.7,37.3 39,37.9 38.7,38.4 L37.1,41.1 C36.8,41.6 36.1,41.6 35.9,41.1 L34.2,38.4 C33.8,38 34.1,37.3 34.7,37.3" id="Fill-87" fill="#FFFFFF"></path>
                <path d="M34.7,37.3 L38.1,37.3 C38.7,37.3 39,37.9 38.7,38.4 L37.1,41.1 C36.8,41.6 36.1,41.6 35.9,41.1 L34.2,38.4 C33.8,38 34.1,37.3 34.7,37.3 Z" id="Stroke-89" stroke="#000000" stroke-linecap="round" stroke-linejoin="round"></path>
                <path d="M38.3,37.9 C38.3,37.9 38.8,38 38.4,38.6 C38.4,38.6 37.2,38.1 36.3,38.3 C36.3,38.3 35.2,38.9 34.3,38.6 L34.1,38.3 C34.1,38.3 32.8,37 34.5,37 C36.2,37 35.8,37.4 36.5,37.6 C36.6,37.5 37.8,37 38.3,37.9" id="Fill-91" fill="#067F71"></path>
                <path d="M32,41.2 C31.9,41.2 31.9,41.2 31.8,41.2 C31.6,41.1 31.5,40.9 31.5,40.7 L31.8,37.1 C31.5,35.4 31.5,29.2 31.5,28.9 C31.5,28.7 31.7,28.5 31.9,28.4 C31.9,28.4 32,28.4 32,28.4 C32.2,28.4 32.3,28.5 32.4,28.7 L37,37.4 C37.1,37.5 37.1,37.7 37,37.8 C36.9,37.9 36.8,38 36.6,38.1 L34.6,38.5 L32.3,41 C32.2,41.1 32.1,41.2 32,41.2" id="Fill-93" fill="#FFFFFF"></path>
                <path d="M32,27.9 C31.9,27.9 31.8,27.9 31.8,27.9 C31.4,28 31.1,28.4 31.1,28.9 C31.1,29.6 31.1,35.3 31.4,37.1 L31,40.6 C31,41 31.2,41.4 31.6,41.6 C31.7,41.7 31.9,41.7 32,41.7 C32.3,41.7 32.5,41.6 32.7,41.4 L34.9,38.9 L36.8,38.5 C37.1,38.4 37.4,38.2 37.5,38 C37.6,37.7 37.6,37.4 37.5,37.1 L32.9,28.4 C32.7,28.1 32.3,27.9 32,27.9 M32,28.8 L36.6,37.5 L34.4,38 L32,40.7 L32.3,37 C32,35.6 32,30.5 32,28.8" id="Fill-95" fill="#000000" fill-rule="nonzero"></path>
                <path d="M40.9,41.2 C40.8,41.2 40.6,41.1 40.5,41 L38.6,38.5 L36.2,38 C36,38 35.9,37.9 35.8,37.7 C35.7,37.6 35.7,37.4 35.8,37.3 L40.4,28.6 C40.5,28.4 40.7,28.3 40.8,28.3 C40.8,28.3 40.9,28.3 40.9,28.3 C41.1,28.4 41.3,28.6 41.3,28.8 C41.3,31.2 41.1,33.9 40.8,35.4 L41.3,40.6 C41.3,40.8 41.2,41 41,41.1 C41,41.2 41,41.2 40.9,41.2" id="Fill-97" fill="#FFFFFF"></path>
                <path d="M40.9,27.9 C40.5,27.9 40.2,28.1 40,28.4 L35.4,37.1 C35.3,37.4 35.2,37.7 35.4,38 C35.6,38.3 35.8,38.5 36.1,38.5 L38.3,38.9 L40.1,41.3 C40.3,41.6 40.6,41.7 40.9,41.7 C41,41.7 41.1,41.7 41.3,41.6 C41.7,41.4 42,41 41.9,40.6 L41.4,35.4 C41.6,33.9 41.9,31.2 41.9,28.8 C41.9,28.3 41.6,28 41.2,27.8 C41.1,27.9 41,27.9 40.9,27.9 L40.9,27.9 Z M40.9,28.8 C40.9,31.3 40.6,34 40.4,35.3 L40.9,40.6 L38.9,37.9 L36.3,37.4 L40.9,28.8 L40.9,28.8 Z" id="Fill-99" fill="#000000" fill-rule="nonzero"></path>
                <path d="M36.6,38 C36.4,38 36.3,37.9 36.2,37.8 L31.6,30.7 C31.5,30.6 31.5,30.5 31.5,30.4 L31.5,20.1 C31.5,19.8 31.7,19.6 32,19.6 L40.9,19.6 C41.2,19.6 41.4,19.8 41.4,20.1 L41.4,30.4 C41.4,30.5 41.4,30.6 41.3,30.7 L37,37.8 C36.9,37.9 36.7,38 36.6,38 L36.6,38 Z" id="Fill-101" fill="#FFFFFF"></path>
                <path d="M40.8,19.2 L32,19.2 C31.5,19.2 31,19.6 31,20.2 L31,30.5 C31,30.7 31.1,30.9 31.2,31 L35.8,38.1 C36,38.4 36.3,38.5 36.6,38.5 C36.6,38.5 36.6,38.5 36.6,38.5 C36.9,38.5 37.3,38.3 37.4,38 L41.7,30.9 C41.8,30.7 41.8,30.6 41.8,30.4 L41.8,20.1 C41.8,19.6 41.4,19.2 40.8,19.2 M40.8,20.1 L40.8,30.4 L36.5,37.5 L32,30.5 L32,20.1 L40.8,20.1" id="Fill-103" fill="#000000" fill-rule="nonzero"></path>
                <path d="M40.7,26.6 L40.6,28.7 C40.6,28.7 36,31.3 32.2,28.7 L32,26.1 L40.7,26.6 Z" id="Fill-105" fill="#ECECEC"></path>
                <path d="M36.4,0.5 C32.4,0.5 24,1.2 26.1,13.3 C27.5,21.1 30.6,27.6 36.3,27.7 C42,27.7 45.8,21.3 46.6,13.4 C47.6,3.6 45,4 42.5,3 C42.2,2.9 41.8,2.7 41.6,2.4 C40.8,1.9 39,0.5 36.4,0.5" id="Fill-107" fill="#009688"></path>
                <path d="M36.4,0.5 C32.4,0.5 24,1.2 26.1,13.3 C27.5,21.1 30.6,27.6 36.3,27.7 C42,27.7 45.8,21.3 46.6,13.4 C47.6,3.6 45,4 42.5,3 C42.2,2.9 41.8,2.7 41.6,2.4 C40.8,1.9 39,0.5 36.4,0.5 Z" id="Stroke-109" stroke="#000000"></path>
                <path d="M45.9,16.1 C45.9,23.5 41.6,28.7 36.3,28.7 C31,28.7 26.8,23.4 26.8,16.1 C26.8,8.7 31.1,2.8 36.4,2.8 C41.7,2.8 45.9,8.8 45.9,16.1" id="Fill-111" fill="#FFFFFF"></path>
                <path d="M45.9,16.1 C45.9,23.5 41.6,28.7 36.3,28.7 C31,28.7 26.8,23.4 26.8,16.1 C26.8,8.7 31.1,2.8 36.4,2.8 C41.7,2.8 45.9,8.8 45.9,16.1 Z" id="Stroke-113" stroke="#000000" stroke-linecap="round" stroke-linejoin="round"></path>
                <path d="M43.9,5.5 L46,12.4 C46,12.4 44.9,8.7 41,8.3 C41,8.3 39.1,7.9 39.8,6.7 C39.8,6.7 39.3,7.9 38.1,8.3 C38.1,8.3 34.1,9.7 30.9,9.4 C30.9,9.4 28.3,8.6 27.2,12 C26.2,11.5 27.6,8.4 27.6,8.4 L31.6,3 L37.7,1.6 L43.9,5.5 Z" id="Fill-115" fill="#009688"></path>
                <path d="M27.3,14.2 C27.3,14.2 27.5,9.4 32.7,9.8 C32.7,9.8 38.5,10 39.4,8 C39.4,8 40.4,9.2 41.8,9.1 C41.8,9.1 44.8,9.4 45.4,14.5 C45.4,14.5 45.1,9.8 43.1,8.9 C43.1,8.9 39.5,8.4 39.5,7.2 C39.5,7.2 37.8,9 34.7,9.2 C34.7,9.2 32.6,9.3 30.8,9.3 C30.8,9.3 28.6,8.7 27.6,12.1 L27.3,14.2 Z" id="Fill-117" fill="#ECECEC"></path>
                <path d="M27.3,12 C27.3,12 27.9,9.2 30.4,9.3 C33.3,9.4 39.6,9.3 39.9,6.2" id="Stroke-119" stroke="#000000" stroke-linecap="round" stroke-linejoin="round"></path>
                <path d="M45.4,11.7 C45.4,11.7 45,9 42,8.6 C39.5,8.3 39.6,7.3 39.6,7.3" id="Stroke-121" stroke="#000000" stroke-linecap="round" stroke-linejoin="round"></path>
                <g id="Group-126" transform="translate(44.391892, 13.566064)">
                    <path d="M1.1,0.9 C2.4,0.9 3.2,1.8 3.2,3.1 C3.2,4.4 1.7,5.5 0.9,5.5" id="Fill-123" fill="#FFFFFF"></path>
                    <path d="M1.1,0.9 C2.4,0.9 3.2,1.8 3.2,3.1 C3.2,4.4 1.7,5.5 0.9,5.5" id="Stroke-125" stroke="#000000" stroke-linecap="round" stroke-linejoin="round"></path>
                </g>
                <g id="Group-130" transform="translate(24.662162, 13.566064)">
                    <path d="M2.7,0.9 C1.4,0.9 0.6,1.8 0.6,3.1 C0.6,4.4 2.1,5.4 2.9,5.4" id="Fill-127" fill="#FFFFFF"></path>
                    <path d="M2.7,0.9 C1.4,0.9 0.6,1.8 0.6,3.1 C0.6,4.4 2.1,5.4 2.9,5.4" id="Stroke-129" stroke="#000000" stroke-linecap="round" stroke-linejoin="round"></path>
                </g>
                <path d="M39.1,4 C39.1,4 37.6,7.4 30.8,6.6" id="Stroke-131" stroke="#000000" stroke-linecap="round" stroke-linejoin="round"></path>
                <path d="M30.5,4 C30.5,4 27.1,5.3 27.1,9.9" id="Stroke-133" stroke="#000000" stroke-linecap="round" stroke-linejoin="round"></path>
                <g id="Group-138" transform="translate(24.662162, 41.187685)">
                    <line x1="0.7" y1="10.4" x2="0.7" y2="0.9" id="Fill-135" fill="#009385"></line>
                    <line x1="0.7" y1="10.4" x2="0.7" y2="0.9" id="Stroke-137" stroke="#000000" stroke-linecap="round" stroke-linejoin="round"></line>
                </g>
                <g id="Group-142" transform="translate(46.364865, 41.187685)">
                    <line x1="1.1" y1="10.4" x2="1.1" y2="0.9" id="Fill-139" fill="#009385"></line>
                    <line x1="1.1" y1="10.4" x2="1.1" y2="0.9" id="Stroke-141" stroke="#000000" stroke-linecap="round" stroke-linejoin="round"></line>
                </g>
                <path d="M38,25.7 C38,25.8 37.4,25.9 36.6,25.9 C35.8,25.9 35.2,25.8 35.2,25.7 C35.2,25.6 35.8,25.4 36.6,25.4 C37.4,25.4 38,25.6 38,25.7" id="Fill-143" fill="#ECECEC"></path>
                <g id="Group-148" transform="translate(17.756757, 51.052550)">
                    <line x1="37.1" y1="0.5" x2="0.2" y2="0.5" id="Fill-145" fill="#009385"></line>
                    <line x1="37.1" y1="0.5" x2="0.2" y2="0.5" id="Stroke-147" stroke="#000000" stroke-linecap="round" stroke-linejoin="round"></line>
                </g>
                <polygon id="Fill-149" fill="#FFFFFF" points="39.1 46.1 37.3 51.2 42 51.2"></polygon>
                <polygon id="Fill-151" fill="#FFFFFF" points="32.7 46.1 30.9 51.2 35.5 51.2"></polygon>
                <polygon id="Fill-153" fill="#ECECEC" points="43.8 30.7 47.5 35.4 43.8 37.8 44.5 39.2 40.2 51.2 38.6 51.2 42.4 30.3"></polygon>
                <polygon id="Fill-155" fill="#ECECEC" points="29.3 30.7 25.6 35.4 29.3 37.8 28.5 39.2 32.8 51.2 34.5 51.2 30.7 30.3"></polygon>
                <polygon id="Fill-157" fill="#009688" points="26.9 35.2 30.4 37.8 29.4 39.4 33.7 51.5 36 51.5 31.5 28.8"></polygon>
                <polygon id="Stroke-159" stroke="#000000" points="26.9 35.2 30.4 37.8 29.4 39.4 33.7 51.5 36 51.5 31.5 28.8"></polygon>
                <polygon id="Fill-161" fill="#009688" points="45.9 35.1 42.4 37.7 43.4 39.3 39.1 51.5 36.8 51.5 41.3 28.7"></polygon>
                <polygon id="Stroke-163" stroke="#000000" points="45.9 35.1 42.4 37.7 43.4 39.3 39.1 51.5 36.8 51.5 41.3 28.7"></polygon>
                <path d="M71.8,23.2 L49.9,23.2 C49.5,23.2 49.2,22.9 49.2,22.5 L49.2,14.2 C49.2,13.8 49.5,13.5 49.9,13.5 L71.7,13.5 C72.1,13.5 72.4,13.8 72.4,14.2 L72.4,22.5 C72.5,22.8 72.2,23.2 71.8,23.2" id="Fill-165" fill="#FFFFFF"></path>
                <path d="M71.8,23.2 L49.9,23.2 C49.5,23.2 49.2,22.9 49.2,22.5 L49.2,14.2 C49.2,13.8 49.5,13.5 49.9,13.5 L71.7,13.5 C72.1,13.5 72.4,13.8 72.4,14.2 L72.4,22.5 C72.5,22.8 72.2,23.2 71.8,23.2 Z" id="Stroke-167" stroke="#000000" stroke-linecap="round" stroke-linejoin="round"></path>
                <line x1="61.9" y1="15.7" x2="50.9" y2="15.7" id="Stroke-169" stroke="#ECECEC" stroke-linecap="round" stroke-linejoin="round"></line>
                <line x1="61.9" y1="18.2" x2="50.9" y2="18.2" id="Stroke-171" stroke="#ECECEC" stroke-linecap="round" stroke-linejoin="round"></line>
                <line x1="57.9" y1="20.8" x2="50.9" y2="20.8" id="Stroke-173" stroke="#ECECEC" stroke-linecap="round" stroke-linejoin="round"></line>
                <path d="M70.6,15.4 L68.9,15.4 C69.2,15.6 69.4,16 69.5,16.4 L70.6,16.4 L70.6,17 L69.5,17 C69.4,18 68.6,18.7 67.3,18.7 C68.1,19.5 69,20.6 69.8,21.6 L68.8,21.6 C68,20.6 67.3,19.8 66.3,18.8 L66.3,18.2 L66.9,18.2 C68,18.2 68.6,17.7 68.7,17 L66.4,17 L66.4,16.5 L68.7,16.5 C68.6,15.9 68,15.6 67.1,15.6 L66.4,15.6 L66.4,14.9 L70.7,14.9 L70.7,15.4 L70.6,15.4 Z" id="Fill-175" fill="#009688"></path>
                <path d="M20.9,22.7 L2.7,22.7 C2.3,22.7 2,22.4 2,22 L2,15.3 C2,14.9 2.3,14.6 2.7,14.6 L20.9,14.6 C21.3,14.6 21.6,14.9 21.6,15.3 L21.6,22 C21.6,22.4 21.3,22.7 20.9,22.7" id="Fill-177" fill="#FFFFFF"></path>
                <path d="M20.9,22.7 L2.7,22.7 C2.3,22.7 2,22.4 2,22 L2,15.3 C2,14.9 2.3,14.6 2.7,14.6 L20.9,14.6 C21.3,14.6 21.6,14.9 21.6,15.3 L21.6,22 C21.6,22.4 21.3,22.7 20.9,22.7 Z" id="Stroke-179" stroke="#000000" stroke-linecap="round" stroke-linejoin="round"></path>
                <line x1="12.7" y1="16.5" x2="3.4" y2="16.5" id="Stroke-181" stroke="#ECECEC" stroke-linecap="round" stroke-linejoin="round"></line>
                <line x1="12.7" y1="18.6" x2="3.4" y2="18.6" id="Stroke-183" stroke="#ECECEC" stroke-linecap="round" stroke-linejoin="round"></line>
                <line x1="9.3" y1="20.8" x2="3.4" y2="20.8" id="Stroke-185" stroke="#ECECEC" stroke-linecap="round" stroke-linejoin="round"></line>
                <path d="M20,16.3 L18.6,16.3 C18.8,16.5 19,16.8 19.1,17.2 L20,17.2 L20,17.6 L19.1,17.6 C19,18.4 18.3,19 17.2,19 C17.9,19.7 18.6,20.6 19.3,21.4 L18.5,21.4 C17.8,20.6 17.2,19.9 16.4,19 L16.4,18.5 L16.9,18.5 C17.8,18.5 18.3,18.1 18.4,17.5 L16.5,17.5 L16.5,17.1 L18.4,17.1 C18.3,16.6 17.8,16.4 17.1,16.4 L16.5,16.4 L16.5,15.8 L20,15.8 L20,16.3 Z" id="Fill-187" fill="#009688"></path>
                <path d="M44.1,48.7 L1.2,48.7 C0.8,48.7 0.5,48.4 0.5,48 L0.5,30.8 C0.5,30.4 0.8,30.1 1.2,30.1 L44.1,30.1 C44.5,30.1 44.8,30.4 44.8,30.8 L44.8,47.9 C44.9,48.3 44.5,48.7 44.1,48.7" id="Fill-189" fill="#FFFFFF"></path>
                <path d="M44.1,48.7 L1.2,48.7 C0.8,48.7 0.5,48.4 0.5,48 L0.5,30.8 C0.5,30.4 0.8,30.1 1.2,30.1 L44.1,30.1 C44.5,30.1 44.8,30.4 44.8,30.8 L44.8,47.9 C44.9,48.3 44.5,48.7 44.1,48.7 Z" id="Stroke-191" stroke="#000000" stroke-linecap="round" stroke-linejoin="round"></path>
                <line x1="24.6" y1="34.5" x2="3.8" y2="34.5" id="Stroke-193" stroke="#ECECEC" stroke-linecap="round" stroke-linejoin="round"></line>
                <line x1="24.6" y1="39.3" x2="3.8" y2="39.3" id="Stroke-195" stroke="#ECECEC" stroke-linecap="round" stroke-linejoin="round"></line>
                <line x1="17.1" y1="44.2" x2="3.8" y2="44.2" id="Stroke-197" stroke="#ECECEC" stroke-linecap="round" stroke-linejoin="round"></line>
                <path d="M41.2,34 L38,34 C38.6,34.4 39,35.1 39.1,36 L41.2,36 L41.2,37 L39.1,37 C38.9,39 37.3,40.2 34.9,40.3 C36.4,41.9 38,43.8 39.7,45.8 L37.9,45.8 C36.4,44 35,42.3 33.2,40.4 L33.2,39.2 L34.3,39.2 C36.4,39.2 37.5,38.3 37.6,37 L33.2,37 L33.2,36 L37.5,36 C37.2,34.9 36.2,34.3 34.5,34.3 L33.1,34.3 L33.1,33 L41.2,33 L41.2,34 L41.2,34 Z" id="Fill-199" fill="#009688"></path>
            </g>
        </g>
    </g>
</svg>