<?xml version="1.0" encoding="UTF-8"?>
<svg width="66px" height="45px" viewBox="0 0 66 45" version="1.1" xmlns="http://www.w3.org/2000/svg" xmlns:xlink="http://www.w3.org/1999/xlink">
    <!-- Generator: Sketch 60.1 (88133) - https://sketch.com -->
    <title>MktSelectPackage</title>
    <desc>Created with Sketch.</desc>
    <g id="Components" stroke="none" stroke-width="1" fill="none" fill-rule="evenodd">
        <g id="MktSelectPackage">
            <g id="Group">
                <g transform="translate(9.000000, 0.000000)">
                    <path d="M42.2,19.8 L0.8,19.8 C0.4,19.8 0.1,19.5 0.1,19.1 L0.1,1.3 C0.1,0.9 0.4,0.6 0.8,0.6 L42.2,0.6 C42.6,0.6 42.9,0.9 42.9,1.3 L42.9,19.1 C42.9,19.5 42.6,19.8 42.2,19.8" id="Fill-1" fill="#FFFFFF"></path>
                    <path d="M42.2,19.8 L0.8,19.8 C0.4,19.8 0.1,19.5 0.1,19.1 L0.1,1.3 C0.1,0.9 0.4,0.6 0.8,0.6 L42.2,0.6 C42.6,0.6 42.9,0.9 42.9,1.3 L42.9,19.1 C42.9,19.5 42.6,19.8 42.2,19.8 Z" id="Stroke-3" stroke="#000000" stroke-linecap="round" stroke-linejoin="round"></path>
                    <line x1="40" y1="5.2" x2="21.5" y2="5.2" id="Stroke-5" stroke="#ECECEC" stroke-linecap="round" stroke-linejoin="round"></line>
                    <line x1="40" y1="10.1" x2="21.5" y2="10.1" id="Stroke-7" stroke="#ECECEC" stroke-linecap="round" stroke-linejoin="round"></line>
                    <line x1="32.2" y1="15.1" x2="21.5" y2="15.1" id="Stroke-9" stroke="#ECECEC" stroke-linecap="round" stroke-linejoin="round"></line>
                    <path d="M11.8,13.6 L11.7,13.6 C10.3,13.6 9.1,14.2 8.2,14.9 C7.4,14.4 6.6,14.2 5.8,14.4 C3.8,14.8 2.5,17.2 2.4,17.3 C2.3,17.4 2.3,17.6 2.4,17.7 C2.5,17.8 2.6,17.9 2.8,17.9 L6.2,17.9 L6.3,17.9 L17.2,17.9 C17.4,17.9 17.5,17.8 17.6,17.7 C17.7,17.6 17.7,17.4 17.6,17.3 C15.7,14.8 13.8,13.6 11.8,13.6" id="Fill-11" fill="#ECECEC"></path>
                    <path d="M15.2,7.9 C15.2,6.3 13.9,5 12.3,5 C10.7,5 9.4,6.3 9.4,7.9 C9.4,9.5 10.7,10.8 12.3,10.8 C13.9,10.8 15.2,9.5 15.2,7.9" id="Fill-13" fill="#ECECEC"></path>
                    <path d="M7.4,8.2 L8.8,8.2 C9,8.2 9.2,8 9.2,7.8 C9.2,7.6 9,7.4 8.8,7.4 L7.4,7.4 C7.2,7.4 7,7.6 7,7.8 C7,8 7.2,8.2 7.4,8.2" id="Fill-15" fill="#ECECEC"></path>
                    <path d="M15.3,7.8 C15.3,8 15.5,8.2 15.7,8.2 L17.2,8.2 C17.4,8.2 17.6,8 17.6,7.8 C17.6,7.6 17.4,7.4 17.2,7.4 L15.8,7.4 C15.5,7.4 15.3,7.6 15.3,7.8" id="Fill-17" fill="#ECECEC"></path>
                    <path d="M12.3,4.9 C12.5,4.9 12.7,4.7 12.7,4.5 L12.7,3 C12.7,2.8 12.5,2.6 12.3,2.6 C12.1,2.6 11.9,2.8 11.9,3 L11.9,4.4 C11.9,4.7 12,4.9 12.3,4.9" id="Fill-19" fill="#ECECEC"></path>
                    <path d="M11.9,11.4 L11.9,12.8 C11.9,13 12.1,13.2 12.3,13.2 C12.5,13.2 12.7,13 12.7,12.8 L12.7,11.4 C12.7,11.2 12.5,11 12.3,11 C12,11 11.9,11.2 11.9,11.4" id="Fill-21" fill="#ECECEC"></path>
                    <path d="M14.7,5.9 C14.8,5.9 14.9,5.9 15,5.8 L16,4.8 C16.2,4.6 16.2,4.4 16,4.2 C15.8,4 15.6,4 15.4,4.2 L14.4,5.2 C14.2,5.4 14.2,5.6 14.4,5.8 C14.5,5.8 14.6,5.9 14.7,5.9" id="Fill-23" fill="#ECECEC"></path>
                    <path d="M9.5,10.1 L8.5,11.1 C8.3,11.3 8.3,11.5 8.5,11.7 C8.6,11.8 8.7,11.8 8.8,11.8 C8.9,11.8 9,11.8 9.1,11.7 L10.1,10.7 C10.3,10.5 10.3,10.3 10.1,10.1 C9.9,9.9 9.7,9.9 9.5,10.1" id="Fill-25" fill="#ECECEC"></path>
                    <path d="M15.4,11.7 C15.5,11.8 15.6,11.8 15.7,11.8 C15.8,11.8 15.9,11.8 16,11.7 C16.2,11.5 16.2,11.3 16,11.1 L15,10.1 C14.8,9.9 14.6,9.9 14.4,10.1 C14.2,10.3 14.2,10.5 14.4,10.7 L15.4,11.7 Z" id="Fill-27" fill="#ECECEC"></path>
                    <path d="M9.5,5.8 C9.6,5.9 9.7,5.9 9.8,5.9 C9.9,5.9 10,5.9 10.1,5.8 C10.3,5.6 10.3,5.4 10.1,5.2 L9.1,4.2 C8.9,4 8.7,4 8.5,4.2 C8.3,4.4 8.3,4.6 8.5,4.8 L9.5,5.8 Z" id="Fill-29" fill="#ECECEC"></path>
                </g>
                <g transform="translate(5.000000, 8.000000)">
                    <path d="M49.5,22.3 L1.5,22.3 C1.1,22.3 0.7,21.9 0.7,21.5 L0.7,0.9 C0.7,0.5 1.1,0.1 1.5,0.1 L49.5,0.1 C49.9,0.1 50.3,0.5 50.3,0.9 L50.3,21.5 C50.3,22 50,22.3 49.5,22.3" id="Fill-31" fill="#FFFFFF"></path>
                    <path d="M49.5,22.3 L1.5,22.3 C1.1,22.3 0.7,21.9 0.7,21.5 L0.7,0.9 C0.7,0.5 1.1,0.1 1.5,0.1 L49.5,0.1 C49.9,0.1 50.3,0.5 50.3,0.9 L50.3,21.5 C50.3,22 50,22.3 49.5,22.3 Z" id="Stroke-33" stroke="#000000" fill="#FFFFFF" fill-rule="nonzero" stroke-linecap="round" stroke-linejoin="round"></path>
                    <line x1="46.9" y1="5.4" x2="25.5" y2="5.4" id="Stroke-35" stroke="#ECECEC" stroke-linecap="round" stroke-linejoin="round"></line>
                    <line x1="46.9" y1="11.2" x2="25.5" y2="11.2" id="Stroke-37" stroke="#ECECEC" stroke-linecap="round" stroke-linejoin="round"></line>
                    <line x1="37.9" y1="16.9" x2="25.5" y2="16.9" id="Stroke-39" stroke="#ECECEC" stroke-linecap="round" stroke-linejoin="round"></line>
                    <path d="M14.2,15.1 L14.1,15.1 C12.5,15.1 11.1,15.8 10,16.6 C9.1,16 8.2,15.8 7.2,16 C4.9,16.5 3.3,19.2 3.3,19.3 C3.2,19.5 3.2,19.6 3.3,19.8 C3.4,20 3.6,20 3.7,20 L7.7,20 L7.8,20 L20.4,20 C20.6,20 20.8,19.9 20.8,19.7 C20.9,19.5 20.9,19.3 20.8,19.2 C18.8,16.6 16.6,15.1 14.2,15.1" id="Fill-41" fill="#ECECEC"></path>
                    <path d="M18.2,8.6 C18.2,6.8 16.7,5.2 14.8,5.2 C13,5.2 11.4,6.7 11.4,8.6 C11.4,10.4 12.9,12 14.8,12 C16.7,11.9 18.2,10.4 18.2,8.6" id="Fill-43" fill="#ECECEC"></path>
                    <path d="M14.8,5 C15.1,5 15.3,4.8 15.3,4.5 L15.3,2.9 C15.3,2.6 15.1,2.4 14.8,2.4 C14.5,2.4 14.3,2.6 14.3,2.9 L14.3,4.5 C14.3,4.8 14.5,5 14.8,5" id="Fill-49" fill="#ECECEC"></path>
                    <path d="M9.2,8.9 L10.8,8.9 C11.1,8.9 11.3,8.7 11.3,8.4 C11.3,8.1 11.1,7.9 10.8,7.9 L9.2,7.9 C8.9,7.9 8.7,8.1 8.7,8.4 C8.7,8.7 8.9,8.9 9.2,8.9" id="Fill-45" fill="#ECECEC"></path>
                    <path d="M18.4,8.4 C18.4,8.7 18.6,8.9 18.9,8.9 L20.5,8.9 C20.8,8.9 21,8.7 21,8.4 C21,8.1 20.8,7.9 20.5,7.9 L18.9,7.9 C18.6,7.9 18.4,8.2 18.4,8.4" id="Fill-47" fill="#ECECEC"></path>
                    <path d="M14.3,12.6 L14.3,14.2 C14.3,14.5 14.5,14.7 14.8,14.7 C15.1,14.7 15.3,14.5 15.3,14.2 L15.3,12.6 C15.3,12.3 15.1,12.1 14.8,12.1 C14.5,12.1 14.3,12.3 14.3,12.6" id="Fill-51" fill="#ECECEC"></path>
                    <path d="M17.7,6.2 C17.8,6.2 18,6.2 18.1,6.1 L19.2,5 C19.4,4.8 19.4,4.5 19.2,4.3 C19,4.1 18.7,4.1 18.5,4.3 L17.3,5.4 C17.1,5.6 17.1,5.9 17.3,6.1 C17.4,6.2 17.5,6.2 17.7,6.2" id="Fill-53" fill="#ECECEC"></path>
                    <path d="M11.6,11.1 L10.5,12.2 C10.3,12.4 10.3,12.7 10.5,12.9 C10.6,13 10.7,13 10.9,13 C11,13 11.2,13 11.3,12.9 L12.4,11.8 C12.6,11.6 12.6,11.3 12.4,11.1 C12.1,10.9 11.8,10.9 11.6,11.1" id="Fill-55" fill="#ECECEC"></path>
                    <path d="M18.5,12.9 C18.6,13 18.7,13 18.9,13 C19,13 19.2,13 19.3,12.9 C19.5,12.7 19.5,12.4 19.3,12.2 L18.2,11.1 C18,10.9 17.7,10.9 17.5,11.1 C17.3,11.3 17.3,11.6 17.5,11.8 L18.5,12.9 Z" id="Fill-57" fill="#ECECEC"></path>
                    <path d="M11.6,6.1 C11.7,6.2 11.8,6.2 12,6.2 C12.1,6.2 12.3,6.2 12.3,6.1 C12.5,5.9 12.5,5.6 12.3,5.4 L11.2,4.2 C11,4 10.7,4 10.5,4.2 C10.3,4.4 10.3,4.7 10.5,4.9 L11.6,6.1 Z" id="Fill-59" fill="#ECECEC"></path>
                </g>
                <g transform="translate(0.000000, 16.000000)">
                    <g>
                        <path d="M59.7,27 L1.3,27 C0.9,27 0.6,26.7 0.6,26.3 L0.6,0.9 C0.6,0.5 0.9,0.2 1.3,0.2 L59.6,0.2 C60,0.2 60.3,0.5 60.3,0.9 L60.3,26.3 C60.2,26.7 59.9,27 59.7,27" id="Fill-61" fill="#FFFFFF"></path>
                        <path d="M59.7,27 L1.3,27 C0.9,27 0.6,26.7 0.6,26.3 L0.6,0.9 C0.6,0.5 0.9,0.2 1.3,0.2 L59.6,0.2 C60,0.2 60.3,0.5 60.3,0.9 L60.3,26.3 C60.2,26.7 59.9,27 59.7,27 Z" id="Stroke-63" stroke="#000000" stroke-linecap="round" stroke-linejoin="round"></path>
                    </g>
                    <line x1="56.1" y1="6.6" x2="30.4" y2="6.6" id="Stroke-65" stroke="#ECECEC" stroke-linecap="round" stroke-linejoin="round"></line>
                    <line x1="56.1" y1="13.5" x2="30.4" y2="13.5" id="Stroke-67" stroke="#ECECEC" stroke-linecap="round" stroke-linejoin="round"></line>
                    <line x1="45.2" y1="20.5" x2="30.4" y2="20.5" id="Stroke-69" stroke="#ECECEC" stroke-linecap="round" stroke-linejoin="round"></line>
                    <path d="M9.1,23.8 C9.1,23.8 16.4,12.9 24.4,23.8 L9.1,23.8 Z" id="Stroke-71" stroke="#000000" stroke-linecap="round" stroke-linejoin="round"></path>
                    <path d="M9.2,23.8 L4.2,23.8 C4.2,23.8 7.6,17.8 11.7,20.8" id="Stroke-73" stroke="#000000" stroke-linecap="round" stroke-linejoin="round"></path>
                    <g transform="translate(10.000000, 3.000000)">
                        <path d="M11,7.4 C11,9.3 9.5,10.8 7.6,10.8 C5.7,10.8 4.2,9.3 4.2,7.4 C4.2,5.5 5.7,4 7.6,4 C9.4,4 11,5.6 11,7.4" id="Fill-75" fill="#009688"></path>
                        <path d="M11,7.4 C11,9.3 9.5,10.8 7.6,10.8 C5.7,10.8 4.2,9.3 4.2,7.4 C4.2,5.5 5.7,4 7.6,4 C9.4,4 11,5.6 11,7.4 Z" id="Stroke-77" stroke="#000000"></path>
                        <g stroke="#000000" stroke-linecap="round" stroke-linejoin="round">
                            <line x1="2.8" y1="7.3" x2="0.9" y2="7.3" id="Stroke-79"></line>
                            <line x1="14.4" y1="7.3" x2="12.5" y2="7.3" id="Stroke-81"></line>
                            <line x1="7.5" y1="2.6" x2="7.5" y2="0.7" id="Stroke-83"></line>
                            <line x1="7.5" y1="14.2" x2="7.5" y2="12.3" id="Stroke-85"></line>
                            <line x1="11" y1="4" x2="12.4" y2="2.6" id="Stroke-87"></line>
                            <line x1="2.8" y1="12.3" x2="4.2" y2="10.9" id="Stroke-89"></line>
                            <line x1="11" y1="10.9" x2="12.4" y2="12.3" id="Stroke-91"></line>
                            <line x1="2.8" y1="2.6" x2="4.2" y2="4" id="Stroke-93"></line>
                        </g>
                    </g>
                </g>
                <g transform="translate(48.000000, 28.000000)">
                    <path d="M16.2,5.5 C17.8,9.6 15.9,14.2 11.8,15.8 C7.7,17.4 3.1,15.5 1.5,11.4 C-0.1,7.3 1.8,2.7 5.9,1.1 C9.9,-0.5 14.5,1.5 16.2,5.5" id="Fill-95" fill="#009688"></path>
                    <path d="M16.2,5.5 C17.8,9.6 15.9,14.2 11.8,15.8 C7.7,17.4 3.1,15.5 1.5,11.4 C-0.1,7.3 1.8,2.7 5.9,1.1 C9.9,-0.5 14.5,1.5 16.2,5.5 Z" id="Stroke-97" stroke="#000000"></path>
                    <polygon id="Fill-99" fill="#FFFFFF" points="5.4 6.7 7.6 9.3 12.6 4.9 14.1 6.6 7.3 12.3 3.7 8.2"></polygon>
                    <polygon id="Stroke-101" stroke="#000000" stroke-linecap="round" stroke-linejoin="round" points="5.4 6.7 7.6 9.3 12.6 4.9 14.1 6.6 7.3 12.3 3.7 8.2"></polygon>
                </g>
            </g>
        </g>
    </g>
</svg>