<?xml version="1.0" encoding="UTF-8"?>
<svg width="24px" height="24px" viewBox="0 0 24 24" version="1.1" xmlns="http://www.w3.org/2000/svg" xmlns:xlink="http://www.w3.org/1999/xlink">
    <!-- Generator: Sketch 52.2 (67145) - http://www.bohemiancoding.com/sketch -->
    <title>Icon/Pet Friendly</title>
    <desc>Created with Sketch.</desc>
    <defs>
        <polygon id="path-1" points="0.163123103 0.805 6.0942769 0.805 6.0942769 7.7548 0.163123103 7.7548"></polygon>
        <polygon id="path-3" points="0 0.29379121 5.32782613 0.29379121 5.32782613 5.6172 0 5.6172"></polygon>
        <polygon id="path-5" points="0.525072532 0.466991506 5 0.466991506 5 5.1811 0.525072532 5.1811"></polygon>
    </defs>
    <g id="Icon/Pet-Friendly" stroke="none" stroke-width="1" fill="none" fill-rule="evenodd">
        <g id="Group-22" transform="translate(2.000000, 2.000000)">
            <path d="M5.0564,13.4472 C4.6234,14.2192 4.5204,15.1032 4.7634,15.9432 C5.0144,16.8032 5.6074,17.5342 6.3904,17.9432 C6.9964,18.2602 7.7704,18.3292 8.5694,18.1342 C9.5584,17.8962 10.5574,17.8962 11.5034,18.1262 C12.3424,18.3292 13.1174,18.2622 13.7214,17.9432 C14.5054,17.5342 15.0984,16.8032 15.3494,15.9432 C15.5964,15.0902 15.4854,14.1902 15.0354,13.4112 L12.4934,10.4412 C11.8834,9.7272 10.9954,9.3172 10.0564,9.3172 C9.1174,9.3172 8.2294,9.7272 7.6194,10.4412 L5.0564,13.4472 Z M12.4184,19.1952 C12.0594,19.1952 11.6904,19.1502 11.3184,19.0612 C10.4784,18.8562 9.6324,18.8562 8.8344,19.0512 C7.7684,19.3092 6.7594,19.2112 5.9494,18.7882 C4.9374,18.2582 4.1724,17.3182 3.8494,16.2082 C3.5284,15.1042 3.6714,13.9422 4.2524,12.9352 C4.2674,12.9102 4.2844,12.8862 4.3024,12.8642 L6.8944,9.8242 C7.6854,8.8972 8.8384,8.3652 10.0564,8.3652 C11.2754,8.3652 12.4284,8.8972 13.2184,9.8242 L15.8104,12.8642 C16.4414,13.9422 16.5844,15.1042 16.2634,16.2082 C15.9414,17.3182 15.1754,18.2582 14.1634,18.7882 C13.6474,19.0572 13.0494,19.1952 12.4184,19.1952 Z" id="Fill-1" fill="#000000"></path>
            <path d="M9.6033,4.247 C9.7553,5.897 8.7713,7.339 7.4053,7.465 C6.0393,7.591 4.8073,6.354 4.6553,4.704 C4.5023,3.053 5.4863,1.612 6.8523,1.485 C8.2193,1.359 9.4513,2.596 9.6033,4.247" id="Fill-3" fill="#009587"></path>
            <g id="Group-7" transform="translate(4.000000, 0.195200)">
                <mask id="mask-2" fill="white">
                    <use xlink:href="#path-1"></use>
                </mask>
                <g id="Clip-6"></g>
                <path d="M3.0437,1.7578 C2.9947,1.7578 2.9447,1.7598 2.8967,1.7648 C1.7937,1.8668 1.0007,3.0778 1.1287,4.4648 C1.1917,5.1528 1.4707,5.7768 1.9117,6.2198 C2.3287,6.6388 2.8447,6.8428 3.3607,6.7948 C4.4637,6.6928 5.2567,5.4818 5.1287,4.0948 C5.0067,2.7708 4.0867,1.7578 3.0437,1.7578 M3.2097,7.7548 C2.4897,7.7548 1.7967,7.4528 1.2367,6.8918 C0.6407,6.2918 0.2647,5.4608 0.1807,4.5518 C0.0037,2.6428 1.1837,0.9668 2.8087,0.8158 C4.4397,0.6628 5.8997,2.0998 6.0767,4.0078 C6.2537,5.9168 5.0737,7.5928 3.4487,7.7438 C3.3687,7.7508 3.2887,7.7548 3.2097,7.7548" id="Fill-5" fill="#000000" mask="url(#mask-2)"></path>
            </g>
            <path d="M4.0613,7.7548 C4.9923,8.6868 5.1233,10.0668 4.3513,10.8368 C3.5813,11.6078 2.2013,11.4778 1.2703,10.5458 C0.3383,9.6148 0.2083,8.2348 0.9793,7.4648 C1.7493,6.6928 3.1293,6.8238 4.0613,7.7548" id="Fill-8" fill="#009587"></path>
            <g id="Group-12" transform="translate(0.000000, 6.195200)">
                <mask id="mask-4" fill="white">
                    <use xlink:href="#path-3"></use>
                </mask>
                <g id="Clip-11"></g>
                <path d="M2.2566,1.2402 C1.8966,1.2402 1.5616,1.3602 1.3166,1.6062 C1.0156,1.9062 0.9516,2.2822 0.9516,2.5452 C0.9516,3.0622 1.1916,3.5982 1.6076,4.0132 C2.3496,4.7572 3.4316,4.8882 4.0156,4.3042 C4.5996,3.7202 4.4686,2.6412 3.7246,1.8962 C3.2936,1.4662 2.7496,1.2402 2.2566,1.2402 M3.0766,5.6172 C2.3346,5.6172 1.5476,5.3022 0.9336,4.6872 C0.3406,4.0942 -0.0004,3.3132 -0.0004,2.5452 C-0.0004,1.9192 0.2296,1.3462 0.6426,0.9322 C1.5966,-0.0208 3.2806,0.1072 4.3986,1.2222 C5.5136,2.3392 5.6436,4.0232 4.6886,4.9782 C4.2586,5.4072 3.6836,5.6172 3.0766,5.6172" id="Fill-10" fill="#000000" mask="url(#mask-4)"></path>
            </g>
            <path d="M15.7908,6.122 C15.3208,7.541 13.9888,8.377 12.8138,7.989 C11.6398,7.601 11.0678,6.136 11.5368,4.717 C12.0058,3.297 13.3388,2.461 14.5138,2.85 C15.6868,3.237 16.2598,4.703 15.7908,6.122" id="Fill-13" fill="#009587"></path>
            <path d="M13.9177,3.2294 C13.1197,3.2294 12.3137,3.8814 11.9887,4.8664 C11.6047,6.0334 12.0407,7.2314 12.9637,7.5374 C13.8877,7.8424 14.9517,7.1394 15.3387,5.9714 C15.7247,4.8044 15.2867,3.6064 14.3627,3.3004 C14.2177,3.2524 14.0677,3.2294 13.9177,3.2294 M13.4007,8.5594 C13.1537,8.5594 12.9067,8.5214 12.6647,8.4414 C11.2427,7.9704 10.5347,6.2324 11.0847,4.5664 C11.6357,2.9014 13.2367,1.9254 14.6627,2.3964 C16.0847,2.8674 16.7937,4.6054 16.2417,6.2714 C15.7857,7.6534 14.6027,8.5594 13.4007,8.5594" id="Fill-15" fill="#000000"></path>
            <path d="M19.1131,10.954 C18.4881,11.854 17.3771,12.166 16.6321,11.649 C15.8851,11.132 15.7871,9.982 16.4121,9.081 C17.0371,8.181 18.1481,7.869 18.8931,8.386 C19.6391,8.903 19.7371,10.053 19.1131,10.954" id="Fill-17" fill="#009587"></path>
            <g id="Group-21" transform="translate(15.000000, 7.195200)">
                <mask id="mask-6" fill="white">
                    <use xlink:href="#path-5"></use>
                </mask>
                <g id="Clip-20"></g>
                <path d="M3.0701,1.4151 C2.6231,1.4151 2.1321,1.6841 1.8031,2.1561 C1.5641,2.5021 1.4511,2.8981 1.4821,3.2731 C1.5101,3.6151 1.6611,3.8941 1.9021,4.0621 C2.1431,4.2301 2.4581,4.2731 2.7891,4.1801 C3.1501,4.0781 3.4821,3.8311 3.7201,3.4871 L3.7201,3.4861 C3.9611,3.1431 4.0741,2.7451 4.0431,2.3701 C4.0131,2.0291 3.8641,1.7491 3.6221,1.5821 C3.4601,1.4681 3.2681,1.4151 3.0701,1.4151 M2.4481,5.1811 C2.0541,5.1811 1.6801,5.0671 1.3591,4.8451 C0.8811,4.5131 0.5871,3.9831 0.5341,3.3541 C0.4821,2.7591 0.6561,2.1421 1.0211,1.6141 C1.7941,0.4991 3.2071,0.1341 4.1651,0.7991 C4.6441,1.1321 4.9381,1.6611 4.9911,2.2901 C5.0431,2.8861 4.8691,3.5031 4.5041,4.0281 C4.1391,4.5561 3.6211,4.9351 3.0461,5.0971 C2.8441,5.1531 2.6431,5.1811 2.4481,5.1811" id="Fill-19" fill="#000000" mask="url(#mask-6)"></path>
            </g>
        </g>
    </g>
</svg>