<?xml version="1.0" encoding="UTF-8"?>
<svg width="16px" height="16px" viewBox="0 0 16 16" version="1.1" xmlns="http://www.w3.org/2000/svg" xmlns:xlink="http://www.w3.org/1999/xlink">
    <!-- Generator: Sketch 52.2 (67145) - http://www.bohemiancoding.com/sketch -->
    <title>icon/phone</title>
    <desc>Created with Sketch.</desc>
    <g id="icon/phone" stroke="none" stroke-width="1" fill="none" fill-rule="evenodd" stroke-linecap="round" stroke-linejoin="round">
        <g id="Page-1" transform="translate(2.000000, 2.000000)" stroke="#3E3E3E">
            <g id="Group">
                <path d="M4.03475174,4.61034753 C4.00956632,4.46063417 4.06833231,4.30765603 4.17746915,4.20225036 C4.32065296,4.06373053 4.4577736,3.9233451 4.59256227,3.78669085 C4.66392097,3.71579854 4.73527968,3.64164146 4.80663838,3.57028275 C5.34252826,3.03439287 5.34252826,2.3399281 4.80663838,1.80403822 L4.11030802,1.10724146 C4.03102057,1.02795401 3.94940113,0.946800972 3.87244567,0.864715142 C3.71946753,0.70660664 3.55856065,0.543367773 3.3929898,0.390389636 L3.36127482,0.357275466 C3.0329315,0.0149402429 2.5003064,-0.0261026721 2.12299142,0.261197733 L0.797491822,1.27048032 C0.470547692,1.59742445 0.284455385,1.99572729 0.243878866,2.45746008 C0.182314494,3.20229571 0.401987368,3.89676049 0.570356599,4.35103093 C0.98358413,5.46618559 1.60155984,6.49972081 2.52269344,7.60741312 C3.64064648,8.94224065 4.98526834,9.99583093 6.52204567,10.738801 C7.10877279,11.0167734 7.89231935,11.3460496 8.76727968,11.4024836 C8.8209153,11.4048155 8.87734931,11.4071475 8.92818656,11.4071475 C9.51771206,11.4071475 10.0130254,11.1954034 10.4006011,10.7742471 L11.3758368,9.6264447 C11.6845914,9.26312162 11.6696667,8.72583255 11.3413234,8.38023255 L11.1818157,8.21232972 L9.78075984,6.80614348 C9.53310316,6.54822607 9.23460923,6.41017263 8.91792583,6.41017263 C8.60404081,6.41017263 8.3032149,6.54542769 8.04529749,6.8033451 L7.39280842,7.45396858 C7.28926834,7.55750866 7.14468534,7.60508113 6.99916955,7.58595887 C6.32569263,7.49547789 4.43631935,7.02721555 4.03475174,4.61034753 Z" id="Stroke-5"></path>
                <path d="M4.17732923,4.20225036 L1.41392842,0.801285182" id="Stroke-11"></path>
                <path d="M7.3929017,7.45382866 L10.6823981,10.4434319" id="Stroke-13"></path>
            </g>
        </g>
    </g>
</svg>