<?xml version="1.0" encoding="UTF-8"?>
<svg width="18px" height="18px" viewBox="0 0 18 18" version="1.1" xmlns="http://www.w3.org/2000/svg" xmlns:xlink="http://www.w3.org/1999/xlink">
    <!-- Generator: Sketch 45.1 (43504) - http://www.bohemiancoding.com/sketch -->
    <title>Phone_icon</title>
    <desc>Created with Sketch.</desc>
    <defs/>
    <g id="Page-1" stroke="none" stroke-width="1" fill="none" fill-rule="evenodd" stroke-linecap="round">
        <g id="HomePage" transform="translate(-977.000000, -8015.000000)" stroke="#FFFFFF">
            <g id="Footer" transform="translate(0.000000, 7982.000000)">
                <g id="Offers-Copy" transform="translate(976.000000, 32.000000)">
                    <g id="Phone_icon">
                        <g id="Page-1" transform="translate(2.000000, 2.000000)">
                            <path d="M5.32363077,6.91643077 C5.2904,6.71889231 5.36793846,6.51704615 5.51193846,6.37796923 C5.70086154,6.1952 5.88178462,6.00996923 6.05963077,5.82966154 C6.15378462,5.73612308 6.24793846,5.63827692 6.34209231,5.54412308 C7.04916923,4.83704615 7.04916923,3.92073846 6.34209231,3.21366154 L5.42332308,2.29427692 C5.31870769,2.18966154 5.21101538,2.08258462 5.10947692,1.97427692 C4.90763077,1.76566154 4.69532308,1.55027692 4.47686154,1.34843077 L4.43501538,1.30473846 C4.00178462,0.853046154 3.29901538,0.798892308 2.80116923,1.17796923 L1.05224615,2.50966154 C0.620861538,2.94104615 0.375323077,3.46658462 0.321784615,4.07581538 C0.240553846,5.05858462 0.5304,5.97489231 0.752553846,6.57427692 C1.29778462,8.04566154 2.11316923,9.40935385 3.32855385,10.8708923 C4.80363077,12.6321231 6.57778462,14.0222769 8.60547692,15.0025846 C9.37963077,15.3693538 10.4134769,15.8038154 11.5679385,15.8782769 C11.6387077,15.8813538 11.7131692,15.8844308 11.7802462,15.8844308 C12.5580923,15.8844308 13.2116308,15.6050462 13.7230154,15.0493538 L15.0097846,13.5348923 C15.4171692,13.0555077 15.3974769,12.3465846 14.9642462,11.8905846 L14.7537846,11.6690462 L12.9051692,9.81366154 C12.5784,9.47335385 12.1845538,9.2912 11.7667077,9.2912 C11.3525538,9.2912 10.9556308,9.46966154 10.6153231,9.80996923 L9.7544,10.6684308 C9.61778462,10.8050462 9.42701538,10.8678154 9.23501538,10.8425846 C8.3464,10.7232 5.85347692,10.1053538 5.32363077,6.91643077 Z" id="Stroke-5" stroke-linejoin="round"/>
                            <path d="M12.9723692,7.62467692 C12.9723692,7.62467692 12.5557538,3.57975385 8.55083077,3.20006154" id="Stroke-7"/>
                            <path d="M15.8614769,7.48676923 C15.8614769,7.48676923 15.6319385,1.53846154 8.67932308,0.307692308" id="Stroke-9"/>
                            <path d="M5.51175385,6.37796923 L1.8656,1.89058462" id="Stroke-11" stroke-linejoin="round"/>
                            <path d="M9.75452308,10.6682462 L14.0948308,14.6128615" id="Stroke-13" stroke-linejoin="round"/>
                        </g>
                    </g>
                </g>
            </g>
        </g>
    </g>
</svg>
