<svg xmlns="http://www.w3.org/2000/svg" viewBox="0 0 243.98 243.98"><defs/><title>Asset 2pinterest icon</title><g id="icon_pinterest"><g id="art"><path class="cls-1-pintrest" d="M122,0A122,122,0,0,0,77.54,235.63c-1.07-9.65-2-24.5.42-35,2.21-9.52,14.3-60.64,14.3-60.64a44,44,0,0,1-3.65-18.11c0-17,9.84-29.63,22.08-29.63,10.41,0,15.43,7.81,15.43,17.18,0,10.47-6.66,26.12-10.1,40.62-2.87,12.14,6.09,22,18.06,22,21.69,0,38.35-22.87,38.35-55.87,0-29.21-21-49.63-50.95-49.63-34.71,0-55.09,26-55.09,52.94,0,10.49,4,21.73,9.08,27.84a3.66,3.66,0,0,1,.85,3.5c-.93,3.86-3,12.14-3.39,13.84-.53,2.23-1.77,2.7-4.08,1.63C53.61,159.23,44.09,137,44.09,119.06c0-38.48,28-73.82,80.6-73.82,42.32,0,75.21,30.15,75.21,70.45,0,42.05-26.51,75.88-63.31,75.88-12.36,0-24-6.42-28-14,0,0-6.11,23.3-7.6,29-2.75,10.6-10.19,23.88-15.16,32A122,122,0,1,0,122,0Z" style="fill: #fff;"/></g></g></svg>
