<?xml version="1.0" encoding="UTF-8"?>
<svg width="24px" height="24px" viewBox="0 0 24 24" version="1.1" xmlns="http://www.w3.org/2000/svg" xmlns:xlink="http://www.w3.org/1999/xlink">
    <!-- Generator: Sketch 55.2 (78181) - https://sketchapp.com -->
    <title>mdpi/Group 5</title>
    <desc>Created with Sketch.</desc>
    <defs>
        <rect id="path-1" x="0" y="0" width="24" height="24"></rect>
    </defs>
    <g id="RLP-Mweb" stroke="none" stroke-width="1" fill="none" fill-rule="evenodd">
        <g id="Lead-created" transform="translate(-117.000000, -672.000000)">
            <g id="buttons/secondary/M/ghost" transform="translate(16.000000, 664.000000)">
                <g id="Group-6" transform="translate(101.000000, 8.000000)">
                    <g id="Group-7">
                        <g id="Group-5">
                            <mask id="mask-2" fill="white">
                                <use xlink:href="#path-1"></use>
                            </mask>
                            <use id="Mask" fill="#FFFFFF" xlink:href="#path-1"></use>
                            <g mask="url(#mask-2)">
                                <g transform="translate(3.000000, 3.000000)">
                                    <circle id="Oval" stroke="#2196F3" stroke-width="1" fill="none" cx="9.5" cy="9.5" r="9.5"></circle>
                                    <path d="M11.2543995,6.40703919 L15.7131252,13.5410003 C15.8009383,13.6815013 15.7582263,13.8665864 15.6177254,13.9543995 C15.5700459,13.9841992 15.5149516,14 15.4587257,14 L6.54127429,14 C6.37558887,14 6.24127429,13.8656854 6.24127429,13.7 C6.24127429,13.6437741 6.25707513,13.5886798 6.2868748,13.5410003 L10.7456005,6.40703919 C10.8334136,6.26653823 11.0184987,6.22382628 11.1589997,6.31163938 C11.1976304,6.33578359 11.2302553,6.36840845 11.2543995,6.40703919 Z" id="Triangle" stroke="none" fill="#2196F3" fill-rule="evenodd" transform="translate(11.000000, 10.000000) rotate(90.000000) translate(-11.000000, -10.000000) "></path>
                                </g>
                            </g>
                        </g>
                    </g>
                </g>
            </g>
        </g>
    </g>
</svg>