<?xml version="1.0" encoding="UTF-8"?>
<svg width="24px" height="24px" viewBox="0 0 24 24" version="1.1" xmlns="http://www.w3.org/2000/svg" xmlns:xlink="http://www.w3.org/1999/xlink">
    <!-- Generator: Sketch 52.2 (67145) - http://www.bohemiancoding.com/sketch -->
    <title>Icon/Pool</title>
    <desc>Created with Sketch.</desc>
    <defs>
        <polygon id="path-1" points="0 0.8569 21.9996 0.8569 21.9996 3.9999 0 3.9999"></polygon>
        <polygon id="path-3" points="0 0.353 21.9996 0.353 21.9996 3.496 0 3.496"></polygon>
        <polygon id="path-5" points="0 0.8481 21.9996 0.8481 21.9996 3.9911 0 3.9911"></polygon>
        <polygon id="path-7" points="0.1352 0.919 3.7372 0.919 3.7372 10.3349 0.1352 10.3349"></polygon>
        <polygon id="path-9" points="0.0952 0.919 3.6952 0.919 3.6952 9.5859 0.0952 9.5859"></polygon>
    </defs>
    <g id="Icon/Pool" stroke="none" stroke-width="1" fill="none" fill-rule="evenodd">
        <g id="Group-22" transform="translate(1.000000, 2.000000)">
            <g id="Group-3" transform="translate(0.000000, 16.081200)">
                <mask id="mask-2" fill="white">
                    <use xlink:href="#path-1"></use>
                </mask>
                <g id="Clip-2"></g>
                <path d="M21.4766,3.9999 C20.5326,3.9999 20.0646,3.2519 19.7236,2.7069 C19.3746,2.1489 19.1886,1.9049 18.8586,1.9049 C18.5316,1.9049 18.3446,2.1479 17.9976,2.7059 C17.6576,3.2519 17.1906,3.9999 16.2466,3.9999 C15.3006,3.9999 14.8336,3.2519 14.4946,2.7059 C14.1456,2.1489 13.9586,1.9049 13.6296,1.9049 C13.2996,1.9049 13.1136,2.1489 12.7646,2.7059 C12.4236,3.2519 11.9566,3.9999 11.0116,3.9999 C10.0666,3.9999 9.5986,3.2519 9.2576,2.7059 C8.9096,2.1489 8.7226,1.9049 8.3926,1.9049 C8.0626,1.9049 7.8756,2.1489 7.5266,2.7059 C7.1846,3.2519 6.7176,3.9999 5.7726,3.9999 C4.8276,3.9999 4.3586,3.2519 4.0166,2.7069 C3.6676,2.1489 3.4796,1.9049 3.1486,1.9049 C2.8166,1.9049 2.6286,2.1489 2.2806,2.7059 C1.9386,3.2519 1.4696,3.9999 0.5236,3.9999 C0.2346,3.9999 -0.0004,3.7659 -0.0004,3.4769 C-0.0004,3.1869 0.2346,2.9519 0.5236,2.9519 C0.8556,2.9519 1.0436,2.7079 1.3926,2.1499 C1.7346,1.6049 2.2036,0.8569 3.1486,0.8569 C4.0946,0.8569 4.5626,1.6049 4.9046,2.1509 C5.2536,2.7079 5.4406,2.9519 5.7726,2.9519 C6.1026,2.9519 6.2896,2.7079 6.6386,2.1499 C6.9806,1.6049 7.4476,0.8569 8.3926,0.8569 C9.3376,0.8569 9.8046,1.6049 10.1456,2.1509 C10.4946,2.7079 10.6806,2.9519 11.0116,2.9519 C11.3416,2.9519 11.5286,2.7079 11.8766,2.1509 C12.2176,1.6049 12.6846,0.8569 13.6296,0.8569 C14.5746,0.8569 15.0406,1.6049 15.3816,2.1509 C15.7296,2.7079 15.9166,2.9519 16.2466,2.9519 C16.5746,2.9519 16.7606,2.7079 17.1086,2.1509 C17.4486,1.6049 17.9146,0.8569 18.8586,0.8569 C19.8036,0.8569 20.2716,1.6049 20.6116,2.1509 C20.9596,2.7079 21.1466,2.9519 21.4766,2.9519 C21.7656,2.9519 21.9996,3.1869 21.9996,3.4769 C21.9996,3.7659 21.7656,3.9999 21.4766,3.9999" id="Fill-1" fill="#000000" mask="url(#mask-2)"></path>
            </g>
            <g id="Group-6" transform="translate(0.000000, 13.081200)">
                <mask id="mask-4" fill="white">
                    <use xlink:href="#path-3"></use>
                </mask>
                <g id="Clip-5"></g>
                <path d="M21.4766,3.496 C20.5326,3.496 20.0646,2.748 19.7236,2.203 C19.3746,1.645 19.1886,1.4 18.8586,1.4 C18.5316,1.4 18.3446,1.644 17.9976,2.202 C17.6576,2.748 17.1906,3.496 16.2466,3.496 C15.3006,3.496 14.8336,2.748 14.4946,2.202 C14.1456,1.645 13.9586,1.4 13.6296,1.4 C13.2996,1.4 13.1136,1.645 12.7646,2.202 C12.4236,2.748 11.9566,3.496 11.0116,3.496 C10.0666,3.496 9.5986,2.748 9.2576,2.202 C8.9096,1.645 8.7226,1.4 8.3926,1.4 C8.0626,1.4 7.8756,1.645 7.5266,2.202 C7.1846,2.748 6.7176,3.496 5.7726,3.496 C4.8276,3.496 4.3586,2.748 4.0166,2.203 C3.6676,1.645 3.4796,1.4 3.1486,1.4 C2.8166,1.4 2.6286,1.645 2.2806,2.202 C1.9386,2.748 1.4696,3.496 0.5236,3.496 C0.2346,3.496 -0.0004,3.262 -0.0004,2.973 C-0.0004,2.683 0.2346,2.448 0.5236,2.448 C0.8556,2.448 1.0436,2.204 1.3926,1.646 C1.7346,1.1 2.2036,0.353 3.1486,0.353 C4.0946,0.353 4.5626,1.1 4.9046,1.647 C5.2536,2.204 5.4406,2.448 5.7726,2.448 C6.1026,2.448 6.2896,2.204 6.6386,1.646 C6.9806,1.1 7.4476,0.353 8.3926,0.353 C9.3376,0.353 9.8046,1.1 10.1456,1.647 C10.4946,2.204 10.6806,2.448 11.0116,2.448 C11.3416,2.448 11.5286,2.204 11.8766,1.647 C12.2176,1.1 12.6846,0.353 13.6296,0.353 C14.5746,0.353 15.0406,1.1 15.3816,1.647 C15.7296,2.204 15.9166,2.448 16.2466,2.448 C16.5746,2.448 16.7606,2.204 17.1086,1.647 C17.4486,1.1 17.9146,0.353 18.8586,0.353 C19.8036,0.353 20.2716,1.1 20.6116,1.647 C20.9596,2.204 21.1466,2.448 21.4766,2.448 C21.7656,2.448 21.9996,2.683 21.9996,2.973 C21.9996,3.262 21.7656,3.496 21.4766,3.496" id="Fill-4" fill="#000000" mask="url(#mask-4)"></path>
            </g>
            <g id="Group-9" transform="translate(0.000000, 9.081200)">
                <mask id="mask-6" fill="white">
                    <use xlink:href="#path-5"></use>
                </mask>
                <g id="Clip-8"></g>
                <path d="M21.4766,3.9911 C20.5326,3.9911 20.0646,3.2431 19.7236,2.6981 C19.3746,2.1401 19.1886,1.8951 18.8586,1.8951 C18.5316,1.8951 18.3446,2.1391 17.9976,2.6971 C17.6576,3.2431 17.1906,3.9911 16.2466,3.9911 C15.3006,3.9911 14.8336,3.2431 14.4946,2.6971 C14.1456,2.1401 13.9586,1.8951 13.6296,1.8951 C13.2996,1.8951 13.1136,2.1401 12.7646,2.6971 C12.4236,3.2431 11.9566,3.9911 11.0116,3.9911 C10.0666,3.9911 9.5986,3.2431 9.2576,2.6971 C8.9096,2.1401 8.7226,1.8951 8.3926,1.8951 C8.0626,1.8951 7.8756,2.1401 7.5266,2.6971 C7.1846,3.2431 6.7176,3.9911 5.7726,3.9911 C4.8276,3.9911 4.3586,3.2431 4.0166,2.6981 C3.6676,2.1401 3.4796,1.8951 3.1486,1.8951 C2.8166,1.8951 2.6286,2.1401 2.2806,2.6971 C1.9386,3.2431 1.4696,3.9911 0.5236,3.9911 C0.2346,3.9911 -0.0004,3.7571 -0.0004,3.4671 C-0.0004,3.1781 0.2346,2.9431 0.5236,2.9431 C0.8556,2.9431 1.0436,2.6991 1.3926,2.1411 C1.7346,1.5951 2.2036,0.8481 3.1486,0.8481 C4.0946,0.8481 4.5626,1.5951 4.9046,2.1421 C5.2536,2.6991 5.4406,2.9431 5.7726,2.9431 C6.1026,2.9431 6.2896,2.6991 6.6386,2.1411 C6.9806,1.5951 7.4476,0.8481 8.3926,0.8481 C9.3376,0.8481 9.8046,1.5951 10.1456,2.1421 C10.4946,2.6991 10.6806,2.9431 11.0116,2.9431 C11.3416,2.9431 11.5286,2.6991 11.8766,2.1421 C12.2176,1.5951 12.6846,0.8481 13.6296,0.8481 C14.5746,0.8481 15.0406,1.5951 15.3816,2.1421 C15.7296,2.6991 15.9166,2.9431 16.2466,2.9431 C16.5746,2.9431 16.7606,2.6991 17.1086,2.1421 C17.4486,1.5951 17.9146,0.8481 18.8586,0.8481 C19.8036,0.8481 20.2716,1.5951 20.6116,2.1421 C20.9596,2.6991 21.1466,2.9431 21.4766,2.9431 C21.7656,2.9431 21.9996,3.1781 21.9996,3.4671 C21.9996,3.7571 21.7656,3.9911 21.4766,3.9911" id="Fill-7" fill="#000000" mask="url(#mask-6)"></path>
            </g>
            <path d="M7.1514,4.9102 C7.1514,5.8532 6.3874,6.6172 5.4444,6.6172 C4.5024,6.6172 3.7374,5.8532 3.7374,4.9102 C3.7374,3.9682 4.5024,3.2032 5.4444,3.2032 C6.3874,3.2032 7.1514,3.9682 7.1514,4.9102" id="Fill-10" fill="#009688"></path>
            <g id="Group-14" transform="translate(11.000000, 0.081200)">
                <mask id="mask-8" fill="white">
                    <use xlink:href="#path-7"></use>
                </mask>
                <g id="Clip-13"></g>
                <path d="M0.6592,10.3349 C0.3692,10.3349 0.1352,10.1009 0.1352,9.8119 L0.1352,2.7119 C0.1352,1.7229 0.9432,0.9189 1.9352,0.9189 C2.9292,0.9189 3.7372,1.7229 3.7372,2.7119 L3.7372,3.1359 C3.7372,3.4259 3.5032,3.6589 3.2142,3.6589 C2.9242,3.6589 2.6892,3.4259 2.6892,3.1359 L2.6892,2.7119 C2.6892,2.3009 2.3502,1.9669 1.9352,1.9669 C1.5202,1.9669 1.1822,2.3009 1.1822,2.7119 L1.1822,9.8119 C1.1822,10.1009 0.9482,10.3349 0.6592,10.3349" id="Fill-12" fill="#000000" mask="url(#mask-8)"></path>
            </g>
            <g id="Group-17" transform="translate(17.000000, 0.081200)">
                <mask id="mask-10" fill="white">
                    <use xlink:href="#path-9"></use>
                </mask>
                <g id="Clip-16"></g>
                <path d="M0.6182,9.5859 C0.3292,9.5859 0.0952,9.3519 0.0952,9.0629 L0.0952,2.7119 C0.0952,1.7229 0.9022,0.9189 1.8942,0.9189 C2.8882,0.9189 3.6952,1.7229 3.6952,2.7119 L3.6952,3.1359 C3.6952,3.4259 3.4612,3.6589 3.1722,3.6589 C2.8822,3.6589 2.6482,3.4259 2.6482,3.1359 L2.6482,2.7119 C2.6482,2.3009 2.3102,1.9669 1.8942,1.9669 C1.4792,1.9669 1.1412,2.3009 1.1412,2.7119 L1.1412,9.0629 C1.1412,9.3519 0.9082,9.5859 0.6182,9.5859" id="Fill-15" fill="#000000" mask="url(#mask-10)"></path>
            </g>
            <path d="M17.6182,5.4337 L11.6592,5.4337 C11.3692,5.4337 11.1352,5.1997 11.1352,4.9107 C11.1352,4.6207 11.3692,4.3867 11.6592,4.3867 L17.6182,4.3867 C17.9082,4.3867 18.1412,4.6207 18.1412,4.9107 C18.1412,5.1997 17.9082,5.4337 17.6182,5.4337" id="Fill-18" fill="#000000"></path>
            <path d="M17.6182,7.9747 L11.6592,7.9747 C11.3692,7.9747 11.1352,7.7407 11.1352,7.4507 C11.1352,7.1617 11.3692,6.9267 11.6592,6.9267 L17.6182,6.9267 C17.9082,6.9267 18.1412,7.1617 18.1412,7.4507 C18.1412,7.7407 17.9082,7.9747 17.6182,7.9747" id="Fill-20" fill="#000000"></path>
        </g>
    </g>
</svg>