<?xml version="1.0" encoding="UTF-8"?>
<svg width="24px" height="24px" viewBox="0 0 24 24" version="1.1" xmlns="http://www.w3.org/2000/svg" xmlns:xlink="http://www.w3.org/1999/xlink">
    <!-- Generator: Sketch 57.1 (83088) - https://sketch.com -->
    <title>price</title>
    <desc>Created with Sketch.</desc>
    <g id="price" stroke="none" stroke-width="1" fill="none" fill-rule="evenodd">
        <g id="Icon/Request-Quote" transform="translate(4.000000, 1.000000)">
            <path d="M14.1622,22.5002 L2.5002,22.5002 C1.3952,22.5002 0.5002,21.6042 0.5002,20.5002 L0.5002,2.5002 C0.5002,1.3952 1.3952,0.5002 2.5002,0.5002 L14.1622,0.5002 C15.2662,0.5002 16.1622,1.3952 16.1622,2.5002 L16.1622,20.5002 C16.1622,21.6042 15.2662,22.5002 14.1622,22.5002 Z" id="Stroke-1" stroke="#000000" stroke-linecap="round" stroke-linejoin="round"></path>
            <path d="M8.3175,14.2971 C8.1685,14.2971 8.0275,14.2311 7.9325,14.1161 C6.6975,12.6281 5.5555,11.2691 4.0945,9.7141 C4.0065,9.6211 3.9585,9.4991 3.9585,9.3711 L3.9585,8.3951 C3.9585,8.1181 4.1825,7.8951 4.4585,7.8951 L5.3245,7.8951 C5.9625,7.8951 6.9635,7.7781 7.3755,7.0991 L4.4585,7.0991 C4.1825,7.0991 3.9585,6.8751 3.9585,6.5991 L3.9585,5.8111 C3.9585,5.5351 4.1825,5.3111 4.4585,5.3111 L7.1215,5.3111 C6.8495,5.1091 6.3845,4.9411 5.5765,4.9411 L4.4585,4.9411 C4.1825,4.9411 3.9585,4.7171 3.9585,4.4411 L3.9585,3.4171 C3.9585,3.1411 4.1825,2.9171 4.4585,2.9171 L11.0895,2.9171 C11.3665,2.9171 11.5895,3.1411 11.5895,3.4171 L11.5895,4.2051 C11.5895,4.4811 11.3665,4.7051 11.0895,4.7051 L9.5475,4.7051 C9.6475,4.8931 9.7255,5.0961 9.7835,5.3111 L11.0895,5.3111 C11.3665,5.3111 11.5895,5.5351 11.5895,5.8111 L11.5895,6.5991 C11.5895,6.8751 11.3665,7.0991 11.0895,7.0991 L9.8135,7.0991 C9.5125,8.4261 8.4835,9.3521 6.9795,9.6721 C8.0395,10.8331 9.1535,12.1771 10.2175,13.4811 C10.3385,13.6301 10.3645,13.8371 10.2815,14.0111 C10.1985,14.1861 10.0225,14.2971 9.8295,14.2971 L8.3175,14.2971 Z" id="Fill-3" fill="#009688"></path>
            <path d="M11.09,2.4172 L4.459,2.4172 C3.906,2.4172 3.459,2.8652 3.459,3.4172 L3.459,4.4412 C3.459,4.7062 3.562,4.9472 3.73,5.1262 C3.562,5.3052 3.459,5.5462 3.459,5.8112 L3.459,6.5992 C3.459,6.9932 3.687,7.3342 4.018,7.4972 C3.687,7.6602 3.459,8.0002 3.459,8.3952 L3.459,9.3712 C3.459,9.6252 3.556,9.8712 3.73,10.0562 C5.18,11.5992 6.317,12.9522 7.548,14.4362 C7.738,14.6652 8.02,14.7972 8.318,14.7972 L9.83,14.7972 C10.216,14.7972 10.568,14.5752 10.733,14.2262 C10.899,13.8772 10.849,13.4642 10.605,13.1652 C9.714,12.0732 8.786,10.9512 7.882,9.9292 C9.021,9.4922 9.832,8.6822 10.194,7.5992 L11.09,7.5992 C11.642,7.5992 12.09,7.1512 12.09,6.5992 L12.09,5.8112 C12.09,5.4822 11.931,5.1902 11.686,5.0082 C11.931,4.8262 12.09,4.5342 12.09,4.2052 L12.09,3.4172 C12.09,2.8652 11.642,2.4172 11.09,2.4172 M11.09,3.4172 L11.09,4.2052 L8.491,4.2052 C8.948,4.5662 9.278,5.0862 9.373,5.8112 L11.09,5.8112 L11.09,6.5992 L9.389,6.5992 C9.231,8.2052 7.955,9.2292 5.939,9.2922 C7.168,10.5682 8.507,12.1742 9.83,13.7972 L8.318,13.7972 C7.089,12.3162 5.939,10.9462 4.459,9.3712 L4.459,8.3952 L5.325,8.3952 C7.026,8.3952 7.94,7.6862 8.05,6.5992 L4.459,6.5992 L4.459,5.8112 L8.003,5.8112 C7.782,4.8972 6.947,4.4412 5.577,4.4412 L4.459,4.4412 L4.459,3.4172 L11.09,3.4172" id="Fill-5" fill="#000000"></path>
            <path d="M12.8556,16.2741 L2.6926,16.2741" id="Stroke-7" stroke="#009688" stroke-linecap="round" stroke-linejoin="round"></path>
            <path d="M9.193,19.4367 L2.693,19.4367" id="Stroke-9" stroke="#009688" stroke-linecap="round" stroke-linejoin="round"></path>
        </g>
    </g>
</svg>