<svg xmlns="http://www.w3.org/2000/svg" viewBox="0 0 29.41 29.41"><defs/><title>Price_icon</title><g id="Layer_2"><g id="Price"><path class="cls-priceicon1" d="M12.4,28.32,1.09,17a2,2,0,0,1,0-2.83l12.8-12.8A3,3,0,0,1,16.53.55L24.94,2a3,3,0,0,1,2.43,2.43l1.48,8.41A3,3,0,0,1,28,15.52l-12.8,12.8A2,2,0,0,1,12.4,28.32Z" style="fill: none; stroke: #000; stroke-linecap: round; stroke-linejoin: round;"/><path class="cls-priceicon2" d="M17.06,12.25H13.84a2.93,2.93,0,0,1,1.09,2h2.13v1H15c-.2,2-1.78,3.26-4.28,3.34,1.52,1.58,3.18,3.57,4.83,5.59H13.62c-1.52-1.84-2.95-3.54-4.79-5.49V17.45H9.91c2.11,0,3.24-.88,3.38-2.23H8.84v-1h4.4c-.27-1.13-1.31-1.7-3-1.7H8.84V11.28h8.22Z" style="fill: #009688;"/><circle class="cls-priceicon1" cx="23.02" cy="6.38" r="1.84" transform="translate(2.23 18.15) rotate(-45)" style="fill: none; stroke: #000; stroke-linecap: round; stroke-linejoin: round;"/></g></g></svg>
