<?xml version="1.0" encoding="UTF-8"?>
<svg width="24px" height="24px" viewBox="0 0 24 24" version="1.1" xmlns="http://www.w3.org/2000/svg" xmlns:xlink="http://www.w3.org/1999/xlink">
    <!-- Generator: Sketch 58 (84663) - https://sketch.com -->
    <title>Group 10</title>
    <desc>Created with Sketch.</desc>
    <defs>
        <polygon id="path-1" points="0.22 0.7002 15.78 0.7002 15.78 9 0.22 9"></polygon>
    </defs>
    <g id="Group-10" stroke="none" stroke-width="1" fill="none" fill-rule="evenodd">
        <g transform="translate(2.000000, 2.000000)">
            <path d="M10,0 C4.48,0 0,4.48 0,10 C0,12.38 0.83,14.56 2.22,16.28 C4.05,18.55 6.86,20 10,20 C13.14,20 15.95,18.55 17.78,16.28 C19.17,14.56 20,12.38 20,10 C20,4.48 15.52,0 10,0 M10,1 C14.963,1 19,5.038 19,10 C19,12.08 18.31,14.034 17.002,15.652 C15.286,17.78 12.734,19 10,19 C7.266,19 4.713,17.78 2.998,15.651 C1.691,14.034 1,12.08 1,10 C1,5.038 5.038,1 10,1" id="Fill-1" fill="#000000"></path>
            <path d="M10,3.7871 C8.226,3.7871 6.787,5.2251 6.787,7.0001 C6.787,8.7741 8.226,10.2131 10,10.2131 C11.774,10.2131 13.213,8.7741 13.213,7.0001 C13.213,5.2251 11.774,3.7871 10,3.7871 M10,4.7871 C11.22,4.7871 12.213,5.7801 12.213,7.0001 C12.213,8.2201 11.22,9.2131 10,9.2131 C8.78,9.2131 7.787,8.2201 7.787,7.0001 C7.787,5.7801 8.78,4.7871 10,4.7871" id="Fill-3" fill="#000000"></path>
            <path d="M10,19.5 C7.228,19.5 4.634,18.313 2.829,16.229 C4.352,13.735 7.069,12.2 10,12.2 C12.931,12.2 15.647,13.735 17.172,16.229 C15.366,18.313 12.771,19.5 10,19.5" id="Fill-5" fill="#009688"></path>
            <g id="Group-9" transform="translate(2.000000, 11.000000)">
                <mask id="mask-2" fill="white">
                    <use xlink:href="#path-1"></use>
                </mask>
                <g id="Clip-8"></g>
                <path d="M8,0.7002 C4.65,0.7002 1.74,2.5502 0.22,5.2802 C2.05,7.5502 4.86,9.0002 8,9.0002 C11.14,9.0002 13.95,7.5502 15.78,5.2802 C14.26,2.5502 11.35,0.7002 8,0.7002 M8,1.7002 C10.632,1.7002 13.081,3.0162 14.544,5.1782 C12.849,6.9792 10.501,8.0002 8,8.0002 C5.499,8.0002 3.151,6.9792 1.456,5.1782 C2.919,3.0162 5.368,1.7002 8,1.7002" id="Fill-7" fill="#000000" mask="url(#mask-2)"></path>
            </g>
        </g>
    </g>
</svg>