<?xml version="1.0" encoding="UTF-8"?>
<svg width="121px" height="81px" viewBox="0 0 121 81" version="1.1" xmlns="http://www.w3.org/2000/svg" xmlns:xlink="http://www.w3.org/1999/xlink">
    <!-- Generator: Sketch 55.2 (78181) - https://sketchapp.com -->
    <title>Customize 2-01</title>
    <desc>Created with Sketch.</desc>
    <g id="RLP-Mweb" stroke="none" stroke-width="1" fill="none" fill-rule="evenodd">
        <g id="Completely-filled-lead-form" transform="translate(-120.000000, -185.000000)">
            <g id="Customize-2-01" transform="translate(120.000000, 186.000000)">
                <g id="food_ticket" transform="translate(89.000000, 1.000000)">
                    <g id="Group">
                        <path d="M19.6,25.9 L1.3,21.9 C0.5,21.7 0.1,21 0.2,20.2 L4.2,1.9 C4.4,1.1 5.1,0.7 5.9,0.8 L24.2,4.8 C25,5 25.4,5.7 25.3,6.5 L21.3,24.8 C21.1,25.6 20.3,26 19.6,25.9" id="Fill-17" fill="#FFFFFF"></path>
                        <g>
                            <path d="M19.6,25.9 L1.3,21.9 C0.5,21.7 0.1,21 0.2,20.2 L4.2,1.9 C4.4,1.1 5.1,0.7 5.9,0.8 L24.2,4.8 C25,5 25.4,5.7 25.3,6.5 L21.3,24.8 C21.1,25.6 20.3,26 19.6,25.9 Z" id="Stroke-19" stroke="#EDEDED" stroke-linecap="round"></path>
                            <path d="M4.5,17.7 L18.3,20.7" id="Stroke-21" stroke="#EDEDED" stroke-width="0.8751" stroke-linecap="round" stroke-linejoin="round"></path>
                            <path d="M6.4,16.4 C6.1,16.3 5.9,16 6,15.7 C6.9,12.8 10,11 13.1,11.6 C16.2,12.3 18.2,15.1 17.8,18.2 C17.8,18.5 17.5,18.7 17.2,18.7 L6.4,16.4 Z" id="Stroke-23" stroke="#EDEDED" stroke-width="0.8751" stroke-linecap="round" stroke-linejoin="round"></path>
                            <path d="M14.4,10.2 C14.3,10.7 13.8,11 13.4,10.9 C12.9,10.8 12.6,10.3 12.7,9.9 C12.8,9.4 13.3,9.1 13.7,9.2 C14.2,9.3 14.5,9.8 14.4,10.2" id="Fill-25" fill="#EDEDED"></path>
                        </g>
                    </g>
                </g>
                <g id="air_ticket" transform="translate(94.000000, 19.000000)">
                    <g id="Group">
                        <path d="M24.7,21.4 L6.3,25.2 C5.5,25.4 4.8,24.9 4.6,24.1 L0.8,5.8 C0.6,5 1.1,4.3 1.9,4.1 L20.3,0.3 C21.1,0.1 21.8,0.6 22,1.4 L25.8,19.7 C26,20.5 25.5,21.3 24.7,21.4" id="Fill-27" fill="#FFFFFF"></path>
                        <path d="M14.6,13.1 L18.5,18.2 L19.4,16.8 C19.6,16.4 19.6,16 19.4,15.6 L16.1,10.9 L17.7,8.6 C18.1,8.1 18.2,7.4 18,6.8 C17.8,6.1 17.1,5.8 16.5,5.9 L16.5,5.9 C15.9,6 15.4,6.4 15.1,6.9 L13.7,9.3 L8.1,8.2 C7.7,8.1 7.2,8.3 7,8.7 L6.1,10.1 L12.3,11.6 L11.8,12.6 L10,15.6 L7.7,15.1 C7.5,15.1 7.3,15.1 7.2,15.3 L6.9,15.8 L9.3,17.1 C9.2,17.5 9.4,17.9 9.8,18.2 C10.2,18.4 10.6,18.4 11,18.2 L13.2,19.9 L13.5,19.4 C13.6,19.2 13.6,19 13.5,18.8 L12.1,16.8 L14.6,13.1 Z" id="Fill-31" fill="#FFFFFF"></path>
                        <path d="M9.6,18.1 C9.1,17.8 8.9,17.1 9.3,16.6 L15.1,6.9 C15.4,6.4 15.9,6 16.5,5.9 L16.5,5.9 C17.2,5.7 17.9,6.2 18.1,6.9 C18.2,7.5 18.1,8.1 17.7,8.6 L11.1,17.8 C10.8,18.3 10.1,18.4 9.6,18.1" id="Fill-35" fill="#FFFFFF"></path>
                        <g stroke="#EDEDED" stroke-linecap="round" stroke-width="0.8751">
                            <path d="M24.7,21.4 L6.3,25.2 C5.5,25.4 4.8,24.9 4.6,24.1 L0.8,5.8 C0.6,5 1.1,4.3 1.9,4.1 L20.3,0.3 C21.1,0.1 21.8,0.6 22,1.4 L25.8,19.7 C26,20.5 25.5,21.3 24.7,21.4 Z" id="Stroke-29"></path>
                            <path d="M14.6,13.1 L18.5,18.2 L19.4,16.8 C19.6,16.4 19.6,16 19.4,15.6 L16.1,10.9 L17.7,8.6 C18.1,8.1 18.2,7.4 18,6.8 C17.8,6.1 17.1,5.8 16.5,5.9 L16.5,5.9 C15.9,6 15.4,6.4 15.1,6.9 L13.7,9.3 L8.1,8.2 C7.7,8.1 7.2,8.3 7,8.7 L6.1,10.1 L12.3,11.6 L11.8,12.6 L10,15.6 L7.7,15.1 C7.5,15.1 7.3,15.1 7.2,15.3 L6.9,15.8 L9.3,17.1 C9.2,17.5 9.4,17.9 9.8,18.2 C10.2,18.4 10.6,18.4 11,18.2 L13.2,19.9 L13.5,19.4 C13.6,19.2 13.6,19 13.5,18.8 L12.1,16.8 L14.6,13.1 Z" id="Stroke-33"></path>
                            <path d="M9.6,18.1 C9.1,17.8 8.9,17.1 9.3,16.6 L15.1,6.9 C15.4,6.4 15.9,6 16.5,5.9 L16.5,5.9 C17.2,5.7 17.9,6.2 18.1,6.9 C18.2,7.5 18.1,8.1 17.7,8.6 L11.1,17.8 C10.8,18.3 10.1,18.4 9.6,18.1 Z" id="Stroke-37"></path>
                        </g>
                    </g>
                </g>
                <g id="main" transform="translate(29.000000, 0.000000)">
                    <g id="Group">
                        <path d="M59.4,69.3 L2.1,69.3 C1.3,69.3 0.7,68.7 0.7,67.9 L0.7,1.4 C0.7,0.6 1.3,0 2.1,0 L59.3,0 C60.1,0 60.7,0.6 60.7,1.4 L60.7,67.9 C60.8,68.7 60.2,69.3 59.4,69.3" id="Fill-39" fill="#FFFFFF"></path>
                        <path d="M59.4,69.3 L2.1,69.3 C1.3,69.3 0.7,68.7 0.7,67.9 L0.7,1.4 C0.7,0.6 1.3,0 2.1,0 L59.3,0 C60.1,0 60.7,0.6 60.7,1.4 L60.7,67.9 C60.8,68.7 60.2,69.3 59.4,69.3 Z" id="Stroke-41" stroke="#000000" stroke-linecap="round" stroke-linejoin="round"></path>
                        <path d="M34.1,10.8 L10.2,10.8 C8.8,10.8 7.6,9.6 7.6,8.2 C7.6,6.8 8.8,5.6 10.2,5.6 L34.1,5.6 C35.5,5.6 36.7,6.8 36.7,8.2 C36.7,9.6 35.6,10.8 34.1,10.8" id="Fill-83" fill="#EDEDED"></path>
                        <path d="M51.8,10.8 L43.4,10.8 C42,10.8 40.8,9.6 40.8,8.2 C40.8,6.8 42,5.6 43.4,5.6 L51.8,5.6 C53.2,5.6 54.4,6.8 54.4,8.2 C54.4,9.6 53.2,10.8 51.8,10.8" id="Fill-85" fill="#EDEDED"></path>
                    </g>
                </g>
                <g id="sightseen" transform="translate(0.000000, 7.000000)">
                    <g id="Group">
                        <path d="M31.2,25.3 L8.6,31.3 C7.9,31.5 7.1,31 6.9,30.3 L0.9,7.8 C0.7,7.1 1.2,6.3 1.9,6.1 L24.5,0.1 C25.2,-0.1 26,0.3 26.2,1.1 L32.2,23.6 C32.4,24.3 32,25.1 31.2,25.3" id="Fill-1" fill="#FFFFFF"></path>
                        <path d="M31.2,25.3 L8.6,31.3 C7.9,31.5 7.1,31 6.9,30.3 L0.9,7.8 C0.7,7.1 1.2,6.3 1.9,6.1 L24.5,0.1 C25.2,-0.1 26,0.3 26.2,1.1 L32.2,23.6 C32.4,24.3 32,25.1 31.2,25.3 Z" id="Stroke-3" stroke="#EDEDED" stroke-linecap="round"></path>
                        <path d="M27.4,18.6 C26.2,18.9 25.9,17.6 24.7,17.9 C23.5,18.2 23.9,19.6 22.8,19.9 C21.6,20.2 21.3,18.9 20.1,19.2 C18.9,19.5 19.3,20.9 18.2,21.2 C17,21.5 16.7,20.2 15.5,20.5 C14.3,20.8 14.7,22.2 13.6,22.5 C12.4,22.8 12.1,21.5 10.9,21.8 C9.7,22.1 10.1,23.5 8.9,23.8" id="Stroke-5" stroke="#EDEDED" stroke-width="0.8751" stroke-linecap="round" stroke-linejoin="round"></path>
                        <path d="M18.7,20.7 L16.7,13 C16.5,12.4 16.9,11.8 17.5,11.6 C18.1,11.4 18.8,11.8 18.9,12.4 L19,12.8" id="Stroke-7" stroke="#EDEDED" stroke-width="0.8751" stroke-linecap="round"></path>
                        <path d="M12.7,12.1 C13,13.3 12.3,14.6 11,15 C9.7,15.3 8.5,14.6 8.1,13.3 C7.7,12 8.5,10.8 9.8,10.4 C11.1,10.1 12.4,10.8 12.7,12.1 Z" id="Stroke-9" stroke="#EDEDED" stroke-width="0.8751" stroke-linecap="round"></path>
                        <path d="M23.7,18.6 L21.8,11.6 C21.6,11 22,10.4 22.6,10.2 C23.2,10 23.9,10.4 24,11 L24.1,11.4" id="Stroke-11" stroke="#EDEDED" stroke-width="0.8751" stroke-linecap="round"></path>
                        <path d="M17.1,14.8 L22.3,13.4" id="Stroke-13" stroke="#EDEDED" stroke-width="0.8751" stroke-linecap="round"></path>
                        <path d="M17.7,17.1 L22.9,15.7" id="Stroke-15" stroke="#EDEDED" stroke-width="0.8751" stroke-linecap="round"></path>
                    </g>
                </g>
                <g id="hotel" transform="translate(61.000000, 15.000000)">
                    <g id="Group">
                        <path d="M21,21.8 L2.2,21.8 C1.4,21.8 0.8,21.2 0.8,20.4 L0.8,1.7 C0.8,0.9 1.4,0.3 2.2,0.3 L21,0.3 C21.8,0.3 22.4,0.9 22.4,1.7 L22.4,20.4 C22.4,21.2 21.7,21.8 21,21.8" id="Fill-65" fill="#FFFFFF"></path>
                        <path d="M21,21.8 L2.2,21.8 C1.4,21.8 0.8,21.2 0.8,20.4 L0.8,1.7 C0.8,0.9 1.4,0.3 2.2,0.3 L21,0.3 C21.8,0.3 22.4,0.9 22.4,1.7 L22.4,20.4 C22.4,21.2 21.7,21.8 21,21.8 Z" id="Stroke-67" stroke="#000000" stroke-width="0.8751" stroke-linecap="round" stroke-linejoin="round"></path>
                        <path d="M17.3,18.1 L5.9,18.1" id="Stroke-113" stroke="#000000" stroke-width="0.8751" stroke-linecap="round" stroke-linejoin="round"></path>
                        <polygon id="Stroke-115" stroke="#000000" stroke-width="0.8751" stroke-linecap="round" stroke-linejoin="round" points="6.1 5.2 17.3 5.2 17.3 4.1 6.1 4.1"></polygon>
                        <polyline id="Stroke-117" stroke="#000000" stroke-width="0.8751" stroke-linecap="round" stroke-linejoin="round" points="6.6 18.1 6.6 5.2 16.7 5.2 16.7 18.1"></polyline>
                        <polygon id="Stroke-118" stroke="#000000" stroke-width="0.8751" stroke-linecap="round" stroke-linejoin="round" points="7.8 9.1 9.5 9.1 9.5 7.4 7.8 7.4"></polygon>
                        <polygon id="Stroke-119" stroke="#000000" stroke-width="0.8751" stroke-linecap="round" stroke-linejoin="round" points="13.9 9.1 15.6 9.1 15.6 7.4 13.9 7.4"></polygon>
                        <polygon id="Stroke-120" stroke="#000000" stroke-width="0.8751" stroke-linecap="round" stroke-linejoin="round" points="7.8 13.8 9.5 13.8 9.5 12.1 7.8 12.1"></polygon>
                        <polygon id="Stroke-121" stroke="#000000" stroke-width="0.8751" stroke-linecap="round" stroke-linejoin="round" points="13.9 13.8 15.6 13.8 15.6 12.1 13.9 12.1"></polygon>
                        <path d="M12.7,18.1 L10.5,18.1 L10.5,16 C10.5,15.4 11,14.9 11.6,14.9 C12.2,14.9 12.7,15.4 12.7,16 L12.7,18.1 L12.7,18.1 Z" id="Fill-122" fill="#009688"></path>
                        <path d="M12.7,18.1 L10.5,18.1 L10.5,16 C10.5,15.4 11,14.9 11.6,14.9 C12.2,14.9 12.7,15.4 12.7,16 L12.7,18.1 L12.7,18.1 Z" id="Stroke-123" stroke="#000000" stroke-width="0.8751" stroke-linecap="round" stroke-linejoin="round"></path>
                    </g>
                </g>
                <g id="bed" transform="translate(36.000000, 15.000000)">
                    <g id="Group">
                        <path d="M20.8,21.8 L2,21.8 C1.2,21.8 0.6,21.2 0.6,20.4 L0.6,1.7 C0.6,0.9 1.2,0.3 2,0.3 L20.7,0.3 C21.5,0.3 22.1,0.9 22.1,1.7 L22.1,20.4 C22.2,21.2 21.5,21.8 20.8,21.8" id="Fill-45" fill="#FFFFFF"></path>
                        <path d="M20.8,21.8 L2,21.8 C1.2,21.8 0.6,21.2 0.6,20.4 L0.6,1.7 C0.6,0.9 1.2,0.3 2,0.3 L20.7,0.3 C21.5,0.3 22.1,0.9 22.1,1.7 L22.1,20.4 C22.2,21.2 21.5,21.8 20.8,21.8 Z" id="Stroke-47" stroke="#000000" stroke-width="0.8751" stroke-linecap="round" stroke-linejoin="round"></path>
                        <path d="M13.6,8.8 L14.6,7.1" id="Stroke-49" stroke="#009688" stroke-width="0.8751" stroke-linecap="round" stroke-linejoin="round"></path>
                        <path d="M8.2,8.8 L9.2,7.1" id="Stroke-51" stroke="#009688" stroke-width="0.8751" stroke-linecap="round" stroke-linejoin="round"></path>
                        <path d="M5.8,8.8 L6.1,5.9 C6.2,5.3 6.7,4.9 7.3,4.9 L15.5,4.9 C16.1,4.9 16.6,5.3 16.7,5.9 L17,8.8" id="Stroke-53" stroke="#000000" stroke-width="0.8751"></path>
                        <path d="M17.8,15.1 L4.9,15.1 C4.6,15.1 4.3,14.9 4.3,14.5 L4.3,11.1 C4.3,10.5 4.6,9.8 5.1,9.4 L5.8,8.8 L17,8.8 L17.7,9.4 C18.2,9.8 18.4,10.4 18.4,11.1 L18.4,14.5 C18.4,14.8 18.2,15.1 17.8,15.1 Z" id="Stroke-55" stroke="#000000" stroke-width="0.8751" stroke-linecap="round" stroke-linejoin="round"></path>
                        <path d="M7.5,15.1 L7.5,16.3 C7.5,16.8 7.1,17.2 6.6,17.2 C6.1,17.2 5.7,16.8 5.7,16.3 L5.7,15.1" id="Stroke-57" stroke="#000000" stroke-width="0.8751"></path>
                        <path d="M16.8,15.1 L16.8,16.3 C16.8,16.8 16.4,17.2 15.9,17.2 C15.4,17.2 15,16.8 15,16.3 L15,15.1" id="Stroke-59" stroke="#000000" stroke-width="0.8751"></path>
                        <path d="M18.1,10.5 L4.7,10.5" id="Stroke-61" stroke="#000000" stroke-width="0.8751" stroke-linecap="round" stroke-linejoin="round"></path>
                        <path d="M13.9,13.8 L8.8,13.8 C8.2,13.8 7.7,13.3 7.7,12.7 C7.7,12.1 8.2,11.6 8.8,11.6 L13.9,11.6 C14.5,11.6 15,12.1 15,12.7 C15,13.3 14.5,13.8 13.9,13.8" id="Fill-63" fill="#009688"></path>
                    </g>
                </g>
                <g id="camera" transform="translate(36.000000, 40.000000)">
                    <g id="Group">
                        <path d="M20.8,22.4 L2,22.4 C1.2,22.4 0.6,21.8 0.6,21 L0.6,2.3 C0.6,1.5 1.2,0.9 2,0.9 L20.7,0.9 C21.5,0.9 22.1,1.5 22.1,2.3 L22.1,21 C22.2,21.7 21.5,22.4 20.8,22.4" id="Fill-69" fill="#FFFFFF"></path>
                        <path d="M20.8,22.4 L2,22.4 C1.2,22.4 0.6,21.8 0.6,21 L0.6,2.3 C0.6,1.5 1.2,0.9 2,0.9 L20.7,0.9 C21.5,0.9 22.1,1.5 22.1,2.3 L22.1,21 C22.2,21.7 21.5,22.4 20.8,22.4 Z" id="Stroke-71" stroke="#000000" stroke-width="0.8751" stroke-linecap="round" stroke-linejoin="round"></path>
                        <path d="M17.2,7.9 L15,7.9 C14.8,7.9 14.6,7.8 14.5,7.5 C14.3,6.7 13.5,6.1 12.7,6.1 L10.1,6.1 C9.2,6.1 8.5,6.7 8.3,7.5 C8.2,7.7 8,7.9 7.8,7.9 L5.7,7.9 C5,7.9 4.5,8.5 4.5,9.1 L4.5,15.9 C4.5,16.6 5,17.1 5.7,17.1 L17.3,17.1 C18,17.1 18.5,16.5 18.5,15.9 L18.5,9.1 C18.4,8.4 17.9,7.9 17.2,7.9 Z" id="Stroke-124" stroke="#000000" stroke-width="0.8751"></path>
                        <path d="M11.4,14.1 C10.3,14.1 9.4,13.2 9.4,12.1 C9.4,11 10.3,10.1 11.4,10.1 C12.5,10.1 13.4,11 13.4,12.1 C13.3,13.2 12.5,14.1 11.4,14.1 M11.4,8.6 C9.5,8.6 8,10.2 8,12.1 C8,14 9.5,15.6 11.4,15.6 C13.3,15.6 14.8,14 14.8,12.1 C14.8,10.1 13.2,8.6 11.4,8.6" id="Fill-125" fill="#009688"></path>
                        <path d="M11.4,14.1 C10.3,14.1 9.4,13.2 9.4,12.1 C9.4,11 10.3,10.1 11.4,10.1 C12.5,10.1 13.4,11 13.4,12.1 C13.3,13.2 12.5,14.1 11.4,14.1 Z M11.4,8.6 C9.5,8.6 8,10.2 8,12.1 C8,14 9.5,15.6 11.4,15.6 C13.3,15.6 14.8,14 14.8,12.1 C14.8,10.1 13.2,8.6 11.4,8.6 Z" id="Stroke-126" stroke="#000000" stroke-width="0.8751" stroke-linecap="round" stroke-linejoin="round"></path>
                    </g>
                </g>
                <g id="outline" transform="translate(61.000000, 40.000000)" stroke="#EDEDED" stroke-dasharray="1.7502,3.5005" stroke-linecap="round" stroke-linejoin="round" stroke-width="0.8751">
                    <path d="M20.9,22.2 L2.2,22.2 C1.4,22.2 0.8,21.6 0.8,20.8 L0.8,2.1 C0.8,1.3 1.4,0.7 2.2,0.7 L20.9,0.7 C21.7,0.7 22.3,1.3 22.3,2.1 L22.3,20.8 C22.3,21.5 21.7,22.2 20.9,22.2 Z" id="Stroke-43"></path>
                </g>
                <g id="tickets" transform="translate(72.000000, 44.000000)">
                    <g id="Group">
                        <path d="M20.5,24.4 L2,21.6 C1.2,21.5 0.7,20.8 0.8,20 L3.6,1.5 C3.7,0.7 4.4,0.2 5.2,0.3 L23.7,3.1 C24.5,3.2 25,3.9 24.9,4.7 L22.1,23.2 C22,23.9 21.3,24.5 20.5,24.4" id="Fill-87" fill="#FFFFFF"></path>
                        <path d="M20.5,24.4 L2,21.6 C1.2,21.5 0.7,20.8 0.8,20 L3.6,1.5 C3.7,0.7 4.4,0.2 5.2,0.3 L23.7,3.1 C24.5,3.2 25,3.9 24.9,4.7 L22.1,23.2 C22,23.9 21.3,24.5 20.5,24.4 Z" id="Stroke-89" stroke="#000000" stroke-width="0.8751" stroke-linecap="round" stroke-linejoin="round"></path>
                        <path d="M6.2,11.1 L10.4,11.1 L10.4,17.5 L6.2,17.5 L6.2,16 C6.2,16 7.8,15.8 7.9,14.3 C8,12.8 6.2,12.6 6.2,12.6 L6.2,11.1 Z" id="Fill-91" fill="#009688"></path>
                        <polygon id="Fill-93" fill="#009688" points="10.2 10.3 6 10.6 5.8 9.2 10 8.6"></polygon>
                        <path d="M18.1,14.4 C18.1,13.5 18.9,12.7 19.8,12.7 L19.8,11.2 L6.2,11.2 L6.2,12.7 C7.1,12.7 7.9,13.5 7.9,14.4 C7.9,15.3 7.1,16.1 6.2,16.1 L6.2,17.6 L19.8,17.6 L19.8,16 C18.9,16 18.1,15.3 18.1,14.4 Z" id="Stroke-95" stroke="#000000" stroke-width="0.8751" stroke-linecap="round" stroke-linejoin="round"></path>
                        <path d="M10.4,11.1 L10.4,17.5" id="Stroke-97" stroke="#000000" stroke-width="0.8751" stroke-linecap="round" stroke-linejoin="round"></path>
                        <path d="M18.2,9.6 C18.4,9.1 18.9,8.8 19.5,8.7 L19.3,7.2 L5.8,9.2 L6,10.3" id="Stroke-99" stroke="#000000" stroke-width="0.8751" stroke-linecap="round" stroke-linejoin="round"></path>
                        <path d="M10,8.6 L10.2,9.9" id="Stroke-101" stroke="#000000" stroke-width="0.8751" stroke-linecap="round" stroke-linejoin="round"></path>
                    </g>
                </g>
                <g id="right_hand" transform="translate(85.000000, 48.000000)">
                    <g id="Group">
                        <g id="Group-106" transform="translate(0.742690, 0.780605)">
                            <path d="M26.2,22 L20.1,15.5 C19.9,15 19.7,14.5 19.4,14 C18.5,12.3 17.3,10.8 16.4,9.1 C15.7,7.4 15.8,5.6 15.6,3.8 C15.5,3 15.4,2.3 15.3,1.5 C15.2,1 14.9,0.8 14.3,0.8 C13.9,0.8 13.7,1 13.6,1.6 C13.6,1.8 13.6,2.1 13.6,2.3 C13.7,4 13.7,5.6 13.5,7.3 C13.5,7.4 13.4,7.6 13.3,7.7 C13,7.8 12.8,7.5 12.7,7.2 C11.8,4.9 10.7,2.7 9.6,0.6 C9.3,0.2 8.8,-1.38777878e-17 8.3,0.2 C7.9,0.5 7.7,1 7.9,1.4 C8.3,2.5 8.8,3.6 9.2,4.7 C9.6,5.8 10.1,7 10.3,8.1 C10.3,8.2 10.3,8.4 10.2,8.4 C10.1,8.4 10,8.3 9.9,8.2 C8.7,6.3 7.2,4.2 6.2,2 C6.1,1.8 6,1.5 5.9,1.2 C5.6,0.8 5,0.7 4.6,1 C4.2,1.4 4,1.8 4.2,2.3 C5.1,4.9 6.4,7.3 7.7,9.7 C7.8,9.9 7.9,10 7.8,10.2 C7.7,10.4 7.5,10.5 7.3,10.4 C7.1,10.4 7,10.3 6.8,10.1 C5.1,8.8 3.8,7 2.6,5.3 C2.1,4.6 1.6,4.5 1.1,5 C0.8,5.3 0.7,5.7 0.9,6.1 C1.7,7.9 2.7,9.5 4,11 C5.3,12.5 6.8,14 7.6,15.8 C7.8,16.3 8,16.9 8,17.4 C8,17.7 7.9,17.9 7.8,18.1 C7.6,18.4 7.2,18.5 6.9,18.5 C5.1,18.8 3.3,18.5 1.8,19.6 C1.3,19.9 1.1,20.4 1.1,21 C1.1,21.5 1.5,21.7 1.9,21.5 C3,21.1 4.2,21.2 5.3,21.3 C8.2,21.5 11.2,21.6 14.1,21.5 L19.9,28" id="Fill-103" fill="#FFFFFF"></path>
                            <path d="M26.2,22 L20.1,15.5 C19.9,15 19.7,14.5 19.4,14 C18.5,12.3 17.3,10.8 16.4,9.1 C15.7,7.4 15.8,5.6 15.6,3.8 C15.5,3 15.4,2.3 15.3,1.5 C15.2,1 14.9,0.8 14.3,0.8 C13.9,0.8 13.7,1 13.6,1.6 C13.6,1.8 13.6,2.1 13.6,2.3 C13.7,4 13.7,5.6 13.5,7.3 C13.5,7.4 13.4,7.6 13.3,7.7 C13,7.8 12.8,7.5 12.7,7.2 C11.8,4.9 10.7,2.7 9.6,0.6 C9.3,0.2 8.8,-1.38777878e-17 8.3,0.2 C7.9,0.5 7.7,1 7.9,1.4 C8.3,2.5 8.8,3.6 9.2,4.7 C9.6,5.8 10.1,7 10.3,8.1 C10.3,8.2 10.3,8.4 10.2,8.4 C10.1,8.4 10,8.3 9.9,8.2 C8.7,6.3 7.2,4.2 6.2,2 C6.1,1.8 6,1.5 5.9,1.2 C5.6,0.8 5,0.7 4.6,1 C4.2,1.4 4,1.8 4.2,2.3 C5.1,4.9 6.4,7.3 7.7,9.7 C7.8,9.9 7.9,10 7.8,10.2 C7.7,10.4 7.5,10.5 7.3,10.4 C7.1,10.4 7,10.3 6.8,10.1 C5.1,8.8 3.8,7 2.6,5.3 C2.1,4.6 1.6,4.5 1.1,5 C0.8,5.3 0.7,5.7 0.9,6.1 C1.7,7.9 2.7,9.5 4,11 C5.3,12.5 6.8,14 7.6,15.8 C7.8,16.3 8,16.9 8,17.4 C8,17.7 7.9,17.9 7.8,18.1 C7.6,18.4 7.2,18.5 6.9,18.5 C5.1,18.8 3.3,18.5 1.8,19.6 C1.3,19.9 1.1,20.4 1.1,21 C1.1,21.5 1.5,21.7 1.9,21.5 C3,21.1 4.2,21.2 5.3,21.3 C8.2,21.5 11.2,21.6 14.1,21.5 L19.9,28" id="Stroke-105" stroke="#000000" stroke-linecap="round" stroke-linejoin="round"></path>
                        </g>
                        <path d="M29,22.3 L24.7,17.9 C24.2,17.4 23.4,17.4 22.9,17.9 L16.3,24.3 C15.8,24.8 15.8,25.6 16.3,26.1 L20.6,30.5 C21.1,31 21.9,31 22.4,30.5 L29,24.1 C29.5,23.6 29.5,22.8 29,22.3" id="Fill-107" fill="#FFFFFF"></path>
                        <path d="M29,22.3 L24.7,17.9 C24.2,17.4 23.4,17.4 22.9,17.9 L16.3,24.3 C15.8,24.8 15.8,25.6 16.3,26.1 L20.6,30.5 C21.1,31 21.9,31 22.4,30.5 L29,24.1 C29.5,23.6 29.5,22.8 29,22.3 Z" id="Stroke-109" stroke="#000000" stroke-linecap="round" stroke-linejoin="round"></path>
                        <path d="M21.3,26.9 C21.8,26.5 21.9,25.8 21.5,25.3 C21.1,24.8 20.4,24.7 19.9,25.1 C19.4,25.5 19.3,26.2 19.7,26.7 C20,27.1 20.7,27.2 21.3,26.9" id="Fill-111" fill="#009486"></path>
                    </g>
                </g>
                <g id="left_hand" transform="translate(11.000000, 37.000000)">
                    <g id="Group">
                        <g id="Group-76" transform="translate(2.222222, 0.008675)">
                            <path d="M0.9,27.3 L4.5,19.8 C4.5,19.2 4.5,18.7 4.6,18.1 C5,16.2 5.6,14.4 5.8,12.5 C6,10.7 5.2,9 4.8,7.3 C4.6,6.5 4.5,5.8 4.3,5 C4.2,4.4 4.4,4.2 5,4 C5.4,3.9 5.7,4 6,4.5 C6.1,4.7 6.2,4.9 6.3,5.2 C6.8,6.8 7.3,8.4 8.1,9.8 C8.2,9.9 8.3,10.1 8.4,10.1 C8.7,10.1 8.8,9.8 8.8,9.5 C8.8,7.1 9.1,4.6 9.5,2.2 C9.6,1.7 10.1,1.4 10.5,1.4 C11,1.5 11.4,1.9 11.4,2.4 C11.4,3.6 11.3,4.8 11.3,6 C11.3,7.1 11.2,8.4 11.5,9.6 C11.5,9.7 11.6,9.9 11.7,9.8 C11.8,9.8 11.9,9.7 11.9,9.5 C12.3,7.2 13,4.8 13.2,2.4 C13.2,2.1 13.2,1.8 13.3,1.5 C13.4,1 14,0.7 14.5,0.9 C15,1.1 15.3,1.5 15.3,2 C15.3,4.8 14.9,7.4 14.5,10.1 C14.5,10.3 14.5,10.5 14.6,10.6 C14.7,10.7 15,10.7 15.1,10.7 C15.3,10.6 15.4,10.4 15.5,10.3 C16.7,8.5 17.3,6.4 17.9,4.3 C18.1,3.5 18.6,3.2 19.2,3.5 C19.6,3.7 19.8,4.1 19.8,4.5 C19.7,6.5 19.2,8.3 18.5,10.2 C17.8,12.1 16.9,13.9 16.7,16 C16.6,16.6 16.7,17.2 16.9,17.7 C17,17.9 17.1,18.2 17.3,18.3 C17.6,18.5 18,18.4 18.3,18.4 C20.1,18.1 21.7,17.2 23.5,17.7 C24.1,17.8 24.5,18.2 24.6,18.8 C24.7,19.2 24.5,19.6 24,19.5 C22.9,19.4 21.7,20 20.7,20.4 C18,21.6 15.3,22.7 12.5,23.5 L9,30.7" id="Fill-73" fill="#FFFFFF"></path>
                            <path d="M0.9,27.3 L4.5,19.8 C4.5,19.2 4.5,18.7 4.6,18.1 C5,16.2 5.6,14.4 5.8,12.5 C6,10.7 5.2,9 4.8,7.3 C4.6,6.5 4.5,5.8 4.3,5 C4.2,4.4 4.4,4.2 5,4 C5.4,3.9 5.7,4 6,4.5 C6.1,4.7 6.2,4.9 6.3,5.2 C6.8,6.8 7.3,8.4 8.1,9.8 C8.2,9.9 8.3,10.1 8.4,10.1 C8.7,10.1 8.8,9.8 8.8,9.5 C8.8,7.1 9.1,4.6 9.5,2.2 C9.6,1.7 10.1,1.4 10.5,1.4 C11,1.5 11.4,1.9 11.4,2.4 C11.4,3.6 11.3,4.8 11.3,6 C11.3,7.1 11.2,8.4 11.5,9.6 C11.5,9.7 11.6,9.9 11.7,9.8 C11.8,9.8 11.9,9.7 11.9,9.5 C12.3,7.2 13,4.8 13.2,2.4 C13.2,2.1 13.2,1.8 13.3,1.5 C13.4,1 14,0.7 14.5,0.9 C15,1.1 15.3,1.5 15.3,2 C15.3,4.8 14.9,7.4 14.5,10.1 C14.5,10.3 14.5,10.5 14.6,10.6 C14.7,10.7 15,10.7 15.1,10.7 C15.3,10.6 15.4,10.4 15.5,10.3 C16.7,8.5 17.3,6.4 17.9,4.3 C18.1,3.5 18.6,3.2 19.2,3.5 C19.6,3.7 19.8,4.1 19.8,4.5 C19.7,6.5 19.2,8.3 18.5,10.2 C17.8,12.1 16.9,13.9 16.7,16 C16.6,16.6 16.7,17.2 16.9,17.7 C17,17.9 17.1,18.2 17.3,18.3 C17.6,18.5 18,18.4 18.3,18.4 C20.1,18.1 21.7,17.2 23.5,17.7 C24.1,17.8 24.5,18.2 24.6,18.8 C24.7,19.2 24.5,19.6 24,19.5 C22.9,19.4 21.7,20 20.7,20.4 C18,21.6 15.3,22.7 12.5,23.5 L9,30.7" id="Stroke-75" stroke="#000000" stroke-linecap="round" stroke-linejoin="round"></path>
                        </g>
                        <path d="M1.1,28.2 L3.7,22.6 C4,22 4.7,21.7 5.4,22 L13.8,25.9 C14.4,26.2 14.7,26.9 14.4,27.6 L11.8,33.2 C11.5,33.8 10.8,34.1 10.1,33.8 L1.7,29.9 C1.1,29.6 0.8,28.8 1.1,28.2" id="Fill-77" fill="#FFFFFF"></path>
                        <path d="M1.1,28.2 L3.7,22.6 C4,22 4.7,21.7 5.4,22 L13.8,25.9 C14.4,26.2 14.7,26.9 14.4,27.6 L11.8,33.2 C11.5,33.8 10.8,34.1 10.1,33.8 L1.7,29.9 C1.1,29.6 0.8,28.8 1.1,28.2 Z" id="Stroke-79" stroke="#000000" stroke-linecap="round" stroke-linejoin="round"></path>
                        <path d="M9.9,29.9 C9.3,29.7 8.9,29.1 9.1,28.5 C9.3,27.9 9.9,27.5 10.5,27.7 C11.1,27.9 11.5,28.5 11.3,29.1 C11.2,29.7 10.5,30.1 9.9,29.9" id="Fill-81" fill="#009486"></path>
                    </g>
                </g>
            </g>
        </g>
    </g>
</svg>