<?xml version="1.0" encoding="UTF-8"?>
<svg width="12px" height="12px" viewBox="0 0 12 12" version="1.1" xmlns="http://www.w3.org/2000/svg" xmlns:xlink="http://www.w3.org/1999/xlink">
    <!-- Generator: Sketch 56.3 (81716) - https://sketch.com -->
    <title>Group</title>
    <desc>Created with Sketch.</desc>
    <g id="RLP-Mweb" stroke="none" stroke-width="1" fill="none" fill-rule="evenodd">
        <g id="All-Trips--Active-Requests" transform="translate(-16.000000, -114.000000)">
            <g id="Group-10" transform="translate(16.000000, 112.000000)">
                <g id="Group-8">
                    <g id="Group-16" transform="translate(0.000000, 2.000000)">
                        <g id="Group">
                            <g id="clock" opacity="0.303664435" fill="#000000" fill-rule="nonzero">
                                <path d="M11.5210196,3.6630503 C10.8883529,2.18724005 9.8132549,1.11392529 8.32594118,0.479243506 C7.58256863,0.162030134 6.80376471,0 5.99013725,0 C5.17664706,0 4.40358824,0.160499882 3.66103922,0.479243506 C2.18603922,1.11223809 1.10617647,2.1848662 0.472392157,3.6630503 C0.154803922,4.40361375 0,5.17947108 0,5.99340815 C0,6.80750216 0.154803922,7.5897944 0.472392157,8.33051479 C1.10617647,9.80869889 2.18617647,10.8877619 3.66103922,11.5209134 C4.40372549,11.8396571 5.17662745,12 5.99013725,12 C6.80364706,12 7.58256863,11.8379699 8.32582353,11.5209134 C9.81313725,10.886212 10.8882353,9.80618771 11.5210392,8.33051479 C11.8395882,7.58742054 12,6.80750216 12,5.99340815 C12,5.17947108 11.8397255,4.40612493 11.5210196,3.6630503 Z M10.5632157,8.64562897 C10.0922157,9.45381778 9.44696078,10.0949737 8.63429412,10.5690183 C7.82654902,11.040277 6.9415098,11.2779369 5.99027451,11.2779369 C5.27517647,11.2779369 4.59282353,11.1401358 3.94321569,10.8578043 C3.29362745,10.5756101 2.73276471,10.2046221 2.26358824,9.73532528 C1.79441176,9.26589108 1.42098039,8.69924665 1.1417451,8.04818332 C0.863333333,7.39949384 0.728411765,6.70905595 0.728411765,5.99342776 C0.728411765,5.04153261 0.962156863,4.16049988 1.4305098,3.35454759 C1.90052941,2.54565252 2.54592157,1.90380993 3.35284314,1.43113866 C4.15962745,0.958487012 5.03892157,0.722082712 5.99013725,0.722082712 C6.9415098,0.722082712 7.82639216,0.959879934 8.63415686,1.43113866 C9.44682353,1.90520286 10.0906863,2.54702582 10.5630784,3.35452798 C11.0354706,4.1618928 11.2716078,5.04153261 11.2716078,5.99340815 C11.2716078,6.94532292 11.0370196,7.83235894 10.5632157,8.64562897 Z" id="Shape"></path>
                            </g>
                            <polyline id="Line" stroke="#3E3E3E" stroke-width="0.75" opacity="0.400251116" stroke-linecap="round" points="3.5 5.96358441 5.19005716 7.50000002 8.58168711 4.18579102"></polyline>
                        </g>
                    </g>
                </g>
            </g>
        </g>
    </g>
</svg>