<?xml version="1.0" encoding="UTF-8"?>
<svg width="132px" height="49px" viewBox="0 0 132 49" version="1.1" xmlns="http://www.w3.org/2000/svg" xmlns:xlink="http://www.w3.org/1999/xlink">
    <!-- Generator: Sketch 61.2 (89653) - https://sketch.com -->
    <title>Group 16</title>
    <desc>Created with Sketch.</desc>
    <defs>
        <path d="M101.509245,24.7186885 L98.8300868,30.39532 C98.6436447,30.7899306 98.2833921,31.0637832 97.8668026,31.1269411 L97.8668026,31.1269411 L91.8753921,32.0374253 C91.1978342,32.1399937 90.7830132,32.7387306 90.7787184,33.3581832 L90.7787184,33.3581832 L90.7787184,33.3783937 C90.7812447,33.7118674 90.9027605,34.0498885 91.1665079,34.3186885 L91.1665079,34.3186885 L95.5016658,38.7374674 C95.8028026,39.0446674 95.9407395,39.4875306 95.8692447,39.921299 L95.8692447,39.921299 L94.8460868,46.1607937 C94.7046132,47.0232779 95.3581711,47.7243306 96.1011605,47.7278674 L96.1011605,47.7278674 L96.1120237,47.7278674 C96.3070553,47.7268569 96.50815,47.6778464 96.7021711,47.5712358 L96.7021711,47.5712358 L102.060739,44.625299 C102.433371,44.4206674 102.878761,44.4206674 103.251392,44.625299 L103.251392,44.625299 L108.609961,47.5712358 C109.548487,48.0866043 110.645413,47.2534253 110.466045,46.1607937 L110.466045,46.1607937 L109.442887,39.921299 C109.371645,39.4875306 109.509329,39.0446674 109.810718,38.7374674 L109.810718,38.7374674 L114.145876,34.3186885 C114.408108,34.0514043 114.529876,33.7154043 114.533413,33.383699 L114.533413,33.383699 L114.533413,33.3526253 C114.526592,32.7351937 114.112529,32.1399937 113.436992,32.0374253 L113.436992,32.0374253 L107.445582,31.1269411 C107.028739,31.0637832 106.668487,30.7899306 106.482045,30.39532 L106.482045,30.39532 L103.803139,24.7186885 C103.568445,24.2215095 103.112192,23.9726674 102.655939,23.9726674 L102.655939,23.9726674 C102.199687,23.9726674 101.743687,24.2215095 101.509245,24.7186885 L101.509245,24.7186885 Z" id="path-1"/>
    </defs>
    <g id="Group-16" stroke="none" stroke-width="1" fill="none" fill-rule="evenodd">
        <g id="Group" transform="translate(0.242250, 0.528596)">
            <path d="M7.02,32.6781543 L5.26725,36.3916543 C5.14525,36.6499043 4.9095,36.8291543 4.637,36.8701543 L4.637,36.8701543 L0.71775,37.4659043 C0.275,37.5329043 0.00375,37.9234043 4.36983782e-13,38.3281543 L4.36983782e-13,38.3281543 L4.36983782e-13,38.3444043 C0.002,38.5621543 0.0815,38.7826543 0.25375,38.9581543 L0.25375,38.9581543 L3.08975,41.8489043 C3.28675,42.0499043 3.377,42.3396543 3.33025,42.6234043 L3.33025,42.6234043 L2.66075,46.7049043 C2.5435,47.4201543 3.261,47.9654043 3.875,47.6276543 L3.875,47.6276543 L7.3805,45.7009043 C7.62425,45.5669043 7.91575,45.5669043 8.1595,45.7009043 L8.1595,45.7009043 L11.665,47.6276543 C12.27875,47.9649043 12.9965,47.4201543 12.87925,46.7049043 L12.87925,46.7049043 L12.21,42.6234043 C12.16325,42.3396543 12.2535,42.0499043 12.45025,41.8489043 L12.45025,41.8489043 L15.2865,38.9581543 C15.45875,38.7826543 15.53825,38.5619043 15.54,38.3441543 L15.54,38.3441543 L15.54,38.3291543 C15.53675,37.9241543 15.2655,37.5331543 14.8225,37.4659043 L14.8225,37.4659043 L10.90325,36.8701543 C10.6305,36.8291543 10.395,36.6499043 10.273,36.3916543 L10.273,36.3916543 L8.52025,32.6781543 C8.36675,32.3529043 8.06825,32.1901543 7.76975,32.1901543 L7.76975,32.1901543 C7.4715,32.1901543 7.173,32.3529043 7.02,32.6781543 L7.02,32.6781543 Z" id="Clip-2" fill="#FAC22E"/>
            <path d="M122.917623,32.6781543 L121.136798,36.3916543 C121.013115,36.6499043 120.773623,36.8291543 120.496798,36.8701543 L120.496798,36.8701543 L116.515083,37.4659043 C116.069623,37.5324043 115.795083,37.9166543 115.786448,38.3174043 L115.786448,38.3174043 L115.786448,38.3559043 C115.79102,38.5699043 115.872036,38.7859043 116.043718,38.9581543 L116.043718,38.9581543 L118.924988,41.8489043 C119.125115,42.0499043 119.216798,42.3396543 119.169306,42.6234043 L119.169306,42.6234043 L118.489433,46.7049043 C118.370321,47.4201543 119.09921,47.9654043 119.722956,47.6276543 L119.722956,47.6276543 L123.284099,45.7009043 C123.531718,45.5669043 123.827591,45.5669043 124.075464,45.7009043 L124.075464,45.7009043 L127.636607,47.6276543 C128.260099,47.9649043 128.989242,47.4201543 128.869877,46.7049043 L128.869877,46.7049043 L128.190004,42.6234043 C128.142512,42.3396543 128.23394,42.0499043 128.434321,41.8489043 L128.434321,41.8489043 L131.315337,38.9581543 C131.490321,38.7826543 131.571083,38.5619043 131.572861,38.3441543 L131.572861,38.3441543 L131.572861,38.3291543 C131.56956,37.9241543 131.294258,37.5331543 130.843972,37.4659043 L130.843972,37.4659043 L126.862512,36.8701543 C126.585433,36.8291543 126.346194,36.6499043 126.222258,36.3916543 L126.222258,36.3916543 L124.441687,32.6781543 C124.286004,32.3529043 123.982512,32.1901543 123.679528,32.1901543 L123.679528,32.1901543 C123.376544,32.1901543 123.073306,32.3529043 122.917623,32.6781543 L122.917623,32.6781543 Z" id="Mask" fill="#FAC22E"/>
            <path d="M27.5208658,24.7186885 L24.8417079,30.39532 C24.6555184,30.7899306 24.2950132,31.0637832 23.8784237,31.1269411 L23.8784237,31.1269411 L17.8870132,32.0374253 C17.2117289,32.1394885 16.7976658,32.7344358 16.7905921,33.3518674 L16.7905921,33.3518674 L16.7905921,33.383699 C16.7941289,33.7154043 16.9158974,34.0514043 17.1781289,34.3186885 L17.1781289,34.3186885 L21.5132868,38.7374674 C21.8146763,39.0446674 21.9523605,39.4875306 21.8811184,39.921299 L21.8811184,39.921299 L20.8579605,46.1607937 C20.7162342,47.0232779 21.3697921,47.7243306 22.1127816,47.7278674 L22.1127816,47.7278674 L22.1238974,47.7278674 C22.3189289,47.7268569 22.5197711,47.6778464 22.7137921,47.5712358 L22.7137921,47.5712358 L28.0726132,44.625299 C28.4452447,44.4206674 28.8906342,44.4206674 29.2632658,44.625299 L29.2632658,44.625299 L34.6215816,47.5712358 C35.5601079,48.0866043 36.6572868,47.2534253 36.4779184,46.1607937 L36.4779184,46.1607937 L35.4547605,39.921299 C35.3832658,39.4875306 35.5212026,39.0446674 35.8223395,38.7374674 L35.8223395,38.7374674 L40.1574974,34.3186885 C40.4212447,34.0498885 40.5427605,33.7118674 40.5452868,33.3783937 L40.5452868,33.3783937 L40.5452868,33.3591937 C40.5412447,32.7392358 40.1264237,32.1402464 39.4486132,32.0374253 L39.4486132,32.0374253 L33.4572026,31.1269411 C33.0406132,31.0637832 32.6803605,30.7899306 32.4939184,30.39532 L32.4939184,30.39532 L29.8147605,24.7186885 C29.5800658,24.2215095 29.1238132,23.9726674 28.6675605,23.9726674 L28.6675605,23.9726674 C28.2115605,23.9726674 27.7553079,24.2215095 27.5208658,24.7186885 L27.5208658,24.7186885 Z" id="Clip-8" fill="#FAC22E"/>
            <path d="M63.356984,1.49821277 L57.9738351,12.9030638 C57.5997926,13.6963404 56.8759628,14.2457872 56.0387713,14.3729362 L56.0387713,14.3729362 L44.0020053,16.2017872 C41.8933245,16.5214468 41.0520479,19.2301277 42.5773245,20.7852766 L42.5773245,20.7852766 L51.2870266,29.6627234 C51.8923883,30.2803404 52.1688989,31.1701277 52.0256649,32.0415319 L52.0256649,32.0415319 L49.9698351,44.5769362 C49.6095798,46.7721702 51.81375,48.4470638 53.6992819,47.4104681 L53.6992819,47.4104681 L64.4648138,41.4924255 C65.2134096,41.0811064 66.1083032,41.0811064 66.8568989,41.4924255 L66.8568989,41.4924255 L77.6226862,47.4104681 C79.5082181,48.4462979 81.7123883,46.7721702 81.3518777,44.5769362 L81.3518777,44.5769362 L79.2960479,32.0415319 C79.1528138,31.1701277 79.4295798,30.2803404 80.0349415,29.6627234 L80.0349415,29.6627234 L88.7446436,20.7852766 C90.2699202,19.2311489 89.4286436,16.5227234 87.3199628,16.2017872 L87.3199628,16.2017872 L75.2831968,14.3729362 C74.4460053,14.2457872 73.7221755,13.6963404 73.3478777,12.9030638 L73.3478777,12.9030638 L67.964984,1.49821277 C67.4936649,0.499404255 66.5770691,0 65.6604734,0 L65.6604734,0 C64.744133,0 63.8277926,0.499404255 63.356984,1.49821277 L63.356984,1.49821277 Z" id="Clip-11" fill="#FAC22E"/>
            <mask id="mask-2" fill="white">
                <use xlink:href="#path-1"/>
            </mask>
            <use id="Clip-14" fill="#FAC22E" xlink:href="#path-1"/>
        </g>
    </g>
</svg>