<svg xmlns="http://www.w3.org/2000/svg" viewBox="0 0 21.22 24.34"><defs/><title>Religious_icon</title><g id="Layer_2"><g id="Religious"><path class="cls-religious1" d="M11,11.5a.7.7,0,0,1,.74-.7H12a.33.33,0,0,0,.26-.11L12.15,10,10.76,7.32A1,1,0,0,1,11.26,6h0a1,1,0,0,1,1.23.4l2.38,4A9.12,9.12,0,0,1,16,13.55a6.52,6.52,0,1,0-10.76-.31,9.12,9.12,0,0,1,1.1-2.89l2.38-4A1,1,0,0,1,10,6h0a1,1,0,0,1,.5,1.37L9.08,10h0L9,10.7a.33.33,0,0,0,.26.11h.22a.7.7,0,0,1,.74.7v4.72l.54,0H11Z" style="fill: #009688;"/><path class="cls-religious2" d="M12.15,10s.81,1,.58,4.52" style="fill: none; stroke: #000; stroke-linecap: round; stroke-linejoin: round;"/><path class="cls-religious2" d="M9.08,10s-.81,1-.58,4.52" style="fill: none; stroke: #000; stroke-linecap: round; stroke-linejoin: round;"/><path class="cls-religious2" d="M10.76,7.32l1.55,3a.35.35,0,0,1-.33.51h-.22a.7.7,0,0,0-.74.7v5.43a3.51,3.51,0,0,0,1.42,2.82l5,3.68a2.07,2.07,0,0,0,2.78-.29h0a2.07,2.07,0,0,0-.13-2.89L17.56,17.9a4.21,4.21,0,0,1-1.29-2.54l-.19-1.47a9.13,9.13,0,0,0-1.22-3.53l-2.38-4A1,1,0,0,0,11.26,6h0A1,1,0,0,0,10.76,7.32Z" style="fill: none; stroke: #000; stroke-linecap: round; stroke-linejoin: round;"/><path class="cls-religious2" d="M10.46,7.32l-1.55,3a.35.35,0,0,0,.33.51h.22a.7.7,0,0,1,.74.7v5.43a3.51,3.51,0,0,1-1.42,2.82l-5,3.68A2.07,2.07,0,0,1,1,23.15H1a2.07,2.07,0,0,1,.13-2.89L3.67,17.9A4.21,4.21,0,0,0,5,15.35l.19-1.47a9.13,9.13,0,0,1,1.22-3.53l2.38-4A1,1,0,0,1,10,6h0A1,1,0,0,1,10.46,7.32Z" style="fill: none; stroke: #000; stroke-linecap: round; stroke-linejoin: round;"/><line class="cls-religious2" x1="20.72" y1="2.53" x2="16.29" y2="6.35" style="fill: none; stroke: #000; stroke-linecap: round; stroke-linejoin: round;"/><line class="cls-religious2" x1="0.9" y1="2.53" x2="5.33" y2="6.35" style="fill: none; stroke: #000; stroke-linecap: round; stroke-linejoin: round;"/><line class="cls-religious2" x1="10.65" y1="0.5" x2="10.65" y2="2.91" style="fill: none; stroke: #000; stroke-linecap: round; stroke-linejoin: round;"/></g></g></svg>
