<?xml version="1.0" encoding="UTF-8"?>
<svg width="16px" height="22px" viewBox="0 0 16 22" version="1.1" xmlns="http://www.w3.org/2000/svg" xmlns:xlink="http://www.w3.org/1999/xlink">
    <!-- Generator: Sketch 54.1 (76490) - https://sketchapp.com -->
    <title>Icon/Notes</title>
    <desc>Created with Sketch.</desc>
    <g id="RLP-v2" stroke="none" stroke-width="1" fill="none" fill-rule="evenodd">
        <g id="Edit-Request" transform="translate(-20.000000, -66.000000)" stroke="#000000">
            <g id="Group" transform="translate(16.000000, 65.000000)">
                <g id="Icon/Notes">
                    <g id="icon/notes" transform="translate(4.000000, 1.000000)">
                        <path d="M2,1.5 C1.17157288,1.5 0.5,2.17157288 0.5,3 L0.5,20 C0.5,20.8284271 1.17157288,21.5 2,21.5 L14,21.5 C14.8284271,21.5 15.5,20.8284271 15.5,20 L15.5,3 C15.5,2.17157288 14.8284271,1.5 14,1.5 L2,1.5 Z" id="Rectangle"></path>
                        <path d="M4.5,0.5 C3.94771525,0.5 3.5,0.94771525 3.5,1.5 C3.5,2.05228475 3.94771525,2.5 4.5,2.5 L11.5,2.5 C12.0522847,2.5 12.5,2.05228475 12.5,1.5 C12.5,0.94771525 12.0522847,0.5 11.5,0.5 L4.5,0.5 Z" id="Rectangle" fill="#009688"></path>
                        <path d="M3,7 L13,7" id="Line" stroke-linecap="round"></path>
                        <path d="M3,12 L13,12" id="Line-Copy" stroke-linecap="round"></path>
                        <path d="M3,17 L13,17" id="Line-Copy-2" stroke-linecap="round"></path>
                    </g>
                </g>
            </g>
        </g>
    </g>
</svg>