<?xml version="1.0" encoding="UTF-8"?>
<svg width="24px" height="24px" viewBox="0 0 24 24" version="1.1" xmlns="http://www.w3.org/2000/svg" xmlns:xlink="http://www.w3.org/1999/xlink">
    <!-- Generator: Sketch 52.2 (67145) - http://www.bohemiancoding.com/sketch -->
    <title>Icon/Restaurant/1</title>
    <desc>Created with Sketch.</desc>
    <defs>
        <polygon id="path-1" points="0.0001 0 1.0471 0 1.0471 5.7197 0.0001 5.7197"></polygon>
        <polygon id="path-3" points="0.4112 0 1.4572 0 1.4572 5.7197 0.4112 5.7197"></polygon>
        <polygon id="path-5" points="0.7866 0.00116141034 4.833 0.00116141034 4.833 22 0.7866 22"></polygon>
    </defs>
    <g id="Icon/Restaurant/1" stroke="none" stroke-width="1" fill="none" fill-rule="evenodd">
        <g id="Group-16" transform="translate(6.000000, 1.000000)">
            <path d="M2.7292,22 C2.4402,22 2.2062,21.766 2.2062,21.477 L2.2062,0.523 C2.2062,0.234 2.4402,0 2.7292,0 C3.0192,0 3.2532,0.234 3.2532,0.523 L3.2532,21.477 C3.2532,21.766 3.0192,22 2.7292,22" id="Fill-1" fill="#000000"></path>
            <path d="M2.7292,9.0967 C1.2242,9.0967 0.0002,7.8727 0.0002,6.3677 L0.0002,5.1967 C0.0002,4.9067 0.2342,4.6717 0.5242,4.6717 C0.8132,4.6717 1.0472,4.9067 1.0472,5.1967 L1.0472,6.3677 C1.0472,7.2957 1.8012,8.0497 2.7292,8.0497 C3.6572,8.0497 4.4112,7.2957 4.4112,6.3677 L4.4112,5.1967 C4.4112,4.9067 4.6452,4.6717 4.9342,4.6717 C5.2232,4.6717 5.4582,4.9067 5.4582,5.1967 L5.4582,6.3677 C5.4582,7.8727 4.2342,9.0967 2.7292,9.0967" id="Fill-3" fill="#000000"></path>
            <g id="Group-7">
                <mask id="mask-2" fill="white">
                    <use xlink:href="#path-1"></use>
                </mask>
                <g id="Clip-6"></g>
                <path d="M0.5241,5.7197 C0.2341,5.7197 0.0001,5.4857 0.0001,5.1967 L0.0001,0.5237 C0.0001,0.2347 0.2341,-0.0003 0.5241,-0.0003 C0.8131,-0.0003 1.0471,0.2347 1.0471,0.5237 L1.0471,5.1967 C1.0471,5.4857 0.8131,5.7197 0.5241,5.7197" id="Fill-5" fill="#000000" mask="url(#mask-2)"></path>
            </g>
            <g id="Group-10" transform="translate(4.000000, 0.000000)">
                <mask id="mask-4" fill="white">
                    <use xlink:href="#path-3"></use>
                </mask>
                <g id="Clip-9"></g>
                <path d="M0.9342,5.7197 C0.6452,5.7197 0.4112,5.4857 0.4112,5.1967 L0.4112,0.5237 C0.4112,0.2347 0.6452,-0.0003 0.9342,-0.0003 C1.2232,-0.0003 1.4572,0.2347 1.4572,0.5237 L1.4572,5.1967 C1.4572,5.4857 1.2232,5.7197 0.9342,5.7197" id="Fill-8" fill="#000000" mask="url(#mask-4)"></path>
            </g>
            <path d="M12.3092,13.5498 L9.3112,13.5498 L9.3112,7.0048 C9.3112,5.0048 10.0442,3.0748 11.3722,1.5798 L12.3092,0.5238 L12.3092,21.4758" id="Fill-11" fill="#009587"></path>
            <g id="Group-15" transform="translate(8.000000, 0.000000)">
                <mask id="mask-6" fill="white">
                    <use xlink:href="#path-5"></use>
                </mask>
                <g id="Clip-14"></g>
                <path d="M1.8346,13.0254 L3.7856,13.0254 L3.7856,1.9024 L3.7636,1.9274 C2.5196,3.3294 1.8346,5.1324 1.8346,7.0044 L1.8346,13.0254 Z M4.3096,22.0004 C4.0206,22.0004 3.7856,21.7654 3.7856,21.4764 L3.7856,14.0734 L1.3116,14.0734 C1.0216,14.0734 0.7866,13.8384 0.7866,13.5494 L0.7866,7.0044 C0.7866,4.8764 1.5656,2.8264 2.9796,1.2314 L3.9176,0.1754 C4.0636,0.0134 4.2946,-0.0406 4.4956,0.0344 C4.6986,0.1114 4.8336,0.3054 4.8336,0.5234 L4.8336,21.4764 C4.8336,21.7654 4.5996,22.0004 4.3096,22.0004 Z" id="Fill-13" fill="#000000" mask="url(#mask-6)"></path>
            </g>
        </g>
    </g>
</svg>