<svg xmlns="http://www.w3.org/2000/svg" viewBox="0 0 28.82 23"><defs/><title>restaurants_icon</title><g id="Layer_2"><g id="Layer_98"><line class="cls-resticon1" x1="2.32" y1="7.02" x2="26.32" y2="7.02" style="fill: none; stroke: #000; stroke-linecap: round; stroke-linejoin: round;"/><polyline class="cls-resticon1" points="26.32 10.62 26.32 22.5 2.32 22.5 2.32 10.69" style="fill: none; stroke: #000; stroke-linecap: round; stroke-linejoin: round;"/><path class="cls-resticon1" d="M24.32.5H4.5L.5,7h0a3.44,3.44,0,0,0,0,.45,3.48,3.48,0,1,0,7,0,3.44,3.44,0,0,0,0-.45H7.5a3.44,3.44,0,0,0,0,.45,3.48,3.48,0,1,0,7,0,3.44,3.44,0,0,0,0-.45h.09a3.44,3.44,0,0,0,0,.45,3.48,3.48,0,1,0,7,0,3.44,3.44,0,0,0,0-.45h.09a3.44,3.44,0,0,0,0,.45,3.48,3.48,0,1,0,7,0,3.44,3.44,0,0,0,0-.45h0Z" style="fill: none; stroke: #000; stroke-linecap: round; stroke-linejoin: round;"/><line class="cls-resticon1" x1="28.32" y1="7.02" x2="0.5" y2="7.02" style="fill: none; stroke: #000; stroke-linecap: round; stroke-linejoin: round;"/><rect class="cls-resticon2" x="6.07" y="14.02" width="5.56" height="8.48" style="stroke: #000; stroke-linecap: round; stroke-linejoin: round; fill: #009688;"/><rect class="cls-resticon2" x="16.03" y="13.12" width="8.29" height="5.14" style="stroke: #000; stroke-linecap: round; stroke-linejoin: round; fill: #009688;"/></g></g></svg>
