<?xml version="1.0" encoding="UTF-8"?>
<svg width="24px" height="24px" viewBox="0 0 24 24" version="1.1" xmlns="http://www.w3.org/2000/svg" xmlns:xlink="http://www.w3.org/1999/xlink">
    <!-- Generator: Sketch 52.2 (67145) - http://www.bohemiancoding.com/sketch -->
    <title>Icon/Room Service</title>
    <desc>Created with Sketch.</desc>
    <defs>
        <polygon id="path-1" points="0 0.6274 21.9996 0.6274 21.9996 1.6754 0 1.6754"></polygon>
        <polygon id="path-3" points="0 21.3718 22 21.3718 22 -0.0002 0 -0.0002"></polygon>
    </defs>
    <g id="Icon/Room-Service" stroke="none" stroke-width="1" fill="none" fill-rule="evenodd">
        <g id="Group-15" transform="translate(1.000000, 1.000000)">
            <path d="M2.5088,11.9994 L19.4918,11.9994 C19.2218,7.5494 15.5148,4.0124 10.9968,4.0124 C6.4838,4.0124 2.7798,7.5494 2.5088,11.9994 M20.0318,13.0474 L1.9688,13.0474 C1.6788,13.0474 1.4448,12.8124 1.4448,12.5234 C1.4448,7.2524 5.7308,2.9654 10.9968,2.9654 C16.2678,2.9654 20.5568,7.2524 20.5568,12.5234 C20.5568,12.8124 20.3218,13.0474 20.0318,13.0474" id="Fill-1" fill="#000000"></path>
            <g id="Group-5" transform="translate(0.000000, 11.371800)">
                <mask id="mask-2" fill="white">
                    <use xlink:href="#path-1"></use>
                </mask>
                <g id="Clip-4"></g>
                <path d="M21.4766,1.6754 L0.5236,1.6754 C0.2346,1.6754 -0.0004,1.4414 -0.0004,1.1524 C-0.0004,0.8624 0.2346,0.6274 0.5236,0.6274 L21.4766,0.6274 C21.7656,0.6274 21.9996,0.8624 21.9996,1.1524 C21.9996,1.4414 21.7656,1.6754 21.4766,1.6754" id="Fill-3" fill="#000000" mask="url(#mask-2)"></path>
            </g>
            <path d="M12.4824,2.0062 C12.4824,1.1872 11.8194,0.5242 11.0004,0.5242 C10.1814,0.5242 9.5174,1.1872 9.5174,2.0062 C9.5174,2.8242 10.1814,3.4882 11.0004,3.4882 C11.8194,3.4882 12.4824,2.8242 12.4824,2.0062" id="Fill-6" fill="#009587"></path>
            <path d="M11,1.0472 C10.471,1.0472 10.041,1.4772 10.041,2.0062 C10.041,2.5352 10.471,2.9652 11,2.9652 C11.529,2.9652 11.959,2.5352 11.959,2.0062 C11.959,1.4772 11.529,1.0472 11,1.0472 M11,4.0122 C9.895,4.0122 8.994,3.1112 8.994,2.0062 C8.994,0.9012 9.895,0.0002 11,0.0002 C12.105,0.0002 13.006,0.9012 13.006,2.0062 C13.006,3.1112 12.105,4.0122 11,4.0122" id="Fill-8" fill="#000000"></path>
            <path d="M3.6436,16.5158 L3.6436,19.1408 L10.5346,18.3988 L14.3796,13.5838 C14.4606,13.4968 14.4866,13.4338 14.4866,13.3698 C14.4866,13.3048 14.4606,13.2438 14.4146,13.1968 C14.3256,13.1068 14.1736,13.1068 14.0776,13.2008 L10.6116,16.7108 C10.5126,16.8118 10.3776,16.8688 10.2386,16.8688 L5.2366,16.8688 C5.0246,16.8688 4.8326,16.7408 4.7516,16.5448 C4.6706,16.3498 4.7166,16.1238 4.8656,15.9738 L7.3006,13.5398 C7.3426,13.4968 7.3686,13.4338 7.3686,13.3698 C7.3686,13.3048 7.3426,13.2438 7.2966,13.1968 C7.2046,13.1068 7.0536,13.1068 6.9586,13.2008 L3.6436,16.5158 Z M3.1196,20.2478 C2.9906,20.2478 2.8656,20.2008 2.7696,20.1138 C2.6596,20.0138 2.5956,19.8728 2.5956,19.7238 L2.5956,16.3438 C2.5956,16.2648 2.6146,16.1848 2.6496,16.1138 C2.7046,15.9998 2.7816,15.8938 2.8756,15.8008 L6.2176,12.4598 C6.7216,11.9568 7.5376,11.9568 8.0406,12.4598 C8.2846,12.7078 8.4156,13.0298 8.4156,13.3698 C8.4156,13.7088 8.2856,14.0308 8.0466,14.2748 L6.5006,15.8208 L10.0186,15.8208 L13.3366,12.4598 C13.8396,11.9568 14.6566,11.9568 15.1606,12.4598 C15.4026,12.7078 15.5346,13.0298 15.5346,13.3698 C15.5346,13.7088 15.4036,14.0308 15.1646,14.2748 L11.2166,19.2218 C11.1296,19.3318 11.0026,19.4018 10.8646,19.4168 L3.1756,20.2448 C3.1566,20.2468 3.1376,20.2478 3.1196,20.2478 Z" id="Fill-10" fill="#000000"></path>
            <mask id="mask-4" fill="white">
                <use xlink:href="#path-3"></use>
            </mask>
            <g id="Clip-13"></g>
            <polygon id="Fill-12" fill="#009587" mask="url(#mask-4)" points="0.773 20.8478 3.119 20.8478 3.119 16.3438 0.773 16.3438"></polygon>
            <path d="M1.297,20.3248 L2.596,20.3248 L2.596,16.8688 L1.297,16.8688 L1.297,20.3248 Z M3.119,21.3718 L0.773,21.3718 C0.484,21.3718 0.25,21.1368 0.25,20.8478 L0.25,16.3438 C0.25,16.0548 0.484,15.8208 0.773,15.8208 L3.119,15.8208 C3.409,15.8208 3.644,16.0548 3.644,16.3438 L3.644,20.8478 C3.644,21.1368 3.409,21.3718 3.119,21.3718 Z" id="Fill-14" fill="#000000" mask="url(#mask-4)"></path>
        </g>
    </g>
</svg>