<svg xmlns="http://www.w3.org/2000/svg" viewBox="0 0 29.14 21.19"><defs/><title>Safari_icon</title><g id="Layer_2"><g id="Safari"><line class="cls-safari1" x1="18.93" y1="17.78" x2="12.93" y2="17.78" style="fill: none; stroke: #000; stroke-linecap: round; stroke-linejoin: round;"/><path class="cls-safari1" d="M6.93,17.78H4.64a1,1,0,0,1-1-1v-5a1,1,0,0,1,1-1h23a1,1,0,0,1,1,1v5a1,1,0,0,1-1,1H24.93" style="fill: none; stroke: #000; stroke-linecap: round; stroke-linejoin: round;"/><rect class="cls-safari2" x="2.27" y="0.5" width="24" height="2.51" style="stroke: #000; stroke-linecap: round; stroke-linejoin: round; fill: #009688;"/><line class="cls-safari3" x1="16.14" y1="3.01" x2="16.14" y2="17.78" style="fill: none; stroke: #000; stroke-miterlimit: 10;"/><rect class="cls-safari1" x="0.5" y="9.07" width="2" height="6" rx="1" ry="1" style="fill: none; stroke: #000; stroke-linecap: round; stroke-linejoin: round;"/><rect class="cls-safari1" x="3.64" y="7.43" width="12.5" height="3.35" style="fill: none; stroke: #000; stroke-linecap: round; stroke-linejoin: round;"/><polyline class="cls-safari1" points="5.15 10.78 2.5 10.78 2.5 13.47 3.64 16.78" style="fill: none; stroke: #000; stroke-linecap: round; stroke-linejoin: round;"/><line class="cls-safari4" x1="25.48" y1="7.52" x2="23.42" y2="9.53" style="stroke: #000; stroke-linecap: round; stroke-linejoin: round; fill: #fff;"/><line class="cls-safari4" x1="26.64" y1="10.78" x2="24.45" y2="8.52" style="stroke: #000; stroke-linecap: round; stroke-linejoin: round; fill: #fff;"/><circle class="cls-safari3" cx="21.97" cy="17.81" r="2.88" style="fill: none; stroke: #000; stroke-miterlimit: 10;"/><circle cx="21.97" cy="17.81" r="0.5"/><circle class="cls-safari3" cx="9.97" cy="17.81" r="2.88" style="fill: none; stroke: #000; stroke-miterlimit: 10;"/><circle cx="9.97" cy="17.81" r="0.5"/></g></g></svg>
