<svg xmlns="http://www.w3.org/2000/svg" viewBox="0 0 24.99 25.06"><defs/><title>Seasonal_2</title><g id="Layer_seasonal"><g id="Season_copy"><circle class="cls-1" cx="19.5" cy="5.72" r="1.69" transform="translate(-0.79 6.84) rotate(-19.51)" style="fill: #009688; stroke: #000; stroke-linecap: round; stroke-linejoin: round;"/><line class="cls-2" x1="21.09" y1="5.16" x2="24.49" y2="3.96" style="stroke: #000; stroke-linecap: round; stroke-linejoin: round; fill: none;"/><polyline class="cls-2" points="23.18 3.28 22.53 4.64 23.92 5.3" style="stroke: #000; stroke-linecap: round; stroke-linejoin: round; fill: none;"/><line class="cls-2" x1="17.91" y1="6.29" x2="14.52" y2="7.49" style="stroke: #000; stroke-linecap: round; stroke-linejoin: round; fill: none;"/><polyline class="cls-2" points="15.83 8.17 16.48 6.81 15.09 6.15" style="stroke: #000; stroke-linecap: round; stroke-linejoin: round; fill: none;"/><line class="cls-2" x1="20.73" y1="6.88" x2="23.36" y2="9.35" style="stroke: #000; stroke-linecap: round; stroke-linejoin: round; fill: none;"/><polyline class="cls-2" points="23.35 7.87 21.86 7.92 21.9 9.46" style="stroke: #000; stroke-linecap: round; stroke-linejoin: round; fill: none;"/><line class="cls-2" x1="18.28" y1="4.57" x2="15.65" y2="2.1" style="stroke: #000; stroke-linecap: round; stroke-linejoin: round; fill: none;"/><polyline class="cls-2" points="15.65 3.58 17.15 3.53 17.11 1.99" style="stroke: #000; stroke-linecap: round; stroke-linejoin: round; fill: none;"/><line class="cls-2" x1="19.24" y1="7.39" x2="18.67" y2="10.95" style="stroke: #000; stroke-linecap: round; stroke-linejoin: round; fill: none;"/><polyline class="cls-2" points="19.89 10.12 19.01 8.9 17.76 9.8" style="stroke: #000; stroke-linecap: round; stroke-linejoin: round; fill: none;"/><line class="cls-2" x1="19.77" y1="4.06" x2="20.34" y2="0.5" style="stroke: #000; stroke-linecap: round; stroke-linejoin: round; fill: none;"/><polyline class="cls-2" points="19.12 1.33 20 2.55 21.25 1.64" style="stroke: #000; stroke-linecap: round; stroke-linejoin: round; fill: none;"/><path class="cls-3" d="M6.32,8V7.3A1.32,1.32,0,0,1,7.64,6h0A1.32,1.32,0,0,1,9,7.3V8" style="fill: #009688;"/><polygon class="cls-3" points="0.97 15.33 2.89 16.4 4.81 15.33 6.73 16.4 8.65 15.33 10.57 16.4 12.5 15.33 14.69 16.34 14.77 17.75 14.42 19.65 12.23 18.43 10.27 19.52 8.32 18.43 6.36 19.52 4.41 18.43 2.46 19.52 0.5 18.43 0.97 15.33" style="fill: #009688;"/><circle class="cls-2" cx="7.64" cy="17.42" r="7.14" style="stroke: #000; stroke-linecap: round; stroke-linejoin: round; fill: none;"/><circle class="cls-2" cx="10.58" cy="21.49" r="0.84" style="stroke: #000; stroke-linecap: round; stroke-linejoin: round; fill: none;"/><polyline class="cls-2" points="1.08 15.33 3 16.4 4.92 15.33 6.84 16.4 8.77 15.33 10.69 16.4 12.62 15.33 14.54 16.4" style="stroke: #000; stroke-linecap: round; stroke-linejoin: round; fill: none;"/><polyline class="cls-2" points="0.62 18.43 2.57 19.52 4.52 18.43 6.48 19.52 8.43 18.43 10.39 19.52 12.35 18.43 14.31 19.52" style="stroke: #000; stroke-linecap: round; stroke-linejoin: round; fill: none;"/><path class="cls-2" d="M7.08,11.93a4.45,4.45,0,0,0-3.65,2.55" style="stroke: #000; stroke-linecap: round; stroke-linejoin: round; fill: none;"/><path class="cls-2" d="M5.54,10.61V9.15a1.3,1.3,0,0,1,1.3-1.3H8.43a1.3,1.3,0,0,1,1.3,1.3v1.46" style="stroke: #000; stroke-linecap: round; stroke-linejoin: round; fill: none;"/><path class="cls-2" d="M6.32,8V7.3A1.32,1.32,0,0,1,7.64,6h0A1.32,1.32,0,0,1,9,7.3V8" style="stroke: #000; stroke-linecap: round; stroke-linejoin: round; fill: none;"/></g></g></svg>
