<?xml version="1.0" encoding="UTF-8"?>
<svg width="24px" height="24px" viewBox="0 0 24 24" version="1.1" xmlns="http://www.w3.org/2000/svg" xmlns:xlink="http://www.w3.org/1999/xlink">
    <!-- Generator: Sketch 50.2 (55047) - http://www.bohemiancoding.com/sketch -->
    <title>Icon/Ship</title>
    <desc>Created with Sketch.</desc>
    <defs>
        <polygon id="path-1" points="0 0.0019047619 20 0.0019047619 20 19.0475653 0 19.0475653"></polygon>
    </defs>
    <g id="Icon/Ship" stroke="none" stroke-width="1" fill="none" fill-rule="evenodd">
        <g id="icon/ship">
            <rect id="Rectangle-2" x="0" y="0" width="24" height="24"></rect>
            <g id="Group" transform="translate(2.000000, 2.000000)">
                <polygon id="Fill-1" fill="#009688" points="6.828 5.58104762 13.172 5.58104762 13.172 4.50771429 6.828 4.50771429"></polygon>
                <polygon id="Fill-2" fill="#009688" points="15.8816 10.4754286 9.9996 7.56495238 4.3606 10.4754286 4.3606 7.40019048 15.8816 7.40019048"></polygon>
                <g id="Group-14" transform="translate(0.000000, 0.950571)">
                    <path d="M12.7605,10.1359048 C12.7605,10.1359048 15.2845,11.6197143 15.2865,11.6206667 C15.4685,11.7273333 15.7125,11.6720952 15.8235,11.4997143 C15.9355,11.326381 15.8785,11.094 15.6975,10.9882857 C15.6975,10.9882857 13.1735,9.50447619 13.1705,9.50257143 C12.9895,9.39590476 12.7445,9.45209524 12.6325,9.62352381 C12.5215,9.79590476 12.5795,10.0301905 12.7605,10.1359048" id="Fill-3" fill="#000000"></path>
                    <path d="M11.4324,9.35180952 C11.4924,9.388 11.5624,9.40990476 11.6354,9.40990476 C11.7724,9.40990476 11.8964,9.34419048 11.9674,9.23371429 C12.1194,8.99752381 11.9284,8.66609524 11.6364,8.66514286 C11.3864,8.66514286 11.1984,8.8927619 11.2554,9.1232381 C11.2784,9.21466667 11.3444,9.29847619 11.4324,9.35180952" id="Fill-5" fill="#000000"></path>
                    <path d="M4.7498,11.6769524 C4.8238,11.6788571 4.8958,11.6626667 4.9578,11.6255238 C4.9578,11.6255238 7.4678,10.1179048 7.4698,10.1169524 C7.6498,10.0093333 7.7048,9.77695238 7.5918,9.60457143 C7.4808,9.43695238 7.2278,9.38361905 7.0528,9.48838095 C7.0528,9.48838095 4.5458,10.9940952 4.5408,10.996 C4.3598,11.1045714 4.3058,11.3379048 4.4188,11.5093333 C4.4868,11.6131429 4.6198,11.6731429 4.7498,11.6769524" id="Fill-7" fill="#000000"></path>
                    <path d="M8.5828,9.38161905 C8.7638,9.38161905 8.9238,9.25971429 8.9638,9.09114286 C9.0188,8.86066667 8.8288,8.63780952 8.5818,8.63780952 C8.3998,8.63780952 8.2408,8.7587619 8.2008,8.92638095 C8.1458,9.15685714 8.3368,9.38161905 8.5828,9.38161905" id="Fill-9" fill="#000000"></path>
                    <g id="Group-13">
                        <mask id="mask-2" fill="white">
                            <use xlink:href="#path-1"></use>
                        </mask>
                        <g id="Clip-12"></g>
                        <path d="M9.6092,6.98666667 L9.6092,17.3790476 C9.6092,17.3133333 9.0522,17.1914286 8.9792,17.1761905 C8.2992,17.0361905 7.5702,17.1257143 6.9542,17.4342857 C6.5062,17.6580952 6.0752,17.9190476 5.5632,17.9828571 L5.5602,17.9828571 C5.2612,18.0171429 4.9562,17.9971429 4.6672,17.9171429 L2.5312,11.0714286 L9.6092,6.98666667 Z M4.5312,6.69809524 L8.6012,6.69809524 L4.5312,9.04666667 L4.5312,6.69809524 Z M5.7032,5.95428571 L14.2972,5.95428571 L14.2972,5.21047619 L5.7032,5.21047619 L5.7032,5.95428571 Z M7.3242,4.46571429 L12.6762,4.46571429 L12.6762,3.72190476 L7.3242,3.72190476 L7.3242,4.46571429 Z M9.6092,2.97809524 L10.3902,2.97809524 L10.3902,0.745714286 L9.6092,0.745714286 L9.6092,2.97809524 Z M15.4682,9.04666667 L11.3982,6.69809524 L15.4682,6.69809524 L15.4682,9.04666667 Z M15.5472,17.2285714 C15.5522,17.1133333 14.4532,17.1152381 14.3792,17.1228571 C13.7012,17.1904762 13.1142,17.5228571 12.5152,17.807619 C11.8092,18.1447619 11.0822,18.0466667 10.3902,17.7333333 L10.3902,6.98666667 L17.4692,11.0714286 L15.5472,17.2285714 Z M19.9042,16.9447619 C19.7622,16.7904762 19.5152,16.7733333 19.3532,16.9085714 C18.9362,17.2533333 18.5512,17.6104762 18.0052,17.7552381 C17.3972,17.9152381 16.8202,17.7885714 16.2692,17.5266667 L18.3042,11.0085714 C18.3542,10.8457143 18.2842,10.6714286 18.1322,10.5838095 L16.2502,9.49809524 L16.2502,6.32666667 C16.2502,6.12095238 16.0752,5.95428571 15.8592,5.95428571 L15.0782,5.95428571 L15.0782,4.83809524 C15.0782,4.63238095 14.9032,4.46666667 14.6872,4.46666667 L13.4572,4.46666667 L13.4572,3.35047619 C13.4572,3.1447619 13.2822,2.97809524 13.0662,2.97809524 L11.1712,2.97809524 L11.1712,0.374285714 C11.1712,0.168571429 10.9972,0.0019047619 10.7812,0.0019047619 L9.2182,0.0019047619 C9.0032,0.0019047619 8.8282,0.168571429 8.8282,0.374285714 L8.8282,2.97809524 L6.9332,2.97809524 C6.7172,2.97809524 6.5432,3.1447619 6.5432,3.35047619 L6.5432,4.46666667 L5.3122,4.46666667 C5.0962,4.46666667 4.9222,4.63238095 4.9222,4.83809524 L4.9222,5.95428571 L4.1402,5.95428571 C3.9242,5.95428571 3.7502,6.12095238 3.7502,6.32666667 L3.7502,9.49809524 L1.8682,10.5838095 C1.7152,10.6714286 1.6452,10.8457143 1.6962,11.0085714 C1.6962,11.0085714 3.7252,17.5104762 3.7262,17.5133333 C3.6912,17.4028571 3.0662,17.3285714 2.9562,17.3161905 C1.8182,17.1752381 0.9542,17.7190476 0.1342,18.3961905 C-0.0288,18.5314286 -0.0458,18.7666667 0.0952,18.9209524 C0.2312,19.0695238 0.4822,19.0942857 0.6472,18.9580952 C1.4912,18.2590476 2.4422,17.7266667 3.5592,18.2580952 C4.5702,18.74 5.6152,18.9466667 6.6682,18.4180952 C7.5162,17.9933333 8.3352,17.6257143 9.2822,18.0552381 L10.2552,18.4971429 C11.0882,18.8742857 12.0402,18.8666667 12.8652,18.4733333 C13.3742,18.2314286 13.8902,17.9085714 14.4712,17.8704762 C15.0412,17.8333333 15.5902,18.0352381 16.0912,18.2742857 C16.7522,18.5885714 17.5262,18.6514286 18.2352,18.4590476 C18.8892,18.2809524 19.3652,17.8838095 19.8662,17.4704762 C20.0282,17.3352381 20.0462,17.1 19.9042,16.9447619 Z" id="Fill-11" fill="#000000" mask="url(#mask-2)"></path>
                    </g>
                </g>
            </g>
        </g>
    </g>
</svg>