<?xml version="1.0" encoding="UTF-8"?>
<svg width="24px" height="24px" viewBox="0 0 24 24" version="1.1" xmlns="http://www.w3.org/2000/svg" xmlns:xlink="http://www.w3.org/1999/xlink">
    <!-- Generator: Sketch 52.2 (67145) - http://www.bohemiancoding.com/sketch -->
    <title>Icon/Shuttle</title>
    <desc>Created with Sketch.</desc>
    <defs>
        <polygon id="path-1" points="0 12.9551 22 12.9551 22 0.0001 0 0.0001"></polygon>
    </defs>
    <g id="Icon/Shuttle" stroke="none" stroke-width="1" fill="none" fill-rule="evenodd">
        <g id="Group-18" transform="translate(1.000000, 6.000000)">
            <path d="M16.3496,5.0181 L13.2076,5.0181 L13.2076,10.3111 L14.1826,10.3111 C14.1826,10.3111 14.4776,8.1491 16.3496,8.1441 L16.3496,5.0181 Z" id="Fill-1" fill="#009688"></path>
            <path d="M21.5225,8.9292 L20.7905,8.9292 C20.5835,8.9292 20.4145,8.7612 20.4145,8.5542 L20.4145,7.6332 C20.4145,7.4262 20.5835,7.2572 20.7905,7.2572 L21.5225,7.2572 L21.5225,8.9292 Z" id="Fill-3" fill="#009688"></path>
            <mask id="mask-2" fill="white">
                <use xlink:href="#path-1"></use>
            </mask>
            <g id="Clip-6"></g>
            <polygon id="Fill-5" fill="#000000" mask="url(#mask-2)" points="3.758 5.0191 4.715 5.0191 4.715 0.4781 3.758 0.4781"></polygon>
            <polygon id="Fill-7" fill="#000000" mask="url(#mask-2)" points="9.535 5.0191 10.492 5.0191 10.492 0.4781 9.535 0.4781"></polygon>
            <polygon id="Fill-8" fill="#000000" mask="url(#mask-2)" points="15.871 5.0191 16.828 5.0191 16.828 0.4781 15.871 0.4781"></polygon>
            <path d="M21.5215,10.7886 L18.5155,10.7886 C18.2505,10.7886 18.0375,10.5746 18.0375,10.3106 C18.0375,10.0466 18.2505,9.8326 18.5155,9.8326 L21.0435,9.8326 L21.0435,6.5216 C21.0435,5.9566 20.5845,5.4976 20.0185,5.4976 L19.0475,5.4976 C18.7845,5.4976 18.5705,5.2836 18.5705,5.0186 C18.5705,4.7546 18.7845,4.5406 19.0475,4.5406 L20.0185,4.5406 C21.1115,4.5406 22.0005,5.4296 22.0005,6.5216 L22.0005,10.3106 C22.0005,10.5746 21.7865,10.7886 21.5215,10.7886" id="Fill-9" fill="#000000" mask="url(#mask-2)"></path>
            <path d="M14.1836,10.7886 L7.8176,10.7886 C7.5526,10.7886 7.3386,10.5746 7.3386,10.3106 C7.3386,10.0466 7.5526,9.8326 7.8176,9.8326 L14.1836,9.8326 C14.4486,9.8326 14.6626,10.0466 14.6626,10.3106 C14.6626,10.5746 14.4486,10.7886 14.1836,10.7886" id="Fill-10" fill="#000000" mask="url(#mask-2)"></path>
            <path d="M0.9561,4.5405 L19.5401,4.5405 L19.5401,2.7315 C19.5401,1.7535 18.7441,0.9565 17.7651,0.9565 L1.9821,0.9565 C1.4171,0.9565 0.9561,1.4165 0.9561,1.9805 L0.9561,4.5405 Z M3.4851,10.7885 L1.2301,10.7885 C0.5521,10.7885 0.0001,10.2375 0.0001,9.5605 L0.0001,1.9805 C0.0001,0.8885 0.8901,-0.0005 1.9821,-0.0005 L17.7651,-0.0005 C19.2711,-0.0005 20.4971,1.2255 20.4971,2.7315 L20.4971,5.0195 C20.4971,5.2835 20.2831,5.4975 20.0181,5.4975 L0.9561,5.4975 L0.9561,9.5605 C0.9561,9.7105 1.0791,9.8325 1.2301,9.8325 L3.4851,9.8325 C3.7491,9.8325 3.9641,10.0465 3.9641,10.3115 C3.9641,10.5745 3.7491,10.7885 3.4851,10.7885 Z" id="Fill-11" fill="#000000" mask="url(#mask-2)"></path>
            <path d="M13.208,10.7886 C12.944,10.7886 12.729,10.5746 12.729,10.3106 L12.729,5.0186 C12.729,4.7546 12.944,4.5406 13.208,4.5406 C13.473,4.5406 13.687,4.7546 13.687,5.0186 L13.687,10.3106 C13.687,10.5746 13.473,10.7886 13.208,10.7886" id="Fill-12" fill="#000000" mask="url(#mask-2)"></path>
            <path d="M16.3496,8.6226 C16.0846,8.6226 15.8706,8.4086 15.8706,8.1436 L15.8706,5.0186 C15.8706,4.7546 16.0846,4.5406 16.3496,4.5406 C16.6146,4.5406 16.8286,4.7546 16.8286,5.0186 L16.8286,8.1436 C16.8286,8.4086 16.6146,8.6226 16.3496,8.6226" id="Fill-13" fill="#000000" mask="url(#mask-2)"></path>
            <path d="M5.6514,8.6226 C4.7204,8.6226 3.9644,9.3806 3.9644,10.3106 C3.9644,11.2406 4.7204,11.9986 5.6514,11.9986 C6.5824,11.9986 7.3384,11.2406 7.3384,10.3106 C7.3384,9.3806 6.5824,8.6226 5.6514,8.6226 M5.6514,12.9546 C4.1934,12.9546 3.0064,11.7686 3.0064,10.3106 C3.0064,8.8516 4.1934,7.6666 5.6514,7.6666 C7.1094,7.6666 8.2964,8.8516 8.2964,10.3106 C8.2964,11.7686 7.1094,12.9546 5.6514,12.9546" id="Fill-14" fill="#000000" mask="url(#mask-2)"></path>
            <path d="M6.0273,10.3111 C6.0273,10.5181 5.8583,10.6861 5.6513,10.6861 C5.4433,10.6861 5.2753,10.5181 5.2753,10.3111 C5.2753,10.1031 5.4433,9.9351 5.6513,9.9351 C5.8583,9.9351 6.0273,10.1031 6.0273,10.3111" id="Fill-15" fill="#000000" mask="url(#mask-2)"></path>
            <path d="M16.3496,8.6226 C15.4186,8.6226 14.6626,9.3806 14.6626,10.3106 C14.6626,11.2406 15.4186,11.9986 16.3496,11.9986 C17.2806,11.9986 18.0366,11.2406 18.0366,10.3106 C18.0366,9.3806 17.2806,8.6226 16.3496,8.6226 M16.3496,12.9546 C14.8916,12.9546 13.7046,11.7686 13.7046,10.3106 C13.7046,8.8516 14.8916,7.6666 16.3496,7.6666 C17.8076,7.6666 18.9946,8.8516 18.9946,10.3106 C18.9946,11.7686 17.8076,12.9546 16.3496,12.9546" id="Fill-16" fill="#000000" mask="url(#mask-2)"></path>
            <path d="M16.7256,10.3111 C16.7256,10.5181 16.5566,10.6861 16.3496,10.6861 C16.1416,10.6861 15.9736,10.5181 15.9736,10.3111 C15.9736,10.1031 16.1416,9.9351 16.3496,9.9351 C16.5566,9.9351 16.7256,10.1031 16.7256,10.3111" id="Fill-17" fill="#000000" mask="url(#mask-2)"></path>
        </g>
    </g>
</svg>