<svg xmlns="http://www.w3.org/2000/svg" viewBox="0 0 28.97 23"><defs/><title>Sightseeing_icon</title><g id="Layer_2"><g id="Sightsigth"><path class="cls-sightseeing1" d="M12,19.5H2L2.93,8.75a1,1,0,0,1,1-.93H11Z" style="fill: none; stroke: #000; stroke-linecap: round; stroke-linejoin: round;"/><path class="cls-sightseeing1" d="M24.46,7.82h-20V3.5a1,1,0,0,1,1-1h18a1,1,0,0,1,1,1V7.82Z" style="fill: none; stroke: #000; stroke-linecap: round; stroke-linejoin: round;"/><rect class="cls-sightseeing1" x="0.5" y="19.5" width="13" height="3" rx="1" ry="1" style="fill: none; stroke: #000; stroke-linecap: round; stroke-linejoin: round;"/><path class="cls-sightseeing1" d="M27,19.5H17L18,7.82H25a1,1,0,0,1,1,.93Z" style="fill: none; stroke: #000; stroke-linecap: round; stroke-linejoin: round;"/><rect class="cls-sightseeing1" x="15.47" y="19.5" width="13" height="3" rx="1" ry="1" style="fill: none; stroke: #000; stroke-linecap: round; stroke-linejoin: round;"/><rect class="cls-sightseeing2" x="9.22" y="5.99" width="10.08" height="3.75" rx="1.87" ry="1.87" style="stroke: #000; stroke-linecap: round; stroke-linejoin: round; fill: #009688;"/><path class="cls-sightseeing1" d="M10.13,2.5h-4V.5h4v2Z" style="fill: none; stroke: #000; stroke-linecap: round; stroke-linejoin: round;"/><path class="cls-sightseeing1" d="M22.88,2.5h-4V.5h4v2Z" style="fill: none; stroke: #000; stroke-linecap: round; stroke-linejoin: round;"/><line class="cls-sightseeing1" x1="4.47" y1="19.5" x2="4.47" y2="22.29" style="fill: none; stroke: #000; stroke-linecap: round; stroke-linejoin: round;"/><line class="cls-sightseeing1" x1="24.47" y1="19.5" x2="24.47" y2="22.29" style="fill: none; stroke: #000; stroke-linecap: round; stroke-linejoin: round;"/></g></g></svg>
