<?xml version="1.0" encoding="UTF-8"?>
<svg width="24px" height="24px" viewBox="0 0 24 24" version="1.1" xmlns="http://www.w3.org/2000/svg" xmlns:xlink="http://www.w3.org/1999/xlink">
    <!-- Generator: Sketch 52.2 (67145) - http://www.bohemiancoding.com/sketch -->
    <title>Icon/Smoke Free</title>
    <desc>Created with Sketch.</desc>
    <defs>
        <polygon id="path-1" points="0.1491 0.365 19.7841 0.365 19.7841 20 0.1491 20"></polygon>
        <polygon id="path-3" points="0 20.6347 20 20.6347 20 0.9997 0 0.9997"></polygon>
    </defs>
    <g id="Icon/Smoke-Free" stroke="none" stroke-width="1" fill="none" fill-rule="evenodd">
        <g id="Group-11" transform="translate(2.000000, 2.000000)">
            <g id="Group-3" transform="translate(0.000000, 0.634700)">
                <mask id="mask-2" fill="white">
                    <use xlink:href="#path-1"></use>
                </mask>
                <g id="Clip-2"></g>
                <path d="M19.2676,20 C19.1346,20 19.0026,19.949 18.9026,19.849 L0.3006,1.247 C0.0986,1.046 0.0986,0.719 0.3006,0.517 C0.5026,0.314 0.8296,0.314 1.0316,0.517 L19.6326,19.118 C19.8346,19.319 19.8346,19.646 19.6326,19.849 C19.5326,19.949 19.3996,20 19.2676,20" id="Fill-1" fill="#000000" mask="url(#mask-2)"></path>
            </g>
            <path d="M6.4277,11.3017 L6.4277,14.4637 L0.8887,14.4637 C0.6817,14.4637 0.5167,14.2987 0.5167,14.0917 L0.5167,11.6737 C0.5167,11.4667 0.6817,11.3017 0.8887,11.3017 L6.4277,11.3017 Z" id="Fill-4" fill="#009587"></path>
            <mask id="mask-4" fill="white">
                <use xlink:href="#path-3"></use>
            </mask>
            <g id="Clip-7"></g>
            <path d="M1.033,13.9487 L5.911,13.9487 L5.911,11.8187 L1.033,11.8187 L1.033,13.9487 Z M6.944,14.9817 L0.888,14.9817 C0.398,14.9817 0,14.5827 0,14.0917 L0,11.6737 C0,11.1837 0.398,10.7847 0.888,10.7847 L6.944,10.7847 L6.944,14.9817 Z" id="Fill-6" fill="#000000" mask="url(#mask-4)"></path>
            <path d="M1.033,13.9487 L18.901,13.9487 L18.901,11.8187 L1.033,11.8187 L1.033,13.9487 Z M19.418,14.9817 L0.888,14.9817 C0.398,14.9817 0,14.5827 0,14.0917 L0,11.6737 C0,11.1837 0.398,10.7847 0.888,10.7847 L19.418,10.7847 C19.703,10.7847 19.935,11.0167 19.935,11.3017 L19.935,14.4647 C19.935,14.7497 19.703,14.9817 19.418,14.9817 Z" id="Fill-8" fill="#000000" mask="url(#mask-4)"></path>
            <path d="M17.3291,14.9814 C17.0431,14.9814 16.8111,14.7504 16.8111,14.4644 L16.8111,11.3034 C16.8111,11.0184 17.0431,10.7874 17.3291,10.7874 C17.6141,10.7874 17.8461,11.0184 17.8461,11.3034 L17.8461,14.4644 C17.8461,14.7504 17.6141,14.9814 17.3291,14.9814" id="Fill-9" fill="#000000" mask="url(#mask-4)"></path>
            <path d="M17.5713,9.4433 C17.2853,9.4433 17.0533,9.2123 17.0533,8.9253 C17.0533,8.0903 17.7603,7.6983 18.2763,7.4103 C18.7063,7.1723 18.9673,7.0113 18.9673,6.7993 C18.9673,6.5873 18.7053,6.4263 18.2753,6.1873 C17.7603,5.9003 17.0533,5.5083 17.0533,4.6733 C17.0533,3.8393 17.7603,3.4463 18.2763,3.1603 C18.7063,2.9223 18.9673,2.7613 18.9673,2.5493 C18.9673,2.2643 19.1973,2.0333 19.4833,2.0333 C19.7683,2.0333 20.0003,2.2643 20.0003,2.5493 C20.0003,3.3843 19.2943,3.7773 18.7783,4.0633 C18.3473,4.3013 18.0883,4.4623 18.0883,4.6733 C18.0883,4.8853 18.3473,5.0463 18.7783,5.2843 C19.2943,5.5713 20.0003,5.9643 20.0003,6.7993 C20.0003,7.6353 19.2943,8.0273 18.7793,8.3133 C18.3483,8.5523 18.0883,8.7133 18.0883,8.9253 C18.0883,9.2123 17.8563,9.4433 17.5713,9.4433" id="Fill-10" fill="#000000" mask="url(#mask-4)"></path>
        </g>
    </g>
</svg>