<?xml version="1.0" encoding="UTF-8"?>
<svg width="24px" height="24px" viewBox="0 0 24 24" version="1.1" xmlns="http://www.w3.org/2000/svg" xmlns:xlink="http://www.w3.org/1999/xlink">
    <!-- Generator: Sketch 52.2 (67145) - http://www.bohemiancoding.com/sketch -->
    <title>Icon/Spa/2</title>
    <desc>Created with Sketch.</desc>
    <defs>
        <polygon id="path-1" points="0 0.7267 11.8247 0.7267 11.8247 13.6117 0 13.6117"></polygon>
        <polygon id="path-3" points="0.152 0.796926701 4.469 0.796926701 4.469 8 0.152 8"></polygon>
        <polygon id="path-5" points="0 0.3575 5.4906 0.3575 5.4906 1.4065 0 1.4065"></polygon>
    </defs>
    <g id="Icon/Spa/2" stroke="none" stroke-width="1" fill="none" fill-rule="evenodd">
        <g id="Group-54" transform="translate(2.000000, 1.000000)">
            <g id="Group-3" transform="translate(0.000000, 7.000000)">
                <mask id="mask-2" fill="white">
                    <use xlink:href="#path-1"></use>
                </mask>
                <g id="Clip-2"></g>
                <path d="M1.0487,12.5627 L10.7767,12.5627 L10.7767,3.9437 C10.7767,2.7487 9.8027,1.7747 8.6067,1.7747 L3.2187,1.7747 C2.0227,1.7747 1.0487,2.7487 1.0487,3.9437 L1.0487,12.5627 Z M11.3007,13.6117 L0.5247,13.6117 C0.2347,13.6117 -0.0003,13.3767 -0.0003,13.0867 L-0.0003,3.9437 C-0.0003,2.1687 1.4447,0.7267 3.2187,0.7267 L8.6067,0.7267 C10.3817,0.7267 11.8247,2.1687 11.8247,3.9437 L11.8247,13.0867 C11.8247,13.3767 11.5907,13.6117 11.3007,13.6117 Z" id="Fill-1" fill="#000000" mask="url(#mask-2)"></path>
            </g>
            <path d="M5.9129,1.6145 C5.0899,3.1935 4.1269,5.2665 4.1269,5.9615 C4.1269,6.9465 4.9279,7.7475 5.9129,7.7475 C6.8969,7.7475 7.6979,6.9465 7.6979,5.9615 C7.6979,5.2655 6.7359,3.1935 5.9129,1.6145 M5.9129,8.7955 C4.3499,8.7955 3.0779,7.5235 3.0779,5.9615 C3.0779,4.5905 5.2099,0.6905 5.4539,0.2505 C5.6389,-0.0835 6.1869,-0.0835 6.3709,0.2505 C6.6149,0.6905 8.7469,4.5905 8.7469,5.9615 C8.7469,7.5235 7.4749,8.7955 5.9129,8.7955" id="Fill-4" fill="#000000"></path>
            <path d="M13.4881,15.177 C13.4381,15.215 13.3821,15.257 13.3281,15.295 C13.3241,15.295 13.3201,15.299 13.3161,15.299 L13.3121,15.307 L13.3081,15.307 C13.3051,15.303 13.2981,15.299 13.2941,15.295 C13.2321,15.257 13.1761,15.211 13.1221,15.169 C13.1831,15.196 13.2481,15.227 13.3081,15.257 L13.3161,15.257 C13.3741,15.227 13.4301,15.199 13.4881,15.177" id="Fill-6" fill="#009688"></path>
            <path d="M13.3133,15.8303 C13.1993,15.8303 13.0843,15.7933 12.9953,15.7263 C12.9463,15.6973 12.8783,15.6443 12.8163,15.5953 C12.6093,15.4313 12.5463,15.1323 12.6833,14.9053 C12.8153,14.6843 13.0803,14.5893 13.3163,14.6823 C13.5513,14.5983 13.8193,14.6963 13.9443,14.9193 C14.0733,15.1453 14.0143,15.4333 13.8083,15.5933 L13.6323,15.7223 C13.6173,15.7333 13.6003,15.7433 13.5833,15.7523 C13.5033,15.8023 13.4103,15.8303 13.3133,15.8303" id="Fill-8" fill="#000000"></path>
            <path d="M14.9442,12.2219 C14.9442,12.3059 14.9402,12.3899 14.9362,12.4739 C13.9762,13.1219 13.4042,14.1589 13.3162,15.2569 L13.3082,15.2569 C13.2482,15.2269 13.1832,15.1959 13.1222,15.1689 C13.1182,15.1689 13.1142,15.1689 13.1142,15.1649 C12.3022,14.5289 11.7562,13.5639 11.6842,12.4739 C11.6802,12.3899 11.6762,12.3059 11.6762,12.2219 C11.6762,10.9409 12.3252,9.8089 13.3082,9.1379 C14.2972,9.8089 14.9442,10.9409 14.9442,12.2219" id="Fill-10" fill="#009688"></path>
            <path d="M13.3083,9.7979 C12.6093,10.4039 12.2013,11.2859 12.2013,12.2219 C12.2013,12.2979 12.2053,12.3719 12.2083,12.4489 C12.2533,13.1289 12.5233,13.7799 12.9663,14.3019 C13.2213,13.4709 13.7243,12.7389 14.4193,12.2019 C14.4143,11.2719 14.0043,10.3979 13.3083,9.7979 Z M13.3163,15.7819 C13.2353,15.7819 13.1473,15.7619 13.0743,15.7259 L12.9163,15.6519 C12.8723,15.6319 12.8303,15.6079 12.7913,15.5779 C11.8353,14.8289 11.2413,13.7109 11.1623,12.5089 C11.1563,12.4079 11.1523,12.3139 11.1523,12.2219 C11.1523,10.8139 11.8473,9.4989 13.0133,8.7039 C13.1913,8.5829 13.4243,8.5809 13.6033,8.7039 C14.7713,9.4969 15.4683,10.8129 15.4683,12.2219 C15.4683,12.3139 15.4653,12.4079 15.4593,12.4989 C15.4533,12.6639 15.3673,12.8159 15.2303,12.9079 C14.4233,13.4529 13.9163,14.3249 13.8383,15.2989 C13.8173,15.5719 13.5893,15.7819 13.3163,15.7819 Z" id="Fill-12" fill="#000000"></path>
            <path d="M13.3123,15.2727 L13.3123,15.2877 L13.3083,15.2877 C13.3053,15.2917 13.2973,15.2947 13.2933,15.2947 C13.2323,15.2567 13.1753,15.2107 13.1223,15.1687 C13.1833,15.1957 13.2483,15.2267 13.3083,15.2567 C13.3083,15.2607 13.3123,15.2687 13.3123,15.2727" id="Fill-14" fill="#009688"></path>
            <path d="M13.2933,15.8194 C13.1963,15.8194 13.1013,15.7924 13.0183,15.7414 C12.9463,15.6974 12.8783,15.6444 12.8163,15.5954 C12.6093,15.4314 12.5463,15.1324 12.6833,14.9054 C12.8193,14.6814 13.0943,14.5854 13.3343,14.6884 C13.4023,14.7194 13.4743,14.7534 13.5433,14.7884 C13.6813,14.8574 13.7803,14.9824 13.8173,15.1284 C13.8303,15.1754 13.8363,15.2254 13.8363,15.2724 L13.8363,15.2874 C13.8363,15.5244 13.6803,15.7244 13.4653,15.7894 C13.4093,15.8084 13.3503,15.8194 13.2933,15.8194 Z" id="Fill-16" fill="#000000"></path>
            <path d="M13.2938,15.2952 C12.2908,15.7682 11.0938,15.7942 10.0378,15.2732 L10.0338,15.2732 C9.9648,15.2342 9.8928,15.1992 9.8238,15.1572 C8.7148,14.5182 8.0588,13.3892 7.9678,12.2032 C9.0428,11.6812 10.3468,11.6892 11.4558,12.3282 C11.5358,12.3742 11.6118,12.4242 11.6848,12.4742 C11.7568,13.5642 12.3028,14.5282 13.1138,15.1652 C13.1138,15.1692 13.1178,15.1692 13.1218,15.1692 C13.1758,15.2112 13.2318,15.2572 13.2938,15.2952" id="Fill-18" fill="#009688"></path>
            <path d="M10.201,14.7747 C10.224,14.7817 10.247,14.7917 10.269,14.8017 C10.893,15.1107 11.588,15.2037 12.259,15.0827 C11.678,14.4407 11.302,13.6377 11.188,12.7797 C10.374,12.3127 9.408,12.2247 8.539,12.5327 C8.717,13.4427 9.276,14.2377 10.087,14.7037 L10.203,14.7677 L10.201,14.7747 Z M11.683,16.1827 C11.052,16.1827 10.421,16.0417 9.837,15.7577 C9.817,15.7497 9.799,15.7417 9.78,15.7307 C9.66,15.6677 9.604,15.6377 9.551,15.6047 C8.346,14.9097 7.553,13.6517 7.444,12.2447 C7.427,12.0297 7.544,11.8267 7.737,11.7327 C9.006,11.1137 10.492,11.1677 11.718,11.8747 C11.807,11.9257 11.894,11.9837 11.978,12.0397 C12.113,12.1297 12.197,12.2777 12.208,12.4387 C12.267,13.3317 12.703,14.1627 13.405,14.7277 C13.42,14.7367 13.433,14.7477 13.447,14.7567 C13.499,14.7977 13.532,14.8257 13.569,14.8487 C13.733,14.9497 13.828,15.1317 13.817,15.3247 C13.806,15.5157 13.691,15.6867 13.517,15.7687 C12.932,16.0457 12.307,16.1827 11.683,16.1827 Z" id="Fill-20" fill="#000000"></path>
            <path d="M13.3123,15.2571 L13.3123,15.2761 C13.3123,15.2791 13.3083,15.2831 13.3083,15.2871 L13.3083,15.3071 C13.3053,15.3031 13.2973,15.2991 13.2933,15.2951 C13.2323,15.2571 13.1753,15.2111 13.1223,15.1691 C13.1833,15.1951 13.2483,15.2271 13.3083,15.2571 L13.3123,15.2571 Z" id="Fill-22" fill="#009688"></path>
            <path d="M13.2967,15.8254 C13.1897,15.8254 13.0837,15.7924 12.9947,15.7254 C12.9457,15.6974 12.8787,15.6444 12.8167,15.5954 C12.6097,15.4304 12.5467,15.1324 12.6837,14.9054 C12.8187,14.6804 13.0947,14.5854 13.3337,14.6884 C13.3957,14.7164 13.4607,14.7474 13.5247,14.7774 C13.7067,14.8594 13.8367,15.0444 13.8367,15.2574 L13.8367,15.2764 C13.8367,15.3294 13.8277,15.3844 13.8127,15.4344 C13.7717,15.5764 13.6767,15.6994 13.5437,15.7654 C13.4657,15.8044 13.3807,15.8254 13.2967,15.8254" id="Fill-24" fill="#000000"></path>
            <path d="M18.6541,12.2034 C18.5661,13.3894 17.9111,14.5174 16.8011,15.1574 C16.7321,15.1994 16.6601,15.2344 16.5911,15.2724 C15.5891,14.7724 14.4601,14.7654 13.4881,15.1774 C13.4301,15.1994 13.3741,15.2264 13.3161,15.2574 C13.4041,14.1594 13.9761,13.1224 14.9361,12.4744 C15.0091,12.4244 15.0861,12.3744 15.1661,12.3284 C16.2751,11.6884 17.5791,11.6814 18.6541,12.2034" id="Fill-26" fill="#009688"></path>
            <path d="M14.9344,14.3567 C15.4904,14.3567 16.0454,14.4657 16.5704,14.6857 C17.3684,14.2097 17.9134,13.4247 18.0824,12.5327 C17.2094,12.2247 16.2424,12.3137 15.4274,12.7837 C15.3594,12.8217 15.2934,12.8667 15.2314,12.9077 C14.6654,13.2907 14.2474,13.8317 14.0204,14.4577 C14.3204,14.3907 14.6274,14.3567 14.9344,14.3567 M13.3164,15.7817 C13.2154,15.7817 13.1154,15.7527 13.0294,15.6957 C12.8694,15.5907 12.7784,15.4067 12.7934,15.2147 C12.8974,13.9207 13.5724,12.7627 14.6444,12.0397 C14.7264,11.9837 14.8124,11.9267 14.9034,11.8747 C16.1254,11.1677 17.6154,11.1137 18.8834,11.7327 C19.0764,11.8257 19.1934,12.0287 19.1774,12.2417 C19.0744,13.6487 18.2834,14.9077 17.0644,15.6117 C17.0224,15.6377 16.9654,15.6677 16.9104,15.6967 C16.7614,15.7767 16.5084,15.8167 16.3584,15.7417 C15.5224,15.3277 14.5504,15.2947 13.6934,15.6597 C13.6404,15.6797 13.6024,15.6987 13.5644,15.7187 C13.4864,15.7607 13.4014,15.7817 13.3164,15.7817" id="Fill-28" fill="#000000"></path>
            <path d="M13.4881,15.177 C13.4381,15.215 13.3821,15.257 13.3281,15.295 C13.3241,15.291 13.3201,15.291 13.3161,15.287 L13.3121,15.287 L13.3121,15.273 C13.3121,15.269 13.3161,15.261 13.3161,15.257 C13.3741,15.227 13.4301,15.199 13.4881,15.177" id="Fill-30" fill="#009688"></path>
            <path d="M13.328,15.8196 C13.239,15.8196 13.15,15.7976 13.071,15.7516 C12.903,15.6636 12.789,15.4896 12.789,15.2876 C12.789,15.2626 12.791,15.2326 12.795,15.2026 C12.812,15.0306 12.915,14.8776 13.068,14.7956 C13.144,14.7546 13.221,14.7186 13.297,14.6886 C13.538,14.5956 13.814,14.6916 13.944,14.9196 C14.073,15.1456 14.015,15.4326 13.808,15.5926 L13.633,15.7216 C13.541,15.7866 13.434,15.8196 13.328,15.8196" id="Fill-32" fill="#000000"></path>
            <path d="M18.6541,18.3411 C17.5831,18.8571 16.2751,18.8531 15.1661,18.2121 C15.0861,18.1661 15.0061,18.1161 14.9291,18.0601 C14.8301,16.9191 14.2131,15.9201 13.3161,15.3111 L13.3161,15.2991 C13.3201,15.2991 13.3241,15.2951 13.3281,15.2951 C13.3821,15.2571 13.4381,15.2151 13.4881,15.1771 C14.4601,14.7651 15.5891,14.7731 16.5911,15.2731 C16.6601,15.3071 16.7321,15.3411 16.8011,15.3831 C17.9111,16.0241 18.5661,17.1481 18.6541,18.3411" id="Fill-34" fill="#009688"></path>
            <path d="M15.4207,17.7542 C15.4227,17.7552 15.4257,17.7562 15.4277,17.7592 C16.2377,18.2262 17.2087,18.3132 18.0827,18.0112 C17.9097,17.1002 17.3507,16.3062 16.5397,15.8362 C16.4807,15.8012 16.4287,15.7762 16.3807,15.7522 C15.7227,15.4242 14.9987,15.3282 14.3087,15.4702 C14.9027,16.0972 15.2927,16.8902 15.4207,17.7542 M17.0307,19.2362 C16.2947,19.2362 15.5607,19.0452 14.9027,18.6672 C14.8057,18.6102 14.7087,18.5502 14.6147,18.4802 C14.4957,18.3912 14.4187,18.2542 14.4057,18.1052 C14.3237,17.1482 13.8187,16.2872 13.0217,15.7432 C12.8777,15.6462 12.7917,15.4832 12.7917,15.3102 C12.7917,15.1232 12.8907,14.9522 13.0387,14.8582 L13.1677,14.7612 C13.2027,14.7342 13.2417,14.7122 13.2827,14.6942 C14.4267,14.2102 15.7177,14.2492 16.8247,14.8032 C16.9197,14.8502 16.9987,14.8892 17.0747,14.9362 C18.2837,15.6332 19.0737,16.8952 19.1777,18.3032 C19.1927,18.5182 19.0747,18.7202 18.8817,18.8142 C18.2947,19.0962 17.6617,19.2362 17.0307,19.2362" id="Fill-36" fill="#000000"></path>
            <path d="M13.4881,15.177 C13.4381,15.215 13.3821,15.257 13.3281,15.295 C13.3241,15.295 13.3201,15.299 13.3161,15.299 L13.3161,15.287 C13.3161,15.283 13.3121,15.28 13.3121,15.276 L13.3121,15.257 L13.3161,15.257 C13.3741,15.227 13.4301,15.199 13.4881,15.177" id="Fill-38" fill="#009688"></path>
            <path d="M13.3163,15.8235 C13.0453,15.8235 12.8213,15.6175 12.7953,15.3515 C12.7913,15.3265 12.7893,15.3015 12.7893,15.2765 C12.7893,15.0745 12.9023,14.8905 13.0693,14.7975 L13.0683,14.7955 C13.1443,14.7545 13.2203,14.7195 13.2963,14.6885 C13.5383,14.5955 13.8143,14.6915 13.9443,14.9195 C14.0733,15.1455 14.0143,15.4325 13.8083,15.5935 L13.6323,15.7215 C13.5883,15.7535 13.5403,15.7775 13.4903,15.7935 C13.4333,15.8125 13.3733,15.8235 13.3163,15.8235" id="Fill-40" fill="#000000"></path>
            <path d="M14.9442,18.3909 C14.9442,19.6719 14.2972,20.8049 13.3122,21.4759 C12.3252,20.8049 11.6762,19.6719 11.6762,18.3909 C11.6762,18.2809 11.6802,18.1739 11.6922,18.0629 L11.6922,18.0599 C12.6412,17.4149 13.2102,16.3889 13.3082,15.3109 L13.3082,15.3069 L13.3122,15.3069 C13.3122,15.3069 13.3162,15.3069 13.3162,15.3109 C14.2132,15.9199 14.8302,16.9189 14.9292,18.0599 C14.9402,18.1699 14.9442,18.2809 14.9442,18.3909" id="Fill-42" fill="#009688"></path>
            <g id="Group-46" transform="translate(11.000000, 14.000000)">
                <mask id="mask-4" fill="white">
                    <use xlink:href="#path-3"></use>
                </mask>
                <g id="Clip-45"></g>
                <path d="M1.201,4.3372 L1.201,4.3922 C1.201,5.3282 1.61,6.2102 2.312,6.8162 C3.012,6.2092 3.42,5.3272 3.42,4.3922 C3.42,4.3002 3.418,4.2092 3.408,4.1182 C3.348,3.4272 3.075,2.7922 2.635,2.2872 C2.37,3.1082 1.876,3.8152 1.201,4.3372 M2.313,8.0002 C2.211,8.0002 2.107,7.9702 2.018,7.9092 C0.849,7.1162 0.152,5.8012 0.152,4.3922 C0.152,4.2642 0.157,4.1392 0.171,4.0092 C0.171,3.8362 0.254,3.7242 0.397,3.6262 C1.191,3.0862 1.698,2.2252 1.787,1.2622 C1.82,0.8812 2.316,0.6722 2.611,0.8772 C3.671,1.5992 4.342,2.7422 4.451,4.0152 C4.465,4.1312 4.469,4.2612 4.469,4.3922 C4.469,5.7992 3.773,7.1142 2.609,7.9082 C2.519,7.9692 2.417,8.0002 2.313,8.0002" id="Fill-44" fill="#000000" mask="url(#mask-4)"></path>
            </g>
            <path d="M13.3084,15.3069 L13.3084,15.3109 C13.2094,16.3889 12.6414,17.4149 11.6924,18.0599 L11.6924,18.0629 C11.6164,18.1169 11.5364,18.1659 11.4554,18.2119 C10.3464,18.8529 9.0424,18.8569 7.9704,18.3409 C8.0584,17.1479 8.7144,16.0239 9.8244,15.3829 C9.8924,15.3409 9.9644,15.3069 10.0344,15.2729 L10.0374,15.2729 C11.0934,15.7939 12.2904,15.7679 13.2934,15.2949 C13.2974,15.2989 13.3054,15.3029 13.3084,15.3069" id="Fill-47" fill="#009688"></path>
            <path d="M8.5418,18.011 C9.4188,18.314 10.3848,18.226 11.1928,17.759 C11.2488,17.727 11.3018,17.696 11.3528,17.66 C11.3658,17.648 11.3818,17.637 11.3968,17.626 C11.9568,17.245 12.3738,16.705 12.6028,16.082 C11.7528,16.273 10.8668,16.195 10.0548,15.856 C9.2568,16.332 8.7128,17.116 8.5418,18.011 M9.5928,19.237 C8.9618,19.237 8.3298,19.096 7.7428,18.814 C7.5488,18.72 7.4328,18.518 7.4468,18.302 C7.5518,16.894 8.3428,15.632 9.5628,14.928 C9.6268,14.889 9.7068,14.85 9.7828,14.812 C9.9268,14.74 10.1238,14.731 10.2698,14.802 C11.1498,15.239 12.1728,15.244 13.0688,14.821 C13.2708,14.726 13.5078,14.769 13.6638,14.924 C13.7968,15.024 13.8328,15.141 13.8328,15.306 L13.8328,15.31 C13.7158,16.615 13.0608,17.745 12.0298,18.463 C12.0198,18.472 12.0088,18.481 11.9968,18.489 C11.9068,18.554 11.8118,18.613 11.7148,18.668 C11.0608,19.046 10.3278,19.237 9.5928,19.237" id="Fill-49" fill="#000000"></path>
            <g id="Group-53" transform="translate(0.000000, 14.000000)">
                <mask id="mask-6" fill="white">
                    <use xlink:href="#path-5"></use>
                </mask>
                <g id="Clip-52"></g>
                <path d="M4.9666,1.4065 L0.5246,1.4065 C0.2346,1.4065 -0.0004,1.1725 -0.0004,0.8825 C-0.0004,0.5925 0.2346,0.3575 0.5246,0.3575 L4.9666,0.3575 C5.2556,0.3575 5.4906,0.5925 5.4906,0.8825 C5.4906,1.1725 5.2556,1.4065 4.9666,1.4065" id="Fill-51" fill="#000000" mask="url(#mask-6)"></path>
            </g>
        </g>
    </g>
</svg>