<?xml version="1.0" encoding="UTF-8"?>
<svg width="10px" height="10px" viewBox="0 0 10 10" version="1.1" xmlns="http://www.w3.org/2000/svg" xmlns:xlink="http://www.w3.org/1999/xlink">
    <!-- Generator: Sketch 43.2 (39069) - http://www.bohemiancoding.com/sketch -->
    <title>Shape Copy 3</title>
    <desc>Created with Sketch.</desc>
    <defs/>
    <g id="Welcome" stroke="none" stroke-width="1" fill="none" fill-rule="evenodd">
        <g id="Package_Lsiting_page" transform="translate(-190.000000, -1442.000000)" fill="#FAC22E">
            <g id="Group-3" transform="translate(8.000000, 158.000000)">
                <g id="largest-travel-marketplace" transform="translate(0.000000, 1104.000000)">
                    <g id="stars" transform="translate(137.000000, 180.000000)">
                        <path d="M50.4827932,0.313927365 L51.6106665,2.70363604 C51.6890982,2.86984251 51.8407468,2.98500919 52.0161752,3.01161967 L54.5382977,3.39485426 C54.980102,3.46203483 55.1563648,4.02957973 54.8367972,4.35523098 L53.0117993,6.21534741 C52.8849735,6.34469181 52.8269841,6.53118331 52.8570218,6.71374868 L53.2877705,9.34033428 C53.3632819,9.80034666 52.9014525,10.1510816 52.5063735,9.93405343 L50.2506269,8.69404852 C50.0937635,8.60789163 49.9062365,8.60789163 49.7493731,8.69404852 L47.4936265,9.93405343 C47.0985475,10.1512997 46.6367181,9.80034666 46.7122295,9.34033428 L47.1429782,6.71374868 C47.1730159,6.53118331 47.1150265,6.34469181 46.9882007,6.21534741 L45.1632028,4.35523098 C44.8436352,4.02936161 45.019898,3.46181671 45.4617023,3.39485426 L47.9838248,3.01161967 C48.1592532,2.98500919 48.3109018,2.86984251 48.3893335,2.70363604 L49.5172068,0.313927365 C49.7145377,-0.104642455 50.2852537,-0.104642455 50.4827932,0.313927365 Z" id="Shape-Copy-3"/>
                    </g>
                </g>
            </g>
        </g>
    </g>
</svg>
