<?xml version="1.0" encoding="UTF-8"?>
<svg width="10px" height="10px" viewBox="0 0 10 10" version="1.1" xmlns="http://www.w3.org/2000/svg" xmlns:xlink="http://www.w3.org/1999/xlink">
    <!-- Generator: Sketch 43.2 (39069) - http://www.bohemiancoding.com/sketch -->
    <title>star_inactive</title>
    <desc>Created with Sketch.</desc>
    <defs/>
    <g id="Welcome" stroke="none" stroke-width="1" fill="none" fill-rule="evenodd">
        <g id="Package_Lsiting_page" transform="translate(-205.000000, -1442.000000)" fill="#D4D4D4">
            <g id="Group-3" transform="translate(8.000000, 158.000000)">
                <g id="largest-travel-marketplace" transform="translate(0.000000, 1104.000000)">
                    <g id="stars" transform="translate(137.000000, 180.000000)">
                        <path d="M65.4827932,0.313927365 L66.6106665,2.70363604 C66.6890982,2.86984251 66.8407468,2.98500919 67.0161752,3.01161967 L69.5382977,3.39485426 C69.980102,3.46203483 70.1563648,4.02957973 69.8367972,4.35523098 L68.0117993,6.21534741 C67.8849735,6.34469181 67.8269841,6.53118331 67.8570218,6.71374868 L68.2877705,9.34033428 C68.3632819,9.80034666 67.9014525,10.1510816 67.5063735,9.93405343 L65.2506269,8.69404852 C65.0937635,8.60789163 64.9062365,8.60789163 64.7493731,8.69404852 L62.4936265,9.93405343 C62.0985475,10.1512997 61.6367181,9.80034666 61.7122295,9.34033428 L62.1429782,6.71374868 C62.1730159,6.53118331 62.1150265,6.34469181 61.9882007,6.21534741 L60.1632028,4.35523098 C59.8436352,4.02936161 60.019898,3.46181671 60.4617023,3.39485426 L62.9838248,3.01161967 C63.1592532,2.98500919 63.3109018,2.86984251 63.3893335,2.70363604 L64.5172068,0.313927365 C64.7145377,-0.104642455 65.2852537,-0.104642455 65.4827932,0.313927365 Z" id="star_inactive"/>
                    </g>
                </g>
            </g>
        </g>
    </g>
</svg>