<?xml version="1.0" encoding="UTF-8"?>
<svg width="215px" height="135px" viewBox="0 0 215 135" version="1.1" xmlns="http://www.w3.org/2000/svg" xmlns:xlink="http://www.w3.org/1999/xlink">
    <!-- Generator: Sketch 55.1 (78136) - https://sketchapp.com -->
    <title>Group 96</title>
    <desc>Created with Sketch.</desc>
    <defs>
        <polygon id="path-1" points="0 0.7206 18.5537 0.7206 18.5537 28.0336 0 28.0336"></polygon>
    </defs>
    <g id="Group-96" stroke="none" stroke-width="1" fill="none" fill-rule="evenodd">
        <g transform="translate(15.000000, 0.000000)">
            <path d="M113.3096,39.3372 C93.8806,39.3372 71.9536,36.0112 48.7006,26.6542 L49.3376,25.0702 C128.6166,56.9692 192.2466,18.1382 192.8786,17.7422 L193.7846,19.1902 C193.3296,19.4742 160.7826,39.3372 113.3096,39.3372" id="Fill-1" fill="#EDEDED"></path>
            <path d="M55.3174,29.7249 L56.4614,58.2539 L69.1254,33.2719 L55.3174,29.7249 Z M55.0174,64.8769 L53.5204,27.5009 L71.6094,32.1479 L55.0174,64.8769 Z" id="Fill-3" fill="#EDEDED"></path>
            <path d="M103.6396,39.2561 L112.3896,66.4331 L117.8926,38.9741 L103.6396,39.2561 Z M112.7746,73.2001 L101.3106,37.5941 L119.9856,37.2251 L112.7746,73.2001 Z" id="Fill-5" fill="#EDEDED"></path>
            <path d="M156.706,33.8943 L172.415,57.7333 L170.362,29.8013 L156.706,33.8943 Z M174.6,64.1493 L154.018,32.9173 L171.91,27.5553 L174.6,64.1493 Z" id="Fill-7" fill="#EDEDED"></path>
            <polygon id="Fill-9" fill="#EDEDED" points="77.4756 34.7835 81.9066 67.4625 93.7396 37.3525"></polygon>
            <polygon id="Fill-11" fill="#EDEDED" points="130.8535 37.8416 144.7285 67.7556 147.1515 35.4986"></polygon>
            <polygon id="Fill-13" fill="#EDEDED" points="177.4956 26.8631 199.9996 50.9671 192.2536 19.5611"></polygon>
            <path d="M68.4126,35.3889 C30.6256,35.3889 4.5876,20.8819 4.2046,20.6639 L5.0526,19.1809 C5.6106,19.4999 61.7206,50.7169 128.8056,20.5719 L129.5056,22.1289 C107.4606,32.0349 86.5766,35.3889 68.4126,35.3889" id="Fill-15" fill="#EDEDED"></path>
            <path d="M112.2705,28.4929 L123.7395,49.0439 L123.7455,25.0519 L112.2705,28.4929 Z M125.4455,55.6049 L109.7435,27.4679 L125.4525,22.7569 L125.4455,55.6049 Z" id="Fill-17" fill="#EDEDED"></path>
            <path d="M70.4433,35.114 L75.9823,57.989 L82.4223,34.876 L70.4433,35.114 Z M75.8673,64.765 L68.2843,33.45 L84.6843,33.124 L75.8673,64.765 Z" id="Fill-19" fill="#EDEDED"></path>
            <path d="M24.9101,29.0506 L24.1181,52.5736 L36.5141,32.0296 L24.9101,29.0506 Z M22.1911,59.0726 L23.2741,26.8676 L39.1611,30.9466 L22.1911,59.0726 Z" id="Fill-21" fill="#EDEDED"></path>
            <polygon id="Fill-23" fill="#EDEDED" points="104.9565 30.0061 102.2585 58.2981 91.0385 32.7771"></polygon>
            <polygon id="Fill-25" fill="#EDEDED" points="59.0947 34.469 48.1717 60.706 44.9787 33.011"></polygon>
            <g id="Group-29" transform="translate(0.000000, 20.105000)">
                <mask id="mask-2" fill="white">
                    <use xlink:href="#path-1"></use>
                </mask>
                <g id="Clip-28"></g>
                <polygon id="Fill-27" fill="#EDEDED" mask="url(#mask-2)" points="18.5537 6.5056 -0.0003 28.0336 5.5957 0.7206"></polygon>
            </g>
            <path d="M135.6753,133.2512 C135.6753,133.2512 169.4073,83.6872 117.0533,84.4452 L59.3553,86.1712 C59.3553,86.1712 16.1383,85.1312 55.7853,132.9732 L135.6753,133.2512 Z" id="Fill-30" fill="#EDEDED"></path>
            <polygon id="Fill-32" fill="#FFFFFF" points="122.9194 110.4309 129.2964 132.9729 55.7864 132.9729 55.7864 118.9049"></polygon>
            <path d="M24.953,82.689 L46.776,82.689 L46.776,75.267 L24.953,75.267 L24.953,82.689 Z M23.246,84.396 L48.483,84.396 L48.483,73.56 L23.246,73.56 L23.246,84.396 Z" id="Fill-34" fill="#EDEDED"></path>
            <path d="M9.553,71.121 L31.376,71.121 L31.376,63.701 L9.553,63.701 L9.553,71.121 Z M7.845,72.828 L33.083,72.828 L33.083,61.994 L7.845,61.994 L7.845,72.828 Z" id="Fill-36" fill="#EDEDED"></path>
            <path d="M31.5781,133.2512 L20.2311,133.2512 C18.3461,133.2512 16.8161,131.7212 16.8161,129.8362 L16.8161,115.7582 C16.8161,113.8712 18.3461,112.3432 20.2311,112.3432 L31.5781,112.3432 C33.4631,112.3432 34.9931,113.8712 34.9931,115.7582 L34.9931,129.8362 C34.9931,131.7212 33.4631,133.2512 31.5781,133.2512" id="Fill-37" fill="#EDEDED"></path>
            <path d="M34.9927,130.2361 C34.2997,130.2361 33.7397,129.6761 33.7397,128.9851 C33.7397,128.2901 34.2997,127.7301 34.9927,127.7301 C37.2377,127.7301 39.0667,125.5151 39.0667,122.7971 C39.0667,120.0751 37.2377,117.8631 34.9927,117.8631 C34.2997,117.8631 33.7397,117.3031 33.7397,116.6101 C33.7397,115.9171 34.2997,115.3581 34.9927,115.3581 C38.6207,115.3581 41.5727,118.6941 41.5727,122.7971 C41.5727,126.8981 38.6207,130.2361 34.9927,130.2361" id="Fill-38" fill="#EDEDED"></path>
            <path d="M136.4336,132.9729 L136.4336,91.2299 C136.4336,83.5469 131.2946,76.8029 123.8676,74.7709 L106.2306,69.9399 L101.2796,68.5909 L97.3516,67.5149 C94.3476,66.6959 91.1546,66.7109 88.1496,67.5649 L84.5806,68.5909 L81.6276,69.4449 L63.4276,74.6519 C56.1196,76.7519 54.0486,79.1199 51.0656,91.0769 L42.1756,132.9729" id="Fill-39" fill="#FFFFFF"></path>
            <path d="M42.1767,133.8264 C42.1187,133.8264 42.0587,133.8204 41.9987,133.8084 C41.5377,133.7094 41.2427,133.2574 41.3407,132.7954 L50.2307,90.8994 C53.2137,78.9394 55.3917,76.0724 63.1907,73.8314 L87.9137,66.7434 C91.0727,65.8474 94.4147,65.8294 97.5767,66.6914 L124.0927,73.9474 C131.8607,76.0724 137.2877,83.1794 137.2877,91.2304 L137.2877,132.9724 C137.2877,133.4444 136.9057,133.8264 136.4337,133.8264 C135.9617,133.8264 135.5797,133.4444 135.5797,132.9724 L135.5797,91.2304 C135.5797,83.9474 130.6707,77.5174 123.6417,75.5954 L97.1267,68.3384 C94.2657,67.5594 91.2407,67.5754 88.3827,68.3854 L63.6617,75.4724 C56.9397,77.4054 54.9057,79.2104 51.8947,91.2844 L43.0107,133.1504 C42.9267,133.5514 42.5717,133.8264 42.1767,133.8264" id="Fill-40" fill="#000000"></path>
            <path d="M96.9419,88.3157 C96.9419,88.3157 98.0249,88.5887 97.1349,89.8697 C97.1349,89.8697 94.2509,88.7687 92.2959,89.2287 C92.2959,89.2287 89.7009,90.6167 87.7439,89.8697 L87.2459,89.2037 C87.2459,89.2037 84.1879,86.1707 88.1709,86.1707 C92.1539,86.1707 91.2219,87.0607 92.8269,87.4517 C92.8269,87.4517 95.7879,86.1917 96.9419,88.3157" id="Fill-41" fill="#067F71"></path>
            <path d="M82.209,95.5618 C82.129,95.5618 82.047,95.5498 81.967,95.5258 C81.649,95.4338 81.414,95.1638 81.364,94.8338 L78.552,76.0538 C78.24,74.1888 79.083,72.7838 79.899,71.4228 C80.649,70.1788 81.355,68.9988 81.355,67.3538 C81.355,66.9618 81.624,66.6208 82.004,66.5248 C82.073,66.5078 82.141,66.5008 82.209,66.5008 C82.52,66.5008 82.813,66.6698 82.964,66.9548 L93.582,87.0538 C93.708,87.2908 93.713,87.5768 93.597,87.8208 C93.481,88.0628 93.256,88.2368 92.989,88.2888 L88.171,89.2308 L82.85,95.2708 C82.686,95.4578 82.45,95.5618 82.209,95.5618" id="Fill-42" fill="#FFFFFF"></path>
            <path d="M82.209,65.6472 C82.073,65.6472 81.934,65.6642 81.798,65.6962 C81.036,65.8882 80.502,66.5692 80.502,67.3542 C80.502,68.7652 79.884,69.7942 79.168,70.9842 C78.313,72.4082 77.345,74.0202 77.714,76.2092 L80.521,94.9602 C80.62,95.6182 81.089,96.1552 81.726,96.3452 C81.887,96.3932 82.049,96.4132 82.209,96.4132 C82.692,96.4132 83.162,96.2102 83.49,95.8382 L88.62,90.0112 L93.155,89.1262 C93.684,89.0222 94.135,88.6762 94.367,88.1872 C94.601,87.6992 94.589,87.1322 94.336,86.6542 L83.718,66.5552 C83.418,65.9882 82.831,65.6472 82.209,65.6472 M82.209,67.3542 L92.827,87.4502 L87.722,88.4492 L82.209,94.7062 L79.397,75.9252 C78.875,72.8232 82.209,71.1602 82.209,67.3542" id="Fill-43" fill="#000000"></path>
            <path d="M104.6216,95.5618 C104.4046,95.5618 104.1906,95.4778 104.0286,95.3228 L97.8156,89.3448 L92.1406,88.2898 C91.8746,88.2418 91.6456,88.0658 91.5276,87.8238 C91.4096,87.5778 91.4146,87.2928 91.5416,87.0538 L102.1596,66.9548 C102.3096,66.6698 102.6036,66.5008 102.9136,66.5008 C102.9826,66.5008 103.0506,66.5078 103.1196,66.5248 C103.4996,66.6208 103.7676,66.9618 103.7676,67.3538 L103.7676,68.8358 C104.7936,70.6088 105.6886,70.9378 106.3476,71.1828 C107.5386,71.6208 108.0856,72.1878 107.7696,74.0708 L105.4696,94.8018 C105.4336,95.1248 105.2176,95.3988 104.9116,95.5108 C104.8176,95.5448 104.7186,95.5618 104.6216,95.5618" id="Fill-44" fill="#FFFFFF"></path>
            <path d="M102.914,65.6472 C102.292,65.6472 101.705,65.9882 101.405,66.5552 L90.787,86.6542 C90.534,87.1342 90.524,87.7062 90.759,88.1922 C90.995,88.6812 91.451,89.0292 91.983,89.1282 L97.408,90.1412 L103.438,95.9372 C103.761,96.2482 104.187,96.4132 104.622,96.4132 C104.816,96.4132 105.012,96.3812 105.202,96.3132 C105.813,96.0922 106.247,95.5432 106.318,94.8972 L108.62,74.1632 C108.953,72.1162 108.377,71.0172 106.643,70.3802 C106.074,70.1712 105.434,69.9362 104.622,68.6032 L104.622,67.3542 C104.622,66.5692 104.087,65.8882 103.326,65.6962 C103.189,65.6642 103.051,65.6472 102.914,65.6472 M102.914,67.3542 L102.914,69.0622 C105.328,73.4332 107.451,70.8272 106.928,73.9312 L104.622,94.7062 L98.224,88.5532 L92.296,87.4502 L102.914,67.3542" id="Fill-45" fill="#000000"></path>
            <path d="M92.8266,88.3054 C92.5376,88.3054 92.2686,88.1604 92.1116,87.9174 L81.4936,71.6264 C81.4046,71.4864 81.3546,71.3264 81.3546,71.1594 L81.3546,47.2574 C81.3546,46.7854 81.7376,46.4034 82.2086,46.4034 L102.6966,46.4034 C103.1696,46.4034 103.5506,46.7854 103.5506,47.2574 L103.5506,71.1594 C103.5506,71.3174 103.5076,71.4694 103.4276,71.6024 L93.5576,87.8934 C93.4036,88.1444 93.1336,88.3004 92.8406,88.3054 L92.8266,88.3054 Z" id="Fill-46" fill="#FFFFFF"></path>
            <path d="M102.6973,45.5501 L82.2093,45.5501 C81.2663,45.5501 80.5023,46.3151 80.5023,47.2571 L80.5023,71.1601 C80.5023,71.4911 80.5973,71.8161 80.7783,72.0921 L91.3963,88.3841 C91.7123,88.8671 92.2503,89.1591 92.8273,89.1591 L92.8543,89.1591 C93.4423,89.1491 93.9833,88.8381 94.2873,88.3361 L104.1573,72.0461 C104.3193,71.7781 104.4053,71.4731 104.4053,71.1601 L104.4053,47.2571 C104.4053,46.3151 103.6393,45.5501 102.6973,45.5501 M102.6973,47.2571 L102.6973,71.1601 L92.8273,87.4521 L82.2093,71.1601 L82.2093,47.2571 L102.6973,47.2571" id="Fill-47" fill="#000000"></path>
            <path d="M102.3989,62.1966 L102.2569,67.0026 C102.2569,67.0026 91.6919,73.0916 82.7999,67.0026 L82.3019,60.9886 L102.3989,62.1966 Z" id="Fill-48" fill="#EDEDED"></path>
            <path d="M92.5498,1.85538565 C83.4228,1.8287 63.9178,3.4777 68.8058,31.4847 C71.9488,49.4997 79.2978,64.6297 92.3638,64.6677765 C105.4278,64.7067 114.4208,49.8337 116.1178,31.6247 C118.2268,9.0127 112.4368,9.8767 106.4668,7.7257 C105.6758,7.4397 104.9368,7.0137 104.3118,6.4517 C102.7288,5.0347 98.5318,1.8747 92.5498,1.85538565" id="Fill-49" fill="#009486"></path>
            <path d="M92.0845,2.7083 C88.2985,2.7083 78.5965,2.9513 73.1335,9.4303 C69.1155,14.1963 67.9415,21.5673 69.6475,31.3383 C71.7595,43.4493 77.5215,63.7713 92.3665,63.8133 L92.4125,63.8133 C104.1015,63.8133 113.4965,50.5553 115.2675,31.5453 C117.0965,11.9403 113.0975,10.7033 108.0355,9.1363 C107.4235,8.9463 106.8015,8.7533 106.1775,8.5283 C105.2565,8.1963 104.4375,7.7113 103.7415,7.0863 C102.2795,5.7773 98.2605,2.7273 92.5465,2.7093 C92.4055,2.7083 92.2505,2.7083 92.0845,2.7083 M92.4125,65.5213 L92.3615,65.5213 C80.4355,65.4863 71.7725,53.4513 67.9645,31.6313 C66.1685,21.3403 67.4685,13.5003 71.8285,8.3303 C78.0425,0.9583 88.9515,0.9823 92.5525,1.0013 C98.8525,1.0213 103.2725,4.3753 104.8815,5.8153 C105.4135,6.2933 106.0435,6.6663 106.7555,6.9223 C107.3555,7.1383 107.9535,7.3223 108.5415,7.5053 C114.1125,9.2303 118.9255,10.7193 116.9685,31.7043 C115.1105,51.6253 105.0165,65.5213 92.4125,65.5213" id="Fill-50" fill="#000000"></path>
            <path d="M114.453798,37.9675 C114.4046,54.9815 104.5136,67.0405 92.3566,67.0045804 C80.2006,66.9655 70.3816,54.8535 70.4314099,37.8375 C70.4826,20.8205 80.3786,7.0555 92.5346,7.0904334 C104.6906,7.1295 114.5046,20.9515 114.453798,37.9675" id="Fill-51" fill="#FFFFFF"></path>
            <path d="M92.4902,7.9456 C80.8422,7.9456 71.3342,21.3436 71.285018,37.8406 C71.2382,53.9436 80.2982,66.1136 92.3592,66.1516 L92.4112,66.1516 C98.0822,66.1516 103.3582,63.3836 107.2722,58.3566 C111.3292,53.1436 113.5762,45.9016 113.599398,37.9656 C113.6492,21.4486 104.1992,7.9826 92.5322,7.9456 L92.4902,7.9456 Z M92.4112,67.8586 L92.3542,67.8586 C79.3192,67.8186 69.5282,54.9116 69.5770169,37.8356 C69.6302,20.3996 79.9042,6.2376 92.4912,6.2376 L92.5372,6.2376 C105.1452,6.2786 115.3602,20.5126 115.307405,37.9696 C115.2822,46.2826 112.9072,53.8946 108.6192,59.4046 C104.3742,64.8586 98.6202,67.8586 92.4112,67.8586 L92.4112,67.8586 Z" id="Fill-52" fill="#000000"></path>
            <path d="M109.8642,13.4895 L114.7252,29.4665 C114.7252,29.4665 112.2532,20.8905 103.2022,20.0675 C103.2022,20.0675 98.8362,19.1765 100.4242,16.3095 C100.4242,16.3095 99.2162,19.0145 96.5882,19.9895 C96.5882,19.9895 87.4422,23.2075 79.9752,22.4515 C79.9752,22.4515 74.0052,20.5255 71.5052,28.4285 C69.2432,27.3695 72.4052,20.0935 72.4052,20.0935 L81.6192,7.5305 L95.6162,4.2835 L109.8642,13.4895 Z" id="Fill-53" fill="#009486"></path>
            <path d="M71.4473,33.4876 C71.4473,33.4876 71.8113,22.4396 83.9743,23.3836 C83.9743,23.3836 97.3103,23.7416 99.5663,19.3206 C99.5663,19.3206 101.8793,22.0006 105.1063,21.8006 C105.1063,21.8006 111.9523,22.5476 113.4173,34.1776 C113.4173,34.1776 112.8263,23.2266 108.1893,21.2866 C108.1893,21.2866 99.9483,20.1106 99.8443,17.3956 C99.8443,17.3956 95.9513,21.5826 88.7903,21.9386 C88.7903,21.9386 83.9233,22.2466 79.7073,22.2706 C79.7073,22.2706 74.6323,20.9386 72.3373,28.6486 L71.4473,33.4876 Z" id="Fill-54" fill="#EDEDED"></path>
            <path d="M71.5063,29.2815 C71.4423,29.2815 71.3763,29.2745 71.3113,29.2595 C70.8523,29.1515 70.5673,28.6945 70.6733,28.2365 C71.2413,25.7905 73.6533,21.2145 78.6993,21.3865 C91.8063,21.8335 99.3283,19.5555 99.8823,14.9625 C99.9393,14.4935 100.3663,14.1555 100.8333,14.2175 C101.3003,14.2735 101.6333,14.6985 101.5783,15.1675 C100.8913,20.8445 92.9423,23.5895 78.6403,23.0925 C73.7353,22.9085 72.3913,28.3905 72.3363,28.6225 C72.2443,29.0165 71.8933,29.2815 71.5063,29.2815" id="Fill-55" fill="#000000"></path>
            <path d="M113.2236,28.5154 C112.8146,28.5154 112.4526,28.2204 112.3826,27.8034 C112.3436,27.5744 111.3566,22.1674 105.2866,21.3544 C98.8286,20.4864 98.9596,17.6224 98.9956,17.2994 C99.0486,16.8304 99.4696,16.5034 99.9386,16.5454 C100.4076,16.5984 100.7446,17.0204 100.6926,17.4894 C100.7076,17.8784 101.5956,19.1354 105.5136,19.6624 C112.8596,20.6464 114.0556,27.4564 114.0676,27.5254 C114.1426,27.9904 113.8286,28.4274 113.3646,28.5034 C113.3166,28.5124 113.2706,28.5154 113.2236,28.5154" id="Fill-56" fill="#000000"></path>
            <path d="M113.4175,34.179 C116.3795,34.188 118.3125,36.305 118.303531,39.267 C118.2955,42.229 114.8505,44.91 112.9565,44.905007" id="Fill-57" fill="#FFFFFF"></path>
            <path d="M112.9619,45.7591 C112.4589,45.8251 112.1029,45.3771 112.1029,44.9031 C112.1039,44.4321 112.4869,44.0511 112.9569,44.0511 L112.9629,44.0511 C114.3619,44.0511 117.4439,41.7411 117.4499,39.2641 C117.4579,36.7401 115.8369,35.0401 113.4159,35.0331 C112.9439,35.0311 112.5629,34.6491 112.5639,34.1761 C112.5659,33.7071 112.9479,33.3251 113.4179,33.3251 L113.4199,33.3251 C116.8089,33.3351 119.1679,35.7791 119.157932,39.2701 C119.1479,42.7311 115.2929,45.7591 112.9619,45.7591" id="Fill-58" fill="#000000"></path>
            <path d="M71.5058,34.0524773 C68.5438,34.0445 66.5838,36.1515 66.5747786,39.1135 C66.5648,42.0755 70.0648,44.5225 71.9578,44.5295" id="Fill-59" fill="#FFFFFF"></path>
            <path d="M71.958,45.3831 L71.955,45.3831 C70.767,45.3791 69.246,44.6831 67.986,43.5691 C66.52,42.2711 65.715,40.6881 65.7209667,39.1111 C65.726,37.4461 66.292,35.9431 67.317,34.8771 C68.358,33.7951 69.839,33.1991 71.489,33.1991 C71.912,33.1741 72.361,33.5751 72.359,34.0551 C72.357,34.5251 71.976,34.9061 71.505,34.9061 C71.497,34.9051 71.495,34.9061 71.488,34.9061 C70.291,34.9061 69.274,35.3051 68.548,36.0611 C67.819,36.8191 67.432,37.8751 67.429,39.1161 C67.424,40.1801 68.041,41.3371 69.119,42.2911 C70.19,43.2381 71.343,43.6731 71.961,43.6751 C72.432,43.6771 72.813,44.0611 72.812002,44.5321 C72.81,45.0031 72.428,45.3831 71.958,45.3831" id="Fill-60" fill="#000000"></path>
            <path d="M83.9902,17.0364 C82.5952,17.0364 81.0802,16.9534 79.4362,16.7674 C78.9672,16.7144 78.6312,16.2914 78.6832,15.8224 C78.7362,15.3534 79.1522,15.0164 79.6282,15.0704 C94.3762,16.7464 97.8032,9.6484 97.8372,9.5774 C98.0322,9.1504 98.5362,8.9594 98.9652,9.1524 C99.3932,9.3454 99.5852,9.8444 99.3952,10.2734 C99.2612,10.5784 96.2442,17.0364 83.9902,17.0364" id="Fill-61" fill="#000000"></path>
            <path d="M70.9765,24.2854 C70.5065,24.2854 70.1245,23.9054 70.1224084,23.4344 C70.0905,12.3494 78.4565,9.0994 78.5405,9.0684 C78.9825,8.9014 79.4715,9.1274 79.6365,9.5674 C79.8025,10.0084 79.5795,10.4994 79.1405,10.6664 C78.8395,10.7804 71.8025,13.5694 71.8305,23.4294 C71.8315,23.9014 71.4515,24.2834 70.9795,24.2854 L70.9765,24.2854 Z" id="Fill-62" fill="#000000"></path>
            <path d="M119.1636,133.8264 C118.6916,133.8264 118.3096,133.4444 118.3096,132.9724 L118.3096,97.9794 C118.3096,97.5084 118.6916,97.1264 119.1636,97.1264 C119.6356,97.1264 120.0176,97.5084 120.0176,97.9794 L120.0176,132.9724 C120.0176,133.4444 119.6356,133.8264 119.1636,133.8264" id="Fill-63" fill="#000000"></path>
            <path d="M63.7324,115.1189 C63.6584,115.1189 63.5834,115.1099 63.5074,115.0889 C63.0534,114.9669 62.7844,114.4969 62.9074,114.0419 L67.3154,97.7559 C67.4384,97.2999 67.9054,97.0299 68.3634,97.1559 C68.8174,97.2789 69.0864,97.7479 68.9634,98.2029 L64.5554,114.4889 C64.4524,114.8689 64.1084,115.1189 63.7324,115.1189" id="Fill-64" fill="#000000"></path>
            <polygon id="Fill-65" fill="#FFFFFF" points="82.1572 118.7835 72.3072 125.5035 69.0842 114.7775 76.0742 109.9245"></polygon>
            <path d="M70.0806,115.1258 L72.7896,124.1408 L80.9686,118.5608 L75.8556,111.1138 L70.0806,115.1258 Z M72.3086,126.3568 C72.2126,126.3568 72.1166,126.3408 72.0226,126.3078 C71.7676,126.2168 71.5686,126.0088 71.4906,125.7498 L68.2666,115.0238 C68.1606,114.6698 68.2936,114.2878 68.5976,114.0768 L75.5866,109.2228 C75.7736,109.0928 76.0046,109.0448 76.2266,109.0838 C76.4506,109.1248 76.6486,109.2528 76.7776,109.4398 L82.8606,118.2998 C82.9896,118.4868 83.0386,118.7168 82.9956,118.9408 C82.9546,119.1638 82.8256,119.3608 82.6386,119.4888 L72.7886,126.2088 C72.6456,126.3058 72.4776,126.3568 72.3086,126.3568 L72.3086,126.3568 Z" id="Fill-66" fill="#000000"></path>
            <path d="M96.103,60.1682 C96.103,60.3852 94.686,60.5592 92.937,60.5592 C91.189,60.5592 89.772,60.3852 89.772,60.1682 C89.772,59.9512 91.189,59.4752 92.937,59.4752 C94.686,59.4752 96.103,59.9512 96.103,60.1682" id="Fill-67" fill="#EDEDED"></path>
            <polyline id="Fill-68" fill="#FFFFFF" points="59.31 116.8845 69.902 110.6105 79.269 123.1335 63.419 132.9725"></polyline>
            <path d="M63.4204,133.8264 C63.1354,133.8264 62.8564,133.6834 62.6944,133.4234 C62.4454,133.0224 62.5684,132.4954 62.9694,132.2474 L78.0274,122.8984 L69.6774,111.7354 L59.7454,117.6194 C59.3404,117.8614 58.8164,117.7254 58.5764,117.3204 C58.3364,116.9134 58.4694,116.3904 58.8754,116.1504 L69.4664,109.8754 C69.8424,109.6514 70.3244,109.7504 70.5864,110.0984 L79.9524,122.6214 C80.0964,122.8124 80.1514,123.0564 80.1074,123.2914 C80.0634,123.5264 79.9224,123.7324 79.7194,123.8584 L63.8694,133.6984 C63.7294,133.7844 63.5734,133.8264 63.4204,133.8264" id="Fill-69" fill="#000000"></path>
            <path d="M71.0874,121.7644 C70.9234,122.4184 71.3194,123.0804 71.9734,123.2444 C72.6254,123.4104 73.2884,123.0124 73.4514,122.3604 C73.6154,121.7074 73.2214,121.0434 72.5674,120.8804 C71.9134,120.7164 71.2514,121.1124 71.0874,121.7644" id="Fill-70" fill="#009486"></path>
            <path d="M94.8027,101.843 C94.5947,102.483 94.9457,103.17 95.5867,103.378 C96.2267,103.586 96.9147,103.234 97.1207,102.594 C97.3297,101.952 96.9777,101.266 96.3377,101.057 C95.6977,100.851 95.0107,101.201 94.8027,101.843" id="Fill-71" fill="#009486"></path>
            <path d="M94.8027,114.6804 C94.5947,115.3214 94.9457,116.0074 95.5867,116.2154 C96.2267,116.4234 96.9147,116.0724 97.1207,115.4314 C97.3297,114.7914 96.9777,114.1034 96.3377,113.8964 C95.6977,113.6884 95.0107,114.0404 94.8027,114.6804" id="Fill-72" fill="#009486"></path>
            <path d="M94.8027,127.5198 C94.5947,128.1598 94.9457,128.8468 95.5867,129.0548 C96.2267,129.2628 96.9147,128.9118 97.1207,128.2708 C97.3297,127.6308 96.9777,126.9428 96.3377,126.7358 C95.6977,126.5278 95.0107,126.8788 94.8027,127.5198" id="Fill-73" fill="#009486"></path>
            <path d="M149.4018,133.2171 L11.3068,133.2171" id="Fill-74" fill="#009486"></path>
            <path d="M169.846155,134.707 L14.9578454,134.707 C14.4284507,134.707 14,134.326 14,133.853 C14,133.382 14.4284507,133 14.9578454,133 L169.846155,133 C170.375549,133 170.804,133.382 170.804,133.853 C170.804,134.326 170.375549,134.707 169.846155,134.707" id="Fill-75" fill="#000000"></path>
            <polygon id="Fill-76" fill="#000000" points="109.375 95.553 114.979 94.216 113.348 99.987"></polygon>
            <polygon id="Fill-77" fill="#009486" points="108.331 96.0857 112.502 100.7567 106.534 102.2187"></polygon>
            <path d="M87.6841,54.2381 C87.9001,54.4851 88.1971,54.7641 88.5951,55.0521 C89.2461,55.5251 90.6021,56.3181 92.3661,56.3231 L92.3811,56.3231 C94.5221,56.3231 96.2691,55.1681 97.0801,54.2651 L87.6841,54.2381 Z M92.3801,58.0301 L92.3611,58.0301 C90.1171,58.0241 88.4101,57.0291 87.5931,56.4351 C86.5671,55.6921 85.4731,54.4981 85.4760938,53.3781 C85.4781,52.9051 85.8091,52.5921 86.3331,52.5271 L98.4241,52.5621 C98.6511,52.5631 98.8681,52.6541 99.0271,52.8141 C99.1871,52.9751 99.2761,53.1931 99.2751083,53.4191 C99.2691,55.2021 96.1131,58.0301 92.3801,58.0301 L92.3801,58.0301 Z" id="Fill-78" fill="#000000"></path>
            <path d="M92.2969,134.1048 C91.8249,134.1048 91.4429,133.7238 91.4429,133.2508 L91.4429,89.2288 C91.4429,88.7568 91.8249,88.3758 92.2969,88.3758 C92.7689,88.3758 93.1509,88.7568 93.1509,89.2288 L93.1509,133.2508 C93.1509,133.7238 92.7689,134.1048 92.2969,134.1048" id="Fill-79" fill="#000000"></path>
            <path d="M80.2236,85.555 C79.7796,85.555 79.4046,85.21 79.3726,84.761 L79.1196,81.127 C79.0866,80.657 79.4416,80.249 79.9116,80.216 C80.3706,80.191 80.7906,80.539 80.8236,81.009 L81.0766,84.642 C81.1086,85.112 80.7536,85.52 80.2836,85.553 C80.2636,85.554 80.2436,85.555 80.2236,85.555" id="Fill-80" fill="#009486"></path>
            <path d="M77.6001,115.6228 C78.6411,117.5188 80.6341,118.8188 82.9491,118.8188 L96.5911,118.8188 C97.3231,118.8188 97.9171,118.2248 97.9171,117.4928 L97.9171,116.4748 C97.9171,115.7408 97.3231,115.1468 96.5911,115.1468 L93.1981,115.1468 L93.1981,114.8668 L97.6231,114.8668 C98.5661,114.8668 99.3311,114.1018 99.3311,113.1588 L99.3311,111.6688 C99.3311,110.7268 98.5661,109.9608 97.6231,109.9608 L93.2581,109.9608 C93.2371,109.9608 93.2191,109.9648 93.1981,109.9648 L93.1981,109.6348 L98.5111,109.6348 C99.4541,109.6348 100.2191,108.7028 100.2191,107.7628 L100.2191,106.2698 C100.2191,105.3298 99.4541,104.7298 98.5111,104.7298 L93.2581,104.7298 C93.2371,104.7298 93.2191,104.7318 93.1981,104.7338 L93.1981,104.4498 L97.8951,104.4498 C98.8361,104.4498 99.6001,103.5188 99.6001,102.5758 L99.6001,101.0868 C99.6001,100.1438 98.8361,99.5468 97.8951,99.5468 L85.7711,99.5468 L87.0551,96.7758 C87.9291,94.8888 87.1101,92.4828 85.2231,91.6108 L84.3921,91.2238 C83.6831,90.8948 82.8411,91.3698 82.5121,92.0788 L77.5691,102.7398 C77.5671,102.7398 77.5671,102.7408 77.5671,102.7428 C77.5671,102.7428 74.6051,107.9978 77.6001,115.6228" id="Fill-81" fill="#FFFFFF"></path>
            <path d="M97.4878,101.0867 L97.4878,102.5757 C97.4878,103.5197 96.7228,104.4497 95.7798,104.4497 L97.8938,104.4497 C98.8368,104.4497 99.6018,103.5197 99.6018,102.5757 L99.6018,101.0867 C99.6018,100.1427 98.8368,99.5467 97.8938,99.5467 L95.7798,99.5467 C96.7228,99.5467 97.4878,100.1427 97.4878,101.0867" id="Fill-82" fill="#EDEDED"></path>
            <path d="M97.6235,109.9597 L95.5095,109.9597 C96.4525,109.9597 97.2175,110.7267 97.2175,111.6677 L97.2175,113.1577 C97.2175,114.1017 96.4525,114.8647 95.5095,114.8647 L97.6235,114.8647 C98.5655,114.8647 99.3315,114.1017 99.3315,113.1577 L99.3315,111.6677 C99.3315,110.7267 98.5655,109.9597 97.6235,109.9597" id="Fill-83" fill="#EDEDED"></path>
            <path d="M98.5107,104.7302 L96.3967,104.7302 C97.3397,104.7302 98.1047,105.3292 98.1047,106.2702 L98.1047,107.7602 C98.1047,108.7032 97.3397,109.6352 96.3967,109.6352 L98.5107,109.6352 C99.4527,109.6352 100.2177,108.7032 100.2177,107.7602 L100.2177,106.2702 C100.2177,105.3292 99.4527,104.7302 98.5107,104.7302" id="Fill-84" fill="#EDEDED"></path>
            <path d="M96.5898,115.1467 L94.4758,115.1467 C95.2088,115.1467 95.8048,115.7427 95.8048,116.4747 L95.8048,117.4927 C95.8048,118.2267 95.2088,118.8187 94.4758,118.8187 L96.5898,118.8187 C97.3238,118.8187 97.9178,118.2267 97.9178,117.4927 L97.9178,116.4747 C97.9178,115.7427 97.3238,115.1467 96.5898,115.1467" id="Fill-85" fill="#EDEDED"></path>
            <path d="M85.7705,99.5467 L87.0545,96.7767 C87.7735,95.2267 87.3465,93.4427 86.1275,92.3667 C86.3125,93.1577 86.2475,94.0127 85.8795,94.8047 L83.7095,99.5467 L85.7705,99.5467 Z" id="Fill-86" fill="#EDEDED"></path>
            <path d="M78.3745,115.2591 C79.3145,116.9301 81.0625,117.9661 82.9495,117.9661 L96.5905,117.9661 C96.8515,117.9661 97.0635,117.7541 97.0635,117.4921 L97.0635,116.4751 C97.0635,116.2141 96.8515,116.0001 96.5905,116.0001 L93.1985,116.0001 C92.7265,116.0001 92.3445,115.6181 92.3445,115.1471 L92.3445,114.8661 C92.3445,114.3951 92.7265,114.0131 93.1985,114.0131 L97.6235,114.0131 C98.0945,114.0131 98.4775,113.6301 98.4775,113.1591 L98.4775,111.6691 C98.4775,111.1971 98.0945,110.8151 97.6235,110.8151 L93.2585,110.8151 C92.7865,110.8151 92.3445,110.4361 92.3445,109.9651 L92.3445,109.6351 C92.3445,109.1631 92.7265,108.7811 93.1985,108.7811 L98.5115,108.7811 C98.9415,108.7811 99.3645,108.2771 99.3645,107.7631 L99.3645,106.2711 C99.3645,105.7641 98.9045,105.5841 98.5115,105.5841 L93.2585,105.5841 C92.7865,105.5841 92.3445,105.2061 92.3445,104.7341 L92.3445,104.4501 C92.3445,103.9791 92.7265,103.5971 93.1985,103.5971 L97.8955,103.5971 C98.3255,103.5971 98.7475,103.0911 98.7475,102.5761 L98.7475,101.0871 C98.7475,100.5811 98.2875,100.4011 97.8955,100.4011 L85.7705,100.4011 C85.4795,100.4011 85.2085,100.2521 85.0515,100.0071 C84.8955,99.7611 84.8745,99.4531 84.9965,99.1891 L86.2805,96.4171 C86.6065,95.7131 86.6385,94.8671 86.3685,94.0951 C86.0955,93.3151 85.5615,92.7081 84.8645,92.3851 L84.0315,91.9981 C83.8075,91.8881 83.4385,92.1131 83.2865,92.4391 L78.3435,103.0991 C78.3375,103.1131 78.3305,103.1271 78.3235,103.1401 C78.3195,103.1471 78.3165,103.1541 78.3125,103.1601 C78.2855,103.2091 75.6115,108.1671 78.3745,115.2591 M96.5905,119.6741 L82.9495,119.6741 C80.4215,119.6741 78.0855,118.2791 76.8525,116.0341 C76.8335,116.0031 76.8185,115.9691 76.8055,115.9351 C73.7865,108.2481 76.5295,102.8661 76.8065,102.3571 L81.7375,91.7191 C82.2315,90.6601 83.5575,89.8981 84.7505,90.4491 L85.5835,90.8361 C86.7015,91.3541 87.5535,92.3111 87.9795,93.5311 C88.3955,94.7171 88.3415,96.0311 87.8295,97.1351 L87.1075,98.6931 L97.8955,98.6931 C99.3535,98.6931 100.4545,99.7221 100.4545,101.0871 L100.4545,102.5761 C100.4545,103.1881 100.2425,103.7681 99.8955,104.2341 C100.6135,104.6491 101.0725,105.3901 101.0725,106.2711 L101.0725,107.7631 C101.0725,108.7691 100.4975,109.6891 99.6915,110.1591 C100.0005,110.5831 100.1845,111.1051 100.1845,111.6691 L100.1845,113.1591 C100.1845,114.2401 99.5105,115.1671 98.5615,115.5421 C98.6965,115.8251 98.7705,116.1421 98.7705,116.4751 L98.7705,117.4921 C98.7705,118.6951 97.7925,119.6741 96.5905,119.6741" id="Fill-87" fill="#000000"></path>
            <path d="M88.7095,87.2781 C88.6125,87.2781 88.5135,87.2611 88.4175,87.2261 C87.9745,87.0651 87.7465,86.5751 87.9075,86.1321 L89.2505,82.4411 C89.4125,81.9971 89.9055,81.7721 90.3445,81.9311 C90.7885,82.0911 91.0165,82.5821 90.8545,83.0251 L89.5115,86.7161 C89.3855,87.0631 89.0585,87.2781 88.7095,87.2781" id="Fill-88" fill="#009486"></path>
            <path d="M94.2402,93.7737 C93.9162,93.7737 93.6072,93.5897 93.4642,93.2767 C93.2662,92.8487 93.4542,92.3417 93.8822,92.1447 L96.1512,91.1017 C96.5812,90.9047 97.0862,91.0917 97.2832,91.5207 C97.4802,91.9487 97.2932,92.4557 96.8652,92.6527 L94.5962,93.6957 C94.4802,93.7487 94.3592,93.7737 94.2402,93.7737" id="Fill-89" fill="#009486"></path>
            <path d="M142.7475,46.7776 C142.7475,46.7776 135.0545,51.8686 141.8055,60.4216 C148.5575,68.9726 139.7805,77.7806 139.7805,77.7806" id="Fill-90" fill="#FFFFFF"></path>
            <path d="M139.7807,78.6355 C139.5627,78.6355 139.3447,78.5525 139.1777,78.3865 C138.8447,78.0545 138.8427,77.5135 139.1747,77.1795 C139.5107,76.8415 147.3307,68.7965 141.1347,60.9505 C138.7947,57.9855 137.8347,55.0665 138.2827,52.2745 C138.9157,48.3305 142.1397,46.1565 142.2767,46.0655 C142.6687,45.8065 143.1967,45.9135 143.4577,46.3045 C143.7187,46.6965 143.6117,47.2265 143.2207,47.4885 C143.1927,47.5065 140.4697,49.3635 139.9657,52.5635 C139.6037,54.8595 140.4487,57.3245 142.4747,59.8925 C149.6147,68.9335 140.4777,78.2915 140.3847,78.3845 C140.2177,78.5515 139.9997,78.6355 139.7807,78.6355" id="Fill-91" fill="#000000"></path>
            <path d="M133.2353,32.6629 C133.2353,38.7459 137.4933,46.3869 142.7473,46.3869 C148.0003,46.3869 152.2603,38.7459 152.2603,32.6629 C152.2603,26.5799 148.0003,21.6469 142.7473,21.6469 C137.4933,21.6469 133.2353,26.5799 133.2353,32.6629" id="Fill-92" fill="#FFFFFF"></path>
            <path d="M142.7471,22.5012 C137.9731,22.5012 134.0881,27.0602 134.0881,32.6632 C134.0881,38.4562 138.0841,45.5332 142.7471,45.5332 C147.4111,45.5332 151.4061,38.4562 151.4061,32.6632 C151.4061,27.0602 147.5211,22.5012 142.7471,22.5012 M142.7471,47.2402 C137.0051,47.2402 132.3811,39.2652 132.3811,32.6632 C132.3811,26.1182 137.0311,20.7932 142.7471,20.7932 C148.4631,20.7932 153.1141,26.1182 153.1141,32.6632 C153.1141,39.2652 148.4891,47.2402 142.7471,47.2402" id="Fill-93" fill="#000000"></path>
            <path d="M139.7798,48.0701 C139.7798,48.0701 142.7058,49.9551 145.5758,48.0701 C145.5758,48.0701 144.7598,46.7191 142.7468,46.7761 C140.7358,46.8301 139.7798,48.0701 139.7798,48.0701" id="Fill-94" fill="#FFFFFF"></path>
            <path d="M141.5107,47.8816 C142.1947,48.0686 143.0907,48.1636 144.0317,47.8686 C143.7157,47.7236 143.3047,47.6066 142.7717,47.6296 C142.2657,47.6426 141.8477,47.7466 141.5107,47.8816 L141.5107,47.8816 Z M142.8017,49.7676 C140.8707,49.7676 139.4077,48.8466 139.3177,48.7876 C139.1167,48.6586 138.9787,48.4496 138.9377,48.2146 C138.8967,47.9786 138.9567,47.7366 139.1027,47.5486 C139.1527,47.4846 140.3347,45.9876 142.7237,45.9226 C145.2307,45.8726 146.2617,47.5556 146.3057,47.6286 C146.5437,48.0216 146.4277,48.5316 146.0447,48.7836 C144.9217,49.5216 143.7997,49.7676 142.8017,49.7676 L142.8017,49.7676 Z" id="Fill-95" fill="#000000"></path>
        </g>
    </g>
</svg>