<?xml version="1.0" encoding="UTF-8"?>
<svg width="24px" height="24px" viewBox="0 0 24 24" version="1.1" xmlns="http://www.w3.org/2000/svg" xmlns:xlink="http://www.w3.org/1999/xlink">
    <!-- Generator: Sketch 50.2 (55047) - http://www.bohemiancoding.com/sketch -->
    <title>Icon/Summer</title>
    <desc>Created with Sketch.</desc>
    <defs></defs>
    <g id="Icon/Summer" stroke="none" stroke-width="1" fill="none" fill-rule="evenodd">
        <g id="icons/summer">
            <rect id="Rectangle-2" x="0" y="0" width="24" height="24"></rect>
            <g id="Page-1" transform="translate(2.000000, 2.000000)">
                <path d="M9.99980952,19.523619 L9.99980952,16.0788571" id="Stroke-1" stroke="#000000" stroke-linecap="round" stroke-linejoin="round"></path>
                <path d="M14.5078095,10.0119048 C14.5078095,12.5014286 12.4897143,14.5195238 10.0001905,14.5195238 C7.51066667,14.5195238 5.49257143,12.5014286 5.49257143,10.0119048 C5.49257143,7.52238095 7.51066667,5.50428571 10.0001905,5.50428571 C12.4897143,5.50428571 14.5078095,7.52238095 14.5078095,10.0119048" id="Fill-3" fill="#FFFFFF"></path>
                <path d="M14.5078095,10.0119048 C14.5078095,12.5014286 12.4897143,14.5195238 10.0001905,14.5195238 C7.51066667,14.5195238 5.49257143,12.5014286 5.49257143,10.0119048 C5.49257143,7.52238095 7.51066667,5.50428571 10.0001905,5.50428571 C12.4897143,5.50428571 14.5078095,7.52238095 14.5078095,10.0119048 Z" id="Stroke-5" stroke="#000000" fill="#009688" stroke-linecap="round" stroke-linejoin="round"></path>
                <path d="M9.99980952,3.92095238 L9.99980952,0.476190476" id="Stroke-7" stroke="#000000" stroke-linecap="round" stroke-linejoin="round"></path>
                <path d="M9.99980952,3.92095238 L9.99980952,1.85809524" id="Stroke-9" stroke="#000000" stroke-linecap="round" stroke-linejoin="round"></path>
                <path d="M12.4017143,4.4152381 L13.216,2.52095238" id="Stroke-11" stroke="#000000" stroke-linecap="round" stroke-linejoin="round"></path>
                <path d="M6.7832381,17.4788571 L7.59752381,15.5845714" id="Stroke-13" stroke="#000000" stroke-linecap="round" stroke-linejoin="round"></path>
                <path d="M15.6471429,7.74952381 L17.562381,6.98571429" id="Stroke-15" stroke="#000000" stroke-linecap="round" stroke-linejoin="round"></path>
                <path d="M2.43704762,13.0137143 L4.35228571,12.2508571" id="Stroke-17" stroke="#000000" stroke-linecap="round" stroke-linejoin="round"></path>
                <path d="M12.4017143,4.4152381 L13.216,2.52095238" id="Stroke-19" stroke="#000000" stroke-linecap="round" stroke-linejoin="round"></path>
                <path d="M6.7832381,17.4788571 L7.59752381,15.5845714" id="Stroke-21" stroke="#000000" stroke-linecap="round" stroke-linejoin="round"></path>
                <path d="M15.6401905,7.73142857 L17.5535238,6.96190476" id="Stroke-23" stroke="#000000" stroke-linecap="round" stroke-linejoin="round"></path>
                <path d="M2.44685714,13.0378095 L4.36019048,12.2682857" id="Stroke-25" stroke="#000000" stroke-linecap="round" stroke-linejoin="round"></path>
                <path d="M15.610381,12.3417143 L17.5132381,13.1350476" id="Stroke-27" stroke="#000000" stroke-linecap="round" stroke-linejoin="round"></path>
                <path d="M2.48685714,6.86409524 L4.38971429,7.65838095" id="Stroke-29" stroke="#000000" stroke-linecap="round" stroke-linejoin="round"></path>
                <path d="M12.4068571,15.5824762 L13.2230476,17.4758095" id="Stroke-31" stroke="#000000" stroke-linecap="round" stroke-linejoin="round"></path>
                <path d="M6.7767619,2.524 L7.59295238,4.41733333" id="Stroke-33" stroke="#000000" stroke-linecap="round" stroke-linejoin="round"></path>
                <path d="M16.0791429,9.99980952 L19.5239048,9.99980952" id="Stroke-35" stroke="#000000" stroke-linecap="round" stroke-linejoin="round"></path>
                <path d="M0.476,9.99980952 L3.9207619,9.99980952" id="Stroke-37" stroke="#000000" stroke-linecap="round" stroke-linejoin="round"></path>
                <path d="M14.2985714,5.70104762 L16.7347619,3.26580952" id="Stroke-39" stroke="#000000" stroke-linecap="round" stroke-linejoin="round"></path>
                <path d="M3.26571429,16.734381 L5.70095238,14.2981905" id="Stroke-41" stroke="#000000" stroke-linecap="round" stroke-linejoin="round"></path>
                <path d="M14.2985714,14.2985714 L16.7347619,16.7347619" id="Stroke-43" stroke="#000000" stroke-linecap="round" stroke-linejoin="round"></path>
                <path d="M3.26571429,3.26571429 L5.70095238,5.70095238" id="Stroke-45" stroke="#000000" stroke-linecap="round" stroke-linejoin="round"></path>
            </g>
        </g>
    </g>
</svg>