<svg xmlns="http://www.w3.org/2000/svg" viewBox="0 0 29 19.1"><defs/><title>Swimming_pool_icon</title><g id="Layer_2"><g id="Swimming_pool"><path class="cls-swimmingpool1" d="M28.5,18.6c-1.75,0-1.75-2-3.5-2s-1.75,2-3.5,2-1.75-2-3.49-2-1.75,2-3.5,2-1.75-2-3.5-2-1.75,2-3.5,2-1.75-2-3.51-2-1.75,2-3.51,2" style="fill: none; stroke: #000; stroke-linecap: round; stroke-linejoin: round;"/><path class="cls-swimmingpool1" d="M28.5,15.32c-1.75,0-1.75-2-3.5-2s-1.75,2-3.5,2-1.75-2-3.49-2-1.75,2-3.5,2-1.75-2-3.5-2-1.75,2-3.5,2-1.75-2-3.51-2-1.75,2-3.51,2" style="fill: none; stroke: #000; stroke-linecap: round; stroke-linejoin: round;"/><path class="cls-swimmingpool1" d="M28.5,12c-1.75,0-1.75-2-3.5-2s-1.75,2-3.5,2S19.76,10,18,10s-1.75,2-3.5,2-1.75-2-3.5-2-1.75,2-3.5,2S5.76,10,4,10,2.25,12,.5,12" style="fill: none; stroke: #000; stroke-linecap: round; stroke-linejoin: round;"/><path class="cls-swimmingpool2" d="M15.38,11.68V2.2A1.7,1.7,0,0,1,17.09.5h0a1.7,1.7,0,0,1,1.71,1.7v.57" style="fill: none; stroke: #000; stroke-linecap: round; stroke-miterlimit: 10;"/><circle class="cls-swimmingpool3" cx="6.01" cy="4.2" r="2.28" style="fill: #009688;"/><path class="cls-swimmingpool2" d="M23.34,10.68V2.2A1.7,1.7,0,0,1,25.05.5h0a1.7,1.7,0,0,1,1.71,1.7v.57" style="fill: none; stroke: #000; stroke-linecap: round; stroke-miterlimit: 10;"/><line class="cls-swimmingpool2" x1="15.38" y1="5.03" x2="23.34" y2="5.03" style="fill: none; stroke: #000; stroke-linecap: round; stroke-miterlimit: 10;"/><line class="cls-swimmingpool2" x1="15.38" y1="8.42" x2="23.34" y2="8.42" style="fill: none; stroke: #000; stroke-linecap: round; stroke-miterlimit: 10;"/></g></g></svg>
