<?xml version="1.0" encoding="UTF-8"?>
<svg width="24px" height="24px" viewBox="0 0 24 24" version="1.1" xmlns="http://www.w3.org/2000/svg" xmlns:xlink="http://www.w3.org/1999/xlink">
    <!-- Generator: Sketch 50.2 (55047) - http://www.bohemiancoding.com/sketch -->
    <title>Icon/Taxi Cab</title>
    <desc>Created with Sketch.</desc>
    <defs></defs>
    <g id="Icon/Taxi-Cab" stroke="none" stroke-width="1" fill="none" fill-rule="evenodd">
        <g id="icon/taxi-cab">
            <rect id="Rectangle" x="0" y="0" width="24" height="24"></rect>
        </g>
        <g id="iconAsset-102" transform="translate(2.000000, 3.000000)" fill-rule="nonzero">
            <path d="M13,6.25 C12.9163871,6.24921209 12.8341469,6.22865206 12.76,6.19 C12.5358692,6.05571333 12.4603134,5.76682353 12.59,5.54 L14,3.27 C14.1487185,3.08340092 14.4119258,3.03437576 14.6178527,3.15491835 C14.8237796,3.27546093 14.909895,3.52896766 14.82,3.75 L13.45,6 C13.3611479,6.16352284 13.1857809,6.26094895 13,6.25 Z" id="Shape" fill="#009688"></path>
            <path d="M5.63,6.25 C5.54638705,6.24921209 5.46414691,6.22865206 5.39,6.19 C5.16586919,6.05571333 5.09031339,5.76682353 5.22,5.54 L6.55,3.27 C6.6987185,3.08340092 6.96192576,3.03437576 7.16785268,3.15491835 C7.37377959,3.27546093 7.45989501,3.52896766 7.37,3.75 L6,6 C5.92962816,6.14296458 5.78889725,6.23805303 5.63,6.25 Z" id="Shape" fill="#009688"></path>
            <path d="M17.12,5.83 L16.71,1.9 C16.5914969,1.36762577 16.1153408,0.991713075 15.57,1 L4.43,1 C3.85456245,1.00442371 3.36935604,1.43004337 3.29,2 L2.88,5.9 L1.93,5.8 L2.35,1.8 C2.50321671,0.768413867 3.38710356,0.00351177965 4.43,0 L15.57,0 C16.6063946,0.00198200251 17.4879114,0.756356994 17.65,1.78 L18.07,5.78 L17.12,5.83 Z" id="Shape" fill="#000000"></path>
            <path d="M18.76,14.77 L1.24,14.77 C0.55516691,14.77 -8.23294849e-17,14.2148331 -1.66197393e-16,13.53 L-1.66197393e-16,8.84 C-0.000910452235,7.82280536 0.440748487,6.85553578 1.21,6.19 L2.09,5.42 C2.17782925,5.34126188 2.29205427,5.2984275 2.41,5.3 L17.59,5.3 C17.7074504,5.30117237 17.8207391,5.34365564 17.91,5.42 L18.83,6.24 C19.572327,6.90904086 19.9972918,7.86067134 20,8.86 L20,13.53 C20,14.2148331 19.4448331,14.77 18.76,14.77 Z M2.58,6.25 L1.83,6.91 C1.28777095,7.40340569 0.985175074,8.10703224 1,8.84 L1,13.53 C1,13.6901626 1.12983742,13.82 1.29,13.82 L18.76,13.82 C18.9201626,13.82 19.05,13.6901626 19.05,13.53 L19.05,8.86 C19.0360206,8.14702365 18.7241327,7.47247537 18.19,7 L17.41,6.3 L2.58,6.25 Z" id="Shape" fill="#000000"></path>
            <path d="M3,12.81 C1.98519941,12.7370004 1.19919411,11.8924228 1.19919411,10.875 C1.19919411,9.85757719 1.98519941,9.01299962 3,8.94 C4.01480059,9.01299962 4.80080589,9.85757719 4.80080589,10.875 C4.80080589,11.8924228 4.01480059,12.7370004 3,12.81 Z M3,9.89 C2.44771525,9.89 2,10.3377153 2,10.89 C2,11.4422847 2.44771525,11.89 3,11.89 C3.55228475,11.89 4,11.4422847 4,10.89 C4,10.3377153 3.55228475,9.89 3,9.89 Z" id="Shape" fill="#000000"></path>
            <path d="M17,12.81 C16.2095976,12.8385381 15.481006,12.3843943 15.1585521,11.6621936 C14.8360981,10.9399928 14.9843502,10.094349 15.5332455,9.52490678 C16.0821408,8.9554646 16.9217683,8.77624952 17.6553263,9.07195721 C18.3888843,9.3676649 18.869485,10.0790827 18.87,10.87 C18.886739,11.9210828 18.0509883,12.7881183 17,12.81 Z M17,9.89 C16.5893666,9.85289582 16.1980553,10.0716209 16.0145331,10.4408311 C15.8310108,10.8100412 15.8929039,11.2540394 16.1704029,11.5589833 C16.4479019,11.8639273 16.8841129,11.9672963 17.2689441,11.8193047 C17.6537753,11.6713132 17.9083271,11.302303 17.91,10.89 C17.923582,10.6363004 17.8349782,10.3877313 17.6639835,10.199825 C17.4929888,10.0119187 17.2538526,9.90033408 17,9.89 Z" id="Shape" fill="#000000"></path>
            <path d="M3.56,17.66 C2.65721467,17.6383849 1.93514872,16.9030294 1.93,16 L1.93,14.28 L2.93,14.28 L2.93,16 C2.9129769,16.394054 3.21616735,16.7284552 3.61,16.75 C3.98389599,16.70336 4.25859746,16.3763345 4.24,16 L4.24,14.28 L5.24,14.28 L5.24,16 C5.23735576,16.442914 5.05886882,16.8666361 4.74380597,17.1779482 C4.42874313,17.4892603 4.00291392,17.6626601 3.56,17.66 Z" id="Shape" fill="#000000"></path>
            <path d="M16.21,17.66 C15.3032981,17.6437247 14.5752842,16.9068325 14.57,16 L14.57,14.28 L15.57,14.28 L15.57,16 C15.5382012,16.2607714 15.6594552,16.516534 15.8814652,16.6569776 C16.1034752,16.7974213 16.3865248,16.7974213 16.6085348,16.6569776 C16.8305448,16.516534 16.9517988,16.2607714 16.92,16 L16.92,14.28 L17.92,14.28 L17.92,16 C17.9174449,16.448193 17.7348393,16.8765476 17.4132471,17.1887365 C17.0916549,17.5009254 16.6580715,17.6707426 16.21,17.66 Z" id="Shape" fill="#000000"></path>
            <path d="M19.11,8.54 L0.88,8.54 C0.64407886,8.505679 0.469101375,8.30340452 0.469101375,8.065 C0.469101375,7.82659548 0.64407886,7.624321 0.88,7.59 L19.11,7.59 C19.3459211,7.624321 19.5208986,7.82659548 19.5208986,8.065 C19.5208986,8.30340452 19.3459211,8.505679 19.11,8.54 Z" id="Shape" fill="#000000"></path>
            <rect id="Rectangle-path" fill="#009688" x="6.2" y="9.64" width="7.59" height="2.92" rx="0.76"></rect>
        </g>
    </g>
</svg>