<?xml version="1.0" encoding="UTF-8"?>
<svg width="24px" height="24px" viewBox="0 0 24 24" version="1.1" xmlns="http://www.w3.org/2000/svg" xmlns:xlink="http://www.w3.org/1999/xlink">
    <!-- Generator: Sketch 62 (91390) - https://sketch.com -->
    <title>thumbs up icon</title>
    <desc>Created with Sketch.</desc>
    <g id="thumbs-up-icon" stroke="none" stroke-width="1" fill="none" fill-rule="evenodd">
        <g id="Group-7" transform="translate(0.000000, 1.000000)">
            <polygon id="Fill-1" fill="#009688" points="0.544 21.4553 6.457 21.4553 6.457 7.4533 0.544 7.4533"></polygon>
            <g id="Group-6" transform="translate(0.000000, -0.000700)">
                <polygon id="Stroke-2" stroke="#000000" stroke-width="1.089" stroke-linecap="round" stroke-linejoin="round" points="0.545 21.456 6.458 21.456 6.458 7.454 0.545 7.454"></polygon>
                <path d="M22.5446,12.7427 C22.5446,11.7687 21.7546,10.9797 20.7806,10.9797 L19.6496,10.9797 C20.6236,10.9797 21.4126,10.1897 21.4126,9.2167 C21.4126,8.2427 20.6236,7.4527 19.6496,7.4527 L14.9236,7.4527 C16.0586,6.2417 17.1176,4.6817 17.7326,2.7017 C18.0096,1.8067 17.5086,0.8567 16.6136,0.5777 C15.7186,0.2987 14.7686,0.8017 14.4896,1.6957 C13.1806,5.9177 8.8806,7.6987 8.8376,7.7167 C8.6776,7.7807 8.5386,7.8717 8.4106,7.9737 C7.2496,8.6387 6.4576,9.8747 6.4576,11.3077 L6.4576,17.6007 C6.4576,19.7297 8.1836,21.4557 10.3136,21.4557 L12.5726,21.4557 L13.5696,21.4557 L18.5186,21.4557 C19.4926,21.4557 20.2816,20.6657 20.2816,19.6927 C20.2816,18.9207 19.7816,18.2707 19.0916,18.0327 L19.6496,18.0327 C20.6236,18.0327 21.4126,17.2427 21.4126,16.2687 C21.4126,15.2957 20.6236,14.5057 19.6496,14.5057 L20.7806,14.5057 C21.7546,14.5057 22.5446,13.7167 22.5446,12.7427" id="Fill-4" fill="#FFFFFF"></path>
                <path d="M22.5446,12.7427 C22.5446,11.7687 21.7546,10.9797 20.7806,10.9797 L19.6496,10.9797 C20.6236,10.9797 21.4126,10.1897 21.4126,9.2167 C21.4126,8.2427 20.6236,7.4527 19.6496,7.4527 L14.9236,7.4527 C16.0586,6.2417 17.1176,4.6817 17.7326,2.7017 C18.0096,1.8067 17.5086,0.8567 16.6136,0.5777 C15.7186,0.2987 14.7686,0.8017 14.4896,1.6957 C13.1806,5.9177 8.8806,7.6987 8.8376,7.7167 C8.6776,7.7807 8.5386,7.8717 8.4106,7.9737 C7.2496,8.6387 6.4576,9.8747 6.4576,11.3077 L6.4576,17.6007 C6.4576,19.7297 8.1836,21.4557 10.3136,21.4557 L12.5726,21.4557 L13.5696,21.4557 L18.5186,21.4557 C19.4926,21.4557 20.2816,20.6657 20.2816,19.6927 C20.2816,18.9207 19.7816,18.2707 19.0916,18.0327 L19.6496,18.0327 C20.6236,18.0327 21.4126,17.2427 21.4126,16.2687 C21.4126,15.2957 20.6236,14.5057 19.6496,14.5057 L20.7806,14.5057 C21.7546,14.5057 22.5446,13.7167 22.5446,12.7427 Z" id="Stroke-5" stroke="#000000" stroke-linecap="round" stroke-linejoin="round"></path>
            </g>
        </g>
    </g>
</svg>