<svg xmlns="http://www.w3.org/2000/svg" viewBox="0 0 21.6 16.34"><defs/><title>Tickets</title><g id="Layer_2"><g id="Tickets"><path class="cls-tickets1" d="M1.1,6.38H7.31v9.46H1.1V13.61a2.79,2.79,0,0,0,2.5-2.5c.13-2.24-2.5-2.5-2.5-2.5Z" style="fill: #009688;"/><polygon class="cls-tickets1" points="6.94 4.54 0.71 5.28 0.5 3.52 6.64 2.58 6.94 4.54" style="fill: #009688;"/><path class="cls-tickets2" d="M18.6,11.11a2.5,2.5,0,0,1,2.5-2.5V6.38H1.1V8.61a2.5,2.5,0,1,1,0,5v2.23h20V13.61A2.5,2.5,0,0,1,18.6,11.11Z" style="fill: none; stroke: #000; stroke-linecap: round; stroke-linejoin: round;"/><line class="cls-tickets2" x1="7.31" y1="6.38" x2="7.31" y2="15.84" style="fill: none; stroke: #000; stroke-linecap: round; stroke-linejoin: round;"/><path class="cls-tickets2" d="M18.75,4A2.5,2.5,0,0,1,20.61,2.7L20.27.5.5,3.52.74,5.11" style="fill: none; stroke: #000; stroke-linecap: round; stroke-linejoin: round;"/><line class="cls-tickets2" x1="6.64" y1="2.58" x2="6.94" y2="4.54" style="fill: none; stroke: #000; stroke-linecap: round; stroke-linejoin: round;"/></g></g></svg>
