<?xml version="1.0" encoding="UTF-8"?>
<svg width="24px" height="24px" viewBox="0 0 24 24" version="1.1" xmlns="http://www.w3.org/2000/svg" xmlns:xlink="http://www.w3.org/1999/xlink">
    <!-- Generator: Sketch 53.2 (72643) - https://sketchapp.com -->
    <title>Icon/T&amp;C</title>
    <desc>Created with Sketch.</desc>
    <defs>
        <polygon id="path-1" points="0.0002 0.0004 18.219 0.0004 18.219 20 0.0002 20"></polygon>
    </defs>
    <g id="Icon/T&amp;C" stroke="none" stroke-width="1" fill="none" fill-rule="evenodd">
        <g id="Group-6" transform="translate(3.000000, 2.000000)">
            <g id="Group-3">
                <mask id="mask-2" fill="white">
                    <use xlink:href="#path-1"></use>
                </mask>
                <g id="Clip-2"></g>
                <path d="M17.0452,7.0854 L17.0452,7.0854 C17.0452,9.6504 16.2732,12.1204 14.8112,14.2274 C13.3912,16.2754 11.4232,17.8334 9.1092,18.7444 C6.7962,17.8334 4.8282,16.2754 3.4082,14.2274 C1.9462,12.1204 1.1742,9.6504 1.1742,7.0854 L1.1742,4.3104 C2.7832,4.0574 4.0572,2.7834 4.3102,1.1734 L13.9092,1.1734 C14.1612,2.7834 15.4362,4.0574 17.0452,4.3104 L17.0452,7.0854 Z M17.6322,3.1814 C16.2012,3.1814 15.0372,2.0174 15.0372,0.5864 L15.0372,0.0004 L3.1822,0.0004 L3.1822,0.5864 C3.1822,2.0174 2.0182,3.1814 0.5872,3.1814 L0.0002,3.1814 L0.0002,7.0854 C0.0002,9.8904 0.8452,12.5914 2.4432,14.8974 C4.0432,17.2024 6.2762,18.9404 8.9042,19.9224 L9.1092,20.0004 L9.3152,19.9224 C11.9422,18.9404 14.1772,17.2024 15.7752,14.8974 C17.3742,12.5914 18.2192,9.8904 18.2192,7.0854 L18.2192,3.1814 L17.6322,3.1814 Z" id="Fill-1" fill="#000000" mask="url(#mask-2)"></path>
            </g>
            <path d="M5.1541,10.1763 L5.1541,10.1763 C5.45317781,9.87749834 5.93784158,9.87767898 6.23669658,10.1767035 L7.4586,11.3993 L11.9835466,6.8752466 C12.2823708,6.5764814 12.7668053,6.57650531 13.0656,6.8753 L13.0656,6.8753 C13.3643617,7.17406175 13.3643617,7.65845025 13.0656,7.957212 C13.0655853,7.95722667 13.0655707,7.95724133 13.065556,7.957256 L7.4586,13.5633 L5.15385006,11.2585501 C4.85506394,10.9597639 4.85506394,10.4753359 5.15385006,10.1765498 C5.15393335,10.1764665 5.15401667,10.1763833 5.1541,10.1763 Z" id="Fill-4" fill="#009688"></path>
        </g>
    </g>
</svg>