<?xml version="1.0" encoding="UTF-8"?>
<svg width="24px" height="24px" viewBox="0 0 24 24" version="1.1" xmlns="http://www.w3.org/2000/svg" xmlns:xlink="http://www.w3.org/1999/xlink">
    <!-- Generator: Sketch 50.2 (55047) - http://www.bohemiancoding.com/sketch -->
    <title>Icon/Train</title>
    <desc>Created with Sketch.</desc>
    <defs></defs>
    <g id="Icon/Train" stroke="none" stroke-width="1" fill="none" fill-rule="evenodd">
        <g id="icon/train">
            <rect id="Rectangle-2" x="0" y="0" width="24" height="24"></rect>
            <g id="Group-12" transform="translate(4.000000, 2.000000)">
                <polygon id="Fill-1" fill="#009688" points="3.661 8.553 12.37 8.553 12.37 4.074 3.661 4.074"></polygon>
                <path d="M14.5554,16.0138 L1.4444,16.0138 L1.4444,14.7658 L14.5244,14.7658 L14.5244,16.0138 L14.5554,16.0138 Z M11.4964,17.2318 L4.5034,17.2318 L4.8474,16.6388 L11.1844,16.6388 L11.4964,17.2318 Z M3.6604,18.6358 L4.1294,17.8558 L11.9024,17.8558 L12.3704,18.6358 L3.6604,18.6358 Z M2.4434,4.8388 C2.4434,3.7778 3.2864,2.9348 4.3474,2.9348 L11.6524,2.9348 C12.7134,2.9348 13.5564,3.7778 13.5564,4.8388 L13.5564,14.1718 L2.4434,14.1718 L2.4434,4.8388 Z M7.1574,1.4668 C7.1574,0.9988 7.5324,0.6238 8.0004,0.6238 C8.4684,0.6238 8.8434,0.9988 8.8434,1.4668 C8.8434,1.9358 8.4684,2.3098 8.0004,2.3098 C7.5324,2.3098 7.1574,1.9358 7.1574,1.4668 Z M14.5554,14.1408 L14.1804,14.1408 L14.1804,4.8388 C14.1804,3.4338 13.0564,2.3098 11.6524,2.3098 L9.1864,2.3098 C9.3424,2.0608 9.4674,1.7798 9.4674,1.4668 C9.4674,0.6558 8.8114,-0.0002 8.0004,-0.0002 C7.1884,-0.0002 6.5334,0.6558 6.5334,1.4668 C6.5334,1.7798 6.6264,2.0608 6.8134,2.3098 L4.3474,2.3098 C2.9434,2.3098 1.8194,3.4338 1.8194,4.8388 L1.8194,14.1718 L1.4444,14.1718 C1.1014,14.1718 0.8204,14.4528 0.8204,14.7968 L0.8204,16.0448 C0.8204,16.3888 1.1014,16.6698 1.4444,16.6698 L4.0974,16.6698 L2.3814,19.5098 C2.2874,19.6658 2.3494,19.8538 2.4744,19.9478 C2.6304,20.0408 2.8184,19.9788 2.9114,19.8538 L3.2554,19.2608 L12.7134,19.2608 L13.0564,19.8538 C13.1504,20.0098 13.3384,20.0408 13.4934,19.9478 C13.6504,19.8538 13.6814,19.6658 13.5874,19.5098 L11.8704,16.6698 L14.5554,16.6698 C14.8984,16.6698 15.1804,16.3888 15.1804,16.0448 L15.1804,14.7968 C15.1804,14.4218 14.8984,14.1408 14.5554,14.1408 Z" id="Fill-2" fill="#000000"></path>
                <path d="M8.0002,11.2384 C7.6562,11.2384 7.4072,10.9574 7.4072,10.6444 C7.4072,10.3014 7.6882,10.0514 8.0002,10.0514 C8.3432,10.0514 8.5932,10.3334 8.5932,10.6444 C8.5932,10.9884 8.3122,11.2384 8.0002,11.2384 M8.0002,9.4274 C7.3132,9.4274 6.7822,9.9894 6.7822,10.6444 C6.7822,11.3004 7.3132,11.8624 8.0002,11.8624 C8.6872,11.8624 9.2172,11.3004 9.2172,10.6444 C9.2172,9.9894 8.6872,9.4274 8.0002,9.4274" id="Fill-4" fill="#000000"></path>
                <path d="M6.0334,13.0177 L3.7544,13.0177 L3.7544,11.8627 L5.4084,11.8627 C5.7524,11.8627 6.0334,12.1437 6.0334,12.4867 L6.0334,13.0177 Z M5.4084,11.2387 L3.4424,11.2387 C3.2554,11.2387 3.1304,11.3627 3.1304,11.5497 L3.1304,13.3297 C3.1304,13.5167 3.2554,13.6417 3.4424,13.6417 L6.3454,13.6417 C6.5334,13.6417 6.6574,13.5167 6.6574,13.3297 L6.6574,12.4867 C6.6574,11.7997 6.0954,11.2387 5.4084,11.2387 Z" id="Fill-6" fill="#000000"></path>
                <path d="M12.2453,13.0177 L9.9663,13.0177 L9.9663,12.4867 C9.9663,12.1437 10.2473,11.8627 10.5913,11.8627 L12.2453,11.8627 L12.2453,13.0177 Z M12.5573,11.2387 L10.5913,11.2387 C9.9043,11.2387 9.3423,11.7997 9.3423,12.4867 L9.3423,13.3297 C9.3423,13.5167 9.4673,13.6417 9.6543,13.6417 L12.5573,13.6417 C12.7453,13.6417 12.8703,13.5167 12.8703,13.3297 L12.8703,11.5497 C12.8703,11.3627 12.7133,11.2387 12.5573,11.2387 Z" id="Fill-8" fill="#000000"></path>
                <path d="M12.2453,8.2413 L8.3123,8.2413 L8.3123,4.2453 L11.6213,4.2453 C11.9643,4.2453 12.2453,4.5263 12.2453,4.8703 L12.2453,8.2413 Z M7.6873,8.2413 L3.7543,8.2413 L3.7543,4.8703 C3.7543,4.5263 4.0353,4.2453 4.3793,4.2453 L7.6873,4.2453 L7.6873,8.2413 Z M11.6213,3.6213 L4.3783,3.6213 C3.6923,3.6213 3.1303,4.1823 3.1303,4.8703 L3.1303,8.5533 C3.1303,8.7093 3.2863,8.8653 3.4423,8.8653 L12.5573,8.8653 C12.7133,8.8653 12.8703,8.7093 12.8703,8.5533 L12.8703,4.8703 C12.8703,4.1823 12.3073,3.6213 11.6213,3.6213 Z" id="Fill-10" fill="#000000"></path>
            </g>
        </g>
    </g>
</svg>