<?xml version="1.0" encoding="UTF-8"?>
<svg width="120px" height="96px" viewBox="0 0 120 96" version="1.1" xmlns="http://www.w3.org/2000/svg" xmlns:xlink="http://www.w3.org/1999/xlink">
    <!-- Generator: Sketch 54.1 (76490) - https://sketchapp.com -->
    <title>travelers</title>
    <desc>Created with Sketch.</desc>
    <defs>
        <polygon id="path-1" points="0.574695652 0.506217822 28.932087 0.506217822 28.932087 11.3793584 0.574695652 11.3793584"></polygon>
        <polygon id="path-3" points="0 87.4942178 119.214783 87.4942178 119.214783 0.871722772 0 0.871722772"></polygon>
    </defs>
    <g id="Page-2" stroke="none" stroke-width="1" fill="none" fill-rule="evenodd">
        <g id="7" transform="translate(-120.000000, -140.000000)">
            <g id="travelers" transform="translate(120.000000, 140.000000)">
                <circle id="Oval" fill="#FFF192" cx="60.5" cy="35.5" r="35.5"></circle>
                <g id="Group-146" transform="translate(0.000000, 8.000000)">
                    <g>
                        <path d="M1.2833913,54.2273426 C1.0433913,54.2273426 0.848608696,54.0321743 0.848608696,53.791699 C0.848608696,52.1998574 2.14165217,50.9042535 3.73034783,50.9042535 C4.27991304,50.9042535 4.80513043,51.0576 5.25904348,51.3433822 C6.23556522,48.9804515 8.51730435,47.4330455 11.1164348,47.4330455 C13.4390435,47.4330455 15.5477391,48.6929267 16.659913,50.6942733 C17.4773043,49.8735208 18.5938261,49.3995406 19.7616522,49.3995406 C22.1790435,49.3995406 24.1451304,51.3695208 24.1451304,53.791699 C24.1451304,54.0321743 23.9503478,54.2273426 23.7103478,54.2273426 L1.2833913,54.2273426 Z" id="Fill-1" fill="#009584"></path>
                        <path d="M11.1169565,46.9974891 C8.50130435,46.9974891 6.1873913,48.4638653 5.05434783,50.7431525 C4.64217391,50.562796 4.19347826,50.468697 3.73,50.468697 C1.90130435,50.468697 0.413478261,51.9594693 0.413478261,53.7917861 C0.413478261,54.2727366 0.803043478,54.6630733 1.28304348,54.6630733 L5.20565217,54.6630733 L6.17782609,54.6630733 L15.8126087,54.6630733 L17.0273913,54.6630733 L23.71,54.6630733 C24.1908696,54.6630733 24.5795652,54.2727366 24.5795652,53.7917861 C24.5795652,51.130004 22.4186957,48.9639842 19.7613043,48.9639842 C18.6630435,48.9639842 17.6047826,49.3456079 16.7595652,50.0217267 C15.5178261,48.1519446 13.416087,46.9974891 11.1169565,46.9974891 M11.1169565,47.8687762 C13.5630435,47.8687762 15.6621739,49.3578059 16.5604348,51.4811327 C17.2778261,50.4852515 18.4430435,49.8352713 19.7613043,49.8352713 C21.9421739,49.8352713 23.71,51.606598 23.71,53.7917861 L17.0273913,53.7917861 L15.8126087,53.7917861 L6.17782609,53.7917861 L5.20565217,53.7917861 L1.28304348,53.7917861 C1.28304348,52.4378059 2.37869565,51.3399842 3.73,51.3399842 C4.4073913,51.3399842 5.02043478,51.6161822 5.46391304,52.0614099 C6.20304348,49.6348752 8.45347826,47.8687762 11.1169565,47.8687762" id="Fill-3" fill="#000000"></path>
                        <path d="M80.573913,11.3100911 C80.333913,11.3100911 80.1391304,11.1149228 80.1391304,10.8744475 C80.1391304,5.59880396 84.4226087,1.30684356 89.6878261,1.30684356 C93.4878261,1.30684356 96.9121739,3.5791604 98.4234783,7.0312 C99.433913,6.01963564 100.781739,5.45155644 102.216522,5.45155644 C105.2,5.45155644 107.627826,7.8841901 107.627826,10.8744475 C107.627826,11.1149228 107.433913,11.3100911 107.193043,11.3100911 L80.573913,11.3100911 Z" id="Fill-5" fill="#009584"></path>
                        <g id="Group-9" transform="translate(79.130435, 0.365505)">
                            <mask id="mask-2" fill="white">
                                <use xlink:href="#path-1"></use>
                            </mask>
                            <g id="Clip-8"></g>
                            <path d="M10.5573043,0.50569505 C5.05208696,0.50569505 0.574695652,4.99282376 0.574695652,10.5080713 C0.574695652,10.9898931 0.963391304,11.3793584 1.44426087,11.3793584 L18.1094783,11.3793584 L19.6703478,11.3793584 L28.0625217,11.3793584 C28.5433913,11.3793584 28.932087,10.9898931 28.932087,10.5080713 C28.932087,7.2782099 26.3094783,4.65040792 23.086,4.65040792 C21.7381739,4.65040792 20.4625217,5.11393267 19.4355652,5.9512396 C17.746,2.64644752 14.3286087,0.50569505 10.5573043,0.50569505 M10.5573043,1.37698218 C14.5329565,1.37698218 17.9042609,3.93246733 19.1494783,7.48906139 C20.059913,6.30062574 21.4764348,5.52169505 23.086,5.52169505 C25.8346957,5.52169505 28.0625217,7.75480396 28.0625217,10.5080713 L19.6703478,10.5080713 L18.1094783,10.5080713 L1.44426087,10.5080713 C1.44426087,5.46506139 5.5233913,1.37698218 10.5573043,1.37698218" id="Fill-7" fill="#000000" mask="url(#mask-2)"></path>
                        </g>
                        <path d="M56.7627826,64.8606178 L56.7627826,86.8397069 L3.51930435,86.8397069 L3.51930435,64.9564594 C3.51930435,60.1556673 6.72452174,55.9403802 11.3566957,54.6709149 L22.3566957,51.6510337 L25.4445217,50.808499 L27.894087,50.1367366 C29.7688696,49.6244198 31.7593043,49.6348752 33.634087,50.168103 L35.8593043,50.808499 L37.701913,51.3417267 L49.0532174,54.5959842 C53.6106087,55.9090139 56.7627826,60.0911921 56.7627826,64.8606178" id="Fill-10" fill="#FFFFFF"></path>
                        <path d="M56.7627826,64.8606178 L56.7627826,86.8397069 L3.51930435,86.8397069 L3.51930435,64.9564594 C3.51930435,60.1556673 6.72452174,55.9403802 11.3566957,54.6709149 L22.3566957,51.6510337 L25.4445217,50.808499 L27.894087,50.1367366 C29.7688696,49.6244198 31.7593043,49.6348752 33.634087,50.168103 L35.8593043,50.808499 L37.701913,51.3417267 L49.0532174,54.5959842 C53.6106087,55.9090139 56.7627826,60.0911921 56.7627826,64.8606178 Z" id="Stroke-12" stroke="#000000" stroke-linecap="round" stroke-linejoin="round"></path>
                        <path d="M36.5801739,46.352998 L36.541913,49.7597307 C36.541913,49.7597307 29.3088696,53.6186614 23.7627826,49.8146218 L23.8210435,46.0550178 L36.5801739,46.352998 Z" id="Fill-14" fill="#EBEBEB"></path>
                        <g id="Group-19" transform="translate(13.043478, 68.325901)">
                            <path d="M1.2486087,18.5117149 L1.2486087,0.847239604" id="Fill-16" fill="#009584"></path>
                            <path d="M1.2486087,18.5117149 L1.2486087,0.847239604" id="Stroke-18" stroke="#000000" stroke-linecap="round" stroke-linejoin="round"></path>
                        </g>
                        <g id="Group-23" transform="translate(42.608696, 68.325901)">
                            <path d="M1.13226087,18.5117149 L1.13226087,0.847239604" id="Fill-20" fill="#009584"></path>
                            <path d="M1.13226087,18.5117149 L1.13226087,0.847239604" id="Stroke-22" stroke="#000000" stroke-linecap="round" stroke-linejoin="round"></path>
                        </g>
                        <g id="Group-27" transform="translate(29.565217, 62.226891)">
                            <path d="M0.888086957,24.6107248 L0.888086957,0.24169505" id="Fill-24" fill="#009584"></path>
                            <path d="M0.888086957,24.6107248 L0.888086957,0.24169505" id="Stroke-26" stroke="#000000" stroke-linecap="round" stroke-linejoin="round"></path>
                        </g>
                        <g id="Group-31" transform="translate(43.478261, 77.038772)">
                            <path d="M0.421478261,1.28506139 L10.9110435,1.28506139" id="Fill-28" fill="#009584"></path>
                            <path d="M0.421478261,1.28506139 L10.9110435,1.28506139" id="Stroke-30" stroke="#000000" stroke-linecap="round" stroke-linejoin="round"></path>
                        </g>
                        <g id="Group-35" transform="translate(3.478261, 77.038772)">
                            <path d="M0.0431304348,1.28506139 L10.5326957,1.28506139" id="Fill-32" fill="#009584"></path>
                            <path d="M0.0431304348,1.28506139 L10.5326957,1.28506139" id="Stroke-34" stroke="#000000" stroke-linecap="round" stroke-linejoin="round"></path>
                        </g>
                        <mask id="mask-4" fill="white">
                            <use xlink:href="#path-3"></use>
                        </mask>
                        <g id="Clip-37"></g>
                        <polygon id="Fill-36" fill="#009584" mask="url(#mask-4)" points="4.08782609 77.9666931 13.7078261 77.9666931 13.7078261 76.0402772 4.08782609 76.0402772"></polygon>
                        <polygon id="Fill-38" fill="#009584" mask="url(#mask-4)" points="44.3217391 78.0372673 53.7973913 78.0372673 53.7973913 76.1108515 44.3217391 76.1108515"></polygon>
                        <polygon id="Fill-39" fill="#FFFFFF" mask="url(#mask-4)" points="37.7015652 51.3420752 42.2015652 52.6315802 38.3893913 65.8167683 31.1876522 61.6441743"></polygon>
                        <polygon id="Stroke-40" stroke="#000000" stroke-linecap="round" stroke-linejoin="round" mask="url(#mask-4)" points="37.7015652 51.3420752 42.2015652 52.6315802 38.3893913 65.8167683 31.1876522 61.6441743"></polygon>
                        <polygon id="Fill-41" fill="#FFFFFF" mask="url(#mask-4)" points="23.1023478 51.3420752 18.6023478 52.6315802 22.4145217 65.8167683 29.6162609 61.6441743"></polygon>
                        <polygon id="Stroke-42" stroke="#000000" stroke-linecap="round" stroke-linejoin="round" mask="url(#mask-4)" points="23.1023478 51.3420752 18.6023478 52.6315802 22.4145217 65.8167683 29.6162609 61.6441743"></polygon>
                        <path d="M105.578957,33.4113347 C105.578957,33.4113347 122.334609,77.0035723 90.605913,77.4252752 C90.605913,77.4252752 62.9389565,79.3063842 75.6328696,33.4104634 L78.7954783,26.5516911 C80.9502609,22.2074535 85.4137391,19.217196 90.5850435,19.217196 C95.7537391,19.217196 100.216348,22.2057109 102.372,26.5482059 L105.578957,33.4113347 Z" id="Fill-43" fill="#009584" mask="url(#mask-4)"></path>
                        <path d="M105.578957,33.4113347 C105.578957,33.4113347 122.334609,77.0035723 90.605913,77.4252752 C90.605913,77.4252752 62.9389565,79.3063842 75.6328696,33.4104634 L78.7954783,26.5516911 C80.9502609,22.2074535 85.4137391,19.217196 90.5850435,19.217196 C95.7537391,19.217196 100.216348,22.2057109 102.372,26.5482059 L105.578957,33.4113347 Z" id="Stroke-44" stroke="#000000" stroke-linecap="round" stroke-linejoin="round" mask="url(#mask-4)"></path>
                        <path d="M105.676174,40.369695 C105.676174,41.9641505 104.905739,43.2562693 103.955304,43.2562693 C103.00487,43.2562693 102.234435,41.9641505 102.234435,40.369695 C102.234435,38.7752396 103.00487,37.4831208 103.955304,37.4831208 C104.905739,37.4831208 105.676174,38.7752396 105.676174,40.369695" id="Fill-45" fill="#FFFFFF" mask="url(#mask-4)"></path>
                        <path d="M105.676174,40.369695 C105.676174,41.9641505 104.905739,43.2562693 103.955304,43.2562693 C103.00487,43.2562693 102.234435,41.9641505 102.234435,40.369695 C102.234435,38.7752396 103.00487,37.4831208 103.955304,37.4831208 C104.905739,37.4831208 105.676174,38.7752396 105.676174,40.369695 Z" id="Stroke-46" stroke="#000000" stroke-linecap="round" stroke-linejoin="round" mask="url(#mask-4)"></path>
                        <path d="M77.2285217,40.369695 C77.2285217,41.9641505 77.9989565,43.2562693 78.9493913,43.2562693 C79.8998261,43.2562693 80.6702609,41.9641505 80.6702609,40.369695 C80.6702609,38.7752396 79.8998261,37.5571802 78.9493913,37.5571802 C77.9989565,37.5571802 77.2285217,38.7752396 77.2285217,40.369695" id="Fill-47" fill="#FFFFFF" mask="url(#mask-4)"></path>
                        <path d="M77.2285217,40.369695 C77.2285217,41.9641505 77.9989565,43.2562693 78.9493913,43.2562693 C79.8998261,43.2562693 80.6702609,41.9641505 80.6702609,40.369695 C80.6702609,38.7752396 79.8998261,37.5571802 78.9493913,37.5571802 C77.9989565,37.5571802 77.2285217,38.7752396 77.2285217,40.369695 Z" id="Stroke-48" stroke="#000000" stroke-linecap="round" stroke-linejoin="round" mask="url(#mask-4)"></path>
                        <g id="Group-51" mask="url(#mask-4)">
                            <g transform="translate(66.956522, 56.127881)">
                                <path d="M0.24826087,30.6025663 L0.24826087,14.3861703 C0.24826087,10.0131802 3.1673913,6.17428911 7.38565217,5.01809109 L17.403913,2.26830891 L20.2169565,1.50070495 L22.4473913,0.888190099 C24.1543478,0.422051485 25.9682609,0.431635644 27.6752174,0.917813861 L29.7021739,1.50070495 L31.3795652,1.98688317 L41.7178261,4.95013069 C45.8682609,6.14553663 48.7395652,9.95480396 48.7395652,14.2990416 L48.7395652,30.6025663 L0.24826087,30.6025663" id="Fill-49" stroke="none" fill="#FFFFFF" fill-rule="evenodd"></path>
                                <path d="M0.24826087,30.6025663 L0.24826087,14.3861703 C0.24826087,10.0131802 3.1673913,6.17428911 7.38565217,5.01809109 L17.403913,2.26830891 L20.2169565,1.50070495 L22.4473913,0.888190099 C24.1543478,0.422051485 25.9682609,0.431635644 27.6752174,0.917813861 L29.7021739,1.50070495 L31.3795652,1.98688317 L41.7178261,4.95013069 C45.8682609,6.14553663 48.7395652,9.95480396 48.7395652,14.2990416 L48.7395652,30.6025663 L0.24826087,30.6025663" id="Stroke-50" stroke="#000000" stroke-width="1" fill="none" stroke-linecap="round" stroke-linejoin="round"></path>
                            </g>
                        </g>
                        <path d="M85.6393043,58.6429386 C84.6723478,55.3825822 85.6393043,45.0386614 85.6393043,45.0386614 L97.2775652,45.0386614 C97.2775652,45.0386614 98.1906087,55.3677703 97.2775652,58.6429386 L95.8584348,60.2617901 C93.414087,63.0516515 89.0462609,62.9436119 86.7436522,60.0361267 L85.6393043,58.6429386 Z" id="Fill-52" fill="#FFFFFF" mask="url(#mask-4)"></path>
                        <path d="M85.6393043,58.6429386 C84.6723478,55.3825822 85.6393043,45.0386614 85.6393043,45.0386614 L97.2775652,45.0386614 C97.2775652,45.0386614 98.1906087,55.3677703 97.2775652,58.6429386 L95.8584348,60.2617901 C93.414087,63.0516515 89.0462609,62.9436119 86.7436522,60.0361267 L85.6393043,58.6429386 Z" id="Stroke-53" stroke="#000000" stroke-linecap="round" stroke-linejoin="round" mask="url(#mask-4)"></path>
                        <path d="M97.1074783,53.5415525 L97.0266087,56.2773941 C97.0266087,56.2773941 91.0257391,59.742503 85.9744348,56.2773941 L85.6918261,52.8532356 L97.1074783,53.5415525 Z" id="Fill-54" fill="#EBEBEB" mask="url(#mask-4)"></path>
                        <g id="Group-57" mask="url(#mask-4)">
                            <g transform="translate(78.260870, 23.018970)">
                                <path d="M25.5008696,11.0330218 C25.6313043,12.0010218 25.6973913,13.0256554 25.6947826,14.1043089 C25.6652174,23.7886653 20.0478261,33.2787248 13.1426087,33.2586851 C6.2373913,33.2377743 0.66,23.7146059 0.688695652,14.0302495 C0.708695652,7.37187327 3.37130435,2.83072475 7.2773913,0.649021782" id="Fill-55" stroke="none" fill="#FFFFFF" fill-rule="evenodd"></path>
                                <path d="M25.5008696,11.0330218 C25.6313043,12.0010218 25.6973913,13.0256554 25.6947826,14.1043089 C25.6652174,23.7886653 20.0478261,33.2787248 13.1426087,33.2586851 C6.2373913,33.2377743 0.66,23.7146059 0.688695652,14.0302495 C0.708695652,7.37187327 3.37130435,2.83072475 7.2773913,0.649021782" id="Stroke-56" stroke="#000000" stroke-width="1" fill="none" stroke-linecap="round" stroke-linejoin="round"></path>
                            </g>
                        </g>
                        <path d="M99.0385217,24.9052198 L104.50113,33.5553584 C104.50113,33.5553584 93.1428696,33.4194376 89.0176522,31.3553584 C89.0176522,31.3553584 85.8202609,29.2024079 85.5750435,28.0523089 C85.5750435,28.0523089 84.022,36.7024475 78.0402609,37.0553188 C78.0402609,37.0553188 75.6272174,23.2497743 89.4933043,21.0837545 L99.0385217,24.9052198 Z" id="Fill-58" fill="#009584" mask="url(#mask-4)"></path>
                        <path d="M78.3766087,37.7149703 C78.3766087,37.7149703 85.4105217,33.514495 85.5748696,28.052396 C85.5748696,28.052396 87.3253043,34.2803564 103.955739,33.6234059" id="Stroke-59" stroke="#000000" stroke-linecap="round" stroke-linejoin="round" mask="url(#mask-4)"></path>
                        <g id="Group-62" mask="url(#mask-4)">
                            <g transform="translate(71.304348, 75.296198)">
                                <path d="M0.429913043,0.0951445545 C0.429913043,2.99740198 2.7786087,6.6646495 5.67513043,6.6646495 L5.67513043,11.5656396" id="Fill-60" stroke="none" fill="#FFFFFF" fill-rule="evenodd"></path>
                                <path d="M0.429913043,0.0951445545 C0.429913043,2.99740198 2.7786087,6.6646495 5.67513043,6.6646495 L5.67513043,11.5656396" id="Stroke-61" stroke="#000000" stroke-width="1" fill="none" stroke-linecap="round" stroke-linejoin="round"></path>
                            </g>
                        </g>
                        <g id="Group-65" mask="url(#mask-4)">
                            <g transform="translate(105.217391, 75.296198)">
                                <path d="M6.02478261,0.0951445545 C6.02478261,2.99740198 3.67695652,6.6646495 0.780434783,6.6646495 L0.780434783,11.5656396" id="Fill-63" stroke="none" fill="#FFFFFF" fill-rule="evenodd"></path>
                                <path d="M6.02478261,0.0951445545 C6.02478261,2.99740198 3.67695652,6.6646495 0.780434783,6.6646495 L0.780434783,11.5656396" id="Stroke-64" stroke="#000000" stroke-width="1" fill="none" stroke-linecap="round" stroke-linejoin="round"></path>
                            </g>
                        </g>
                        <path d="M86.8077368,47.6854574 C86.8051304,48.7074772 89.0033913,50.7759129 91.7225217,50.7837545 C94.4425217,50.791596 96.6529565,48.737101 96.6564348,47.7150812 L86.8077368,47.6854574 Z" id="Stroke-66" stroke="#000000" stroke-linecap="round" stroke-linejoin="round" mask="url(#mask-4)"></path>
                        <path d="M104.888609,72.0295683 C104.281652,72.6377267 103.296435,72.6377267 102.689478,72.0295683 C102.082522,71.4214099 102.082522,70.4351129 102.689478,69.8269545 C103.296435,69.2179248 104.281652,69.2179248 104.888609,69.8269545 C105.495565,70.4351129 105.495565,71.4214099 104.888609,72.0295683" id="Fill-67" fill="#FFFFFF" mask="url(#mask-4)"></path>
                        <path d="M104.888609,72.0295683 C104.281652,72.6377267 103.296435,72.6377267 102.689478,72.0295683 C102.082522,71.4214099 102.082522,70.4351129 102.689478,69.8269545 C103.296435,69.2179248 104.281652,69.2179248 104.888609,69.8269545 C105.495565,70.4351129 105.495565,71.4214099 104.888609,72.0295683 Z" id="Stroke-68" stroke="#000000" stroke-linecap="round" stroke-linejoin="round" mask="url(#mask-4)"></path>
                        <path d="M100.653739,69.0234535 C100.046783,69.6316119 99.0624348,69.6316119 98.4554783,69.0234535 C97.8476522,68.415295 97.8476522,67.428998 98.4554783,66.8208396 C99.0624348,66.2118099 100.046783,66.2118099 100.653739,66.8208396 C101.260696,67.428998 101.260696,68.415295 100.653739,69.0234535" id="Fill-69" fill="#FFFFFF" mask="url(#mask-4)"></path>
                        <path d="M100.653739,69.0234535 C100.046783,69.6316119 99.0624348,69.6316119 98.4554783,69.0234535 C97.8476522,68.415295 97.8476522,67.428998 98.4554783,66.8208396 C99.0624348,66.2118099 100.046783,66.2118099 100.653739,66.8208396 C101.260696,67.428998 101.260696,68.415295 100.653739,69.0234535 Z" id="Stroke-70" stroke="#000000" stroke-linecap="round" stroke-linejoin="round" mask="url(#mask-4)"></path>
                        <path d="M99.4181739,72.0295683 C98.8112174,71.4214099 98.8112174,70.4351129 99.4181739,69.8269545 C100.02513,69.2179248 101.010348,69.2179248 101.617304,69.8269545 C102.224261,70.4351129 102.224261,71.4214099 101.617304,72.0295683 C101.010348,72.6377267 100.02513,72.6377267 99.4181739,72.0295683" id="Fill-71" fill="#FFFFFF" mask="url(#mask-4)"></path>
                        <path d="M99.4181739,72.0295683 C98.8112174,71.4214099 98.8112174,70.4351129 99.4181739,69.8269545 C100.02513,69.2179248 101.010348,69.2179248 101.617304,69.8269545 C102.224261,70.4351129 102.224261,71.4214099 101.617304,72.0295683 C101.010348,72.6377267 100.02513,72.6377267 99.4181739,72.0295683 Z" id="Stroke-72" stroke="#000000" stroke-linecap="round" stroke-linejoin="round" mask="url(#mask-4)"></path>
                        <path d="M101.134783,67.0264634 C100.527826,66.418305 100.527826,65.4320079 101.134783,64.8238495 C101.741739,64.2148198 102.726957,64.2148198 103.333913,64.8238495 C103.94087,65.4320079 103.94087,66.418305 103.333913,67.0264634 C102.726957,67.6346218 101.741739,67.6346218 101.134783,67.0264634" id="Fill-73" fill="#FFFFFF" mask="url(#mask-4)"></path>
                        <path d="M101.134783,67.0264634 C100.527826,66.418305 100.527826,65.4320079 101.134783,64.8238495 C101.741739,64.2148198 102.726957,64.2148198 103.333913,64.8238495 C103.94087,65.4320079 103.94087,66.418305 103.333913,67.0264634 C102.726957,67.6346218 101.741739,67.6346218 101.134783,67.0264634 Z" id="Stroke-74" stroke="#000000" stroke-linecap="round" stroke-linejoin="round" mask="url(#mask-4)"></path>
                        <path d="M103.814783,69.0234535 C103.207826,68.415295 103.207826,67.428998 103.814783,66.8208396 C104.421739,66.2118099 105.406957,66.2118099 106.013913,66.8208396 C106.62087,67.428998 106.62087,68.415295 106.013913,69.0234535 C105.406957,69.6316119 104.421739,69.6316119 103.814783,69.0234535" id="Fill-75" fill="#FFFFFF" mask="url(#mask-4)"></path>
                        <path d="M103.814783,69.0234535 C103.207826,68.415295 103.207826,67.428998 103.814783,66.8208396 C104.421739,66.2118099 105.406957,66.2118099 106.013913,66.8208396 C106.62087,67.428998 106.62087,68.415295 106.013913,69.0234535 C105.406957,69.6316119 104.421739,69.6316119 103.814783,69.0234535 Z" id="Stroke-76" stroke="#000000" stroke-linecap="round" stroke-linejoin="round" mask="url(#mask-4)"></path>
                        <path d="M103.359652,68.6171723 C103.359652,69.2401426 102.855304,69.7446178 102.234435,69.7446178 C101.612696,69.7446178 101.109217,69.2401426 101.109217,68.6171723 C101.109217,67.9950733 101.612696,67.490598 102.234435,67.490598 C102.855304,67.490598 103.359652,67.9950733 103.359652,68.6171723" id="Fill-77" fill="#009584" mask="url(#mask-4)"></path>
                        <path d="M103.359652,68.6171723 C103.359652,69.2401426 102.855304,69.7446178 102.234435,69.7446178 C101.612696,69.7446178 101.109217,69.2401426 101.109217,68.6171723 C101.109217,67.9950733 101.612696,67.490598 102.234435,67.490598 C102.855304,67.490598 103.359652,67.9950733 103.359652,68.6171723 Z" id="Stroke-78" stroke="#000000" stroke-linecap="round" stroke-linejoin="round" mask="url(#mask-4)"></path>
                        <g id="Group-81" mask="url(#mask-4)">
                            <g transform="translate(109.565217, 78.781347)">
                                <path d="M6.13052174,0.605718812 L0.601826087,0.605718812" id="Fill-79" stroke="none" fill="#FFFFFF" fill-rule="evenodd"></path>
                                <path d="M6.13052174,0.605718812 L0.601826087,0.605718812" id="Stroke-80" stroke="#000000" stroke-width="1" fill="none" stroke-linecap="round" stroke-linejoin="round"></path>
                            </g>
                        </g>
                        <g id="Group-84" mask="url(#mask-4)">
                            <g transform="translate(66.956522, 78.781347)">
                                <path d="M5.77686957,0.605718812 L0.248173913,0.605718812" id="Fill-82" stroke="none" fill="#FFFFFF" fill-rule="evenodd"></path>
                                <path d="M5.77686957,0.605718812 L0.248173913,0.605718812" id="Stroke-83" stroke="#000000" stroke-width="1" fill="none" stroke-linecap="round" stroke-linejoin="round"></path>
                            </g>
                        </g>
                        <path d="M33.1673043,69.2914614 C33.1673043,69.839501 32.7238261,70.2838574 32.1777391,70.2838574 C31.6307826,70.2838574 31.1873043,69.839501 31.1873043,69.2914614 C31.1873043,68.7442931 31.6307826,68.2999366 32.1777391,68.2999366 C32.7238261,68.2999366 33.1673043,68.7442931 33.1673043,69.2914614" id="Fill-85" fill="#009584" mask="url(#mask-4)"></path>
                        <path d="M33.1673043,76.3834772 C33.1673043,76.9306455 32.7238261,77.375002 32.1777391,77.375002 C31.6307826,77.375002 31.1873043,76.9306455 31.1873043,76.3834772 C31.1873043,75.8354376 31.6307826,75.3910812 32.1777391,75.3910812 C32.7238261,75.3910812 33.1673043,75.8354376 33.1673043,76.3834772" id="Fill-86" fill="#009584" mask="url(#mask-4)"></path>
                        <path d="M33.1673043,83.4750574 C33.1673043,84.0222257 32.7238261,84.4665822 32.1777391,84.4665822 C31.6307826,84.4665822 31.1873043,84.0222257 31.1873043,83.4750574 C31.1873043,82.9270178 31.6307826,82.4826614 32.1777391,82.4826614 C32.7238261,82.4826614 33.1673043,82.9270178 33.1673043,83.4750574" id="Fill-87" fill="#009584" mask="url(#mask-4)"></path>
                        <g id="Group-90" mask="url(#mask-4)">
                            <g transform="translate(41.739130, 29.117980)">
                                <path d="M0.199391304,0.183231683 C2.04721739,0.188459406 4.07069565,0.895073267 4.07069565,3.36255842 C4.07069565,5.52247921 1.74026087,6.88952871 0.56026087,6.88517228" id="Fill-88" stroke="none" fill="#FFFFFF" fill-rule="evenodd"></path>
                                <path d="M0.199391304,0.183231683 C2.04721739,0.188459406 4.07069565,0.895073267 4.07069565,3.36255842 C4.07069565,5.52247921 1.74026087,6.88952871 0.56026087,6.88517228" id="Stroke-89" stroke="#000000" stroke-width="1" fill="none" stroke-linecap="round" stroke-linejoin="round"></path>
                            </g>
                        </g>
                        <g id="Group-93" mask="url(#mask-4)">
                            <g transform="translate(13.913043, 29.117980)">
                                <path d="M3.84791304,0.183183892 C2.00008696,0.17800396 0.000956521739,0.597964356 0.000956521739,3.26671683 C0.000956521739,5.11820198 2.21921739,6.6464396 3.40008696,6.64992475" id="Fill-91" stroke="none" fill="#FFFFFF" fill-rule="evenodd"></path>
                                <path d="M3.84791304,0.183183892 C2.00008696,0.17800396 0.000956521739,0.597964356 0.000956521739,3.26671683 C0.000956521739,5.11820198 2.21921739,6.6464396 3.40008696,6.64992475" id="Stroke-92" stroke="#000000" stroke-width="1" fill="none" stroke-linecap="round" stroke-linejoin="round"></path>
                            </g>
                        </g>
                        <path d="M30.4541739,62.0799921 C30.3150435,62.0799921 30.1837391,62.012903 30.102,61.9005069 L23.4106957,52.6683485 C23.3567826,52.5934178 23.328087,52.5036752 23.328087,52.4121901 L23.328087,37.4739723 C23.328087,37.233497 23.5228696,37.0383287 23.7628696,37.0383287 L36.5411304,37.0383287 C36.782,37.0383287 36.975913,37.233497 36.975913,37.4739723 L36.975913,52.4121901 C36.975913,52.4975762 36.9515652,52.5812198 36.9037391,52.6517941 L30.8167826,61.8839525 C30.7385217,62.0041901 30.6063478,62.0765069 30.4637391,62.0799921 L30.4541739,62.0799921 Z" id="Fill-94" fill="#FFFFFF" mask="url(#mask-4)"></path>
                        <path d="M36.5415652,36.6029465 L23.7633043,36.6029465 C23.2824348,36.6029465 22.8937391,36.9932832 22.8937391,37.4742337 L22.8937391,52.4124515 C22.8937391,52.5962931 22.9511304,52.7757782 23.0589565,52.923897 L29.7502609,62.1560554 C29.9137391,62.3817188 30.1763478,62.515897 30.4546087,62.515897 C30.4606957,62.515897 30.4667826,62.515897 30.4728696,62.5150257 C30.7589565,62.5089267 31.0224348,62.3625505 31.1798261,62.1246891 L37.2667826,52.8925307 C37.3606957,52.7496396 37.4111304,52.5832238 37.4111304,52.4124515 L37.4111304,37.4742337 C37.4111304,36.9932832 37.0215652,36.6029465 36.5415652,36.6029465 M36.5415652,37.4742337 L36.5415652,52.4124515 L30.4546087,61.6446099 L23.7633043,52.4124515 L23.7633043,37.4742337 L36.5415652,37.4742337" id="Fill-95" fill="#000000" mask="url(#mask-4)"></path>
                        <path d="M43.8742609,31.6683248 C43.8742609,31.6683248 52.3473043,12.0408396 30.4542609,12.1061861 C30.4542609,12.1061861 10.1768696,11.2131168 16.4168696,31.5864238 L43.8742609,31.6683248 Z" id="Fill-96" fill="#009584" mask="url(#mask-4)"></path>
                        <path d="M43.8742609,31.6683248 C43.8742609,31.6683248 52.3473043,12.0408396 30.4542609,12.1061861 C30.4542609,12.1061861 10.1768696,11.2131168 16.4168696,31.5864238 L43.8742609,31.6683248 Z" id="Stroke-97" stroke="#000000" stroke-linecap="round" stroke-linejoin="round" mask="url(#mask-4)"></path>
                        <path d="M43.8742609,31.6683248 C43.842087,42.3023842 37.6742609,49.8372752 30.0916522,49.8146218 C22.509913,49.7919683 16.3855652,42.2204832 16.4168696,31.5864238 C16.4490435,20.9532356 22.6212174,17.1117307 30.2029565,17.1343842 C37.7846957,17.1570376 43.9055652,21.0342653 43.8742609,31.6683248" id="Fill-98" fill="#FFFFFF" mask="url(#mask-4)"></path>
                        <path d="M43.8742609,31.6683248 C43.842087,42.3023842 37.6742609,49.8372752 30.0916522,49.8146218 C22.509913,49.7919683 16.3855652,42.2204832 16.4168696,31.5864238 C16.4490435,20.9532356 22.6212174,17.1117307 30.2029565,17.1343842 C37.7846957,17.1570376 43.9055652,21.0342653 43.8742609,31.6683248 Z" id="Stroke-99" stroke="#000000" stroke-linecap="round" stroke-linejoin="round" mask="url(#mask-4)"></path>
                        <path d="M32.4285217,45.543398 C32.4285217,45.6784475 31.5441739,45.7882297 30.4537391,45.7882297 C29.3633043,45.7882297 28.4789565,45.6784475 28.4789565,45.543398 C28.4789565,45.4083485 29.3633043,45.109497 30.4537391,45.109497 C31.5441739,45.109497 32.4285217,45.4083485 32.4285217,45.543398" id="Fill-100" fill="#EBEBEB" mask="url(#mask-4)"></path>
                        <g id="Group-103" mask="url(#mask-4)">
                            <g transform="translate(14.782609, 23.018970)">
                                <path d="M27.2815652,0.729441584 C27.2815652,0.729441584 27.3154783,9.31946139 26.4015652,14.0191842 C25.6363478,14.744095 24.6137391,15.4881743 23.2493913,16.1102733 C21.6702609,15.0612436 18.7328696,13.7874218 15.6711304,15.9673822 C15.6711304,15.9673822 12.3685217,13.7943921 8.52417391,16.549402 C5.95113043,15.6554614 4.28852174,14.3441743 3.2493913,13.2254416 C2.58243478,8.74441188 2.66069565,2.77522376 2.66069565,2.77522376 L0.472869565,2.53126337 L1.30591304,13.4911842 L1.30678261,13.4911842 C0.644173913,18.7389465 0.781565217,30.6442139 15.6711304,30.6442139 C32.1850435,30.6442139 29.7093913,16.0065901 28.7363478,12.043105 L30.6085217,2.53126337" id="Fill-101" stroke="none" fill="#009584" fill-rule="evenodd"></path>
                                <path d="M27.2815652,0.729441584 C27.2815652,0.729441584 27.3154783,9.31946139 26.4015652,14.0191842 C25.6363478,14.744095 24.6137391,15.4881743 23.2493913,16.1102733 C21.6702609,15.0612436 18.7328696,13.7874218 15.6711304,15.9673822 C15.6711304,15.9673822 12.3685217,13.7943921 8.52417391,16.549402 C5.95113043,15.6554614 4.28852174,14.3441743 3.2493913,13.2254416 C2.58243478,8.74441188 2.66069565,2.77522376 2.66069565,2.77522376 L0.472869565,2.53126337 L1.30591304,13.4911842 L1.30678261,13.4911842 C0.644173913,18.7389465 0.781565217,30.6442139 15.6711304,30.6442139 C32.1850435,30.6442139 29.7093913,16.0065901 28.7363478,12.043105 L30.6085217,2.53126337" id="Stroke-102" stroke="#000000" stroke-width="1" fill="none" stroke-linecap="round" stroke-linejoin="round"></path>
                            </g>
                        </g>
                        <path d="M26.2468669,42.9903525 C26.2442609,43.8625109 28.1225217,45.6294812 30.4451304,45.6373228 C32.7686087,45.6434218 34.6564348,43.8877782 34.6590435,43.0147485 L26.2468669,42.9903525 Z" id="Fill-104" fill="#FFFFFF" mask="url(#mask-4)"></path>
                        <path d="M26.2468669,42.9903525 C26.2442609,43.8625109 28.1225217,45.6294812 30.4451304,45.6373228 C32.7686087,45.6434218 34.6564348,43.8877782 34.6590435,43.0147485 L26.2468669,42.9903525 Z" id="Stroke-105" stroke="#000000" stroke-linecap="round" stroke-linejoin="round" mask="url(#mask-4)"></path>
                        <path d="M16.4171304,29.3012119 C16.5927826,26.9382812 17.7458261,24.7278257 18.8553913,24.2991525 C19.8614783,23.9096871 21.7553913,24.3549149 22.7458261,24.786202 C29.6388696,27.7877861 35.4032174,27.2292911 35.4032174,27.2292911 C43.5866957,26.4878257 43.3049565,22.1052515 43.3049565,22.1052515 C43.3049565,14.0371327 31.4910435,15.3449347 31.4910435,15.3449347 C31.4910435,15.3449347 16.9493043,12.8626376 15.8562609,25.0127366 C15.8562609,25.0127366 15.6788696,27.6501228 16.4171304,29.3012119" id="Fill-106" fill="#009584" mask="url(#mask-4)"></path>
                        <path d="M31.4910435,15.3448475 C31.4910435,15.3448475 43.3049565,14.0370455 43.3049565,22.1051644 C43.3049565,22.1051644 44.1362609,27.229204 35.404087,27.229204 C35.404087,27.229204 28.8701739,27.4661941 21.978,24.4646099 C20.9875652,24.0333228 19.8614783,23.9096 18.8553913,24.2990653 C17.7458261,24.7286099 17.0814783,25.9806495 17.4797391,29.0684911" id="Stroke-107" stroke="#000000" stroke-linecap="round" stroke-linejoin="round" mask="url(#mask-4)"></path>
                        <path d="M81.837913,70.0096634 L81.837913,86.862099 L41.0135652,86.862099 L41.0135652,70.0828515 C41.0135652,66.4016634 43.4718261,63.1700594 47.0231304,62.1968317 L55.457913,59.8818218 L57.8248696,59.2353267 L59.7031304,58.7195248 C61.1405217,58.3274455 62.6674783,58.3352871 64.104,58.7447921 L65.810087,59.2353267 L67.2231304,59.6448317 L75.9266087,62.1393267 C79.4213913,63.1465347 81.837913,66.3528713 81.837913,70.0096634" id="Fill-108" fill="#FFFFFF" mask="url(#mask-4)"></path>
                        <path d="M81.837913,70.0096634 L81.837913,86.862099 L41.0135652,86.862099 L41.0135652,70.0828515 C41.0135652,66.4016634 43.4718261,63.1700594 47.0231304,62.1968317 L55.457913,59.8818218 L57.8248696,59.2353267 L59.7031304,58.7195248 C61.1405217,58.3274455 62.6674783,58.3352871 64.104,58.7447921 L65.810087,59.2353267 L67.2231304,59.6448317 L75.9266087,62.1393267 C79.4213913,63.1465347 81.837913,66.3528713 81.837913,70.0096634 Z" id="Stroke-109" stroke="#000000" stroke-linecap="round" stroke-linejoin="round" mask="url(#mask-4)"></path>
                        <path d="M61.665913,66.1539564 C56.1641739,66.1539564 56.1006957,60.5219564 56.1006957,60.4653228 L56.1006957,49.0113822 C56.1006957,48.7709069 56.2954783,48.5757386 56.5354783,48.5757386 L66.3337391,48.5757386 C66.5737391,48.5757386 66.7685217,48.7709069 66.7685217,49.0113822 L66.7685217,60.4653228 C66.7685217,60.5219564 66.7102609,66.1539564 61.665913,66.1539564" id="Fill-110" fill="#FFFFFF" mask="url(#mask-4)"></path>
                        <path d="M66.3334783,48.1402693 L56.5352174,48.1402693 C56.0552174,48.1402693 55.6656522,48.5306059 55.6656522,49.0115564 L55.6656522,60.465497 C55.6656522,62.583596 56.9204348,66.5897743 61.6656522,66.5897743 C67.1395652,66.5897743 67.2030435,60.5264871 67.2030435,60.465497 L67.2030435,49.0115564 C67.2030435,48.5306059 66.8134783,48.1402693 66.3334783,48.1402693 M66.3334783,49.0115564 L66.3334783,60.465497 C66.3334783,60.465497 66.3334783,65.7184871 61.6656522,65.7184871 C56.5352174,65.7184871 56.5352174,60.465497 56.5352174,60.465497 L56.5352174,49.0115564 L66.3334783,49.0115564" id="Fill-111" fill="#000000" mask="url(#mask-4)"></path>
                        <path d="M66.3632174,55.8192713 L66.3336522,58.4313901 C66.3336522,58.4313901 60.7884348,61.3902812 56.5353913,58.4732119 L56.5806087,55.5901228 L66.3632174,55.8192713 Z" id="Fill-112" fill="#EBEBEB" mask="url(#mask-4)"></path>
                        <path d="M71.9554783,44.5602376 C71.9311304,52.7128713 67.2015652,58.4903762 61.3885217,58.4738218 C55.5746087,58.456396 50.8798261,52.6510099 50.9041739,44.497505 C50.9276522,36.344 55.6598261,29.7483564 61.4737391,29.7657822 C67.2867826,29.7832079 71.9798261,36.4067327 71.9554783,44.5602376" id="Fill-113" fill="#FFFFFF" mask="url(#mask-4)"></path>
                        <path d="M71.9554783,44.5602376 C71.9311304,52.7128713 67.2015652,58.4903762 61.3885217,58.4738218 C55.5746087,58.456396 50.8798261,52.6510099 50.9041739,44.497505 C50.9276522,36.344 55.6598261,29.7483564 61.4737391,29.7657822 C67.2867826,29.7832079 71.9798261,36.4067327 71.9554783,44.5602376 Z" id="Stroke-114" stroke="#000000" stroke-linecap="round" stroke-linejoin="round" mask="url(#mask-4)"></path>
                        <g id="Group-117" mask="url(#mask-4)">
                            <g transform="translate(70.434783, 42.187287)">
                                <path d="M1.00991304,0.558059406 C2.42643478,0.562415842 3.36208696,1.57659406 3.36208696,2.99592079 C3.36208696,4.65136634 1.57513043,5.69952475 0.669913043,5.69691577" id="Fill-115" stroke="none" fill="#FFFFFF" fill-rule="evenodd"></path>
                                <path d="M1.00991304,0.558059406 C2.42643478,0.562415842 3.36208696,1.57659406 3.36208696,2.99592079 C3.36208696,4.65136634 1.57513043,5.69952475 0.669913043,5.69691577" id="Stroke-116" stroke="#000000" stroke-width="1" fill="none" stroke-linecap="round" stroke-linejoin="round"></path>
                            </g>
                        </g>
                        <g id="Group-120" mask="url(#mask-4)">
                            <g transform="translate(48.695652, 42.187287)">
                                <path d="M2.77034783,0.496807921 C1.35382609,0.492451485 0.36773913,1.50314455 0.363391304,2.92247129 C0.359043478,4.34179802 2.06426087,5.51367921 2.96947826,5.51629307" id="Fill-118" stroke="none" fill="#FFFFFF" fill-rule="evenodd"></path>
                                <path d="M2.77034783,0.496807921 C1.35382609,0.492451485 0.36773913,1.50314455 0.363391304,2.92247129 C0.359043478,4.34179802 2.06426087,5.51367921 2.96947826,5.51629307" id="Stroke-119" stroke="#000000" stroke-width="1" fill="none" stroke-linecap="round" stroke-linejoin="round"></path>
                            </g>
                        </g>
                        <path d="M51.7975652,27.256998 C51.7975652,27.256998 37.9332174,39.8575525 51.1784348,42.6840079 C51.1784348,42.6840079 51.6958261,37.0441663 55.8801739,38.1184634 C72.3949565,35.6126416 71.6914783,42.744998 71.6914783,42.744998 C74.608,25.1824634 64.0506087,27.4861465 59.5027826,28.5569584 C55.3584348,29.5319287 58.1566957,27.4826614 58.1566957,27.4826614 C58.1566957,27.4826614 54.7575652,25.548404 51.7975652,27.256998" id="Fill-121" fill="#009584" mask="url(#mask-4)"></path>
                        <path d="M49.9603478,32.0771327 C49.9603478,32.0771327 47.6638261,33.3736079 47.6638261,36.0833109" id="Stroke-122" stroke="#000000" stroke-linecap="round" stroke-linejoin="round" mask="url(#mask-4)"></path>
                        <g id="Group-125" mask="url(#mask-4)">
                            <g transform="translate(48.695652, 72.682337)">
                                <path d="M0.578521739,14.1778455 L0.578521739,0.633687129" id="Fill-123" stroke="none" fill="#009584" fill-rule="evenodd"></path>
                                <path d="M0.578521739,14.1778455 L0.578521739,0.633687129" id="Stroke-124" stroke="#000000" stroke-width="1" fill="none" stroke-linecap="round" stroke-linejoin="round"></path>
                            </g>
                        </g>
                        <g id="Group-128" mask="url(#mask-4)">
                            <g transform="translate(73.043478, 72.682337)">
                                <path d="M0.631652174,14.1778455 L0.631652174,0.633687129" id="Fill-126" stroke="none" fill="#009584" fill-rule="evenodd"></path>
                                <path d="M0.631652174,14.1778455 L0.631652174,0.633687129" id="Stroke-127" stroke="#000000" stroke-width="1" fill="none" stroke-linecap="round" stroke-linejoin="round"></path>
                            </g>
                        </g>
                        <path d="M63.18,55.1985663 C63.18,55.3022495 62.5017391,55.3858931 61.666087,55.3858931 C60.8295652,55.3858931 60.1521739,55.3022495 60.1521739,55.1985663 C60.1521739,55.0948832 60.8295652,54.8666059 61.666087,54.8666059 C62.5017391,54.8666059 63.18,55.0948832 63.18,55.1985663" id="Fill-129" fill="#EBEBEB" mask="url(#mask-4)"></path>
                        <g id="Group-132" mask="url(#mask-4)">
                            <g transform="translate(73.043478, 79.652634)">
                                <path d="M0.753478261,0.679691089 L8.79695652,0.679691089" id="Fill-130" stroke="none" fill="#009584" fill-rule="evenodd"></path>
                                <path d="M0.753478261,0.679691089 L8.79695652,0.679691089" id="Stroke-131" stroke="#000000" stroke-width="1" fill="none" stroke-linecap="round" stroke-linejoin="round"></path>
                            </g>
                        </g>
                        <g id="Group-135" mask="url(#mask-4)">
                            <g transform="translate(40.869565, 79.652634)">
                                <path d="M0.146347826,0.679691089 L8.18982609,0.679691089" id="Fill-133" stroke="none" fill="#009584" fill-rule="evenodd"></path>
                                <path d="M0.146347826,0.679691089 L8.18982609,0.679691089" id="Stroke-134" stroke="#000000" stroke-width="1" fill="none" stroke-linecap="round" stroke-linejoin="round"></path>
                            </g>
                        </g>
                        <g id="Group-138" mask="url(#mask-4)">
                            <g transform="translate(51.304348, 29.117980)">
                                <path d="M3.28069565,0.64780198 C3.28069565,0.64780198 0.748521739,2.30673267 0.391130435,4.28978218" id="Fill-136" stroke="none" fill="#009584" fill-rule="evenodd"></path>
                                <path d="M3.28069565,0.64780198 C3.28069565,0.64780198 0.748521739,2.30673267 0.391130435,4.28978218" id="Stroke-137" stroke="#000000" stroke-width="1" fill="none" stroke-linecap="round" stroke-linejoin="round"></path>
                            </g>
                        </g>
                        <path d="M58.1571304,27.4829228 C58.1571304,27.4829228 55.3597391,29.5356752 59.5032174,28.5563485 C64.0493043,27.4829228 74.7101739,25.1313188 71.691913,42.7452594 C71.691913,42.7452594 72.2623478,35.561497 55.8797391,38.1187248 C51.7501739,37.0688238 51.178,42.6842693 51.178,42.6842693 C37.9336522,39.8578139 51.798,27.2572594 51.798,27.2572594" id="Stroke-139" stroke="#000000" stroke-linecap="round" stroke-linejoin="round" mask="url(#mask-4)"></path>
                        <polygon id="Fill-140" fill="#009584" mask="url(#mask-4)" points="41.4495652 80.0586535 48.826087 80.0586535 48.826087 78.5818218 41.4495652 78.5818218"></polygon>
                        <polygon id="Fill-141" fill="#009584" mask="url(#mask-4)" points="74.1208696 80.1126733 81.386087 80.1126733 81.386087 78.6358416 74.1208696 78.6358416"></polygon>
                        <path d="M58.4403463,51.4156119 C58.4386087,52.0847604 59.8786087,53.4396119 61.6594783,53.4448396 C63.4403478,53.4500673 64.8890435,52.1039287 64.889913,51.4347802 L58.4403463,51.4156119 Z" id="Stroke-142" stroke="#000000" stroke-linecap="round" stroke-linejoin="round" mask="url(#mask-4)"></path>
                        <g id="Group-145" mask="url(#mask-4)">
                            <g transform="translate(0.000000, 86.622931)">
                                <path d="M118.779565,0.4998 L0.434347826,0.4998" id="Fill-143" stroke="none" fill="#FFFFFF" fill-rule="evenodd"></path>
                                <path d="M118.779565,0.4998 L0.434347826,0.4998" id="Stroke-144" stroke="#000000" stroke-width="1" fill="none" stroke-linecap="round" stroke-linejoin="round"></path>
                            </g>
                        </g>
                    </g>
                </g>
            </g>
        </g>
    </g>
</svg>