<?xml version="1.0" encoding="UTF-8" standalone="no"?>
<svg width="118px" height="99px" viewBox="0 0 118 99" version="1.1" xmlns="http://www.w3.org/2000/svg" xmlns:xlink="http://www.w3.org/1999/xlink">
    <!-- Generator: Sketch 46.1 (44463) - http://www.bohemiancoding.com/sketch -->
    <title>Page 1</title>
    <desc>Created with Sketch.</desc>
    <defs/>
    <g id="Page-1" stroke="none" stroke-width="1" fill="none" fill-rule="evenodd">
        <g id="About-Us-Copy" transform="translate(-960.000000, -1121.000000)">
            <g id="Achievements" transform="translate(0.000000, 1072.000000)">
                <g id="Group-2" transform="translate(938.000000, 49.000000)">
                    <g id="Page-1" transform="translate(22.000000, 0.000000)">
                        <path d="M116.70908,97.7842647 L0.737205,97.7842647" id="Stroke-1" stroke="#000000" stroke-width="1.47058824" stroke-linecap="round" stroke-linejoin="round"/>
                        <path d="M73.035215,70.6314706 L73.035215,97.7873529 L6.922765,97.7873529 L6.922765,70.7505882 C6.922765,64.8182353 10.902315,59.6108824 16.654815,58.0402941 L30.313315,54.3108824 L34.148315,53.2682353 L37.18829,52.4388235 C39.51584,51.8064706 41.989415,51.8197059 44.31549,52.4785294 L47.07964,53.2682353 L49.367365,53.9285294 L63.462465,57.9491176 C69.12204,59.5711765 73.035215,64.7388235 73.035215,70.6314706" id="Fill-4" fill="#FFFFFF"/>
                        <path d="M73.035215,70.6314706 L73.035215,97.7873529 L6.922765,97.7873529 L6.922765,70.7505882 C6.922765,64.8182353 10.902315,59.6108824 16.654815,58.0402941 L30.313315,54.3108824 L34.148315,53.2682353 L37.18829,52.4388235 C39.51584,51.8064706 41.989415,51.8197059 44.31549,52.4785294 L47.07964,53.2682353 L49.367365,53.9285294 L63.462465,57.9491176 C69.12204,59.5711765 73.035215,64.7388235 73.035215,70.6314706 Z" id="Stroke-6" stroke="#000000" stroke-width="1.47058824" stroke-linecap="round" stroke-linejoin="round"/>
                        <path d="M40.3676525,64.4519118 C31.4262025,64.4519118 31.3214775,55.3430882 31.3214775,55.2504412 L31.3214775,36.7945588 C31.3214775,36.3886765 31.6518775,36.0592647 32.0589775,36.0592647 L47.9270275,36.0592647 C48.3341275,36.0592647 48.6645275,36.3886765 48.6645275,36.7945588 L48.6645275,55.2504412 C48.6645275,58.4327941 46.9299275,64.4519118 40.3676525,64.4519118" id="Fill-8" fill="#FFFFFF"/>
                        <path d="M47.9255525,35.3245588 L32.0589775,35.3245588 C31.2447775,35.3245588 30.5839775,35.9819118 30.5839775,36.7951471 L30.5839775,55.2510294 C30.5839775,58.6877941 32.6298025,65.1877941 40.3676525,65.1877941 C47.5140275,65.1877941 49.4005525,58.6877941 49.4005525,55.2510294 L49.4005525,36.7951471 C49.4005525,35.9819118 48.7412275,35.3245588 47.9255525,35.3245588 M47.9255525,36.7951471 L47.9255525,55.2510294 C47.9255525,55.2510294 47.9255525,63.7172059 40.3676525,63.7172059 C32.0589775,63.7172059 32.0589775,55.2510294 32.0589775,55.2510294 L32.0589775,36.7951471 L47.9255525,36.7951471" id="Fill-10" fill="#000000"/>
                        <path d="M47.9745225,47.7641176 L47.9273225,51.9729412 C47.9273225,51.9729412 38.9460475,56.7420588 32.0592725,52.0405882 L32.1315475,47.3964706 L47.9745225,47.7641176 Z" id="Fill-12" fill="#EFEFEF"/>
                        <path d="M58.2390475,30.7676471 C57.3024225,43.8720588 49.0232475,52.6397059 39.6333975,51.9720588 C30.2435475,51.3044118 23.2962975,41.4558824 24.2329225,28.3485294 C25.1695475,15.2441176 33.5431225,5.16176471 42.9329725,5.82941176 C52.3228225,6.49705882 59.1771475,17.6617647 58.2390475,30.7676471" id="Fill-14" fill="#FFFFFF"/>
                        <path d="M58.2390475,30.7676471 C57.3024225,43.8720588 49.0232475,52.6397059 39.6333975,51.9720588 C30.2435475,51.3044118 23.2962975,41.4558824 24.2329225,28.3485294 C25.1695475,15.2441176 33.5431225,5.16176471 42.9329725,5.82941176 C52.3228225,6.49705882 59.1771475,17.6617647 58.2390475,30.7676471 Z" id="Stroke-16" stroke="#000000" stroke-width="1.47058824" stroke-linecap="round" stroke-linejoin="round"/>
                        <g id="Group-21" transform="translate(19.175000, 74.992647)">
                            <path d="M1.1246875,22.7916176 L1.1246875,0.966617647" id="Fill-18" fill="#009688"/>
                            <path d="M1.1246875,22.7916176 L1.1246875,0.966617647" id="Stroke-20" stroke="#000000" stroke-width="1.47058824" stroke-linecap="round" stroke-linejoin="round"/>
                        </g>
                        <g id="Group-25" transform="translate(59.000000, 74.992647)">
                            <path d="M0.8164125,22.7916176 L0.8164125,0.966617647" id="Fill-22" fill="#009688"/>
                            <path d="M0.8164125,22.7916176 L0.8164125,0.966617647" id="Stroke-24" stroke="#000000" stroke-width="1.47058824" stroke-linecap="round" stroke-linejoin="round"/>
                        </g>
                        <path d="M42.8884275,46.9039706 C42.8766275,47.0701471 41.7733275,47.1304412 40.4222275,47.0392647 C39.0711275,46.9466176 37.9855275,46.7377941 37.9973275,46.5701471 C38.0076525,46.4039706 39.1286525,46.1113235 40.4797525,46.2025 C41.8293775,46.2951471 42.9002275,46.7377941 42.8884275,46.9039706" id="Fill-26" fill="#EFEFEF"/>
                        <g id="Group-31" transform="translate(59.000000, 86.757353)">
                            <path d="M1.0137675,0.508823529 L14.0380175,0.508823529" id="Fill-28" fill="#009688"/>
                            <path d="M1.0137675,0.508823529 L14.0380175,0.508823529" id="Stroke-30" stroke="#000000" stroke-width="1.47058824" stroke-linecap="round" stroke-linejoin="round"/>
                        </g>
                        <g id="Group-35" transform="translate(5.900000, 86.757353)">
                            <path d="M1.0266,0.508823529 L14.05085,0.508823529" id="Fill-32" fill="#009688"/>
                            <path d="M1.0266,0.508823529 L14.05085,0.508823529" id="Stroke-34" stroke="#000000" stroke-width="1.47058824" stroke-linecap="round" stroke-linejoin="round"/>
                        </g>
                        <polygon id="Fill-36" fill="#009688" points="7.627225 86.8235294 19.574725 86.8235294 19.574725 84.4441176 7.627225 84.4441176"/>
                        <polygon id="Fill-38" fill="#009688" points="50.588075 79.6705882 62.5341 79.6705882 62.5341 77.2911765 50.588075 77.2911765"/>
                        <polygon id="Fill-39" fill="#009688" points="60.535475 86.9117647 72.303025 86.9117647 72.303025 84.5323529 60.535475 84.5323529"/>
                        <path d="M35.6473575,40.3005882 C35.5706575,41.3755882 37.7477575,43.7123529 40.6254825,43.9182353 C43.5017325,44.1226471 45.9900575,42.1167647 46.0667575,41.0417647 L35.6473575,40.3005882 Z" id="Stroke-40" stroke="#000000" stroke-width="1.47058824" stroke-linecap="round" stroke-linejoin="round"/>
                        <path d="M54.659665,16.5227941 C54.659665,16.5227941 57.825015,22.7933824 57.26304,33.6801471 C57.26304,33.6801471 61.67329,24.2801471 58.586115,14.3698529 L54.659665,16.5227941 Z" id="Fill-41" fill="#009688"/>
                        <path d="M54.659665,16.5227941 C54.659665,16.5227941 57.825015,22.7933824 57.26304,33.6801471 C57.26304,33.6801471 61.67329,24.2801471 58.586115,14.3698529 L54.659665,16.5227941 Z" id="Stroke-42" stroke="#000000" stroke-width="1.47058824" stroke-linecap="round" stroke-linejoin="round"/>
                        <path d="M46.1092375,0.755588235 C46.1092375,0.755588235 63.1853125,1.74823529 62.3917625,13.3452941 C62.3917625,13.3452941 63.0864875,20.7894118 50.4737625,19.9305882 C50.4737625,19.9305882 40.1266375,19.6011765 30.0258375,13.9202941 C30.0258375,13.9202941 28.4800375,15.3188235 24.4857375,28.8070588 C24.4857375,28.8070588 20.5828875,-0.132647059 46.1092375,0.755588235" id="Fill-43" fill="#009688"/>
                        <path d="M46.1092375,0.755588235 C46.1092375,0.755588235 63.1853125,1.74823529 62.3917625,13.3452941 C62.3917625,13.3452941 63.0864875,20.7894118 50.4737625,19.9305882 C50.4737625,19.9305882 40.1266375,19.6011765 30.0258375,13.9202941 C30.0258375,13.9202941 28.4800375,15.3188235 24.4857375,28.8070588 C24.4857375,28.8070588 20.5828875,-0.132647059 46.1092375,0.755588235 Z" id="Stroke-44" stroke="#000000" stroke-width="1.47058824" stroke-linecap="round" stroke-linejoin="round"/>
                        <g id="Group-47" transform="translate(20.650000, 24.992647)">
                            <path d="M5.5611925,0.661029412 C3.2734675,0.499264706 0.7600675,0.847794118 0.5358675,4.1375 C0.3780425,6.41985294 2.9991175,8.49044118 4.4608425,8.59632353" id="Fill-45" fill="#FFFFFF"/>
                            <path d="M5.5611925,0.661029412 C3.2734675,0.499264706 0.7600675,0.847794118 0.5358675,4.1375 C0.3780425,6.41985294 2.9991175,8.49044118 4.4608425,8.59632353" id="Stroke-46" stroke="#000000" stroke-width="1.47058824" stroke-linecap="round" stroke-linejoin="round"/>
                        </g>
                        <g id="Group-50" transform="translate(56.050000, 26.463235)">
                            <path d="M0.5686125,1.26279412 C2.8563375,1.42455882 5.3033625,2.46573529 5.0953875,5.50838235 C4.9124875,8.17014706 1.9108625,9.65838235 0.4491375,9.55544118" id="Fill-48" fill="#FFFFFF"/>
                            <path d="M0.5686125,1.26279412 C2.8563375,1.42455882 5.3033625,2.46573529 5.0953875,5.50838235 C4.9124875,8.17014706 1.9108625,9.65838235 0.4491375,9.55544118" id="Stroke-49" stroke="#000000" stroke-width="1.47058824" stroke-linecap="round" stroke-linejoin="round"/>
                        </g>
                        <path d="M92.2347,29.2008824 C92.2347,29.2008824 130.90035,83.1847059 82.2047,85.7773529 C82.2047,85.7773529 37.711325,95.7758824 55.4895,34.87 L58.069275,25.8979412 C59.8909,20.1847059 64.801175,15.6891176 71.146625,14.7097059 C77.489125,13.7302941 83.5322,16.5347059 86.999925,21.4288235 L92.2347,29.2008824 Z" id="Fill-51" fill="#009688"/>
                        <path d="M92.2347,29.2008824 C92.2347,29.2008824 130.90035,83.1847059 82.2047,85.7773529 C82.2047,85.7773529 37.711325,95.7758824 55.4895,34.87 L58.069275,25.8979412 C59.8909,20.1847059 64.801175,15.6891176 71.146625,14.7097059 C77.489125,13.7302941 83.5322,16.5347059 86.999925,21.4288235 L92.2347,29.2008824 Z" id="Stroke-52" stroke="#000000" stroke-width="1.47058824" stroke-linecap="round" stroke-linejoin="round"/>
                        <path d="M93.67371,37.6782353 C93.976085,39.6252941 93.273985,41.3488235 92.108735,41.5297059 C90.94201,41.7091176 89.75316,40.2782353 89.450785,38.3297059 C89.14841,36.3841176 89.84756,34.6605882 91.014285,34.4797059 C92.18101,34.3002941 93.371335,35.7326471 93.67371,37.6782353" id="Fill-53" fill="#FFFFFF"/>
                        <path d="M93.67371,37.6782353 C93.976085,39.6252941 93.273985,41.3488235 92.108735,41.5297059 C90.94201,41.7091176 89.75316,40.2782353 89.450785,38.3297059 C89.14841,36.3841176 89.84756,34.6605882 91.014285,34.4797059 C92.18101,34.3002941 93.371335,35.7326471 93.67371,37.6782353 Z" id="Stroke-54" stroke="#000000" stroke-width="1.47058824" stroke-linecap="round" stroke-linejoin="round"/>
                        <path d="M58.76636,43.0651471 C59.068735,45.0107353 60.25906,46.4445588 61.425785,46.2636765 C62.59251,46.0842647 63.29166,44.3607353 62.989285,42.4136765 C62.68691,40.4666176 61.511335,39.1239706 60.34461,39.3048529 C59.177885,39.4842647 58.463985,41.1195588 58.76636,43.0651471" id="Fill-55" fill="#FFFFFF"/>
                        <path d="M58.76636,43.0651471 C59.068735,45.0107353 60.25906,46.4445588 61.425785,46.2636765 C62.59251,46.0842647 63.29166,44.3607353 62.989285,42.4136765 C62.68691,40.4666176 61.511335,39.1239706 60.34461,39.3048529 C59.177885,39.4842647 58.463985,41.1195588 58.76636,43.0651471 Z" id="Stroke-56" stroke="#000000" stroke-width="1.47058824" stroke-linecap="round" stroke-linejoin="round"/>
                        <path d="M47.650465,97.6248529 L47.650465,77.5880882 C47.650465,72.1851471 51.27454,67.4439706 56.51374,66.0145588 L68.952415,62.6160294 L72.445215,61.6689706 L75.21379,60.9116176 C77.33484,60.3366176 79.58569,60.3469118 81.705265,60.9483824 L84.22309,61.6689706 L86.30579,62.2689706 L99.142715,65.9307353 C104.296365,67.4072059 107.859965,72.1130882 107.859965,77.4807353 L107.859965,97.6248529 L47.650465,97.6248529 Z" id="Fill-57" fill="#FFFFFF"/>
                        <path d="M47.650465,97.6248529 L47.650465,77.5880882 C47.650465,72.1851471 51.27454,67.4439706 56.51374,66.0145588 L68.952415,62.6160294 L72.445215,61.6689706 L75.21379,60.9116176 C77.33484,60.3366176 79.58569,60.3469118 81.705265,60.9483824 L84.22309,61.6689706 L86.30579,62.2689706 L99.142715,65.9307353 C104.296365,67.4072059 107.859965,72.1130882 107.859965,77.4807353 L107.859965,97.6248529 L47.650465,97.6248529 Z" id="Stroke-58" stroke="#000000" stroke-width="1.47058824" stroke-linecap="round" stroke-linejoin="round"/>
                        <path d="M70.5404,62.9225 C69.341225,58.8945588 70.5404,46.1136765 70.5404,46.1136765 L84.990975,46.1136765 C84.990975,46.1136765 86.123775,58.8754412 84.990975,62.9225 L83.229825,64.9225 C80.19575,68.3680882 74.7707,68.2342647 71.91215,64.6430882 L70.5404,62.9225 Z" id="Fill-59" fill="#FFFFFF"/>
                        <path d="M70.5404,62.9225 C69.341225,58.8945588 70.5404,46.1136765 70.5404,46.1136765 L84.990975,46.1136765 C84.990975,46.1136765 86.123775,58.8754412 84.990975,62.9225 L83.229825,64.9225 C80.19575,68.3680882 74.7707,68.2342647 71.91215,64.6430882 L70.5404,62.9225 Z" id="Stroke-60" stroke="#000000" stroke-width="1.47058824" stroke-linecap="round" stroke-linejoin="round"/>
                        <path d="M84.7804925,56.6192647 L84.6801925,60.0001471 C84.6801925,60.0001471 77.2299675,64.2795588 70.9567925,60.0001471 L70.6072175,55.7692647 L84.7804925,56.6192647 Z" id="Fill-61" fill="#EFEFEF"/>
                        <g id="Group-64" transform="translate(59.000000, 20.580882)">
                            <path d="M31.1273675,9.74735294 C31.4695675,10.9032353 31.7453925,12.1414706 31.9474675,13.4591176 C33.7469675,25.29 28.6508425,37.9414706 20.1740175,39.2238235 C11.6971925,40.5061765 3.0492675,29.9341176 1.2482925,18.1047059 C0.0107675,9.97088235 2.4179675,3.92088235 6.7972425,0.519411765" id="Fill-62" fill="#FFFFFF"/>
                            <path d="M31.1273675,9.74735294 C31.4695675,10.9032353 31.7453925,12.1414706 31.9474675,13.4591176 C33.7469675,25.29 28.6508425,37.9414706 20.1740175,39.2238235 C11.6971925,40.5061765 3.0492675,29.9341176 1.2482925,18.1047059 C0.0107675,9.97088235 2.4179675,3.92088235 6.7972425,0.519411765" id="Stroke-63" stroke="#000000" stroke-width="1.47058824" stroke-linecap="round" stroke-linejoin="round"/>
                        </g>
                        <path d="M82.59823,20.0542647 L90.939355,29.5822059 C90.939355,29.5822059 76.977005,31.5660294 71.52393,29.8277941 C71.52393,29.8277941 67.19333,27.8042647 66.672655,26.4469118 C66.672655,26.4469118 66.40568,37.3013235 59.13393,38.8645588 C59.13393,38.8645588 53.556955,22.4645588 70.159555,17.1954412 L82.59823,20.0542647 Z" id="Fill-65" fill="#009688"/>
                        <path d="M59.672305,39.6070588 C59.672305,39.6070588 67.507505,33.1452941 66.672655,26.4467647 C66.672655,26.4467647 70.00173,33.7173529 90.28298,29.7673529" id="Stroke-66" stroke="#000000" stroke-width="1.47058824" stroke-linecap="round" stroke-linejoin="round"/>
                        <g id="Group-69" transform="translate(53.100000, 82.345588)">
                            <path d="M0.1753775,1.26985294 C0.1753775,4.85514706 3.0914525,9.38602941 6.6875025,9.38602941 L6.6875025,15.4419118" id="Fill-67" fill="#FFFFFF"/>
                            <path d="M0.1753775,1.26985294 C0.1753775,4.85514706 3.0914525,9.38602941 6.6875025,9.38602941 L6.6875025,15.4419118" id="Stroke-68" stroke="#000000" stroke-width="1.47058824" stroke-linecap="round" stroke-linejoin="round"/>
                        </g>
                        <g id="Group-72" transform="translate(94.400000, 82.345588)">
                            <path d="M7.9306325,1.26985294 C7.9306325,4.85514706 5.0145575,9.38602941 1.4185075,9.38602941 L1.4185075,15.4419118" id="Fill-70" fill="#FFFFFF"/>
                            <path d="M7.9306325,1.26985294 C7.9306325,4.85514706 5.0145575,9.38602941 1.4185075,9.38602941 L1.4185075,15.4419118" id="Stroke-71" stroke="#000000" stroke-width="1.47058824" stroke-linecap="round" stroke-linejoin="round"/>
                        </g>
                        <path d="M71.9072825,50.1839706 C72.0975575,51.4325 75.1876825,53.5413235 78.5256075,53.0354412 C81.8635325,52.5310294 84.1866575,49.6016176 83.9963825,48.3545588 L71.9072825,50.1839706 Z" id="Stroke-73" stroke="#000000" stroke-width="1.47058824" stroke-linecap="round" stroke-linejoin="round"/>
                        <path d="M94.4414475,79.4607353 C93.6877225,80.2136765 92.4649475,80.2136765 91.7112225,79.4607353 C90.9589725,78.7092647 90.9589725,77.4901471 91.7112225,76.7386765 C92.4649475,75.9886765 93.6877225,75.9886765 94.4414475,76.7386765 C95.1966475,77.4901471 95.1966475,78.7092647 94.4414475,79.4607353" id="Fill-74" fill="#FFFFFF"/>
                        <path d="M94.4414475,79.4607353 C93.6877225,80.2136765 92.4649475,80.2136765 91.7112225,79.4607353 C90.9589725,78.7092647 90.9589725,77.4901471 91.7112225,76.7386765 C92.4649475,75.9886765 93.6877225,75.9886765 94.4414475,76.7386765 C95.1966475,77.4901471 95.1966475,78.7092647 94.4414475,79.4607353 Z" id="Stroke-75" stroke="#000000" stroke-width="1.47058824" stroke-linecap="round" stroke-linejoin="round"/>
                        <path d="M89.18381,75.7470588 C88.430085,76.5 87.20731,76.5 86.453585,75.7470588 C85.69986,74.9955882 85.69986,73.7764706 86.453585,73.025 C87.20731,72.2735294 88.430085,72.2735294 89.18381,73.025 C89.937535,73.7764706 89.937535,74.9955882 89.18381,75.7470588" id="Fill-76" fill="#FFFFFF"/>
                        <path d="M89.18381,75.7470588 C88.430085,76.5 87.20731,76.5 86.453585,75.7470588 C85.69986,74.9955882 85.69986,73.7764706 86.453585,73.025 C87.20731,72.2735294 88.430085,72.2735294 89.18381,73.025 C89.937535,73.7764706 89.937535,74.9955882 89.18381,75.7470588 Z" id="Stroke-77" stroke="#000000" stroke-width="1.47058824" stroke-linecap="round" stroke-linejoin="round"/>
                        <path d="M87.64981,79.4607353 C86.89461,78.7092647 86.89461,77.4901471 87.64981,76.7386765 C88.403535,75.9886765 89.62631,75.9886765 90.380035,76.7386765 C91.13376,77.4901471 91.13376,78.7092647 90.380035,79.4607353 C89.62631,80.2136765 88.403535,80.2136765 87.64981,79.4607353" id="Fill-78" fill="#FFFFFF"/>
                        <path d="M87.64981,79.4607353 C86.89461,78.7092647 86.89461,77.4901471 87.64981,76.7386765 C88.403535,75.9886765 89.62631,75.9886765 90.380035,76.7386765 C91.13376,77.4901471 91.13376,78.7092647 90.380035,79.4607353 C89.62631,80.2136765 88.403535,80.2136765 87.64981,79.4607353 Z" id="Stroke-79" stroke="#000000" stroke-width="1.47058824" stroke-linecap="round" stroke-linejoin="round"/>
                        <path d="M89.7816275,73.2797059 C89.0264275,72.5282353 89.0264275,71.3091176 89.7816275,70.5576471 C90.5353525,69.8061765 91.7581275,69.8061765 92.5118525,70.5576471 C93.2641025,71.3091176 93.2641025,72.5282353 92.5118525,73.2797059 C91.7581275,74.0326471 90.5353525,74.0326471 89.7816275,73.2797059" id="Fill-80" fill="#FFFFFF"/>
                        <path d="M89.7816275,73.2797059 C89.0264275,72.5282353 89.0264275,71.3091176 89.7816275,70.5576471 C90.5353525,69.8061765 91.7581275,69.8061765 92.5118525,70.5576471 C93.2641025,71.3091176 93.2641025,72.5282353 92.5118525,73.2797059 C91.7581275,74.0326471 90.5353525,74.0326471 89.7816275,73.2797059 Z" id="Stroke-81" stroke="#000000" stroke-width="1.47058824" stroke-linecap="round" stroke-linejoin="round"/>
                        <path d="M93.10908,75.7470588 C92.35388,74.9955882 92.35388,73.7764706 93.10908,73.025 C93.862805,72.2735294 95.08558,72.2735294 95.839305,73.025 C96.59303,73.7764706 96.59303,74.9955882 95.839305,75.7470588 C95.08558,76.5 93.862805,76.5 93.10908,75.7470588" id="Fill-82" fill="#FFFFFF"/>
                        <path d="M93.10908,75.7470588 C92.35388,74.9955882 92.35388,73.7764706 93.10908,73.025 C93.862805,72.2735294 95.08558,72.2735294 95.839305,73.025 C96.59303,73.7764706 96.59303,74.9955882 95.839305,75.7470588 C95.08558,76.5 93.862805,76.5 93.10908,75.7470588 Z" id="Stroke-83" stroke="#000000" stroke-width="1.47058824" stroke-linecap="round" stroke-linejoin="round"/>
                        <path d="M92.542975,75.2457353 C92.542975,76.0133824 91.917575,76.6383824 91.14615,76.6383824 C90.374725,76.6383824 89.74785,76.0133824 89.74785,75.2457353 C89.74785,74.4766176 90.374725,73.8530882 91.14615,73.8530882 C91.917575,73.8530882 92.542975,74.4766176 92.542975,75.2457353" id="Fill-84" fill="#009688"/>
                        <path d="M92.542975,75.2457353 C92.542975,76.0133824 91.917575,76.6383824 91.14615,76.6383824 C90.374725,76.6383824 89.74785,76.0133824 89.74785,75.2457353 C89.74785,74.4766176 90.374725,73.8530882 91.14615,73.8530882 C91.917575,73.8530882 92.542975,74.4766176 92.542975,75.2457353 Z" id="Stroke-85" stroke="#000000" stroke-width="1.47058824" stroke-linecap="round" stroke-linejoin="round"/>
                        <g id="Group-88" transform="translate(100.300000, 88.227941)">
                            <path d="M7.5604075,0.323529412 L0.6972325,0.323529412" id="Fill-86" fill="#FFFFFF"/>
                            <path d="M7.5604075,0.323529412 L0.6972325,0.323529412" id="Stroke-87" stroke="#000000" stroke-width="1.47058824" stroke-linecap="round" stroke-linejoin="round"/>
                        </g>
                        <g id="Group-91" transform="translate(47.200000, 88.227941)">
                            <path d="M7.3155575,0.323529412 L0.4509075,0.323529412" id="Fill-89" fill="#FFFFFF"/>
                            <path d="M7.3155575,0.323529412 L0.4509075,0.323529412" id="Stroke-90" stroke="#000000" stroke-width="1.47058824" stroke-linecap="round" stroke-linejoin="round"/>
                        </g>
                    </g>
                </g>
            </g>
        </g>
    </g>
</svg>