<svg xmlns="http://www.w3.org/2000/svg" viewBox="0 0 20.79 23.69"><defs/><title>Tree_house_icon</title><g id="Layer_2"><g id="Tree_house"><polygon class="cls-treehouse1" points="10.4 6.84 13.76 9.12 13.76 14.18 7.03 14.18 7.03 9.12 10.4 6.84" style="fill: #009688;"/><path class="cls-treehouse2" d="M10.4,22.1" style="fill: none; stroke: #000; stroke-linecap: round; stroke-linejoin: round;"/><line class="cls-treehouse2" x1="10.4" y1="19.68" x2="10.4" y2="23.19" style="fill: none; stroke: #000; stroke-linecap: round; stroke-linejoin: round;"/><line class="cls-treehouse2" x1="7.58" y1="23.19" x2="13.21" y2="23.19" style="fill: none; stroke: #000; stroke-linecap: round; stroke-linejoin: round;"/><path class="cls-treehouse2" d="M7.19,19.63h6.26A7.55,7.55,0,0,0,18.18,18c2.07-1.66,3.83-4.55-.89-8.44,0,0,2.92-4.5-2.92-6.61,0,0-3.46-5.55-8.24,0,0,0-5.05,1.32-2.92,6.35,0,0-5.32,4.51-1,8.46A7.38,7.38,0,0,0,7.19,19.63Z" style="fill: none; stroke: #000; stroke-linecap: round; stroke-linejoin: round;"/><polyline class="cls-treehouse2" points="6 9.63 10.4 6.84 14.79 9.63" style="fill: none; stroke: #000; stroke-linecap: round; stroke-linejoin: round;"/><polyline class="cls-treehouse2" points="11.43 14.18 13.76 14.18 13.76 9.12" style="fill: none; stroke: #000; stroke-linecap: round; stroke-linejoin: round;"/><polyline class="cls-treehouse2" points="7.03 9.12 7.03 14.18 11.94 14.18" style="fill: none; stroke: #000; stroke-linecap: round; stroke-linejoin: round;"/></g></g></svg>
