<?xml version="1.0" encoding="UTF-8"?>
<svg width="140px" height="18px" viewBox="0 0 140 18" version="1.1" xmlns="http://www.w3.org/2000/svg" xmlns:xlink="http://www.w3.org/1999/xlink">
    <!-- Generator: Sketch 52.6 (67491) - http://www.bohemiancoding.com/sketch -->
    <title>logo</title>
    <desc>Created with Sketch.</desc>
    <g id="Mobile" stroke="none" stroke-width="1" fill="none" fill-rule="evenodd">
        <g id="mobile/overview-copy" transform="translate(-52.000000, -19.000000)">
            <g id="Group-16" transform="translate(12.000000, 16.000000)">
                <g id="logo" transform="translate(40.000000, 3.000000)">
                    <polygon id="Shape" fill="#FFFFFF" fill-rule="nonzero" points="24.29 6.52 21.73 6.52 21.73 4.81 28.73 4.81 28 6.52 26.13 6.52 26.13 13.22 24.29 13.22"></polygon>
                    <path d="M30.11,4.81 L34,4.81 C34.8995516,4.75218208 35.7839456,5.06262241 36.45,5.67 C36.9408842,6.18560119 37.2008188,6.87876018 37.17,7.59 C37.2277001,8.76650226 36.4902162,9.83585382 35.37,10.2 L37.43,13.2 L35.21,13.2 L33.41,10.51 L32,10.51 L32,13.2 L30.11,13.2 L30.11,4.81 Z M33.83,8.9 C34.73,8.9 35.25,8.42 35.25,7.71 C35.25,6.92 34.7,6.51 33.8,6.51 L32,6.51 L32,8.9 L33.83,8.9 Z" id="Shape" fill="#FFFFFF" fill-rule="nonzero"></path>
                    <polygon id="Shape" fill="#FFFFFF" fill-rule="nonzero" points="58.18 4.81 64.52 4.81 63.78 6.46 60 6.46 60 8.16 64 8.16 64 9.81 60 9.81 60 11.58 64.56 11.58 64.56 13.22 58.16 13.22"></polygon>
                    <polygon id="Shape" fill="#FFFFFF" fill-rule="nonzero" points="66.23 4.81 68.08 4.81 68.08 11.54 72.27 11.54 71.53 13.22 66.23 13.22"></polygon>
                    <polygon id="Shape" fill="#FFFFFF" fill-rule="nonzero" points="79.23 6.52 76.67 6.52 76.67 4.81 83.67 4.81 82.93 6.52 81.08 6.52 81.08 13.22 79.23 13.22"></polygon>
                    <path d="M85.05,4.81 L88.89,4.81 C89.7895516,4.75218208 90.6739456,5.06262241 91.34,5.67 C91.8335337,6.18458769 92.096987,6.87750601 92.07,7.59 C92.1228928,8.76822444 91.3820167,9.83655955 90.26,10.2 L92.32,13.2 L90.16,13.2 L88.35,10.51 L86.9,10.51 L86.9,13.2 L85.05,13.2 L85.05,4.81 Z M88.77,8.9 C89.68,8.9 90.19,8.42 90.19,7.71 C90.19,6.92 89.64,6.51 88.74,6.51 L86.9,6.51 L86.9,8.9 L88.77,8.9 Z" id="Shape" fill="#FFFFFF" fill-rule="nonzero"></path>
                    <polygon id="Shape" fill="#FFFFFF" fill-rule="nonzero" points="93.82 4.81 95.67 4.81 95.67 13.22 93.82 13.22"></polygon>
                    <path d="M100.65,4.78 L102.36,4.78 L105.96,13.25 L104,13.25 L103.23,11.37 L99.7,11.37 L98.94,13.25 L97.05,13.25 L100.65,4.78 Z M102.6,9.78 L101.48,7 L100.36,9.72 L102.6,9.78 Z" id="Shape" fill="#FFFFFF" fill-rule="nonzero"></path>
                    <polygon id="Shape" fill="#FFFFFF" fill-rule="nonzero" points="107.26 4.81 109 4.81 112.9 10 112.9 4.81 114.73 4.81 114.73 13.22 113.16 13.22 109.08 7.88 109.08 13.22 107.26 13.22"></polygon>
                    <path d="M116.37,9 C116.361644,7.83330543 116.825552,6.71283723 117.656182,5.89350832 C118.486812,5.07417942 119.613529,4.62566332 120.78,4.65 C121.99108,4.58704498 123.178839,4.99971027 124.09,5.8 L122.92,7.21 C122.327892,6.6469385 121.536873,6.34131728 120.72,6.36 C120.049616,6.3884989 119.418279,6.68317766 118.965896,7.17873437 C118.513513,7.67429107 118.277443,8.32980076 118.31,9 C118.271256,9.69574376 118.522328,10.3764743 119.003557,10.8804381 C119.484786,11.3844019 120.15321,11.6666082 120.85,11.66 C121.471536,11.6826323 122.084238,11.5075746 122.6,11.16 L122.6,10 L120.73,10 L120.73,8.38 L124.39,8.38 L124.39,12 C123.39005,12.8648203 122.112049,13.3405208 120.79,13.34 C119.615405,13.3962464 118.470612,12.9598342 117.631537,12.1359461 C116.792462,11.3120581 116.335215,10.1754268 116.37,9 Z" id="Shape" fill="#FFFFFF" fill-rule="nonzero"></path>
                    <polygon id="Shape" fill="#FFFFFF" fill-rule="nonzero" points="126.16 4.81 128 4.81 128 11.54 132.2 11.54 131.45 13.22 126.15 13.22"></polygon>
                    <polygon id="Shape" fill="#FFFFFF" fill-rule="nonzero" points="133.6 4.81 139.94 4.81 139.2 6.46 135.44 6.46 135.44 8.16 139.44 8.16 139.44 9.81 135.44 9.81 135.44 11.58 140 11.58 140 13.22 133.6 13.22"></polygon>
                    <polyline id="Shape" fill="#009688" points="51.46 13.23 45.68 4.8 57.25 4.8 51.46 13.23"></polyline>
                    <polyline id="Shape" fill="#FFFFFF" points="44.29 4.8 50.08 13.23 38.51 13.23 44.29 4.8"></polyline>
                    <polyline id="Shape" fill="#FFFFFF" points="0 18 3.93 4.51 13.51 14.22 0 18"></polyline>
                    <polyline id="Shape" fill="#009688" points="18.14 0 14.25 13.61 4.62 3.69 18.14 0"></polyline>
                </g>
            </g>
        </g>
    </g>
</svg>