<svg xmlns="http://www.w3.org/2000/svg" viewBox="0 0 1337.55 172.3"><defs/><title>Asset 5</title><g id="Layer_2"><g id="Layer_1-2"><path class="cls-ttlogo1" d="M232,62.28H207.57V46h66.56L267,62.28H249.69v64H232Z" style="fill: #fff;"/><path class="cls-ttlogo1" d="M287.67,46h36.72c10.21,0,18.13,2.87,23.41,8.15,4.48,4.48,6.89,10.79,6.89,18.36v.23c0,13-7,21.11-17.21,24.9l19.62,28.69H336.44l-17.21-25.7H305.34v25.7H287.67Zm35.57,39c8.61,0,13.54-4.59,13.54-11.36v-.23c0-7.57-5.28-11.48-13.89-11.48H305.34V85Z" style="fill: #fff;"/><path class="cls-ttlogo1" d="M555.87,46h60.59l-7.08,15.72H573.43V78H611.3V93.73H573.43v16.87H617v15.72H555.87Z" style="fill: #fff;"/><path class="cls-ttlogo1" d="M632.76,46h17.67v64.26h40l-7.08,16.07H632.76Z" style="fill: #fff;"/><path class="cls-ttlogo1" d="M756.91,62.28H732.47V46H799l-7.08,16.29H774.59v64H756.91Z" style="fill: #fff;"/><path class="cls-ttlogo1" d="M812.57,46h36.72c10.21,0,18.13,2.87,23.41,8.15,4.47,4.48,6.88,10.79,6.88,18.36v.23c0,13-7,21.11-17.21,24.9L882,126.32H861.34l-17.21-25.7H830.24v25.7H812.57Zm35.57,39c8.61,0,13.54-4.59,13.54-11.36v-.23c0-7.57-5.28-11.48-13.89-11.48H830.24V85Z" style="fill: #fff;"/><path class="cls-ttlogo1" d="M896.33,46H914v80.33H896.33Z" style="fill: #fff;"/><path class="cls-ttlogo1" d="M961.63,45.7h16.29l34.43,80.9H993.87l-7.34-18h-34l-7.34,18h-18ZM980.22,93l-10.67-26L958.87,93Z" style="fill: #fff;"/><path class="cls-ttlogo1" d="M1024.74,46H1041l37.64,49.46V46h17.44v80.33h-15l-38.9-51.06v51.06h-17.44Z" style="fill: #fff;"/><path class="cls-ttlogo1" d="M1111.83,86.38v-.23c0-22.84,17.79-41.54,42.11-41.54,14.46,0,23.18,3.9,31.56,11l-11.13,13.43c-6.2-5.16-11.7-8.15-21-8.15-12.85,0-23.07,11.36-23.07,25v.23c0,14.69,10.1,25.47,24.33,25.47,6.43,0,12.16-1.61,16.64-4.82V95.33h-17.79V80.07h34.88V115a52.14,52.14,0,0,1-34.31,12.74C1129,127.69,1111.83,110.14,1111.83,86.38Z" style="fill: #fff;"/><path class="cls-ttlogo1" d="M1205.35,46H1223v64.26h40L1256,126.32h-50.64Z" style="fill: #fff;"/><path class="cls-ttlogo1" d="M1276.38,46H1337l-7.08,15.72h-35.95V78h37.87V93.73h-37.87v16.87h43.61v15.72h-61.16Z" style="fill: #fff;"/><path class="cls-ttlogo2" d="M491.69,126.43,436.41,45.88H547l-55.28,80.55" style="fill: #1d2533; fill-rule: evenodd;"/><path class="cls-ttlogo3" d="M423.19,45.88l55.28,80.55H367.91l55.28-80.55" style="fill: #fff; fill-rule: evenodd;"/><path class="cls-ttlogo3" d="M0,172.3,37.55,43.12l91.51,92.74L0,172.3" style="fill: #fff; fill-rule: evenodd;"/><path class="cls-ttlogo2" d="M173.31,0,136.17,130,44.11,35.26,173.31,0" style="fill: #1d2533; fill-rule: evenodd;"/></g></g></svg>
