<?xml version="1.0" encoding="UTF-8"?>
<svg width="26px" height="26px" viewBox="0 0 26 26" version="1.1" xmlns="http://www.w3.org/2000/svg" xmlns:xlink="http://www.w3.org/1999/xlink">
    <!-- Generator: Sketch 53.2 (72643) - https://sketchapp.com -->
    <title>TT Recommended</title>
    <desc>Created with Sketch.</desc>
    <defs>
        <polygon id="path-1" points="0 0.071 18.863 0.071 18.863 18.1446 0 18.1446"></polygon>
    </defs>
    <g id="TT-Recommended" stroke="none" stroke-width="1" fill="none" fill-rule="evenodd">
        <g id="Group-12-Copy-2" transform="translate(3.500000, 0.000000)">
            <g id="Group-3" transform="translate(0.000000, 0.929500)">
                <mask id="mask-2" fill="white">
                    <use xlink:href="#path-1"></use>
                </mask>
                <g id="Clip-2"></g>
                <path d="M9.4366,16.1006 C9.6346,16.1006 9.8516,16.1546 10.0486,16.2516 L11.8156,17.1116 C11.9626,17.1806 12.1386,17.1266 12.2116,16.9816 L12.9566,15.5936 C13.1766,15.1536 13.5686,14.7906 14.0536,14.5886 C14.2136,14.5296 14.3656,14.4816 14.5166,14.4566 L16.0606,14.1876 C16.2226,14.1576 16.3346,14.0046 16.3116,13.8396 L16.0916,12.2896 C15.9906,11.6356 16.2116,10.9446 16.6836,10.4466 L17.7776,9.3126 C17.8906,9.1966 17.8896,9.0136 17.7766,8.8976 L16.6866,7.7676 C16.2056,7.2586 15.9896,6.5886 16.0926,5.9236 L16.3116,4.3706 C16.3336,4.2076 16.2266,4.0596 16.0656,4.0336 L14.5116,3.7626 C13.8466,3.6446 13.2646,3.2186 12.9536,2.6216 L12.2156,1.2346 C12.1356,1.0896 11.9606,1.0266 11.8166,1.0996 L10.3946,1.7896 C9.7956,2.0966 9.0686,2.0976 8.4586,1.7856 L7.0566,1.0996 C6.9126,1.0296 6.7336,1.0886 6.6586,1.2336 L5.9176,2.6246 C5.5876,3.2336 5.0176,3.6466 4.3526,3.7626 L2.8016,4.0326 C2.6456,4.0586 2.5396,4.2106 2.5616,4.3716 L2.7816,5.9296 C2.8736,6.6106 2.6516,7.2796 2.1746,7.7686 L1.0866,8.8966 C0.9736,9.0136 0.9736,9.1966 1.0856,9.3126 L2.1766,10.4436 C2.6456,10.9246 2.8726,11.6146 2.7826,12.2866 L2.5616,13.8406 C2.5396,14.0016 2.6496,14.1586 2.8096,14.1886 L4.3526,14.4576 C4.4976,14.4816 4.6486,14.5296 4.7876,14.5796 C5.2896,14.7836 5.6746,15.1326 5.9186,15.5966 L6.6566,16.9736 C6.7346,17.1256 6.9096,17.1806 7.0576,17.1116 L8.8166,16.2506 C9.0436,16.1466 9.2376,16.1006 9.4366,16.1006 M11.9546,18.1446 C11.7616,18.1446 11.5646,18.1016 11.3776,18.0096 L9.6076,17.1496 C9.4216,17.0586 9.3796,17.0946 9.2456,17.1546 L7.4966,18.0096 C6.8526,18.3216 6.0956,18.0706 5.7716,17.4386 L5.0366,16.0666 C4.9006,15.8106 4.6916,15.6206 4.4286,15.5126 C4.3646,15.4906 4.2756,15.4576 4.1866,15.4436 L2.6306,15.1716 C1.9366,15.0416 1.4746,14.3956 1.5716,13.7016 L1.7916,12.1496 C1.8406,11.7836 1.7166,11.4046 1.4586,11.1386 L0.3666,10.0066 C-0.1224,9.5016 -0.1224,8.7086 0.3666,8.2026 L1.4566,7.0736 C1.7196,6.8026 1.8406,6.4366 1.7906,6.0666 L1.5716,4.5106 C1.4746,3.8176 1.9516,3.1616 2.6336,3.0466 L4.1816,2.7786 C4.5426,2.7146 4.8556,2.4866 5.0376,2.1516 L5.7746,0.7656 C6.0996,0.1506 6.8716,-0.1034 7.4966,0.2016 L8.9066,0.8906 C9.2436,1.0646 9.6206,1.0626 9.9496,0.8946 L11.3786,0.2006 C11.9996,-0.1024 12.7536,0.1416 13.0946,0.7576 L13.8376,2.1566 C14.0086,2.4826 14.3246,2.7136 14.6846,2.7786 L16.2316,3.0476 C16.9286,3.1616 17.4006,3.8036 17.3016,4.5096 L17.0816,6.0706 C17.0256,6.4326 17.1456,6.7976 17.4096,7.0766 L18.4966,8.2026 C18.9856,8.7086 18.9856,9.5016 18.4966,10.0076 L17.4066,11.1376 C17.1486,11.4096 17.0256,11.7876 17.0806,12.1436 L17.3016,13.7006 C17.3996,14.3986 16.9316,15.0436 16.2366,15.1716 L14.6826,15.4426 C14.5876,15.4576 14.4996,15.4906 14.4176,15.5196 C14.1746,15.6216 13.9636,15.8146 13.8436,16.0536 L13.0976,17.4466 C12.8706,17.8886 12.4246,18.1446 11.9546,18.1446" id="Fill-1" fill="#000000" mask="url(#mask-2)"></path>
            </g>
            <path d="M9.4337,5.5818 C6.9777,5.5818 4.9787,7.5808 4.9787,10.0368 C4.9787,12.4928 6.9777,14.4908 9.4337,14.4908 C11.8897,14.4908 13.8887,12.4928 13.8887,10.0368 C13.8887,7.5808 11.8897,5.5818 9.4337,5.5818 M9.4337,15.4908 C6.4257,15.4908 3.9787,13.0448 3.9787,10.0368 C3.9787,7.0288 6.4257,4.5818 9.4337,4.5818 C12.4417,4.5818 14.8887,7.0288 14.8887,10.0368 C14.8887,13.0448 12.4417,15.4908 9.4337,15.4908" id="Fill-4" fill="#000000"></path>
            <path d="M14.2466,15.9793 L14.2466,25.4293 L9.4566,20.6393 L4.6666,25.4293 L4.6166,25.4293 L4.6166,15.9793 C4.9866,16.1293 5.2866,16.3993 5.4766,16.7593 L6.2166,18.1393 C6.4166,18.5303 6.8866,18.6793 7.2766,18.4903 L9.0366,17.6293 C9.1666,17.5703 9.2966,17.5303 9.4366,17.5303 C9.5666,17.5303 9.7066,17.5703 9.8266,17.6293 L11.5966,18.4903 C11.9866,18.6793 12.4566,18.5303 12.6566,18.1393 L13.3966,16.7593 C13.5766,16.3993 13.8866,16.1293 14.2466,15.9793" id="Fill-6" fill="#009688"></path>
            <path d="M5.1168,17.1463 L5.1168,24.2723 L9.1028,20.2863 C9.2988,20.0903 9.6148,20.0903 9.8098,20.2863 L13.7468,24.2223 L13.7468,17.1653 L13.0968,18.3753 C12.7778,19.0003 12.0208,19.2533 11.3778,18.9393 L9.6078,18.0793 C9.4218,17.9883 9.3798,18.0243 9.2448,18.0833 L7.4958,18.9393 C6.8528,19.2503 6.0958,19.0003 5.7718,18.3683 L5.1168,17.1463 Z M14.2468,25.9293 C14.1168,25.9293 13.9888,25.8783 13.8928,25.7833 L9.4568,21.3463 L5.0198,25.7833 C4.7318,26.0713 4.1168,25.8383 4.1168,25.4293 L4.1168,15.9793 C4.1168,15.8133 4.1998,15.6573 4.3378,15.5643 C4.4768,15.4723 4.6518,15.4533 4.8048,15.5163 C5.2888,15.7123 5.6748,16.0623 5.9188,16.5263 L6.6568,17.9033 C6.7348,18.0553 6.9088,18.1103 7.0578,18.0413 L8.8168,17.1803 C9.2698,16.9733 9.6538,16.9863 10.0488,17.1813 L11.8158,18.0413 C11.9628,18.1103 12.1378,18.0563 12.2118,17.9113 L12.9558,16.5233 C13.1768,16.0833 13.5688,15.7203 14.0538,15.5183 C14.2078,15.4533 14.3848,15.4703 14.5238,15.5633 C14.6628,15.6563 14.7468,15.8123 14.7468,15.9793 L14.7468,25.4293 C14.7468,25.6313 14.6248,25.8143 14.4378,25.8913 C14.3758,25.9173 14.3108,25.9293 14.2468,25.9293 L14.2468,25.9293 Z" id="Fill-8" fill="#000000"></path>
            <path d="M8.525,12.1971 C8.397,12.1971 8.269,12.1481 8.171,12.0511 L6.564,10.4411 C6.368,10.2461 6.368,9.9291 6.564,9.7341 C6.759,9.5391 7.075,9.5391 7.271,9.7341 L8.531,10.9951 L11.602,8.0171 C11.8,7.8261 12.116,7.8301 12.309,8.0291 C12.502,8.2271 12.497,8.5441 12.298,8.7361 L8.873,12.0561 C8.776,12.1501 8.65,12.1971 8.525,12.1971" id="Fill-10" fill="#009688"></path>
        </g>
    </g>
</svg>