<?xml version="1.0" encoding="UTF-8"?>
<svg width="17px" height="14px" viewBox="0 0 17 14" version="1.1" xmlns="http://www.w3.org/2000/svg" xmlns:xlink="http://www.w3.org/1999/xlink">
    <!-- Generator: Sketch 45.2 (43514) - http://www.bohemiancoding.com/sketch -->
    <title>twit@1x</title>
    <desc>Created with Sketch.</desc>
    <defs/>
    <g id="Page-1" stroke="none" stroke-width="1" fill="none" fill-rule="evenodd">
        <g id="HomePage" transform="translate(-436.000000, -7810.000000)" fill="#B2B2B2">
            <g id="Footer" transform="translate(0.000000, 7636.000000)">
                <g id="Group-22-Copy" transform="translate(402.000000, 137.000000)">
                    <g id="Social" transform="translate(0.000000, 34.000000)">
                        <path d="M50.8333333,4.91193369 C50.2207655,5.17993156 49.5619851,5.36002009 48.8700522,5.44139901 C49.5765521,5.02495997 50.1175407,4.36564001 50.3739703,3.57872594 C49.7134318,3.96502465 48.9805606,4.24532982 48.2014768,4.39628269 C47.5788628,3.74223729 46.6900241,3.33333333 45.7067511,3.33333333 C43.8185654,3.33333333 42.2880249,4.84085272 42.2880249,6.69950708 C42.2880249,6.96348623 42.3184147,7.21917679 42.375427,7.46632759 C39.534358,7.326175 37.0145168,5.98543217 35.3285112,3.94920097 C35.0346594,4.44626542 34.8648784,5.0247088 34.8648784,5.64158111 C34.8648784,6.80876582 35.4699116,7.83906314 36.3863773,8.44287464 C35.8265521,8.42554394 35.2983725,8.27408873 34.8375025,8.02216571 L34.8375025,8.06411102 C34.8375025,8.49511789 34.9216395,8.90552887 35.0713281,9.28404132 C35.4889994,10.3397068 36.4290737,11.1371699 37.5806209,11.3659854 C37.293048,11.4418386 36.9919128,11.484035 36.6789733,11.484035 C36.4594635,11.484035 36.245228,11.4626856 36.0357645,11.4224985 C36.4717701,12.759725 37.7343279,13.7335092 39.2299578,13.7601331 C38.0593229,14.663841 36.5857947,15.2015949 34.9831726,15.2015949 C34.7066506,15.2015949 34.4351517,15.1857712 34.1666667,15.1546262 C35.6811332,16.1095727 37.4791541,16.6666667 39.4085292,16.6666667 C44.7538678,16.6666667 48.038477,12.9634234 48.9049628,9.12153465 C49.0584187,8.44262347 49.1375327,7.7586889 49.1375327,7.08957333 C49.1375327,6.94464852 49.1347699,6.79846787 49.1284911,6.65429657 C49.7958107,6.17983737 50.3759795,5.58707733 50.8333333,4.91193369" id="twit"/>
                    </g>
                </g>
            </g>
        </g>
    </g>
</svg>
