<svg xmlns="http://www.w3.org/2000/svg"
     viewBox="0 0 297.53 313.44"><defs/><title>Asset 47</title><g id="Layer_2"><g id="Layer_1-2"><path class="cls-1-unique" d="M53.87,311.11V236.27a44.69,44.69,0,0,1,32.91-43.1L133,180.52l13-3.53,10.28-2.82a45,45,0,0,1,24.1.13l9.34,2.69,7.74,2.23,47.66,13.64a44.75,44.75,0,0,1,32.37,43v75.24" style="fill: #fff; stroke: #000; stroke-linecap: round; stroke-linejoin: round; stroke-width: 4.47px;"/><polyline class="cls-1-unique" points="184.55 311.12 166.44 237.58 147.9 311.11" style="fill: #fff; stroke: #000; stroke-linecap: round; stroke-linejoin: round; stroke-width: 4.47px;"/><path class="cls-2-unique" d="M193.08,245.38l-12.74-6.06c-2.93,4.4-8.43,10.81-11.64,10.76s-11.58,2.1-17-12.5c-1.74-4.69-6.84,10.82-12.81,7.8,0,0-1-20.87,18-20.59S164,226.9,164,226.9L183.56,223l8.95,14.56Z" style="fill: #efefef;"/><path class="cls-1-unique" d="M155.43,225.07h20.43a4.47,4.47,0,0,1,3.8,6.83L169.72,248a4.47,4.47,0,0,1-7.55.1L151.69,232A4.47,4.47,0,0,1,155.43,225.07Z" style="fill: #fff; stroke: #000; stroke-linecap: round; stroke-linejoin: round; stroke-width: 4.47px;"/><path class="cls-3-unique" d="M177.44,228.64s2.83.72.5,4.07c0,0-7.55-2.89-12.67-1.68,0,0-6.8,3.64-11.92,1.68l-1.3-1.75s-8-7.94,2.42-7.94,8,2.33,12.19,3.36C166.66,226.38,174.41,223.08,177.44,228.64Z" style="fill: #067f71;"/><path class="cls-4-unique" d="M138.86,247.61a2.22,2.22,0,0,1-2.23-2.39l1.56-22.1c-1.55-9.9-1.57-47.75-1.57-49.37a2.24,2.24,0,0,1,1.7-2.17,2,2,0,0,1,.54-.07,2.24,2.24,0,0,1,2,1.19l27.81,52.63a2.24,2.24,0,0,1-1.55,3.24L154.47,231l-13.94,15.81A2.2,2.2,0,0,1,138.86,247.61Z" style="fill: #fff;"/><path d="M138.86,173.75l27.8,52.63L153.29,229l-14.43,16.39L140.44,223c-1.37-8.12-1.58-39.3-1.58-49.27h0m0-4.47a4.46,4.46,0,0,0-4.47,4.47c0,4,0,39.2,1.55,49.46l-1.54,21.85a4.46,4.46,0,0,0,2.73,4.44,4.57,4.57,0,0,0,1.73.35,4.46,4.46,0,0,0,3.35-1.52l13.43-15.24,11.88-2.33a4.47,4.47,0,0,0,3.09-6.47l-27.8-52.63a4.47,4.47,0,0,0-3.95-2.38Z"/><path class="cls-4-unique" d="M193.08,247.61a2.22,2.22,0,0,1-1.78-.88L179.54,231.3l-14.68-2.73a2.22,2.22,0,0,1-1.6-1.22,2.25,2.25,0,0,1,0-2L191.1,172.7a2.24,2.24,0,0,1,2-1.19,2,2,0,0,1,.54.07,2.24,2.24,0,0,1,1.7,2.17,280.19,280.19,0,0,1-2.88,39.66l2.87,31.77a2.23,2.23,0,0,1-2.22,2.43Z" style="fill: #fff;"/><path d="M193.07,173.75h0a276.74,276.74,0,0,1-2.9,39.57l2.9,32.06-12.28-16.12-15.52-2.88,27.8-52.63m0-4.47a4.48,4.48,0,0,0-3.95,2.38l-27.8,52.63a4.47,4.47,0,0,0,3.13,6.48l13.83,2.57,11.24,14.75a4.48,4.48,0,0,0,3.56,1.76,4.31,4.31,0,0,0,1.61-.31,4.47,4.47,0,0,0,2.84-4.57l-2.85-31.48a284.08,284.08,0,0,0,2.87-39.74,4.47,4.47,0,0,0-4.48-4.47Z"/><path class="cls-4-unique" d="M166.66,228.61a2.24,2.24,0,0,1-1.87-1L137,184.94a2.31,2.31,0,0,1-.36-1.22v-62.6a2.23,2.23,0,0,1,2.24-2.23h53.65a2.23,2.23,0,0,1,2.23,2.23v62.6a2.22,2.22,0,0,1-.32,1.15l-25.85,42.66a2.22,2.22,0,0,1-1.87,1.08Z" style="fill: #fff;"/><path d="M192.51,121.12v62.6l-25.85,42.66-27.8-42.66v-62.6h53.65m0-4.47H138.86a4.47,4.47,0,0,0-4.47,4.47v62.6a4.52,4.52,0,0,0,.72,2.44l27.81,42.66a4.47,4.47,0,0,0,3.74,2h.07a4.46,4.46,0,0,0,3.75-2.16L196.33,186a4.5,4.5,0,0,0,.65-2.31v-62.6a4.47,4.47,0,0,0-4.47-4.47Z"/><path class="cls-2-unique" d="M191.73,160.24l-.38,12.59s-27.66,15.94-50.95,0l-1.3-15.75Z" style="fill: #efefef;"/><path class="cls-5-unique" d="M165.94,2.24C142,2.17,91,6.48,103.76,79.82c8.23,47.18,27.47,86.79,61.69,86.89s57.75-38.84,62.2-86.52C233.17,21,218,23.24,202.38,17.61a17.28,17.28,0,0,1-5.65-3.34C192.59,10.56,181.6,2.28,165.94,2.24Z" style="stroke: #000; stroke-linecap: round; stroke-linejoin: round; stroke-width: 4.47px; fill: #009688;"/><path class="cls-1-unique" d="M223.29,96.8c-.13,44.55-26,76.13-57.86,76S107.88,141,108,96.45s26-80.6,57.87-80.5S223.43,52.24,223.29,96.8Z" style="fill: #fff; stroke: #000; stroke-linecap: round; stroke-linejoin: round; stroke-width: 4.47px;"/><path class="cls-6-unique" d="M211.27,32.7,224,74.54s-6.47-22.46-30.17-24.62c0,0-11.43-2.33-7.27-9.83,0,0-3.17,7.08-10.05,9.63,0,0-23.95,8.43-43.5,6.45,0,0-15.64-5.05-22.18,15.65C104.9,69,113.18,50,113.18,50l24.13-32.9L174,8.59Z" style="fill: #009688;"/><path class="cls-2-unique" d="M110.68,85.06s.95-28.93,32.8-26.46c0,0,34.92.95,40.83-10.63,0,0,6.05,7,14.51,6.5,0,0,17.92,1.94,21.76,32.4,0,0-1.55-28.67-13.69-33.75,0,0-21.58-3.08-21.85-10.19,0,0-10.2,11-28.95,11.89,0,0-12.75.81-23.78.87,0,0-13.3-3.48-19.31,16.71Z" style="fill: #efefef;"/><path class="cls-7-unique" d="M110.83,71.82s3.88-16.72,18.76-16.21c17.84.61,55.48.17,57.77-18.79" style="stroke: #000; stroke-linecap: round; stroke-linejoin: round; stroke-width: 4.47px; fill: none;"/><path class="cls-7-unique" d="M220.07,69.82s-2.67-16.35-20.49-18.74C184.35,49,185,42.93,185,42.93" style="stroke: #000; stroke-linecap: round; stroke-linejoin: round; stroke-width: 4.47px; fill: none;"/><path class="cls-1-unique" d="M220.58,86.87c7.76,0,12.82,5.57,12.8,13.33s-9,14.78-14,14.76" style="fill: #fff; stroke: #000; stroke-linecap: round; stroke-linejoin: round; stroke-width: 4.47px;"/><path class="cls-1-unique" d="M110.83,86.54c-7.76,0-12.89,5.5-12.91,13.26S107.06,114,112,114" style="fill: #fff; stroke: #000; stroke-linecap: round; stroke-linejoin: round; stroke-width: 4.47px;"/><path class="cls-7-unique" d="M181.82,23.37s-9,20.33-50,15.69" style="stroke: #000; stroke-linecap: round; stroke-linejoin: round; stroke-width: 4.47px; fill: none;"/><path class="cls-7-unique" d="M130,23.22s-20.67,7.71-20.59,35.52" style="stroke: #000; stroke-linecap: round; stroke-linejoin: round; stroke-width: 4.47px; fill: none;"/><line class="cls-5-unique" x1="99.09" y1="311.11" x2="99.09" y2="253.95" style="stroke: #000; stroke-linecap: round; stroke-linejoin: round; stroke-width: 4.47px; fill: #009688;"/><line class="cls-5-unique" x1="232.71" y1="311.11" x2="232.71" y2="262.57" style="stroke: #000; stroke-linecap: round; stroke-linejoin: round; stroke-width: 4.47px; fill: #009688;"/><path class="cls-2-unique" d="M175.24,154.93c0,.57-3.71,1-8.29,1s-8.29-.46-8.29-1,3.71-1.81,8.29-1.81S175.24,154.37,175.24,154.93Z" style="fill: #efefef;"/><line class="cls-5-unique" x1="53.87" y1="311.12" x2="277.42" y2="311.12" style="stroke: #000; stroke-linecap: round; stroke-linejoin: round; stroke-width: 4.47px; fill: #009688;"/><polygon class="cls-4-unique" points="182.07 278.15 171.29 308.86 199.4 308.86 182.07 278.15" style="fill: #fff;"/><polygon class="cls-4-unique" points="143.14 278.15 132.36 308.86 160.46 308.86 143.14 278.15" style="fill: #fff;"/><polygon class="cls-2-unique" points="210.29 185.1 232.71 213.6 210.29 228.16 214.76 236.59 188.78 308.86 178.86 308.86 201.89 182.4 210.29 185.1" style="fill: #efefef;"/><polygon class="cls-2-unique" points="122.63 185.1 100.21 213.6 122.63 228.16 118.16 236.59 144.14 308.86 154.06 308.86 131.03 182.4 122.63 185.1" style="fill: #efefef;"/><polygon class="cls-5-unique" points="108.02 212.39 129.43 228.16 123.46 237.58 149.56 311.11 163.16 311.12 136.13 173.75 108.02 212.39" style="stroke: #000; stroke-linecap: round; stroke-linejoin: round; stroke-width: 4.47px; fill: #009688;"/><polygon class="cls-5-unique" points="223.29 211.81 201.88 227.58 207.85 237 181.76 310.54 168.15 310.54 195.18 173.17 223.29 211.81" style="stroke: #000; stroke-linecap: round; stroke-linejoin: round; stroke-width: 4.47px; fill: #009688;"/><polyline class="cls-1-unique" points="67.49 245.63 99.09 311.11 53.87 311.11 29.04 246.33" style="fill: #fff; stroke: #000; stroke-linecap: round; stroke-linejoin: round; stroke-width: 4.47px;"/><line class="cls-1-unique" x1="31.96" y1="253.95" x2="59.67" y2="247.68" style="fill: #fff; stroke: #000; stroke-linecap: round; stroke-linejoin: round; stroke-width: 4.47px;"/><polygon class="cls-1-unique" points="103.08 137.16 146.41 251.93 51.57 287.73 2.23 157.06 78.27 128.35 103.08 137.16" style="fill: #fff; stroke: #000; stroke-linecap: round; stroke-linejoin: round; stroke-width: 4.47px;"/><rect class="cls-1-unique" x="16.65" y="207.04" width="35.28" height="38.68" rx="13.41" ry="13.41" transform="translate(-83.84 30.25) rotate(-22.45)" style="fill: #fff; stroke: #000; stroke-linecap: round; stroke-linejoin: round; stroke-width: 4.47px;"/><rect class="cls-1-unique" x="164.4" y="179.44" width="30.26" height="38.78" transform="translate(426.22 303.27) rotate(155.02)" style="fill: #fff; stroke: #000; stroke-linecap: round; stroke-linejoin: round; stroke-width: 4.47px;"/><path class="cls-5-unique" d="M161.59,141.21h0a4.33,4.33,0,0,1,4.33,4.33v30.69a0,0,0,0,1,0,0h-8.66a0,0,0,0,1,0,0V145.54A4.33,4.33,0,0,1,161.59,141.21Z" transform="translate(373.47 238.76) rotate(156.21)" style="stroke: #000; stroke-linecap: round; stroke-linejoin: round; stroke-width: 4.47px; fill: #009688;"/><path class="cls-5-unique" d="M124.57,135.05A24.32,24.32,0,1,0,137,103,24.32,24.32,0,0,0,124.57,135.05Zm7.11-3.13a16.55,16.55,0,1,1,21.82,8.46A16.54,16.54,0,0,1,131.68,131.92Z" style="stroke: #000; stroke-linecap: round; stroke-linejoin: round; stroke-width: 4.47px; fill: #009688;"/><rect class="cls-1-unique" x="150.55" y="157.98" width="36.26" height="34.03" rx="13.41" ry="13.41" transform="translate(395.48 262.41) rotate(155.02)" style="fill: #fff; stroke: #000; stroke-linecap: round; stroke-linejoin: round; stroke-width: 4.47px;"/><polygon class="cls-1-unique" points="194.74 192.16 262.05 311.11 203.72 310.54 165.56 207.58 194.74 192.16" style="fill: #fff; stroke: #000; stroke-linecap: round; stroke-linejoin: round; stroke-width: 4.47px;"/><circle class="cls-6-unique" cx="193.22" cy="205.84" r="2.94" style="fill: #009688;"/><polyline class="cls-7-unique" points="78.27 128.35 85.13 145.24 103.08 137.16" style="stroke: #000; stroke-linecap: round; stroke-linejoin: round; stroke-width: 4.47px; fill: none;"/><line class="cls-8-unique" x1="295.2" y1="311.12" x2="4.94" y2="311.12" style="stroke: #000; stroke-linecap: round; stroke-linejoin: round; fill: #009688; stroke-width: 4.66px;"/></g></g></svg>
