<?xml version="1.0" encoding="UTF-8"?>
<svg width="20px" height="17px" viewBox="0 0 20 17" version="1.1" xmlns="http://www.w3.org/2000/svg" xmlns:xlink="http://www.w3.org/1999/xlink">
    <!-- Generator: Sketch 43.1 (39012) - http://www.bohemiancoding.com/sketch -->
    <title>Tour/Vaction_icon</title>
    <desc>Created with Sketch.</desc>
    <defs/>
    <g id="Welcome" stroke="none" stroke-width="1" fill="none" fill-rule="evenodd">
        <g id="Side_Menu" transform="translate(-15.000000, -67.000000)">
            <g id="Group-14" transform="translate(0.000000, 24.000000)">
                <g id="Tour_Packages" transform="translate(16.000000, 42.000000)">
                    <g id="Tour/Vaction_icon">
                        <rect id="Rectangle-9" x="0" y="0" width="18" height="18"/>
                        <g id="Tour_package_icon" transform="translate(0.000000, 2.000000)">
                            <path d="M17.0690897,14.5822345 L0.931158621,14.5822345 C0.587917241,14.5822345 0.310468966,14.3041655 0.310468966,13.9615448 L0.310468966,4.03051034 C0.310468966,3.68788966 0.587917241,3.40982069 0.931158621,3.40982069 L17.0690897,3.40982069 C17.4117103,3.40982069 17.6897793,3.68788966 17.6897793,4.03051034 L17.6897793,13.9615448 C17.6897793,14.3041655 17.4117103,14.5822345 17.0690897,14.5822345 Z" id="Stroke-1" stroke="#000000" stroke-linecap="round" stroke-linejoin="round"/>
                            <path d="M15.2070207,3.53135172 L15.2070207,14.5821103" id="Stroke-3" stroke="#000000" stroke-linecap="round" stroke-linejoin="round"/>
                            <path d="M2.79322759,3.53135172 L2.79322759,14.5821103" id="Stroke-5" stroke="#000000" stroke-linecap="round" stroke-linejoin="round"/>
                            <path d="M13.3449517,2.17235172 L4.65529655,2.17235172 L4.65529655,0.930972414 C4.65529655,0.588351724 4.93274483,0.310282759 5.27598621,0.310282759 L12.7242621,0.310282759 C13.0668828,0.310282759 13.3449517,0.588351724 13.3449517,0.930972414 L13.3449517,2.17235172 Z" id="Stroke-7" stroke="#000000" stroke-linecap="round" stroke-linejoin="round"/>
                            <path d="M13.3349586,2.15025517 L13.3349586,3.40963448" id="Stroke-9" stroke="#000000" stroke-linecap="round" stroke-linejoin="round"/>
                            <path d="M4.65529655,2.15025517 L4.65529655,3.40963448" id="Stroke-11" stroke="#000000" stroke-linecap="round" stroke-linejoin="round"/>
                            <path d="M11.4344069,8.71175172 C11.3518552,8.71175172 11.2730276,8.67885517 11.2146828,8.62113103 L9.45937241,6.8652 C9.33833793,6.74416552 9.33833793,6.54802759 9.45937241,6.42637241 L11.2146828,4.67106207 C11.2755103,4.61085517 11.3549586,4.58044138 11.4344069,4.58044138 C11.5138552,4.58044138 11.5933034,4.61085517 11.654131,4.67106207 L13.4094414,6.42637241 C13.4671655,6.48471724 13.5000621,6.56354483 13.5000621,6.64609655 C13.5000621,6.72864828 13.4671655,6.80747586 13.4094414,6.8652 L11.654131,8.62113103 C11.5957862,8.67885517 11.5169586,8.71175172 11.4344069,8.71175172" id="Fill-13" fill="#009688"/>
                            <path d="M11.4344069,4.26991034 C11.2755103,4.26991034 11.1166138,4.33073793 10.9955793,4.45177241 L9.24026897,6.20708276 C8.99757931,6.44915172 8.99757931,6.84266897 9.24026897,7.08473793 L10.9955793,8.84004828 C11.1116483,8.95673793 11.2699241,9.02191034 11.4344069,9.02191034 C11.5988897,9.02191034 11.7571655,8.95673793 11.8732345,8.84004828 L13.6285448,7.08473793 C13.8712345,6.84266897 13.8712345,6.44915172 13.6285448,6.20708276 L11.8732345,4.45177241 C11.7522,4.33073793 11.5933034,4.26991034 11.4344069,4.26991034 M11.4344069,4.8906 L13.1897172,6.64591034 L11.4344069,8.40122069 L9.67909655,6.64591034 L11.4344069,4.8906" id="Fill-15" fill="#000000"/>
                            <path d="M5.47361379,12.9783724 C4.85168276,12.9783724 4.3452,12.4718897 4.3452,11.8499586 C4.3452,11.2274069 4.85168276,10.7209241 5.47361379,10.7209241 C6.09554483,10.7209241 6.60202759,11.2274069 6.60202759,11.8499586 C6.60202759,12.4718897 6.09554483,12.9783724 5.47361379,12.9783724" id="Fill-17" fill="#009688"/>
                            <path d="M5.47361379,10.4104552 C4.68037241,10.4104552 4.03423448,11.0559724 4.03423448,11.8498345 C4.03423448,12.6430759 4.68037241,13.2885931 5.47361379,13.2885931 C6.26685517,13.2885931 6.91237241,12.6430759 6.91237241,11.8498345 C6.91237241,11.0559724 6.26685517,10.4104552 5.47361379,10.4104552 M5.47361379,11.0311448 C5.92547586,11.0311448 6.29168276,11.3973517 6.29168276,11.8498345 C6.29168276,12.3016966 5.92547586,12.6679034 5.47361379,12.6679034 C5.02113103,12.6679034 4.65492414,12.3016966 4.65492414,11.8498345 C4.65492414,11.3973517 5.02113103,11.0311448 5.47361379,11.0311448" id="Fill-19" fill="#000000"/>
                        </g>
                    </g>
                </g>
            </g>
        </g>
    </g>
</svg>
