<?xml version="1.0" encoding="UTF-8"?>
<svg width="24px" height="24px" viewBox="0 0 24 24" version="1.1" xmlns="http://www.w3.org/2000/svg" xmlns:xlink="http://www.w3.org/1999/xlink">
    <!-- Generator: Sketch 50.2 (55047) - http://www.bohemiancoding.com/sketch -->
    <title>Icon/Visa</title>
    <desc>Created with Sketch.</desc>
    <defs>
        <polygon id="path-1" points="0 0 15.868 0 15.868 20 0 20"></polygon>
        <polygon id="path-3" points="0 20 15.868 20 15.868 0 0 0"></polygon>
    </defs>
    <g id="Icon/Visa" stroke="none" stroke-width="1" fill="none" fill-rule="evenodd">
        <g id="icon/visa">
            <rect id="Rectangle" x="0" y="0" width="24" height="24"></rect>
        </g>
        <g id="Page-1" transform="translate(4.000000, 2.000000)">
            <path d="M11.0635,7.2739 C11.0635,9.2919 9.4475,10.9279 7.4535,10.9279 C5.4605,10.9279 3.8445,9.2919 3.8445,7.2739 C3.8445,5.2559 5.4605,3.6209 7.4535,3.6209 C9.4475,3.6209 11.0635,5.2559 11.0635,7.2739" id="Fill-1" fill="#009688"></path>
            <g id="Group-5">
                <mask id="mask-2" fill="white">
                    <use xlink:href="#path-1"></use>
                </mask>
                <g id="Clip-4"></g>
                <path d="M2.104,1 C1.495,1 1,1.496 1,2.104 L1,17.896 C1,18.505 1.495,19 2.104,19 L13.764,19 C14.373,19 14.868,18.505 14.868,17.896 L14.868,2.104 C14.868,1.496 14.373,1 13.764,1 L2.104,1 Z M13.764,20 L2.104,20 C0.944,20 0,19.056 0,17.896 L0,2.104 C0,0.944 0.944,0 2.104,0 L13.764,0 C14.924,0 15.868,0.944 15.868,2.104 L15.868,17.896 C15.868,19.056 14.924,20 13.764,20 Z" id="Fill-3" fill="#000000" mask="url(#mask-2)"></path>
            </g>
            <path d="M7.9336,3.5229 C5.8356,3.5229 4.1286,5.2529 4.1286,7.3809 C4.1286,9.5079 5.8356,11.2389 7.9336,11.2389 C10.0326,11.2389 11.7396,9.5079 11.7396,7.3809 C11.7396,5.2529 10.0326,3.5229 7.9336,3.5229 M7.9336,12.2389 C5.2846,12.2389 3.1286,10.0599 3.1286,7.3809 C3.1286,4.7019 5.2846,2.5229 7.9336,2.5229 C10.5836,2.5229 12.7396,4.7019 12.7396,7.3809 C12.7396,10.0599 10.5836,12.2389 7.9336,12.2389" id="Fill-6" fill="#000000"></path>
            <path d="M7.9336,3.6738 C7.0936,3.6738 6.1576,5.1958 6.1576,7.3808 C6.1576,9.5658 7.0936,11.0888 7.9336,11.0888 C8.7736,11.0888 9.7096,9.5658 9.7096,7.3808 C9.7096,5.1958 8.7736,3.6738 7.9336,3.6738 M7.9336,12.0888 C6.3766,12.0888 5.1576,10.0208 5.1576,7.3808 C5.1576,4.7408 6.3766,2.6738 7.9336,2.6738 C9.4906,2.6738 10.7096,4.7408 10.7096,7.3808 C10.7096,10.0208 9.4906,12.0888 7.9336,12.0888" id="Fill-8" fill="#000000"></path>
            <mask id="mask-4" fill="white">
                <use xlink:href="#path-3"></use>
            </mask>
            <g id="Clip-11"></g>
            <polygon id="Fill-10" fill="#000000" mask="url(#mask-4)" points="3.763 7.922 12.041 7.922 12.041 6.922 3.763 6.922"></polygon>
            <path d="M11.7222,14.6895 L4.0812,14.6895 C3.8052,14.6895 3.5812,14.4655 3.5812,14.1895 C3.5812,13.9135 3.8052,13.6895 4.0812,13.6895 L11.7222,13.6895 C11.9982,13.6895 12.2222,13.9135 12.2222,14.1895 C12.2222,14.4655 11.9982,14.6895 11.7222,14.6895" id="Fill-12" fill="#000000" mask="url(#mask-4)"></path>
            <path d="M11.7222,16.623 L4.0812,16.623 C3.8052,16.623 3.5812,16.399 3.5812,16.123 C3.5812,15.847 3.8052,15.623 4.0812,15.623 L11.7222,15.623 C11.9982,15.623 12.2222,15.847 12.2222,16.123 C12.2222,16.399 11.9982,16.623 11.7222,16.623" id="Fill-13" fill="#000000" mask="url(#mask-4)"></path>
        </g>
    </g>
</svg>