<?xml version="1.0" encoding="UTF-8"?>
<svg width="14px" height="13px" viewBox="0 0 14 13" version="1.1" xmlns="http://www.w3.org/2000/svg" xmlns:xlink="http://www.w3.org/1999/xlink">
    <!-- Generator: Sketch 52.2 (67145) - http://www.bohemiancoding.com/sketch -->
    <title>icon/wallet</title>
    <desc>Created with Sketch.</desc>
    <g id="icon/wallet" stroke="none" stroke-width="1" fill="none" fill-rule="evenodd">
        <g id="wallet" fill="#009688" fill-rule="nonzero">
            <path d="M13.2161608,5.24863017 L12.8831009,5.24863017 L12.8831009,3.23857784 C12.8831009,2.41667697 12.2169811,1.75050468 11.4015587,1.75050468 L11.0943396,1.75050468 L11.0972108,1.00358423 C11.0972108,0.449882586 10.6493027,0 10.0980312,0 L1.2145201,0 C0.551271534,0 0.00861361772,0.536398467 0,1.20257076 C0,1.20833848 0,1.21410621 0,1.21987393 L0,11.0653813 C0,11.6190829 0.447908121,12.0689655 0.999179655,12.0689655 L11.4044299,12.0689655 C12.2227235,12.0689655 12.8859721,11.3999094 12.8859721,10.5808923 L12.8859721,8.56795617 L13.219032,8.56795617 C13.6497129,8.56795617 14,8.21612491 14,7.7835455 L14,6.03304083 C13.9971288,5.60046142 13.6468417,5.24863017 13.2161608,5.24863017 Z M1.2145201,0.692127055 L10.0980312,0.692127055 C10.2674323,0.692127055 10.4081214,0.830552466 10.4081214,1.00070037 L10.4052502,1.75050468 L1.2145201,1.75050468 C0.924528302,1.75050468 0.689089418,1.51402793 0.689089418,1.2227578 C0.689089418,0.931487661 0.924528302,0.692127055 1.2145201,0.692127055 Z M12.1940115,10.5780085 C12.1940115,11.0163556 11.837982,11.3739546 11.4015587,11.3739546 L0.99630845,11.3739546 C0.826907301,11.3739546 0.686218212,11.2355292 0.686218212,11.0624974 L0.686218212,2.3215095 C0.847005742,2.39937379 1.02502051,2.44263173 1.2145201,2.44263173 L11.4015587,2.44263173 C11.837982,2.44263173 12.1940115,2.80023071 12.1940115,3.23857784 L12.1940115,5.24863017 L9.84249385,5.24863017 C9.41181296,5.24863017 9.06152584,5.60046142 9.06152584,6.03304083 L9.06152584,7.7835455 C9.06152584,8.21612491 9.41181296,8.56795617 9.84249385,8.56795617 L12.1940115,8.56795617 L12.1940115,10.5780085 Z M13.3080394,7.7835455 C13.3080394,7.83545503 13.2678425,7.87582911 13.2161608,7.87582911 L9.84536505,7.87582911 C9.79368335,7.87582911 9.75348646,7.83545503 9.75348646,7.7835455 L9.75348646,6.03304083 C9.75348646,5.98401516 9.79368335,5.94075722 9.84536505,5.94075722 L13.2161608,5.94075722 C13.2649713,5.94075722 13.3080394,5.9811313 13.3080394,6.03304083 L13.3080394,7.7835455 Z" id="Shape"></path>
        </g>
    </g>
</svg>