<svg xmlns="http://www.w3.org/2000/svg" viewBox="0 0 24.93 25.02"><defs/><title>Water Activities</title><g id="Layer_2"><g id="Rafting"><rect class="cls-wateractivity1" x="0.54" y="9.6" width="3.27" height="5.18" style="fill: #009688;"/><rect class="cls-wateractivity1" x="12.16" y="9.6" width="3.27" height="5.18" style="fill: #009688;"/><rect class="cls-wateractivity2" x="0.5" y="0.5" width="15.01" height="24.02" rx="6.25" ry="6.25" style="fill: none; stroke: #000; stroke-miterlimit: 10;"/><rect class="cls-wateractivity2" x="3.85" y="5.86" width="8.31" height="13.31" rx="3.46" ry="3.46" style="fill: none; stroke: #000; stroke-miterlimit: 10;"/><line class="cls-wateractivity2" x1="0.54" y1="9.6" x2="3.85" y2="9.6" style="fill: none; stroke: #000; stroke-miterlimit: 10;"/><line class="cls-wateractivity2" x1="0.54" y1="14.78" x2="3.81" y2="14.78" style="fill: none; stroke: #000; stroke-miterlimit: 10;"/><line class="cls-wateractivity2" x1="12.36" y1="9.6" x2="15.67" y2="9.6" style="fill: none; stroke: #000; stroke-miterlimit: 10;"/><line class="cls-wateractivity2" x1="12.36" y1="14.78" x2="15.63" y2="14.78" style="fill: none; stroke: #000; stroke-miterlimit: 10;"/><ellipse cx="3.85" cy="4.16" rx="0.5" ry="0.52"/><line class="cls-wateractivity3" x1="22.43" y1="2.52" x2="22.43" y2="15.52" style="fill: none; stroke: #000; stroke-miterlimit: 10; stroke-linecap: round;"/><path class="cls-wateractivity3" d="M23.93,24.52h-3a.5.5,0,0,1-.5-.5V17.73a.5.5,0,0,1,.14-.35l1.49-1.5a.5.5,0,0,1,.71,0l1.51,1.5a.5.5,0,0,1,.15.36V24A.5.5,0,0,1,23.93,24.52Z" style="fill: none; stroke: #000; stroke-miterlimit: 10; stroke-linecap: round;"/><line class="cls-wateractivity3" x1="21.43" y1="3.52" x2="23.43" y2="3.52" style="fill: none; stroke: #000; stroke-miterlimit: 10; stroke-linecap: round;"/></g></g></svg>
