<svg xmlns="http://www.w3.org/2000/svg" viewBox="0 0 29 23"><defs /><title>Weather_icon</title><g id="Layer_2"><g id="Weather"><path class="cls-weather1" d="M19.57,8.54a6,6,0,0,1,5.06,3.57,5.25,5.25,0,1,0-9-2.44A6,6,0,0,1,19.57,8.54Z" style="fill: #009688; stroke: #000; stroke-linecap: round; stroke-linejoin: round;"/><path class="cls-weather2" d="M18.47,10.56a6,6,0,0,0-4.57,2.13A7,7,0,1,0,7.5,22.5h11a6,6,0,0,0,0-11.94Z" style="stroke: #000; stroke-linecap: round; stroke-linejoin: round; fill: none;"/><line class="cls-weather2" x1="24.44" y1="0.5" x2="23.47" y2="2.18" style="stroke: #000; stroke-linecap: round; stroke-linejoin: round; fill: none;"/><line class="cls-weather2" x1="17.42" y1="0.5" x2="18.39" y2="2.18" style="stroke: #000; stroke-linecap: round; stroke-linejoin: round; fill: none;"/><line class="cls-weather2" x1="28.39" y1="4.25" x2="26.69" y2="5.48" style="stroke: #000; stroke-linecap: round; stroke-linejoin: round; fill: none;"/><line class="cls-weather2" x1="12.8" y1="3.96" x2="14.5" y2="5.19" style="stroke: #000; stroke-linecap: round; stroke-linejoin: round; fill: none;"/><line class="cls-weather2" x1="27.19" y1="10" x2="28.5" y2="10.22" style="stroke: #000; stroke-linecap: round; stroke-linejoin: round; fill: none;"/><path class="cls-weather2" d="M16.32,11s-3.46.75-3,5.87" style="stroke: #000; stroke-linecap: round; stroke-linejoin: round; fill: none;"/></g></g></svg>
