<?xml version="1.0" encoding="UTF-8"?>
<svg width="24px" height="24px" viewBox="0 0 24 24" version="1.1" xmlns="http://www.w3.org/2000/svg" xmlns:xlink="http://www.w3.org/1999/xlink">
    <!-- Generator: Sketch 53 (72520) - https://sketchapp.com -->
    <title>Icons/Whatsapp/Enabled</title>
    <desc>Created with Sketch.</desc>
    <defs>
        <polygon id="path-1" points="0.00234375 0 20 0 20 20 0.00234375 20"></polygon>
    </defs>
    <g id="Icons/Whatsapp/Enabled" stroke="none" stroke-width="1" fill="none" fill-rule="evenodd">
        <g id="whatsapp" transform="translate(2.000000, 2.000000)">
            <g>
                <g id="Group-3">
                    <mask id="mask-2" fill="white">
                        <use xlink:href="#path-1"></use>
                    </mask>
                    <g id="Clip-2"></g>
                    <path d="M0,20 L1.37929688,15 C0.482773438,13.4482813 0,11.7241406 0,9.93101562 C0,4.48277344 4.48277344,0 9.96550781,0 C15.4482813,0 20,4.48277344 20,9.93101562 C20,15.3792969 15.4482813,20 9.96550781,20 C8.24136719,20 6.58621094,19.4482813 5.1034375,18.6207031 L0,20" id="Fill-1" fill="#EEEEEA" mask="url(#mask-2)"></path>
                </g>
                <path d="M5.37929687,16.8275781 L5.68964844,17 C6.96550781,17.7930859 8.44828125,18.2758594 10,18.2758594 C14.5172266,18.2758594 18.2758594,14.5172266 18.2758594,9.93101562 C18.2758594,5.34484375 14.5172266,1.72414062 9.96550781,1.72414062 C5.41378906,1.72414062 1.72414062,5.37929687 1.72414062,9.93101562 C1.72414062,11.5172266 2.17242188,13.0689844 3,14.3792969 L3.20691406,14.6896484 L2.41378906,17.5862109 L5.37929687,16.8275781" id="Fill-4" fill="#5DB467"></path>
                <path d="M7.31035156,5.31035156 L6.65515625,5.27585938 C6.44828125,5.27585938 6.24136719,5.34484375 6.1034375,5.48277344 C5.79308594,5.75863281 5.27585937,6.27585937 5.13792969,6.96550781 C4.8965625,8 5.27585937,9.24136719 6.17242188,10.4827734 C7.06898438,11.7241406 8.79308594,13.7241406 11.8275781,14.5862109 C12.7930859,14.8620703 13.5517188,14.6896484 14.1724219,14.3103516 C14.6551563,14 14.9655078,13.5172266 15.0689844,13 L15.1724219,12.5172266 C15.2069141,12.3792969 15.1379297,12.2069141 15,12.1379297 L12.8275781,11.1379297 C12.6896484,11.0689844 12.5172266,11.1034375 12.4137891,11.2413672 L11.5517188,12.3448437 C11.4827734,12.4137891 11.3792969,12.4482812 11.2758594,12.4137891 C10.6896484,12.2069141 8.72414063,11.3792969 7.65515625,9.31035156 C7.62070313,9.20691406 7.62070313,9.1034375 7.68964844,9.03449219 L8.51722656,8.1034375 C8.58621094,8 8.62070313,7.86207031 8.58621094,7.75863281 L7.58621094,5.51722656 C7.55171875,5.41378906 7.44828125,5.31035156 7.31035156,5.31035156" id="Fill-5" fill="#FFFFFE"></path>
            </g>
        </g>
    </g>
</svg>